G75*
G70*
%OFA0B0*%
%FSLAX24Y24*%
%IPPOS*%
%LPD*%
%AMOC8*
5,1,8,0,0,1.08239X$1,22.5*
%
%ADD10C,0.0010*%
%ADD11C,0.0100*%
%ADD12C,0.0050*%
D10*
X000412Y000471D02*
X000442Y000501D01*
X000412Y000531D01*
X000502Y000531D01*
X000502Y000563D02*
X000502Y000593D01*
X000502Y000578D02*
X000442Y000578D01*
X000442Y000563D01*
X000412Y000578D02*
X000397Y000578D01*
X000442Y000625D02*
X000442Y000670D01*
X000457Y000685D01*
X000502Y000685D01*
X000502Y000717D02*
X000502Y000747D01*
X000502Y000732D02*
X000442Y000732D01*
X000442Y000717D01*
X000412Y000732D02*
X000397Y000732D01*
X000457Y000778D02*
X000457Y000838D01*
X000457Y000870D02*
X000457Y000915D01*
X000472Y000930D01*
X000487Y000930D01*
X000502Y000915D01*
X000502Y000870D01*
X000412Y000870D01*
X000412Y000915D01*
X000427Y000930D01*
X000442Y000930D01*
X000457Y000915D01*
X000457Y001054D02*
X000457Y001084D01*
X000502Y001054D02*
X000412Y001054D01*
X000412Y001114D01*
X000412Y001146D02*
X000412Y001206D01*
X000427Y001238D02*
X000487Y001238D01*
X000502Y001253D01*
X000502Y001283D01*
X000487Y001298D01*
X000427Y001298D02*
X000412Y001283D01*
X000412Y001253D01*
X000427Y001238D01*
X000457Y001176D02*
X000457Y001146D01*
X000502Y001146D02*
X000412Y001146D01*
X000442Y001422D02*
X000412Y001452D01*
X000442Y001482D01*
X000502Y001482D01*
X000487Y001514D02*
X000457Y001514D01*
X000442Y001529D01*
X000442Y001574D01*
X000412Y001574D02*
X000502Y001574D01*
X000502Y001529D01*
X000487Y001514D01*
X000457Y001482D02*
X000457Y001422D01*
X000442Y001422D02*
X000502Y001422D01*
X000487Y001606D02*
X000472Y001621D01*
X000472Y001666D01*
X000457Y001666D02*
X000502Y001666D01*
X000502Y001621D01*
X000487Y001606D01*
X000442Y001621D02*
X000442Y001651D01*
X000457Y001666D01*
X000442Y001698D02*
X000442Y001743D01*
X000457Y001759D01*
X000487Y001759D01*
X000502Y001743D01*
X000502Y001698D01*
X000532Y001698D02*
X000442Y001698D01*
X000442Y001791D02*
X000442Y001821D01*
X000427Y001806D02*
X000487Y001806D01*
X000502Y001821D01*
X000487Y001852D02*
X000457Y001852D01*
X000442Y001867D01*
X000442Y001897D01*
X000457Y001912D01*
X000472Y001912D01*
X000472Y001852D01*
X000487Y001852D02*
X000502Y001867D01*
X000502Y001897D01*
X000502Y001944D02*
X000442Y001944D01*
X000472Y001944D02*
X000442Y001974D01*
X000442Y001989D01*
X000442Y000625D02*
X000502Y000625D01*
X000502Y000471D02*
X000412Y000471D01*
D11*
X000290Y000368D02*
X004700Y000368D01*
X004700Y003006D01*
X000290Y003006D01*
X000290Y000368D01*
D12*
X000920Y000702D02*
X004070Y000702D01*
X004070Y000899D01*
X004070Y001883D01*
X000920Y001883D01*
X000920Y000899D01*
X000920Y000702D01*
X000920Y000899D02*
X004070Y000899D01*
M02*
