G75*
G70*
%OFA0B0*%
%FSLAX24Y24*%
%IPPOS*%
%LPD*%
%AMOC8*
5,1,8,0,0,1.08239X$1,22.5*
%
%ADD10C,0.0010*%
%ADD11C,0.0160*%
%ADD12R,0.0118X0.0295*%
%ADD13R,0.0118X0.0197*%
%ADD14R,0.1260X0.1260*%
%ADD15R,0.0591X0.0512*%
%ADD16R,0.0394X0.0433*%
%ADD17R,0.0433X0.0394*%
%ADD18R,0.0768X0.0984*%
%ADD19C,0.0520*%
%ADD20R,0.0400X0.0200*%
%ADD21R,0.0236X0.0236*%
%ADD22R,0.0236X0.0315*%
%ADD23C,0.0310*%
%ADD24C,0.0100*%
%ADD25C,0.0240*%
%ADD26C,0.0080*%
%ADD27C,0.0060*%
D10*
X000262Y000111D02*
X007582Y000121D01*
X007582Y007931D01*
X000262Y007931D01*
X000262Y000111D01*
D11*
X000382Y000301D02*
X007324Y000301D01*
X007334Y007771D01*
X000382Y007801D01*
X000382Y000301D01*
D12*
G36*
X002804Y002846D02*
X002721Y002929D01*
X002928Y003136D01*
X003011Y003053D01*
X002804Y002846D01*
G37*
G36*
X002665Y002986D02*
X002582Y003069D01*
X002789Y003276D01*
X002872Y003193D01*
X002665Y002986D01*
G37*
G36*
X002526Y003125D02*
X002443Y003208D01*
X002650Y003415D01*
X002733Y003332D01*
X002526Y003125D01*
G37*
G36*
X002387Y003264D02*
X002304Y003347D01*
X002511Y003554D01*
X002594Y003471D01*
X002387Y003264D01*
G37*
G36*
X002247Y003403D02*
X002164Y003486D01*
X002371Y003693D01*
X002454Y003610D01*
X002247Y003403D01*
G37*
G36*
X002108Y003542D02*
X002025Y003625D01*
X002232Y003832D01*
X002315Y003749D01*
X002108Y003542D01*
G37*
G36*
X002315Y004252D02*
X002232Y004169D01*
X002025Y004376D01*
X002108Y004459D01*
X002315Y004252D01*
G37*
G36*
X002454Y004391D02*
X002371Y004308D01*
X002164Y004515D01*
X002247Y004598D01*
X002454Y004391D01*
G37*
G36*
X002594Y004530D02*
X002511Y004447D01*
X002304Y004654D01*
X002387Y004737D01*
X002594Y004530D01*
G37*
G36*
X002733Y004669D02*
X002650Y004586D01*
X002443Y004793D01*
X002526Y004876D01*
X002733Y004669D01*
G37*
G36*
X002872Y004809D02*
X002789Y004726D01*
X002582Y004933D01*
X002665Y005016D01*
X002872Y004809D01*
G37*
G36*
X003011Y004948D02*
X002928Y004865D01*
X002721Y005072D01*
X002804Y005155D01*
X003011Y004948D01*
G37*
G36*
X003431Y004865D02*
X003348Y004948D01*
X003555Y005155D01*
X003638Y005072D01*
X003431Y004865D01*
G37*
G36*
X003570Y004726D02*
X003487Y004809D01*
X003694Y005016D01*
X003777Y004933D01*
X003570Y004726D01*
G37*
G36*
X003709Y004586D02*
X003626Y004669D01*
X003833Y004876D01*
X003916Y004793D01*
X003709Y004586D01*
G37*
G36*
X003848Y004447D02*
X003765Y004530D01*
X003972Y004737D01*
X004055Y004654D01*
X003848Y004447D01*
G37*
G36*
X003987Y004308D02*
X003904Y004391D01*
X004111Y004598D01*
X004194Y004515D01*
X003987Y004308D01*
G37*
G36*
X004127Y004169D02*
X004044Y004252D01*
X004251Y004459D01*
X004334Y004376D01*
X004127Y004169D01*
G37*
G36*
X004334Y003625D02*
X004251Y003542D01*
X004044Y003749D01*
X004127Y003832D01*
X004334Y003625D01*
G37*
G36*
X004194Y003486D02*
X004111Y003403D01*
X003904Y003610D01*
X003987Y003693D01*
X004194Y003486D01*
G37*
G36*
X004055Y003347D02*
X003972Y003264D01*
X003765Y003471D01*
X003848Y003554D01*
X004055Y003347D01*
G37*
G36*
X003916Y003208D02*
X003833Y003125D01*
X003626Y003332D01*
X003709Y003415D01*
X003916Y003208D01*
G37*
G36*
X003777Y003069D02*
X003694Y002986D01*
X003487Y003193D01*
X003570Y003276D01*
X003777Y003069D01*
G37*
G36*
X003638Y002929D02*
X003555Y002846D01*
X003348Y003053D01*
X003431Y003136D01*
X003638Y002929D01*
G37*
D13*
G36*
X003277Y002844D02*
X003361Y002928D01*
X003499Y002790D01*
X003415Y002706D01*
X003277Y002844D01*
G37*
G36*
X002944Y002706D02*
X002860Y002790D01*
X002998Y002928D01*
X003082Y002844D01*
X002944Y002706D01*
G37*
G36*
X001969Y003681D02*
X001885Y003765D01*
X002023Y003903D01*
X002107Y003819D01*
X001969Y003681D01*
G37*
G36*
X001885Y004236D02*
X001969Y004320D01*
X002107Y004182D01*
X002023Y004098D01*
X001885Y004236D01*
G37*
G36*
X002860Y005211D02*
X002944Y005295D01*
X003082Y005157D01*
X002998Y005073D01*
X002860Y005211D01*
G37*
G36*
X003361Y005073D02*
X003277Y005157D01*
X003415Y005295D01*
X003499Y005211D01*
X003361Y005073D01*
G37*
G36*
X004336Y004098D02*
X004252Y004182D01*
X004390Y004320D01*
X004474Y004236D01*
X004336Y004098D01*
G37*
G36*
X004252Y003819D02*
X004336Y003903D01*
X004474Y003765D01*
X004390Y003681D01*
X004252Y003819D01*
G37*
D14*
G36*
X002289Y004001D02*
X003179Y004891D01*
X004069Y004001D01*
X003179Y003111D01*
X002289Y004001D01*
G37*
D15*
X004782Y006287D03*
X004782Y007035D03*
D16*
X001492Y003195D03*
X001492Y002526D03*
D17*
X003177Y002041D03*
X003847Y002041D03*
D18*
X004022Y006091D03*
X002822Y006091D03*
D19*
X005462Y006056D02*
X005982Y006056D01*
X005982Y007056D02*
X005462Y007056D01*
X005462Y005056D02*
X005982Y005056D01*
X005982Y004056D02*
X005462Y004056D01*
X005462Y003056D02*
X005982Y003056D01*
X005982Y002056D02*
X005462Y002056D01*
X005462Y001056D02*
X005982Y001056D01*
D20*
X002321Y006859D03*
X002321Y007213D03*
X001573Y007213D03*
X001573Y006859D03*
D21*
X001708Y005925D03*
X001708Y005610D03*
X002220Y005610D03*
X002220Y005925D03*
D22*
X002220Y006280D03*
X001708Y006280D03*
X001708Y005256D03*
X002220Y005256D03*
D23*
X001372Y004861D03*
X001722Y004531D03*
X002862Y004281D03*
X004722Y004401D03*
X004722Y005181D03*
X004842Y005561D03*
X003392Y006691D03*
X002942Y006811D03*
X004242Y007101D03*
X001072Y006331D03*
X004242Y002601D03*
X004282Y002041D03*
X004312Y001621D03*
X005012Y002511D03*
X002422Y001751D03*
X002042Y002111D03*
D24*
X002971Y002817D02*
X003179Y003026D01*
X003179Y003801D01*
X003179Y003305D01*
X003493Y002991D01*
X004049Y003548D02*
X004242Y003356D01*
X004242Y002601D01*
X004542Y002236D02*
X004542Y003612D01*
X004363Y003792D01*
X004722Y003921D02*
X004842Y004041D01*
X004962Y004041D01*
X005082Y004161D01*
X005082Y004761D01*
X004962Y004881D01*
X004755Y004881D01*
X004189Y004314D01*
X004363Y004209D02*
X004554Y004401D01*
X004722Y004401D01*
X004722Y003921D02*
X004722Y002301D01*
X004967Y002056D01*
X005722Y002056D01*
X005012Y002511D02*
X005012Y003696D01*
X005372Y004056D01*
X005722Y004056D01*
X003910Y004592D02*
X003319Y004001D01*
X003179Y004001D01*
X003142Y004001D01*
X002862Y004281D01*
X003040Y004001D02*
X003179Y004001D01*
X002205Y004001D01*
X001996Y003792D01*
X001877Y004091D02*
X001492Y004091D01*
X001352Y003951D01*
X001352Y003335D01*
X001492Y003195D01*
X002082Y003321D02*
X002082Y003051D01*
X003092Y002041D01*
X003172Y002041D01*
X003592Y001621D01*
X004312Y001621D01*
X004282Y002041D02*
X003847Y002041D01*
X004542Y002236D02*
X005722Y001056D01*
X003040Y004001D02*
X002449Y003409D01*
X002309Y003548D02*
X002082Y003321D01*
X001877Y004091D02*
X001996Y004209D01*
X002170Y004314D02*
X001953Y004531D01*
X001722Y004531D01*
X001902Y004860D02*
X001372Y004861D01*
X001902Y004860D02*
X002309Y004453D01*
X003179Y004001D02*
X003179Y003801D01*
X003388Y005184D02*
X003402Y005198D01*
X003402Y006681D01*
X003392Y006691D01*
X004842Y005561D02*
X005227Y005561D01*
X005722Y006056D01*
D25*
X004782Y006091D02*
X004782Y006021D01*
X004782Y006091D02*
X004022Y006091D01*
X004122Y005871D01*
X004122Y005781D01*
X004662Y005241D01*
X004722Y005241D01*
X004602Y005241D01*
X004722Y005241D02*
X004722Y005181D01*
X004782Y006091D02*
X004782Y006287D01*
X004782Y007035D02*
X004438Y007035D01*
X004272Y007201D01*
X004272Y007131D01*
X004242Y007101D01*
X002942Y006811D02*
X002792Y006711D01*
X002822Y006091D01*
X001072Y006331D02*
X001002Y006331D01*
X000982Y006311D01*
X000982Y006331D01*
X000982Y006311D02*
X000982Y002321D01*
X001192Y002111D01*
X002042Y002111D01*
D26*
X002422Y002261D02*
X002422Y001751D01*
X002422Y002261D02*
X002157Y002526D01*
X001492Y002526D01*
X002727Y004871D02*
X002607Y004991D01*
X002062Y004991D01*
X001932Y005121D01*
X001932Y006201D01*
X002021Y006290D01*
X002220Y006280D01*
X001912Y006611D02*
X001708Y006407D01*
X001708Y006280D01*
X001472Y006561D02*
X001472Y005961D01*
X001502Y005931D01*
X001703Y005931D01*
X001708Y005925D01*
X001698Y005611D02*
X001708Y005610D01*
X001703Y005261D02*
X001422Y005261D01*
X001332Y005351D01*
X001332Y006501D01*
X001212Y006621D01*
X001122Y006621D01*
X001062Y006681D01*
X001062Y007101D01*
X001182Y007221D01*
X001565Y007221D01*
X001573Y007213D01*
X001980Y006859D02*
X001912Y006791D01*
X001912Y006611D01*
X001980Y006859D02*
X002321Y006859D01*
X002321Y007213D02*
X003710Y007213D01*
X003882Y007041D01*
X003882Y006111D01*
X004022Y006091D01*
X002971Y005184D02*
X002704Y005451D01*
X002532Y005451D01*
X002312Y005541D01*
X002302Y005541D01*
X002282Y005620D01*
X002220Y005610D01*
X002262Y005620D01*
X002220Y005256D02*
X002610Y005266D01*
X002866Y005010D01*
X001708Y005256D02*
X001703Y005261D01*
X001472Y006561D02*
X001432Y006611D01*
X001432Y006811D01*
X001442Y006801D01*
X001602Y006801D01*
D27*
X001534Y006869D01*
X001573Y006859D01*
M02*
