G75*
G70*
%OFA0B0*%
%FSLAX24Y24*%
%IPPOS*%
%LPD*%
%AMOC8*
5,1,8,0,0,1.08239X$1,22.5*
%
%ADD10C,0.0050*%
%ADD11C,0.0040*%
%ADD12C,0.0010*%
D10*
X003179Y002609D02*
X004571Y004001D01*
X003179Y005393D01*
X001787Y004001D01*
X003179Y002609D01*
X002220Y005138D02*
X001708Y005138D01*
X001708Y006398D01*
X002220Y006398D01*
X002220Y005138D01*
X002242Y006741D02*
X001612Y006741D01*
X001612Y007331D01*
X002045Y007331D01*
X002045Y007056D01*
X002242Y007056D01*
X002242Y006741D01*
X002077Y006823D02*
X002018Y006823D01*
X002006Y006835D01*
X002006Y006871D01*
X002029Y006894D01*
X002006Y006918D01*
X002006Y006941D01*
X002077Y006941D02*
X002077Y006823D01*
X001864Y006847D02*
X001864Y006918D01*
X001840Y006941D01*
X001805Y006941D01*
X001770Y006906D01*
X001746Y006906D01*
X001770Y006906D02*
X001770Y006953D01*
X001770Y006906D02*
X001793Y006906D01*
X001781Y006823D02*
X001840Y006823D01*
X001864Y006847D01*
X001840Y007119D02*
X001793Y007119D01*
X001770Y007142D01*
X001829Y007201D01*
X001793Y007201D01*
X001770Y007225D01*
X001770Y007237D01*
X001805Y007272D01*
X001840Y007272D01*
X001840Y007119D01*
X001651Y007331D02*
X002045Y007331D01*
X002242Y007331D01*
X002242Y007056D01*
D11*
X002145Y002210D02*
X001838Y002210D01*
X001762Y002287D01*
X001762Y002440D01*
X001838Y002517D01*
X001915Y002670D02*
X001762Y002824D01*
X002222Y002824D01*
X002222Y002977D02*
X002222Y002670D01*
X002145Y002517D02*
X002222Y002440D01*
X002222Y002287D01*
X002145Y002210D01*
X003282Y002387D02*
X003359Y002311D01*
X003512Y002311D01*
X003589Y002387D01*
X003742Y002387D02*
X003819Y002311D01*
X003972Y002311D01*
X004049Y002387D01*
X004049Y002464D01*
X003972Y002541D01*
X003896Y002541D01*
X003972Y002541D02*
X004049Y002618D01*
X004049Y002694D01*
X003972Y002771D01*
X003819Y002771D01*
X003742Y002694D01*
X003589Y002694D02*
X003512Y002771D01*
X003359Y002771D01*
X003282Y002694D01*
X003282Y002387D01*
X005030Y003593D02*
X005138Y003484D01*
X005247Y003484D01*
X005518Y003756D01*
X005532Y003861D02*
X005532Y004015D01*
X005301Y003973D02*
X005030Y003701D01*
X005030Y003593D01*
X005355Y003376D02*
X005355Y003267D01*
X005464Y003159D01*
X005572Y003159D01*
X005626Y003213D01*
X005626Y003321D01*
X005518Y003430D01*
X005518Y003538D01*
X005572Y003593D01*
X005681Y003593D01*
X005789Y003484D01*
X005789Y003376D01*
X005843Y003213D02*
X006060Y003213D01*
X005735Y002887D01*
X005843Y002779D02*
X005626Y002996D01*
X005355Y003159D02*
X005789Y003593D01*
X005762Y003861D02*
X005302Y003861D01*
X005302Y004168D01*
X005302Y004322D02*
X005762Y004322D01*
X005762Y004629D01*
X005762Y004782D02*
X005302Y004782D01*
X005302Y005012D01*
X005378Y005089D01*
X005532Y005089D01*
X005609Y005012D01*
X005609Y004782D01*
X005609Y004936D02*
X005762Y005089D01*
X005762Y005242D02*
X005302Y005242D01*
X005302Y005473D01*
X005378Y005549D01*
X005532Y005549D01*
X005609Y005473D01*
X005609Y005242D01*
X005609Y005396D02*
X005762Y005549D01*
X005762Y005703D02*
X005762Y005856D01*
X005762Y005779D02*
X005302Y005779D01*
X005302Y005703D02*
X005302Y005856D01*
X005302Y006010D02*
X005302Y006317D01*
X005302Y006470D02*
X005762Y006470D01*
X005762Y006777D01*
X005532Y006623D02*
X005532Y006470D01*
X005302Y006470D02*
X005302Y006777D01*
X005302Y006163D02*
X005762Y006163D01*
X005302Y004629D02*
X005302Y004322D01*
X005532Y004322D02*
X005532Y004475D01*
X003365Y006741D02*
X003365Y007201D01*
X003135Y006971D01*
X003441Y006971D01*
X002981Y007124D02*
X002904Y007201D01*
X002751Y007201D01*
X002674Y007124D01*
X002674Y006817D01*
X002751Y006741D01*
X002904Y006741D01*
X002981Y006817D01*
D12*
X002193Y006590D02*
X002133Y006530D01*
X002148Y006545D02*
X002193Y006500D01*
X002133Y006500D02*
X002133Y006590D01*
X002101Y006575D02*
X002086Y006590D01*
X002056Y006590D01*
X002041Y006575D01*
X002041Y006515D01*
X002056Y006500D01*
X002086Y006500D01*
X002101Y006515D01*
X002009Y006500D02*
X002009Y006560D01*
X001979Y006590D01*
X001949Y006560D01*
X001949Y006500D01*
X001949Y006545D02*
X002009Y006545D01*
X001917Y006545D02*
X001902Y006530D01*
X001857Y006530D01*
X001857Y006500D02*
X001857Y006590D01*
X001902Y006590D01*
X001917Y006575D01*
X001917Y006545D01*
X001825Y006545D02*
X001765Y006545D01*
X001810Y006590D01*
X001810Y006500D01*
X002031Y005069D02*
X002031Y004949D01*
X002016Y004964D02*
X002046Y004964D01*
X002061Y004979D01*
X002061Y004994D01*
X002046Y005009D01*
X002016Y005009D01*
X002001Y005024D01*
X002001Y005039D01*
X002016Y005054D01*
X002046Y005054D01*
X002061Y005039D01*
X002094Y005039D02*
X002109Y005054D01*
X002139Y005054D01*
X002154Y005039D01*
X002154Y005024D01*
X002139Y005009D01*
X002154Y004994D01*
X002154Y004979D01*
X002139Y004964D01*
X002109Y004964D01*
X002094Y004979D01*
X002124Y005009D02*
X002139Y005009D01*
X002016Y004964D02*
X002001Y004979D01*
X001969Y004979D02*
X001969Y005054D01*
X001909Y005054D02*
X001909Y004979D01*
X001924Y004964D01*
X001954Y004964D01*
X001969Y004979D01*
M02*
