G75*
G70*
%OFA0B0*%
%FSLAX24Y24*%
%IPPOS*%
%LPD*%
%AMOC8*
5,1,8,0,0,1.08239X$1,22.5*
%
%ADD10C,0.0595*%
%ADD11C,0.1660*%
%ADD12C,0.0600*%
%ADD13C,0.0390*%
%ADD14R,0.0476X0.0476*%
%ADD15R,0.0390X0.0390*%
D10*
X003175Y006677D03*
X003175Y007465D03*
X003175Y008252D03*
X003175Y009040D03*
X003175Y009827D03*
X003175Y010614D03*
X003175Y011402D03*
X003175Y012189D03*
X003175Y012977D03*
X003175Y013764D03*
X011836Y013764D03*
X011836Y012977D03*
X011836Y012189D03*
X011836Y011402D03*
X011836Y010614D03*
X011836Y009827D03*
X011836Y009040D03*
X011836Y008252D03*
X011836Y007465D03*
X011836Y006677D03*
D11*
X003107Y002711D03*
X004718Y001220D03*
X005969Y002721D03*
X009042Y002721D03*
X010293Y004222D03*
X011904Y002731D03*
D12*
X010526Y015441D02*
X010526Y015961D01*
X009526Y015961D02*
X009526Y015441D01*
X008526Y015441D02*
X008526Y015961D01*
X007526Y015961D02*
X007526Y015441D01*
X006526Y015441D02*
X006526Y015961D01*
X005526Y015961D02*
X005526Y015441D01*
X004526Y015441D02*
X004526Y015961D01*
D13*
X004406Y012221D03*
X007526Y013001D03*
X008786Y011921D03*
X009026Y012581D03*
X010706Y013841D03*
X011306Y012581D03*
X009206Y009761D03*
X007586Y008861D03*
X005506Y004661D03*
X008426Y004601D03*
D14*
X009266Y008021D03*
X009746Y008021D03*
X005726Y007541D03*
X005246Y007541D03*
D15*
X005546Y012221D03*
M02*
