G75*
G70*
%OFA0B0*%
%FSLAX24Y24*%
%IPPOS*%
%LPD*%
%AMOC8*
5,1,8,0,0,1.08239X$1,22.5*
%
%ADD10C,0.0000*%
%ADD11C,0.0515*%
%ADD12R,0.0480X0.0880*%
%ADD13R,0.1417X0.0866*%
%ADD14R,0.0984X0.0768*%
%ADD15C,0.1580*%
%ADD16C,0.0520*%
%ADD17R,0.0394X0.0551*%
%ADD18R,0.0433X0.0394*%
%ADD19R,0.0394X0.0433*%
%ADD20C,0.0700*%
%ADD21C,0.0100*%
%ADD22C,0.0310*%
%ADD23R,0.0396X0.0396*%
%ADD24C,0.0010*%
%ADD25R,0.0310X0.0310*%
D10*
X002006Y000101D02*
X002006Y016717D01*
X013056Y016717D01*
X013056Y000101D01*
X002006Y000101D01*
D11*
X003175Y006677D03*
X003175Y007465D03*
X003175Y008252D03*
X003175Y009040D03*
X003175Y009827D03*
X003175Y010614D03*
X003175Y011402D03*
X003175Y012189D03*
X003175Y012977D03*
X003175Y013764D03*
X011836Y013764D03*
X011836Y012977D03*
X011836Y012189D03*
X011836Y011402D03*
X011836Y010614D03*
X011836Y009827D03*
X011836Y009040D03*
X011836Y008252D03*
X011836Y007465D03*
X011836Y006677D03*
D12*
X008416Y005501D03*
X007506Y005501D03*
X006596Y005501D03*
X006616Y009681D03*
X007526Y009681D03*
X008436Y009681D03*
D13*
X007506Y007941D03*
X007526Y012121D03*
D14*
X005426Y010961D03*
X005426Y009760D03*
X005506Y006821D03*
X005506Y005620D03*
X009506Y006100D03*
X009506Y007301D03*
D15*
X010293Y004222D03*
X009042Y002721D03*
X011904Y002731D03*
X005969Y002721D03*
X004718Y001220D03*
X003107Y002711D03*
D16*
X004526Y015441D02*
X004526Y015961D01*
X005526Y015961D02*
X005526Y015441D01*
X006526Y015441D02*
X006526Y015961D01*
X007526Y015961D02*
X007526Y015441D01*
X008526Y015441D02*
X008526Y015961D01*
X009526Y015961D02*
X009526Y015441D01*
X010526Y015441D02*
X010526Y015961D01*
D17*
X005680Y013048D03*
X005306Y013914D03*
X004932Y013048D03*
D18*
X004226Y013086D03*
X004226Y013755D03*
X006386Y013695D03*
X006386Y013026D03*
D19*
X007971Y013001D03*
X008640Y013001D03*
X008640Y013781D03*
X007971Y013781D03*
D20*
X007766Y014561D02*
X009086Y014561D01*
X009806Y013841D01*
X009806Y011141D01*
X009566Y010901D01*
X007166Y010901D01*
X007286Y010901D01*
X007526Y010661D01*
X007526Y009681D01*
X007526Y008861D01*
X007586Y008861D01*
X008436Y009681D02*
X008516Y009761D01*
X009206Y009761D01*
X007166Y010901D02*
X005486Y010901D01*
X005426Y010961D01*
X005426Y009760D02*
X005426Y007481D01*
X005486Y007421D01*
X005426Y007361D01*
X005506Y005620D02*
X005506Y004661D01*
X005666Y004501D01*
X005666Y004481D01*
X005506Y004641D01*
X005506Y004661D01*
X005666Y004481D02*
X005906Y004241D01*
X005906Y002784D01*
X005969Y002721D01*
X009042Y002721D01*
X008426Y004601D02*
X008416Y004611D01*
X008416Y005501D01*
X007646Y006401D02*
X009205Y006401D01*
X009506Y006100D01*
X009506Y006101D01*
X010466Y006101D01*
X010706Y006341D01*
X010706Y013841D01*
X007766Y014561D02*
X007526Y014801D01*
X007526Y015701D01*
X006616Y009681D02*
X005505Y009681D01*
X005426Y009760D01*
X007646Y006401D02*
X007506Y006261D01*
X007506Y005501D01*
D21*
X008786Y011921D02*
X008640Y012066D01*
X008640Y013001D01*
X008640Y013146D01*
X008426Y013361D01*
X008066Y013361D01*
X008006Y013421D01*
X008006Y013746D01*
X007971Y013781D01*
X008640Y013781D02*
X008966Y013781D01*
X009086Y013661D01*
X009086Y012641D01*
X009026Y012581D01*
X009026Y012641D01*
X007971Y013001D02*
X007526Y013001D01*
X007226Y013061D02*
X007226Y014021D01*
X007766Y014561D01*
X007226Y013061D02*
X007191Y013026D01*
X006386Y013026D01*
X006386Y013695D02*
X005524Y013695D01*
X005306Y013914D01*
X005306Y015481D01*
X005526Y015701D01*
X004226Y013755D02*
X004500Y013481D01*
X005546Y013481D01*
X005680Y013347D01*
X005680Y013048D01*
X005680Y012355D01*
X005546Y012221D01*
X004932Y013048D02*
X004264Y013048D01*
X004226Y013086D01*
X003840Y013086D01*
X003626Y013301D01*
X003626Y013721D01*
X003506Y013841D01*
X003252Y013841D01*
X003175Y013764D01*
X003175Y012977D02*
X003931Y012221D01*
X004406Y012221D01*
X009526Y015321D02*
X010286Y014561D01*
X011126Y014561D01*
X011366Y014321D01*
X011366Y012641D01*
X011306Y012581D01*
X009526Y015321D02*
X009526Y015701D01*
D22*
X010706Y013841D03*
X011306Y012581D03*
X009026Y012581D03*
X008786Y011921D03*
X007526Y013001D03*
X009206Y009761D03*
X007586Y008861D03*
X004406Y012221D03*
X005506Y004661D03*
X008426Y004601D03*
D23*
X009266Y008021D03*
X009746Y008021D03*
X005726Y007541D03*
X005246Y007541D03*
D24*
X004946Y007542D02*
X006086Y007542D01*
X006086Y007533D02*
X004946Y007533D01*
X004946Y007525D02*
X006086Y007525D01*
X006086Y007516D02*
X004946Y007516D01*
X004946Y007508D02*
X006086Y007508D01*
X006086Y007499D02*
X004946Y007499D01*
X004946Y007491D02*
X006086Y007491D01*
X006086Y007482D02*
X004946Y007482D01*
X004946Y007474D02*
X006086Y007474D01*
X006086Y007465D02*
X004946Y007465D01*
X004946Y007457D02*
X006086Y007457D01*
X006086Y007448D02*
X004946Y007448D01*
X004946Y007439D02*
X006086Y007439D01*
X006086Y007431D02*
X004946Y007431D01*
X004946Y007422D02*
X006086Y007422D01*
X006086Y007414D02*
X004946Y007414D01*
X004946Y007405D02*
X006086Y007405D01*
X006086Y007397D02*
X004946Y007397D01*
X004946Y007388D02*
X006086Y007388D01*
X006086Y007380D02*
X004946Y007380D01*
X004946Y007371D02*
X006086Y007371D01*
X006086Y007363D02*
X004946Y007363D01*
X004946Y007354D02*
X006086Y007354D01*
X006086Y007346D02*
X004946Y007346D01*
X004946Y007337D02*
X006086Y007337D01*
X006086Y007328D02*
X004946Y007328D01*
X004946Y007320D02*
X006086Y007320D01*
X006086Y007311D02*
X004946Y007311D01*
X004946Y007303D02*
X006086Y007303D01*
X006086Y007294D02*
X004946Y007294D01*
X004946Y007286D02*
X006086Y007286D01*
X006086Y007277D02*
X004946Y007277D01*
X004946Y007269D02*
X006086Y007269D01*
X006086Y007260D02*
X004946Y007260D01*
X004946Y007252D02*
X006086Y007252D01*
X006086Y007243D02*
X004946Y007243D01*
X004946Y007234D02*
X006086Y007234D01*
X006086Y007226D02*
X004946Y007226D01*
X004946Y007217D02*
X006086Y007217D01*
X006086Y007209D02*
X004946Y007209D01*
X004946Y007200D02*
X006086Y007200D01*
X006086Y007192D02*
X004946Y007192D01*
X004946Y007183D02*
X006086Y007183D01*
X006086Y007175D02*
X004946Y007175D01*
X004946Y007166D02*
X006086Y007166D01*
X006086Y007158D02*
X004946Y007158D01*
X004946Y007149D02*
X006086Y007149D01*
X006086Y007140D02*
X004946Y007140D01*
X004946Y007132D02*
X006086Y007132D01*
X006086Y007123D02*
X004946Y007123D01*
X004946Y007115D02*
X006086Y007115D01*
X006086Y007106D02*
X004946Y007106D01*
X004946Y007098D02*
X006086Y007098D01*
X006086Y007089D02*
X004946Y007089D01*
X004946Y007081D02*
X006086Y007081D01*
X006086Y007072D02*
X004946Y007072D01*
X004946Y007064D02*
X006086Y007064D01*
X006086Y007055D02*
X004946Y007055D01*
X006866Y007055D01*
X006866Y007061D02*
X006866Y005021D01*
X006326Y005021D01*
X006326Y006401D01*
X004946Y006401D01*
X004946Y007061D01*
X006866Y007061D01*
X006866Y007046D02*
X004946Y007046D01*
X006086Y007046D01*
X006086Y007038D02*
X004946Y007038D01*
X006866Y007038D01*
X006866Y007029D02*
X004946Y007029D01*
X006086Y007029D01*
X006086Y007021D02*
X004946Y007021D01*
X006866Y007021D01*
X006866Y007012D02*
X004946Y007012D01*
X006086Y007012D01*
X006086Y007004D02*
X004946Y007004D01*
X006866Y007004D01*
X006866Y006995D02*
X004946Y006995D01*
X006086Y006995D01*
X006086Y006987D02*
X004946Y006987D01*
X006866Y006987D01*
X006866Y006978D02*
X004946Y006978D01*
X006086Y006978D01*
X006086Y006970D02*
X004946Y006970D01*
X006866Y006970D01*
X006866Y006961D02*
X004946Y006961D01*
X006086Y006961D01*
X006086Y006953D02*
X004946Y006953D01*
X006866Y006953D01*
X006866Y006944D02*
X004946Y006944D01*
X006086Y006944D01*
X006086Y006935D02*
X004946Y006935D01*
X006866Y006935D01*
X006866Y006927D02*
X004946Y006927D01*
X006086Y006927D01*
X006086Y006918D02*
X004946Y006918D01*
X006866Y006918D01*
X006866Y006910D02*
X004946Y006910D01*
X006086Y006910D01*
X006086Y006901D02*
X004946Y006901D01*
X006866Y006901D01*
X006866Y006893D02*
X004946Y006893D01*
X006086Y006893D01*
X006086Y006884D02*
X004946Y006884D01*
X006866Y006884D01*
X006866Y006876D02*
X004946Y006876D01*
X006086Y006876D01*
X006086Y006867D02*
X004946Y006867D01*
X006866Y006867D01*
X006866Y006859D02*
X004946Y006859D01*
X006086Y006859D01*
X006086Y006850D02*
X004946Y006850D01*
X006866Y006850D01*
X006866Y006841D02*
X004946Y006841D01*
X006086Y006841D01*
X006086Y006833D02*
X004946Y006833D01*
X006866Y006833D01*
X006866Y006824D02*
X004946Y006824D01*
X006086Y006824D01*
X006086Y006816D02*
X004946Y006816D01*
X006866Y006816D01*
X006866Y006807D02*
X004946Y006807D01*
X006086Y006807D01*
X006086Y006799D02*
X004946Y006799D01*
X006866Y006799D01*
X006866Y006790D02*
X004946Y006790D01*
X006086Y006790D01*
X006086Y006782D02*
X004946Y006782D01*
X006866Y006782D01*
X006866Y006773D02*
X004946Y006773D01*
X006086Y006773D01*
X006086Y006765D02*
X004946Y006765D01*
X006866Y006765D01*
X006866Y006756D02*
X004946Y006756D01*
X006086Y006756D01*
X006086Y006747D02*
X004946Y006747D01*
X006866Y006747D01*
X006866Y006739D02*
X004946Y006739D01*
X006086Y006739D01*
X006086Y006730D02*
X004946Y006730D01*
X006866Y006730D01*
X006866Y006722D02*
X004946Y006722D01*
X006086Y006722D01*
X006086Y006713D02*
X004946Y006713D01*
X006866Y006713D01*
X006866Y006705D02*
X004946Y006705D01*
X006086Y006705D01*
X006086Y006696D02*
X004946Y006696D01*
X006866Y006696D01*
X006866Y006688D02*
X004946Y006688D01*
X006086Y006688D01*
X006086Y006679D02*
X004946Y006679D01*
X006866Y006679D01*
X006866Y006671D02*
X004946Y006671D01*
X006086Y006671D01*
X006086Y006662D02*
X004946Y006662D01*
X006866Y006662D01*
X006866Y006654D02*
X004946Y006654D01*
X006086Y006654D01*
X006086Y006645D02*
X004946Y006645D01*
X006866Y006645D01*
X006866Y006636D02*
X004946Y006636D01*
X006086Y006636D01*
X006086Y006628D02*
X004946Y006628D01*
X006866Y006628D01*
X006866Y006619D02*
X004946Y006619D01*
X006086Y006619D01*
X006086Y006611D02*
X004946Y006611D01*
X006866Y006611D01*
X006866Y006602D02*
X004946Y006602D01*
X006086Y006602D01*
X006086Y006594D02*
X004946Y006594D01*
X006866Y006594D01*
X006866Y006585D02*
X004946Y006585D01*
X006086Y006585D01*
X006086Y006577D02*
X004946Y006577D01*
X006866Y006577D01*
X006866Y006568D02*
X004946Y006568D01*
X006086Y006568D01*
X006086Y006560D02*
X004946Y006560D01*
X006866Y006560D01*
X006866Y006551D02*
X004946Y006551D01*
X006086Y006551D01*
X006086Y006542D02*
X004946Y006542D01*
X006866Y006542D01*
X006866Y006534D02*
X004946Y006534D01*
X006086Y006534D01*
X006086Y006525D02*
X004946Y006525D01*
X006866Y006525D01*
X006866Y006517D02*
X004946Y006517D01*
X006086Y006517D01*
X006086Y006508D02*
X004946Y006508D01*
X006866Y006508D01*
X006866Y006500D02*
X004946Y006500D01*
X006086Y006500D01*
X006086Y006491D02*
X004946Y006491D01*
X006866Y006491D01*
X006866Y006483D02*
X004946Y006483D01*
X006086Y006483D01*
X006086Y006474D02*
X004946Y006474D01*
X006866Y006474D01*
X006866Y006466D02*
X004946Y006466D01*
X006086Y006466D01*
X006086Y006461D02*
X004946Y006461D01*
X004946Y007721D01*
X006086Y007721D01*
X006086Y006461D01*
X006326Y006397D02*
X006866Y006397D01*
X006866Y006389D02*
X006326Y006389D01*
X006326Y006380D02*
X006866Y006380D01*
X006866Y006372D02*
X006326Y006372D01*
X006326Y006363D02*
X006866Y006363D01*
X006866Y006354D02*
X006326Y006354D01*
X006326Y006346D02*
X006866Y006346D01*
X006866Y006337D02*
X006326Y006337D01*
X006326Y006329D02*
X006866Y006329D01*
X006866Y006320D02*
X006326Y006320D01*
X006326Y006312D02*
X006866Y006312D01*
X006866Y006303D02*
X006326Y006303D01*
X006326Y006295D02*
X006866Y006295D01*
X006866Y006286D02*
X006326Y006286D01*
X006326Y006278D02*
X006866Y006278D01*
X006866Y006269D02*
X006326Y006269D01*
X006326Y006261D02*
X006866Y006261D01*
X006866Y006252D02*
X006326Y006252D01*
X006326Y006243D02*
X006866Y006243D01*
X006866Y006235D02*
X006326Y006235D01*
X006326Y006226D02*
X006866Y006226D01*
X006866Y006218D02*
X006326Y006218D01*
X006326Y006209D02*
X006866Y006209D01*
X006866Y006201D02*
X006326Y006201D01*
X006326Y006192D02*
X006866Y006192D01*
X006866Y006184D02*
X006326Y006184D01*
X006326Y006175D02*
X006866Y006175D01*
X006866Y006167D02*
X006326Y006167D01*
X006326Y006158D02*
X006866Y006158D01*
X006866Y006149D02*
X006326Y006149D01*
X006326Y006141D02*
X006866Y006141D01*
X006866Y006132D02*
X006326Y006132D01*
X006326Y006124D02*
X006866Y006124D01*
X006866Y006115D02*
X006326Y006115D01*
X006326Y006107D02*
X006866Y006107D01*
X006866Y006098D02*
X006326Y006098D01*
X006326Y006090D02*
X006866Y006090D01*
X006866Y006081D02*
X006326Y006081D01*
X006326Y006073D02*
X006866Y006073D01*
X006866Y006064D02*
X006326Y006064D01*
X006326Y006055D02*
X006866Y006055D01*
X006866Y006047D02*
X006326Y006047D01*
X006326Y006038D02*
X006866Y006038D01*
X006866Y006030D02*
X006326Y006030D01*
X006326Y006021D02*
X006866Y006021D01*
X006866Y006013D02*
X006326Y006013D01*
X006326Y006004D02*
X006866Y006004D01*
X006866Y005996D02*
X006326Y005996D01*
X006326Y005987D02*
X006866Y005987D01*
X006866Y005979D02*
X006326Y005979D01*
X006326Y005970D02*
X006866Y005970D01*
X006866Y005961D02*
X006326Y005961D01*
X006326Y005953D02*
X006866Y005953D01*
X006866Y005944D02*
X006326Y005944D01*
X006326Y005936D02*
X006866Y005936D01*
X006866Y005927D02*
X006326Y005927D01*
X006326Y005919D02*
X006866Y005919D01*
X006866Y005910D02*
X006326Y005910D01*
X006326Y005902D02*
X006866Y005902D01*
X006866Y005893D02*
X006326Y005893D01*
X006326Y005885D02*
X006866Y005885D01*
X006866Y005876D02*
X006326Y005876D01*
X006326Y005868D02*
X006866Y005868D01*
X006866Y005859D02*
X006326Y005859D01*
X006326Y005850D02*
X006866Y005850D01*
X006866Y005842D02*
X006326Y005842D01*
X006326Y005833D02*
X006866Y005833D01*
X006866Y005825D02*
X006326Y005825D01*
X006326Y005816D02*
X006866Y005816D01*
X006866Y005808D02*
X006326Y005808D01*
X006326Y005799D02*
X006866Y005799D01*
X006866Y005791D02*
X006326Y005791D01*
X006326Y005782D02*
X006866Y005782D01*
X006866Y005774D02*
X006326Y005774D01*
X006326Y005765D02*
X006866Y005765D01*
X006866Y005756D02*
X006326Y005756D01*
X006326Y005748D02*
X006866Y005748D01*
X006866Y005739D02*
X006326Y005739D01*
X006326Y005731D02*
X006866Y005731D01*
X006866Y005722D02*
X006326Y005722D01*
X006326Y005714D02*
X006866Y005714D01*
X006866Y005705D02*
X006326Y005705D01*
X006326Y005697D02*
X006866Y005697D01*
X006866Y005688D02*
X006326Y005688D01*
X006326Y005680D02*
X006866Y005680D01*
X006866Y005671D02*
X006326Y005671D01*
X006326Y005662D02*
X006866Y005662D01*
X006866Y005654D02*
X006326Y005654D01*
X006326Y005645D02*
X006866Y005645D01*
X006866Y005637D02*
X006326Y005637D01*
X006326Y005628D02*
X006866Y005628D01*
X006866Y005620D02*
X006326Y005620D01*
X006326Y005611D02*
X006866Y005611D01*
X006866Y005603D02*
X006326Y005603D01*
X006326Y005594D02*
X006866Y005594D01*
X006866Y005586D02*
X006326Y005586D01*
X006326Y005577D02*
X006866Y005577D01*
X006866Y005569D02*
X006326Y005569D01*
X006326Y005560D02*
X006866Y005560D01*
X006866Y005551D02*
X006326Y005551D01*
X006326Y005543D02*
X006866Y005543D01*
X006866Y005534D02*
X006326Y005534D01*
X006326Y005526D02*
X006866Y005526D01*
X006866Y005517D02*
X006326Y005517D01*
X006326Y005509D02*
X006866Y005509D01*
X006866Y005500D02*
X006326Y005500D01*
X006326Y005492D02*
X006866Y005492D01*
X006866Y005483D02*
X006326Y005483D01*
X006326Y005475D02*
X006866Y005475D01*
X006866Y005466D02*
X006326Y005466D01*
X006326Y005457D02*
X006866Y005457D01*
X006866Y005449D02*
X006326Y005449D01*
X006326Y005440D02*
X006866Y005440D01*
X006866Y005432D02*
X006326Y005432D01*
X006326Y005423D02*
X006866Y005423D01*
X006866Y005415D02*
X006326Y005415D01*
X006326Y005406D02*
X006866Y005406D01*
X006866Y005398D02*
X006326Y005398D01*
X006326Y005389D02*
X006866Y005389D01*
X006866Y005381D02*
X006326Y005381D01*
X006326Y005372D02*
X006866Y005372D01*
X006866Y005363D02*
X006326Y005363D01*
X006326Y005355D02*
X006866Y005355D01*
X006866Y005346D02*
X006326Y005346D01*
X006326Y005338D02*
X006866Y005338D01*
X006866Y005329D02*
X006326Y005329D01*
X006326Y005321D02*
X006866Y005321D01*
X006866Y005312D02*
X006326Y005312D01*
X006326Y005304D02*
X006866Y005304D01*
X006866Y005295D02*
X006326Y005295D01*
X006326Y005287D02*
X006866Y005287D01*
X006866Y005278D02*
X006326Y005278D01*
X006326Y005269D02*
X006866Y005269D01*
X006866Y005261D02*
X006326Y005261D01*
X006326Y005252D02*
X006866Y005252D01*
X006866Y005244D02*
X006326Y005244D01*
X006326Y005235D02*
X006866Y005235D01*
X006866Y005227D02*
X006326Y005227D01*
X006326Y005218D02*
X006866Y005218D01*
X006866Y005210D02*
X006326Y005210D01*
X006326Y005201D02*
X006866Y005201D01*
X006866Y005193D02*
X006326Y005193D01*
X006326Y005184D02*
X006866Y005184D01*
X006866Y005176D02*
X006326Y005176D01*
X006326Y005167D02*
X006866Y005167D01*
X006866Y005158D02*
X006326Y005158D01*
X006326Y005150D02*
X006866Y005150D01*
X006866Y005141D02*
X006326Y005141D01*
X006326Y005133D02*
X006866Y005133D01*
X006866Y005124D02*
X006326Y005124D01*
X006326Y005116D02*
X006866Y005116D01*
X006866Y005107D02*
X006326Y005107D01*
X006326Y005099D02*
X006866Y005099D01*
X006866Y005090D02*
X006326Y005090D01*
X006326Y005082D02*
X006866Y005082D01*
X006866Y005073D02*
X006326Y005073D01*
X006326Y005064D02*
X006866Y005064D01*
X006866Y005056D02*
X006326Y005056D01*
X006326Y005047D02*
X006866Y005047D01*
X006866Y005039D02*
X006326Y005039D01*
X006326Y005030D02*
X006866Y005030D01*
X006866Y005022D02*
X006326Y005022D01*
X006866Y006406D02*
X004946Y006406D01*
X004946Y006414D02*
X006866Y006414D01*
X006866Y006423D02*
X004946Y006423D01*
X004946Y006431D02*
X006866Y006431D01*
X006866Y006440D02*
X004946Y006440D01*
X004946Y006448D02*
X006866Y006448D01*
X006866Y006457D02*
X004946Y006457D01*
X004946Y007551D02*
X006086Y007551D01*
X006086Y007559D02*
X004946Y007559D01*
X004946Y007568D02*
X006086Y007568D01*
X006086Y007576D02*
X004946Y007576D01*
X004946Y007585D02*
X006086Y007585D01*
X006086Y007593D02*
X004946Y007593D01*
X004946Y007602D02*
X006086Y007602D01*
X006086Y007610D02*
X004946Y007610D01*
X004946Y007619D02*
X006086Y007619D01*
X006086Y007627D02*
X004946Y007627D01*
X004946Y007636D02*
X006086Y007636D01*
X006086Y007645D02*
X004946Y007645D01*
X004946Y007653D02*
X006086Y007653D01*
X006086Y007662D02*
X004946Y007662D01*
X004946Y007670D02*
X006086Y007670D01*
X006086Y007679D02*
X004946Y007679D01*
X004946Y007687D02*
X006086Y007687D01*
X006086Y007696D02*
X004946Y007696D01*
X004946Y007704D02*
X006086Y007704D01*
X006086Y007713D02*
X004946Y007713D01*
X009026Y007730D02*
X010046Y007730D01*
X010046Y007739D02*
X009026Y007739D01*
X009026Y007747D02*
X010046Y007747D01*
X010046Y007756D02*
X009026Y007756D01*
X009026Y007764D02*
X010046Y007764D01*
X010046Y007773D02*
X009026Y007773D01*
X009026Y007781D02*
X010046Y007781D01*
X010046Y007790D02*
X009026Y007790D01*
X009026Y007798D02*
X010046Y007798D01*
X010046Y007807D02*
X009026Y007807D01*
X009026Y007815D02*
X010046Y007815D01*
X010046Y007824D02*
X009026Y007824D01*
X009026Y007832D02*
X010046Y007832D01*
X010046Y007841D02*
X009026Y007841D01*
X009026Y007850D02*
X010046Y007850D01*
X010046Y007858D02*
X009026Y007858D01*
X009026Y007867D02*
X010046Y007867D01*
X010046Y007875D02*
X009026Y007875D01*
X009026Y007884D02*
X010046Y007884D01*
X010046Y007892D02*
X009026Y007892D01*
X009026Y007901D02*
X010046Y007901D01*
X010046Y007909D02*
X009026Y007909D01*
X009026Y007918D02*
X010046Y007918D01*
X010046Y007926D02*
X009026Y007926D01*
X009026Y007935D02*
X010046Y007935D01*
X010046Y007944D02*
X009026Y007944D01*
X009026Y007952D02*
X010046Y007952D01*
X010046Y007961D02*
X009026Y007961D01*
X009026Y007969D02*
X010046Y007969D01*
X010046Y007978D02*
X009026Y007978D01*
X009026Y007986D02*
X010046Y007986D01*
X010046Y007995D02*
X009026Y007995D01*
X009026Y008003D02*
X010046Y008003D01*
X010046Y008012D02*
X009026Y008012D01*
X009026Y008020D02*
X010046Y008020D01*
X010046Y008029D02*
X009026Y008029D01*
X009026Y008038D02*
X010046Y008038D01*
X010046Y008046D02*
X009026Y008046D01*
X009026Y008055D02*
X010046Y008055D01*
X010046Y008063D02*
X009026Y008063D01*
X009026Y008072D02*
X010046Y008072D01*
X010046Y008080D02*
X009026Y008080D01*
X009026Y008089D02*
X010046Y008089D01*
X010046Y008097D02*
X009026Y008097D01*
X009026Y008106D02*
X010046Y008106D01*
X010046Y008114D02*
X009026Y008114D01*
X009026Y008123D02*
X010046Y008123D01*
X010046Y008131D02*
X009026Y008131D01*
X009026Y008140D02*
X010046Y008140D01*
X010046Y008149D02*
X009026Y008149D01*
X009026Y008157D02*
X010046Y008157D01*
X010046Y008166D02*
X009026Y008166D01*
X009026Y008174D02*
X010046Y008174D01*
X010046Y008183D02*
X009026Y008183D01*
X009026Y008191D02*
X010046Y008191D01*
X010046Y008200D02*
X009026Y008200D01*
X009026Y008208D02*
X010046Y008208D01*
X010046Y008217D02*
X009026Y008217D01*
X009026Y008225D02*
X010046Y008225D01*
X010046Y008234D02*
X009026Y008234D01*
X009026Y008243D02*
X010046Y008243D01*
X010046Y008251D02*
X009026Y008251D01*
X009026Y008260D02*
X010046Y008260D01*
X010046Y008268D02*
X009026Y008268D01*
X009026Y008277D02*
X010046Y008277D01*
X010046Y008285D02*
X009026Y008285D01*
X009026Y008294D02*
X010046Y008294D01*
X010046Y008302D02*
X009026Y008302D01*
X009026Y008311D02*
X010046Y008311D01*
X010046Y008319D02*
X009026Y008319D01*
X009026Y008321D02*
X010046Y008321D01*
X010046Y006941D01*
X009026Y006941D01*
X009026Y008321D01*
X009026Y007721D02*
X010046Y007721D01*
X010046Y007713D02*
X009026Y007713D01*
X009026Y007704D02*
X010046Y007704D01*
X010046Y007696D02*
X009026Y007696D01*
X009026Y007687D02*
X010046Y007687D01*
X010046Y007679D02*
X009026Y007679D01*
X009026Y007670D02*
X010046Y007670D01*
X010046Y007662D02*
X009026Y007662D01*
X009026Y007653D02*
X010046Y007653D01*
X010046Y007645D02*
X009026Y007645D01*
X009026Y007636D02*
X010046Y007636D01*
X010046Y007627D02*
X009026Y007627D01*
X009026Y007619D02*
X010046Y007619D01*
X010046Y007610D02*
X009026Y007610D01*
X009026Y007602D02*
X010046Y007602D01*
X010046Y007593D02*
X009026Y007593D01*
X009026Y007585D02*
X010046Y007585D01*
X010046Y007576D02*
X009026Y007576D01*
X009026Y007568D02*
X010046Y007568D01*
X010046Y007559D02*
X009026Y007559D01*
X009026Y007551D02*
X010046Y007551D01*
X010046Y007542D02*
X009026Y007542D01*
X009026Y007533D02*
X010046Y007533D01*
X010046Y007525D02*
X009026Y007525D01*
X009026Y007516D02*
X010046Y007516D01*
X010046Y007508D02*
X009026Y007508D01*
X009026Y007499D02*
X010046Y007499D01*
X010046Y007491D02*
X009026Y007491D01*
X009026Y007482D02*
X010046Y007482D01*
X010046Y007474D02*
X009026Y007474D01*
X009026Y007465D02*
X010046Y007465D01*
X010046Y007457D02*
X009026Y007457D01*
X009026Y007448D02*
X010046Y007448D01*
X010046Y007439D02*
X009026Y007439D01*
X009026Y007431D02*
X010046Y007431D01*
X010046Y007422D02*
X009026Y007422D01*
X009026Y007414D02*
X010046Y007414D01*
X010046Y007405D02*
X009026Y007405D01*
X009026Y007397D02*
X010046Y007397D01*
X010046Y007388D02*
X009026Y007388D01*
X009026Y007380D02*
X010046Y007380D01*
X010046Y007371D02*
X009026Y007371D01*
X009026Y007363D02*
X010046Y007363D01*
X010046Y007354D02*
X009026Y007354D01*
X009026Y007346D02*
X010046Y007346D01*
X010046Y007337D02*
X009026Y007337D01*
X009026Y007328D02*
X010046Y007328D01*
X010046Y007320D02*
X009026Y007320D01*
X009026Y007311D02*
X010046Y007311D01*
X010046Y007303D02*
X009026Y007303D01*
X009026Y007294D02*
X010046Y007294D01*
X010046Y007286D02*
X009026Y007286D01*
X009026Y007277D02*
X010046Y007277D01*
X010046Y007269D02*
X009026Y007269D01*
X009026Y007260D02*
X010046Y007260D01*
X010046Y007252D02*
X009026Y007252D01*
X009026Y007243D02*
X010046Y007243D01*
X010046Y007234D02*
X009026Y007234D01*
X009026Y007226D02*
X010046Y007226D01*
X010046Y007217D02*
X009026Y007217D01*
X009026Y007209D02*
X010046Y007209D01*
X010046Y007200D02*
X009026Y007200D01*
X009026Y007192D02*
X010046Y007192D01*
X010046Y007183D02*
X009026Y007183D01*
X009026Y007175D02*
X010046Y007175D01*
X010046Y007166D02*
X009026Y007166D01*
X009026Y007158D02*
X010046Y007158D01*
X010046Y007149D02*
X009026Y007149D01*
X009026Y007140D02*
X010046Y007140D01*
X010046Y007132D02*
X009026Y007132D01*
X009026Y007123D02*
X010046Y007123D01*
X010046Y007115D02*
X009026Y007115D01*
X009026Y007106D02*
X010046Y007106D01*
X010046Y007098D02*
X009026Y007098D01*
X009026Y007089D02*
X010046Y007089D01*
X010046Y007081D02*
X009026Y007081D01*
X009026Y007072D02*
X010046Y007072D01*
X010046Y007064D02*
X009026Y007064D01*
X009026Y007055D02*
X010046Y007055D01*
X010046Y007046D02*
X009026Y007046D01*
X009026Y007038D02*
X010046Y007038D01*
X010046Y007029D02*
X009026Y007029D01*
X009026Y007021D02*
X010046Y007021D01*
X010046Y007012D02*
X009026Y007012D01*
X009026Y007004D02*
X010046Y007004D01*
X010046Y006995D02*
X009026Y006995D01*
X009026Y006987D02*
X010046Y006987D01*
X010046Y006978D02*
X009026Y006978D01*
X009026Y006970D02*
X010046Y006970D01*
X010046Y006961D02*
X009026Y006961D01*
X009026Y006953D02*
X010046Y006953D01*
X010046Y006944D02*
X009026Y006944D01*
D25*
X005546Y012221D03*
M02*
