G75*
G70*
%OFA0B0*%
%FSLAX24Y24*%
%IPPOS*%
%LPD*%
%AMOC8*
5,1,8,0,0,1.08239X$1,22.5*
%
%ADD10C,0.0040*%
%ADD11C,0.0020*%
%ADD12C,0.0010*%
%ADD13C,0.0050*%
D10*
X002072Y004638D02*
X002039Y004671D01*
X002039Y004738D01*
X002072Y004771D01*
X002072Y004859D02*
X002039Y004892D01*
X002039Y004959D01*
X002072Y004992D01*
X002105Y004992D01*
X002139Y004959D01*
X002139Y004859D01*
X002072Y004859D01*
X002139Y004859D02*
X002206Y004926D01*
X002239Y004992D01*
X002206Y004771D02*
X002239Y004738D01*
X002239Y004671D01*
X002206Y004638D01*
X002072Y004638D01*
X001518Y007893D02*
X001385Y007893D01*
X001351Y007927D01*
X001351Y007993D01*
X001385Y008027D01*
X001385Y008114D02*
X001351Y008114D01*
X001385Y008114D02*
X001518Y008248D01*
X001551Y008248D01*
X001551Y008114D01*
X001518Y008027D02*
X001551Y007993D01*
X001551Y007927D01*
X001518Y007893D01*
X011344Y024822D02*
X011805Y024822D01*
X011805Y025052D01*
X011728Y025129D01*
X011575Y025129D01*
X011498Y025052D01*
X011498Y024822D01*
X011498Y024975D02*
X011344Y025129D01*
X011344Y025436D02*
X011805Y025436D01*
X011805Y025589D02*
X011805Y025282D01*
X012344Y025282D02*
X012805Y025282D01*
X012805Y025513D01*
X012728Y025589D01*
X012575Y025589D01*
X012498Y025513D01*
X012498Y025282D01*
X012498Y025436D02*
X012344Y025589D01*
X012344Y025743D02*
X012805Y026050D01*
X012805Y025743D02*
X012344Y026050D01*
X011805Y025973D02*
X011805Y025819D01*
X011728Y025743D01*
X011651Y025743D01*
X011575Y025819D01*
X011575Y025973D01*
X011498Y026050D01*
X011421Y026050D01*
X011344Y025973D01*
X011344Y025819D01*
X011421Y025743D01*
X011728Y026050D02*
X011805Y025973D01*
X016344Y026050D02*
X016805Y025743D01*
X016805Y025589D02*
X016805Y025282D01*
X016805Y025436D02*
X016344Y025436D01*
X016344Y025743D02*
X016805Y026050D01*
X017344Y025973D02*
X017344Y025819D01*
X017421Y025743D01*
X017575Y025819D02*
X017575Y025973D01*
X017498Y026050D01*
X017421Y026050D01*
X017344Y025973D01*
X017575Y025819D02*
X017651Y025743D01*
X017728Y025743D01*
X017805Y025819D01*
X017805Y025973D01*
X017728Y026050D01*
X017805Y025589D02*
X017805Y025282D01*
X017805Y025436D02*
X017344Y025436D01*
X017421Y025129D02*
X017344Y025052D01*
X017344Y024899D01*
X017421Y024822D01*
X017728Y024822D01*
X017805Y024899D01*
X017805Y025052D01*
X017728Y025129D01*
X025344Y025129D02*
X025498Y024975D01*
X025498Y025052D02*
X025498Y024822D01*
X025344Y024822D02*
X025805Y024822D01*
X025805Y025052D01*
X025728Y025129D01*
X025575Y025129D01*
X025498Y025052D01*
X025805Y025282D02*
X025805Y025589D01*
X025805Y025436D02*
X025344Y025436D01*
X025421Y025743D02*
X025344Y025819D01*
X025344Y025973D01*
X025421Y026050D01*
X025498Y026050D01*
X025575Y025973D01*
X025575Y025819D01*
X025651Y025743D01*
X025728Y025743D01*
X025805Y025819D01*
X025805Y025973D01*
X025728Y026050D01*
X026344Y026050D02*
X026805Y025743D01*
X026728Y025589D02*
X026575Y025589D01*
X026498Y025513D01*
X026498Y025282D01*
X026344Y025282D02*
X026805Y025282D01*
X026805Y025513D01*
X026728Y025589D01*
X026498Y025436D02*
X026344Y025589D01*
X026344Y025743D02*
X026805Y026050D01*
X030344Y026050D02*
X030805Y025743D01*
X030805Y025589D02*
X030805Y025282D01*
X030805Y025436D02*
X030344Y025436D01*
X030344Y025743D02*
X030805Y026050D01*
X031344Y025973D02*
X031344Y025819D01*
X031421Y025743D01*
X031575Y025819D02*
X031575Y025973D01*
X031498Y026050D01*
X031421Y026050D01*
X031344Y025973D01*
X031575Y025819D02*
X031651Y025743D01*
X031728Y025743D01*
X031805Y025819D01*
X031805Y025973D01*
X031728Y026050D01*
X031805Y025589D02*
X031805Y025282D01*
X031805Y025436D02*
X031344Y025436D01*
X031421Y025129D02*
X031344Y025052D01*
X031344Y024899D01*
X031421Y024822D01*
X031728Y024822D01*
X031805Y024899D01*
X031805Y025052D01*
X031728Y025129D01*
D11*
X026956Y004715D02*
X026326Y004715D01*
X026326Y003770D01*
X026956Y003770D01*
X026956Y004715D01*
X015949Y004636D02*
X015949Y003691D01*
X015319Y003691D01*
X015319Y004636D01*
X015949Y004636D01*
D12*
X015535Y003647D02*
X015535Y003555D01*
X015516Y003537D01*
X015480Y003537D01*
X015461Y003555D01*
X015461Y003647D01*
X015424Y003647D02*
X015424Y003592D01*
X015387Y003610D01*
X015369Y003610D01*
X015351Y003592D01*
X015351Y003555D01*
X015369Y003537D01*
X015406Y003537D01*
X015424Y003555D01*
X015424Y003647D02*
X015351Y003647D01*
X026359Y003652D02*
X026377Y003670D01*
X026432Y003670D01*
X026432Y003634D01*
X026414Y003615D01*
X026377Y003615D01*
X026359Y003634D01*
X026359Y003652D01*
X026395Y003707D02*
X026432Y003670D01*
X026469Y003634D02*
X026469Y003725D01*
X026542Y003725D02*
X026542Y003634D01*
X026524Y003615D01*
X026487Y003615D01*
X026469Y003634D01*
X026395Y003707D02*
X026359Y003725D01*
D13*
X001992Y004282D02*
X001598Y004282D01*
X001598Y005069D01*
X001992Y005069D01*
X001992Y004282D01*
X006047Y006329D02*
X006047Y009478D01*
X006244Y009478D01*
X007228Y009478D01*
X007228Y006329D01*
X006244Y006329D01*
X006047Y006329D01*
X006244Y006329D02*
X006244Y009478D01*
X001992Y008652D02*
X001992Y007864D01*
X001598Y007864D01*
X001598Y008652D01*
X001992Y008652D01*
M02*
