%
M48
M72
T01C0.0150
T02C0.0240
T03C0.0280
T04C0.0360
T05C0.0394
T06C0.0400
T07C0.0433
T08C0.0460
T09C0.0551
T10C0.0910
T11C0.1260
%
T01
X4708Y3927
X2976Y5148
X3449Y5738
X3842Y5660
X3645Y6368
X4472Y6447
X5181Y6447
X5535Y5778
X4787Y5699
X3685Y7156
X3724Y7746
X4354Y7667
X5574Y7864
X6519Y8297
X6716Y8770
X8173Y8888
X5811Y11132
X5574Y11604
X4708Y10069
X3763Y10030
X2582Y10030
X8173Y5148
X8449Y3967
X10141Y4636
X10063Y5305
X23173Y16998
X23173Y17589
X24157Y18415
X23960Y20108
X25063Y20581
X22976Y21053
X22071Y21211
X20889Y20305
X20338Y20423
X19078Y20463
X21244Y18612
X21795Y19085
X26952Y18809
X33173Y18297
X34787Y18297
X35378Y17234
X36795Y15817
X35968Y19793
X11598Y21447
X1677Y22510
T02
X1795Y7486
X1795Y5486
T03
X11807Y5683
X11807Y4983
X21957Y5191
X22657Y5191
X8055Y16687
X8055Y17387
X5649Y21565
X4949Y21565
X3680Y21565
X2980Y21565
T04
X8186Y13739
X8186Y12759
X8186Y11969
X8186Y10989
X14199Y5253
X15179Y5253
X15969Y5253
X16949Y5253
X25199Y5253
X26179Y5253
X26969Y5253
X27949Y5253
T05
X13291Y20148
T06
X37634Y19782
X38634Y19782
X38634Y18782
X37634Y18782
X37634Y17782
X38634Y17782
X38634Y16782
X37634Y16782
X37634Y15782
X38634Y15782
X38634Y14782
X37634Y14782
X37634Y13782
X38634Y13782
X38634Y12782
X37634Y12782
X37634Y11782
X38634Y11782
X38634Y10782
X37634Y10782
X37634Y9782
X38634Y9782
X38634Y8782
X37634Y8782
X37634Y7782
X38634Y7782
X38634Y6782
X38634Y5782
X37634Y5782
X37634Y6782
X37634Y4782
X38634Y4782
X38634Y20782
X37634Y20782
X37634Y21782
X38634Y21782
X38634Y22782
X37634Y22782
X37634Y23782
X38634Y23782
T07
X31574Y23183
X30574Y23183
X29574Y23183
X28574Y23183
X27574Y23183
X26574Y23183
X25574Y23183
X17574Y23183
X16574Y23183
X15574Y23183
X14574Y23183
X13574Y23183
X12574Y23183
X11574Y23183
T08
X6074Y23183
X5074Y23183
X19574Y23183
X20574Y23183
X33574Y23183
X34574Y23183
T09
X5797Y19148
X4547Y19148
X3297Y19148
X2047Y19148
X2047Y12898
X5797Y12898
T10
X9256Y14949
X9256Y9779
X12989Y4183
X18159Y4183
X23989Y4183
X29159Y4183
T11
X1834Y2943
X1834Y25620
X38094Y25620
X38094Y2943
M30
