G75*
G70*
%OFA0B0*%
%FSLAX24Y24*%
%IPPOS*%
%LPD*%
%AMOC8*
5,1,8,0,0,1.08239X$1,22.5*
%
%ADD10C,0.1340*%
%ADD11C,0.0907*%
%ADD12OC8,0.0560*%
%ADD13C,0.0560*%
%ADD14R,0.0513X0.0474*%
%ADD15C,0.0730*%
%ADD16C,0.0840*%
%ADD17C,0.0640*%
%ADD18C,0.1390*%
%ADD19R,0.0237X0.0257*%
%ADD20R,0.0257X0.0474*%
%ADD21R,0.0474X0.0257*%
%ADD22R,0.0316X0.0946*%
%ADD23R,0.0474X0.0513*%
%ADD24R,0.0631X0.1025*%
%ADD25R,0.0336X0.0336*%
%ADD26OC8,0.0680*%
%ADD27R,0.1580X0.1749*%
%ADD28R,0.0198X0.0474*%
%ADD29R,0.0780X0.2080*%
%ADD30C,0.0520*%
%ADD31C,0.0671*%
D10*
X001834Y002943D03*
X001834Y025620D03*
X038094Y025620D03*
X038094Y002943D03*
D11*
X005797Y012898D03*
X002047Y012898D03*
X002047Y019148D03*
X003297Y019148D03*
X004547Y019148D03*
X005797Y019148D03*
D12*
X008055Y017387D03*
X005649Y021565D03*
X003680Y021565D03*
X011807Y005683D03*
X021957Y005191D03*
D13*
X022657Y005191D03*
X011807Y004983D03*
X008055Y016687D03*
X004949Y021565D03*
X002980Y021565D03*
D14*
X001704Y021333D03*
X001704Y022002D03*
D15*
X011574Y023183D03*
X012574Y023183D03*
X013574Y023183D03*
X014574Y023183D03*
X015574Y023183D03*
X016574Y023183D03*
X017574Y023183D03*
X025574Y023183D03*
X026574Y023183D03*
X027574Y023183D03*
X028574Y023183D03*
X029574Y023183D03*
X030574Y023183D03*
X031574Y023183D03*
D16*
X033574Y023183D03*
X034574Y023183D03*
X020574Y023183D03*
X019574Y023183D03*
X006074Y023183D03*
X005074Y023183D03*
D17*
X008186Y013739D03*
X008186Y012759D03*
X008186Y011969D03*
X008186Y010989D03*
X014199Y005253D03*
X015179Y005253D03*
X015969Y005253D03*
X016949Y005253D03*
X025199Y005253D03*
X026179Y005253D03*
X026969Y005253D03*
X027949Y005253D03*
D18*
X029159Y004183D03*
X023989Y004183D03*
X018159Y004183D03*
X012989Y004183D03*
X009256Y009779D03*
X009256Y014949D03*
D19*
X015366Y006595D03*
X015681Y006595D03*
X015681Y005984D03*
X015366Y005984D03*
X026429Y006028D03*
X026744Y006028D03*
X026744Y006638D03*
X026429Y006638D03*
D20*
X005704Y005191D03*
X005389Y005191D03*
X005074Y005191D03*
X004760Y005191D03*
X004445Y005191D03*
X004130Y005191D03*
X003815Y005191D03*
X003500Y005191D03*
X003500Y008419D03*
X003815Y008419D03*
X004130Y008419D03*
X004445Y008419D03*
X004760Y008419D03*
X005074Y008419D03*
X005389Y008419D03*
X005704Y008419D03*
D21*
X006197Y007908D03*
X006197Y007593D03*
X006197Y007278D03*
X006197Y006963D03*
X006197Y006648D03*
X006197Y006333D03*
X006197Y006018D03*
X006197Y005703D03*
X002968Y005703D03*
X002968Y006018D03*
X002968Y006333D03*
X002968Y006648D03*
X002968Y006963D03*
X002968Y007278D03*
X002968Y007593D03*
X002968Y007908D03*
D22*
X008824Y005982D03*
X009324Y005982D03*
X009824Y005982D03*
X010324Y005982D03*
X010324Y003935D03*
X009824Y003935D03*
X009324Y003935D03*
X008824Y003935D03*
D23*
X004197Y003908D03*
X004197Y004577D03*
D24*
X013071Y006345D03*
X014015Y006345D03*
X023925Y006384D03*
X024870Y006384D03*
D25*
X025063Y019774D03*
X025063Y020128D03*
X019846Y020463D03*
X019492Y020463D03*
X004472Y009537D03*
X004472Y009183D03*
X003763Y009183D03*
X003763Y009537D03*
X003291Y009537D03*
X003291Y009183D03*
X002582Y009183D03*
X002582Y009537D03*
X003488Y004577D03*
X003488Y004223D03*
X005063Y004183D03*
X005063Y004537D03*
D26*
X037634Y004782D03*
X038634Y004782D03*
X038634Y005782D03*
X038634Y006782D03*
X037634Y006782D03*
X037634Y005782D03*
X037634Y007782D03*
X038634Y007782D03*
X038634Y008782D03*
X038634Y009782D03*
X037634Y009782D03*
X037634Y008782D03*
X037634Y010782D03*
X038634Y010782D03*
X038634Y011782D03*
X037634Y011782D03*
X037634Y012782D03*
X038634Y012782D03*
X038634Y013782D03*
X037634Y013782D03*
X037634Y014782D03*
X038634Y014782D03*
X038634Y015782D03*
X037634Y015782D03*
X037634Y016782D03*
X038634Y016782D03*
X038634Y017782D03*
X037634Y017782D03*
X037634Y018782D03*
X038634Y018782D03*
X038634Y019782D03*
X037634Y019782D03*
X037634Y020782D03*
X038634Y020782D03*
X038634Y021782D03*
X038634Y022782D03*
X037634Y022782D03*
X037634Y021782D03*
X037634Y023782D03*
X038634Y023782D03*
D27*
X008252Y021959D03*
X008252Y019447D03*
D28*
X021244Y020581D03*
X021500Y020581D03*
X021756Y020581D03*
X022011Y020581D03*
X022267Y020581D03*
X022523Y020581D03*
X022779Y020581D03*
X023035Y020581D03*
X023291Y020581D03*
X023547Y020581D03*
X023547Y018022D03*
X023291Y018022D03*
X023035Y018022D03*
X022779Y018022D03*
X022523Y018022D03*
X022267Y018022D03*
X022011Y018022D03*
X021756Y018022D03*
X021500Y018022D03*
X021244Y018022D03*
D29*
X012421Y020132D03*
X009821Y020132D03*
D30*
X002015Y007486D02*
X001575Y007486D01*
X001575Y005486D02*
X002015Y005486D01*
D31*
X013291Y020148D03*
M02*
