G75*
G70*
%OFA0B0*%
%FSLAX24Y24*%
%IPPOS*%
%LPD*%
%AMOC8*
5,1,8,0,0,1.08239X$1,22.5*
%
%ADD10R,0.0198X0.0375*%
%ADD11R,0.0198X0.0277*%
%ADD12R,0.1340X0.1340*%
%ADD13R,0.0671X0.0592*%
%ADD14R,0.0474X0.0513*%
%ADD15R,0.0513X0.0474*%
%ADD16R,0.0848X0.1064*%
%ADD17C,0.0600*%
%ADD18R,0.0480X0.0280*%
%ADD19R,0.0316X0.0316*%
%ADD20R,0.0316X0.0395*%
D10*
G36*
X002804Y002789D02*
X002664Y002929D01*
X002928Y003193D01*
X003068Y003053D01*
X002804Y002789D01*
G37*
G36*
X002665Y002929D02*
X002525Y003069D01*
X002789Y003333D01*
X002929Y003193D01*
X002665Y002929D01*
G37*
G36*
X002526Y003068D02*
X002386Y003208D01*
X002650Y003472D01*
X002790Y003332D01*
X002526Y003068D01*
G37*
G36*
X002387Y003207D02*
X002247Y003347D01*
X002511Y003611D01*
X002651Y003471D01*
X002387Y003207D01*
G37*
G36*
X002247Y003346D02*
X002107Y003486D01*
X002371Y003750D01*
X002511Y003610D01*
X002247Y003346D01*
G37*
G36*
X002108Y003485D02*
X001968Y003625D01*
X002232Y003889D01*
X002372Y003749D01*
X002108Y003485D01*
G37*
G36*
X002372Y004252D02*
X002232Y004112D01*
X001968Y004376D01*
X002108Y004516D01*
X002372Y004252D01*
G37*
G36*
X002511Y004391D02*
X002371Y004251D01*
X002107Y004515D01*
X002247Y004655D01*
X002511Y004391D01*
G37*
G36*
X002651Y004530D02*
X002511Y004390D01*
X002247Y004654D01*
X002387Y004794D01*
X002651Y004530D01*
G37*
G36*
X002790Y004669D02*
X002650Y004529D01*
X002386Y004793D01*
X002526Y004933D01*
X002790Y004669D01*
G37*
G36*
X002929Y004809D02*
X002789Y004669D01*
X002525Y004933D01*
X002665Y005073D01*
X002929Y004809D01*
G37*
G36*
X003068Y004948D02*
X002928Y004808D01*
X002664Y005072D01*
X002804Y005212D01*
X003068Y004948D01*
G37*
G36*
X003431Y004808D02*
X003291Y004948D01*
X003555Y005212D01*
X003695Y005072D01*
X003431Y004808D01*
G37*
G36*
X003570Y004669D02*
X003430Y004809D01*
X003694Y005073D01*
X003834Y004933D01*
X003570Y004669D01*
G37*
G36*
X003709Y004529D02*
X003569Y004669D01*
X003833Y004933D01*
X003973Y004793D01*
X003709Y004529D01*
G37*
G36*
X003848Y004390D02*
X003708Y004530D01*
X003972Y004794D01*
X004112Y004654D01*
X003848Y004390D01*
G37*
G36*
X003987Y004251D02*
X003847Y004391D01*
X004111Y004655D01*
X004251Y004515D01*
X003987Y004251D01*
G37*
G36*
X004127Y004112D02*
X003987Y004252D01*
X004251Y004516D01*
X004391Y004376D01*
X004127Y004112D01*
G37*
G36*
X004391Y003625D02*
X004251Y003485D01*
X003987Y003749D01*
X004127Y003889D01*
X004391Y003625D01*
G37*
G36*
X004251Y003486D02*
X004111Y003346D01*
X003847Y003610D01*
X003987Y003750D01*
X004251Y003486D01*
G37*
G36*
X004112Y003347D02*
X003972Y003207D01*
X003708Y003471D01*
X003848Y003611D01*
X004112Y003347D01*
G37*
G36*
X003973Y003208D02*
X003833Y003068D01*
X003569Y003332D01*
X003709Y003472D01*
X003973Y003208D01*
G37*
G36*
X003834Y003069D02*
X003694Y002929D01*
X003430Y003193D01*
X003570Y003333D01*
X003834Y003069D01*
G37*
G36*
X003695Y002929D02*
X003555Y002789D01*
X003291Y003053D01*
X003431Y003193D01*
X003695Y002929D01*
G37*
D11*
G36*
X003221Y002844D02*
X003361Y002984D01*
X003555Y002790D01*
X003415Y002650D01*
X003221Y002844D01*
G37*
G36*
X002944Y002650D02*
X002804Y002790D01*
X002998Y002984D01*
X003138Y002844D01*
X002944Y002650D01*
G37*
G36*
X001969Y003625D02*
X001829Y003765D01*
X002023Y003959D01*
X002163Y003819D01*
X001969Y003625D01*
G37*
G36*
X001829Y004236D02*
X001969Y004376D01*
X002163Y004182D01*
X002023Y004042D01*
X001829Y004236D01*
G37*
G36*
X002804Y005211D02*
X002944Y005351D01*
X003138Y005157D01*
X002998Y005017D01*
X002804Y005211D01*
G37*
G36*
X003361Y005017D02*
X003221Y005157D01*
X003415Y005351D01*
X003555Y005211D01*
X003361Y005017D01*
G37*
G36*
X004336Y004042D02*
X004196Y004182D01*
X004390Y004376D01*
X004530Y004236D01*
X004336Y004042D01*
G37*
G36*
X004196Y003819D02*
X004336Y003959D01*
X004530Y003765D01*
X004390Y003625D01*
X004196Y003819D01*
G37*
D12*
G36*
X002232Y004001D02*
X003179Y004948D01*
X004126Y004001D01*
X003179Y003054D01*
X002232Y004001D01*
G37*
D13*
X004782Y006287D03*
X004782Y007035D03*
D14*
X001492Y002526D03*
X001492Y003195D03*
D15*
X003177Y002041D03*
X003847Y002041D03*
D16*
X004022Y006091D03*
X002822Y006091D03*
D17*
X005462Y006056D02*
X005982Y006056D01*
X005982Y007056D02*
X005462Y007056D01*
X005462Y005056D02*
X005982Y005056D01*
X005982Y004056D02*
X005462Y004056D01*
X005462Y003056D02*
X005982Y003056D01*
X005982Y002056D02*
X005462Y002056D01*
X005462Y001056D02*
X005982Y001056D01*
D18*
X002321Y006859D03*
X002321Y007213D03*
X001573Y007213D03*
X001573Y006859D03*
D19*
X001708Y005925D03*
X001708Y005610D03*
X002220Y005610D03*
X002220Y005925D03*
D20*
X002220Y006280D03*
X001708Y006280D03*
X001708Y005256D03*
X002220Y005256D03*
M02*
