G75*
G70*
%OFA0B0*%
%FSLAX24Y24*%
%IPPOS*%
%LPD*%
%AMOC8*
5,1,8,0,0,1.08239X$1,22.5*
%
%ADD10C,0.1299*%
%ADD11C,0.0634*%
%ADD12C,0.0945*%
%ADD13C,0.1580*%
%ADD14C,0.0673*%
%ADD15C,0.0640*%
%ADD16C,0.0825*%
%ADD17C,0.1400*%
%ADD18C,0.0555*%
D10*
X008469Y004669D03*
X012943Y004669D03*
D11*
X013273Y002849D03*
X012273Y002849D03*
X008990Y002849D03*
X007990Y002849D03*
X008912Y007185D03*
X009900Y007185D03*
X010384Y008169D03*
X011384Y008169D03*
X011868Y007185D03*
X012384Y008169D03*
X010880Y007185D03*
X009384Y008169D03*
D12*
X007551Y006000D03*
X013851Y006000D03*
D13*
X003815Y003533D03*
X003815Y005895D03*
X005666Y004714D03*
D14*
X005561Y023792D03*
X004561Y023792D03*
X003561Y023792D03*
X006561Y023792D03*
X007561Y023792D03*
X008561Y023792D03*
X009561Y023792D03*
X011621Y023792D03*
X012621Y023792D03*
X013621Y023792D03*
X014621Y023792D03*
X015621Y023792D03*
X016621Y023792D03*
X017621Y023792D03*
D15*
X019621Y015022D02*
X020261Y015022D01*
X020261Y014022D02*
X019621Y014022D01*
X019621Y013022D02*
X020261Y013022D01*
X020261Y012022D02*
X019621Y012022D01*
X019621Y011022D02*
X020261Y011022D01*
X020261Y010022D02*
X019621Y010022D01*
D16*
X007521Y010242D03*
X007521Y011642D03*
X007521Y013042D03*
X002721Y013542D03*
X002721Y009742D03*
D17*
X001341Y008872D03*
X001341Y026372D03*
X019841Y026372D03*
X019841Y008872D03*
D18*
X010792Y015588D03*
X010792Y016376D03*
X010792Y017163D03*
X010792Y017950D03*
X010792Y018738D03*
X010792Y019525D03*
X010792Y020313D03*
X010792Y021100D03*
X010792Y021887D03*
X010792Y022675D03*
X002131Y022675D03*
X002131Y021887D03*
X002131Y021100D03*
X002131Y020313D03*
X002131Y019525D03*
X002131Y018738D03*
X002131Y017950D03*
X002131Y017163D03*
X002131Y016376D03*
X002131Y015588D03*
M02*
