G75*
G70*
%OFA0B0*%
%FSLAX24Y24*%
%IPPOS*%
%LPD*%
%AMOC8*
5,1,8,0,0,1.08239X$1,22.5*
%
%ADD10R,0.1380X0.1380*%
%ADD11R,0.0591X0.0512*%
%ADD12C,0.1299*%
%ADD13C,0.0634*%
%ADD14C,0.0945*%
%ADD15R,0.0512X0.0591*%
%ADD16C,0.1580*%
%ADD17R,0.0787X0.0472*%
%ADD18R,0.0512X0.0630*%
%ADD19R,0.0630X0.0512*%
%ADD20R,0.0748X0.0945*%
%ADD21R,0.0157X0.0394*%
%ADD22R,0.0394X0.0157*%
%ADD23R,0.0260X0.0500*%
%ADD24C,0.0673*%
%ADD25C,0.0640*%
%ADD26R,0.0400X0.0200*%
%ADD27R,0.0900X0.0700*%
%ADD28R,0.0315X0.0197*%
%ADD29R,0.0157X0.0630*%
%ADD30R,0.0118X0.0335*%
%ADD31R,0.0335X0.0118*%
%ADD32R,0.2000X0.2000*%
%ADD33C,0.0825*%
%ADD34R,0.0433X0.0394*%
%ADD35C,0.1400*%
%ADD36R,0.0472X0.0472*%
%ADD37R,0.0236X0.0236*%
%ADD38R,0.0315X0.0236*%
%ADD39R,0.0236X0.0315*%
%ADD40R,0.0945X0.0945*%
%ADD41R,0.1161X0.1063*%
%ADD42R,0.0709X0.0433*%
%ADD43R,0.0866X0.0984*%
%ADD44R,0.0787X0.0197*%
%ADD45R,0.0610X0.0709*%
%ADD46R,0.0433X0.0276*%
%ADD47R,0.1102X0.0787*%
%ADD48R,0.0512X0.0354*%
%ADD49C,0.0555*%
%ADD50R,0.0315X0.0472*%
D10*
X016571Y007392D03*
D11*
X015751Y005366D03*
X015751Y004697D03*
X014331Y008698D03*
X014331Y009446D03*
X012851Y009328D03*
X012851Y010076D03*
X011981Y010076D03*
X011981Y009328D03*
X009881Y009328D03*
X009881Y010076D03*
X009901Y010967D03*
X009901Y011636D03*
X008981Y010076D03*
X008981Y009328D03*
X016581Y017948D03*
X016581Y018696D03*
X016561Y019578D03*
X016561Y020326D03*
X003421Y020078D03*
X003421Y020826D03*
D12*
X008469Y004669D03*
X012943Y004669D03*
D13*
X013273Y002849D03*
X012273Y002849D03*
X008990Y002849D03*
X007990Y002849D03*
X008912Y007185D03*
X009900Y007185D03*
X010384Y008169D03*
X011384Y008169D03*
X011868Y007185D03*
X012384Y008169D03*
X010880Y007185D03*
X009384Y008169D03*
D14*
X007551Y006000D03*
X013851Y006000D03*
D15*
X015137Y009572D03*
X015885Y009572D03*
X017967Y010742D03*
X018636Y010742D03*
X012796Y010902D03*
X012127Y010902D03*
X003785Y018202D03*
X003037Y018202D03*
X002867Y022642D03*
X003615Y022642D03*
X002215Y024522D03*
X002215Y025182D03*
X001467Y025182D03*
X001467Y024522D03*
X019077Y024252D03*
X019825Y024252D03*
D16*
X003815Y003533D03*
X003815Y005895D03*
X005666Y004714D03*
D17*
X008931Y010722D03*
X008931Y011981D03*
D18*
X016438Y003682D03*
X017225Y003682D03*
X017928Y003682D03*
X018715Y003682D03*
X018355Y012672D03*
X017568Y012672D03*
D19*
X018043Y013329D03*
X018043Y014116D03*
X018931Y007985D03*
X018931Y007198D03*
X012611Y012428D03*
X012611Y013215D03*
X010841Y013235D03*
X010841Y012448D03*
D20*
X016673Y004903D03*
X018484Y004903D03*
D21*
X017343Y006266D03*
X017087Y006266D03*
X016831Y006266D03*
X016576Y006266D03*
X016320Y006266D03*
X016064Y006266D03*
X015808Y006266D03*
X015808Y008510D03*
X016064Y008510D03*
X016320Y008510D03*
X016576Y008510D03*
X016831Y008510D03*
X017087Y008510D03*
X017343Y008510D03*
D22*
X017698Y008156D03*
X017698Y007900D03*
X017698Y007644D03*
X017698Y007388D03*
X017698Y007132D03*
X017698Y006876D03*
X017698Y006620D03*
X015453Y006620D03*
X015453Y006876D03*
X015453Y007132D03*
X015453Y007388D03*
X015453Y007644D03*
X015453Y007900D03*
X015453Y008156D03*
D23*
X017126Y007808D03*
D24*
X017621Y023792D03*
X016621Y023792D03*
X015621Y023792D03*
X014621Y023792D03*
X013621Y023792D03*
X012621Y023792D03*
X011621Y023792D03*
X009561Y023792D03*
X008561Y023792D03*
X007561Y023792D03*
X006561Y023792D03*
X005561Y023792D03*
X004561Y023792D03*
X003561Y023792D03*
D25*
X019621Y015022D02*
X020261Y015022D01*
X020261Y014022D02*
X019621Y014022D01*
X019621Y013022D02*
X020261Y013022D01*
X020261Y012022D02*
X019621Y012022D01*
X019621Y011022D02*
X020261Y011022D01*
X020261Y010022D02*
X019621Y010022D01*
D26*
X011121Y014369D03*
X011121Y014723D03*
X010373Y014723D03*
X010373Y014369D03*
D27*
X011701Y013522D03*
X011701Y012321D03*
X001261Y013651D03*
X001261Y014852D03*
D28*
X014751Y016258D03*
X015341Y016258D03*
X015932Y016258D03*
X015932Y017085D03*
X015341Y017085D03*
X014751Y017085D03*
D29*
X014751Y016672D03*
X015341Y016672D03*
X015932Y016672D03*
D30*
X015849Y015280D03*
X016045Y015280D03*
X016242Y015280D03*
X016439Y015280D03*
X016636Y015280D03*
X015652Y015280D03*
X015455Y015280D03*
X015258Y015280D03*
X015061Y015280D03*
X014864Y015280D03*
X014667Y015280D03*
X014471Y015280D03*
X014274Y015280D03*
X014077Y015280D03*
X013880Y015280D03*
X013683Y015280D03*
X013683Y011736D03*
X013880Y011736D03*
X014077Y011736D03*
X014274Y011736D03*
X014471Y011736D03*
X014667Y011736D03*
X014864Y011736D03*
X015061Y011736D03*
X015258Y011736D03*
X015455Y011736D03*
X015652Y011736D03*
X015849Y011736D03*
X016045Y011736D03*
X016242Y011736D03*
X016439Y011736D03*
X016636Y011736D03*
D31*
X016931Y012032D03*
X016931Y012228D03*
X016931Y012425D03*
X016931Y012622D03*
X016931Y012819D03*
X016931Y013016D03*
X016931Y013213D03*
X016931Y013410D03*
X016931Y013606D03*
X016931Y013803D03*
X016931Y014000D03*
X016931Y014197D03*
X016931Y014394D03*
X016931Y014591D03*
X016931Y014787D03*
X016931Y014984D03*
X013388Y014984D03*
X013388Y014787D03*
X013388Y014591D03*
X013388Y014394D03*
X013388Y014197D03*
X013388Y014000D03*
X013388Y013803D03*
X013388Y013606D03*
X013388Y013410D03*
X013388Y013213D03*
X013388Y013016D03*
X013388Y012819D03*
X013388Y012622D03*
X013388Y012425D03*
X013388Y012228D03*
X013388Y012032D03*
D32*
X015181Y013532D03*
D33*
X007521Y013042D03*
X007521Y011642D03*
X007521Y010242D03*
X002721Y009742D03*
X002721Y013542D03*
D34*
X003011Y012596D03*
X003011Y011927D03*
D35*
X001341Y008872D03*
X001341Y026372D03*
X019841Y026372D03*
X019841Y008872D03*
D36*
X019825Y023432D03*
X018998Y023432D03*
X002275Y023742D03*
X001448Y023742D03*
D37*
X006681Y022565D03*
X006996Y022565D03*
X006996Y022054D03*
X006681Y022054D03*
X011527Y015226D03*
X011527Y014911D03*
X012039Y014911D03*
X012039Y015226D03*
X014471Y022304D03*
X014786Y022304D03*
X014786Y022815D03*
X014471Y022815D03*
X019297Y004596D03*
X019297Y004281D03*
X019809Y004281D03*
X019809Y004596D03*
D38*
X007350Y022054D03*
X007350Y022565D03*
X006327Y022565D03*
X006327Y022054D03*
X014117Y022304D03*
X014117Y022815D03*
X015140Y022815D03*
X015140Y022304D03*
D39*
X012039Y015581D03*
X011527Y015581D03*
X011527Y014557D03*
X012039Y014557D03*
X019297Y004951D03*
X019809Y004951D03*
X019809Y003927D03*
X019297Y003927D03*
D40*
X006401Y006495D03*
X006401Y008228D03*
X005987Y015172D03*
X004255Y015172D03*
D41*
X005090Y007662D03*
X002433Y007662D03*
D42*
X017459Y020286D03*
X017459Y021743D03*
X019900Y021743D03*
X019900Y020286D03*
D43*
X020030Y019275D03*
X017944Y019275D03*
X017944Y015968D03*
X020030Y015968D03*
D44*
X017845Y016992D03*
X017845Y017307D03*
X017845Y017622D03*
X017845Y017937D03*
X017845Y018251D03*
D45*
X009804Y015342D03*
X008879Y015342D03*
X008819Y012672D03*
X009744Y012672D03*
D46*
X009880Y013401D03*
X009880Y014582D03*
D47*
X008837Y013992D03*
D48*
X009880Y013992D03*
D49*
X010792Y015588D03*
X010792Y016376D03*
X010792Y017163D03*
X010792Y017950D03*
X010792Y018738D03*
X010792Y019525D03*
X010792Y020313D03*
X010792Y021100D03*
X010792Y021887D03*
X010792Y022675D03*
X002131Y022675D03*
X002131Y021887D03*
X002131Y021100D03*
X002131Y020313D03*
X002131Y019525D03*
X002131Y018738D03*
X002131Y017950D03*
X002131Y017163D03*
X002131Y016376D03*
X002131Y015588D03*
D50*
X004651Y017580D03*
X005151Y017580D03*
X005651Y017580D03*
X006151Y017580D03*
X006651Y017580D03*
X007151Y017580D03*
X007651Y017580D03*
X008151Y017580D03*
X008151Y019943D03*
X007651Y019943D03*
X007151Y019943D03*
X006651Y019943D03*
X006151Y019943D03*
X005651Y019943D03*
X005151Y019943D03*
X004651Y019943D03*
M02*
