%
M48
M72
T01C0.0150
T02C0.0280
T03C0.0320
T04C0.0360
T05C0.0394
T06C0.0400
T07C0.0433
T08C0.0460
T09C0.0551
T10C0.0910
T11C0.1260
%
T01
X3173Y2156
X5023Y3160
X5535Y3415
X5614Y3849
X4669Y3927
X4157Y3809
X2326Y4990
X3193Y5581
X3586Y5994
X4118Y6959
X5693Y8022
X5653Y8829
X6598Y9203
X7110Y9459
X6598Y9774
X7602Y7746
X7681Y7077
X7700Y6034
X8409Y5660
X8429Y4459
X8114Y3986
X7681Y4104
X8212Y3612
X6342Y3160
X5456Y2077
X5889Y5581
X10279Y6604
X10712Y6624
X10732Y7943
X10279Y7943
X1244Y5797
X21244Y18612
X21795Y19085
X20889Y20305
X20338Y20423
X19078Y20463
X22071Y21211
X22976Y21053
X23960Y20108
X25063Y20581
X26952Y18809
X24157Y18415
X23173Y17589
X23173Y16998
X33173Y18297
X34787Y18297
X35378Y17234
X36795Y15817
X35968Y19793
X11598Y21447
X1677Y22510
T02
X2980Y21565
X3680Y21565
X4949Y21565
X5649Y21565
X8055Y17387
X8055Y16687
X11807Y5683
X11807Y4983
X21957Y5191
X22657Y5191
T03
X4712Y7900
X3712Y7900
X2712Y7900
X1712Y7900
X1712Y10900
X2712Y10900
X3712Y10900
X4712Y10900
T04
X8186Y10989
X8186Y11969
X8186Y12759
X8186Y13739
X14199Y5253
X15179Y5253
X15969Y5253
X16949Y5253
X25199Y5253
X26179Y5253
X26969Y5253
X27949Y5253
T05
X33370Y3809
X35122Y3809
X13291Y20148
T06
X37634Y19782
X38634Y19782
X38634Y18782
X37634Y18782
X37634Y17782
X38634Y17782
X38634Y16782
X37634Y16782
X37634Y15782
X38634Y15782
X38634Y14782
X37634Y14782
X37634Y13782
X38634Y13782
X38634Y12782
X37634Y12782
X37634Y11782
X38634Y11782
X38634Y10782
X37634Y10782
X37634Y9782
X38634Y9782
X38634Y8782
X37634Y8782
X37634Y7782
X38634Y7782
X38634Y6782
X38634Y5782
X37634Y5782
X37634Y6782
X37634Y4782
X38634Y4782
X38634Y20782
X37634Y20782
X37634Y21782
X38634Y21782
X38634Y22782
X37634Y22782
X37634Y23782
X38634Y23782
T07
X31574Y23183
X30574Y23183
X29574Y23183
X28574Y23183
X27574Y23183
X26574Y23183
X25574Y23183
X17574Y23183
X16574Y23183
X15574Y23183
X14574Y23183
X13574Y23183
X12574Y23183
X11574Y23183
T08
X6074Y23183
X5074Y23183
X19574Y23183
X20574Y23183
X33574Y23183
X34574Y23183
T09
X5797Y19148
X4547Y19148
X3297Y19148
X2047Y19148
X2047Y12898
X5797Y12898
T10
X9256Y14949
X9256Y9779
X12989Y4183
X18159Y4183
X23989Y4183
X29159Y4183
T11
X38094Y2943
X38094Y25620
X1834Y25620
X1834Y2943
M30
