G75*
G70*
%OFA0B0*%
%FSLAX24Y24*%
%IPPOS*%
%LPD*%
%AMOC8*
5,1,8,0,0,1.08239X$1,22.5*
%
%ADD10C,0.0050*%
%ADD11C,0.0020*%
%ADD12C,0.0060*%
%ADD13C,0.0040*%
%ADD14C,0.0020*%
%ADD15R,0.0200X0.2000*%
%ADD16R,0.0059X0.0118*%
%ADD17R,0.0118X0.0118*%
D10*
X004826Y003337D02*
X004826Y004124D01*
X005220Y004124D01*
X005220Y003337D01*
X004826Y003337D01*
X005260Y002707D02*
X006047Y002707D01*
X006047Y002313D01*
X005260Y002313D01*
X005260Y002707D01*
X006126Y003376D02*
X006126Y004163D01*
X006519Y004163D01*
X006519Y003376D01*
X006126Y003376D01*
X006480Y003179D02*
X006874Y003179D01*
X006874Y002392D01*
X006480Y002392D01*
X006480Y003179D01*
X006598Y003376D02*
X006598Y004163D01*
X006992Y004163D01*
X006992Y003376D01*
X006598Y003376D01*
X007228Y004242D02*
X004551Y004242D01*
X004551Y006919D01*
X007228Y006919D01*
X007228Y004833D01*
X007307Y004833D01*
X007307Y004793D01*
X007307Y004754D01*
X007228Y004754D01*
X007228Y004793D01*
X007307Y004793D01*
X007228Y004793D02*
X007228Y004833D01*
X007228Y004754D02*
X007228Y004242D01*
X007015Y004400D02*
X007017Y004414D01*
X007023Y004428D01*
X007031Y004440D01*
X007043Y004448D01*
X007057Y004454D01*
X007071Y004456D01*
X007085Y004454D01*
X007099Y004448D01*
X007111Y004440D01*
X007119Y004428D01*
X007125Y004414D01*
X007127Y004400D01*
X007125Y004386D01*
X007119Y004372D01*
X007111Y004360D01*
X007099Y004352D01*
X007085Y004346D01*
X007071Y004344D01*
X007057Y004346D01*
X007043Y004352D01*
X007031Y004360D01*
X007023Y004372D01*
X007017Y004386D01*
X007015Y004400D01*
X007464Y004282D02*
X007464Y004675D01*
X008252Y004675D01*
X008252Y004282D01*
X007464Y004282D01*
X007464Y005463D02*
X007464Y005856D01*
X008252Y005856D01*
X008252Y005463D01*
X007464Y005463D01*
X007386Y007116D02*
X006992Y007116D01*
X006992Y007904D01*
X007386Y007904D01*
X007386Y007116D01*
X006756Y007077D02*
X005968Y007077D01*
X005968Y007471D01*
X006756Y007471D01*
X006756Y007077D01*
X006756Y007549D02*
X005968Y007549D01*
X005968Y007943D01*
X006756Y007943D01*
X006756Y007549D01*
X005909Y007864D02*
X005909Y007077D01*
X005515Y007077D01*
X005515Y007864D01*
X005909Y007864D01*
X004354Y005778D02*
X003567Y005778D01*
X003567Y005384D01*
X004354Y005384D01*
X004354Y005778D01*
X003370Y004833D02*
X002976Y004833D01*
X002976Y004045D01*
X003370Y004045D01*
X003370Y004833D01*
X002425Y004813D02*
X002031Y004813D01*
X002031Y004026D01*
X002425Y004026D01*
X002425Y004813D01*
X007801Y009779D02*
X013306Y009779D01*
X013306Y009814D02*
X013306Y014914D01*
X013306Y014949D02*
X007801Y014949D01*
X007796Y014924D02*
X007796Y009804D01*
X010256Y010364D02*
X012756Y010614D01*
X012756Y011864D01*
X010256Y012114D01*
X010256Y012614D02*
X012756Y012864D01*
X012756Y014114D01*
X010256Y014364D01*
X007047Y011648D02*
X007047Y020398D01*
X000797Y020398D01*
X000797Y011648D01*
X007047Y011648D01*
X012989Y005638D02*
X012989Y000133D01*
X013024Y000133D02*
X018124Y000133D01*
X018159Y000133D02*
X018159Y005638D01*
X018134Y005643D02*
X013014Y005643D01*
X013574Y003183D02*
X013824Y000683D01*
X015074Y000683D01*
X015324Y003183D01*
X015824Y003183D02*
X016074Y000683D01*
X017324Y000683D01*
X017574Y003183D01*
X023989Y005638D02*
X023989Y000133D01*
X024024Y000133D02*
X029124Y000133D01*
X029159Y000133D02*
X029159Y005638D01*
X029134Y005643D02*
X024014Y005643D01*
X024574Y003183D02*
X024824Y000683D01*
X026074Y000683D01*
X026324Y003183D01*
X026824Y003183D02*
X027074Y000683D01*
X028324Y000683D01*
X028574Y003183D01*
X032878Y004301D02*
X032878Y001742D01*
X035614Y001742D01*
X035614Y004301D01*
X032878Y004301D01*
X033626Y006502D02*
X033626Y006598D01*
X033813Y006598D01*
X033626Y006848D01*
X033626Y006944D01*
X033626Y006848D02*
X033813Y006848D01*
X033626Y006848D02*
X033438Y006598D01*
X033626Y006598D01*
X033626Y006848D02*
X033438Y006848D01*
X039308Y004757D02*
X039759Y004757D01*
X039759Y004607D02*
X039759Y004907D01*
X039458Y004607D02*
X039308Y004757D01*
X024059Y017510D02*
X024059Y021093D01*
X020732Y021093D01*
X020732Y017510D01*
X024059Y017510D01*
X024866Y019557D02*
X025260Y019557D01*
X025260Y020345D01*
X024866Y020345D01*
X024866Y019557D01*
X024574Y022583D02*
X024574Y026783D01*
X032574Y026783D01*
X032574Y022583D01*
X024574Y022583D01*
X020063Y020660D02*
X020063Y020266D01*
X019275Y020266D01*
X019275Y020660D01*
X020063Y020660D01*
X018574Y022583D02*
X018574Y026783D01*
X010574Y026783D01*
X010574Y022583D01*
X018574Y022583D01*
X012071Y021132D02*
X012071Y019132D01*
X010471Y019132D01*
X010471Y021132D01*
X010171Y021132D01*
X010171Y019132D01*
X010471Y019132D01*
X009256Y018442D02*
X009256Y022963D01*
X007247Y022963D01*
X007247Y018442D01*
X009256Y018442D01*
X010471Y021132D02*
X012071Y021132D01*
X036508Y023532D02*
X036733Y023307D01*
X036733Y023607D01*
X036583Y023767D02*
X036508Y023842D01*
X036508Y023992D01*
X036583Y024067D01*
X036884Y023767D01*
X036959Y023842D01*
X036959Y023992D01*
X036884Y024067D01*
X036583Y024067D01*
X036583Y023767D02*
X036884Y023767D01*
X036959Y023532D02*
X036508Y023532D01*
D11*
X003903Y002648D02*
X003683Y002648D01*
X003903Y002648D02*
X003903Y002795D01*
X003903Y002869D02*
X003903Y003016D01*
X003903Y003090D02*
X003903Y003200D01*
X003866Y003237D01*
X003719Y003237D01*
X003683Y003200D01*
X003683Y003090D01*
X003903Y003090D01*
X003984Y003071D02*
X004204Y003071D01*
X004204Y003144D02*
X004204Y002997D01*
X004204Y002923D02*
X004131Y002850D01*
X004131Y002886D02*
X004131Y002776D01*
X004204Y002776D02*
X003984Y002776D01*
X003984Y002886D01*
X004021Y002923D01*
X004094Y002923D01*
X004131Y002886D01*
X004057Y002997D02*
X003984Y003071D01*
X003984Y003218D02*
X003984Y003365D01*
X004021Y003365D01*
X004167Y003218D01*
X004204Y003218D01*
X004456Y003328D02*
X004566Y003218D01*
X004566Y003365D01*
X004456Y003328D02*
X004677Y003328D01*
X004677Y003144D02*
X004603Y003071D01*
X004603Y003107D02*
X004603Y002997D01*
X004677Y002997D02*
X004456Y002997D01*
X004456Y003107D01*
X004493Y003144D01*
X004566Y003144D01*
X004603Y003107D01*
X003903Y003311D02*
X003903Y003458D01*
X003903Y003384D02*
X003683Y003384D01*
X003756Y003311D01*
X003683Y003016D02*
X003683Y002869D01*
X003903Y002869D01*
X003793Y002869D02*
X003793Y002942D01*
X002440Y004179D02*
X002220Y004179D01*
X002220Y004289D01*
X002257Y004326D01*
X002330Y004326D01*
X002367Y004289D01*
X002367Y004179D01*
X002367Y004253D02*
X002440Y004326D01*
X002404Y004400D02*
X002440Y004437D01*
X002440Y004510D01*
X002404Y004547D01*
X002367Y004547D01*
X002330Y004510D01*
X002330Y004474D01*
X002330Y004510D02*
X002294Y004547D01*
X002257Y004547D01*
X002220Y004510D01*
X002220Y004437D01*
X002257Y004400D01*
X003642Y004463D02*
X003642Y004683D01*
X003752Y004683D01*
X003788Y004646D01*
X003788Y004573D01*
X003752Y004536D01*
X003642Y004536D01*
X003715Y004536D02*
X003788Y004463D01*
X003863Y004463D02*
X004009Y004610D01*
X004009Y004646D01*
X003973Y004683D01*
X003899Y004683D01*
X003863Y004646D01*
X003863Y004463D02*
X004009Y004463D01*
X004009Y004935D02*
X003863Y004935D01*
X003936Y004935D02*
X003936Y005155D01*
X003863Y005082D01*
X003788Y005045D02*
X003752Y005009D01*
X003642Y005009D01*
X003715Y005009D02*
X003788Y004935D01*
X003788Y005045D02*
X003788Y005119D01*
X003752Y005155D01*
X003642Y005155D01*
X003642Y004935D01*
X002810Y005750D02*
X002737Y005750D01*
X002700Y005787D01*
X002700Y005860D01*
X002810Y005860D01*
X002847Y005824D01*
X002847Y005787D01*
X002810Y005750D01*
X002700Y005860D02*
X002774Y005934D01*
X002847Y005971D01*
X002810Y006183D02*
X002737Y006183D01*
X002700Y006220D01*
X002700Y006294D02*
X002774Y006330D01*
X002810Y006330D01*
X002847Y006294D01*
X002847Y006220D01*
X002810Y006183D01*
X002700Y006294D02*
X002700Y006404D01*
X002847Y006404D01*
X002810Y006617D02*
X002810Y006837D01*
X002700Y006727D01*
X002847Y006727D01*
X002626Y006617D02*
X002479Y006617D01*
X002553Y006617D02*
X002553Y006837D01*
X002479Y006763D01*
X002405Y006800D02*
X002405Y006727D01*
X002368Y006690D01*
X002258Y006690D01*
X002258Y006617D02*
X002258Y006837D01*
X002368Y006837D01*
X002405Y006800D01*
X002332Y006690D02*
X002405Y006617D01*
X002368Y006404D02*
X002405Y006367D01*
X002405Y006294D01*
X002368Y006257D01*
X002258Y006257D01*
X002332Y006257D02*
X002405Y006183D01*
X002479Y006183D02*
X002626Y006183D01*
X002553Y006183D02*
X002553Y006404D01*
X002479Y006330D01*
X002368Y006404D02*
X002258Y006404D01*
X002258Y006183D01*
X002258Y005971D02*
X002368Y005971D01*
X002405Y005934D01*
X002405Y005860D01*
X002368Y005824D01*
X002258Y005824D01*
X002332Y005824D02*
X002405Y005750D01*
X002479Y005750D02*
X002626Y005750D01*
X002553Y005750D02*
X002553Y005971D01*
X002479Y005897D01*
X002258Y005971D02*
X002258Y005750D01*
X001685Y005787D02*
X001649Y005750D01*
X001575Y005750D01*
X001539Y005787D01*
X001464Y005750D02*
X001318Y005750D01*
X001391Y005750D02*
X001391Y005971D01*
X001318Y005897D01*
X001244Y005860D02*
X001207Y005824D01*
X001097Y005824D01*
X001170Y005824D02*
X001244Y005750D01*
X001244Y005860D02*
X001244Y005934D01*
X001207Y005971D01*
X001097Y005971D01*
X001097Y005750D01*
X001097Y006183D02*
X001097Y006404D01*
X001207Y006404D01*
X001244Y006367D01*
X001244Y006294D01*
X001207Y006257D01*
X001097Y006257D01*
X001170Y006257D02*
X001244Y006183D01*
X001318Y006183D02*
X001464Y006183D01*
X001391Y006183D02*
X001391Y006404D01*
X001318Y006330D01*
X001539Y006330D02*
X001612Y006404D01*
X001612Y006183D01*
X001539Y006183D02*
X001685Y006183D01*
X001649Y005971D02*
X001685Y005934D01*
X001685Y005897D01*
X001649Y005860D01*
X001685Y005824D01*
X001685Y005787D01*
X001649Y005860D02*
X001612Y005860D01*
X001539Y005934D02*
X001575Y005971D01*
X001649Y005971D01*
X001649Y006617D02*
X001575Y006617D01*
X001539Y006653D01*
X001685Y006800D01*
X001685Y006653D01*
X001649Y006617D01*
X001539Y006653D02*
X001539Y006800D01*
X001575Y006837D01*
X001649Y006837D01*
X001685Y006800D01*
X001464Y006617D02*
X001318Y006617D01*
X001391Y006617D02*
X001391Y006837D01*
X001318Y006763D01*
X001244Y006727D02*
X001207Y006690D01*
X001097Y006690D01*
X001170Y006690D02*
X001244Y006617D01*
X001244Y006727D02*
X001244Y006800D01*
X001207Y006837D01*
X001097Y006837D01*
X001097Y006617D01*
X003602Y006707D02*
X003602Y006927D01*
X003712Y006927D01*
X003749Y006890D01*
X003749Y006817D01*
X003712Y006780D01*
X003602Y006780D01*
X003676Y006780D02*
X003749Y006707D01*
X003823Y006744D02*
X003860Y006707D01*
X003933Y006707D01*
X003970Y006744D01*
X003970Y006890D01*
X003933Y006927D01*
X003860Y006927D01*
X003823Y006890D01*
X003823Y006854D01*
X003860Y006817D01*
X003970Y006817D01*
X005519Y005887D02*
X005556Y005924D01*
X005593Y005924D01*
X005629Y005887D01*
X005629Y005814D01*
X005593Y005777D01*
X005556Y005777D01*
X005519Y005814D01*
X005519Y005887D01*
X005629Y005887D02*
X005666Y005924D01*
X005703Y005924D01*
X005740Y005887D01*
X005740Y005814D01*
X005703Y005777D01*
X005666Y005777D01*
X005629Y005814D01*
X005629Y005703D02*
X005666Y005666D01*
X005666Y005556D01*
X005740Y005556D02*
X005519Y005556D01*
X005519Y005666D01*
X005556Y005703D01*
X005629Y005703D01*
X005666Y005630D02*
X005740Y005703D01*
X005846Y005056D02*
X005846Y004763D01*
X005883Y004800D02*
X005919Y004836D01*
X005919Y004873D01*
X005883Y004910D01*
X005809Y004910D01*
X005772Y004946D01*
X005772Y004983D01*
X005809Y005020D01*
X005883Y005020D01*
X005919Y004983D01*
X005993Y004946D02*
X006067Y005020D01*
X006067Y004800D01*
X006140Y004800D02*
X005993Y004800D01*
X005883Y004800D02*
X005809Y004800D01*
X005772Y004836D01*
X005698Y004836D02*
X005698Y005020D01*
X005551Y005020D02*
X005551Y004836D01*
X005588Y004800D01*
X005662Y004800D01*
X005698Y004836D01*
X007527Y003956D02*
X007564Y003882D01*
X007637Y003809D01*
X007637Y003919D01*
X007674Y003956D01*
X007711Y003956D01*
X007747Y003919D01*
X007747Y003845D01*
X007711Y003809D01*
X007637Y003809D01*
X007637Y003735D02*
X007674Y003698D01*
X007674Y003588D01*
X007674Y003661D02*
X007747Y003735D01*
X007637Y003735D02*
X007564Y003735D01*
X007527Y003698D01*
X007527Y003588D01*
X007747Y003588D01*
X008555Y003664D02*
X011255Y003664D01*
X011255Y003364D02*
X008555Y003364D01*
X008555Y003664D02*
X008499Y003662D01*
X008444Y003656D01*
X008389Y003647D01*
X008335Y003633D01*
X008282Y003616D01*
X008231Y003595D01*
X008181Y003571D01*
X008133Y003543D01*
X008086Y003512D01*
X008042Y003478D01*
X008001Y003441D01*
X007962Y003401D01*
X007926Y003359D01*
X007894Y003314D01*
X008337Y002414D02*
X008371Y002399D01*
X008407Y002386D01*
X008443Y002377D01*
X008480Y002370D01*
X008517Y002365D01*
X008555Y002364D01*
X011255Y002364D01*
X011255Y002064D02*
X008555Y002064D01*
X008337Y003314D02*
X008371Y003329D01*
X008407Y003342D01*
X008443Y003351D01*
X008480Y003358D01*
X008517Y003363D01*
X008555Y003364D01*
X007894Y002414D02*
X007926Y002369D01*
X007962Y002327D01*
X008001Y002287D01*
X008043Y002250D01*
X008086Y002216D01*
X008133Y002185D01*
X008181Y002157D01*
X008231Y002133D01*
X008282Y002112D01*
X008335Y002095D01*
X008389Y002081D01*
X008444Y002072D01*
X008499Y002066D01*
X008555Y002064D01*
X009505Y002864D02*
X009655Y002864D01*
X010155Y002864D02*
X010305Y002864D01*
X011255Y002064D02*
X011311Y002066D01*
X011366Y002072D01*
X011421Y002081D01*
X011475Y002095D01*
X011528Y002112D01*
X011579Y002133D01*
X011629Y002157D01*
X011677Y002185D01*
X011724Y002216D01*
X011768Y002250D01*
X011809Y002287D01*
X011848Y002327D01*
X011884Y002369D01*
X011916Y002414D01*
X011473Y002414D02*
X011439Y002399D01*
X011403Y002386D01*
X011367Y002377D01*
X011330Y002370D01*
X011293Y002365D01*
X011255Y002364D01*
X011473Y003314D02*
X011439Y003329D01*
X011403Y003342D01*
X011367Y003351D01*
X011330Y003358D01*
X011293Y003363D01*
X011255Y003364D01*
X011255Y003664D02*
X011311Y003662D01*
X011366Y003656D01*
X011421Y003647D01*
X011475Y003633D01*
X011528Y003616D01*
X011579Y003595D01*
X011629Y003571D01*
X011677Y003543D01*
X011724Y003512D01*
X011767Y003478D01*
X011809Y003441D01*
X011848Y003401D01*
X011884Y003359D01*
X011916Y003314D01*
X013377Y003894D02*
X013413Y003857D01*
X013487Y003857D01*
X013524Y003894D01*
X013524Y004041D01*
X013487Y004077D01*
X013413Y004077D01*
X013377Y004041D01*
X013377Y003894D01*
X013450Y003930D02*
X013524Y003857D01*
X013598Y003857D02*
X013745Y003857D01*
X013671Y003857D02*
X013671Y004077D01*
X013598Y004004D01*
X013643Y006203D02*
X013753Y006203D01*
X013789Y006240D01*
X013789Y006277D01*
X013753Y006313D01*
X013643Y006313D01*
X013568Y006277D02*
X013568Y006240D01*
X013532Y006203D01*
X013458Y006203D01*
X013422Y006240D01*
X013347Y006240D02*
X013347Y006423D01*
X013422Y006387D02*
X013422Y006350D01*
X013458Y006313D01*
X013532Y006313D01*
X013568Y006277D01*
X013643Y006203D02*
X013643Y006423D01*
X013753Y006423D01*
X013789Y006387D01*
X013789Y006350D01*
X013753Y006313D01*
X013864Y006350D02*
X013937Y006423D01*
X013937Y006203D01*
X013864Y006203D02*
X014010Y006203D01*
X013568Y006387D02*
X013532Y006423D01*
X013458Y006423D01*
X013422Y006387D01*
X013347Y006240D02*
X013311Y006203D01*
X013237Y006203D01*
X013201Y006240D01*
X013201Y006423D01*
X011497Y006414D02*
X011497Y006561D01*
X011497Y006487D02*
X011277Y006487D01*
X011350Y006414D01*
X011313Y006340D02*
X011277Y006303D01*
X011277Y006229D01*
X011313Y006193D01*
X011460Y006193D01*
X011497Y006229D01*
X011497Y006303D01*
X011460Y006340D01*
X011460Y006635D02*
X011497Y006671D01*
X011497Y006745D01*
X011460Y006781D01*
X011423Y006781D01*
X011387Y006745D01*
X011387Y006635D01*
X011460Y006635D01*
X011387Y006635D02*
X011313Y006708D01*
X011277Y006781D01*
X010053Y004585D02*
X009906Y004585D01*
X009906Y004474D01*
X009979Y004511D01*
X010016Y004511D01*
X010053Y004474D01*
X010053Y004401D01*
X010016Y004364D01*
X009943Y004364D01*
X009906Y004401D01*
X009832Y004364D02*
X009758Y004438D01*
X009795Y004438D02*
X009685Y004438D01*
X009685Y004364D02*
X009685Y004585D01*
X009795Y004585D01*
X009832Y004548D01*
X009832Y004474D01*
X009795Y004438D01*
X007398Y008110D02*
X007435Y008147D01*
X007435Y008221D01*
X007398Y008257D01*
X007435Y008331D02*
X007288Y008478D01*
X007251Y008478D01*
X007214Y008442D01*
X007214Y008368D01*
X007251Y008331D01*
X007251Y008257D02*
X007214Y008221D01*
X007214Y008147D01*
X007251Y008110D01*
X007398Y008110D01*
X007435Y008331D02*
X007435Y008478D01*
X007324Y008552D02*
X007214Y008663D01*
X007435Y008663D01*
X007324Y008699D02*
X007324Y008552D01*
X007099Y008352D02*
X007025Y008316D01*
X006952Y008242D01*
X007062Y008242D01*
X007099Y008206D01*
X007099Y008169D01*
X007062Y008132D01*
X006989Y008132D01*
X006952Y008169D01*
X006952Y008242D01*
X006878Y008279D02*
X006878Y008316D01*
X006841Y008352D01*
X006768Y008352D01*
X006731Y008316D01*
X006657Y008316D02*
X006620Y008352D01*
X006547Y008352D01*
X006510Y008316D01*
X006510Y008169D01*
X006547Y008132D01*
X006620Y008132D01*
X006657Y008169D01*
X006731Y008132D02*
X006878Y008279D01*
X006878Y008132D02*
X006731Y008132D01*
X005890Y008695D02*
X005890Y008732D01*
X006037Y008879D01*
X006037Y008915D01*
X005890Y008915D01*
X005816Y008879D02*
X005816Y008805D01*
X005779Y008769D01*
X005669Y008769D01*
X005743Y008769D02*
X005816Y008695D01*
X005669Y008695D02*
X005669Y008915D01*
X005779Y008915D01*
X005816Y008879D01*
X005756Y009194D02*
X005756Y009304D01*
X005792Y009340D01*
X005866Y009340D01*
X005902Y009304D01*
X005902Y009194D01*
X005902Y009267D02*
X005976Y009340D01*
X005976Y009415D02*
X005976Y009561D01*
X005976Y009488D02*
X005756Y009488D01*
X005829Y009415D01*
X005829Y009636D02*
X005792Y009636D01*
X005756Y009672D01*
X005756Y009746D01*
X005792Y009782D01*
X005829Y009782D01*
X005866Y009746D01*
X005866Y009672D01*
X005829Y009636D01*
X005866Y009672D02*
X005902Y009636D01*
X005939Y009636D01*
X005976Y009672D01*
X005976Y009746D01*
X005939Y009782D01*
X005902Y009782D01*
X005866Y009746D01*
X005552Y009820D02*
X005552Y009894D01*
X005552Y009857D02*
X005332Y009857D01*
X005332Y009820D02*
X005332Y009894D01*
X005369Y009968D02*
X005516Y009968D01*
X005552Y010004D01*
X005552Y010078D01*
X005516Y010114D01*
X005552Y010189D02*
X005552Y010335D01*
X005552Y010262D02*
X005332Y010262D01*
X005406Y010189D01*
X005369Y010114D02*
X005332Y010078D01*
X005332Y010004D01*
X005369Y009968D01*
X005756Y009194D02*
X005976Y009194D01*
X006693Y009876D02*
X006730Y009839D01*
X006803Y009839D01*
X006840Y009876D01*
X006914Y009839D02*
X007061Y009986D01*
X007061Y010022D01*
X007024Y010059D01*
X006951Y010059D01*
X006914Y010022D01*
X006840Y010022D02*
X006803Y010059D01*
X006730Y010059D01*
X006693Y010022D01*
X006693Y009876D01*
X006914Y009839D02*
X007061Y009839D01*
X007135Y009876D02*
X007172Y009839D01*
X007245Y009839D01*
X007282Y009876D01*
X007282Y009949D01*
X007245Y009986D01*
X007209Y009986D01*
X007135Y009949D01*
X007135Y010059D01*
X007282Y010059D01*
X007236Y010027D02*
X007236Y010100D01*
X007199Y010137D01*
X007015Y010137D01*
X007052Y010211D02*
X007089Y010211D01*
X007126Y010248D01*
X007126Y010321D01*
X007162Y010358D01*
X007199Y010358D01*
X007236Y010321D01*
X007236Y010248D01*
X007199Y010211D01*
X007052Y010211D02*
X007015Y010248D01*
X007015Y010321D01*
X007052Y010358D01*
X007015Y010432D02*
X007015Y010542D01*
X007052Y010579D01*
X007089Y010579D01*
X007126Y010542D01*
X007126Y010432D01*
X007236Y010432D02*
X007015Y010432D01*
X007126Y010542D02*
X007162Y010579D01*
X007199Y010579D01*
X007236Y010542D01*
X007236Y010432D01*
X007199Y010653D02*
X007236Y010690D01*
X007236Y010763D01*
X007199Y010800D01*
X007162Y010800D01*
X007126Y010763D01*
X007126Y010727D01*
X007126Y010763D02*
X007089Y010800D01*
X007052Y010800D01*
X007015Y010763D01*
X007015Y010690D01*
X007052Y010653D01*
X007375Y010164D02*
X007412Y010164D01*
X007448Y010128D01*
X007448Y010054D01*
X007412Y010017D01*
X007375Y010017D01*
X007338Y010054D01*
X007338Y010128D01*
X007375Y010164D01*
X007448Y010128D02*
X007485Y010164D01*
X007522Y010164D01*
X007558Y010128D01*
X007558Y010054D01*
X007522Y010017D01*
X007485Y010017D01*
X007448Y010054D01*
X007558Y009943D02*
X007558Y009796D01*
X007558Y009870D02*
X007338Y009870D01*
X007412Y009796D01*
X007338Y009722D02*
X007522Y009722D01*
X007558Y009686D01*
X007558Y009612D01*
X007522Y009575D01*
X007338Y009575D01*
X007199Y009990D02*
X007236Y010027D01*
X007199Y009990D02*
X007015Y009990D01*
X015100Y006658D02*
X015100Y006512D01*
X015210Y006512D01*
X015173Y006585D01*
X015173Y006622D01*
X015210Y006658D01*
X015284Y006658D01*
X015320Y006622D01*
X015320Y006548D01*
X015284Y006512D01*
X015320Y006437D02*
X015320Y006291D01*
X015100Y006291D01*
X020804Y004844D02*
X020804Y004698D01*
X020841Y004661D01*
X020914Y004661D01*
X020951Y004698D01*
X021025Y004661D02*
X021172Y004808D01*
X021172Y004844D01*
X021135Y004881D01*
X021061Y004881D01*
X021025Y004844D01*
X020951Y004844D02*
X020914Y004881D01*
X020841Y004881D01*
X020804Y004844D01*
X021025Y004661D02*
X021172Y004661D01*
X021246Y004698D02*
X021393Y004844D01*
X021393Y004698D01*
X021356Y004661D01*
X021282Y004661D01*
X021246Y004698D01*
X021246Y004844D01*
X021282Y004881D01*
X021356Y004881D01*
X021393Y004844D01*
X024201Y006240D02*
X024237Y006203D01*
X024311Y006203D01*
X024347Y006240D01*
X024347Y006423D01*
X024422Y006387D02*
X024422Y006350D01*
X024458Y006313D01*
X024532Y006313D01*
X024568Y006277D01*
X024568Y006240D01*
X024532Y006203D01*
X024458Y006203D01*
X024422Y006240D01*
X024422Y006387D02*
X024458Y006423D01*
X024532Y006423D01*
X024568Y006387D01*
X024643Y006423D02*
X024753Y006423D01*
X024789Y006387D01*
X024789Y006350D01*
X024753Y006313D01*
X024643Y006313D01*
X024753Y006313D02*
X024789Y006277D01*
X024789Y006240D01*
X024753Y006203D01*
X024643Y006203D01*
X024643Y006423D01*
X024864Y006387D02*
X024900Y006423D01*
X024974Y006423D01*
X025010Y006387D01*
X025010Y006350D01*
X024864Y006203D01*
X025010Y006203D01*
X024201Y006240D02*
X024201Y006423D01*
X026163Y006334D02*
X026383Y006334D01*
X026383Y006481D01*
X026347Y006555D02*
X026383Y006592D01*
X026383Y006665D01*
X026347Y006702D01*
X026310Y006702D01*
X026273Y006665D01*
X026273Y006555D01*
X026347Y006555D01*
X026273Y006555D02*
X026200Y006628D01*
X026163Y006702D01*
X034086Y007491D02*
X034086Y007601D01*
X034122Y007637D01*
X034269Y007637D01*
X034306Y007601D01*
X034306Y007491D01*
X034086Y007491D01*
X034159Y007712D02*
X034086Y007785D01*
X034306Y007785D01*
X034306Y007712D02*
X034306Y007858D01*
X036753Y004807D02*
X036974Y004807D01*
X036974Y004734D02*
X036974Y004880D01*
X036827Y004734D02*
X036753Y004807D01*
X036753Y004659D02*
X036900Y004659D01*
X036974Y004586D01*
X036900Y004513D01*
X036753Y004513D01*
X036790Y004438D02*
X036753Y004402D01*
X036753Y004328D01*
X036790Y004292D01*
X036827Y004292D01*
X036863Y004328D01*
X036863Y004402D01*
X036900Y004438D01*
X036937Y004438D01*
X036974Y004402D01*
X036974Y004328D01*
X036937Y004292D01*
X009738Y022347D02*
X009701Y022311D01*
X009517Y022311D01*
X009517Y022457D02*
X009701Y022457D01*
X009738Y022421D01*
X009738Y022347D01*
X009701Y022531D02*
X009738Y022568D01*
X009738Y022642D01*
X009701Y022678D01*
X009664Y022678D01*
X009627Y022642D01*
X009627Y022568D01*
X009591Y022531D01*
X009554Y022531D01*
X009517Y022568D01*
X009517Y022642D01*
X009554Y022678D01*
X009517Y022752D02*
X009517Y022899D01*
X009554Y022899D01*
X009701Y022752D01*
X009738Y022752D01*
X009774Y022605D02*
X009481Y022605D01*
X007477Y020384D02*
X007477Y020237D01*
X007330Y020384D01*
X007293Y020384D01*
X007257Y020347D01*
X007257Y020273D01*
X007293Y020237D01*
X007293Y020163D02*
X007257Y020126D01*
X007257Y020052D01*
X007293Y020016D01*
X007330Y020016D01*
X007367Y020052D01*
X007367Y020126D01*
X007404Y020163D01*
X007440Y020163D01*
X007477Y020126D01*
X007477Y020052D01*
X007440Y020016D01*
X007440Y019942D02*
X007257Y019942D01*
X007257Y019795D02*
X007440Y019795D01*
X007477Y019831D01*
X007477Y019905D01*
X007440Y019942D01*
X007514Y020089D02*
X007220Y020089D01*
X007745Y018486D02*
X007745Y018339D01*
X007745Y018265D02*
X007745Y018118D01*
X007598Y018265D01*
X007561Y018265D01*
X007525Y018229D01*
X007525Y018155D01*
X007561Y018118D01*
X007561Y018044D02*
X007525Y018008D01*
X007525Y017934D01*
X007561Y017897D01*
X007708Y017897D01*
X007745Y017934D01*
X007745Y018008D01*
X007708Y018044D01*
X007598Y018339D02*
X007525Y018413D01*
X007745Y018413D01*
X006527Y021875D02*
X006380Y021875D01*
X006527Y022022D01*
X006527Y022059D01*
X006490Y022095D01*
X006417Y022095D01*
X006380Y022059D01*
X006306Y022059D02*
X006269Y022095D01*
X006196Y022095D01*
X006159Y022059D01*
X006159Y021912D01*
X006196Y021875D01*
X006269Y021875D01*
X006306Y021912D01*
X004779Y022059D02*
X004632Y021912D01*
X004632Y021875D01*
X004558Y021875D02*
X004411Y021875D01*
X004558Y022022D01*
X004558Y022059D01*
X004521Y022095D01*
X004448Y022095D01*
X004411Y022059D01*
X004337Y022059D02*
X004300Y022095D01*
X004227Y022095D01*
X004190Y022059D01*
X004190Y021912D01*
X004227Y021875D01*
X004300Y021875D01*
X004337Y021912D01*
X004632Y022095D02*
X004779Y022095D01*
X004779Y022059D01*
X002184Y021853D02*
X002184Y021706D01*
X002038Y021853D01*
X002001Y021853D01*
X001964Y021816D01*
X001964Y021743D01*
X002001Y021706D01*
X001964Y021559D02*
X002184Y021559D01*
X002184Y021632D02*
X002184Y021485D01*
X002184Y021411D02*
X002111Y021338D01*
X002111Y021375D02*
X002111Y021264D01*
X002184Y021264D02*
X001964Y021264D01*
X001964Y021375D01*
X002001Y021411D01*
X002074Y021411D01*
X002111Y021375D01*
X002038Y021485D02*
X001964Y021559D01*
D12*
X002930Y022115D02*
X003130Y022115D01*
X003030Y022015D02*
X003030Y022215D01*
X002530Y021565D02*
X002532Y021621D01*
X002538Y021678D01*
X002548Y021733D01*
X002562Y021788D01*
X002579Y021842D01*
X002601Y021894D01*
X002626Y021944D01*
X002654Y021993D01*
X002686Y022040D01*
X002721Y022084D01*
X002759Y022126D01*
X002800Y022165D01*
X002844Y022200D01*
X002890Y022233D01*
X002938Y022262D01*
X002988Y022288D01*
X003040Y022311D01*
X003094Y022329D01*
X003148Y022344D01*
X003203Y022355D01*
X003259Y022362D01*
X003316Y022365D01*
X003372Y022364D01*
X003429Y022359D01*
X003484Y022350D01*
X003539Y022337D01*
X003593Y022320D01*
X003646Y022300D01*
X003697Y022276D01*
X003746Y022248D01*
X003793Y022217D01*
X003838Y022183D01*
X003881Y022145D01*
X003920Y022105D01*
X003957Y022062D01*
X003990Y022017D01*
X004020Y021969D01*
X004047Y021919D01*
X004070Y021868D01*
X004090Y021815D01*
X004106Y021761D01*
X004118Y021705D01*
X004126Y021650D01*
X004130Y021593D01*
X004130Y021537D01*
X004126Y021480D01*
X004118Y021425D01*
X004106Y021369D01*
X004090Y021315D01*
X004070Y021262D01*
X004047Y021211D01*
X004020Y021161D01*
X003990Y021113D01*
X003957Y021068D01*
X003920Y021025D01*
X003881Y020985D01*
X003838Y020947D01*
X003793Y020913D01*
X003746Y020882D01*
X003697Y020854D01*
X003646Y020830D01*
X003593Y020810D01*
X003539Y020793D01*
X003484Y020780D01*
X003429Y020771D01*
X003372Y020766D01*
X003316Y020765D01*
X003259Y020768D01*
X003203Y020775D01*
X003148Y020786D01*
X003094Y020801D01*
X003040Y020819D01*
X002988Y020842D01*
X002938Y020868D01*
X002890Y020897D01*
X002844Y020930D01*
X002800Y020965D01*
X002759Y021004D01*
X002721Y021046D01*
X002686Y021090D01*
X002654Y021137D01*
X002626Y021186D01*
X002601Y021236D01*
X002579Y021288D01*
X002562Y021342D01*
X002548Y021397D01*
X002538Y021452D01*
X002532Y021509D01*
X002530Y021565D01*
X004899Y022115D02*
X005099Y022115D01*
X004999Y022015D02*
X004999Y022215D01*
X004499Y021565D02*
X004501Y021621D01*
X004507Y021678D01*
X004517Y021733D01*
X004531Y021788D01*
X004548Y021842D01*
X004570Y021894D01*
X004595Y021944D01*
X004623Y021993D01*
X004655Y022040D01*
X004690Y022084D01*
X004728Y022126D01*
X004769Y022165D01*
X004813Y022200D01*
X004859Y022233D01*
X004907Y022262D01*
X004957Y022288D01*
X005009Y022311D01*
X005063Y022329D01*
X005117Y022344D01*
X005172Y022355D01*
X005228Y022362D01*
X005285Y022365D01*
X005341Y022364D01*
X005398Y022359D01*
X005453Y022350D01*
X005508Y022337D01*
X005562Y022320D01*
X005615Y022300D01*
X005666Y022276D01*
X005715Y022248D01*
X005762Y022217D01*
X005807Y022183D01*
X005850Y022145D01*
X005889Y022105D01*
X005926Y022062D01*
X005959Y022017D01*
X005989Y021969D01*
X006016Y021919D01*
X006039Y021868D01*
X006059Y021815D01*
X006075Y021761D01*
X006087Y021705D01*
X006095Y021650D01*
X006099Y021593D01*
X006099Y021537D01*
X006095Y021480D01*
X006087Y021425D01*
X006075Y021369D01*
X006059Y021315D01*
X006039Y021262D01*
X006016Y021211D01*
X005989Y021161D01*
X005959Y021113D01*
X005926Y021068D01*
X005889Y021025D01*
X005850Y020985D01*
X005807Y020947D01*
X005762Y020913D01*
X005715Y020882D01*
X005666Y020854D01*
X005615Y020830D01*
X005562Y020810D01*
X005508Y020793D01*
X005453Y020780D01*
X005398Y020771D01*
X005341Y020766D01*
X005285Y020765D01*
X005228Y020768D01*
X005172Y020775D01*
X005117Y020786D01*
X005063Y020801D01*
X005009Y020819D01*
X004957Y020842D01*
X004907Y020868D01*
X004859Y020897D01*
X004813Y020930D01*
X004769Y020965D01*
X004728Y021004D01*
X004690Y021046D01*
X004655Y021090D01*
X004623Y021137D01*
X004595Y021186D01*
X004570Y021236D01*
X004548Y021288D01*
X004531Y021342D01*
X004517Y021397D01*
X004507Y021452D01*
X004501Y021509D01*
X004499Y021565D01*
X007255Y017037D02*
X007257Y017093D01*
X007263Y017150D01*
X007273Y017205D01*
X007287Y017260D01*
X007304Y017314D01*
X007326Y017366D01*
X007351Y017416D01*
X007379Y017465D01*
X007411Y017512D01*
X007446Y017556D01*
X007484Y017598D01*
X007525Y017637D01*
X007569Y017672D01*
X007615Y017705D01*
X007663Y017734D01*
X007713Y017760D01*
X007765Y017783D01*
X007819Y017801D01*
X007873Y017816D01*
X007928Y017827D01*
X007984Y017834D01*
X008041Y017837D01*
X008097Y017836D01*
X008154Y017831D01*
X008209Y017822D01*
X008264Y017809D01*
X008318Y017792D01*
X008371Y017772D01*
X008422Y017748D01*
X008471Y017720D01*
X008518Y017689D01*
X008563Y017655D01*
X008606Y017617D01*
X008645Y017577D01*
X008682Y017534D01*
X008715Y017489D01*
X008745Y017441D01*
X008772Y017391D01*
X008795Y017340D01*
X008815Y017287D01*
X008831Y017233D01*
X008843Y017177D01*
X008851Y017122D01*
X008855Y017065D01*
X008855Y017009D01*
X008851Y016952D01*
X008843Y016897D01*
X008831Y016841D01*
X008815Y016787D01*
X008795Y016734D01*
X008772Y016683D01*
X008745Y016633D01*
X008715Y016585D01*
X008682Y016540D01*
X008645Y016497D01*
X008606Y016457D01*
X008563Y016419D01*
X008518Y016385D01*
X008471Y016354D01*
X008422Y016326D01*
X008371Y016302D01*
X008318Y016282D01*
X008264Y016265D01*
X008209Y016252D01*
X008154Y016243D01*
X008097Y016238D01*
X008041Y016237D01*
X007984Y016240D01*
X007928Y016247D01*
X007873Y016258D01*
X007819Y016273D01*
X007765Y016291D01*
X007713Y016314D01*
X007663Y016340D01*
X007615Y016369D01*
X007569Y016402D01*
X007525Y016437D01*
X007484Y016476D01*
X007446Y016518D01*
X007411Y016562D01*
X007379Y016609D01*
X007351Y016658D01*
X007326Y016708D01*
X007304Y016760D01*
X007287Y016814D01*
X007273Y016869D01*
X007263Y016924D01*
X007257Y016981D01*
X007255Y017037D01*
X007505Y016837D02*
X007505Y016637D01*
X007605Y016737D02*
X007405Y016737D01*
X005212Y010500D02*
X001212Y010500D01*
X001212Y008300D01*
X005212Y008300D01*
X005212Y009150D01*
X005182Y009152D01*
X005152Y009157D01*
X005123Y009166D01*
X005096Y009179D01*
X005070Y009194D01*
X005046Y009213D01*
X005025Y009234D01*
X005006Y009258D01*
X004991Y009284D01*
X004978Y009311D01*
X004969Y009340D01*
X004964Y009370D01*
X004962Y009400D01*
X004964Y009430D01*
X004969Y009460D01*
X004978Y009489D01*
X004991Y009516D01*
X005006Y009542D01*
X005025Y009566D01*
X005046Y009587D01*
X005070Y009606D01*
X005096Y009621D01*
X005123Y009634D01*
X005152Y009643D01*
X005182Y009648D01*
X005212Y009650D01*
X005212Y010500D01*
X006259Y010038D02*
X006259Y010001D01*
X006259Y010038D02*
X006897Y010038D01*
X006897Y010001D01*
X006897Y009684D02*
X006897Y009273D01*
X006897Y008956D02*
X006897Y008918D01*
X006259Y008918D01*
X006259Y008956D01*
X006259Y009273D02*
X006259Y009310D01*
X006259Y009647D02*
X006259Y009684D01*
X011257Y005133D02*
X011257Y004933D01*
X011357Y005033D02*
X011157Y005033D01*
X011007Y005333D02*
X011009Y005389D01*
X011015Y005446D01*
X011025Y005501D01*
X011039Y005556D01*
X011056Y005610D01*
X011078Y005662D01*
X011103Y005712D01*
X011131Y005761D01*
X011163Y005808D01*
X011198Y005852D01*
X011236Y005894D01*
X011277Y005933D01*
X011321Y005968D01*
X011367Y006001D01*
X011415Y006030D01*
X011465Y006056D01*
X011517Y006079D01*
X011571Y006097D01*
X011625Y006112D01*
X011680Y006123D01*
X011736Y006130D01*
X011793Y006133D01*
X011849Y006132D01*
X011906Y006127D01*
X011961Y006118D01*
X012016Y006105D01*
X012070Y006088D01*
X012123Y006068D01*
X012174Y006044D01*
X012223Y006016D01*
X012270Y005985D01*
X012315Y005951D01*
X012358Y005913D01*
X012397Y005873D01*
X012434Y005830D01*
X012467Y005785D01*
X012497Y005737D01*
X012524Y005687D01*
X012547Y005636D01*
X012567Y005583D01*
X012583Y005529D01*
X012595Y005473D01*
X012603Y005418D01*
X012607Y005361D01*
X012607Y005305D01*
X012603Y005248D01*
X012595Y005193D01*
X012583Y005137D01*
X012567Y005083D01*
X012547Y005030D01*
X012524Y004979D01*
X012497Y004929D01*
X012467Y004881D01*
X012434Y004836D01*
X012397Y004793D01*
X012358Y004753D01*
X012315Y004715D01*
X012270Y004681D01*
X012223Y004650D01*
X012174Y004622D01*
X012123Y004598D01*
X012070Y004578D01*
X012016Y004561D01*
X011961Y004548D01*
X011906Y004539D01*
X011849Y004534D01*
X011793Y004533D01*
X011736Y004536D01*
X011680Y004543D01*
X011625Y004554D01*
X011571Y004569D01*
X011517Y004587D01*
X011465Y004610D01*
X011415Y004636D01*
X011367Y004665D01*
X011321Y004698D01*
X011277Y004733D01*
X011236Y004772D01*
X011198Y004814D01*
X011163Y004858D01*
X011131Y004905D01*
X011103Y004954D01*
X011078Y005004D01*
X011056Y005056D01*
X011039Y005110D01*
X011025Y005165D01*
X011015Y005220D01*
X011009Y005277D01*
X011007Y005333D01*
X012055Y003814D02*
X007755Y003814D01*
X007738Y003812D01*
X007721Y003808D01*
X007705Y003801D01*
X007691Y003791D01*
X007678Y003778D01*
X007668Y003764D01*
X007661Y003748D01*
X007657Y003731D01*
X007655Y003714D01*
X007655Y003314D01*
X007655Y002414D02*
X007655Y002014D01*
X007657Y001997D01*
X007661Y001980D01*
X007668Y001964D01*
X007678Y001950D01*
X007691Y001937D01*
X007705Y001927D01*
X007721Y001920D01*
X007738Y001916D01*
X007755Y001914D01*
X012055Y001914D01*
X012072Y001916D01*
X012089Y001920D01*
X012105Y001927D01*
X012119Y001937D01*
X012132Y001950D01*
X012142Y001964D01*
X012149Y001980D01*
X012153Y001997D01*
X012155Y002014D01*
X012155Y002414D01*
X012155Y003314D02*
X012155Y003714D01*
X012153Y003731D01*
X012149Y003748D01*
X012142Y003764D01*
X012132Y003778D01*
X012119Y003791D01*
X012105Y003801D01*
X012089Y003808D01*
X012072Y003812D01*
X012055Y003814D01*
X010155Y003114D02*
X010155Y002864D01*
X010155Y002614D01*
X010005Y002614D02*
X009805Y002614D01*
X009805Y003114D01*
X010005Y003114D01*
X010005Y002614D01*
X009655Y002614D02*
X009655Y002864D01*
X009655Y003114D01*
X021507Y005191D02*
X021509Y005247D01*
X021515Y005304D01*
X021525Y005359D01*
X021539Y005414D01*
X021556Y005468D01*
X021578Y005520D01*
X021603Y005570D01*
X021631Y005619D01*
X021663Y005666D01*
X021698Y005710D01*
X021736Y005752D01*
X021777Y005791D01*
X021821Y005826D01*
X021867Y005859D01*
X021915Y005888D01*
X021965Y005914D01*
X022017Y005937D01*
X022071Y005955D01*
X022125Y005970D01*
X022180Y005981D01*
X022236Y005988D01*
X022293Y005991D01*
X022349Y005990D01*
X022406Y005985D01*
X022461Y005976D01*
X022516Y005963D01*
X022570Y005946D01*
X022623Y005926D01*
X022674Y005902D01*
X022723Y005874D01*
X022770Y005843D01*
X022815Y005809D01*
X022858Y005771D01*
X022897Y005731D01*
X022934Y005688D01*
X022967Y005643D01*
X022997Y005595D01*
X023024Y005545D01*
X023047Y005494D01*
X023067Y005441D01*
X023083Y005387D01*
X023095Y005331D01*
X023103Y005276D01*
X023107Y005219D01*
X023107Y005163D01*
X023103Y005106D01*
X023095Y005051D01*
X023083Y004995D01*
X023067Y004941D01*
X023047Y004888D01*
X023024Y004837D01*
X022997Y004787D01*
X022967Y004739D01*
X022934Y004694D01*
X022897Y004651D01*
X022858Y004611D01*
X022815Y004573D01*
X022770Y004539D01*
X022723Y004508D01*
X022674Y004480D01*
X022623Y004456D01*
X022570Y004436D01*
X022516Y004419D01*
X022461Y004406D01*
X022406Y004397D01*
X022349Y004392D01*
X022293Y004391D01*
X022236Y004394D01*
X022180Y004401D01*
X022125Y004412D01*
X022071Y004427D01*
X022017Y004445D01*
X021965Y004468D01*
X021915Y004494D01*
X021867Y004523D01*
X021821Y004556D01*
X021777Y004591D01*
X021736Y004630D01*
X021698Y004672D01*
X021663Y004716D01*
X021631Y004763D01*
X021603Y004812D01*
X021578Y004862D01*
X021556Y004914D01*
X021539Y004968D01*
X021525Y005023D01*
X021515Y005078D01*
X021509Y005135D01*
X021507Y005191D01*
X022507Y004641D02*
X022707Y004641D01*
X022607Y004741D02*
X022607Y004541D01*
X037134Y004532D02*
X037384Y004282D01*
X038884Y004282D01*
X039134Y004532D01*
X039134Y005032D01*
X038884Y005282D01*
X039134Y005532D01*
X039134Y006032D01*
X038884Y006282D01*
X039134Y006532D01*
X039134Y007032D01*
X038884Y007282D01*
X039134Y007532D01*
X039134Y008032D01*
X038884Y008282D01*
X039134Y008532D01*
X039134Y009032D01*
X038884Y009282D01*
X039134Y009532D01*
X039134Y010032D01*
X038884Y010282D01*
X039134Y010532D01*
X039134Y011032D01*
X038884Y011282D01*
X039134Y011532D01*
X039134Y012032D01*
X038884Y012282D01*
X039134Y012532D01*
X039134Y013032D01*
X038884Y013282D01*
X039134Y013532D01*
X039134Y014032D01*
X038884Y014282D01*
X039134Y014532D01*
X039134Y015032D01*
X038884Y015282D01*
X039134Y015532D01*
X039134Y016032D01*
X038884Y016282D01*
X039134Y016532D01*
X039134Y017032D01*
X038884Y017282D01*
X039134Y017532D01*
X039134Y018032D01*
X038884Y018282D01*
X039134Y018532D01*
X039134Y019032D01*
X038884Y019282D01*
X039134Y019532D01*
X039134Y020032D01*
X038884Y020282D01*
X039134Y020532D01*
X039134Y021032D01*
X038884Y021282D01*
X039134Y021532D01*
X039134Y022032D01*
X038884Y022282D01*
X039134Y022532D01*
X039134Y023032D01*
X038884Y023282D01*
X039134Y023532D01*
X039134Y024032D01*
X038884Y024282D01*
X037384Y024282D01*
X037134Y024032D01*
X037134Y023532D01*
X037384Y023282D01*
X037134Y023032D01*
X037134Y022532D01*
X037384Y022282D01*
X037134Y022032D01*
X037134Y021532D01*
X037384Y021282D01*
X037134Y021032D01*
X037134Y020532D01*
X037384Y020282D01*
X037134Y020032D01*
X037134Y019532D01*
X037384Y019282D01*
X037134Y019032D01*
X037134Y018532D01*
X037384Y018282D01*
X037134Y018032D01*
X037134Y017532D01*
X037384Y017282D01*
X037134Y017032D01*
X037134Y016532D01*
X037384Y016282D01*
X037134Y016032D01*
X037134Y015532D01*
X037384Y015282D01*
X037134Y015032D01*
X037134Y014532D01*
X037384Y014282D01*
X037134Y014032D01*
X037134Y013532D01*
X037384Y013282D01*
X037134Y013032D01*
X037134Y012532D01*
X037384Y012282D01*
X037134Y012032D01*
X037134Y011532D01*
X037384Y011282D01*
X037134Y011032D01*
X037134Y010532D01*
X037384Y010282D01*
X037134Y010032D01*
X037134Y009532D01*
X037384Y009282D01*
X037134Y009032D01*
X037134Y008532D01*
X037384Y008282D01*
X037134Y008032D01*
X037134Y007532D01*
X037384Y007282D01*
X037134Y007032D01*
X037134Y006532D01*
X037384Y006282D01*
X037134Y006032D01*
X037134Y005532D01*
X037384Y005282D01*
X037134Y005032D01*
X037134Y004532D01*
D13*
X025473Y019586D02*
X025506Y019620D01*
X025506Y019686D01*
X025473Y019720D01*
X025473Y019807D02*
X025506Y019841D01*
X025506Y019907D01*
X025473Y019941D01*
X025440Y019941D01*
X025406Y019907D01*
X025406Y019874D01*
X025406Y019907D02*
X025373Y019941D01*
X025340Y019941D01*
X025306Y019907D01*
X025306Y019841D01*
X025340Y019807D01*
X025340Y019720D02*
X025306Y019686D01*
X025306Y019620D01*
X025340Y019586D01*
X025473Y019586D01*
X019986Y020807D02*
X019853Y020807D01*
X019953Y020907D01*
X019953Y020706D01*
X019765Y020740D02*
X019732Y020706D01*
X019665Y020706D01*
X019632Y020740D01*
X019632Y020873D01*
X019665Y020907D01*
X019732Y020907D01*
X019765Y020873D01*
X017728Y024822D02*
X017421Y024822D01*
X017344Y024899D01*
X017344Y025052D01*
X017421Y025129D01*
X017344Y025282D02*
X017344Y025589D01*
X017344Y025436D02*
X017804Y025436D01*
X017728Y025129D02*
X017804Y025052D01*
X017804Y024899D01*
X017728Y024822D01*
X016804Y025436D02*
X016344Y025436D01*
X016344Y025589D02*
X016344Y025282D01*
X016344Y025743D02*
X016804Y026050D01*
X016804Y025743D02*
X016344Y026050D01*
X017344Y025973D02*
X017344Y025819D01*
X017421Y025743D01*
X017498Y025743D01*
X017574Y025819D01*
X017574Y025973D01*
X017651Y026050D01*
X017728Y026050D01*
X017804Y025973D01*
X017804Y025819D01*
X017728Y025743D01*
X017421Y026050D02*
X017344Y025973D01*
X012804Y026050D02*
X012344Y025743D01*
X012421Y025589D02*
X012574Y025589D01*
X012651Y025513D01*
X012651Y025282D01*
X012804Y025282D02*
X012344Y025282D01*
X012344Y025513D01*
X012421Y025589D01*
X012651Y025436D02*
X012804Y025589D01*
X012804Y025743D02*
X012344Y026050D01*
X011804Y025973D02*
X011804Y025819D01*
X011728Y025743D01*
X011804Y025819D01*
X011804Y025973D01*
X011728Y026050D01*
X011651Y026050D01*
X011574Y025973D01*
X011574Y025819D01*
X011498Y025743D01*
X011421Y025743D01*
X011344Y025819D01*
X011344Y025973D01*
X011421Y026050D01*
X011344Y025973D01*
X011344Y025819D01*
X011421Y025743D01*
X011498Y025743D01*
X011574Y025819D01*
X011574Y025973D01*
X011651Y026050D01*
X011728Y026050D01*
X011804Y025973D01*
X011344Y025589D02*
X011344Y025282D01*
X011344Y025589D01*
X011344Y025436D02*
X011804Y025436D01*
X011344Y025436D01*
X011421Y025129D02*
X011574Y025129D01*
X011651Y025052D01*
X011651Y024822D01*
X011651Y025052D01*
X011574Y025129D01*
X011421Y025129D01*
X011344Y025052D01*
X011344Y024822D01*
X011804Y024822D01*
X011344Y024822D01*
X011344Y025052D01*
X011421Y025129D01*
X011651Y024975D02*
X011804Y025129D01*
X011651Y024975D01*
X025344Y024822D02*
X025344Y025052D01*
X025421Y025129D01*
X025574Y025129D01*
X025651Y025052D01*
X025651Y024822D01*
X025651Y025052D01*
X025574Y025129D01*
X025421Y025129D01*
X025344Y025052D01*
X025344Y024822D01*
X025804Y024822D01*
X025344Y024822D01*
X025651Y024975D02*
X025804Y025129D01*
X025651Y024975D01*
X025344Y025282D02*
X025344Y025589D01*
X025344Y025282D01*
X025344Y025436D02*
X025804Y025436D01*
X025344Y025436D01*
X025421Y025743D02*
X025498Y025743D01*
X025574Y025819D01*
X025574Y025973D01*
X025651Y026050D01*
X025728Y026050D01*
X025804Y025973D01*
X025804Y025819D01*
X025728Y025743D01*
X025804Y025819D01*
X025804Y025973D01*
X025728Y026050D01*
X025651Y026050D01*
X025574Y025973D01*
X025574Y025819D01*
X025498Y025743D01*
X025421Y025743D01*
X025344Y025819D01*
X025344Y025973D01*
X025421Y026050D01*
X025344Y025973D01*
X025344Y025819D01*
X025421Y025743D01*
X026344Y025743D02*
X026804Y026050D01*
X026804Y025743D02*
X026344Y026050D01*
X026421Y025589D02*
X026574Y025589D01*
X026651Y025513D01*
X026651Y025282D01*
X026804Y025282D02*
X026344Y025282D01*
X026344Y025513D01*
X026421Y025589D01*
X026651Y025436D02*
X026804Y025589D01*
X030344Y025589D02*
X030344Y025282D01*
X030344Y025436D02*
X030804Y025436D01*
X030804Y025743D02*
X030344Y026050D01*
X030344Y025743D02*
X030804Y026050D01*
X031344Y025973D02*
X031344Y025819D01*
X031421Y025743D01*
X031498Y025743D01*
X031574Y025819D01*
X031574Y025973D01*
X031651Y026050D01*
X031728Y026050D01*
X031804Y025973D01*
X031804Y025819D01*
X031728Y025743D01*
X031344Y025589D02*
X031344Y025282D01*
X031344Y025436D02*
X031804Y025436D01*
X031728Y025129D02*
X031804Y025052D01*
X031804Y024899D01*
X031728Y024822D01*
X031421Y024822D01*
X031344Y024899D01*
X031344Y025052D01*
X031421Y025129D01*
X031344Y025973D02*
X031421Y026050D01*
X007632Y007721D02*
X007632Y007587D01*
X007499Y007721D01*
X007466Y007721D01*
X007432Y007687D01*
X007432Y007621D01*
X007466Y007587D01*
X007466Y007500D02*
X007432Y007466D01*
X007432Y007400D01*
X007466Y007366D01*
X007466Y007279D02*
X007432Y007245D01*
X007432Y007179D01*
X007466Y007145D01*
X007599Y007145D01*
X007632Y007179D01*
X007632Y007245D01*
X007599Y007279D01*
X007632Y007366D02*
X007499Y007500D01*
X007466Y007500D01*
X007632Y007500D02*
X007632Y007366D01*
X006352Y007369D02*
X006352Y007336D01*
X006318Y007302D01*
X006252Y007302D01*
X006218Y007336D01*
X006218Y007369D01*
X006252Y007402D01*
X006318Y007402D01*
X006352Y007369D01*
X006318Y007402D02*
X006352Y007436D01*
X006352Y007469D01*
X006318Y007503D01*
X006252Y007503D01*
X006218Y007469D01*
X006218Y007436D01*
X006252Y007402D01*
X006156Y007394D02*
X005956Y007394D01*
X006023Y007327D01*
X006031Y007302D02*
X006097Y007302D01*
X006131Y007336D01*
X006156Y007327D02*
X006156Y007460D01*
X006131Y007469D02*
X006097Y007503D01*
X006031Y007503D01*
X005997Y007469D01*
X005997Y007336D01*
X006031Y007302D01*
X005989Y007239D02*
X005956Y007206D01*
X005956Y007139D01*
X005989Y007106D01*
X006123Y007106D01*
X006156Y007139D01*
X006156Y007206D01*
X006123Y007239D01*
X006097Y007030D02*
X006031Y007030D01*
X005997Y006997D01*
X005997Y006863D01*
X006031Y006830D01*
X006097Y006830D01*
X006131Y006863D01*
X006218Y006863D02*
X006252Y006830D01*
X006318Y006830D01*
X006352Y006863D01*
X006352Y006997D01*
X006318Y007030D01*
X006252Y007030D01*
X006218Y006997D01*
X006218Y006963D01*
X006252Y006930D01*
X006352Y006930D01*
X006131Y006997D02*
X006097Y007030D01*
X006123Y007548D02*
X006156Y007581D01*
X006156Y007648D01*
X006123Y007681D01*
X005989Y007681D01*
X005956Y007648D01*
X005956Y007581D01*
X005989Y007548D01*
X006023Y007548D01*
X006056Y007581D01*
X006056Y007681D01*
X004277Y006025D02*
X004277Y005991D01*
X004144Y005858D01*
X004144Y005825D01*
X004056Y005825D02*
X003923Y005825D01*
X003990Y005825D02*
X003990Y006025D01*
X003923Y005958D01*
X003835Y005991D02*
X003802Y006025D01*
X003735Y006025D01*
X003702Y005991D01*
X003702Y005858D01*
X003735Y005825D01*
X003802Y005825D01*
X003835Y005858D01*
X004144Y006025D02*
X004277Y006025D01*
X003617Y004429D02*
X003617Y004295D01*
X003617Y004362D02*
X003417Y004362D01*
X003483Y004295D01*
X003450Y004208D02*
X003417Y004174D01*
X003417Y004108D01*
X003450Y004074D01*
X003583Y004074D01*
X003617Y004108D01*
X003617Y004174D01*
X003583Y004208D01*
X004579Y004047D02*
X004579Y003914D01*
X004679Y003914D01*
X004646Y003981D01*
X004646Y004014D01*
X004679Y004047D01*
X004746Y004047D01*
X004780Y004014D01*
X004780Y003947D01*
X004746Y003914D01*
X004780Y003826D02*
X004780Y003693D01*
X004780Y003760D02*
X004579Y003760D01*
X004646Y003693D01*
X004613Y003606D02*
X004579Y003572D01*
X004579Y003505D01*
X004613Y003472D01*
X004746Y003472D01*
X004780Y003505D01*
X004780Y003572D01*
X004746Y003606D01*
X005616Y002920D02*
X005616Y002787D01*
X005649Y002754D01*
X005716Y002754D01*
X005749Y002787D01*
X005837Y002787D02*
X005837Y002754D01*
X005837Y002787D02*
X005970Y002920D01*
X005970Y002954D01*
X005837Y002954D01*
X005749Y002920D02*
X005716Y002954D01*
X005649Y002954D01*
X005616Y002920D01*
X005912Y003511D02*
X006045Y003511D01*
X006079Y003545D01*
X006079Y003612D01*
X006045Y003645D01*
X006079Y003732D02*
X006079Y003866D01*
X006079Y003799D02*
X005879Y003799D01*
X005945Y003732D01*
X005912Y003645D02*
X005879Y003612D01*
X005879Y003545D01*
X005912Y003511D01*
X006351Y003545D02*
X006384Y003511D01*
X006518Y003511D01*
X006551Y003545D01*
X006551Y003612D01*
X006518Y003645D01*
X006551Y003732D02*
X006551Y003866D01*
X006551Y003799D02*
X006351Y003799D01*
X006418Y003732D01*
X006384Y003645D02*
X006351Y003612D01*
X006351Y003545D01*
X006418Y003953D02*
X006351Y004020D01*
X006551Y004020D01*
X006551Y003953D02*
X006551Y004087D01*
X006079Y004054D02*
X006079Y003987D01*
X006045Y003953D01*
X005912Y004087D01*
X006045Y004087D01*
X006079Y004054D01*
X006045Y003953D02*
X005912Y003953D01*
X005879Y003987D01*
X005879Y004054D01*
X005912Y004087D01*
X007493Y004068D02*
X007527Y004035D01*
X007593Y004035D01*
X007627Y004068D01*
X007714Y004035D02*
X007848Y004035D01*
X007781Y004035D02*
X007781Y004235D01*
X007714Y004168D01*
X007627Y004201D02*
X007593Y004235D01*
X007527Y004235D01*
X007493Y004201D01*
X007493Y004068D01*
X007935Y004068D02*
X007935Y004101D01*
X007969Y004135D01*
X008035Y004135D01*
X008069Y004101D01*
X008069Y004068D01*
X008035Y004035D01*
X007969Y004035D01*
X007935Y004068D01*
X007969Y004135D02*
X007935Y004168D01*
X007935Y004201D01*
X007969Y004235D01*
X008035Y004235D01*
X008069Y004201D01*
X008069Y004168D01*
X008035Y004135D01*
X008069Y005216D02*
X007935Y005216D01*
X008069Y005349D01*
X008069Y005383D01*
X008035Y005416D01*
X007969Y005416D01*
X007935Y005383D01*
X007781Y005416D02*
X007781Y005216D01*
X007714Y005216D02*
X007848Y005216D01*
X007714Y005349D02*
X007781Y005416D01*
X007627Y005383D02*
X007593Y005416D01*
X007527Y005416D01*
X007493Y005383D01*
X007493Y005249D01*
X007527Y005216D01*
X007593Y005216D01*
X007627Y005249D01*
X007087Y002775D02*
X007054Y002775D01*
X007021Y002742D01*
X007021Y002642D01*
X007087Y002642D01*
X007121Y002675D01*
X007121Y002742D01*
X007087Y002775D01*
X006954Y002709D02*
X007021Y002642D01*
X006954Y002709D02*
X006920Y002775D01*
X006954Y002554D02*
X006920Y002521D01*
X006920Y002454D01*
X006954Y002421D01*
X007087Y002421D01*
X007121Y002454D01*
X007121Y002521D01*
X007087Y002554D01*
X001984Y004415D02*
X001984Y004482D01*
X001951Y004515D01*
X001951Y004603D02*
X001984Y004636D01*
X001984Y004703D01*
X001951Y004736D01*
X001884Y004736D01*
X001851Y004703D01*
X001851Y004670D01*
X001884Y004603D01*
X001784Y004603D01*
X001784Y004736D01*
X001817Y004515D02*
X001784Y004482D01*
X001784Y004415D01*
X001817Y004382D01*
X001951Y004382D01*
X001984Y004415D01*
D14*
X015248Y005856D02*
X015248Y006723D01*
X015799Y006723D01*
X015799Y005856D01*
X015248Y005856D01*
X026311Y005900D02*
X026311Y006766D01*
X026862Y006766D01*
X026862Y005900D01*
X026311Y005900D01*
D15*
X010371Y020132D03*
D16*
X003409Y002963D03*
X002937Y002963D03*
D17*
X003173Y002963D03*
M02*
