%
M48
M72
T01C0.0150
T02C0.0236
T03C0.0315
T04C0.0433
T05C0.0460
%
T01
X4625Y9645
X5915Y8595
X6195Y9945
X6285Y10345
X5405Y12105
X4295Y12555
X5895Y6935
X6305Y6525
X8885Y8355
X9305Y8355
X9695Y8355
X10115Y8355
X10115Y9075
X9695Y9075
X9305Y9075
X8885Y9075
X8885Y9795
X9305Y9795
X9695Y9795
X10115Y9795
X10115Y10515
X9695Y10515
X9305Y10515
X8885Y10515
X8195Y13755
T02
X8655Y5315
X8885Y4915
X8415Y4915
T03
X7295Y9385
T04
X1695Y5085
X2695Y5085
X3695Y5085
X4695Y5085
X5695Y5085
X6695Y5085
X7695Y5085
T05
X9696Y5086
X10696Y5086
X10575Y13785
X9575Y13785
M30
