M48
T01C0.0150
T02C0.0197
T03C0.0236
T04C0.0310
T05C0.0315
T06C0.0320
T07C0.0394
T08C0.0400
T09C0.0433
T10C0.0550
T11C0.0590
T12C0.0630
T13C0.1000
T14C0.1180
T15C0.1299
G90
M72
%
T12
X7686Y32055
X13986Y32055
X7686Y6135
X13986Y6135
T04
X5311Y71764
X4524Y71764
X3737Y71764
X16737Y71764
X17524Y71764
X18311Y71764
X26101Y71764
X25314Y71764
X24527Y71764
X37527Y71764
X38314Y71764
X39101Y71764
X25966Y45979
X25179Y45979
X24392Y45979
X37392Y45979
X38179Y45979
X38966Y45979
X25966Y20059
X25179Y20059
X24392Y20059
X37392Y20059
X38179Y20059
X38966Y20059
T03
X7264Y73605
X6204Y76785
X7924Y77305
X28054Y73605
X26994Y76785
X28714Y77305
X54026Y26786
X53546Y26786
X50006Y26306
X49526Y26306
X11636Y36927
X10676Y37677
X10736Y35277
X56861Y37586
X56381Y37586
X52841Y37106
X52361Y37106
X61721Y44876
X61241Y44876
X57701Y44396
X57221Y44396
X27919Y47820
X26859Y51000
X28579Y51520
X11636Y11007
X10676Y11757
X10736Y9357
X50786Y45011
X50306Y45011
X46766Y44531
X46286Y44531
X27919Y21900
X26859Y25080
X28579Y25600
T13
X43150Y54995
X43150Y72495
X61650Y72495
X61650Y54995
X1784Y54995
X1784Y72495
X20284Y72495
X20284Y54995
X22574Y54995
X22574Y72495
X41074Y72495
X41074Y54995
X19976Y34927
X19976Y52427
X1476Y52427
X1476Y34927
X22439Y29210
X22439Y46710
X40939Y46710
X40939Y29210
X19976Y9007
X19976Y26507
X1476Y26507
X1476Y9007
X22439Y3290
X22439Y20790
X40939Y20790
X40939Y3290
T15
X8604Y30724
X13078Y30724
X8604Y4804
X13078Y4804
T02
X16076Y36237
X15476Y35037
X14816Y33357
X14996Y31677
X15176Y30717
X17816Y30537
X17786Y36057
X16076Y10317
X15476Y9117
X14816Y7437
X14996Y5757
X15176Y4797
X17816Y4617
X17786Y10137
T05
X17164Y74465
X37954Y74465
X47455Y26230
X47455Y27017
X47455Y27805
X47455Y28592
X47455Y29379
X47455Y30167
X47455Y30954
X47455Y31742
X47455Y32529
X47455Y25442
X56116Y25442
X56116Y26230
X56116Y27017
X56116Y27805
X56116Y28592
X56116Y29379
X56116Y30167
X56116Y30954
X56116Y31742
X56116Y32529
X10927Y41643
X10927Y42431
X10927Y43218
X10927Y44005
X10927Y44793
X10927Y45580
X10927Y46368
X10927Y47155
X10927Y47942
X10927Y48730
X2266Y48730
X2266Y47942
X2266Y47155
X2266Y46368
X2266Y45580
X2266Y44793
X2266Y44005
X2266Y43218
X2266Y42431
X2266Y41643
X50290Y37030
X50290Y37817
X50290Y38605
X50290Y39392
X50290Y40179
X50290Y40967
X50290Y41754
X50290Y42542
X50290Y43329
X50290Y36242
X58951Y36242
X58951Y37030
X58951Y37817
X58951Y38605
X58951Y39392
X58951Y40179
X58951Y40967
X58951Y41754
X58951Y42542
X58951Y43329
X55150Y44320
X55150Y45107
X55150Y45895
X55150Y46682
X55150Y47469
X55150Y48257
X55150Y49044
X55150Y49832
X55150Y50619
X55150Y43532
X63811Y43532
X63811Y44320
X63811Y45107
X63811Y45895
X63811Y46682
X63811Y47469
X63811Y48257
X63811Y49044
X63811Y49832
X63811Y50619
X37819Y48680
X10927Y15723
X10927Y16511
X10927Y17298
X10927Y18085
X10927Y18873
X10927Y19660
X10927Y20448
X10927Y21235
X10927Y22022
X10927Y22810
X2266Y22810
X2266Y22022
X2266Y21235
X2266Y20448
X2266Y19660
X2266Y18873
X2266Y18085
X2266Y17298
X2266Y16511
X2266Y15723
X44215Y44455
X44215Y45242
X44215Y46030
X44215Y46817
X44215Y47604
X44215Y48392
X44215Y49179
X44215Y49967
X44215Y50754
X44215Y43667
X52876Y43667
X52876Y44455
X52876Y45242
X52876Y46030
X52876Y46817
X52876Y47604
X52876Y48392
X52876Y49179
X52876Y49967
X52876Y50754
X37819Y22760
T06
X52432Y10131
X52432Y11131
X52432Y12131
X52432Y13131
X52432Y9131
X52432Y8131
X52432Y7131
X54806Y34466
X53806Y34466
X52806Y34466
X51806Y34466
X50806Y34466
X49806Y34466
X48806Y34466
X57641Y45266
X56641Y45266
X55641Y45266
X54641Y45266
X53641Y45266
X52641Y45266
X51641Y45266
X62501Y52556
X61501Y52556
X60501Y52556
X59501Y52556
X58501Y52556
X57501Y52556
X56501Y52556
X48247Y25521
X48247Y26521
X48247Y27521
X48247Y28521
X48247Y24521
X48247Y23521
X48247Y22521
X51082Y18636
X51082Y19636
X51082Y20636
X51082Y21636
X51082Y17636
X51082Y16636
X51082Y15636
X51566Y52691
X50566Y52691
X49566Y52691
X48566Y52691
X47566Y52691
X46566Y52691
X45566Y52691
X58507Y49551
X58507Y50551
X58507Y51551
X58507Y52551
X58507Y48551
X58507Y47551
X58507Y46551
T01
X7244Y61345
X7344Y62505
X9104Y61005
X9544Y60905
X9964Y60725
X10244Y60345
X10484Y60765
X10464Y61545
X10004Y61425
X10144Y62125
X9824Y62445
X11144Y62485
X11444Y62145
X11744Y62485
X12044Y62145
X12184Y62585
X11584Y61705
X11144Y61805
X9504Y60085
X9184Y60405
X9224Y59725
X7384Y59645
X7384Y58645
X11704Y57685
X14304Y61765
X15194Y61225
X13804Y64485
X12854Y65675
X12104Y65085
X11624Y65085
X11644Y64345
X12124Y64345
X13604Y66395
X14384Y66705
X14704Y67805
X15164Y67725
X15404Y66705
X12744Y68745
X12884Y69565
X13744Y70345
X12404Y71745
X11664Y71905
X11324Y71005
X10504Y72015
X10644Y72635
X11464Y73045
X11744Y73405
X12064Y73085
X12184Y73525
X11164Y75425
X10824Y75725
X10464Y76005
X9704Y76025
X10124Y74785
X8464Y73225
X8824Y72725
X8444Y72425
X8444Y71965
X8904Y71965
X7604Y72625
X6844Y72465
X7024Y70885
X7344Y70565
X7484Y70125
X6864Y70085
X6724Y70545
X6424Y70885
X6304Y70345
X7564Y67825
X8444Y67125
X8104Y66825
X8444Y66525
X9344Y67045
X9744Y66825
X9744Y67285
X10384Y66505
X10424Y68385
X7364Y66265
X11884Y75785
X15804Y73505
X15804Y73005
X19824Y70125
X15264Y57325
X49132Y7826
X48752Y8186
X50992Y8116
X51022Y7696
X51722Y8586
X50952Y8676
X49572Y10356
X48432Y10606
X48082Y10936
X47782Y12406
X49652Y12886
X50102Y12766
X50952Y13176
X51552Y11636
X51432Y11256
X51432Y10476
X28034Y61345
X28134Y62505
X29894Y61005
X30334Y60905
X30754Y60725
X31034Y60345
X31274Y60765
X31254Y61545
X30794Y61425
X30934Y62125
X30614Y62445
X31934Y62485
X32234Y62145
X32534Y62485
X32834Y62145
X32974Y62585
X32374Y61705
X31934Y61805
X30294Y60085
X29974Y60405
X30014Y59725
X28174Y59645
X28174Y58645
X32494Y57685
X35094Y61765
X35984Y61225
X34594Y64485
X33644Y65675
X32894Y65085
X32414Y65085
X32434Y64345
X32914Y64345
X34394Y66395
X35174Y66705
X35494Y67805
X35954Y67725
X36194Y66705
X33534Y68745
X33674Y69565
X34534Y70345
X33194Y71745
X32454Y71905
X32114Y71005
X31294Y72015
X31434Y72635
X32254Y73045
X32534Y73405
X32854Y73085
X32974Y73525
X31954Y75425
X31614Y75725
X31254Y76005
X30494Y76025
X30914Y74785
X29254Y73225
X29614Y72725
X29234Y72425
X29234Y71965
X29694Y71965
X28394Y72625
X27634Y72465
X27814Y70885
X28134Y70565
X28274Y70125
X27654Y70085
X27514Y70545
X27214Y70885
X27094Y70345
X28354Y67825
X29234Y67125
X28894Y66825
X29234Y66525
X30134Y67045
X30534Y66825
X30534Y67285
X31174Y66505
X31214Y68385
X28154Y66265
X32674Y75785
X36594Y73505
X36594Y73005
X40614Y70125
X36054Y57325
X49786Y23426
X52706Y23366
X51866Y27626
X53486Y28526
X53066Y30686
X53306Y31346
X51806Y31766
X49826Y30986
X48686Y30986
X54986Y32606
X55586Y31346
X8366Y38607
X9296Y40707
X10036Y42007
X10066Y42567
X9146Y43767
X8036Y44277
X7286Y44277
X6766Y44817
X7316Y45357
X8686Y46727
X8776Y46077
X9146Y45147
X9566Y47277
X9056Y47817
X8336Y48447
X7916Y48657
X6956Y47697
X7006Y47157
X6136Y47497
X4526Y46947
X4346Y46367
X3156Y47657
X2956Y49787
X1196Y50347
X3156Y44827
X5386Y44407
X9906Y48187
X10376Y50457
X13646Y50607
X15926Y50577
X16316Y48627
X16316Y48177
X16316Y47277
X17216Y47247
X18176Y47247
X18506Y46227
X17306Y44307
X17306Y43077
X15476Y43527
X14936Y41767
X14966Y40887
X14516Y40887
X14006Y40887
X13916Y41757
X12596Y41967
X12596Y41337
X12596Y40887
X12866Y39967
X14006Y39447
X14036Y38307
X14576Y38307
X15086Y38307
X15596Y38307
X16106Y38307
X16556Y38457
X17306Y37617
X18196Y37467
X17336Y36597
X19076Y35937
X19726Y33967
X18466Y33187
X17998Y32037
X16725Y31769
X15526Y32047
X14336Y33717
X15056Y34677
X13886Y35517
X13696Y36537
X14136Y37097
X14546Y36897
X15266Y37097
X16586Y39867
X15416Y40887
X13226Y37677
X11006Y40047
X12566Y42837
X14876Y47067
X19226Y48027
X20066Y48717
X19106Y40977
X18986Y40017
X18926Y39357
X19076Y38397
X18386Y40707
X52621Y34226
X55541Y34166
X54701Y38426
X56321Y39326
X55901Y41486
X56141Y42146
X54641Y42566
X52661Y41786
X51521Y41786
X57821Y43406
X58421Y42146
X57481Y41516
X60401Y41456
X59561Y45716
X61181Y46616
X60761Y48776
X61001Y49436
X59501Y49856
X57521Y49076
X56381Y49076
X62681Y50696
X63281Y49436
X44947Y23216
X44567Y23576
X46807Y23506
X46837Y23086
X47537Y23976
X46767Y24066
X45387Y25746
X44247Y25996
X43897Y26326
X43597Y27796
X45467Y28276
X45917Y28156
X46767Y28566
X47367Y27026
X47247Y26646
X47247Y25866
X27899Y35560
X27999Y36720
X29759Y35220
X30199Y35120
X30619Y34940
X30899Y34560
X31139Y34980
X31119Y35760
X30659Y35640
X30799Y36340
X30479Y36660
X31799Y36700
X32099Y36360
X32399Y36700
X32699Y36360
X32839Y36800
X32239Y35920
X31799Y36020
X30159Y34300
X29839Y34620
X29879Y33940
X28039Y33860
X28039Y32860
X32359Y31900
X34959Y35980
X35849Y35440
X34459Y38700
X33509Y39890
X32759Y39300
X32279Y39300
X32299Y38560
X32779Y38560
X34259Y40610
X35039Y40920
X35359Y42020
X35819Y41940
X36059Y40920
X33399Y42960
X33539Y43780
X34399Y44560
X33059Y45960
X32319Y46120
X31979Y45220
X31159Y46230
X31299Y46850
X32119Y47260
X32399Y47620
X32719Y47300
X32839Y47740
X31819Y49640
X31479Y49940
X31119Y50220
X30359Y50240
X30779Y49000
X29119Y47440
X29479Y46940
X29099Y46640
X29099Y46180
X29559Y46180
X28259Y46840
X27499Y46680
X27679Y45100
X27999Y44780
X28139Y44340
X27519Y44300
X27379Y44760
X27079Y45100
X26959Y44560
X28219Y42040
X29099Y41340
X28759Y41040
X29099Y40740
X29999Y41260
X30399Y41040
X30399Y41500
X31039Y40720
X31079Y42600
X28019Y40480
X32539Y50000
X36459Y47720
X36459Y47220
X40479Y44340
X35919Y31540
X47782Y16331
X47402Y16691
X49642Y16621
X49672Y16201
X50372Y17091
X49602Y17181
X48222Y18861
X47082Y19111
X46732Y19441
X46432Y20911
X48302Y21391
X48752Y21271
X49602Y21681
X50202Y20141
X50082Y19761
X50082Y18981
X8366Y12687
X9296Y14787
X10036Y16087
X10066Y16647
X9146Y17847
X8036Y18357
X7286Y18357
X6766Y18897
X7316Y19437
X8686Y20807
X8776Y20157
X9146Y19227
X9566Y21357
X9056Y21897
X8336Y22527
X7916Y22737
X6956Y21777
X7006Y21237
X6136Y21577
X4526Y21027
X4346Y20447
X3156Y21737
X2956Y23867
X1196Y24427
X3156Y18907
X5386Y18487
X9906Y22267
X10376Y24537
X13646Y24687
X15926Y24657
X16316Y22707
X16316Y22257
X16316Y21357
X17216Y21327
X18176Y21327
X18506Y20307
X17306Y18387
X17306Y17157
X15476Y17607
X14936Y15847
X14966Y14967
X14516Y14967
X14006Y14967
X13916Y15837
X12596Y16047
X12596Y15417
X12596Y14967
X12866Y14047
X14006Y13527
X14036Y12387
X14576Y12387
X15086Y12387
X15596Y12387
X16106Y12387
X16556Y12537
X17306Y11697
X18196Y11547
X17336Y10677
X19076Y10017
X19726Y8047
X18466Y7267
X17998Y6117
X16725Y5849
X15526Y6127
X14336Y7797
X15056Y8757
X13886Y9597
X13696Y10617
X14136Y11177
X14546Y10977
X15266Y11177
X16586Y13947
X15416Y14967
X13226Y11757
X11006Y14127
X12566Y16917
X14876Y21147
X19226Y22107
X20066Y22797
X19106Y15057
X18986Y14097
X18926Y13437
X19076Y12477
X18386Y14787
X46546Y41651
X49466Y41591
X48626Y45851
X50246Y46751
X49826Y48911
X50066Y49571
X48566Y49991
X46586Y49211
X45446Y49211
X51746Y50831
X52346Y49571
X27899Y9640
X27999Y10800
X29759Y9300
X30199Y9200
X30619Y9020
X30899Y8640
X31139Y9060
X31119Y9840
X30659Y9720
X30799Y10420
X30479Y10740
X31799Y10780
X32099Y10440
X32399Y10780
X32699Y10440
X32839Y10880
X32239Y10000
X31799Y10100
X30159Y8380
X29839Y8700
X29879Y8020
X28039Y7940
X28039Y6940
X32359Y5980
X34959Y10060
X35849Y9520
X34459Y12780
X33509Y13970
X32759Y13380
X32279Y13380
X32299Y12640
X32779Y12640
X34259Y14690
X35039Y15000
X35359Y16100
X35819Y16020
X36059Y15000
X33399Y17040
X33539Y17860
X34399Y18640
X33059Y20040
X32319Y20200
X31979Y19300
X31159Y20310
X31299Y20930
X32119Y21340
X32399Y21700
X32719Y21380
X32839Y21820
X31819Y23720
X31479Y24020
X31119Y24300
X30359Y24320
X30779Y23080
X29119Y21520
X29479Y21020
X29099Y20720
X29099Y20260
X29559Y20260
X28259Y20920
X27499Y20760
X27679Y19180
X27999Y18860
X28139Y18420
X27519Y18380
X27379Y18840
X27079Y19180
X26959Y18640
X28219Y16120
X29099Y15420
X28759Y15120
X29099Y14820
X29999Y15340
X30399Y15120
X30399Y15580
X31039Y14800
X31079Y16680
X28019Y14560
X32539Y24080
X36459Y21800
X36459Y21300
X40479Y18420
X35919Y5620
X55207Y47246
X54827Y47606
X57067Y47536
X57097Y47116
X57797Y48006
X57027Y48096
X55647Y49776
X54507Y50026
X54157Y50356
X53857Y51826
X55727Y52306
X56177Y52186
X57027Y52596
X57627Y51056
X57507Y50676
X57507Y49896
T09
X57900Y70245
X57900Y69245
X57900Y68245
X57900Y67245
X57900Y66245
X57900Y65245
X57900Y64245
X57900Y63245
X57900Y62245
X57900Y61245
X57900Y60245
X57900Y59245
X58900Y59245
X58900Y60245
X58900Y61245
X58900Y62245
X58900Y63245
X58900Y64245
X58900Y65245
X58900Y66245
X58900Y67245
X58900Y68245
X58900Y69245
X58900Y70245
X59900Y70245
X59900Y69245
X59900Y68245
X59900Y67245
X59900Y66245
X59900Y65245
X59900Y64245
X59900Y63245
X59900Y62245
X59900Y61245
X59900Y60245
X59900Y59245
X59900Y56245
X58900Y56245
X57900Y56245
X55900Y54995
X54900Y54995
X53900Y54995
X52900Y54995
X51900Y54995
X50900Y54995
X49900Y54995
X48900Y54995
X46900Y56245
X45900Y56245
X44900Y56245
X44900Y59245
X44900Y60245
X44900Y61245
X44900Y62245
X44900Y63245
X44900Y64245
X44900Y65245
X44900Y66245
X44900Y67245
X44900Y68245
X44900Y69245
X44900Y70245
X45900Y70245
X45900Y69245
X45900Y68245
X45900Y67245
X45900Y66245
X45900Y65245
X45900Y64245
X45900Y63245
X45900Y62245
X45900Y61245
X45900Y60245
X45900Y59245
X46900Y59245
X46900Y60245
X46900Y61245
X46900Y62245
X46900Y63245
X46900Y64245
X46900Y65245
X46900Y66245
X46900Y67245
X46900Y68245
X46900Y69245
X46900Y70245
X5534Y65245
X5534Y64245
X4534Y64245
X4534Y65245
X4534Y66245
X4534Y67245
X4534Y68245
X4534Y69245
X4534Y70245
X5534Y70245
X5534Y69245
X5534Y68245
X5534Y67245
X5534Y66245
X3534Y66245
X3534Y67245
X3534Y68245
X3534Y69245
X3534Y70245
X3534Y65245
X3534Y64245
X3534Y63245
X3534Y62245
X3534Y61245
X3534Y60245
X3534Y59245
X4534Y59245
X4534Y60245
X4534Y61245
X4534Y62245
X4534Y63245
X5534Y63245
X5534Y62245
X5534Y61245
X5534Y60245
X5534Y59245
X5534Y56245
X4534Y56245
X3534Y56245
X7534Y54995
X8534Y54995
X9534Y54995
X10534Y54995
X11534Y54995
X12534Y54995
X13534Y54995
X14534Y54995
X16534Y56245
X17534Y56245
X18534Y56245
X18534Y59245
X18534Y60245
X18534Y61245
X18534Y62245
X18534Y63245
X18534Y64245
X18534Y65245
X18534Y66245
X18534Y67245
X18534Y68245
X18534Y69245
X18534Y70245
X17534Y70245
X17534Y69245
X17534Y68245
X17534Y67245
X17534Y66245
X17534Y65245
X17534Y64245
X17534Y63245
X17534Y62245
X17534Y61245
X17534Y60245
X17534Y59245
X16534Y59245
X16534Y60245
X16534Y61245
X16534Y62245
X16534Y63245
X16534Y64245
X16534Y65245
X16534Y66245
X16534Y67245
X16534Y68245
X16534Y69245
X16534Y70245
X16154Y76095
X15154Y76095
X14154Y76095
X17154Y76095
X18154Y76095
X19154Y76095
X20154Y76095
X26324Y65245
X26324Y64245
X25324Y64245
X25324Y65245
X25324Y66245
X25324Y67245
X25324Y68245
X25324Y69245
X25324Y70245
X26324Y70245
X26324Y69245
X26324Y68245
X26324Y67245
X26324Y66245
X24324Y66245
X24324Y67245
X24324Y68245
X24324Y69245
X24324Y70245
X24324Y65245
X24324Y64245
X24324Y63245
X24324Y62245
X24324Y61245
X24324Y60245
X24324Y59245
X25324Y59245
X25324Y60245
X25324Y61245
X25324Y62245
X25324Y63245
X26324Y63245
X26324Y62245
X26324Y61245
X26324Y60245
X26324Y59245
X26324Y56245
X25324Y56245
X24324Y56245
X28324Y54995
X29324Y54995
X30324Y54995
X31324Y54995
X32324Y54995
X33324Y54995
X34324Y54995
X35324Y54995
X37324Y56245
X38324Y56245
X39324Y56245
X39324Y59245
X39324Y60245
X39324Y61245
X39324Y62245
X39324Y63245
X39324Y64245
X39324Y65245
X39324Y66245
X39324Y67245
X39324Y68245
X39324Y69245
X39324Y70245
X38324Y70245
X38324Y69245
X38324Y68245
X38324Y67245
X38324Y66245
X38324Y65245
X38324Y64245
X38324Y63245
X38324Y62245
X38324Y61245
X38324Y60245
X38324Y59245
X37324Y59245
X37324Y60245
X37324Y61245
X37324Y62245
X37324Y63245
X37324Y64245
X37324Y65245
X37324Y66245
X37324Y67245
X37324Y68245
X37324Y69245
X37324Y70245
X36944Y76095
X35944Y76095
X34944Y76095
X37944Y76095
X38944Y76095
X39944Y76095
X40944Y76095
X17756Y49847
X16756Y49847
X15756Y49847
X14756Y49847
X13756Y49847
X12756Y49847
X11756Y49847
X9696Y49847
X8696Y49847
X7696Y49847
X6696Y49847
X5696Y49847
X4696Y49847
X3696Y49847
X26189Y39460
X26189Y38460
X25189Y38460
X25189Y39460
X25189Y40460
X25189Y41460
X25189Y42460
X25189Y43460
X25189Y44460
X26189Y44460
X26189Y43460
X26189Y42460
X26189Y41460
X26189Y40460
X24189Y40460
X24189Y41460
X24189Y42460
X24189Y43460
X24189Y44460
X24189Y39460
X24189Y38460
X24189Y37460
X24189Y36460
X24189Y35460
X24189Y34460
X24189Y33460
X25189Y33460
X25189Y34460
X25189Y35460
X25189Y36460
X25189Y37460
X26189Y37460
X26189Y36460
X26189Y35460
X26189Y34460
X26189Y33460
X26189Y30460
X25189Y30460
X24189Y30460
X28189Y29210
X29189Y29210
X30189Y29210
X31189Y29210
X32189Y29210
X33189Y29210
X34189Y29210
X35189Y29210
X37189Y30460
X38189Y30460
X39189Y30460
X39189Y33460
X39189Y34460
X39189Y35460
X39189Y36460
X39189Y37460
X39189Y38460
X39189Y39460
X39189Y40460
X39189Y41460
X39189Y42460
X39189Y43460
X39189Y44460
X38189Y44460
X38189Y43460
X38189Y42460
X38189Y41460
X38189Y40460
X38189Y39460
X38189Y38460
X38189Y37460
X38189Y36460
X38189Y35460
X38189Y34460
X38189Y33460
X37189Y33460
X37189Y34460
X37189Y35460
X37189Y36460
X37189Y37460
X37189Y38460
X37189Y39460
X37189Y40460
X37189Y41460
X37189Y42460
X37189Y43460
X37189Y44460
X36809Y50310
X35809Y50310
X34809Y50310
X37809Y50310
X38809Y50310
X39809Y50310
X40809Y50310
X17756Y23927
X16756Y23927
X15756Y23927
X14756Y23927
X13756Y23927
X12756Y23927
X11756Y23927
X9696Y23927
X8696Y23927
X7696Y23927
X6696Y23927
X5696Y23927
X4696Y23927
X3696Y23927
X26189Y13540
X26189Y12540
X25189Y12540
X25189Y13540
X25189Y14540
X25189Y15540
X25189Y16540
X25189Y17540
X25189Y18540
X26189Y18540
X26189Y17540
X26189Y16540
X26189Y15540
X26189Y14540
X24189Y14540
X24189Y15540
X24189Y16540
X24189Y17540
X24189Y18540
X24189Y13540
X24189Y12540
X24189Y11540
X24189Y10540
X24189Y9540
X24189Y8540
X24189Y7540
X25189Y7540
X25189Y8540
X25189Y9540
X25189Y10540
X25189Y11540
X26189Y11540
X26189Y10540
X26189Y9540
X26189Y8540
X26189Y7540
X26189Y4540
X25189Y4540
X24189Y4540
X28189Y3290
X29189Y3290
X30189Y3290
X31189Y3290
X32189Y3290
X33189Y3290
X34189Y3290
X35189Y3290
X37189Y4540
X38189Y4540
X39189Y4540
X39189Y7540
X39189Y8540
X39189Y9540
X39189Y10540
X39189Y11540
X39189Y12540
X39189Y13540
X39189Y14540
X39189Y15540
X39189Y16540
X39189Y17540
X39189Y18540
X38189Y18540
X38189Y17540
X38189Y16540
X38189Y15540
X38189Y14540
X38189Y13540
X38189Y12540
X38189Y11540
X38189Y10540
X38189Y9540
X38189Y8540
X38189Y7540
X37189Y7540
X37189Y8540
X37189Y9540
X37189Y10540
X37189Y11540
X37189Y12540
X37189Y13540
X37189Y14540
X37189Y15540
X37189Y16540
X37189Y17540
X37189Y18540
X36809Y24390
X35809Y24390
X34809Y24390
X37809Y24390
X38809Y24390
X39809Y24390
X40809Y24390
T14
X4037Y75509
X2187Y76690
X4037Y77871
X24827Y75509
X22977Y76690
X24827Y77871
X47387Y21476
X48998Y19985
X50249Y21486
X53322Y21486
X54573Y22987
X56184Y21496
X3950Y29588
X3950Y31950
X5801Y30769
X50222Y32276
X51833Y30785
X53084Y32286
X56157Y32286
X57408Y33787
X59019Y32296
X55082Y39566
X56693Y38075
X57944Y39576
X61017Y39576
X62268Y41077
X63879Y39586
X24692Y49724
X22842Y50905
X24692Y52086
X3950Y3668
X3950Y6030
X5801Y4849
X44147Y39701
X45758Y38210
X47009Y39711
X50082Y39711
X51333Y41212
X52944Y39721
X24692Y23804
X22842Y24985
X24692Y26166
T08
X50910Y58665
X51910Y58665
X52910Y58665
X53910Y58665
X54910Y58665
X55910Y58665
X51830Y65245
X54850Y65665
X54710Y68085
X54670Y69125
X54350Y70745
X53350Y70745
X52350Y70745
X51350Y70745
X50350Y70745
X55350Y70745
X13304Y69125
X13344Y68085
X13484Y65665
X10464Y65245
X34094Y69125
X34134Y68085
X34274Y65665
X31254Y65245
X20076Y36077
X20076Y37077
X20076Y38077
X20076Y39077
X20076Y40077
X20076Y41077
X33959Y43340
X33999Y42300
X34139Y39880
X31119Y39460
X20076Y10157
X20076Y11157
X20076Y12157
X20076Y13157
X20076Y14157
X20076Y15157
X33959Y17420
X33999Y16380
X34139Y13960
X31119Y13540
T11
X19099Y71764
X15949Y71764
X6099Y71764
X2949Y71764
X39889Y71764
X36739Y71764
X26889Y71764
X23739Y71764
X39754Y45979
X36604Y45979
X26754Y45979
X23604Y45979
X39754Y20059
X36604Y20059
X26754Y20059
X23604Y20059
T10
X2856Y39597
X2856Y35797
X7656Y36297
X7656Y37697
X7656Y39097
X2856Y13677
X2856Y9877
X7656Y10377
X7656Y11777
X7656Y13177
T07
X9047Y33240
X10035Y33240
X10519Y34224
X11519Y34224
X12003Y33240
X12519Y34224
X11015Y33240
X9519Y34224
X9125Y28904
X8125Y28904
X12408Y28904
X13408Y28904
X9047Y7320
X10035Y7320
X10519Y8304
X11519Y8304
X12003Y7320
X12519Y8304
X11015Y7320
X9519Y8304
X9125Y2984
X8125Y2984
X12408Y2984
X13408Y2984
M30
