G75*
G70*
%OFA0B0*%
%FSLAX24Y24*%
%IPPOS*%
%LPD*%
%AMOC8*
5,1,8,0,0,1.08239X$1,22.5*
%
%ADD10C,0.0827*%
%ADD11OC8,0.0480*%
%ADD12C,0.0480*%
%ADD13C,0.0650*%
%ADD14C,0.0760*%
%ADD15C,0.0560*%
%ADD16C,0.1310*%
%ADD17R,0.0157X0.0315*%
%ADD18OC8,0.0600*%
%ADD19R,0.0394X0.0098*%
%ADD20R,0.0528X0.0394*%
%ADD21C,0.0440*%
%ADD22R,0.0256X0.0256*%
%ADD23C,0.0500*%
%ADD24C,0.0310*%
%ADD25C,0.0100*%
%ADD26C,0.0160*%
%ADD27C,0.0080*%
%ADD28R,0.0310X0.0310*%
%ADD29C,0.0591*%
D10*
X002047Y012898D03*
X005797Y012898D03*
X005797Y019148D03*
X004547Y019148D03*
X003297Y019148D03*
X002047Y019148D03*
D11*
X003680Y021565D03*
X005649Y021565D03*
X008055Y017387D03*
X011807Y005683D03*
X021957Y005191D03*
D12*
X022657Y005191D03*
X011807Y004983D03*
X008055Y016687D03*
X004949Y021565D03*
X002980Y021565D03*
D13*
X011574Y023183D03*
X012574Y023183D03*
X013574Y023183D03*
X014574Y023183D03*
X015574Y023183D03*
X016574Y023183D03*
X017574Y023183D03*
X025574Y023183D03*
X026574Y023183D03*
X027574Y023183D03*
X028574Y023183D03*
X029574Y023183D03*
X030574Y023183D03*
X031574Y023183D03*
D14*
X033574Y023183D03*
X034574Y023183D03*
X020574Y023183D03*
X019574Y023183D03*
X006074Y023183D03*
X005074Y023183D03*
D15*
X008186Y013739D03*
X008186Y012759D03*
X008186Y011969D03*
X008186Y010989D03*
X014199Y005253D03*
X015179Y005253D03*
X015969Y005253D03*
X016949Y005253D03*
X025199Y005253D03*
X026179Y005253D03*
X026969Y005253D03*
X027949Y005253D03*
D16*
X029159Y004183D03*
X023989Y004183D03*
X018159Y004183D03*
X012989Y004183D03*
X009256Y009779D03*
X009256Y014949D03*
D17*
X015437Y004439D03*
X015830Y004439D03*
X015634Y003888D03*
X026445Y004518D03*
X026838Y004518D03*
X026641Y003967D03*
D18*
X037634Y004782D03*
X038634Y004782D03*
X038634Y005782D03*
X038634Y006782D03*
X037634Y006782D03*
X037634Y005782D03*
X037634Y007782D03*
X038634Y007782D03*
X038634Y008782D03*
X038634Y009782D03*
X037634Y009782D03*
X037634Y008782D03*
X037634Y010782D03*
X038634Y010782D03*
X038634Y011782D03*
X037634Y011782D03*
X037634Y012782D03*
X038634Y012782D03*
X038634Y013782D03*
X037634Y013782D03*
X037634Y014782D03*
X038634Y014782D03*
X038634Y015782D03*
X037634Y015782D03*
X037634Y016782D03*
X038634Y016782D03*
X038634Y017782D03*
X037634Y017782D03*
X037634Y018782D03*
X038634Y018782D03*
X038634Y019782D03*
X037634Y019782D03*
X037634Y020782D03*
X038634Y020782D03*
X038634Y021782D03*
X038634Y022782D03*
X037634Y022782D03*
X037634Y021782D03*
X037634Y023782D03*
X038634Y023782D03*
D19*
X007031Y008199D03*
X007031Y008002D03*
X007031Y007805D03*
X007031Y007608D03*
D20*
X006618Y006569D03*
X006618Y009238D03*
D21*
X002015Y007486D02*
X001575Y007486D01*
X001575Y005486D02*
X002015Y005486D01*
D22*
X001795Y004852D03*
X001795Y004498D03*
X001795Y008081D03*
X001795Y008435D03*
D23*
X008173Y008888D02*
X008173Y005148D01*
X013527Y019911D02*
X013685Y019911D01*
X013527Y019911D02*
X013291Y020148D01*
X012838Y021447D02*
X011598Y021447D01*
X012838Y021447D02*
X014574Y023183D01*
X014574Y023636D01*
X015181Y024242D01*
X027515Y024242D01*
X028574Y023183D01*
D24*
X025063Y020581D03*
X023960Y020108D03*
X022976Y021053D03*
X022071Y021211D03*
X020889Y020305D03*
X020338Y020423D03*
X019078Y020463D03*
X021244Y018612D03*
X021795Y019085D03*
X023173Y017589D03*
X023173Y016998D03*
X024157Y018415D03*
X026952Y018809D03*
X033173Y018297D03*
X034787Y018297D03*
X035378Y017234D03*
X036795Y015817D03*
X035968Y019793D03*
X011598Y021447D03*
X001677Y022510D03*
X005574Y011604D03*
X005811Y011132D03*
X003763Y010030D03*
X002582Y010030D03*
X003724Y007746D03*
X004354Y007667D03*
X003685Y007156D03*
X003645Y006368D03*
X003449Y005738D03*
X003842Y005660D03*
X004787Y005699D03*
X005535Y005778D03*
X005181Y006447D03*
X004472Y006447D03*
X002976Y005148D03*
X004708Y003927D03*
X008173Y005148D03*
X008449Y003967D03*
X010141Y004636D03*
X010063Y005305D03*
X006519Y008297D03*
X006716Y008770D03*
X005574Y007864D03*
X008173Y008888D03*
D25*
X003685Y007156D02*
X002976Y006447D01*
X002976Y005148D01*
X001795Y004852D02*
X001795Y005486D01*
X001795Y007486D02*
X001795Y008081D01*
X019078Y020463D02*
X019078Y020581D01*
X020338Y020423D02*
X020338Y020187D01*
X020889Y019636D01*
X021874Y019636D01*
X022267Y019242D01*
X022110Y019085D01*
X021795Y019085D01*
X022267Y019242D02*
X022346Y019163D01*
X027149Y019163D01*
X027149Y019006D01*
X026952Y018809D01*
X027149Y019163D02*
X035378Y019163D01*
X035614Y018927D01*
X035614Y017982D01*
X035378Y017746D01*
X035378Y017234D01*
X034787Y018297D02*
X033173Y018297D01*
X025102Y020620D02*
X025102Y020738D01*
X025102Y020620D02*
X025063Y020581D01*
X023960Y020699D02*
X023960Y020108D01*
X023960Y020699D02*
X022937Y021723D01*
X021204Y021723D01*
X020889Y021408D01*
X020889Y020305D01*
X022071Y021211D02*
X022819Y021211D01*
X022976Y021053D01*
X024157Y018415D02*
X021441Y018415D01*
X021244Y018612D01*
X023173Y017589D02*
X023173Y016998D01*
D26*
X000854Y026600D02*
X000854Y001963D01*
X032267Y001963D01*
X032267Y006998D01*
X010417Y006998D01*
X010417Y019006D01*
X021508Y019006D01*
X021500Y019026D01*
X021500Y019143D01*
X021545Y019252D01*
X021628Y019335D01*
X021736Y019380D01*
X021854Y019380D01*
X021867Y019374D01*
X021795Y019446D01*
X020811Y019446D01*
X020699Y019557D01*
X020148Y020108D01*
X020148Y020196D01*
X020088Y020256D01*
X020043Y020365D01*
X020043Y020482D01*
X020088Y020590D01*
X020171Y020673D01*
X020280Y020718D01*
X020397Y020718D01*
X020505Y020673D01*
X020588Y020590D01*
X020633Y020482D01*
X020633Y020457D01*
X020639Y020472D01*
X020699Y020532D01*
X020699Y021329D01*
X020699Y021486D01*
X021014Y021801D01*
X021126Y021912D01*
X022858Y021912D01*
X023015Y021912D01*
X024039Y020889D01*
X024150Y020778D01*
X024150Y020336D01*
X024210Y020275D01*
X024255Y020167D01*
X024255Y020050D01*
X024210Y019941D01*
X024127Y019858D01*
X024019Y019813D01*
X023902Y019813D01*
X023793Y019858D01*
X023710Y019941D01*
X023665Y020050D01*
X023665Y020167D01*
X023710Y020275D01*
X023770Y020336D01*
X023770Y020620D01*
X023266Y021125D01*
X023271Y021112D01*
X023271Y020995D01*
X023226Y020886D01*
X023143Y020803D01*
X023035Y020758D01*
X022917Y020758D01*
X022809Y020803D01*
X022726Y020886D01*
X022681Y020995D01*
X022681Y021021D01*
X022298Y021021D01*
X022238Y020961D01*
X022129Y020916D01*
X022012Y020916D01*
X021903Y020961D01*
X021820Y021044D01*
X021776Y021152D01*
X021776Y021269D01*
X021820Y021378D01*
X021903Y021461D01*
X022012Y021506D01*
X022129Y021506D01*
X022238Y021461D01*
X022298Y021401D01*
X022740Y021401D01*
X022897Y021401D01*
X022950Y021348D01*
X023035Y021348D01*
X023048Y021343D01*
X022858Y021533D01*
X021283Y021533D01*
X021079Y021329D01*
X021079Y020532D01*
X021139Y020472D01*
X021184Y020364D01*
X021184Y020246D01*
X021139Y020138D01*
X021057Y020055D01*
X020948Y020010D01*
X020831Y020010D01*
X020751Y020043D01*
X020968Y019826D01*
X021795Y019826D01*
X021952Y019826D01*
X022346Y019432D01*
X022346Y019432D01*
X022425Y019353D01*
X027071Y019353D01*
X027228Y019353D01*
X035299Y019353D01*
X035456Y019353D01*
X035693Y019117D01*
X035804Y019006D01*
X035985Y019006D01*
X035985Y019498D01*
X035909Y019498D01*
X035801Y019543D01*
X035718Y019626D01*
X035673Y019735D01*
X035673Y019852D01*
X035718Y019960D01*
X035801Y020043D01*
X035909Y020088D01*
X036027Y020088D01*
X036135Y020043D01*
X036218Y019960D01*
X036263Y019852D01*
X036263Y019753D01*
X036345Y019671D01*
X036345Y019522D01*
X036345Y019006D01*
X036401Y019006D01*
X036401Y014962D01*
X037194Y014962D01*
X037194Y014964D01*
X037451Y015222D01*
X037816Y015222D01*
X038074Y014964D01*
X038074Y014599D01*
X037816Y014342D01*
X037451Y014342D01*
X037194Y014599D01*
X037194Y014602D01*
X036401Y014602D01*
X036401Y003455D01*
X037321Y003455D01*
X037323Y003458D01*
X037579Y003714D01*
X037913Y003853D01*
X038275Y003853D01*
X038610Y003714D01*
X038866Y003458D01*
X038867Y003455D01*
X039074Y003455D01*
X039074Y004543D01*
X038832Y004302D01*
X038654Y004302D01*
X038654Y004761D01*
X038613Y004761D01*
X038613Y004302D01*
X038435Y004302D01*
X038154Y004583D01*
X038154Y004761D01*
X038613Y004761D01*
X038613Y004802D01*
X038154Y004802D01*
X038154Y004980D01*
X038435Y005262D01*
X038613Y005262D01*
X038613Y004802D01*
X038654Y004802D01*
X038654Y005262D01*
X038832Y005262D01*
X039074Y005020D01*
X039074Y011543D01*
X038832Y011302D01*
X038654Y011302D01*
X038654Y011761D01*
X038613Y011761D01*
X038613Y011302D01*
X038435Y011302D01*
X038154Y011583D01*
X038154Y011761D01*
X038613Y011761D01*
X038613Y011802D01*
X038154Y011802D01*
X038154Y011980D01*
X038435Y012262D01*
X038613Y012262D01*
X038613Y011802D01*
X038654Y011802D01*
X038654Y012262D01*
X038832Y012262D01*
X039074Y012020D01*
X039074Y016543D01*
X038832Y016302D01*
X038654Y016302D01*
X038654Y016761D01*
X038613Y016761D01*
X038154Y016761D01*
X038154Y016583D01*
X038435Y016302D01*
X038613Y016302D01*
X038613Y016761D01*
X038613Y016802D01*
X038154Y016802D01*
X038154Y016980D01*
X038435Y017262D01*
X038613Y017262D01*
X038613Y016802D01*
X038654Y016802D01*
X038654Y017262D01*
X038832Y017262D01*
X039074Y017020D01*
X039074Y026600D01*
X032870Y026600D01*
X032833Y026510D01*
X032747Y026425D01*
X032635Y026378D01*
X032514Y026378D01*
X032402Y026425D01*
X032316Y026510D01*
X032279Y026600D01*
X024870Y026600D01*
X024833Y026510D01*
X024747Y026425D01*
X024635Y026378D01*
X024514Y026378D01*
X024402Y026425D01*
X024316Y026510D01*
X024279Y026600D01*
X018870Y026600D01*
X018833Y026510D01*
X018747Y026425D01*
X018635Y026378D01*
X018514Y026378D01*
X018402Y026425D01*
X018316Y026510D01*
X018279Y026600D01*
X010870Y026600D01*
X010833Y026510D01*
X010747Y026425D01*
X010635Y026378D01*
X010514Y026378D01*
X010402Y026425D01*
X010316Y026510D01*
X010279Y026600D01*
X000854Y026600D01*
X000854Y026574D02*
X010289Y026574D01*
X010423Y026416D02*
X002291Y026416D01*
X002350Y026392D02*
X002015Y026530D01*
X001653Y026530D01*
X001319Y026392D01*
X001063Y026136D01*
X000924Y025801D01*
X000924Y025439D01*
X001063Y025105D01*
X001319Y024849D01*
X001653Y024710D01*
X002015Y024710D01*
X002350Y024849D01*
X002606Y025105D01*
X002744Y025439D01*
X002744Y025801D01*
X002606Y026136D01*
X002350Y026392D01*
X002484Y026257D02*
X037445Y026257D01*
X037323Y026136D02*
X037184Y025801D01*
X037184Y025439D01*
X037323Y025105D01*
X037579Y024849D01*
X037913Y024710D01*
X038275Y024710D01*
X038610Y024849D01*
X038866Y025105D01*
X039004Y025439D01*
X039004Y025801D01*
X038866Y026136D01*
X038610Y026392D01*
X038275Y026530D01*
X037913Y026530D01*
X037579Y026392D01*
X037323Y026136D01*
X037308Y026099D02*
X002621Y026099D01*
X002687Y025940D02*
X037242Y025940D01*
X037184Y025782D02*
X002744Y025782D01*
X002744Y025623D02*
X037184Y025623D01*
X037184Y025465D02*
X002744Y025465D01*
X002689Y025306D02*
X037239Y025306D01*
X037305Y025148D02*
X002623Y025148D01*
X002490Y024989D02*
X037438Y024989D01*
X037623Y024830D02*
X002306Y024830D01*
X001363Y024830D02*
X000854Y024830D01*
X000854Y024672D02*
X039074Y024672D01*
X039074Y024830D02*
X038565Y024830D01*
X038750Y024989D02*
X039074Y024989D01*
X039074Y025148D02*
X038883Y025148D01*
X038949Y025306D02*
X039074Y025306D01*
X039074Y025465D02*
X039004Y025465D01*
X039004Y025623D02*
X039074Y025623D01*
X039074Y025782D02*
X039004Y025782D01*
X038946Y025940D02*
X039074Y025940D01*
X039074Y026099D02*
X038881Y026099D01*
X038744Y026257D02*
X039074Y026257D01*
X039074Y026416D02*
X038551Y026416D01*
X039074Y026574D02*
X032860Y026574D01*
X032726Y026416D02*
X037638Y026416D01*
X039074Y024513D02*
X027796Y024513D01*
X027846Y024463D02*
X027736Y024573D01*
X027593Y024632D01*
X015258Y024632D01*
X015103Y024632D01*
X014960Y024573D01*
X014354Y023966D01*
X014244Y023857D01*
X014184Y023713D01*
X014184Y023450D01*
X014180Y023446D01*
X014110Y023276D01*
X014110Y023270D01*
X014077Y023237D01*
X014067Y023301D01*
X014042Y023377D01*
X014006Y023448D01*
X013959Y023512D01*
X013903Y023568D01*
X013839Y023615D01*
X013768Y023651D01*
X013693Y023675D01*
X013614Y023688D01*
X013603Y023688D01*
X013603Y023212D01*
X013546Y023212D01*
X013546Y023688D01*
X013535Y023688D01*
X013456Y023675D01*
X013381Y023651D01*
X013310Y023615D01*
X013246Y023568D01*
X013189Y023512D01*
X013143Y023448D01*
X013107Y023377D01*
X013082Y023301D01*
X013070Y023223D01*
X013070Y023211D01*
X013546Y023211D01*
X013546Y023155D01*
X013070Y023155D01*
X013070Y023143D01*
X013082Y023065D01*
X013107Y022989D01*
X013143Y022919D01*
X013189Y022854D01*
X013246Y022798D01*
X013310Y022751D01*
X013381Y022715D01*
X013456Y022691D01*
X013520Y022681D01*
X012677Y021837D01*
X011521Y021837D01*
X011377Y021778D01*
X011267Y021668D01*
X011208Y021524D01*
X011208Y021369D01*
X011267Y021226D01*
X011377Y021116D01*
X011521Y021057D01*
X012916Y021057D01*
X013059Y021116D01*
X013169Y021226D01*
X014661Y022718D01*
X014667Y022718D01*
X014838Y022789D01*
X014969Y022920D01*
X015039Y023091D01*
X015039Y023276D01*
X014969Y023446D01*
X014964Y023450D01*
X014964Y023474D01*
X015342Y023852D01*
X027354Y023852D01*
X027520Y023686D01*
X027456Y023675D01*
X027381Y023651D01*
X027310Y023615D01*
X027246Y023568D01*
X027189Y023512D01*
X027143Y023448D01*
X027107Y023377D01*
X027082Y023301D01*
X027070Y023223D01*
X027070Y023211D01*
X027546Y023211D01*
X027546Y023155D01*
X027070Y023155D01*
X027070Y023143D01*
X027082Y023065D01*
X027107Y022989D01*
X027143Y022919D01*
X027189Y022854D01*
X027246Y022798D01*
X027310Y022751D01*
X027381Y022715D01*
X027456Y022691D01*
X027535Y022678D01*
X027546Y022678D01*
X027546Y023155D01*
X027603Y023155D01*
X027603Y022678D01*
X027614Y022678D01*
X027693Y022691D01*
X027768Y022715D01*
X027839Y022751D01*
X027903Y022798D01*
X027959Y022854D01*
X028006Y022919D01*
X028042Y022989D01*
X028067Y023065D01*
X028077Y023129D01*
X028110Y023096D01*
X028110Y023091D01*
X028180Y022920D01*
X028311Y022789D01*
X028482Y022718D01*
X028667Y022718D01*
X028838Y022789D01*
X028969Y022920D01*
X029039Y023091D01*
X029039Y023276D01*
X028969Y023446D01*
X028838Y023577D01*
X028667Y023648D01*
X028661Y023648D01*
X027846Y024463D01*
X027954Y024355D02*
X039074Y024355D01*
X039074Y024196D02*
X038841Y024196D01*
X038816Y024222D02*
X038451Y024222D01*
X038194Y023964D01*
X038194Y023599D01*
X038451Y023342D01*
X038816Y023342D01*
X039074Y023599D01*
X039074Y023964D01*
X038816Y024222D01*
X039000Y024038D02*
X039074Y024038D01*
X039074Y023879D02*
X039074Y023879D01*
X039074Y023721D02*
X039074Y023721D01*
X039074Y023562D02*
X039036Y023562D01*
X039074Y023404D02*
X038878Y023404D01*
X038816Y023222D02*
X038451Y023222D01*
X038194Y022964D01*
X038194Y022599D01*
X038451Y022342D01*
X038816Y022342D01*
X039074Y022599D01*
X039074Y022964D01*
X038816Y023222D01*
X038951Y023086D02*
X039074Y023086D01*
X039074Y022928D02*
X039074Y022928D01*
X039074Y022769D02*
X039074Y022769D01*
X039074Y022611D02*
X039074Y022611D01*
X039074Y022452D02*
X038926Y022452D01*
X039074Y022294D02*
X014237Y022294D01*
X014395Y022452D02*
X037341Y022452D01*
X037451Y022342D02*
X037816Y022342D01*
X038074Y022599D01*
X038074Y022964D01*
X037816Y023222D01*
X037451Y023222D01*
X037194Y022964D01*
X037194Y022599D01*
X037451Y022342D01*
X037451Y022222D02*
X037194Y021964D01*
X037194Y021599D01*
X037451Y021342D01*
X037816Y021342D01*
X038074Y021599D01*
X038074Y021964D01*
X037816Y022222D01*
X037451Y022222D01*
X037365Y022135D02*
X014078Y022135D01*
X013920Y021977D02*
X037206Y021977D01*
X037194Y021818D02*
X023110Y021818D01*
X023268Y021660D02*
X037194Y021660D01*
X037292Y021501D02*
X023427Y021501D01*
X023585Y021343D02*
X037450Y021343D01*
X037451Y021222D02*
X037194Y020964D01*
X037194Y020599D01*
X037451Y020342D01*
X037816Y020342D01*
X038074Y020599D01*
X038074Y020964D01*
X037816Y021222D01*
X037451Y021222D01*
X037414Y021184D02*
X023744Y021184D01*
X023902Y021025D02*
X037255Y021025D01*
X037194Y020867D02*
X024061Y020867D01*
X024150Y020708D02*
X037194Y020708D01*
X037243Y020550D02*
X024150Y020550D01*
X024150Y020391D02*
X037402Y020391D01*
X037451Y020222D02*
X037194Y019964D01*
X037194Y019599D01*
X036345Y019599D01*
X036345Y019440D02*
X037353Y019440D01*
X037451Y019342D02*
X037816Y019342D01*
X038074Y019599D01*
X038074Y019964D01*
X037816Y020222D01*
X037451Y020222D01*
X037304Y020074D02*
X036061Y020074D01*
X035875Y020074D02*
X024255Y020074D01*
X024228Y020233D02*
X039074Y020233D01*
X039074Y020391D02*
X038865Y020391D01*
X038816Y020342D02*
X038451Y020342D01*
X038194Y020599D01*
X038194Y020964D01*
X038451Y021222D01*
X038816Y021222D01*
X039074Y020964D01*
X039074Y020599D01*
X038816Y020342D01*
X038816Y020222D02*
X038451Y020222D01*
X038194Y019964D01*
X038194Y019599D01*
X038073Y019599D01*
X038194Y019599D02*
X038451Y019342D01*
X038816Y019342D01*
X039074Y019599D01*
X039073Y019599D01*
X039074Y019599D02*
X039074Y019964D01*
X038816Y020222D01*
X038963Y020074D02*
X039074Y020074D01*
X039074Y019916D02*
X039074Y019916D01*
X039074Y019757D02*
X039074Y019757D01*
X039074Y019440D02*
X038914Y019440D01*
X039074Y019281D02*
X036345Y019281D01*
X036345Y019123D02*
X037353Y019123D01*
X037451Y019222D02*
X037194Y018964D01*
X036401Y018964D01*
X036401Y018806D02*
X037194Y018806D01*
X037194Y018964D02*
X037194Y018599D01*
X037451Y018342D01*
X037816Y018342D01*
X038074Y018599D01*
X038074Y018964D01*
X037816Y019222D01*
X037451Y019222D01*
X037451Y019342D02*
X037194Y019599D01*
X037194Y019757D02*
X036263Y019757D01*
X036237Y019916D02*
X037194Y019916D01*
X037963Y020074D02*
X038304Y020074D01*
X038194Y019916D02*
X038074Y019916D01*
X038074Y019757D02*
X038194Y019757D01*
X038353Y019440D02*
X037914Y019440D01*
X037914Y019123D02*
X038353Y019123D01*
X038451Y019222D02*
X038194Y018964D01*
X038073Y018964D01*
X038194Y018964D02*
X038194Y018599D01*
X038451Y018342D01*
X038816Y018342D01*
X039074Y018599D01*
X039074Y018964D01*
X039073Y018964D01*
X039074Y018964D02*
X038816Y019222D01*
X038451Y019222D01*
X038914Y019123D02*
X039074Y019123D01*
X039074Y018806D02*
X039074Y018806D01*
X039074Y018647D02*
X039074Y018647D01*
X039074Y018489D02*
X038963Y018489D01*
X039074Y018330D02*
X036401Y018330D01*
X036401Y018172D02*
X037401Y018172D01*
X037451Y018222D02*
X037194Y017964D01*
X037194Y017599D01*
X037451Y017342D01*
X037816Y017342D01*
X038074Y017599D01*
X038074Y017964D01*
X037816Y018222D01*
X037451Y018222D01*
X037243Y018013D02*
X036401Y018013D01*
X036401Y017855D02*
X037194Y017855D01*
X037194Y017696D02*
X036401Y017696D01*
X036401Y017537D02*
X037255Y017537D01*
X037414Y017379D02*
X036401Y017379D01*
X036401Y017220D02*
X037450Y017220D01*
X037451Y017222D02*
X037194Y016964D01*
X037194Y016599D01*
X037258Y016535D01*
X036835Y016112D01*
X036736Y016112D01*
X036628Y016067D01*
X036545Y015984D01*
X036500Y015876D01*
X036500Y015758D01*
X036545Y015650D01*
X036628Y015567D01*
X036736Y015522D01*
X036854Y015522D01*
X036962Y015567D01*
X037045Y015650D01*
X037090Y015758D01*
X037090Y015857D01*
X037194Y015961D01*
X037194Y015599D01*
X037451Y015342D01*
X037816Y015342D01*
X038074Y015599D01*
X038074Y015964D01*
X037816Y016222D01*
X037454Y016222D01*
X037574Y016342D01*
X037816Y016342D01*
X038074Y016599D01*
X038074Y016964D01*
X037816Y017222D01*
X037451Y017222D01*
X037292Y017062D02*
X036401Y017062D01*
X036401Y016903D02*
X037194Y016903D01*
X037194Y016745D02*
X036401Y016745D01*
X036401Y016586D02*
X037207Y016586D01*
X037151Y016428D02*
X036401Y016428D01*
X036401Y016269D02*
X036993Y016269D01*
X036733Y016111D02*
X036401Y016111D01*
X036401Y015952D02*
X036532Y015952D01*
X036500Y015794D02*
X036401Y015794D01*
X036401Y015635D02*
X036560Y015635D01*
X036401Y015476D02*
X037316Y015476D01*
X037194Y015635D02*
X037030Y015635D01*
X037090Y015794D02*
X037194Y015794D01*
X037184Y015952D02*
X037194Y015952D01*
X037502Y016269D02*
X039074Y016269D01*
X039074Y016111D02*
X038927Y016111D01*
X038816Y016222D02*
X039074Y015964D01*
X039074Y015599D01*
X038816Y015342D01*
X038451Y015342D01*
X038194Y015599D01*
X038194Y015964D01*
X038451Y016222D01*
X038816Y016222D01*
X038958Y016428D02*
X039074Y016428D01*
X038654Y016428D02*
X038613Y016428D01*
X038613Y016586D02*
X038654Y016586D01*
X038654Y016745D02*
X038613Y016745D01*
X038613Y016903D02*
X038654Y016903D01*
X038654Y017062D02*
X038613Y017062D01*
X038613Y017220D02*
X038654Y017220D01*
X038816Y017342D02*
X038451Y017342D01*
X038194Y017599D01*
X038194Y017964D01*
X038451Y018222D01*
X038816Y018222D01*
X039074Y017964D01*
X039074Y017599D01*
X038816Y017342D01*
X038853Y017379D02*
X039074Y017379D01*
X039074Y017537D02*
X039012Y017537D01*
X039074Y017696D02*
X039074Y017696D01*
X039074Y017855D02*
X039074Y017855D01*
X039074Y018013D02*
X039024Y018013D01*
X039074Y018172D02*
X038866Y018172D01*
X038401Y018172D02*
X037866Y018172D01*
X038024Y018013D02*
X038243Y018013D01*
X038194Y017855D02*
X038074Y017855D01*
X038074Y017696D02*
X038194Y017696D01*
X038255Y017537D02*
X038012Y017537D01*
X037853Y017379D02*
X038414Y017379D01*
X038394Y017220D02*
X037817Y017220D01*
X037975Y017062D02*
X038235Y017062D01*
X038154Y016903D02*
X038074Y016903D01*
X038074Y016745D02*
X038154Y016745D01*
X038154Y016586D02*
X038060Y016586D01*
X037902Y016428D02*
X038309Y016428D01*
X038340Y016111D02*
X037927Y016111D01*
X038074Y015952D02*
X038194Y015952D01*
X038194Y015794D02*
X038074Y015794D01*
X038074Y015635D02*
X038194Y015635D01*
X038316Y015476D02*
X037951Y015476D01*
X037878Y015159D02*
X038389Y015159D01*
X038451Y015222D02*
X038194Y014964D01*
X038194Y014599D01*
X038451Y014342D01*
X038816Y014342D01*
X039074Y014599D01*
X039074Y014964D01*
X038816Y015222D01*
X038451Y015222D01*
X038231Y015001D02*
X038036Y015001D01*
X038074Y014842D02*
X038194Y014842D01*
X038194Y014684D02*
X038074Y014684D01*
X037999Y014525D02*
X038268Y014525D01*
X038426Y014367D02*
X037841Y014367D01*
X037816Y014222D02*
X037451Y014222D01*
X037194Y013964D01*
X037194Y013599D01*
X037451Y013342D01*
X037816Y013342D01*
X038074Y013599D01*
X038074Y013964D01*
X037816Y014222D01*
X037829Y014208D02*
X038438Y014208D01*
X038451Y014222D02*
X038194Y013964D01*
X038194Y013599D01*
X038451Y013342D01*
X038816Y013342D01*
X039074Y013599D01*
X039074Y013964D01*
X038816Y014222D01*
X038451Y014222D01*
X038279Y014050D02*
X037988Y014050D01*
X038074Y013891D02*
X038194Y013891D01*
X038194Y013732D02*
X038074Y013732D01*
X038048Y013574D02*
X038219Y013574D01*
X038378Y013415D02*
X037890Y013415D01*
X037816Y013222D02*
X037451Y013222D01*
X037194Y012964D01*
X037194Y012599D01*
X037451Y012342D01*
X037816Y012342D01*
X038074Y012599D01*
X038074Y012964D01*
X037816Y013222D01*
X037939Y013098D02*
X038328Y013098D01*
X038451Y013222D02*
X038194Y012964D01*
X038194Y012599D01*
X038451Y012342D01*
X038816Y012342D01*
X039074Y012599D01*
X039074Y012964D01*
X038816Y013222D01*
X038451Y013222D01*
X038194Y012940D02*
X038074Y012940D01*
X038074Y012781D02*
X038194Y012781D01*
X038194Y012623D02*
X038074Y012623D01*
X037938Y012464D02*
X038329Y012464D01*
X038074Y011964D02*
X037816Y012222D01*
X037451Y012222D01*
X037194Y011964D01*
X037194Y011599D01*
X037451Y011342D01*
X037816Y011342D01*
X038074Y011599D01*
X038074Y011964D01*
X038049Y011988D02*
X038162Y011988D01*
X038154Y011830D02*
X038074Y011830D01*
X038074Y011671D02*
X038154Y011671D01*
X038223Y011513D02*
X037987Y011513D01*
X037828Y011354D02*
X038382Y011354D01*
X038451Y011222D02*
X038194Y010964D01*
X038194Y010599D01*
X038451Y010342D01*
X038816Y010342D01*
X039074Y010599D01*
X039074Y010964D01*
X038816Y011222D01*
X038451Y011222D01*
X038426Y011196D02*
X037842Y011196D01*
X037816Y011222D02*
X037451Y011222D01*
X037194Y010964D01*
X037194Y010599D01*
X037451Y010342D01*
X037816Y010342D01*
X038074Y010599D01*
X038074Y010964D01*
X037816Y011222D01*
X038000Y011037D02*
X038267Y011037D01*
X038194Y010879D02*
X038074Y010879D01*
X038074Y010720D02*
X038194Y010720D01*
X038231Y010562D02*
X038036Y010562D01*
X037877Y010403D02*
X038390Y010403D01*
X038451Y010222D02*
X038194Y009964D01*
X038194Y009599D01*
X038451Y009342D01*
X038816Y009342D01*
X039074Y009599D01*
X039074Y009964D01*
X038816Y010222D01*
X038451Y010222D01*
X038316Y010086D02*
X037951Y010086D01*
X038074Y009964D02*
X037816Y010222D01*
X037451Y010222D01*
X037194Y009964D01*
X037194Y009599D01*
X037451Y009342D01*
X037816Y009342D01*
X038074Y009599D01*
X038074Y009964D01*
X038074Y009927D02*
X038194Y009927D01*
X038194Y009769D02*
X038074Y009769D01*
X038074Y009610D02*
X038194Y009610D01*
X038341Y009452D02*
X037926Y009452D01*
X037816Y009222D02*
X037451Y009222D01*
X037194Y008964D01*
X037194Y008599D01*
X037451Y008342D01*
X036401Y008342D01*
X036401Y008501D02*
X037292Y008501D01*
X037194Y008659D02*
X036401Y008659D01*
X036401Y008818D02*
X037194Y008818D01*
X037206Y008976D02*
X036401Y008976D01*
X036401Y009135D02*
X037364Y009135D01*
X037341Y009452D02*
X036401Y009452D01*
X036401Y009610D02*
X037194Y009610D01*
X037194Y009769D02*
X036401Y009769D01*
X036401Y009927D02*
X037194Y009927D01*
X037316Y010086D02*
X036401Y010086D01*
X036401Y010244D02*
X039074Y010244D01*
X039074Y010086D02*
X038951Y010086D01*
X039074Y009927D02*
X039074Y009927D01*
X039074Y009769D02*
X039074Y009769D01*
X039074Y009610D02*
X039074Y009610D01*
X039074Y009452D02*
X038926Y009452D01*
X039074Y009293D02*
X036401Y009293D01*
X037451Y008342D02*
X037816Y008342D01*
X038451Y008342D01*
X038816Y008342D01*
X039074Y008342D01*
X039074Y008501D02*
X038975Y008501D01*
X039074Y008599D02*
X038816Y008342D01*
X038816Y008222D02*
X038451Y008222D01*
X038194Y007964D01*
X038194Y007599D01*
X038451Y007342D01*
X038816Y007342D01*
X039074Y007599D01*
X039074Y007964D01*
X038816Y008222D01*
X038854Y008183D02*
X039074Y008183D01*
X039074Y008025D02*
X039012Y008025D01*
X039074Y007866D02*
X039074Y007866D01*
X039074Y007708D02*
X039074Y007708D01*
X039074Y007549D02*
X039023Y007549D01*
X039074Y007391D02*
X038865Y007391D01*
X038816Y007222D02*
X038451Y007222D01*
X038194Y006964D01*
X038194Y006599D01*
X038451Y006342D01*
X038816Y006342D01*
X039074Y006599D01*
X039074Y006964D01*
X038816Y007222D01*
X038964Y007074D02*
X039074Y007074D01*
X039074Y007232D02*
X036401Y007232D01*
X036401Y007074D02*
X037303Y007074D01*
X037194Y006964D02*
X037194Y006599D01*
X037451Y006342D01*
X037816Y006342D01*
X038074Y006599D01*
X038074Y006964D01*
X037816Y007222D01*
X037451Y007222D01*
X037194Y006964D01*
X037194Y006915D02*
X036401Y006915D01*
X036401Y006757D02*
X037194Y006757D01*
X037195Y006598D02*
X036401Y006598D01*
X036401Y006439D02*
X037353Y006439D01*
X037451Y006222D02*
X037194Y005964D01*
X036401Y005964D01*
X036401Y006122D02*
X037352Y006122D01*
X037451Y006222D02*
X037816Y006222D01*
X038074Y005964D01*
X038073Y005964D02*
X038194Y005964D01*
X038194Y005599D01*
X038451Y005342D01*
X038816Y005342D01*
X039074Y005599D01*
X039074Y005964D01*
X039073Y005964D01*
X039074Y005964D02*
X038816Y006222D01*
X038451Y006222D01*
X038194Y005964D01*
X038074Y005964D02*
X038074Y005599D01*
X037816Y005342D01*
X037451Y005342D01*
X037194Y005599D01*
X037194Y005964D01*
X037194Y005805D02*
X036401Y005805D01*
X036401Y005647D02*
X037194Y005647D01*
X037305Y005488D02*
X036401Y005488D01*
X036401Y005330D02*
X039074Y005330D01*
X039074Y005488D02*
X038962Y005488D01*
X039074Y005647D02*
X039074Y005647D01*
X039074Y005805D02*
X039074Y005805D01*
X039074Y006122D02*
X038915Y006122D01*
X039074Y006281D02*
X036401Y006281D01*
X037451Y007342D02*
X037816Y007342D01*
X038074Y007599D01*
X038074Y007964D01*
X037816Y008222D01*
X037451Y008222D01*
X037194Y007964D01*
X037194Y007599D01*
X037451Y007342D01*
X037402Y007391D02*
X036401Y007391D01*
X036401Y007549D02*
X037244Y007549D01*
X037194Y007708D02*
X036401Y007708D01*
X036401Y007866D02*
X037194Y007866D01*
X037255Y008025D02*
X036401Y008025D01*
X036401Y008183D02*
X037413Y008183D01*
X037816Y008342D02*
X038074Y008599D01*
X038074Y008964D01*
X037816Y009222D01*
X037903Y009135D02*
X038364Y009135D01*
X038451Y009222D02*
X038194Y008964D01*
X038194Y008599D01*
X038451Y008342D01*
X038413Y008183D02*
X037854Y008183D01*
X038012Y008025D02*
X038255Y008025D01*
X038194Y007866D02*
X038074Y007866D01*
X038074Y007708D02*
X038194Y007708D01*
X038244Y007549D02*
X038023Y007549D01*
X037865Y007391D02*
X038402Y007391D01*
X038303Y007074D02*
X037964Y007074D01*
X038074Y006915D02*
X038194Y006915D01*
X038194Y006757D02*
X038074Y006757D01*
X038072Y006598D02*
X038195Y006598D01*
X038353Y006439D02*
X037914Y006439D01*
X037915Y006122D02*
X038352Y006122D01*
X038194Y005805D02*
X038074Y005805D01*
X038074Y005647D02*
X038194Y005647D01*
X038305Y005488D02*
X037962Y005488D01*
X037816Y005222D02*
X037451Y005222D01*
X037194Y004964D01*
X037194Y004599D01*
X037451Y004342D01*
X037816Y004342D01*
X038074Y004599D01*
X038074Y004964D01*
X037816Y005222D01*
X037866Y005171D02*
X038344Y005171D01*
X038186Y005013D02*
X038025Y005013D01*
X038074Y004854D02*
X038154Y004854D01*
X038154Y004695D02*
X038074Y004695D01*
X038011Y004537D02*
X038199Y004537D01*
X038358Y004378D02*
X037853Y004378D01*
X037414Y004378D02*
X036401Y004378D01*
X036401Y004220D02*
X039074Y004220D01*
X039074Y004378D02*
X038909Y004378D01*
X039068Y004537D02*
X039074Y004537D01*
X038654Y004537D02*
X038613Y004537D01*
X038613Y004695D02*
X038654Y004695D01*
X038654Y004854D02*
X038613Y004854D01*
X038613Y005013D02*
X038654Y005013D01*
X038654Y005171D02*
X038613Y005171D01*
X038923Y005171D02*
X039074Y005171D01*
X038654Y004378D02*
X038613Y004378D01*
X039074Y004061D02*
X036401Y004061D01*
X036401Y003903D02*
X039074Y003903D01*
X039074Y003744D02*
X038538Y003744D01*
X038738Y003586D02*
X039074Y003586D01*
X037651Y003744D02*
X036401Y003744D01*
X036401Y003586D02*
X037450Y003586D01*
X037256Y004537D02*
X036401Y004537D01*
X036401Y004695D02*
X037194Y004695D01*
X037194Y004854D02*
X036401Y004854D01*
X036401Y005013D02*
X037242Y005013D01*
X037401Y005171D02*
X036401Y005171D01*
X038914Y006439D02*
X039074Y006439D01*
X039072Y006598D02*
X039074Y006598D01*
X039074Y006757D02*
X039074Y006757D01*
X039074Y006915D02*
X039074Y006915D01*
X039074Y008599D02*
X039074Y008964D01*
X038816Y009222D01*
X038451Y009222D01*
X038206Y008976D02*
X038061Y008976D01*
X038074Y008818D02*
X038194Y008818D01*
X038194Y008659D02*
X038074Y008659D01*
X037975Y008501D02*
X038292Y008501D01*
X039074Y008659D02*
X039074Y008659D01*
X039074Y008818D02*
X039074Y008818D01*
X039061Y008976D02*
X039074Y008976D01*
X039074Y009135D02*
X038903Y009135D01*
X038877Y010403D02*
X039074Y010403D01*
X039074Y010562D02*
X039036Y010562D01*
X039074Y010720D02*
X039074Y010720D01*
X039074Y010879D02*
X039074Y010879D01*
X039074Y011037D02*
X039000Y011037D01*
X039074Y011196D02*
X038842Y011196D01*
X038885Y011354D02*
X039074Y011354D01*
X039074Y011513D02*
X039044Y011513D01*
X038654Y011513D02*
X038613Y011513D01*
X038613Y011671D02*
X038654Y011671D01*
X038654Y011830D02*
X038613Y011830D01*
X038613Y011988D02*
X038654Y011988D01*
X038654Y012147D02*
X038613Y012147D01*
X038320Y012147D02*
X037890Y012147D01*
X037377Y012147D02*
X036401Y012147D01*
X036401Y011988D02*
X037218Y011988D01*
X037194Y011830D02*
X036401Y011830D01*
X036401Y011671D02*
X037194Y011671D01*
X037280Y011513D02*
X036401Y011513D01*
X036401Y011354D02*
X037439Y011354D01*
X037426Y011196D02*
X036401Y011196D01*
X036401Y011037D02*
X037267Y011037D01*
X037194Y010879D02*
X036401Y010879D01*
X036401Y010720D02*
X037194Y010720D01*
X037231Y010562D02*
X036401Y010562D01*
X036401Y010403D02*
X037390Y010403D01*
X038613Y011354D02*
X038654Y011354D01*
X038947Y012147D02*
X039074Y012147D01*
X039074Y012306D02*
X036401Y012306D01*
X036401Y012464D02*
X037329Y012464D01*
X037194Y012623D02*
X036401Y012623D01*
X036401Y012781D02*
X037194Y012781D01*
X037194Y012940D02*
X036401Y012940D01*
X036401Y013098D02*
X037328Y013098D01*
X037378Y013415D02*
X036401Y013415D01*
X036401Y013257D02*
X039074Y013257D01*
X039074Y013415D02*
X038890Y013415D01*
X039048Y013574D02*
X039074Y013574D01*
X039074Y013732D02*
X039074Y013732D01*
X039074Y013891D02*
X039074Y013891D01*
X039074Y014050D02*
X038988Y014050D01*
X039074Y014208D02*
X038829Y014208D01*
X038841Y014367D02*
X039074Y014367D01*
X039074Y014525D02*
X038999Y014525D01*
X039074Y014684D02*
X039074Y014684D01*
X039074Y014842D02*
X039074Y014842D01*
X039074Y015001D02*
X039036Y015001D01*
X039074Y015159D02*
X038878Y015159D01*
X039074Y015318D02*
X036401Y015318D01*
X036401Y015159D02*
X037389Y015159D01*
X037231Y015001D02*
X036401Y015001D01*
X036401Y014525D02*
X037268Y014525D01*
X037426Y014367D02*
X036401Y014367D01*
X036401Y014208D02*
X037438Y014208D01*
X037279Y014050D02*
X036401Y014050D01*
X036401Y013891D02*
X037194Y013891D01*
X037194Y013732D02*
X036401Y013732D01*
X036401Y013574D02*
X037219Y013574D01*
X038939Y013098D02*
X039074Y013098D01*
X039074Y012940D02*
X039074Y012940D01*
X039074Y012781D02*
X039074Y012781D01*
X039074Y012623D02*
X039074Y012623D01*
X039074Y012464D02*
X038938Y012464D01*
X038951Y015476D02*
X039074Y015476D01*
X039074Y015635D02*
X039074Y015635D01*
X039074Y015794D02*
X039074Y015794D01*
X039074Y015952D02*
X039074Y015952D01*
X039032Y017062D02*
X039074Y017062D01*
X039074Y017220D02*
X038873Y017220D01*
X038304Y018489D02*
X037963Y018489D01*
X038074Y018647D02*
X038194Y018647D01*
X038194Y018806D02*
X038074Y018806D01*
X037304Y018489D02*
X036401Y018489D01*
X036401Y018647D02*
X037194Y018647D01*
X035985Y019123D02*
X035687Y019123D01*
X035528Y019281D02*
X035985Y019281D01*
X035985Y019440D02*
X022338Y019440D01*
X022180Y019599D02*
X035746Y019599D01*
X035673Y019757D02*
X022021Y019757D01*
X021801Y019440D02*
X006314Y019440D01*
X006304Y019459D02*
X006250Y019534D01*
X006183Y019600D01*
X006108Y019655D01*
X006025Y019698D01*
X005936Y019726D01*
X005855Y019739D01*
X005855Y019206D01*
X005739Y019206D01*
X005739Y019739D01*
X005658Y019726D01*
X005569Y019698D01*
X005486Y019655D01*
X005410Y019600D01*
X005344Y019534D01*
X005289Y019459D01*
X005247Y019375D01*
X005218Y019287D01*
X005205Y019206D01*
X005739Y019206D01*
X005739Y019090D01*
X005205Y019090D01*
X005218Y019009D01*
X005247Y018920D01*
X005289Y018837D01*
X005344Y018761D01*
X005410Y018695D01*
X005486Y018640D01*
X005569Y018598D01*
X005658Y018569D01*
X005739Y018556D01*
X005739Y019090D01*
X005855Y019090D01*
X005855Y019206D01*
X006389Y019206D01*
X006376Y019287D01*
X006347Y019375D01*
X006304Y019459D01*
X006185Y019599D02*
X020658Y019599D01*
X020500Y019757D02*
X000854Y019757D01*
X000854Y019599D02*
X001715Y019599D01*
X001733Y019617D02*
X001578Y019461D01*
X001494Y019258D01*
X001494Y019038D01*
X001578Y018834D01*
X001733Y018679D01*
X001937Y018594D01*
X002157Y018594D01*
X002360Y018679D01*
X002516Y018834D01*
X002600Y019038D01*
X002600Y019258D01*
X002516Y019461D01*
X002360Y019617D01*
X002157Y019701D01*
X001937Y019701D01*
X001733Y019617D01*
X001569Y019440D02*
X000854Y019440D01*
X000854Y019281D02*
X001503Y019281D01*
X001494Y019123D02*
X000854Y019123D01*
X000854Y018964D02*
X001524Y018964D01*
X001606Y018806D02*
X000854Y018806D01*
X000854Y018647D02*
X001809Y018647D01*
X002285Y018647D02*
X003059Y018647D01*
X002983Y018679D02*
X003187Y018594D01*
X003407Y018594D01*
X003610Y018679D01*
X003766Y018834D01*
X003850Y019038D01*
X003850Y019258D01*
X003766Y019461D01*
X003610Y019617D01*
X003407Y019701D01*
X003187Y019701D01*
X002983Y019617D01*
X002828Y019461D01*
X002744Y019258D01*
X002744Y019038D01*
X002828Y018834D01*
X002983Y018679D01*
X002856Y018806D02*
X002488Y018806D01*
X002570Y018964D02*
X002774Y018964D01*
X002744Y019123D02*
X002600Y019123D01*
X002591Y019281D02*
X002753Y019281D01*
X002819Y019440D02*
X002525Y019440D01*
X002379Y019599D02*
X002965Y019599D01*
X003629Y019599D02*
X004215Y019599D01*
X004233Y019617D02*
X004078Y019461D01*
X003994Y019258D01*
X003994Y019038D01*
X004078Y018834D01*
X004233Y018679D01*
X004437Y018594D01*
X004657Y018594D01*
X004860Y018679D01*
X005016Y018834D01*
X005100Y019038D01*
X005100Y019258D01*
X005016Y019461D01*
X004860Y019617D01*
X004657Y019701D01*
X004437Y019701D01*
X004233Y019617D01*
X004069Y019440D02*
X003775Y019440D01*
X003841Y019281D02*
X004003Y019281D01*
X003994Y019123D02*
X003850Y019123D01*
X003820Y018964D02*
X004024Y018964D01*
X004106Y018806D02*
X003738Y018806D01*
X003535Y018647D02*
X004309Y018647D01*
X004785Y018647D02*
X005476Y018647D01*
X005312Y018806D02*
X004988Y018806D01*
X005070Y018964D02*
X005233Y018964D01*
X005100Y019123D02*
X005739Y019123D01*
X005855Y019123D02*
X021500Y019123D01*
X021575Y019281D02*
X006376Y019281D01*
X006389Y019090D02*
X005855Y019090D01*
X005855Y018556D01*
X005936Y018569D01*
X006025Y018598D01*
X006108Y018640D01*
X006183Y018695D01*
X006250Y018761D01*
X006304Y018837D01*
X006347Y018920D01*
X006376Y019009D01*
X006389Y019090D01*
X006361Y018964D02*
X010417Y018964D01*
X010417Y018806D02*
X006282Y018806D01*
X006118Y018647D02*
X010417Y018647D01*
X010417Y018489D02*
X000854Y018489D01*
X000854Y018330D02*
X010417Y018330D01*
X010417Y018172D02*
X000854Y018172D01*
X000854Y018013D02*
X010417Y018013D01*
X010417Y017855D02*
X000854Y017855D01*
X000854Y017696D02*
X007769Y017696D01*
X007881Y017807D02*
X007635Y017561D01*
X007635Y017388D01*
X008054Y017388D01*
X008054Y017387D01*
X007635Y017387D01*
X007635Y017214D01*
X007839Y017009D01*
X007733Y016903D01*
X000854Y016903D01*
X000854Y016745D02*
X007675Y016745D01*
X007675Y016763D02*
X007675Y016612D01*
X007733Y016472D01*
X007840Y016365D01*
X007979Y016307D01*
X008130Y016307D01*
X008270Y016365D01*
X008377Y016472D01*
X008435Y016612D01*
X008435Y016763D01*
X008377Y016903D01*
X008270Y017009D01*
X008475Y017214D01*
X008475Y017387D01*
X008055Y017387D01*
X008055Y017388D01*
X008055Y017388D01*
X008055Y017807D01*
X008229Y017807D01*
X008475Y017561D01*
X008475Y017388D01*
X008055Y017388D01*
X008055Y017807D01*
X007881Y017807D01*
X008055Y017696D02*
X008055Y017696D01*
X008055Y017537D02*
X008055Y017537D01*
X008340Y017696D02*
X010417Y017696D01*
X010417Y017537D02*
X008475Y017537D01*
X008475Y017379D02*
X010417Y017379D01*
X010417Y017220D02*
X008475Y017220D01*
X008323Y017062D02*
X010417Y017062D01*
X010417Y016903D02*
X008376Y016903D01*
X008435Y016745D02*
X010417Y016745D01*
X010417Y016586D02*
X008424Y016586D01*
X008332Y016428D02*
X010417Y016428D01*
X010417Y016269D02*
X000854Y016269D01*
X000854Y016111D02*
X010417Y016111D01*
X010417Y015952D02*
X000854Y015952D01*
X000854Y015794D02*
X010417Y015794D01*
X010417Y015635D02*
X009734Y015635D01*
X009720Y015645D02*
X009626Y015700D01*
X009525Y015742D01*
X009419Y015770D01*
X009336Y015781D01*
X009336Y015029D01*
X010087Y015029D01*
X010076Y015112D01*
X010048Y015218D01*
X010006Y015319D01*
X009951Y015414D01*
X009885Y015501D01*
X009807Y015578D01*
X009720Y015645D01*
X009904Y015476D02*
X010417Y015476D01*
X010417Y015318D02*
X010007Y015318D01*
X010064Y015159D02*
X010417Y015159D01*
X010417Y015001D02*
X009336Y015001D01*
X009336Y015029D02*
X009336Y014869D01*
X010087Y014869D01*
X010076Y014786D01*
X010048Y014680D01*
X010006Y014579D01*
X009951Y014484D01*
X009885Y014398D01*
X009807Y014320D01*
X009720Y014253D01*
X009626Y014199D01*
X009525Y014157D01*
X009419Y014129D01*
X009336Y014118D01*
X009336Y014869D01*
X009176Y014869D01*
X009176Y014118D01*
X009092Y014129D01*
X008987Y014157D01*
X008885Y014199D01*
X008791Y014253D01*
X008704Y014320D01*
X008626Y014398D01*
X008560Y014484D01*
X008505Y014579D01*
X008463Y014680D01*
X008435Y014786D01*
X008424Y014869D01*
X009175Y014869D01*
X009175Y015029D01*
X008424Y015029D01*
X008435Y015112D01*
X008463Y015218D01*
X008505Y015319D01*
X008560Y015414D01*
X008626Y015501D01*
X008704Y015578D01*
X008791Y015645D01*
X008885Y015700D01*
X008987Y015742D01*
X009092Y015770D01*
X009176Y015781D01*
X009176Y015029D01*
X009336Y015029D01*
X009336Y015159D02*
X009176Y015159D01*
X009175Y015001D02*
X000854Y015001D01*
X000854Y015159D02*
X008447Y015159D01*
X008504Y015318D02*
X000854Y015318D01*
X000854Y015476D02*
X008608Y015476D01*
X008778Y015635D02*
X000854Y015635D01*
X000854Y016428D02*
X007777Y016428D01*
X007685Y016586D02*
X000854Y016586D01*
X000854Y017062D02*
X007786Y017062D01*
X007733Y016903D02*
X007675Y016763D01*
X007635Y017220D02*
X000854Y017220D01*
X000854Y017379D02*
X007635Y017379D01*
X007635Y017537D02*
X000854Y017537D01*
X000854Y019916D02*
X020341Y019916D01*
X020182Y020074D02*
X000854Y020074D01*
X000854Y020233D02*
X020112Y020233D01*
X020043Y020391D02*
X000854Y020391D01*
X000854Y020550D02*
X020071Y020550D01*
X020256Y020708D02*
X000854Y020708D01*
X000854Y020867D02*
X020699Y020867D01*
X020699Y021025D02*
X000854Y021025D01*
X000854Y021184D02*
X003467Y021184D01*
X003506Y021145D02*
X003680Y021145D01*
X003680Y021565D01*
X003681Y021565D01*
X004100Y021565D01*
X004100Y021739D01*
X003854Y021985D01*
X003681Y021985D01*
X003681Y021565D01*
X003681Y021565D01*
X004100Y021565D01*
X004100Y021391D01*
X003854Y021145D01*
X003681Y021145D01*
X003681Y021565D01*
X003680Y021565D01*
X003680Y021985D01*
X003506Y021985D01*
X003302Y021781D01*
X003196Y021887D01*
X003056Y021945D01*
X002905Y021945D01*
X002765Y021887D01*
X002658Y021780D01*
X002600Y021641D01*
X002600Y021489D01*
X002658Y021350D01*
X002765Y021243D01*
X002905Y021185D01*
X003056Y021185D01*
X003196Y021243D01*
X003302Y021349D01*
X003506Y021145D01*
X003680Y021184D02*
X003681Y021184D01*
X003680Y021343D02*
X003681Y021343D01*
X003680Y021501D02*
X003681Y021501D01*
X003680Y021660D02*
X003681Y021660D01*
X003680Y021818D02*
X003681Y021818D01*
X003680Y021977D02*
X003681Y021977D01*
X003863Y021977D02*
X005467Y021977D01*
X005475Y021985D02*
X005271Y021781D01*
X005164Y021887D01*
X005024Y021945D01*
X004873Y021945D01*
X004734Y021887D01*
X004627Y021780D01*
X004569Y021641D01*
X004569Y021489D01*
X004627Y021350D01*
X004734Y021243D01*
X004873Y021185D01*
X005024Y021185D01*
X005164Y021243D01*
X005271Y021349D01*
X005475Y021145D01*
X005649Y021145D01*
X005823Y021145D01*
X006069Y021391D01*
X006069Y021565D01*
X006069Y021739D01*
X005823Y021985D01*
X005649Y021985D01*
X005649Y021565D01*
X006069Y021565D01*
X005649Y021565D01*
X005649Y021565D01*
X005649Y021145D01*
X005649Y021565D01*
X005649Y021565D01*
X005649Y021565D01*
X005649Y021985D01*
X005475Y021985D01*
X005649Y021977D02*
X005649Y021977D01*
X005649Y021818D02*
X005649Y021818D01*
X005649Y021660D02*
X005649Y021660D01*
X005649Y021501D02*
X005649Y021501D01*
X005649Y021343D02*
X005649Y021343D01*
X005649Y021184D02*
X005649Y021184D01*
X005862Y021184D02*
X011309Y021184D01*
X011219Y021343D02*
X006020Y021343D01*
X006069Y021501D02*
X011208Y021501D01*
X011264Y021660D02*
X006069Y021660D01*
X005990Y021818D02*
X011475Y021818D01*
X011482Y022718D02*
X011667Y022718D01*
X011838Y022789D01*
X011969Y022920D01*
X012039Y023091D01*
X012039Y023276D01*
X011969Y023446D01*
X011838Y023577D01*
X011667Y023648D01*
X011482Y023648D01*
X011311Y023577D01*
X011180Y023446D01*
X011110Y023276D01*
X011110Y023091D01*
X011180Y022920D01*
X011311Y022789D01*
X011482Y022718D01*
X011359Y022769D02*
X006453Y022769D01*
X006439Y022756D02*
X006502Y022818D01*
X006553Y022890D01*
X006593Y022968D01*
X006621Y023052D01*
X006634Y023139D01*
X006634Y023148D01*
X006110Y023148D01*
X006110Y023218D01*
X006634Y023218D01*
X006634Y023227D01*
X006621Y023314D01*
X006593Y023398D01*
X006553Y023477D01*
X006502Y023548D01*
X006439Y023610D01*
X006368Y023662D01*
X006289Y023702D01*
X006206Y023729D01*
X006119Y023743D01*
X006109Y023743D01*
X006109Y023218D01*
X006039Y023218D01*
X006039Y023743D01*
X006030Y023743D01*
X005943Y023729D01*
X005859Y023702D01*
X005781Y023662D01*
X005710Y023610D01*
X005647Y023548D01*
X005596Y023477D01*
X005556Y023398D01*
X005552Y023388D01*
X005515Y023478D01*
X005369Y023624D01*
X005178Y023703D01*
X004971Y023703D01*
X004780Y023624D01*
X004634Y023478D01*
X004554Y023287D01*
X004554Y023080D01*
X004634Y022889D01*
X004780Y022742D01*
X004971Y022663D01*
X005178Y022663D01*
X005369Y022742D01*
X005515Y022889D01*
X005552Y022978D01*
X005556Y022968D01*
X005596Y022890D01*
X005647Y022818D01*
X005710Y022756D01*
X005781Y022704D01*
X005859Y022664D01*
X005943Y022637D01*
X006030Y022623D01*
X006039Y022623D01*
X006039Y023148D01*
X006109Y023148D01*
X006109Y022623D01*
X006119Y022623D01*
X006206Y022637D01*
X006289Y022664D01*
X006368Y022704D01*
X006439Y022756D01*
X006573Y022928D02*
X011177Y022928D01*
X011111Y023086D02*
X006626Y023086D01*
X006632Y023245D02*
X011110Y023245D01*
X011163Y023404D02*
X006591Y023404D01*
X006487Y023562D02*
X011296Y023562D01*
X011853Y023562D02*
X012296Y023562D01*
X012311Y023577D02*
X012180Y023446D01*
X012110Y023276D01*
X012110Y023091D01*
X012180Y022920D01*
X012311Y022789D01*
X012482Y022718D01*
X012667Y022718D01*
X012838Y022789D01*
X012969Y022920D01*
X013039Y023091D01*
X013039Y023276D01*
X012969Y023446D01*
X012838Y023577D01*
X012667Y023648D01*
X012482Y023648D01*
X012311Y023577D01*
X012163Y023404D02*
X011986Y023404D01*
X012039Y023245D02*
X012110Y023245D01*
X012111Y023086D02*
X012038Y023086D01*
X011972Y022928D02*
X012177Y022928D01*
X012359Y022769D02*
X011790Y022769D01*
X012790Y022769D02*
X013285Y022769D01*
X013138Y022928D02*
X012972Y022928D01*
X013038Y023086D02*
X013079Y023086D01*
X013073Y023245D02*
X013039Y023245D01*
X012986Y023404D02*
X013120Y023404D01*
X013240Y023562D02*
X012853Y023562D01*
X013546Y023562D02*
X013603Y023562D01*
X013603Y023404D02*
X013546Y023404D01*
X013546Y023245D02*
X013603Y023245D01*
X013909Y023562D02*
X014184Y023562D01*
X014187Y023721D02*
X006232Y023721D01*
X006109Y023721D02*
X006039Y023721D01*
X005917Y023721D02*
X000854Y023721D01*
X000854Y023879D02*
X014266Y023879D01*
X014425Y024038D02*
X000854Y024038D01*
X000854Y024196D02*
X014583Y024196D01*
X014742Y024355D02*
X000854Y024355D01*
X000854Y024513D02*
X014900Y024513D01*
X015211Y023721D02*
X020417Y023721D01*
X020443Y023729D02*
X020359Y023702D01*
X020281Y023662D01*
X020210Y023610D01*
X020147Y023548D01*
X020096Y023477D01*
X020056Y023398D01*
X020052Y023388D01*
X020015Y023478D01*
X019869Y023624D01*
X019678Y023703D01*
X019471Y023703D01*
X019280Y023624D01*
X019134Y023478D01*
X019054Y023287D01*
X019054Y023080D01*
X019134Y022889D01*
X019280Y022742D01*
X019471Y022663D01*
X019678Y022663D01*
X019869Y022742D01*
X020015Y022889D01*
X020052Y022978D01*
X020056Y022968D01*
X020096Y022890D01*
X020147Y022818D01*
X020210Y022756D01*
X020281Y022704D01*
X020359Y022664D01*
X020443Y022637D01*
X020530Y022623D01*
X020539Y022623D01*
X020539Y023148D01*
X020609Y023148D01*
X020609Y022623D01*
X020619Y022623D01*
X020706Y022637D01*
X020789Y022664D01*
X020868Y022704D01*
X020939Y022756D01*
X021002Y022818D01*
X021053Y022890D01*
X021093Y022968D01*
X021121Y023052D01*
X021134Y023139D01*
X021134Y023148D01*
X020610Y023148D01*
X020610Y023218D01*
X021134Y023218D01*
X021134Y023227D01*
X021121Y023314D01*
X021093Y023398D01*
X021053Y023477D01*
X021002Y023548D01*
X020939Y023610D01*
X020868Y023662D01*
X020789Y023702D01*
X020706Y023729D01*
X020619Y023743D01*
X020609Y023743D01*
X020609Y023218D01*
X020539Y023218D01*
X020539Y023743D01*
X020530Y023743D01*
X020443Y023729D01*
X020539Y023721D02*
X020609Y023721D01*
X020732Y023721D02*
X027485Y023721D01*
X027240Y023562D02*
X026853Y023562D01*
X026838Y023577D02*
X026667Y023648D01*
X026482Y023648D01*
X026311Y023577D01*
X026180Y023446D01*
X026110Y023276D01*
X026110Y023091D01*
X026180Y022920D01*
X026311Y022789D01*
X026482Y022718D01*
X026667Y022718D01*
X026838Y022789D01*
X026969Y022920D01*
X027039Y023091D01*
X027039Y023276D01*
X026969Y023446D01*
X026838Y023577D01*
X026986Y023404D02*
X027120Y023404D01*
X027073Y023245D02*
X027039Y023245D01*
X027038Y023086D02*
X027079Y023086D01*
X027138Y022928D02*
X026972Y022928D01*
X026790Y022769D02*
X027285Y022769D01*
X027546Y022769D02*
X027603Y022769D01*
X027603Y022928D02*
X027546Y022928D01*
X027546Y023086D02*
X027603Y023086D01*
X027864Y022769D02*
X028359Y022769D01*
X028177Y022928D02*
X028011Y022928D01*
X028070Y023086D02*
X028111Y023086D01*
X028790Y022769D02*
X029285Y022769D01*
X029310Y022751D02*
X029246Y022798D01*
X029189Y022854D01*
X029143Y022919D01*
X029107Y022989D01*
X029082Y023065D01*
X029070Y023143D01*
X029070Y023155D01*
X029546Y023155D01*
X029546Y023211D01*
X029070Y023211D01*
X029070Y023223D01*
X029082Y023301D01*
X029107Y023377D01*
X029143Y023448D01*
X029189Y023512D01*
X029246Y023568D01*
X029310Y023615D01*
X029381Y023651D01*
X029456Y023675D01*
X029535Y023688D01*
X029546Y023688D01*
X029546Y023212D01*
X029603Y023212D01*
X029603Y023688D01*
X029614Y023688D01*
X029693Y023675D01*
X029768Y023651D01*
X029839Y023615D01*
X029903Y023568D01*
X029959Y023512D01*
X030006Y023448D01*
X030042Y023377D01*
X030067Y023301D01*
X030079Y023223D01*
X030079Y023211D01*
X029603Y023211D01*
X029603Y023155D01*
X030079Y023155D01*
X030079Y023143D01*
X030067Y023065D01*
X030042Y022989D01*
X030006Y022919D01*
X029959Y022854D01*
X029903Y022798D01*
X029839Y022751D01*
X029768Y022715D01*
X029693Y022691D01*
X029614Y022678D01*
X029603Y022678D01*
X029603Y023155D01*
X029546Y023155D01*
X029546Y022678D01*
X029535Y022678D01*
X029456Y022691D01*
X029381Y022715D01*
X029310Y022751D01*
X029546Y022769D02*
X029603Y022769D01*
X029603Y022928D02*
X029546Y022928D01*
X029546Y023086D02*
X029603Y023086D01*
X029603Y023245D02*
X029546Y023245D01*
X029546Y023404D02*
X029603Y023404D01*
X029603Y023562D02*
X029546Y023562D01*
X029240Y023562D02*
X028853Y023562D01*
X028986Y023404D02*
X029120Y023404D01*
X029073Y023245D02*
X029039Y023245D01*
X029038Y023086D02*
X029079Y023086D01*
X029138Y022928D02*
X028972Y022928D01*
X028588Y023721D02*
X034417Y023721D01*
X034443Y023729D02*
X034359Y023702D01*
X034281Y023662D01*
X034210Y023610D01*
X034147Y023548D01*
X034096Y023477D01*
X034056Y023398D01*
X034052Y023388D01*
X034015Y023478D01*
X033869Y023624D01*
X033678Y023703D01*
X033471Y023703D01*
X033280Y023624D01*
X033134Y023478D01*
X033054Y023287D01*
X033054Y023080D01*
X033134Y022889D01*
X033280Y022742D01*
X033471Y022663D01*
X033678Y022663D01*
X033869Y022742D01*
X034015Y022889D01*
X034052Y022978D01*
X034056Y022968D01*
X034096Y022890D01*
X034147Y022818D01*
X034210Y022756D01*
X034281Y022704D01*
X034359Y022664D01*
X034443Y022637D01*
X034530Y022623D01*
X034539Y022623D01*
X034539Y023148D01*
X034609Y023148D01*
X034609Y022623D01*
X034619Y022623D01*
X034706Y022637D01*
X034789Y022664D01*
X034868Y022704D01*
X034939Y022756D01*
X035002Y022818D01*
X035053Y022890D01*
X035093Y022968D01*
X035121Y023052D01*
X035134Y023139D01*
X035134Y023148D01*
X034610Y023148D01*
X034610Y023218D01*
X035134Y023218D01*
X035134Y023227D01*
X035121Y023314D01*
X035093Y023398D01*
X035053Y023477D01*
X035002Y023548D01*
X034939Y023610D01*
X034868Y023662D01*
X034789Y023702D01*
X034706Y023729D01*
X034619Y023743D01*
X034609Y023743D01*
X034609Y023218D01*
X034539Y023218D01*
X034539Y023743D01*
X034530Y023743D01*
X034443Y023729D01*
X034539Y023721D02*
X034609Y023721D01*
X034732Y023721D02*
X037194Y023721D01*
X037194Y023599D02*
X037451Y023342D01*
X037816Y023342D01*
X038074Y023599D01*
X038074Y023964D01*
X037816Y024222D01*
X037451Y024222D01*
X037194Y023964D01*
X037194Y023599D01*
X037231Y023562D02*
X034987Y023562D01*
X035091Y023404D02*
X037389Y023404D01*
X037316Y023086D02*
X035126Y023086D01*
X035132Y023245D02*
X039074Y023245D01*
X038389Y023404D02*
X037878Y023404D01*
X038036Y023562D02*
X038231Y023562D01*
X038194Y023721D02*
X038074Y023721D01*
X038074Y023879D02*
X038194Y023879D01*
X038268Y024038D02*
X038000Y024038D01*
X037841Y024196D02*
X038426Y024196D01*
X037426Y024196D02*
X028113Y024196D01*
X028271Y024038D02*
X037268Y024038D01*
X037194Y023879D02*
X028430Y023879D01*
X029909Y023562D02*
X030296Y023562D01*
X030311Y023577D02*
X030180Y023446D01*
X030110Y023276D01*
X030110Y023091D01*
X030180Y022920D01*
X030311Y022789D01*
X030482Y022718D01*
X030667Y022718D01*
X030838Y022789D01*
X030969Y022920D01*
X031039Y023091D01*
X031039Y023276D01*
X030969Y023446D01*
X030838Y023577D01*
X030667Y023648D01*
X030482Y023648D01*
X030311Y023577D01*
X030163Y023404D02*
X030029Y023404D01*
X030076Y023245D02*
X030110Y023245D01*
X030111Y023086D02*
X030070Y023086D01*
X030011Y022928D02*
X030177Y022928D01*
X030359Y022769D02*
X029864Y022769D01*
X030790Y022769D02*
X031359Y022769D01*
X031311Y022789D02*
X031482Y022718D01*
X031667Y022718D01*
X031838Y022789D01*
X031969Y022920D01*
X032039Y023091D01*
X032039Y023276D01*
X031969Y023446D01*
X031838Y023577D01*
X031667Y023648D01*
X031482Y023648D01*
X031311Y023577D01*
X031180Y023446D01*
X031110Y023276D01*
X031110Y023091D01*
X031180Y022920D01*
X031311Y022789D01*
X031177Y022928D02*
X030972Y022928D01*
X031038Y023086D02*
X031111Y023086D01*
X031110Y023245D02*
X031039Y023245D01*
X030986Y023404D02*
X031163Y023404D01*
X031296Y023562D02*
X030853Y023562D01*
X031853Y023562D02*
X033218Y023562D01*
X033103Y023404D02*
X031986Y023404D01*
X032039Y023245D02*
X033054Y023245D01*
X033054Y023086D02*
X032038Y023086D01*
X031972Y022928D02*
X033117Y022928D01*
X033253Y022769D02*
X031790Y022769D01*
X033896Y022769D02*
X034196Y022769D01*
X034076Y022928D02*
X034032Y022928D01*
X034046Y023404D02*
X034058Y023404D01*
X034161Y023562D02*
X033931Y023562D01*
X034539Y023562D02*
X034609Y023562D01*
X034609Y023404D02*
X034539Y023404D01*
X034539Y023245D02*
X034609Y023245D01*
X034609Y023086D02*
X034539Y023086D01*
X034539Y022928D02*
X034609Y022928D01*
X034609Y022769D02*
X034539Y022769D01*
X034953Y022769D02*
X037194Y022769D01*
X037194Y022611D02*
X014554Y022611D01*
X014790Y022769D02*
X015285Y022769D01*
X015310Y022751D02*
X015381Y022715D01*
X015456Y022691D01*
X015535Y022678D01*
X015546Y022678D01*
X015546Y023155D01*
X015070Y023155D01*
X015070Y023143D01*
X015082Y023065D01*
X015107Y022989D01*
X015143Y022919D01*
X015189Y022854D01*
X015246Y022798D01*
X015310Y022751D01*
X015546Y022769D02*
X015603Y022769D01*
X015603Y022678D02*
X015614Y022678D01*
X015693Y022691D01*
X015768Y022715D01*
X015839Y022751D01*
X015903Y022798D01*
X015959Y022854D01*
X016006Y022919D01*
X016042Y022989D01*
X016067Y023065D01*
X016079Y023143D01*
X016079Y023155D01*
X015603Y023155D01*
X015603Y023211D01*
X016079Y023211D01*
X016079Y023223D01*
X016067Y023301D01*
X016042Y023377D01*
X016006Y023448D01*
X015959Y023512D01*
X015903Y023568D01*
X015839Y023615D01*
X015768Y023651D01*
X015693Y023675D01*
X015614Y023688D01*
X015603Y023688D01*
X015603Y023212D01*
X015546Y023212D01*
X015546Y023688D01*
X015535Y023688D01*
X015456Y023675D01*
X015381Y023651D01*
X015310Y023615D01*
X015246Y023568D01*
X015189Y023512D01*
X015143Y023448D01*
X015107Y023377D01*
X015082Y023301D01*
X015070Y023223D01*
X015070Y023211D01*
X015546Y023211D01*
X015546Y023155D01*
X015603Y023155D01*
X015603Y022678D01*
X015603Y022928D02*
X015546Y022928D01*
X015546Y023086D02*
X015603Y023086D01*
X015603Y023245D02*
X015546Y023245D01*
X015546Y023404D02*
X015603Y023404D01*
X015603Y023562D02*
X015546Y023562D01*
X015240Y023562D02*
X015052Y023562D01*
X014986Y023404D02*
X015120Y023404D01*
X015073Y023245D02*
X015039Y023245D01*
X015038Y023086D02*
X015079Y023086D01*
X015138Y022928D02*
X014972Y022928D01*
X015864Y022769D02*
X016359Y022769D01*
X016311Y022789D02*
X016482Y022718D01*
X016667Y022718D01*
X016838Y022789D01*
X016969Y022920D01*
X017039Y023091D01*
X017039Y023276D01*
X016969Y023446D01*
X016838Y023577D01*
X016667Y023648D01*
X016482Y023648D01*
X016311Y023577D01*
X016180Y023446D01*
X016110Y023276D01*
X016110Y023091D01*
X016180Y022920D01*
X016311Y022789D01*
X016177Y022928D02*
X016011Y022928D01*
X016070Y023086D02*
X016111Y023086D01*
X016110Y023245D02*
X016076Y023245D01*
X016029Y023404D02*
X016163Y023404D01*
X016296Y023562D02*
X015909Y023562D01*
X016853Y023562D02*
X017296Y023562D01*
X017311Y023577D02*
X017180Y023446D01*
X017110Y023276D01*
X017110Y023091D01*
X017180Y022920D01*
X017311Y022789D01*
X017482Y022718D01*
X017667Y022718D01*
X017838Y022789D01*
X017969Y022920D01*
X018039Y023091D01*
X018039Y023276D01*
X017969Y023446D01*
X017838Y023577D01*
X017667Y023648D01*
X017482Y023648D01*
X017311Y023577D01*
X017163Y023404D02*
X016986Y023404D01*
X017039Y023245D02*
X017110Y023245D01*
X017111Y023086D02*
X017038Y023086D01*
X016972Y022928D02*
X017177Y022928D01*
X017359Y022769D02*
X016790Y022769D01*
X017790Y022769D02*
X019253Y022769D01*
X019117Y022928D02*
X017972Y022928D01*
X018038Y023086D02*
X019054Y023086D01*
X019054Y023245D02*
X018039Y023245D01*
X017986Y023404D02*
X019103Y023404D01*
X019218Y023562D02*
X017853Y023562D01*
X019931Y023562D02*
X020161Y023562D01*
X020058Y023404D02*
X020046Y023404D01*
X020032Y022928D02*
X020076Y022928D01*
X020196Y022769D02*
X019896Y022769D01*
X020539Y022769D02*
X020609Y022769D01*
X020609Y022928D02*
X020539Y022928D01*
X020539Y023086D02*
X020609Y023086D01*
X020609Y023245D02*
X020539Y023245D01*
X020539Y023404D02*
X020609Y023404D01*
X020609Y023562D02*
X020539Y023562D01*
X020987Y023562D02*
X025296Y023562D01*
X025311Y023577D02*
X025180Y023446D01*
X025110Y023276D01*
X025110Y023091D01*
X025180Y022920D01*
X025311Y022789D01*
X025482Y022718D01*
X025667Y022718D01*
X025838Y022789D01*
X025969Y022920D01*
X026039Y023091D01*
X026039Y023276D01*
X025969Y023446D01*
X025838Y023577D01*
X025667Y023648D01*
X025482Y023648D01*
X025311Y023577D01*
X025163Y023404D02*
X021091Y023404D01*
X021132Y023245D02*
X025110Y023245D01*
X025111Y023086D02*
X021126Y023086D01*
X021073Y022928D02*
X025177Y022928D01*
X025359Y022769D02*
X020953Y022769D01*
X021031Y021818D02*
X013761Y021818D01*
X013602Y021660D02*
X020873Y021660D01*
X020714Y021501D02*
X013444Y021501D01*
X013285Y021343D02*
X020699Y021343D01*
X020699Y021184D02*
X013127Y021184D01*
X012816Y021977D02*
X005831Y021977D01*
X005308Y021818D02*
X005233Y021818D01*
X005264Y021343D02*
X005277Y021343D01*
X005436Y021184D02*
X003893Y021184D01*
X004052Y021343D02*
X004634Y021343D01*
X004569Y021501D02*
X004100Y021501D01*
X004100Y021660D02*
X004577Y021660D01*
X004665Y021818D02*
X004021Y021818D01*
X003498Y021977D02*
X000854Y021977D01*
X000854Y022135D02*
X012975Y022135D01*
X013134Y022294D02*
X000854Y022294D01*
X000854Y022452D02*
X013292Y022452D01*
X013451Y022611D02*
X000854Y022611D01*
X000854Y022769D02*
X004753Y022769D01*
X004617Y022928D02*
X000854Y022928D01*
X000854Y023086D02*
X004554Y023086D01*
X004554Y023245D02*
X000854Y023245D01*
X000854Y023404D02*
X004603Y023404D01*
X004718Y023562D02*
X000854Y023562D01*
X000854Y024989D02*
X001179Y024989D01*
X001045Y025148D02*
X000854Y025148D01*
X000854Y025306D02*
X000979Y025306D01*
X000924Y025465D02*
X000854Y025465D01*
X000854Y025623D02*
X000924Y025623D01*
X000924Y025782D02*
X000854Y025782D01*
X000854Y025940D02*
X000982Y025940D01*
X001048Y026099D02*
X000854Y026099D01*
X000854Y026257D02*
X001185Y026257D01*
X001378Y026416D02*
X000854Y026416D01*
X005431Y023562D02*
X005661Y023562D01*
X005558Y023404D02*
X005546Y023404D01*
X005532Y022928D02*
X005576Y022928D01*
X005696Y022769D02*
X005396Y022769D01*
X006039Y022769D02*
X006109Y022769D01*
X006109Y022928D02*
X006039Y022928D01*
X006039Y023086D02*
X006109Y023086D01*
X006109Y023245D02*
X006039Y023245D01*
X006039Y023404D02*
X006109Y023404D01*
X006109Y023562D02*
X006039Y023562D01*
X003340Y021818D02*
X003265Y021818D01*
X003295Y021343D02*
X003309Y021343D01*
X002665Y021343D02*
X000854Y021343D01*
X000854Y021501D02*
X002600Y021501D01*
X002608Y021660D02*
X000854Y021660D01*
X000854Y021818D02*
X002696Y021818D01*
X004879Y019599D02*
X005409Y019599D01*
X005280Y019440D02*
X005025Y019440D01*
X005091Y019281D02*
X005217Y019281D01*
X005739Y019281D02*
X005855Y019281D01*
X005855Y019440D02*
X005739Y019440D01*
X005739Y019599D02*
X005855Y019599D01*
X005855Y018964D02*
X005739Y018964D01*
X005739Y018806D02*
X005855Y018806D01*
X005855Y018647D02*
X005739Y018647D01*
X009176Y015635D02*
X009336Y015635D01*
X009336Y015476D02*
X009176Y015476D01*
X009176Y015318D02*
X009336Y015318D01*
X009336Y014842D02*
X009176Y014842D01*
X009176Y014684D02*
X009336Y014684D01*
X009336Y014525D02*
X009176Y014525D01*
X009176Y014367D02*
X009336Y014367D01*
X009336Y014208D02*
X009176Y014208D01*
X008869Y014208D02*
X000854Y014208D01*
X000854Y014050D02*
X007845Y014050D01*
X007835Y014039D02*
X007792Y013980D01*
X007759Y013916D01*
X007737Y013847D01*
X007726Y013775D01*
X007726Y013749D01*
X008175Y013749D01*
X008175Y013729D01*
X007726Y013729D01*
X007726Y013703D01*
X007737Y013631D01*
X007759Y013563D01*
X007792Y013498D01*
X007835Y013440D01*
X007886Y013388D01*
X007944Y013346D01*
X008009Y013313D01*
X008078Y013291D01*
X008149Y013279D01*
X008176Y013279D01*
X008176Y013729D01*
X008196Y013729D01*
X008196Y013749D01*
X008646Y013749D01*
X008646Y013775D01*
X008634Y013847D01*
X008612Y013916D01*
X008579Y013980D01*
X008536Y014039D01*
X008485Y014090D01*
X008427Y014133D01*
X008362Y014166D01*
X008293Y014188D01*
X008222Y014199D01*
X008196Y014199D01*
X008196Y013749D01*
X008176Y013749D01*
X008176Y014199D01*
X008149Y014199D01*
X008078Y014188D01*
X008009Y014166D01*
X007944Y014133D01*
X007886Y014090D01*
X007835Y014039D01*
X007751Y013891D02*
X000854Y013891D01*
X000854Y013732D02*
X008175Y013732D01*
X008196Y013729D02*
X008196Y013279D01*
X008222Y013279D01*
X008293Y013291D01*
X008362Y013313D01*
X008427Y013346D01*
X008485Y013388D01*
X008536Y013440D01*
X008579Y013498D01*
X008612Y013563D01*
X008634Y013631D01*
X008646Y013703D01*
X008646Y013729D01*
X008196Y013729D01*
X008196Y013732D02*
X010417Y013732D01*
X010417Y013574D02*
X008615Y013574D01*
X008512Y013415D02*
X010417Y013415D01*
X010417Y013257D02*
X006220Y013257D01*
X006266Y013211D02*
X006110Y013367D01*
X005907Y013451D01*
X005687Y013451D01*
X005483Y013367D01*
X005328Y013211D01*
X005244Y013008D01*
X005244Y012788D01*
X005328Y012584D01*
X005483Y012429D01*
X005687Y012344D01*
X005907Y012344D01*
X006110Y012429D01*
X006266Y012584D01*
X006350Y012788D01*
X006350Y013008D01*
X006266Y013211D01*
X006313Y013098D02*
X007931Y013098D01*
X007948Y013115D02*
X007830Y012997D01*
X007806Y012939D01*
X006655Y012939D01*
X006549Y012834D01*
X005615Y011899D01*
X005516Y011899D01*
X005407Y011854D01*
X005324Y011771D01*
X005279Y011663D01*
X005279Y011546D01*
X005324Y011437D01*
X005407Y011354D01*
X005516Y011309D01*
X005571Y011309D01*
X005561Y011299D01*
X005516Y011191D01*
X005516Y011073D01*
X005561Y010965D01*
X005644Y010882D01*
X005752Y010837D01*
X005869Y010837D01*
X005978Y010882D01*
X006048Y010952D01*
X007274Y010952D01*
X007423Y010952D01*
X008044Y011573D01*
X008102Y011549D01*
X008269Y011549D01*
X008423Y011613D01*
X008542Y011731D01*
X008606Y011886D01*
X008606Y012053D01*
X008542Y012207D01*
X008423Y012325D01*
X008329Y012364D01*
X008423Y012403D01*
X008542Y012521D01*
X008606Y012676D01*
X008606Y012843D01*
X008542Y012997D01*
X008423Y013115D01*
X008269Y013179D01*
X008102Y013179D01*
X007948Y013115D01*
X007806Y012940D02*
X006350Y012940D01*
X006348Y012781D02*
X006497Y012781D01*
X006338Y012623D02*
X006282Y012623D01*
X006180Y012464D02*
X006146Y012464D01*
X006021Y012306D02*
X000854Y012306D01*
X000854Y012464D02*
X001698Y012464D01*
X001733Y012429D02*
X001937Y012344D01*
X002157Y012344D01*
X002360Y012429D01*
X002516Y012584D01*
X002600Y012788D01*
X002600Y013008D01*
X002516Y013211D01*
X002360Y013367D01*
X002157Y013451D01*
X001937Y013451D01*
X001733Y013367D01*
X001578Y013211D01*
X001494Y013008D01*
X001494Y012788D01*
X001578Y012584D01*
X001733Y012429D01*
X001562Y012623D02*
X000854Y012623D01*
X000854Y012781D02*
X001496Y012781D01*
X001494Y012940D02*
X000854Y012940D01*
X000854Y013098D02*
X001531Y013098D01*
X001623Y013257D02*
X000854Y013257D01*
X000854Y013415D02*
X001851Y013415D01*
X002243Y013415D02*
X005601Y013415D01*
X005373Y013257D02*
X002470Y013257D01*
X002563Y013098D02*
X005281Y013098D01*
X005244Y012940D02*
X002600Y012940D01*
X002598Y012781D02*
X005246Y012781D01*
X005312Y012623D02*
X002532Y012623D01*
X002396Y012464D02*
X005448Y012464D01*
X005863Y012147D02*
X000854Y012147D01*
X000854Y011988D02*
X005704Y011988D01*
X005383Y011830D02*
X000854Y011830D01*
X000854Y011671D02*
X005283Y011671D01*
X005293Y011513D02*
X000854Y011513D01*
X000854Y011354D02*
X005407Y011354D01*
X005518Y011196D02*
X000854Y011196D01*
X000854Y011037D02*
X005531Y011037D01*
X005651Y010879D02*
X000854Y010879D01*
X000854Y010720D02*
X007861Y010720D01*
X007830Y010751D02*
X007948Y010633D01*
X008102Y010569D01*
X008269Y010569D01*
X008423Y010633D01*
X008542Y010751D01*
X008606Y010906D01*
X008606Y011073D01*
X008542Y011227D01*
X008423Y011345D01*
X008269Y011409D01*
X008102Y011409D01*
X007948Y011345D01*
X007830Y011227D01*
X007766Y011073D01*
X007766Y010906D01*
X007830Y010751D01*
X007777Y010879D02*
X005970Y010879D01*
X007508Y011037D02*
X007766Y011037D01*
X007817Y011196D02*
X007667Y011196D01*
X007825Y011354D02*
X007969Y011354D01*
X007984Y011513D02*
X010417Y011513D01*
X010417Y011671D02*
X008482Y011671D01*
X008582Y011830D02*
X010417Y011830D01*
X010417Y011988D02*
X008606Y011988D01*
X008567Y012147D02*
X010417Y012147D01*
X010417Y012306D02*
X008443Y012306D01*
X008484Y012464D02*
X010417Y012464D01*
X010417Y012623D02*
X008584Y012623D01*
X008606Y012781D02*
X010417Y012781D01*
X010417Y012940D02*
X008565Y012940D01*
X008440Y013098D02*
X010417Y013098D01*
X010417Y013891D02*
X008620Y013891D01*
X008526Y014050D02*
X010417Y014050D01*
X010417Y014208D02*
X009642Y014208D01*
X009854Y014367D02*
X010417Y014367D01*
X010417Y014525D02*
X009975Y014525D01*
X010049Y014684D02*
X010417Y014684D01*
X010417Y014842D02*
X010084Y014842D01*
X008657Y014367D02*
X000854Y014367D01*
X000854Y014525D02*
X008536Y014525D01*
X008462Y014684D02*
X000854Y014684D01*
X000854Y014842D02*
X008427Y014842D01*
X008196Y014050D02*
X008176Y014050D01*
X008176Y013891D02*
X008196Y013891D01*
X008176Y013574D02*
X008196Y013574D01*
X008196Y013415D02*
X008176Y013415D01*
X007859Y013415D02*
X005993Y013415D01*
X007756Y013574D02*
X000854Y013574D01*
X000854Y010562D02*
X008962Y010562D01*
X008987Y010572D02*
X008885Y010530D01*
X008791Y010475D01*
X008704Y010408D01*
X008626Y010331D01*
X008560Y010244D01*
X008505Y010149D01*
X008463Y010048D01*
X008435Y009942D01*
X008424Y009859D01*
X009175Y009859D01*
X009175Y009699D01*
X008424Y009699D01*
X008435Y009616D01*
X008463Y009510D01*
X008505Y009409D01*
X008560Y009314D01*
X008626Y009228D01*
X008704Y009150D01*
X008791Y009083D01*
X008885Y009029D01*
X008987Y008987D01*
X009092Y008959D01*
X009176Y008948D01*
X009176Y009699D01*
X009336Y009699D01*
X009336Y009859D01*
X010087Y009859D01*
X010076Y009942D01*
X010048Y010048D01*
X010006Y010149D01*
X009951Y010244D01*
X009885Y010331D01*
X009807Y010408D01*
X009720Y010475D01*
X009626Y010530D01*
X009525Y010572D01*
X009419Y010600D01*
X009336Y010611D01*
X009336Y009859D01*
X009176Y009859D01*
X009176Y010611D01*
X009092Y010600D01*
X008987Y010572D01*
X009176Y010562D02*
X009336Y010562D01*
X009336Y010403D02*
X009176Y010403D01*
X009176Y010244D02*
X009336Y010244D01*
X009336Y010086D02*
X009176Y010086D01*
X009176Y009927D02*
X009336Y009927D01*
X009336Y009769D02*
X010417Y009769D01*
X010417Y009927D02*
X010078Y009927D01*
X010032Y010086D02*
X010417Y010086D01*
X010417Y010244D02*
X009951Y010244D01*
X009813Y010403D02*
X010417Y010403D01*
X010417Y010562D02*
X009549Y010562D01*
X008699Y010403D02*
X000854Y010403D01*
X000854Y010244D02*
X003561Y010244D01*
X003596Y010280D02*
X003513Y010197D01*
X003468Y010088D01*
X003468Y009971D01*
X003513Y009862D01*
X003544Y009832D01*
X003544Y007983D01*
X003474Y007913D01*
X003429Y007805D01*
X003429Y007687D01*
X003474Y007579D01*
X003557Y007496D01*
X003665Y007451D01*
X003783Y007451D01*
X003891Y007496D01*
X003974Y007579D01*
X004019Y007687D01*
X004019Y007805D01*
X003974Y007913D01*
X003904Y007983D01*
X003904Y009769D01*
X003931Y009780D01*
X004014Y009862D01*
X004058Y009971D01*
X004058Y010088D01*
X004014Y010197D01*
X003931Y010280D01*
X003822Y010325D01*
X003705Y010325D01*
X003596Y010280D01*
X003468Y010086D02*
X000854Y010086D01*
X000854Y009927D02*
X003486Y009927D01*
X003544Y009769D02*
X000854Y009769D01*
X000854Y009610D02*
X003544Y009610D01*
X003544Y009452D02*
X000854Y009452D01*
X000854Y009293D02*
X003544Y009293D01*
X003544Y009135D02*
X000854Y009135D01*
X000854Y008976D02*
X003544Y008976D01*
X003544Y008818D02*
X000854Y008818D01*
X000854Y008659D02*
X001515Y008659D01*
X001523Y008674D02*
X001499Y008633D01*
X001487Y008587D01*
X001487Y008435D01*
X001487Y008283D01*
X001499Y008238D01*
X001523Y008197D01*
X001527Y008193D01*
X001527Y007895D01*
X001576Y007846D01*
X001503Y007846D01*
X001371Y007791D01*
X001270Y007690D01*
X001215Y007558D01*
X001215Y007415D01*
X001270Y007282D01*
X001371Y007181D01*
X001503Y007126D01*
X002087Y007126D01*
X002219Y007181D01*
X002320Y007282D01*
X002375Y007415D01*
X002375Y007558D01*
X002320Y007690D01*
X002219Y007791D01*
X002087Y007846D01*
X002014Y007846D01*
X002063Y007895D01*
X002063Y008193D01*
X002067Y008197D01*
X002091Y008238D01*
X002103Y008283D01*
X002103Y008435D01*
X001795Y008435D01*
X001795Y008435D01*
X002103Y008435D01*
X002103Y008587D01*
X002091Y008633D01*
X002067Y008674D01*
X002033Y008707D01*
X001992Y008731D01*
X001947Y008743D01*
X001795Y008743D01*
X001795Y008436D01*
X001795Y008436D01*
X001795Y008743D01*
X001643Y008743D01*
X001598Y008731D01*
X001556Y008707D01*
X001523Y008674D01*
X001487Y008501D02*
X000854Y008501D01*
X000854Y008342D02*
X001487Y008342D01*
X001487Y008435D02*
X001795Y008435D01*
X001795Y008435D01*
X001487Y008435D01*
X001527Y008183D02*
X000854Y008183D01*
X000854Y008025D02*
X001527Y008025D01*
X001555Y007866D02*
X000854Y007866D01*
X000854Y007708D02*
X001287Y007708D01*
X001215Y007549D02*
X000854Y007549D01*
X000854Y007391D02*
X001225Y007391D01*
X001320Y007232D02*
X000854Y007232D01*
X000854Y007074D02*
X003334Y007074D01*
X003390Y007129D02*
X002897Y006637D01*
X002786Y006526D01*
X002786Y005375D01*
X002726Y005315D01*
X002681Y005206D01*
X002681Y005089D01*
X002726Y004981D01*
X002809Y004898D01*
X002917Y004853D01*
X003035Y004853D01*
X003143Y004898D01*
X003226Y004981D01*
X003271Y005089D01*
X003271Y005206D01*
X003226Y005315D01*
X003166Y005375D01*
X003166Y005649D01*
X003198Y005571D01*
X003281Y005488D01*
X003166Y005488D01*
X003281Y005488D02*
X003390Y005443D01*
X003507Y005443D01*
X003602Y005483D01*
X003675Y005409D01*
X003784Y005365D01*
X003901Y005365D01*
X004009Y005409D01*
X004092Y005492D01*
X004137Y005601D01*
X004137Y005700D01*
X004547Y006109D01*
X004630Y006193D01*
X004639Y006197D01*
X004722Y006280D01*
X004767Y006388D01*
X004767Y006506D01*
X004722Y006614D01*
X004639Y006697D01*
X004531Y006742D01*
X004413Y006742D01*
X004376Y006726D01*
X004704Y007054D01*
X005894Y007054D01*
X006043Y007054D01*
X006594Y007606D01*
X006654Y007666D01*
X006654Y007609D01*
X007031Y007609D01*
X007031Y007608D01*
X007031Y007608D01*
X007031Y007379D01*
X006811Y007379D01*
X006765Y007391D01*
X006724Y007415D01*
X006690Y007449D01*
X006667Y007490D01*
X006654Y007535D01*
X006654Y007608D01*
X007031Y007608D01*
X007031Y007379D01*
X007252Y007379D01*
X007297Y007391D01*
X007339Y007415D01*
X007372Y007449D01*
X007396Y007490D01*
X007408Y007535D01*
X007408Y007608D01*
X007032Y007608D01*
X007032Y007609D01*
X007408Y007609D01*
X007408Y007681D01*
X007396Y007727D01*
X007372Y007768D01*
X007368Y007772D01*
X007368Y007895D01*
X007368Y008092D01*
X007368Y008306D01*
X007286Y008388D01*
X006801Y008388D01*
X006769Y008464D01*
X006759Y008475D01*
X006775Y008475D01*
X006883Y008520D01*
X006966Y008603D01*
X007011Y008711D01*
X007011Y008828D01*
X006969Y008931D01*
X007022Y008983D01*
X007022Y009493D01*
X006940Y009575D01*
X006296Y009575D01*
X006214Y009493D01*
X006214Y008983D01*
X006268Y008930D01*
X006182Y008844D01*
X006064Y008726D01*
X006064Y008608D01*
X005615Y008159D01*
X005516Y008159D01*
X005407Y008114D01*
X005324Y008031D01*
X005279Y007923D01*
X005279Y007806D01*
X005324Y007697D01*
X005407Y007614D01*
X005516Y007569D01*
X005633Y007569D01*
X005742Y007614D01*
X005825Y007697D01*
X005869Y007806D01*
X005869Y007905D01*
X006224Y008260D01*
X006224Y008239D01*
X006269Y008130D01*
X006339Y008060D01*
X006339Y007860D01*
X005894Y007414D01*
X004555Y007414D01*
X004450Y007309D01*
X003898Y006758D01*
X003898Y006609D01*
X003898Y006403D01*
X003522Y006027D01*
X003507Y006033D01*
X003390Y006033D01*
X003281Y005988D01*
X003198Y005905D01*
X003166Y005827D01*
X003166Y006368D01*
X003658Y006861D01*
X003743Y006861D01*
X003852Y006906D01*
X003935Y006988D01*
X003980Y007097D01*
X003980Y007214D01*
X003935Y007323D01*
X003852Y007406D01*
X003743Y007451D01*
X003626Y007451D01*
X003518Y007406D01*
X003435Y007323D01*
X003390Y007214D01*
X003390Y007129D01*
X003397Y007232D02*
X002270Y007232D01*
X002365Y007391D02*
X003503Y007391D01*
X003504Y007549D02*
X002375Y007549D01*
X002303Y007708D02*
X003429Y007708D01*
X003455Y007866D02*
X002034Y007866D01*
X002063Y008025D02*
X003544Y008025D01*
X003544Y008183D02*
X002063Y008183D01*
X002103Y008342D02*
X003544Y008342D01*
X003544Y008501D02*
X002103Y008501D01*
X002075Y008659D02*
X003544Y008659D01*
X003904Y008659D02*
X006064Y008659D01*
X006155Y008818D02*
X003904Y008818D01*
X003904Y008976D02*
X006221Y008976D01*
X006214Y009135D02*
X003904Y009135D01*
X003904Y009293D02*
X006214Y009293D01*
X006214Y009452D02*
X003904Y009452D01*
X003904Y009610D02*
X008436Y009610D01*
X008487Y009452D02*
X007022Y009452D01*
X007022Y009293D02*
X008576Y009293D01*
X008478Y009135D02*
X008724Y009135D01*
X008504Y009109D02*
X008394Y009218D01*
X008250Y009278D01*
X008095Y009278D01*
X007952Y009218D01*
X007842Y009109D01*
X007783Y008965D01*
X007783Y005070D01*
X007823Y004973D01*
X006830Y004973D01*
X006030Y005773D01*
X006030Y005861D01*
X006030Y006010D01*
X005518Y006521D01*
X005434Y006605D01*
X005431Y006614D01*
X005348Y006697D01*
X005239Y006742D01*
X005122Y006742D01*
X005014Y006697D01*
X004931Y006614D01*
X004886Y006506D01*
X004886Y006388D01*
X004931Y006280D01*
X005014Y006197D01*
X005122Y006152D01*
X005239Y006152D01*
X005338Y006193D01*
X005463Y006067D01*
X005368Y006028D01*
X005285Y005945D01*
X005240Y005836D01*
X005240Y005719D01*
X005285Y005611D01*
X005368Y005528D01*
X005476Y005483D01*
X005576Y005483D01*
X006602Y004456D01*
X006751Y004456D01*
X009904Y004456D01*
X009974Y004386D01*
X010083Y004341D01*
X010200Y004341D01*
X010309Y004386D01*
X010391Y004469D01*
X010436Y004577D01*
X010436Y004695D01*
X011557Y004695D01*
X011591Y004661D02*
X011731Y004603D01*
X011882Y004603D01*
X012022Y004661D01*
X012129Y004767D01*
X012187Y004907D01*
X012187Y005058D01*
X012129Y005198D01*
X012022Y005304D01*
X012227Y005509D01*
X012227Y005683D01*
X012227Y005857D01*
X011981Y006103D01*
X011807Y006103D01*
X011807Y005683D01*
X011807Y005683D01*
X012227Y005683D01*
X011807Y005683D01*
X011807Y005683D01*
X011807Y006103D01*
X011633Y006103D01*
X011387Y005857D01*
X011387Y005683D01*
X011806Y005683D01*
X011806Y005683D01*
X011387Y005683D01*
X011387Y005509D01*
X011591Y005304D01*
X011485Y005198D01*
X011427Y005058D01*
X011427Y004907D01*
X011485Y004767D01*
X011591Y004661D01*
X011449Y004854D02*
X010340Y004854D01*
X010309Y004886D02*
X010200Y004931D01*
X010140Y004931D01*
X010243Y005034D01*
X010243Y005068D01*
X010313Y005138D01*
X010358Y005246D01*
X010358Y005364D01*
X010313Y005472D01*
X010230Y005555D01*
X010121Y005600D01*
X010004Y005600D01*
X009896Y005555D01*
X009813Y005472D01*
X009768Y005364D01*
X009768Y005246D01*
X009813Y005138D01*
X009825Y005125D01*
X009673Y004973D01*
X008523Y004973D01*
X008563Y005070D01*
X008563Y008965D01*
X008504Y009109D01*
X008558Y008976D02*
X009027Y008976D01*
X009176Y008976D02*
X009336Y008976D01*
X009336Y008948D02*
X009419Y008959D01*
X009525Y008987D01*
X009626Y009029D01*
X009720Y009083D01*
X009807Y009150D01*
X009885Y009228D01*
X009951Y009314D01*
X010006Y009409D01*
X010048Y009510D01*
X010076Y009616D01*
X010087Y009699D01*
X009336Y009699D01*
X009336Y008948D01*
X009485Y008976D02*
X010417Y008976D01*
X010417Y008818D02*
X008563Y008818D01*
X008563Y008659D02*
X010417Y008659D01*
X010417Y008501D02*
X008563Y008501D01*
X008563Y008342D02*
X010417Y008342D01*
X010417Y008183D02*
X008563Y008183D01*
X008563Y008025D02*
X010417Y008025D01*
X010417Y007866D02*
X008563Y007866D01*
X008563Y007708D02*
X010417Y007708D01*
X010417Y007549D02*
X008563Y007549D01*
X008563Y007391D02*
X010417Y007391D01*
X010417Y007232D02*
X008563Y007232D01*
X008563Y007074D02*
X010417Y007074D01*
X011494Y005964D02*
X008563Y005964D01*
X008563Y006122D02*
X032267Y006122D01*
X032267Y005964D02*
X012120Y005964D01*
X012227Y005805D02*
X032267Y005805D01*
X032267Y005647D02*
X028190Y005647D01*
X028191Y005647D02*
X028126Y005679D01*
X028057Y005702D01*
X027986Y005713D01*
X027959Y005713D01*
X027959Y005263D01*
X027939Y005263D01*
X027939Y005243D01*
X027489Y005243D01*
X027489Y005217D01*
X027501Y005145D01*
X027523Y005077D01*
X027556Y005012D01*
X027599Y004953D01*
X027650Y004902D01*
X027708Y004860D01*
X027773Y004827D01*
X027842Y004804D01*
X027913Y004793D01*
X027939Y004793D01*
X027939Y005243D01*
X027959Y005243D01*
X027959Y004793D01*
X027986Y004793D01*
X028057Y004804D01*
X028126Y004827D01*
X028191Y004860D01*
X028249Y004902D01*
X028300Y004953D01*
X028343Y005012D01*
X028376Y005077D01*
X028398Y005145D01*
X028409Y005217D01*
X028409Y005243D01*
X027960Y005243D01*
X027960Y005263D01*
X028409Y005263D01*
X028409Y005289D01*
X028398Y005361D01*
X028376Y005430D01*
X028343Y005494D01*
X028300Y005553D01*
X028249Y005604D01*
X028191Y005647D01*
X028346Y005488D02*
X032267Y005488D01*
X032267Y005330D02*
X028403Y005330D01*
X028402Y005171D02*
X032267Y005171D01*
X032267Y005013D02*
X029256Y005013D01*
X029239Y005013D02*
X029079Y005013D01*
X029079Y005015D02*
X028996Y005004D01*
X028890Y004976D01*
X028789Y004934D01*
X028695Y004879D01*
X028608Y004812D01*
X028530Y004735D01*
X028464Y004648D01*
X028409Y004553D01*
X028367Y004452D01*
X028339Y004346D01*
X028328Y004263D01*
X029079Y004263D01*
X029079Y004103D01*
X028328Y004103D01*
X028339Y004020D01*
X028367Y003914D01*
X028409Y003813D01*
X028464Y003718D01*
X028530Y003631D01*
X028608Y003554D01*
X028695Y003487D01*
X028789Y003433D01*
X028890Y003391D01*
X028996Y003362D01*
X029079Y003351D01*
X029079Y004103D01*
X029239Y004103D01*
X029239Y003351D01*
X029323Y003362D01*
X029428Y003391D01*
X029530Y003433D01*
X029624Y003487D01*
X029711Y003554D01*
X029789Y003631D01*
X029855Y003718D01*
X029910Y003813D01*
X029952Y003914D01*
X029980Y004020D01*
X029991Y004103D01*
X029240Y004103D01*
X029240Y004263D01*
X029991Y004263D01*
X029980Y004346D01*
X029952Y004452D01*
X029910Y004553D01*
X029855Y004648D01*
X029789Y004735D01*
X029711Y004812D01*
X029624Y004879D01*
X029530Y004934D01*
X029428Y004976D01*
X029323Y005004D01*
X029239Y005015D01*
X029239Y004263D01*
X029079Y004263D01*
X029079Y005015D01*
X029063Y005013D02*
X028343Y005013D01*
X028179Y004854D02*
X028662Y004854D01*
X028500Y004695D02*
X027058Y004695D01*
X027058Y004835D02*
X027058Y004427D01*
X027057Y004425D01*
X027057Y004302D01*
X026975Y004220D01*
X026872Y004220D01*
X026888Y004194D01*
X026900Y004148D01*
X026900Y003967D01*
X026642Y003967D01*
X026642Y003966D01*
X026900Y003966D01*
X026900Y003785D01*
X026888Y003740D01*
X026864Y003699D01*
X026831Y003665D01*
X026790Y003641D01*
X026744Y003629D01*
X026642Y003629D01*
X026642Y003966D01*
X026641Y003966D01*
X026641Y003629D01*
X026539Y003629D01*
X026493Y003641D01*
X026452Y003665D01*
X026419Y003699D01*
X026395Y003740D01*
X026383Y003785D01*
X026383Y003966D01*
X026641Y003966D01*
X026641Y003967D01*
X026383Y003967D01*
X026383Y004148D01*
X026395Y004194D01*
X026410Y004220D01*
X024070Y004220D01*
X024070Y004263D02*
X024070Y004103D01*
X024821Y004103D01*
X024810Y004020D01*
X024782Y003914D01*
X024740Y003813D01*
X024685Y003718D01*
X024619Y003631D01*
X024541Y003554D01*
X024454Y003487D01*
X024360Y003433D01*
X024258Y003391D01*
X024153Y003362D01*
X024069Y003351D01*
X024069Y004103D01*
X023909Y004103D01*
X023158Y004103D01*
X023169Y004020D01*
X023197Y003914D01*
X023239Y003813D01*
X023294Y003718D01*
X023360Y003631D01*
X023438Y003554D01*
X023525Y003487D01*
X023619Y003433D01*
X023720Y003391D01*
X023826Y003362D01*
X023909Y003351D01*
X023909Y004103D01*
X023909Y004263D01*
X023158Y004263D01*
X023169Y004346D01*
X023197Y004452D01*
X023239Y004553D01*
X023294Y004648D01*
X023360Y004735D01*
X023438Y004812D01*
X023525Y004879D01*
X023619Y004934D01*
X023720Y004976D01*
X023826Y005004D01*
X023909Y005015D01*
X023909Y004263D01*
X024069Y004263D01*
X024069Y005015D01*
X024153Y005004D01*
X024258Y004976D01*
X024360Y004934D01*
X024454Y004879D01*
X024541Y004812D01*
X024619Y004735D01*
X024685Y004648D01*
X024740Y004553D01*
X024782Y004452D01*
X024810Y004346D01*
X024821Y004263D01*
X024070Y004263D01*
X024069Y004378D02*
X023909Y004378D01*
X023909Y004220D02*
X018240Y004220D01*
X018240Y004263D02*
X018240Y004103D01*
X018991Y004103D01*
X018980Y004020D01*
X018952Y003914D01*
X018910Y003813D01*
X018855Y003718D01*
X018789Y003631D01*
X018711Y003554D01*
X018624Y003487D01*
X018530Y003433D01*
X018428Y003391D01*
X018323Y003362D01*
X018239Y003351D01*
X018239Y004103D01*
X018079Y004103D01*
X017328Y004103D01*
X017339Y004020D01*
X017367Y003914D01*
X017409Y003813D01*
X017464Y003718D01*
X017530Y003631D01*
X017608Y003554D01*
X017695Y003487D01*
X017789Y003433D01*
X017890Y003391D01*
X017996Y003362D01*
X018079Y003351D01*
X018079Y004103D01*
X018079Y004263D01*
X017328Y004263D01*
X017339Y004346D01*
X017367Y004452D01*
X017409Y004553D01*
X017464Y004648D01*
X017530Y004735D01*
X017608Y004812D01*
X017695Y004879D01*
X017789Y004934D01*
X017890Y004976D01*
X017996Y005004D01*
X018079Y005015D01*
X018079Y004263D01*
X018239Y004263D01*
X018239Y005015D01*
X018323Y005004D01*
X018428Y004976D01*
X018530Y004934D01*
X018624Y004879D01*
X018711Y004812D01*
X018789Y004735D01*
X018855Y004648D01*
X018910Y004553D01*
X018952Y004452D01*
X018980Y004346D01*
X018991Y004263D01*
X018240Y004263D01*
X018239Y004378D02*
X018079Y004378D01*
X018079Y004220D02*
X016045Y004220D01*
X016049Y004224D02*
X016049Y004347D01*
X016050Y004348D01*
X016050Y004833D01*
X016053Y004833D01*
X016207Y004897D01*
X016326Y005015D01*
X016389Y005170D01*
X016389Y005337D01*
X016326Y005491D01*
X016207Y005609D01*
X016053Y005673D01*
X015886Y005673D01*
X015732Y005609D01*
X015613Y005491D01*
X015574Y005397D01*
X015536Y005491D01*
X015417Y005609D01*
X015263Y005673D01*
X015096Y005673D01*
X014942Y005609D01*
X014823Y005491D01*
X014759Y005337D01*
X014759Y005170D01*
X014823Y005015D01*
X014942Y004897D01*
X015096Y004833D01*
X015217Y004833D01*
X015217Y004348D01*
X015218Y004347D01*
X015218Y004224D01*
X015300Y004142D01*
X015403Y004142D01*
X015387Y004115D01*
X015375Y004069D01*
X015375Y003888D01*
X015633Y003888D01*
X015633Y003888D01*
X015375Y003888D01*
X015375Y003707D01*
X015387Y003661D01*
X015411Y003620D01*
X015444Y003586D01*
X015485Y003563D01*
X015531Y003550D01*
X015633Y003550D01*
X015633Y003887D01*
X015634Y003887D01*
X015634Y003550D01*
X015736Y003550D01*
X015782Y003563D01*
X015823Y003586D01*
X015856Y003620D01*
X015880Y003661D01*
X015892Y003707D01*
X015892Y003888D01*
X015892Y004069D01*
X015880Y004115D01*
X015865Y004142D01*
X015967Y004142D01*
X016049Y004224D01*
X016050Y004378D02*
X017347Y004378D01*
X017402Y004537D02*
X016050Y004537D01*
X016050Y004695D02*
X017500Y004695D01*
X017662Y004854D02*
X017179Y004854D01*
X017191Y004860D02*
X017249Y004902D01*
X017300Y004953D01*
X017343Y005012D01*
X017376Y005077D01*
X017398Y005145D01*
X017409Y005217D01*
X017409Y005243D01*
X016960Y005243D01*
X016960Y005263D01*
X017409Y005263D01*
X017409Y005289D01*
X017398Y005361D01*
X017376Y005430D01*
X017343Y005494D01*
X017300Y005553D01*
X017249Y005604D01*
X017191Y005647D01*
X017126Y005679D01*
X017057Y005702D01*
X016986Y005713D01*
X016959Y005713D01*
X016959Y005263D01*
X016939Y005263D01*
X016939Y005243D01*
X016489Y005243D01*
X016489Y005217D01*
X016501Y005145D01*
X016523Y005077D01*
X016556Y005012D01*
X016599Y004953D01*
X016650Y004902D01*
X016708Y004860D01*
X016773Y004827D01*
X016842Y004804D01*
X016913Y004793D01*
X016939Y004793D01*
X016939Y005243D01*
X016959Y005243D01*
X016959Y004793D01*
X016986Y004793D01*
X017057Y004804D01*
X017126Y004827D01*
X017191Y004860D01*
X017343Y005013D02*
X018063Y005013D01*
X018079Y005013D02*
X018239Y005013D01*
X018256Y005013D02*
X021541Y005013D01*
X021537Y005017D02*
X021783Y004771D01*
X021957Y004771D01*
X022131Y004771D01*
X022335Y004975D01*
X022441Y004869D01*
X022581Y004811D01*
X022732Y004811D01*
X022872Y004869D01*
X022979Y004976D01*
X023037Y005115D01*
X023037Y005267D01*
X022979Y005406D01*
X022872Y005513D01*
X022732Y005571D01*
X022581Y005571D01*
X022441Y005513D01*
X022335Y005407D01*
X022131Y005611D01*
X021957Y005611D01*
X021957Y005191D01*
X021957Y004771D01*
X021957Y005191D01*
X021957Y005191D01*
X021957Y005191D01*
X021957Y005611D01*
X021783Y005611D01*
X021537Y005365D01*
X021537Y005191D01*
X021537Y005017D01*
X021537Y005171D02*
X017402Y005171D01*
X017403Y005330D02*
X021537Y005330D01*
X021537Y005191D02*
X021956Y005191D01*
X021537Y005191D01*
X021660Y005488D02*
X017346Y005488D01*
X017190Y005647D02*
X025052Y005647D01*
X025116Y005673D02*
X024962Y005609D01*
X024843Y005491D01*
X024779Y005337D01*
X024779Y005170D01*
X024843Y005015D01*
X024962Y004897D01*
X025116Y004833D01*
X025283Y004833D01*
X025437Y004897D01*
X025556Y005015D01*
X025619Y005170D01*
X025619Y005337D01*
X025556Y005491D01*
X025437Y005609D01*
X025283Y005673D01*
X025116Y005673D01*
X025347Y005647D02*
X026032Y005647D01*
X026096Y005673D02*
X025942Y005609D01*
X025823Y005491D01*
X025759Y005337D01*
X025759Y005170D01*
X025823Y005015D01*
X025942Y004897D01*
X026096Y004833D01*
X026225Y004833D01*
X026225Y004427D01*
X026226Y004425D01*
X026226Y004302D01*
X026308Y004220D01*
X026410Y004220D01*
X026383Y004061D02*
X024816Y004061D01*
X024777Y003903D02*
X026383Y003903D01*
X026394Y003744D02*
X024700Y003744D01*
X024573Y003586D02*
X028576Y003586D01*
X028449Y003744D02*
X026889Y003744D01*
X026900Y003903D02*
X028372Y003903D01*
X028333Y004061D02*
X026900Y004061D01*
X026873Y004220D02*
X029079Y004220D01*
X029079Y004378D02*
X029239Y004378D01*
X029240Y004220D02*
X032267Y004220D01*
X032267Y004378D02*
X029972Y004378D01*
X029917Y004537D02*
X032267Y004537D01*
X032267Y004695D02*
X029819Y004695D01*
X029657Y004854D02*
X032267Y004854D01*
X032267Y004061D02*
X029986Y004061D01*
X029947Y003903D02*
X032267Y003903D01*
X032267Y003744D02*
X029870Y003744D01*
X029743Y003586D02*
X032267Y003586D01*
X032267Y003427D02*
X029516Y003427D01*
X029239Y003427D02*
X029079Y003427D01*
X029079Y003586D02*
X029239Y003586D01*
X029239Y003744D02*
X029079Y003744D01*
X029079Y003903D02*
X029239Y003903D01*
X029239Y004061D02*
X029079Y004061D01*
X029079Y004537D02*
X029239Y004537D01*
X029239Y004695D02*
X029079Y004695D01*
X029079Y004854D02*
X029239Y004854D01*
X028402Y004537D02*
X027058Y004537D01*
X027057Y004378D02*
X028347Y004378D01*
X027959Y004854D02*
X027939Y004854D01*
X027939Y005013D02*
X027959Y005013D01*
X027959Y005171D02*
X027939Y005171D01*
X027939Y005263D02*
X027489Y005263D01*
X027489Y005289D01*
X027501Y005361D01*
X027523Y005430D01*
X027556Y005494D01*
X027599Y005553D01*
X027650Y005604D01*
X027708Y005647D01*
X027773Y005679D01*
X027842Y005702D01*
X027913Y005713D01*
X027939Y005713D01*
X027939Y005263D01*
X027939Y005330D02*
X027959Y005330D01*
X027959Y005488D02*
X027939Y005488D01*
X027939Y005647D02*
X027959Y005647D01*
X027709Y005647D02*
X027117Y005647D01*
X027053Y005673D02*
X027207Y005609D01*
X027326Y005491D01*
X027389Y005337D01*
X027389Y005170D01*
X027326Y005015D01*
X027207Y004897D01*
X027058Y004835D01*
X027103Y004854D02*
X027720Y004854D01*
X027556Y005013D02*
X027323Y005013D01*
X027389Y005171D02*
X027497Y005171D01*
X027496Y005330D02*
X027389Y005330D01*
X027327Y005488D02*
X027553Y005488D01*
X027053Y005673D02*
X026886Y005673D01*
X026732Y005609D01*
X026613Y005491D01*
X026574Y005397D01*
X026536Y005491D01*
X026417Y005609D01*
X026263Y005673D01*
X026096Y005673D01*
X026327Y005647D02*
X026822Y005647D01*
X026612Y005488D02*
X026537Y005488D01*
X026179Y005253D02*
X026445Y004988D01*
X026445Y004518D01*
X026225Y004537D02*
X024747Y004537D01*
X024802Y004378D02*
X026226Y004378D01*
X026225Y004695D02*
X024649Y004695D01*
X024487Y004854D02*
X025066Y004854D01*
X025333Y004854D02*
X026046Y004854D01*
X025826Y005013D02*
X025553Y005013D01*
X025619Y005171D02*
X025759Y005171D01*
X025759Y005330D02*
X025619Y005330D01*
X025557Y005488D02*
X025822Y005488D01*
X026838Y005122D02*
X026969Y005253D01*
X026838Y005122D02*
X026838Y004518D01*
X026641Y003903D02*
X026642Y003903D01*
X026641Y003744D02*
X026642Y003744D01*
X028803Y003427D02*
X024346Y003427D01*
X024069Y003427D02*
X023909Y003427D01*
X023909Y003586D02*
X024069Y003586D01*
X024069Y003744D02*
X023909Y003744D01*
X023909Y003903D02*
X024069Y003903D01*
X024069Y004061D02*
X023909Y004061D01*
X023279Y003744D02*
X018870Y003744D01*
X018947Y003903D02*
X023202Y003903D01*
X023163Y004061D02*
X018986Y004061D01*
X018972Y004378D02*
X023177Y004378D01*
X023232Y004537D02*
X018917Y004537D01*
X018819Y004695D02*
X023330Y004695D01*
X023492Y004854D02*
X022836Y004854D01*
X022994Y005013D02*
X023893Y005013D01*
X023909Y005013D02*
X024069Y005013D01*
X024086Y005013D02*
X024846Y005013D01*
X024779Y005171D02*
X023037Y005171D01*
X023011Y005330D02*
X024779Y005330D01*
X024842Y005488D02*
X022897Y005488D01*
X022417Y005488D02*
X022254Y005488D01*
X021957Y005488D02*
X021957Y005488D01*
X021957Y005330D02*
X021957Y005330D01*
X021956Y005191D02*
X021956Y005191D01*
X021957Y005171D02*
X021957Y005171D01*
X021957Y005013D02*
X021957Y005013D01*
X021957Y004854D02*
X021957Y004854D01*
X022214Y004854D02*
X022477Y004854D01*
X021700Y004854D02*
X018657Y004854D01*
X018239Y004854D02*
X018079Y004854D01*
X018079Y004695D02*
X018239Y004695D01*
X018239Y004537D02*
X018079Y004537D01*
X018079Y004061D02*
X018239Y004061D01*
X018239Y003903D02*
X018079Y003903D01*
X018079Y003744D02*
X018239Y003744D01*
X018239Y003586D02*
X018079Y003586D01*
X018079Y003427D02*
X018239Y003427D01*
X018516Y003427D02*
X023633Y003427D01*
X023406Y003586D02*
X018743Y003586D01*
X017803Y003427D02*
X013346Y003427D01*
X013360Y003433D02*
X013454Y003487D01*
X013541Y003554D01*
X013619Y003631D01*
X013685Y003718D01*
X013740Y003813D01*
X013782Y003914D01*
X013810Y004020D01*
X013821Y004103D01*
X013070Y004103D01*
X013070Y004263D01*
X013821Y004263D01*
X013810Y004346D01*
X013782Y004452D01*
X013740Y004553D01*
X013685Y004648D01*
X013619Y004735D01*
X013541Y004812D01*
X013454Y004879D01*
X013360Y004934D01*
X013258Y004976D01*
X013153Y005004D01*
X013069Y005015D01*
X013069Y004263D01*
X012909Y004263D01*
X012909Y004103D01*
X012158Y004103D01*
X012169Y004020D01*
X012197Y003914D01*
X012239Y003813D01*
X012294Y003718D01*
X012360Y003631D01*
X012438Y003554D01*
X012525Y003487D01*
X012619Y003433D01*
X012720Y003391D01*
X012826Y003362D01*
X012909Y003351D01*
X012909Y004103D01*
X013069Y004103D01*
X013069Y003351D01*
X013153Y003362D01*
X013258Y003391D01*
X013360Y003433D01*
X013573Y003586D02*
X015445Y003586D01*
X015375Y003744D02*
X013700Y003744D01*
X013777Y003903D02*
X015375Y003903D01*
X015375Y004061D02*
X013816Y004061D01*
X013802Y004378D02*
X015217Y004378D01*
X015222Y004220D02*
X013070Y004220D01*
X013069Y004378D02*
X012909Y004378D01*
X012909Y004263D02*
X012909Y005015D01*
X012826Y005004D01*
X012720Y004976D01*
X012619Y004934D01*
X012525Y004879D01*
X012438Y004812D01*
X012360Y004735D01*
X012294Y004648D01*
X012239Y004553D01*
X012197Y004452D01*
X012169Y004346D01*
X012158Y004263D01*
X012909Y004263D01*
X012909Y004220D02*
X002023Y004220D01*
X002033Y004226D02*
X002067Y004260D01*
X002091Y004301D01*
X002103Y004346D01*
X002103Y004498D01*
X001795Y004498D01*
X001795Y004190D01*
X001947Y004190D01*
X001992Y004202D01*
X002033Y004226D01*
X002103Y004378D02*
X009992Y004378D01*
X010291Y004378D02*
X012177Y004378D01*
X012232Y004537D02*
X010420Y004537D01*
X010436Y004695D02*
X010391Y004803D01*
X010309Y004886D01*
X010221Y005013D02*
X011427Y005013D01*
X011474Y005171D02*
X010326Y005171D01*
X010358Y005330D02*
X011566Y005330D01*
X011407Y005488D02*
X010297Y005488D01*
X009829Y005488D02*
X008563Y005488D01*
X008563Y005330D02*
X009768Y005330D01*
X009799Y005171D02*
X008563Y005171D01*
X008539Y005013D02*
X009712Y005013D01*
X008563Y005647D02*
X011387Y005647D01*
X011387Y005805D02*
X008563Y005805D01*
X008563Y006281D02*
X032267Y006281D01*
X032267Y006439D02*
X008563Y006439D01*
X008563Y006598D02*
X032267Y006598D01*
X032267Y006757D02*
X008563Y006757D01*
X008563Y006915D02*
X032267Y006915D01*
X032267Y003269D02*
X002684Y003269D01*
X002744Y003124D02*
X002606Y003458D01*
X002350Y003714D01*
X002015Y003853D01*
X001653Y003853D01*
X001319Y003714D01*
X001063Y003458D01*
X000924Y003124D01*
X000924Y002762D01*
X001063Y002428D01*
X001319Y002172D01*
X001653Y002033D01*
X002015Y002033D01*
X002350Y002172D01*
X002606Y002428D01*
X002744Y002762D01*
X002744Y003124D01*
X002744Y003110D02*
X032267Y003110D01*
X032267Y002951D02*
X002744Y002951D01*
X002744Y002793D02*
X032267Y002793D01*
X032267Y002634D02*
X002691Y002634D01*
X002626Y002476D02*
X032267Y002476D01*
X032267Y002317D02*
X002495Y002317D01*
X002319Y002159D02*
X032267Y002159D01*
X032267Y002000D02*
X000854Y002000D01*
X000854Y002159D02*
X001350Y002159D01*
X001173Y002317D02*
X000854Y002317D01*
X000854Y002476D02*
X001043Y002476D01*
X000977Y002634D02*
X000854Y002634D01*
X000854Y002793D02*
X000924Y002793D01*
X000924Y002951D02*
X000854Y002951D01*
X000854Y003110D02*
X000924Y003110D01*
X000984Y003269D02*
X000854Y003269D01*
X000854Y003427D02*
X001050Y003427D01*
X001190Y003586D02*
X000854Y003586D01*
X000854Y003744D02*
X001391Y003744D01*
X001598Y004202D02*
X001643Y004190D01*
X001795Y004190D01*
X001795Y004498D01*
X001795Y004498D01*
X001795Y004498D01*
X002103Y004498D01*
X002103Y004650D01*
X002091Y004696D01*
X002091Y004695D02*
X006363Y004695D01*
X006521Y004537D02*
X002103Y004537D01*
X002091Y004696D02*
X002067Y004737D01*
X002063Y004741D01*
X002063Y005038D01*
X001985Y005116D01*
X001985Y005126D01*
X002087Y005126D01*
X002219Y005181D01*
X002320Y005282D01*
X002375Y005415D01*
X002375Y005558D01*
X002320Y005690D01*
X002219Y005791D01*
X002087Y005846D01*
X001503Y005846D01*
X001371Y005791D01*
X001270Y005690D01*
X001215Y005558D01*
X001215Y005415D01*
X001270Y005282D01*
X001371Y005181D01*
X001503Y005126D01*
X001605Y005126D01*
X001605Y005116D01*
X001527Y005038D01*
X001527Y004741D01*
X001523Y004737D01*
X001499Y004696D01*
X001487Y004650D01*
X001487Y004498D01*
X001487Y004346D01*
X001499Y004301D01*
X001523Y004260D01*
X001556Y004226D01*
X001598Y004202D01*
X001567Y004220D02*
X000854Y004220D01*
X000854Y004378D02*
X001487Y004378D01*
X001487Y004498D02*
X001795Y004498D01*
X001795Y004498D01*
X001487Y004498D01*
X001487Y004537D02*
X000854Y004537D01*
X000854Y004695D02*
X001499Y004695D01*
X001527Y004854D02*
X000854Y004854D01*
X000854Y005013D02*
X001527Y005013D01*
X001395Y005171D02*
X000854Y005171D01*
X000854Y005330D02*
X001250Y005330D01*
X001215Y005488D02*
X000854Y005488D01*
X000854Y005647D02*
X001252Y005647D01*
X001404Y005805D02*
X000854Y005805D01*
X000854Y005964D02*
X002786Y005964D01*
X002786Y006122D02*
X000854Y006122D01*
X000854Y006281D02*
X002786Y006281D01*
X002786Y006439D02*
X000854Y006439D01*
X000854Y006598D02*
X002858Y006598D01*
X002897Y006637D02*
X002897Y006637D01*
X003017Y006757D02*
X000854Y006757D01*
X000854Y006915D02*
X003176Y006915D01*
X003396Y006598D02*
X003898Y006598D01*
X003898Y006757D02*
X003554Y006757D01*
X003861Y006915D02*
X004056Y006915D01*
X003970Y007074D02*
X004214Y007074D01*
X004373Y007232D02*
X003972Y007232D01*
X003867Y007391D02*
X004531Y007391D01*
X004019Y007708D02*
X005320Y007708D01*
X005279Y007866D02*
X003994Y007866D01*
X003904Y008025D02*
X005322Y008025D01*
X005639Y008183D02*
X003904Y008183D01*
X003904Y008342D02*
X005798Y008342D01*
X005956Y008501D02*
X003904Y008501D01*
X003944Y007549D02*
X006029Y007549D01*
X006187Y007708D02*
X005829Y007708D01*
X005869Y007866D02*
X006339Y007866D01*
X006339Y008025D02*
X005990Y008025D01*
X006148Y008183D02*
X006247Y008183D01*
X006837Y008501D02*
X007783Y008501D01*
X007783Y008659D02*
X006990Y008659D01*
X007011Y008818D02*
X007783Y008818D01*
X007787Y008976D02*
X007014Y008976D01*
X007022Y009135D02*
X007868Y009135D01*
X007783Y008342D02*
X007332Y008342D01*
X007368Y008183D02*
X007783Y008183D01*
X007783Y008025D02*
X007368Y008025D01*
X007368Y007866D02*
X007783Y007866D01*
X007783Y007708D02*
X007401Y007708D01*
X007408Y007549D02*
X007783Y007549D01*
X007783Y007391D02*
X007295Y007391D01*
X007031Y007391D02*
X007031Y007391D01*
X007031Y007549D02*
X007031Y007549D01*
X006767Y007391D02*
X006379Y007391D01*
X006538Y007549D02*
X006654Y007549D01*
X006221Y007232D02*
X007783Y007232D01*
X007783Y007074D02*
X006062Y007074D01*
X006296Y006906D02*
X006214Y006824D01*
X006214Y006314D01*
X006296Y006232D01*
X006940Y006232D01*
X007022Y006314D01*
X007022Y006824D01*
X006940Y006906D01*
X006296Y006906D01*
X006214Y006757D02*
X004406Y006757D01*
X004565Y006915D02*
X007783Y006915D01*
X007783Y006757D02*
X007022Y006757D01*
X007022Y006598D02*
X007783Y006598D01*
X007783Y006439D02*
X007022Y006439D01*
X006988Y006281D02*
X007783Y006281D01*
X007783Y006122D02*
X005917Y006122D01*
X006030Y005964D02*
X007783Y005964D01*
X007783Y005805D02*
X006030Y005805D01*
X006157Y005647D02*
X007783Y005647D01*
X007783Y005488D02*
X006315Y005488D01*
X006474Y005330D02*
X007783Y005330D01*
X007783Y005171D02*
X006632Y005171D01*
X006791Y005013D02*
X007807Y005013D01*
X006204Y004854D02*
X003038Y004854D01*
X002914Y004854D02*
X002063Y004854D01*
X002063Y005013D02*
X002713Y005013D01*
X002681Y005171D02*
X002195Y005171D01*
X002340Y005330D02*
X002741Y005330D01*
X002786Y005488D02*
X002375Y005488D01*
X002338Y005647D02*
X002786Y005647D01*
X002786Y005805D02*
X002186Y005805D01*
X003166Y005647D02*
X003167Y005647D01*
X003211Y005330D02*
X005729Y005330D01*
X005887Y005171D02*
X003271Y005171D01*
X003239Y005013D02*
X006046Y005013D01*
X005463Y005488D02*
X004088Y005488D01*
X004137Y005647D02*
X005270Y005647D01*
X005240Y005805D02*
X004242Y005805D01*
X004401Y005964D02*
X005304Y005964D01*
X005408Y006122D02*
X004560Y006122D01*
X004723Y006281D02*
X004930Y006281D01*
X004886Y006439D02*
X004767Y006439D01*
X004729Y006598D02*
X004924Y006598D01*
X005442Y006598D02*
X006214Y006598D01*
X006214Y006439D02*
X005600Y006439D01*
X005759Y006281D02*
X006247Y006281D01*
X003898Y006439D02*
X003237Y006439D01*
X003166Y006281D02*
X003776Y006281D01*
X003617Y006122D02*
X003166Y006122D01*
X003166Y005964D02*
X003257Y005964D01*
X001795Y004378D02*
X001795Y004378D01*
X001795Y004220D02*
X001795Y004220D01*
X002278Y003744D02*
X012279Y003744D01*
X012202Y003903D02*
X000854Y003903D01*
X000854Y004061D02*
X012163Y004061D01*
X012406Y003586D02*
X002478Y003586D01*
X002619Y003427D02*
X012633Y003427D01*
X012909Y003427D02*
X013069Y003427D01*
X013069Y003586D02*
X012909Y003586D01*
X012909Y003744D02*
X013069Y003744D01*
X013069Y003903D02*
X012909Y003903D01*
X012909Y004061D02*
X013069Y004061D01*
X013069Y004537D02*
X012909Y004537D01*
X012909Y004695D02*
X013069Y004695D01*
X013069Y004854D02*
X012909Y004854D01*
X012909Y005013D02*
X013069Y005013D01*
X013086Y005013D02*
X013846Y005013D01*
X013843Y005015D02*
X013962Y004897D01*
X014116Y004833D01*
X014283Y004833D01*
X014437Y004897D01*
X014556Y005015D01*
X014619Y005170D01*
X014619Y005337D01*
X014556Y005491D01*
X014437Y005609D01*
X014283Y005673D01*
X014116Y005673D01*
X013962Y005609D01*
X013843Y005491D01*
X013779Y005337D01*
X013779Y005170D01*
X013843Y005015D01*
X013779Y005171D02*
X012140Y005171D01*
X012187Y005013D02*
X012893Y005013D01*
X012492Y004854D02*
X012165Y004854D01*
X012057Y004695D02*
X012330Y004695D01*
X012048Y005330D02*
X013779Y005330D01*
X013842Y005488D02*
X012206Y005488D01*
X012227Y005647D02*
X014052Y005647D01*
X014347Y005647D02*
X015032Y005647D01*
X014822Y005488D02*
X014557Y005488D01*
X014619Y005330D02*
X014759Y005330D01*
X014759Y005171D02*
X014619Y005171D01*
X014553Y005013D02*
X014826Y005013D01*
X015046Y004854D02*
X014333Y004854D01*
X014066Y004854D02*
X013487Y004854D01*
X013649Y004695D02*
X015217Y004695D01*
X015217Y004537D02*
X013747Y004537D01*
X015179Y005253D02*
X015437Y004996D01*
X015437Y004439D01*
X015830Y004439D02*
X015830Y005114D01*
X015969Y005253D01*
X015822Y005647D02*
X015327Y005647D01*
X015537Y005488D02*
X015612Y005488D01*
X016117Y005647D02*
X016709Y005647D01*
X016708Y005647D02*
X016650Y005604D01*
X016599Y005553D01*
X016556Y005494D01*
X016523Y005430D01*
X016501Y005361D01*
X016489Y005289D01*
X016489Y005263D01*
X016939Y005263D01*
X016939Y005713D01*
X016913Y005713D01*
X016842Y005702D01*
X016773Y005679D01*
X016708Y005647D01*
X016553Y005488D02*
X016327Y005488D01*
X016389Y005330D02*
X016496Y005330D01*
X016497Y005171D02*
X016389Y005171D01*
X016323Y005013D02*
X016556Y005013D01*
X016720Y004854D02*
X016103Y004854D01*
X016939Y004854D02*
X016959Y004854D01*
X016959Y005013D02*
X016939Y005013D01*
X016939Y005171D02*
X016959Y005171D01*
X016959Y005330D02*
X016939Y005330D01*
X016939Y005488D02*
X016959Y005488D01*
X016959Y005647D02*
X016939Y005647D01*
X017333Y004061D02*
X015892Y004061D01*
X015892Y003903D02*
X017372Y003903D01*
X017449Y003744D02*
X015892Y003744D01*
X015892Y003888D02*
X015634Y003888D01*
X015892Y003888D01*
X015634Y003888D02*
X015634Y003888D01*
X015633Y003744D02*
X015634Y003744D01*
X015633Y003586D02*
X015634Y003586D01*
X015822Y003586D02*
X017576Y003586D01*
X011807Y005805D02*
X011807Y005805D01*
X011807Y005964D02*
X011807Y005964D01*
X010417Y009135D02*
X009787Y009135D01*
X009935Y009293D02*
X010417Y009293D01*
X010417Y009452D02*
X010024Y009452D01*
X010075Y009610D02*
X010417Y009610D01*
X009336Y009610D02*
X009176Y009610D01*
X009176Y009452D02*
X009336Y009452D01*
X009336Y009293D02*
X009176Y009293D01*
X009176Y009135D02*
X009336Y009135D01*
X009175Y009769D02*
X003905Y009769D01*
X004040Y009927D02*
X008433Y009927D01*
X008479Y010086D02*
X004058Y010086D01*
X003966Y010244D02*
X008560Y010244D01*
X008510Y010720D02*
X010417Y010720D01*
X010417Y010879D02*
X008594Y010879D01*
X008606Y011037D02*
X010417Y011037D01*
X010417Y011196D02*
X008555Y011196D01*
X008402Y011354D02*
X010417Y011354D01*
X001795Y008659D02*
X001795Y008659D01*
X001795Y008501D02*
X001795Y008501D01*
X020421Y020708D02*
X020699Y020708D01*
X020699Y020550D02*
X020605Y020550D01*
X021079Y020550D02*
X023770Y020550D01*
X023770Y020391D02*
X021173Y020391D01*
X021179Y020233D02*
X023693Y020233D01*
X023665Y020074D02*
X021076Y020074D01*
X020878Y019916D02*
X023736Y019916D01*
X024185Y019916D02*
X035700Y019916D01*
X037865Y020391D02*
X038402Y020391D01*
X038243Y020550D02*
X038024Y020550D01*
X038074Y020708D02*
X038194Y020708D01*
X038194Y020867D02*
X038074Y020867D01*
X038012Y021025D02*
X038255Y021025D01*
X038414Y021184D02*
X037853Y021184D01*
X037817Y021343D02*
X038450Y021343D01*
X038451Y021342D02*
X038816Y021342D01*
X039074Y021599D01*
X039074Y021964D01*
X038816Y022222D01*
X038451Y022222D01*
X038194Y021964D01*
X038194Y021599D01*
X038451Y021342D01*
X038292Y021501D02*
X037975Y021501D01*
X038074Y021660D02*
X038194Y021660D01*
X038194Y021818D02*
X038074Y021818D01*
X038061Y021977D02*
X038206Y021977D01*
X038365Y022135D02*
X037902Y022135D01*
X037926Y022452D02*
X038341Y022452D01*
X038194Y022611D02*
X038074Y022611D01*
X038074Y022769D02*
X038194Y022769D01*
X038194Y022928D02*
X038074Y022928D01*
X037951Y023086D02*
X038316Y023086D01*
X038902Y022135D02*
X039074Y022135D01*
X039061Y021977D02*
X039074Y021977D01*
X039074Y021818D02*
X039074Y021818D01*
X039074Y021660D02*
X039074Y021660D01*
X039074Y021501D02*
X038975Y021501D01*
X039074Y021343D02*
X038817Y021343D01*
X038853Y021184D02*
X039074Y021184D01*
X039074Y021025D02*
X039012Y021025D01*
X039074Y020867D02*
X039074Y020867D01*
X039074Y020708D02*
X039074Y020708D01*
X039074Y020550D02*
X039024Y020550D01*
X037194Y022928D02*
X035073Y022928D01*
X032423Y026416D02*
X024726Y026416D01*
X024860Y026574D02*
X032289Y026574D01*
X026296Y023562D02*
X025853Y023562D01*
X025986Y023404D02*
X026163Y023404D01*
X026110Y023245D02*
X026039Y023245D01*
X026038Y023086D02*
X026111Y023086D01*
X026177Y022928D02*
X025972Y022928D01*
X025790Y022769D02*
X026359Y022769D01*
X023682Y020708D02*
X021079Y020708D01*
X021079Y020867D02*
X022745Y020867D01*
X023207Y020867D02*
X023524Y020867D01*
X023365Y021025D02*
X023271Y021025D01*
X022889Y021501D02*
X022140Y021501D01*
X022001Y021501D02*
X021252Y021501D01*
X021093Y021343D02*
X021806Y021343D01*
X021776Y021184D02*
X021079Y021184D01*
X021079Y021025D02*
X021839Y021025D01*
X024423Y026416D02*
X018726Y026416D01*
X018860Y026574D02*
X024289Y026574D01*
X018423Y026416D02*
X010726Y026416D01*
X010860Y026574D02*
X018289Y026574D01*
X014163Y023404D02*
X014029Y023404D01*
X014076Y023245D02*
X014085Y023245D01*
X023909Y004854D02*
X024069Y004854D01*
X024069Y004695D02*
X023909Y004695D01*
X023909Y004537D02*
X024069Y004537D01*
D27*
X010141Y004636D02*
X006677Y004636D01*
X005535Y005778D01*
X005850Y005699D02*
X005850Y005935D01*
X005338Y006447D01*
X005181Y006447D01*
X004472Y006447D02*
X004472Y006289D01*
X003842Y005660D01*
X003488Y005738D02*
X003449Y005738D01*
X003488Y005738D02*
X004078Y006329D01*
X004078Y006683D01*
X004630Y007234D01*
X005968Y007234D01*
X006519Y007786D01*
X006519Y008297D01*
X006244Y008534D02*
X006244Y008652D01*
X006362Y008770D01*
X006716Y008770D01*
X006244Y008534D02*
X005574Y007864D01*
X004472Y007667D02*
X004354Y007667D01*
X003724Y007746D02*
X003724Y009990D01*
X003763Y010030D01*
X004630Y010069D02*
X004708Y010069D01*
X005811Y011132D02*
X007348Y011132D01*
X008186Y011969D01*
X008186Y012759D02*
X006729Y012759D01*
X005574Y011604D01*
X002582Y010108D02*
X002582Y010030D01*
X003645Y006368D02*
X003724Y006368D01*
X004787Y005778D02*
X004787Y005699D01*
X005850Y005699D02*
X006756Y004793D01*
X009748Y004793D01*
X010063Y005108D01*
X010063Y005305D01*
X008449Y003967D02*
X008449Y003927D01*
X008409Y003888D01*
X004708Y003927D02*
X004708Y003849D01*
X001677Y022510D02*
X001677Y022667D01*
X035968Y019793D02*
X036165Y019597D01*
X036165Y014911D01*
X036295Y014782D01*
X037634Y014782D01*
X036795Y015817D02*
X037634Y016656D01*
X037634Y016782D01*
D28*
X004708Y010069D03*
D29*
X013291Y020148D03*
M02*
