G75*
G70*
%OFA0B0*%
%FSLAX24Y24*%
%IPPOS*%
%LPD*%
%AMOC8*
5,1,8,0,0,1.08239X$1,22.5*
%
%ADD10C,0.0760*%
%ADD11C,0.0650*%
%ADD12C,0.0560*%
%ADD13C,0.1310*%
%ADD14C,0.0768*%
%ADD15C,0.0600*%
%ADD16OC8,0.0630*%
%ADD17C,0.0630*%
%ADD18C,0.1185*%
%ADD19OC8,0.0520*%
%ADD20C,0.0700*%
%ADD21C,0.0120*%
D10*
X010610Y014086D03*
X011610Y014086D03*
X027610Y013786D03*
X028610Y013786D03*
X028911Y005087D03*
X027911Y005087D03*
D11*
X025910Y005086D03*
X024910Y005086D03*
X023910Y005086D03*
X022910Y005086D03*
X021910Y005086D03*
X020910Y005086D03*
X019910Y005086D03*
D12*
X022115Y012926D03*
X023095Y012926D03*
X023885Y012926D03*
X024865Y012926D03*
X017095Y012926D03*
X016115Y012926D03*
X015325Y012926D03*
X014345Y012926D03*
D13*
X013135Y013996D03*
X018305Y013996D03*
X020905Y013996D03*
X026075Y013996D03*
D14*
X025841Y010186D03*
X027810Y010186D03*
X021510Y010186D03*
X019542Y010186D03*
X016410Y010186D03*
X014441Y010186D03*
X010110Y010186D03*
X008142Y010186D03*
D15*
X014510Y007486D02*
X015110Y007486D01*
X015110Y006486D02*
X014510Y006486D01*
X014510Y005486D02*
X015110Y005486D01*
D16*
X016710Y005786D03*
X016710Y006986D03*
X021910Y006886D03*
X010110Y012486D03*
D17*
X009110Y012486D03*
X016710Y007986D03*
X016710Y004786D03*
X022910Y006886D03*
D18*
X004760Y012286D03*
X003460Y014086D03*
D19*
X005010Y004686D03*
X005910Y004686D03*
X005910Y005686D03*
X005010Y005686D03*
X003510Y006786D03*
X003510Y007786D03*
X024810Y007886D03*
X024810Y006886D03*
X027810Y007486D03*
X028810Y007486D03*
D20*
X026912Y006086D02*
X027911Y005087D01*
X026912Y006086D02*
X019810Y006086D01*
X017910Y007986D01*
X016710Y007986D01*
X015310Y007986D01*
X014810Y007486D01*
X011110Y007486D01*
X009110Y009486D01*
X009110Y012486D01*
X009110Y014086D01*
X003460Y014086D01*
X004760Y012286D02*
X006860Y010186D01*
X008142Y010186D01*
X011610Y011586D02*
X011610Y014086D01*
X010310Y015386D02*
X009110Y014186D01*
X009110Y014086D01*
X010310Y015386D02*
X021910Y015386D01*
X022010Y015286D01*
X027110Y015286D01*
X027610Y014786D01*
X027610Y013786D01*
X024865Y012926D02*
X024865Y012541D01*
X024110Y011786D01*
X018235Y011786D01*
X017095Y012926D01*
X016410Y010186D02*
X014441Y010186D01*
X013010Y010186D01*
X011610Y011586D01*
X014810Y005486D02*
X015510Y004786D01*
X016710Y004786D01*
X022910Y006886D02*
X022910Y007256D01*
X024626Y008971D01*
X025841Y010186D01*
X027810Y010186D01*
X025841Y010186D02*
X024865Y011162D01*
X024865Y012926D01*
D21*
X023885Y012926D02*
X023885Y012661D01*
X023510Y012286D01*
X018610Y012286D01*
X017410Y013486D01*
X016675Y013486D01*
X016115Y012926D01*
X015325Y012926D02*
X015325Y013801D01*
X016410Y014886D01*
X021710Y014886D01*
X022910Y013686D01*
X022910Y013111D01*
X023095Y012926D01*
X024626Y008971D02*
X024810Y008786D01*
X024810Y007886D01*
X024810Y006886D02*
X027210Y006886D01*
X027810Y007486D01*
X009110Y009486D02*
X008410Y009486D01*
X007010Y008086D01*
X007010Y005786D01*
X005910Y004686D01*
X005010Y004686D02*
X003510Y006186D01*
X003510Y006786D01*
X005010Y005686D02*
X005910Y005686D01*
M02*
