M48
T01C0.0150
T02C0.0236
T03C0.0280
T04C0.0360
T05C0.0394
T06C0.0400
T07C0.0433
T08C0.0460
T09C0.0551
T10C0.0910
T11C0.1260
G90
M72
%
T04
X8321Y54239
X8321Y53259
X8321Y52469
X8321Y51489
X14334Y45753
X15314Y45753
X16104Y45753
X17084Y45753
X25334Y45753
X26314Y45753
X27104Y45753
X28084Y45753
X8321Y79889
X8321Y78909
X8321Y78119
X8321Y77139
X14334Y71403
X15314Y71403
X16104Y71403
X17084Y71403
X25334Y71403
X26314Y71403
X27104Y71403
X28084Y71403
X8456Y28724
X8456Y27744
X8456Y26954
X8456Y25974
X14469Y20238
X15449Y20238
X16239Y20238
X17219Y20238
X25469Y20238
X26449Y20238
X27239Y20238
X28219Y20238
X8321Y105134
X8321Y104154
X8321Y103364
X8321Y102384
X14334Y96648
X15314Y96648
X16104Y96648
X17084Y96648
X25334Y96648
X26314Y96648
X27104Y96648
X28084Y96648
T03
X22792Y45691
X22092Y45691
X11942Y45483
X11942Y46183
X8190Y57187
X8190Y57887
X5784Y62065
X5084Y62065
X3815Y62065
X3115Y62065
X22792Y71341
X22092Y71341
X11942Y71133
X11942Y71833
X8190Y82837
X8190Y83537
X5784Y87715
X5084Y87715
X3815Y87715
X3115Y87715
X22927Y20176
X22227Y20176
X12077Y19968
X12077Y20668
X8325Y31672
X8325Y32372
X5919Y36550
X5219Y36550
X3950Y36550
X3250Y36550
X22792Y96586
X22092Y96586
X11942Y96378
X11942Y97078
X8190Y108082
X8190Y108782
X5784Y112960
X5084Y112960
X3815Y112960
X3115Y112960
T05
X13426Y60648
X13426Y86298
X13561Y35133
X13426Y111543
T02
X10058Y121097
X13562Y121097
X19508Y121232
X23012Y121232
X33143Y121097
X36647Y121097
X14783Y121232
X18287Y121232
X743Y121097
X4247Y121097
X28823Y121097
X32327Y121097
X24233Y121232
X27737Y121232
X5333Y121097
X8837Y121097
T01
X11180Y121117
X11495Y121471
X11810Y121117
X12125Y121471
X12440Y121117
X20630Y121252
X20945Y121606
X21260Y121252
X21575Y121606
X21890Y121252
X4843Y44427
X4922Y46199
X5670Y46278
X5316Y46947
X4607Y46947
X3780Y46868
X3584Y46238
X3977Y46160
X4489Y48167
X3859Y48246
X5709Y48364
X8308Y48994
X5946Y51632
X5709Y52104
X4843Y50569
X3898Y50530
X2717Y50530
X8308Y45648
X8584Y44467
X10276Y45136
X10198Y45805
X27087Y59309
X25198Y61081
X22796Y60097
X21300Y59663
X20473Y60923
X19213Y60963
X21497Y61868
X11733Y61947
X1812Y63010
X33308Y58797
X34922Y58797
X35513Y57734
X36930Y56317
X36103Y60293
X4843Y70077
X4922Y71849
X5670Y71928
X5316Y72597
X4607Y72597
X3780Y72518
X3584Y71888
X3977Y71810
X4489Y73817
X3859Y73896
X5709Y74014
X8308Y74644
X5946Y77282
X5709Y77754
X4843Y76219
X3898Y76180
X2717Y76180
X8308Y71298
X8584Y70117
X10276Y70786
X10198Y71455
X27087Y84959
X25198Y86731
X22796Y85747
X21300Y85313
X20473Y86573
X19213Y86613
X21497Y87518
X11733Y87597
X1812Y88660
X33308Y84447
X34922Y84447
X35513Y83384
X36930Y81967
X36103Y85943
X34265Y121117
X34580Y121471
X34895Y121117
X35210Y121471
X35525Y121117
X15905Y121252
X16220Y121606
X16535Y121252
X16850Y121606
X17165Y121252
X1865Y121117
X2180Y121471
X2495Y121117
X2810Y121471
X3125Y121117
X29945Y121117
X30260Y121471
X30575Y121117
X30890Y121471
X31205Y121117
X4978Y18912
X5057Y20684
X5805Y20763
X5451Y21432
X4742Y21432
X3915Y21353
X3719Y20723
X4112Y20645
X4624Y22652
X3994Y22731
X5844Y22849
X8443Y23479
X6081Y26117
X5844Y26589
X4978Y25054
X4033Y25015
X2852Y25015
X8443Y20133
X8719Y18952
X10411Y19621
X10333Y20290
X27222Y33794
X25333Y35566
X22931Y34582
X21435Y34148
X20608Y35408
X19348Y35448
X21632Y36353
X11868Y36432
X1947Y37495
X33443Y33282
X35057Y33282
X35648Y32219
X37065Y30802
X36238Y34778
X25355Y121252
X25670Y121606
X25985Y121252
X26300Y121606
X26615Y121252
X6455Y121117
X6770Y121471
X7085Y121117
X7400Y121471
X7715Y121117
X4843Y95322
X4922Y97094
X5670Y97173
X5316Y97842
X4607Y97842
X3780Y97763
X3584Y97133
X3977Y97055
X4489Y99062
X3859Y99141
X5709Y99259
X8308Y99889
X5946Y102527
X5709Y102999
X4843Y101464
X3898Y101425
X2717Y101425
X8308Y96543
X8584Y95362
X10276Y96031
X10198Y96700
X27087Y110204
X25198Y111976
X22796Y110992
X21300Y110558
X20473Y111818
X19213Y111858
X21497Y112763
X11733Y112842
X1812Y113905
X33308Y109692
X34922Y109692
X35513Y108629
X36930Y107212
X36103Y111188
T06
X37769Y60282
X38769Y60282
X38769Y59282
X37769Y59282
X37769Y58282
X38769Y58282
X38769Y57282
X37769Y57282
X37769Y56282
X38769Y56282
X38769Y55282
X37769Y55282
X37769Y54282
X38769Y54282
X38769Y53282
X37769Y53282
X37769Y52282
X38769Y52282
X38769Y51282
X37769Y51282
X37769Y50282
X38769Y50282
X38769Y49282
X37769Y49282
X37769Y48282
X38769Y48282
X38769Y47282
X38769Y46282
X37769Y46282
X37769Y47282
X37769Y45282
X38769Y45282
X38769Y61282
X37769Y61282
X37769Y62282
X38769Y62282
X38769Y63282
X37769Y63282
X37769Y64282
X38769Y64282
X37769Y85932
X38769Y85932
X38769Y84932
X37769Y84932
X37769Y83932
X38769Y83932
X38769Y82932
X37769Y82932
X37769Y81932
X38769Y81932
X38769Y80932
X37769Y80932
X37769Y79932
X38769Y79932
X38769Y78932
X37769Y78932
X37769Y77932
X38769Y77932
X38769Y76932
X37769Y76932
X37769Y75932
X38769Y75932
X38769Y74932
X37769Y74932
X37769Y73932
X38769Y73932
X38769Y72932
X38769Y71932
X37769Y71932
X37769Y72932
X37769Y70932
X38769Y70932
X38769Y86932
X37769Y86932
X37769Y87932
X38769Y87932
X38769Y88932
X37769Y88932
X37769Y89932
X38769Y89932
X37904Y34767
X38904Y34767
X38904Y33767
X37904Y33767
X37904Y32767
X38904Y32767
X38904Y31767
X37904Y31767
X37904Y30767
X38904Y30767
X38904Y29767
X37904Y29767
X37904Y28767
X38904Y28767
X38904Y27767
X37904Y27767
X37904Y26767
X38904Y26767
X38904Y25767
X37904Y25767
X37904Y24767
X38904Y24767
X38904Y23767
X37904Y23767
X37904Y22767
X38904Y22767
X38904Y21767
X38904Y20767
X37904Y20767
X37904Y21767
X37904Y19767
X38904Y19767
X38904Y35767
X37904Y35767
X37904Y36767
X38904Y36767
X38904Y37767
X37904Y37767
X37904Y38767
X38904Y38767
X37769Y111177
X38769Y111177
X38769Y110177
X37769Y110177
X37769Y109177
X38769Y109177
X38769Y108177
X37769Y108177
X37769Y107177
X38769Y107177
X38769Y106177
X37769Y106177
X37769Y105177
X38769Y105177
X38769Y104177
X37769Y104177
X37769Y103177
X38769Y103177
X38769Y102177
X37769Y102177
X37769Y101177
X38769Y101177
X38769Y100177
X37769Y100177
X37769Y99177
X38769Y99177
X38769Y98177
X38769Y97177
X37769Y97177
X37769Y98177
X37769Y96177
X38769Y96177
X38769Y112177
X37769Y112177
X37769Y113177
X38769Y113177
X38769Y114177
X37769Y114177
X37769Y115177
X38769Y115177
T09
X5932Y59648
X4682Y59648
X3432Y59648
X2182Y59648
X2182Y53398
X5932Y53398
X5932Y85298
X4682Y85298
X3432Y85298
X2182Y85298
X2182Y79048
X5932Y79048
X6067Y34133
X4817Y34133
X3567Y34133
X2317Y34133
X2317Y27883
X6067Y27883
X5932Y110543
X4682Y110543
X3432Y110543
X2182Y110543
X2182Y104293
X5932Y104293
T11
X1969Y43443
X1969Y66120
X38229Y66120
X38229Y43443
X1969Y69093
X1969Y91770
X38229Y91770
X38229Y69093
X2104Y17928
X2104Y40605
X38364Y40605
X38364Y17928
X1969Y94338
X1969Y117015
X38229Y117015
X38229Y94338
T08
X6209Y63683
X5209Y63683
X19709Y63683
X20709Y63683
X33709Y63683
X34709Y63683
X6209Y89333
X5209Y89333
X19709Y89333
X20709Y89333
X33709Y89333
X34709Y89333
X6344Y38168
X5344Y38168
X19844Y38168
X20844Y38168
X33844Y38168
X34844Y38168
X6209Y114578
X5209Y114578
X19709Y114578
X20709Y114578
X33709Y114578
X34709Y114578
T07
X31709Y63683
X30709Y63683
X29709Y63683
X28709Y63683
X27709Y63683
X26709Y63683
X25709Y63683
X17709Y63683
X16709Y63683
X15709Y63683
X14709Y63683
X13709Y63683
X12709Y63683
X11709Y63683
X31709Y89333
X30709Y89333
X29709Y89333
X28709Y89333
X27709Y89333
X26709Y89333
X25709Y89333
X17709Y89333
X16709Y89333
X15709Y89333
X14709Y89333
X13709Y89333
X12709Y89333
X11709Y89333
X31844Y38168
X30844Y38168
X29844Y38168
X28844Y38168
X27844Y38168
X26844Y38168
X25844Y38168
X17844Y38168
X16844Y38168
X15844Y38168
X14844Y38168
X13844Y38168
X12844Y38168
X11844Y38168
X31709Y114578
X30709Y114578
X29709Y114578
X28709Y114578
X27709Y114578
X26709Y114578
X25709Y114578
X17709Y114578
X16709Y114578
X15709Y114578
X14709Y114578
X13709Y114578
X12709Y114578
X11709Y114578
T10
X9391Y55449
X9391Y50279
X13124Y44683
X18294Y44683
X24124Y44683
X29294Y44683
X9391Y81099
X9391Y75929
X13124Y70333
X18294Y70333
X24124Y70333
X29294Y70333
X9526Y29934
X9526Y24764
X13259Y19168
X18429Y19168
X24259Y19168
X29429Y19168
X9391Y106344
X9391Y101174
X13124Y95578
X18294Y95578
X24124Y95578
X29294Y95578
M30
