G75*
G70*
%OFA0B0*%
%FSLAX24Y24*%
%IPPOS*%
%LPD*%
G04 *
G04 macro definitions for tiled file 'solderStiched.GBS':*
G04 *
%AMOC8*
5,1,8,0,0,1.08239X$1,22.5*
%
G04 *
G04 aperture list for tiled file 'solderStiched.GBS':*
G04 *
%ADD21OC8,0.0680*%
%ADD18C,0.0640*%
%ADD11C,0.0476*%
%ADD15C,0.0560*%
%ADD20R,0.0237X0.0395*%
%ADD22R,0.0474X0.0178*%
%ADD19C,0.1390*%
%ADD14OC8,0.0560*%
%ADD23R,0.0608X0.0474*%
%ADD13C,0.0907*%
%ADD16C,0.0730*%
%ADD12C,0.1340*%
%ADD10C,0.0390*%
%ADD24C,0.0671*%
%ADD17C,0.0840*%
G04 *
G04 next data from source file './FFC-Adapteranothercopy/bottom_soldermask.GBS', *
G04 source file key is 'infile_0003'. *
G04 *
D10*
X011180Y121117D03*
X011495Y121471D03*
X011810Y121117D03*
X012125Y121471D03*
X012440Y121117D03*
D11*
X010058Y121097D03*
X013562Y121097D03*
G04 *
G04 next data from source file './FFC-Adapter5thcopy/bottom_soldermask.GBS', *
G04 source file key is 'infile_0010'. *
G04 *
D10*
X020630Y121252D03*
X020945Y121606D03*
X021260Y121252D03*
X021575Y121606D03*
X021890Y121252D03*
D11*
X019508Y121232D03*
X023012Y121232D03*
G04 *
G04 next data from source file './BDM/bottom_soldermask.GBS', *
G04 source file key is 'infile_0008'. *
G04 *
D12*
X001969Y043443D03*
X001969Y066120D03*
X038229Y066120D03*
X038229Y043443D03*
D13*
X005932Y053398D03*
X002182Y053398D03*
X002182Y059648D03*
X003432Y059648D03*
X004682Y059648D03*
X005932Y059648D03*
D14*
X008190Y057887D03*
X005784Y062065D03*
X003815Y062065D03*
X011942Y046183D03*
X022092Y045691D03*
D15*
X022792Y045691D03*
X011942Y045483D03*
X008190Y057187D03*
X005084Y062065D03*
X003115Y062065D03*
D16*
X011709Y063683D03*
X012709Y063683D03*
X013709Y063683D03*
X014709Y063683D03*
X015709Y063683D03*
X016709Y063683D03*
X017709Y063683D03*
X025709Y063683D03*
X026709Y063683D03*
X027709Y063683D03*
X028709Y063683D03*
X029709Y063683D03*
X030709Y063683D03*
X031709Y063683D03*
D17*
X033709Y063683D03*
X034709Y063683D03*
X020709Y063683D03*
X019709Y063683D03*
X006209Y063683D03*
X005209Y063683D03*
D18*
X008321Y054239D03*
X008321Y053259D03*
X008321Y052469D03*
X008321Y051489D03*
X014334Y045753D03*
X015314Y045753D03*
X016104Y045753D03*
X017084Y045753D03*
X025334Y045753D03*
X026314Y045753D03*
X027104Y045753D03*
X028084Y045753D03*
D19*
X029294Y044683D03*
X024124Y044683D03*
X018294Y044683D03*
X013124Y044683D03*
X009391Y050279D03*
X009391Y055449D03*
D20*
X015572Y044939D03*
X015965Y044939D03*
X015769Y044388D03*
X026580Y045018D03*
X026973Y045018D03*
X026776Y044467D03*
D21*
X037769Y045282D03*
X038769Y045282D03*
X038769Y046282D03*
X038769Y047282D03*
X037769Y047282D03*
X037769Y046282D03*
X037769Y048282D03*
X038769Y048282D03*
X038769Y049282D03*
X038769Y050282D03*
X037769Y050282D03*
X037769Y049282D03*
X037769Y051282D03*
X038769Y051282D03*
X038769Y052282D03*
X037769Y052282D03*
X037769Y053282D03*
X038769Y053282D03*
X038769Y054282D03*
X037769Y054282D03*
X037769Y055282D03*
X038769Y055282D03*
X038769Y056282D03*
X037769Y056282D03*
X037769Y057282D03*
X038769Y057282D03*
X038769Y058282D03*
X037769Y058282D03*
X037769Y059282D03*
X038769Y059282D03*
X038769Y060282D03*
X037769Y060282D03*
X037769Y061282D03*
X038769Y061282D03*
X038769Y062282D03*
X038769Y063282D03*
X037769Y063282D03*
X037769Y062282D03*
X037769Y064282D03*
X038769Y064282D03*
D22*
X007166Y048699D03*
X007166Y048502D03*
X007166Y048305D03*
X007166Y048108D03*
D23*
X006753Y047069D03*
X006753Y049738D03*
D24*
X013426Y060648D03*
G04 *
G04 next data from source file './BDMcopy/bottom_soldermask.GBS', *
G04 source file key is 'infile_0007'. *
G04 *
D12*
X001969Y069093D03*
X001969Y091770D03*
X038229Y091770D03*
X038229Y069093D03*
D13*
X005932Y079048D03*
X002182Y079048D03*
X002182Y085298D03*
X003432Y085298D03*
X004682Y085298D03*
X005932Y085298D03*
D14*
X008190Y083537D03*
X005784Y087715D03*
X003815Y087715D03*
X011942Y071833D03*
X022092Y071341D03*
D15*
X022792Y071341D03*
X011942Y071133D03*
X008190Y082837D03*
X005084Y087715D03*
X003115Y087715D03*
D16*
X011709Y089333D03*
X012709Y089333D03*
X013709Y089333D03*
X014709Y089333D03*
X015709Y089333D03*
X016709Y089333D03*
X017709Y089333D03*
X025709Y089333D03*
X026709Y089333D03*
X027709Y089333D03*
X028709Y089333D03*
X029709Y089333D03*
X030709Y089333D03*
X031709Y089333D03*
D17*
X033709Y089333D03*
X034709Y089333D03*
X020709Y089333D03*
X019709Y089333D03*
X006209Y089333D03*
X005209Y089333D03*
D18*
X008321Y079889D03*
X008321Y078909D03*
X008321Y078119D03*
X008321Y077139D03*
X014334Y071403D03*
X015314Y071403D03*
X016104Y071403D03*
X017084Y071403D03*
X025334Y071403D03*
X026314Y071403D03*
X027104Y071403D03*
X028084Y071403D03*
D19*
X029294Y070333D03*
X024124Y070333D03*
X018294Y070333D03*
X013124Y070333D03*
X009391Y075929D03*
X009391Y081099D03*
D20*
X015572Y070589D03*
X015965Y070589D03*
X015769Y070038D03*
X026580Y070668D03*
X026973Y070668D03*
X026776Y070117D03*
D21*
X037769Y070932D03*
X038769Y070932D03*
X038769Y071932D03*
X038769Y072932D03*
X037769Y072932D03*
X037769Y071932D03*
X037769Y073932D03*
X038769Y073932D03*
X038769Y074932D03*
X038769Y075932D03*
X037769Y075932D03*
X037769Y074932D03*
X037769Y076932D03*
X038769Y076932D03*
X038769Y077932D03*
X037769Y077932D03*
X037769Y078932D03*
X038769Y078932D03*
X038769Y079932D03*
X037769Y079932D03*
X037769Y080932D03*
X038769Y080932D03*
X038769Y081932D03*
X037769Y081932D03*
X037769Y082932D03*
X038769Y082932D03*
X038769Y083932D03*
X037769Y083932D03*
X037769Y084932D03*
X038769Y084932D03*
X038769Y085932D03*
X037769Y085932D03*
X037769Y086932D03*
X038769Y086932D03*
X038769Y087932D03*
X038769Y088932D03*
X037769Y088932D03*
X037769Y087932D03*
X037769Y089932D03*
X038769Y089932D03*
D22*
X007166Y074349D03*
X007166Y074152D03*
X007166Y073955D03*
X007166Y073758D03*
D23*
X006753Y072719D03*
X006753Y075388D03*
D24*
X013426Y086298D03*
G04 *
G04 next data from source file './FFC-Adapter4thcopy/bottom_soldermask.GBS', *
G04 source file key is 'infile_0004'. *
G04 *
D10*
X034265Y121117D03*
X034580Y121471D03*
X034895Y121117D03*
X035210Y121471D03*
X035525Y121117D03*
D11*
X033143Y121097D03*
X036647Y121097D03*
G04 *
G04 next data from source file './FFC-Adaptercopy/bottom_soldermask.GBS', *
G04 source file key is 'infile_0012'. *
G04 *
D10*
X015905Y121252D03*
X016220Y121606D03*
X016535Y121252D03*
X016850Y121606D03*
X017165Y121252D03*
D11*
X014783Y121232D03*
X018287Y121232D03*
G04 *
G04 next data from source file './FFC-Adapter/bottom_soldermask.GBS', *
G04 source file key is 'infile_0002'. *
G04 *
D10*
X001865Y121117D03*
X002180Y121471D03*
X002495Y121117D03*
X002810Y121471D03*
X003125Y121117D03*
D11*
X000743Y121097D03*
X004247Y121097D03*
G04 *
G04 next data from source file './FFC-Adapter7thcopy/bottom_soldermask.GBS', *
G04 source file key is 'infile_0005'. *
G04 *
D10*
X029945Y121117D03*
X030260Y121471D03*
X030575Y121117D03*
X030890Y121471D03*
X031205Y121117D03*
D11*
X028823Y121097D03*
X032327Y121097D03*
G04 *
G04 next data from source file './BDManothercopy/bottom_soldermask.GBS', *
G04 source file key is 'infile_0011'. *
G04 *
D12*
X002104Y017928D03*
X002104Y040605D03*
X038364Y040605D03*
X038364Y017928D03*
D13*
X006067Y027883D03*
X002317Y027883D03*
X002317Y034133D03*
X003567Y034133D03*
X004817Y034133D03*
X006067Y034133D03*
D14*
X008325Y032372D03*
X005919Y036550D03*
X003950Y036550D03*
X012077Y020668D03*
X022227Y020176D03*
D15*
X022927Y020176D03*
X012077Y019968D03*
X008325Y031672D03*
X005219Y036550D03*
X003250Y036550D03*
D16*
X011844Y038168D03*
X012844Y038168D03*
X013844Y038168D03*
X014844Y038168D03*
X015844Y038168D03*
X016844Y038168D03*
X017844Y038168D03*
X025844Y038168D03*
X026844Y038168D03*
X027844Y038168D03*
X028844Y038168D03*
X029844Y038168D03*
X030844Y038168D03*
X031844Y038168D03*
D17*
X033844Y038168D03*
X034844Y038168D03*
X020844Y038168D03*
X019844Y038168D03*
X006344Y038168D03*
X005344Y038168D03*
D18*
X008456Y028724D03*
X008456Y027744D03*
X008456Y026954D03*
X008456Y025974D03*
X014469Y020238D03*
X015449Y020238D03*
X016239Y020238D03*
X017219Y020238D03*
X025469Y020238D03*
X026449Y020238D03*
X027239Y020238D03*
X028219Y020238D03*
D19*
X029429Y019168D03*
X024259Y019168D03*
X018429Y019168D03*
X013259Y019168D03*
X009526Y024764D03*
X009526Y029934D03*
D20*
X015707Y019424D03*
X016100Y019424D03*
X015904Y018873D03*
X026715Y019503D03*
X027108Y019503D03*
X026911Y018952D03*
D21*
X037904Y019767D03*
X038904Y019767D03*
X038904Y020767D03*
X038904Y021767D03*
X037904Y021767D03*
X037904Y020767D03*
X037904Y022767D03*
X038904Y022767D03*
X038904Y023767D03*
X038904Y024767D03*
X037904Y024767D03*
X037904Y023767D03*
X037904Y025767D03*
X038904Y025767D03*
X038904Y026767D03*
X037904Y026767D03*
X037904Y027767D03*
X038904Y027767D03*
X038904Y028767D03*
X037904Y028767D03*
X037904Y029767D03*
X038904Y029767D03*
X038904Y030767D03*
X037904Y030767D03*
X037904Y031767D03*
X038904Y031767D03*
X038904Y032767D03*
X037904Y032767D03*
X037904Y033767D03*
X038904Y033767D03*
X038904Y034767D03*
X037904Y034767D03*
X037904Y035767D03*
X038904Y035767D03*
X038904Y036767D03*
X038904Y037767D03*
X037904Y037767D03*
X037904Y036767D03*
X037904Y038767D03*
X038904Y038767D03*
D22*
X007301Y023184D03*
X007301Y022987D03*
X007301Y022790D03*
X007301Y022593D03*
D23*
X006888Y021554D03*
X006888Y024223D03*
D24*
X013561Y035133D03*
G04 *
G04 next data from source file './FFC-Adapter3rdcopy/bottom_soldermask.GBS', *
G04 source file key is 'infile_0009'. *
G04 *
D10*
X025355Y121252D03*
X025670Y121606D03*
X025985Y121252D03*
X026300Y121606D03*
X026615Y121252D03*
D11*
X024233Y121232D03*
X027737Y121232D03*
G04 *
G04 next data from source file './FFC-Adapter6thcopy/bottom_soldermask.GBS', *
G04 source file key is 'infile_0006'. *
G04 *
D10*
X006455Y121117D03*
X006770Y121471D03*
X007085Y121117D03*
X007400Y121471D03*
X007715Y121117D03*
D11*
X005333Y121097D03*
X008837Y121097D03*
G04 *
G04 next data from source file './BDM3rdcopy/bottom_soldermask.GBS', *
G04 source file key is 'infile_0001'. *
G04 *
D12*
X001969Y094338D03*
X001969Y117015D03*
X038229Y117015D03*
X038229Y094338D03*
D13*
X005932Y104293D03*
X002182Y104293D03*
X002182Y110543D03*
X003432Y110543D03*
X004682Y110543D03*
X005932Y110543D03*
D14*
X008190Y108782D03*
X005784Y112960D03*
X003815Y112960D03*
X011942Y097078D03*
X022092Y096586D03*
D15*
X022792Y096586D03*
X011942Y096378D03*
X008190Y108082D03*
X005084Y112960D03*
X003115Y112960D03*
D16*
X011709Y114578D03*
X012709Y114578D03*
X013709Y114578D03*
X014709Y114578D03*
X015709Y114578D03*
X016709Y114578D03*
X017709Y114578D03*
X025709Y114578D03*
X026709Y114578D03*
X027709Y114578D03*
X028709Y114578D03*
X029709Y114578D03*
X030709Y114578D03*
X031709Y114578D03*
D17*
X033709Y114578D03*
X034709Y114578D03*
X020709Y114578D03*
X019709Y114578D03*
X006209Y114578D03*
X005209Y114578D03*
D18*
X008321Y105134D03*
X008321Y104154D03*
X008321Y103364D03*
X008321Y102384D03*
X014334Y096648D03*
X015314Y096648D03*
X016104Y096648D03*
X017084Y096648D03*
X025334Y096648D03*
X026314Y096648D03*
X027104Y096648D03*
X028084Y096648D03*
D19*
X029294Y095578D03*
X024124Y095578D03*
X018294Y095578D03*
X013124Y095578D03*
X009391Y101174D03*
X009391Y106344D03*
D20*
X015572Y095834D03*
X015965Y095834D03*
X015769Y095283D03*
X026580Y095913D03*
X026973Y095913D03*
X026776Y095362D03*
D21*
X037769Y096177D03*
X038769Y096177D03*
X038769Y097177D03*
X038769Y098177D03*
X037769Y098177D03*
X037769Y097177D03*
X037769Y099177D03*
X038769Y099177D03*
X038769Y100177D03*
X038769Y101177D03*
X037769Y101177D03*
X037769Y100177D03*
X037769Y102177D03*
X038769Y102177D03*
X038769Y103177D03*
X037769Y103177D03*
X037769Y104177D03*
X038769Y104177D03*
X038769Y105177D03*
X037769Y105177D03*
X037769Y106177D03*
X038769Y106177D03*
X038769Y107177D03*
X037769Y107177D03*
X037769Y108177D03*
X038769Y108177D03*
X038769Y109177D03*
X037769Y109177D03*
X037769Y110177D03*
X038769Y110177D03*
X038769Y111177D03*
X037769Y111177D03*
X037769Y112177D03*
X038769Y112177D03*
X038769Y113177D03*
X038769Y114177D03*
X037769Y114177D03*
X037769Y113177D03*
X037769Y115177D03*
X038769Y115177D03*
D22*
X007166Y099594D03*
X007166Y099397D03*
X007166Y099200D03*
X007166Y099003D03*
D23*
X006753Y097964D03*
X006753Y100633D03*
D24*
X013426Y111543D03*
M02*
