G75*
G70*
%OFA0B0*%
%FSLAX24Y24*%
%IPPOS*%
%LPD*%
G04 *
G04 macro definitions for tiled file 'solderStiched.GTS':*
G04 *
%AMOC8*
5,1,8,0,0,1.08239X$1,22.5*
%
G04 *
G04 aperture list for tiled file 'solderStiched.GTS':*
G04 *
%ADD34C,0.0671*%
%ADD33R,0.0780X0.2080*%
%ADD15C,0.0907*%
%ADD26R,0.0316X0.0946*%
%ADD20C,0.0840*%
%ADD28R,0.0631X0.1025*%
%ADD25R,0.0474X0.0257*%
%ADD14C,0.1340*%
%ADD13C,0.0476*%
%ADD16OC8,0.0560*%
%ADD31R,0.1580X0.1749*%
%ADD27R,0.0474X0.0513*%
%ADD29R,0.0336X0.0336*%
%ADD24R,0.0257X0.0474*%
%ADD18R,0.0513X0.0474*%
%ADD21C,0.0640*%
%ADD11R,0.0474X0.0608*%
%ADD30OC8,0.0680*%
%ADD19C,0.0730*%
%ADD22C,0.1390*%
%ADD23R,0.0237X0.0257*%
%ADD32R,0.0198X0.0474*%
%ADD12C,0.0390*%
%ADD10R,0.0178X0.0474*%
%ADD17C,0.0560*%
G04 *
G04 next data from source file './FFC-Adapteranothercopy/top_soldermask.GTS', *
G04 source file key is 'infile_0003'. *
G04 *
D10*
X011515Y120487D03*
X011712Y120487D03*
X011909Y120487D03*
X012105Y120487D03*
D11*
X010475Y120073D03*
X013145Y120073D03*
D12*
X012440Y121117D03*
X012125Y121471D03*
X011810Y121117D03*
X011495Y121471D03*
X011180Y121117D03*
D13*
X010058Y121097D03*
X013562Y121097D03*
G04 *
G04 next data from source file './FFC-Adapter5thcopy/top_soldermask.GTS', *
G04 source file key is 'infile_0010'. *
G04 *
D10*
X020965Y120622D03*
X021162Y120622D03*
X021359Y120622D03*
X021555Y120622D03*
D11*
X019925Y120208D03*
X022595Y120208D03*
D12*
X021890Y121252D03*
X021575Y121606D03*
X021260Y121252D03*
X020945Y121606D03*
X020630Y121252D03*
D13*
X019508Y121232D03*
X023012Y121232D03*
G04 *
G04 next data from source file './BDM/top_soldermask.GTS', *
G04 source file key is 'infile_0008'. *
G04 *
D14*
X001969Y043443D03*
X001969Y066120D03*
X038229Y066120D03*
X038229Y043443D03*
D15*
X005932Y053398D03*
X002182Y053398D03*
X002182Y059648D03*
X003432Y059648D03*
X004682Y059648D03*
X005932Y059648D03*
D16*
X008190Y057887D03*
X005784Y062065D03*
X003815Y062065D03*
X011942Y046183D03*
X022092Y045691D03*
D17*
X022792Y045691D03*
X011942Y045483D03*
X008190Y057187D03*
X005084Y062065D03*
X003115Y062065D03*
D18*
X001839Y061833D03*
X001839Y062502D03*
D19*
X011709Y063683D03*
X012709Y063683D03*
X013709Y063683D03*
X014709Y063683D03*
X015709Y063683D03*
X016709Y063683D03*
X017709Y063683D03*
X025709Y063683D03*
X026709Y063683D03*
X027709Y063683D03*
X028709Y063683D03*
X029709Y063683D03*
X030709Y063683D03*
X031709Y063683D03*
D20*
X033709Y063683D03*
X034709Y063683D03*
X020709Y063683D03*
X019709Y063683D03*
X006209Y063683D03*
X005209Y063683D03*
D21*
X008321Y054239D03*
X008321Y053259D03*
X008321Y052469D03*
X008321Y051489D03*
X014334Y045753D03*
X015314Y045753D03*
X016104Y045753D03*
X017084Y045753D03*
X025334Y045753D03*
X026314Y045753D03*
X027104Y045753D03*
X028084Y045753D03*
D22*
X029294Y044683D03*
X024124Y044683D03*
X018294Y044683D03*
X013124Y044683D03*
X009391Y050279D03*
X009391Y055449D03*
D23*
X015501Y047095D03*
X015816Y047095D03*
X015816Y046484D03*
X015501Y046484D03*
X026564Y046528D03*
X026879Y046528D03*
X026879Y047138D03*
X026564Y047138D03*
D24*
X005839Y045691D03*
X005524Y045691D03*
X005209Y045691D03*
X004895Y045691D03*
X004580Y045691D03*
X004265Y045691D03*
X003950Y045691D03*
X003635Y045691D03*
X003635Y048919D03*
X003950Y048919D03*
X004265Y048919D03*
X004580Y048919D03*
X004895Y048919D03*
X005209Y048919D03*
X005524Y048919D03*
X005839Y048919D03*
D25*
X006332Y048408D03*
X006332Y048093D03*
X006332Y047778D03*
X006332Y047463D03*
X006332Y047148D03*
X006332Y046833D03*
X006332Y046518D03*
X006332Y046203D03*
X003103Y046203D03*
X003103Y046518D03*
X003103Y046833D03*
X003103Y047148D03*
X003103Y047463D03*
X003103Y047778D03*
X003103Y048093D03*
X003103Y048408D03*
D26*
X008959Y046482D03*
X009459Y046482D03*
X009959Y046482D03*
X010459Y046482D03*
X010459Y044435D03*
X009959Y044435D03*
X009459Y044435D03*
X008959Y044435D03*
D27*
X004332Y044408D03*
X004332Y045077D03*
D28*
X013206Y046845D03*
X014150Y046845D03*
X024060Y046884D03*
X025005Y046884D03*
D29*
X025198Y060274D03*
X025198Y060628D03*
X019981Y060963D03*
X019627Y060963D03*
X004607Y050037D03*
X004607Y049683D03*
X003898Y049683D03*
X003898Y050037D03*
X003426Y050037D03*
X003426Y049683D03*
X002717Y049683D03*
X002717Y050037D03*
X003623Y045077D03*
X003623Y044723D03*
X005198Y044683D03*
X005198Y045037D03*
D30*
X037769Y045282D03*
X038769Y045282D03*
X038769Y046282D03*
X038769Y047282D03*
X037769Y047282D03*
X037769Y046282D03*
X037769Y048282D03*
X038769Y048282D03*
X038769Y049282D03*
X038769Y050282D03*
X037769Y050282D03*
X037769Y049282D03*
X037769Y051282D03*
X038769Y051282D03*
X038769Y052282D03*
X037769Y052282D03*
X037769Y053282D03*
X038769Y053282D03*
X038769Y054282D03*
X037769Y054282D03*
X037769Y055282D03*
X038769Y055282D03*
X038769Y056282D03*
X037769Y056282D03*
X037769Y057282D03*
X038769Y057282D03*
X038769Y058282D03*
X037769Y058282D03*
X037769Y059282D03*
X038769Y059282D03*
X038769Y060282D03*
X037769Y060282D03*
X037769Y061282D03*
X038769Y061282D03*
X038769Y062282D03*
X038769Y063282D03*
X037769Y063282D03*
X037769Y062282D03*
X037769Y064282D03*
X038769Y064282D03*
D31*
X008387Y062459D03*
X008387Y059947D03*
D32*
X021280Y060963D03*
X021536Y060963D03*
X021792Y060963D03*
X022048Y060963D03*
X022304Y060963D03*
X022560Y060963D03*
X022816Y060963D03*
X023072Y060963D03*
X023328Y060963D03*
X023584Y060963D03*
X023584Y058404D03*
X023328Y058404D03*
X023072Y058404D03*
X022816Y058404D03*
X022560Y058404D03*
X022304Y058404D03*
X022048Y058404D03*
X021792Y058404D03*
X021536Y058404D03*
X021280Y058404D03*
D33*
X012556Y060632D03*
X009956Y060632D03*
D34*
X013426Y060648D03*
G04 *
G04 next data from source file './BDMcopy/top_soldermask.GTS', *
G04 source file key is 'infile_0007'. *
G04 *
D14*
X001969Y069093D03*
X001969Y091770D03*
X038229Y091770D03*
X038229Y069093D03*
D15*
X005932Y079048D03*
X002182Y079048D03*
X002182Y085298D03*
X003432Y085298D03*
X004682Y085298D03*
X005932Y085298D03*
D16*
X008190Y083537D03*
X005784Y087715D03*
X003815Y087715D03*
X011942Y071833D03*
X022092Y071341D03*
D17*
X022792Y071341D03*
X011942Y071133D03*
X008190Y082837D03*
X005084Y087715D03*
X003115Y087715D03*
D18*
X001839Y087483D03*
X001839Y088152D03*
D19*
X011709Y089333D03*
X012709Y089333D03*
X013709Y089333D03*
X014709Y089333D03*
X015709Y089333D03*
X016709Y089333D03*
X017709Y089333D03*
X025709Y089333D03*
X026709Y089333D03*
X027709Y089333D03*
X028709Y089333D03*
X029709Y089333D03*
X030709Y089333D03*
X031709Y089333D03*
D20*
X033709Y089333D03*
X034709Y089333D03*
X020709Y089333D03*
X019709Y089333D03*
X006209Y089333D03*
X005209Y089333D03*
D21*
X008321Y079889D03*
X008321Y078909D03*
X008321Y078119D03*
X008321Y077139D03*
X014334Y071403D03*
X015314Y071403D03*
X016104Y071403D03*
X017084Y071403D03*
X025334Y071403D03*
X026314Y071403D03*
X027104Y071403D03*
X028084Y071403D03*
D22*
X029294Y070333D03*
X024124Y070333D03*
X018294Y070333D03*
X013124Y070333D03*
X009391Y075929D03*
X009391Y081099D03*
D23*
X015501Y072745D03*
X015816Y072745D03*
X015816Y072134D03*
X015501Y072134D03*
X026564Y072178D03*
X026879Y072178D03*
X026879Y072788D03*
X026564Y072788D03*
D24*
X005839Y071341D03*
X005524Y071341D03*
X005209Y071341D03*
X004895Y071341D03*
X004580Y071341D03*
X004265Y071341D03*
X003950Y071341D03*
X003635Y071341D03*
X003635Y074569D03*
X003950Y074569D03*
X004265Y074569D03*
X004580Y074569D03*
X004895Y074569D03*
X005209Y074569D03*
X005524Y074569D03*
X005839Y074569D03*
D25*
X006332Y074058D03*
X006332Y073743D03*
X006332Y073428D03*
X006332Y073113D03*
X006332Y072798D03*
X006332Y072483D03*
X006332Y072168D03*
X006332Y071853D03*
X003103Y071853D03*
X003103Y072168D03*
X003103Y072483D03*
X003103Y072798D03*
X003103Y073113D03*
X003103Y073428D03*
X003103Y073743D03*
X003103Y074058D03*
D26*
X008959Y072132D03*
X009459Y072132D03*
X009959Y072132D03*
X010459Y072132D03*
X010459Y070085D03*
X009959Y070085D03*
X009459Y070085D03*
X008959Y070085D03*
D27*
X004332Y070058D03*
X004332Y070727D03*
D28*
X013206Y072495D03*
X014150Y072495D03*
X024060Y072534D03*
X025005Y072534D03*
D29*
X025198Y085924D03*
X025198Y086278D03*
X019981Y086613D03*
X019627Y086613D03*
X004607Y075687D03*
X004607Y075333D03*
X003898Y075333D03*
X003898Y075687D03*
X003426Y075687D03*
X003426Y075333D03*
X002717Y075333D03*
X002717Y075687D03*
X003623Y070727D03*
X003623Y070373D03*
X005198Y070333D03*
X005198Y070687D03*
D30*
X037769Y070932D03*
X038769Y070932D03*
X038769Y071932D03*
X038769Y072932D03*
X037769Y072932D03*
X037769Y071932D03*
X037769Y073932D03*
X038769Y073932D03*
X038769Y074932D03*
X038769Y075932D03*
X037769Y075932D03*
X037769Y074932D03*
X037769Y076932D03*
X038769Y076932D03*
X038769Y077932D03*
X037769Y077932D03*
X037769Y078932D03*
X038769Y078932D03*
X038769Y079932D03*
X037769Y079932D03*
X037769Y080932D03*
X038769Y080932D03*
X038769Y081932D03*
X037769Y081932D03*
X037769Y082932D03*
X038769Y082932D03*
X038769Y083932D03*
X037769Y083932D03*
X037769Y084932D03*
X038769Y084932D03*
X038769Y085932D03*
X037769Y085932D03*
X037769Y086932D03*
X038769Y086932D03*
X038769Y087932D03*
X038769Y088932D03*
X037769Y088932D03*
X037769Y087932D03*
X037769Y089932D03*
X038769Y089932D03*
D31*
X008387Y088109D03*
X008387Y085597D03*
D32*
X021280Y086613D03*
X021536Y086613D03*
X021792Y086613D03*
X022048Y086613D03*
X022304Y086613D03*
X022560Y086613D03*
X022816Y086613D03*
X023072Y086613D03*
X023328Y086613D03*
X023584Y086613D03*
X023584Y084054D03*
X023328Y084054D03*
X023072Y084054D03*
X022816Y084054D03*
X022560Y084054D03*
X022304Y084054D03*
X022048Y084054D03*
X021792Y084054D03*
X021536Y084054D03*
X021280Y084054D03*
D33*
X012556Y086282D03*
X009956Y086282D03*
D34*
X013426Y086298D03*
G04 *
G04 next data from source file './FFC-Adapter4thcopy/top_soldermask.GTS', *
G04 source file key is 'infile_0004'. *
G04 *
D10*
X034600Y120487D03*
X034797Y120487D03*
X034994Y120487D03*
X035190Y120487D03*
D11*
X033560Y120073D03*
X036230Y120073D03*
D12*
X035525Y121117D03*
X035210Y121471D03*
X034895Y121117D03*
X034580Y121471D03*
X034265Y121117D03*
D13*
X033143Y121097D03*
X036647Y121097D03*
G04 *
G04 next data from source file './FFC-Adaptercopy/top_soldermask.GTS', *
G04 source file key is 'infile_0012'. *
G04 *
D10*
X016240Y120622D03*
X016437Y120622D03*
X016634Y120622D03*
X016830Y120622D03*
D11*
X015200Y120208D03*
X017870Y120208D03*
D12*
X017165Y121252D03*
X016850Y121606D03*
X016535Y121252D03*
X016220Y121606D03*
X015905Y121252D03*
D13*
X014783Y121232D03*
X018287Y121232D03*
G04 *
G04 next data from source file './FFC-Adapter/top_soldermask.GTS', *
G04 source file key is 'infile_0002'. *
G04 *
D10*
X002200Y120487D03*
X002397Y120487D03*
X002594Y120487D03*
X002790Y120487D03*
D11*
X001160Y120073D03*
X003830Y120073D03*
D12*
X003125Y121117D03*
X002810Y121471D03*
X002495Y121117D03*
X002180Y121471D03*
X001865Y121117D03*
D13*
X000743Y121097D03*
X004247Y121097D03*
G04 *
G04 next data from source file './FFC-Adapter7thcopy/top_soldermask.GTS', *
G04 source file key is 'infile_0005'. *
G04 *
D10*
X030280Y120487D03*
X030477Y120487D03*
X030674Y120487D03*
X030870Y120487D03*
D11*
X029240Y120073D03*
X031910Y120073D03*
D12*
X031205Y121117D03*
X030890Y121471D03*
X030575Y121117D03*
X030260Y121471D03*
X029945Y121117D03*
D13*
X028823Y121097D03*
X032327Y121097D03*
G04 *
G04 next data from source file './BDManothercopy/top_soldermask.GTS', *
G04 source file key is 'infile_0011'. *
G04 *
D14*
X002104Y017928D03*
X002104Y040605D03*
X038364Y040605D03*
X038364Y017928D03*
D15*
X006067Y027883D03*
X002317Y027883D03*
X002317Y034133D03*
X003567Y034133D03*
X004817Y034133D03*
X006067Y034133D03*
D16*
X008325Y032372D03*
X005919Y036550D03*
X003950Y036550D03*
X012077Y020668D03*
X022227Y020176D03*
D17*
X022927Y020176D03*
X012077Y019968D03*
X008325Y031672D03*
X005219Y036550D03*
X003250Y036550D03*
D18*
X001974Y036318D03*
X001974Y036987D03*
D19*
X011844Y038168D03*
X012844Y038168D03*
X013844Y038168D03*
X014844Y038168D03*
X015844Y038168D03*
X016844Y038168D03*
X017844Y038168D03*
X025844Y038168D03*
X026844Y038168D03*
X027844Y038168D03*
X028844Y038168D03*
X029844Y038168D03*
X030844Y038168D03*
X031844Y038168D03*
D20*
X033844Y038168D03*
X034844Y038168D03*
X020844Y038168D03*
X019844Y038168D03*
X006344Y038168D03*
X005344Y038168D03*
D21*
X008456Y028724D03*
X008456Y027744D03*
X008456Y026954D03*
X008456Y025974D03*
X014469Y020238D03*
X015449Y020238D03*
X016239Y020238D03*
X017219Y020238D03*
X025469Y020238D03*
X026449Y020238D03*
X027239Y020238D03*
X028219Y020238D03*
D22*
X029429Y019168D03*
X024259Y019168D03*
X018429Y019168D03*
X013259Y019168D03*
X009526Y024764D03*
X009526Y029934D03*
D23*
X015636Y021580D03*
X015951Y021580D03*
X015951Y020969D03*
X015636Y020969D03*
X026699Y021013D03*
X027014Y021013D03*
X027014Y021623D03*
X026699Y021623D03*
D24*
X005974Y020176D03*
X005659Y020176D03*
X005344Y020176D03*
X005030Y020176D03*
X004715Y020176D03*
X004400Y020176D03*
X004085Y020176D03*
X003770Y020176D03*
X003770Y023404D03*
X004085Y023404D03*
X004400Y023404D03*
X004715Y023404D03*
X005030Y023404D03*
X005344Y023404D03*
X005659Y023404D03*
X005974Y023404D03*
D25*
X006467Y022893D03*
X006467Y022578D03*
X006467Y022263D03*
X006467Y021948D03*
X006467Y021633D03*
X006467Y021318D03*
X006467Y021003D03*
X006467Y020688D03*
X003238Y020688D03*
X003238Y021003D03*
X003238Y021318D03*
X003238Y021633D03*
X003238Y021948D03*
X003238Y022263D03*
X003238Y022578D03*
X003238Y022893D03*
D26*
X009094Y020967D03*
X009594Y020967D03*
X010094Y020967D03*
X010594Y020967D03*
X010594Y018920D03*
X010094Y018920D03*
X009594Y018920D03*
X009094Y018920D03*
D27*
X004467Y018893D03*
X004467Y019562D03*
D28*
X013341Y021330D03*
X014285Y021330D03*
X024195Y021369D03*
X025140Y021369D03*
D29*
X025333Y034759D03*
X025333Y035113D03*
X020116Y035448D03*
X019762Y035448D03*
X004742Y024522D03*
X004742Y024168D03*
X004033Y024168D03*
X004033Y024522D03*
X003561Y024522D03*
X003561Y024168D03*
X002852Y024168D03*
X002852Y024522D03*
X003758Y019562D03*
X003758Y019208D03*
X005333Y019168D03*
X005333Y019522D03*
D30*
X037904Y019767D03*
X038904Y019767D03*
X038904Y020767D03*
X038904Y021767D03*
X037904Y021767D03*
X037904Y020767D03*
X037904Y022767D03*
X038904Y022767D03*
X038904Y023767D03*
X038904Y024767D03*
X037904Y024767D03*
X037904Y023767D03*
X037904Y025767D03*
X038904Y025767D03*
X038904Y026767D03*
X037904Y026767D03*
X037904Y027767D03*
X038904Y027767D03*
X038904Y028767D03*
X037904Y028767D03*
X037904Y029767D03*
X038904Y029767D03*
X038904Y030767D03*
X037904Y030767D03*
X037904Y031767D03*
X038904Y031767D03*
X038904Y032767D03*
X037904Y032767D03*
X037904Y033767D03*
X038904Y033767D03*
X038904Y034767D03*
X037904Y034767D03*
X037904Y035767D03*
X038904Y035767D03*
X038904Y036767D03*
X038904Y037767D03*
X037904Y037767D03*
X037904Y036767D03*
X037904Y038767D03*
X038904Y038767D03*
D31*
X008522Y036944D03*
X008522Y034432D03*
D32*
X021415Y035448D03*
X021671Y035448D03*
X021927Y035448D03*
X022183Y035448D03*
X022439Y035448D03*
X022695Y035448D03*
X022951Y035448D03*
X023207Y035448D03*
X023463Y035448D03*
X023719Y035448D03*
X023719Y032889D03*
X023463Y032889D03*
X023207Y032889D03*
X022951Y032889D03*
X022695Y032889D03*
X022439Y032889D03*
X022183Y032889D03*
X021927Y032889D03*
X021671Y032889D03*
X021415Y032889D03*
D33*
X012691Y035117D03*
X010091Y035117D03*
D34*
X013561Y035133D03*
G04 *
G04 next data from source file './FFC-Adapter3rdcopy/top_soldermask.GTS', *
G04 source file key is 'infile_0009'. *
G04 *
D10*
X025690Y120622D03*
X025887Y120622D03*
X026084Y120622D03*
X026280Y120622D03*
D11*
X024650Y120208D03*
X027320Y120208D03*
D12*
X026615Y121252D03*
X026300Y121606D03*
X025985Y121252D03*
X025670Y121606D03*
X025355Y121252D03*
D13*
X024233Y121232D03*
X027737Y121232D03*
G04 *
G04 next data from source file './FFC-Adapter6thcopy/top_soldermask.GTS', *
G04 source file key is 'infile_0006'. *
G04 *
D10*
X006790Y120487D03*
X006987Y120487D03*
X007184Y120487D03*
X007380Y120487D03*
D11*
X005750Y120073D03*
X008420Y120073D03*
D12*
X007715Y121117D03*
X007400Y121471D03*
X007085Y121117D03*
X006770Y121471D03*
X006455Y121117D03*
D13*
X005333Y121097D03*
X008837Y121097D03*
G04 *
G04 next data from source file './BDM3rdcopy/top_soldermask.GTS', *
G04 source file key is 'infile_0001'. *
G04 *
D14*
X001969Y094338D03*
X001969Y117015D03*
X038229Y117015D03*
X038229Y094338D03*
D15*
X005932Y104293D03*
X002182Y104293D03*
X002182Y110543D03*
X003432Y110543D03*
X004682Y110543D03*
X005932Y110543D03*
D16*
X008190Y108782D03*
X005784Y112960D03*
X003815Y112960D03*
X011942Y097078D03*
X022092Y096586D03*
D17*
X022792Y096586D03*
X011942Y096378D03*
X008190Y108082D03*
X005084Y112960D03*
X003115Y112960D03*
D18*
X001839Y112728D03*
X001839Y113397D03*
D19*
X011709Y114578D03*
X012709Y114578D03*
X013709Y114578D03*
X014709Y114578D03*
X015709Y114578D03*
X016709Y114578D03*
X017709Y114578D03*
X025709Y114578D03*
X026709Y114578D03*
X027709Y114578D03*
X028709Y114578D03*
X029709Y114578D03*
X030709Y114578D03*
X031709Y114578D03*
D20*
X033709Y114578D03*
X034709Y114578D03*
X020709Y114578D03*
X019709Y114578D03*
X006209Y114578D03*
X005209Y114578D03*
D21*
X008321Y105134D03*
X008321Y104154D03*
X008321Y103364D03*
X008321Y102384D03*
X014334Y096648D03*
X015314Y096648D03*
X016104Y096648D03*
X017084Y096648D03*
X025334Y096648D03*
X026314Y096648D03*
X027104Y096648D03*
X028084Y096648D03*
D22*
X029294Y095578D03*
X024124Y095578D03*
X018294Y095578D03*
X013124Y095578D03*
X009391Y101174D03*
X009391Y106344D03*
D23*
X015501Y097990D03*
X015816Y097990D03*
X015816Y097379D03*
X015501Y097379D03*
X026564Y097423D03*
X026879Y097423D03*
X026879Y098033D03*
X026564Y098033D03*
D24*
X005839Y096586D03*
X005524Y096586D03*
X005209Y096586D03*
X004895Y096586D03*
X004580Y096586D03*
X004265Y096586D03*
X003950Y096586D03*
X003635Y096586D03*
X003635Y099814D03*
X003950Y099814D03*
X004265Y099814D03*
X004580Y099814D03*
X004895Y099814D03*
X005209Y099814D03*
X005524Y099814D03*
X005839Y099814D03*
D25*
X006332Y099303D03*
X006332Y098988D03*
X006332Y098673D03*
X006332Y098358D03*
X006332Y098043D03*
X006332Y097728D03*
X006332Y097413D03*
X006332Y097098D03*
X003103Y097098D03*
X003103Y097413D03*
X003103Y097728D03*
X003103Y098043D03*
X003103Y098358D03*
X003103Y098673D03*
X003103Y098988D03*
X003103Y099303D03*
D26*
X008959Y097377D03*
X009459Y097377D03*
X009959Y097377D03*
X010459Y097377D03*
X010459Y095330D03*
X009959Y095330D03*
X009459Y095330D03*
X008959Y095330D03*
D27*
X004332Y095303D03*
X004332Y095972D03*
D28*
X013206Y097740D03*
X014150Y097740D03*
X024060Y097779D03*
X025005Y097779D03*
D29*
X025198Y111169D03*
X025198Y111523D03*
X019981Y111858D03*
X019627Y111858D03*
X004607Y100932D03*
X004607Y100578D03*
X003898Y100578D03*
X003898Y100932D03*
X003426Y100932D03*
X003426Y100578D03*
X002717Y100578D03*
X002717Y100932D03*
X003623Y095972D03*
X003623Y095618D03*
X005198Y095578D03*
X005198Y095932D03*
D30*
X037769Y096177D03*
X038769Y096177D03*
X038769Y097177D03*
X038769Y098177D03*
X037769Y098177D03*
X037769Y097177D03*
X037769Y099177D03*
X038769Y099177D03*
X038769Y100177D03*
X038769Y101177D03*
X037769Y101177D03*
X037769Y100177D03*
X037769Y102177D03*
X038769Y102177D03*
X038769Y103177D03*
X037769Y103177D03*
X037769Y104177D03*
X038769Y104177D03*
X038769Y105177D03*
X037769Y105177D03*
X037769Y106177D03*
X038769Y106177D03*
X038769Y107177D03*
X037769Y107177D03*
X037769Y108177D03*
X038769Y108177D03*
X038769Y109177D03*
X037769Y109177D03*
X037769Y110177D03*
X038769Y110177D03*
X038769Y111177D03*
X037769Y111177D03*
X037769Y112177D03*
X038769Y112177D03*
X038769Y113177D03*
X038769Y114177D03*
X037769Y114177D03*
X037769Y113177D03*
X037769Y115177D03*
X038769Y115177D03*
D31*
X008387Y113354D03*
X008387Y110842D03*
D32*
X021280Y111858D03*
X021536Y111858D03*
X021792Y111858D03*
X022048Y111858D03*
X022304Y111858D03*
X022560Y111858D03*
X022816Y111858D03*
X023072Y111858D03*
X023328Y111858D03*
X023584Y111858D03*
X023584Y109299D03*
X023328Y109299D03*
X023072Y109299D03*
X022816Y109299D03*
X022560Y109299D03*
X022304Y109299D03*
X022048Y109299D03*
X021792Y109299D03*
X021536Y109299D03*
X021280Y109299D03*
D33*
X012556Y111527D03*
X009956Y111527D03*
D34*
X013426Y111543D03*
M02*
