G75*
G70*
%OFA0B0*%
%FSLAX24Y24*%
%IPPOS*%
%LPD*%
%AMOC8*
5,1,8,0,0,1.08239X$1,22.5*
%
%ADD10R,0.0866X0.0984*%
%ADD11R,0.0787X0.0197*%
%ADD12C,0.0520*%
%ADD13C,0.0310*%
%ADD14C,0.0100*%
%ADD15C,0.0080*%
%ADD16C,0.0240*%
D10*
X001340Y002307D03*
X003427Y002307D03*
X003427Y005614D03*
X001340Y005614D03*
D11*
X003525Y004591D03*
X003525Y004276D03*
X003525Y003961D03*
X003525Y003646D03*
X003525Y003331D03*
D12*
X005462Y003056D02*
X005982Y003056D01*
X005982Y004056D02*
X005462Y004056D01*
X005462Y005056D02*
X005982Y005056D01*
X005982Y006056D02*
X005462Y006056D01*
X005462Y007056D02*
X005982Y007056D01*
X005982Y002056D02*
X005462Y002056D01*
X005462Y001056D02*
X005982Y001056D01*
D13*
X004312Y001621D03*
X004282Y002041D03*
X004242Y002601D03*
X005012Y002511D03*
X002862Y004281D03*
X001722Y004531D03*
X001372Y004861D03*
X001072Y006331D03*
X002942Y006811D03*
X003392Y006691D03*
X004242Y007101D03*
X004842Y005561D03*
X004722Y005181D03*
X004722Y004401D03*
X002042Y002111D03*
X002422Y001751D03*
D14*
X000912Y001705D02*
X000912Y000831D01*
X005164Y000831D01*
X005148Y000846D01*
X005092Y000982D01*
X005092Y001129D01*
X005148Y001265D01*
X005252Y001369D01*
X005388Y001426D01*
X006056Y001426D01*
X006192Y001369D01*
X006296Y001265D01*
X006352Y001129D01*
X006352Y000982D01*
X006296Y000846D01*
X006280Y000831D01*
X006795Y000831D01*
X006804Y007243D01*
X006304Y007245D01*
X006352Y007129D01*
X006352Y006982D01*
X006296Y006846D01*
X006192Y006742D01*
X006056Y006686D01*
X005578Y006686D01*
X005423Y006531D01*
X005291Y006531D01*
X003607Y006531D01*
X003542Y006466D01*
X003445Y006426D01*
X003339Y006426D01*
X003242Y006466D01*
X003167Y006541D01*
X003127Y006638D01*
X003127Y006743D01*
X003167Y006841D01*
X003242Y006915D01*
X003339Y006956D01*
X003445Y006956D01*
X003542Y006915D01*
X003607Y006851D01*
X004153Y006851D01*
X004092Y006876D01*
X004017Y006951D01*
X004009Y006971D01*
X001212Y006971D01*
X001212Y006559D01*
X001222Y006555D01*
X001297Y006481D01*
X001337Y006383D01*
X001337Y006278D01*
X001311Y006216D01*
X001819Y006216D01*
X001883Y006152D01*
X001883Y005526D01*
X002483Y005526D01*
X002512Y005497D01*
X002512Y004739D01*
X002982Y004739D01*
X002982Y004751D01*
X003069Y004839D01*
X003525Y004839D01*
X003525Y004591D01*
X003525Y004591D01*
X003525Y004839D01*
X003981Y004839D01*
X004069Y004751D01*
X004069Y004591D01*
X003526Y004591D01*
X003526Y004590D01*
X004069Y004590D01*
X004069Y004430D01*
X004029Y004390D01*
X004029Y004132D01*
X004015Y004118D01*
X004029Y004105D01*
X004029Y003817D01*
X004015Y003803D01*
X004029Y003790D01*
X004029Y003502D01*
X004015Y003488D01*
X004029Y003475D01*
X004029Y003187D01*
X003965Y003122D01*
X003642Y003122D01*
X003610Y003091D01*
X003420Y003091D01*
X002512Y003091D01*
X002512Y002424D01*
X002483Y002395D01*
X002272Y002395D01*
X002272Y002248D01*
X002307Y002163D01*
X002307Y002058D01*
X002267Y001961D01*
X002192Y001886D01*
X002095Y001846D01*
X001989Y001846D01*
X001892Y001886D01*
X001883Y001895D01*
X001883Y001769D01*
X001819Y001705D01*
X000912Y001705D01*
X000912Y001657D02*
X004047Y001657D01*
X004047Y001673D02*
X004047Y001568D01*
X004087Y001471D01*
X004162Y001396D01*
X004259Y001356D01*
X004365Y001356D01*
X004462Y001396D01*
X004537Y001471D01*
X004577Y001568D01*
X004577Y001659D01*
X005078Y002161D01*
X005124Y002206D01*
X005092Y002129D01*
X005092Y001982D01*
X005148Y001846D01*
X005252Y001742D01*
X005388Y001686D01*
X006056Y001686D01*
X006192Y001742D01*
X006296Y001846D01*
X006352Y001982D01*
X006352Y002129D01*
X006296Y002265D01*
X006192Y002369D01*
X006056Y002426D01*
X005388Y002426D01*
X005252Y002369D01*
X005172Y002289D01*
X005172Y002296D01*
X005237Y002361D01*
X005277Y002458D01*
X005277Y002563D01*
X005237Y002661D01*
X005162Y002735D01*
X005065Y002776D01*
X004959Y002776D01*
X004862Y002735D01*
X004787Y002661D01*
X004747Y002563D01*
X004747Y002458D01*
X004787Y002361D01*
X004806Y002341D01*
X004351Y001886D01*
X004259Y001886D01*
X004162Y001845D01*
X004087Y001771D01*
X004047Y001673D01*
X004081Y001756D02*
X003956Y001756D01*
X003970Y001769D02*
X003905Y001705D01*
X002948Y001705D01*
X002884Y001769D01*
X002884Y002845D01*
X002948Y002909D01*
X003905Y002909D01*
X003970Y002845D01*
X003970Y001769D01*
X003970Y001854D02*
X004184Y001854D01*
X004302Y001951D02*
X004302Y002021D01*
X004282Y002041D01*
X004418Y001953D02*
X003970Y001953D01*
X003970Y002051D02*
X004517Y002051D01*
X004615Y002150D02*
X003970Y002150D01*
X003970Y002249D02*
X004714Y002249D01*
X004801Y002347D02*
X004322Y002347D01*
X004295Y002336D02*
X004392Y002376D01*
X004467Y002451D01*
X004507Y002548D01*
X004507Y002639D01*
X004582Y002714D01*
X004582Y004172D01*
X004656Y004141D01*
X004972Y003826D01*
X005162Y003826D01*
X005169Y003826D01*
X005252Y003742D01*
X005388Y003686D01*
X006056Y003686D01*
X006192Y003742D01*
X006296Y003846D01*
X006352Y003982D01*
X006352Y004129D01*
X006296Y004265D01*
X006192Y004369D01*
X006056Y004426D01*
X005388Y004426D01*
X005252Y004369D01*
X005169Y004286D01*
X005162Y004286D01*
X004982Y004466D01*
X004952Y004538D01*
X004952Y005043D01*
X004987Y005128D01*
X004987Y005233D01*
X004951Y005319D01*
X004992Y005336D01*
X005067Y005411D01*
X005107Y005508D01*
X005107Y005613D01*
X005067Y005711D01*
X004992Y005785D01*
X004895Y005826D01*
X004789Y005826D01*
X004692Y005785D01*
X004627Y005721D01*
X004596Y005721D01*
X004262Y005387D01*
X004262Y005254D01*
X004262Y002866D01*
X004189Y002866D01*
X004092Y002825D01*
X004017Y002751D01*
X003977Y002653D01*
X003977Y002548D01*
X004017Y002451D01*
X004092Y002376D01*
X004189Y002336D01*
X004295Y002336D01*
X004462Y002446D02*
X004752Y002446D01*
X004747Y002544D02*
X004505Y002544D01*
X004510Y002643D02*
X004780Y002643D01*
X004876Y002741D02*
X004582Y002741D01*
X004582Y002840D02*
X005108Y002840D01*
X005114Y002823D02*
X005230Y002708D01*
X005380Y002646D01*
X005692Y002646D01*
X005692Y003025D01*
X005752Y003025D01*
X005752Y002646D01*
X006064Y002646D01*
X006214Y002708D01*
X006330Y002823D01*
X006392Y002974D01*
X006392Y003026D01*
X005752Y003026D01*
X005752Y003086D01*
X005692Y003086D01*
X005692Y003466D01*
X005380Y003466D01*
X005230Y003403D01*
X005114Y003288D01*
X005052Y003137D01*
X005052Y003086D01*
X005692Y003086D01*
X005692Y003026D01*
X005052Y003026D01*
X005052Y002974D01*
X005114Y002823D01*
X005147Y002741D02*
X005196Y002741D01*
X005244Y002643D02*
X006798Y002643D01*
X006798Y002544D02*
X005277Y002544D01*
X005272Y002446D02*
X006797Y002446D01*
X006797Y002347D02*
X006214Y002347D01*
X006302Y002249D02*
X006797Y002249D01*
X006797Y002150D02*
X006343Y002150D01*
X006352Y002051D02*
X006797Y002051D01*
X006797Y001953D02*
X006340Y001953D01*
X006299Y001854D02*
X006797Y001854D01*
X006796Y001756D02*
X006205Y001756D01*
X006199Y001362D02*
X006796Y001362D01*
X006796Y001263D02*
X006296Y001263D01*
X006337Y001165D02*
X006796Y001165D01*
X006796Y001066D02*
X006352Y001066D01*
X006346Y000968D02*
X006795Y000968D01*
X006795Y000869D02*
X006305Y000869D01*
X006796Y001460D02*
X004526Y001460D01*
X004573Y001559D02*
X006796Y001559D01*
X006796Y001657D02*
X004577Y001657D01*
X004673Y001756D02*
X005238Y001756D01*
X005145Y001854D02*
X004772Y001854D01*
X004871Y001953D02*
X005104Y001953D01*
X005092Y002051D02*
X004969Y002051D01*
X005068Y002150D02*
X005101Y002150D01*
X005078Y002161D02*
X005078Y002161D01*
X005012Y002321D02*
X005012Y002511D01*
X005223Y002347D02*
X005230Y002347D01*
X005012Y002321D02*
X004312Y001621D01*
X004098Y001460D02*
X000912Y001460D01*
X000912Y001559D02*
X004051Y001559D01*
X004245Y001362D02*
X000912Y001362D01*
X000912Y001263D02*
X005147Y001263D01*
X005107Y001165D02*
X000912Y001165D01*
X000912Y001066D02*
X005092Y001066D01*
X005098Y000968D02*
X000912Y000968D01*
X000912Y000869D02*
X005139Y000869D01*
X005245Y001362D02*
X004379Y001362D01*
X004161Y002347D02*
X003970Y002347D01*
X003970Y002446D02*
X004022Y002446D01*
X003978Y002544D02*
X003970Y002544D01*
X003970Y002643D02*
X003977Y002643D01*
X003970Y002741D02*
X004013Y002741D01*
X003970Y002840D02*
X004127Y002840D01*
X004262Y002938D02*
X002512Y002938D01*
X002512Y002840D02*
X002884Y002840D01*
X002884Y002741D02*
X002512Y002741D01*
X002512Y002643D02*
X002884Y002643D01*
X002884Y002544D02*
X002512Y002544D01*
X002512Y002446D02*
X002884Y002446D01*
X002884Y002347D02*
X002272Y002347D01*
X002272Y002249D02*
X002884Y002249D01*
X002884Y002150D02*
X002307Y002150D01*
X002304Y002051D02*
X002884Y002051D01*
X002884Y001953D02*
X002259Y001953D01*
X002116Y001854D02*
X002884Y001854D01*
X002897Y001756D02*
X001870Y001756D01*
X001883Y001854D02*
X001968Y001854D01*
X002512Y003037D02*
X004262Y003037D01*
X004262Y003135D02*
X003978Y003135D01*
X004029Y003234D02*
X004262Y003234D01*
X004262Y003333D02*
X004029Y003333D01*
X004029Y003431D02*
X004262Y003431D01*
X004262Y003530D02*
X004029Y003530D01*
X004029Y003628D02*
X004262Y003628D01*
X004262Y003727D02*
X004029Y003727D01*
X004029Y003825D02*
X004262Y003825D01*
X004262Y003924D02*
X004029Y003924D01*
X004029Y004022D02*
X004262Y004022D01*
X004262Y004121D02*
X004018Y004121D01*
X004029Y004219D02*
X004262Y004219D01*
X004262Y004318D02*
X004029Y004318D01*
X004056Y004417D02*
X004262Y004417D01*
X004262Y004515D02*
X004069Y004515D01*
X004069Y004614D02*
X004262Y004614D01*
X004262Y004712D02*
X004069Y004712D01*
X004009Y004811D02*
X004262Y004811D01*
X004262Y004909D02*
X002512Y004909D01*
X002512Y005008D02*
X004262Y005008D01*
X004262Y005106D02*
X003970Y005106D01*
X003970Y005076D02*
X003905Y005012D01*
X002948Y005012D01*
X002884Y005076D01*
X002884Y006152D01*
X002948Y006216D01*
X003905Y006216D01*
X003970Y006152D01*
X003970Y005076D01*
X003970Y005205D02*
X004262Y005205D01*
X004262Y005303D02*
X003970Y005303D01*
X003970Y005402D02*
X004277Y005402D01*
X004376Y005501D02*
X003970Y005501D01*
X003970Y005599D02*
X004474Y005599D01*
X004573Y005698D02*
X003970Y005698D01*
X003970Y005796D02*
X004718Y005796D01*
X004966Y005796D02*
X005198Y005796D01*
X005148Y005846D02*
X005252Y005742D01*
X005388Y005686D01*
X006056Y005686D01*
X006192Y005742D01*
X006296Y005846D01*
X006352Y005982D01*
X006352Y006129D01*
X006296Y006265D01*
X006192Y006369D01*
X006056Y006426D01*
X005388Y006426D01*
X005252Y006369D01*
X005148Y006265D01*
X005092Y006129D01*
X005092Y005982D01*
X005148Y005846D01*
X005128Y005895D02*
X003970Y005895D01*
X003970Y005993D02*
X005092Y005993D01*
X005092Y006092D02*
X003970Y006092D01*
X003931Y006190D02*
X005117Y006190D01*
X005172Y006289D02*
X001337Y006289D01*
X001335Y006387D02*
X005296Y006387D01*
X005477Y006584D02*
X006803Y006584D01*
X006803Y006486D02*
X003562Y006486D01*
X003392Y006691D02*
X005357Y006691D01*
X005722Y007056D01*
X005576Y006683D02*
X006803Y006683D01*
X006803Y006782D02*
X006231Y006782D01*
X006310Y006880D02*
X006803Y006880D01*
X006803Y006979D02*
X006351Y006979D01*
X006352Y007077D02*
X006804Y007077D01*
X006804Y007176D02*
X006333Y007176D01*
X006148Y006387D02*
X006803Y006387D01*
X006803Y006289D02*
X006272Y006289D01*
X006327Y006190D02*
X006802Y006190D01*
X006802Y006092D02*
X006352Y006092D01*
X006352Y005993D02*
X006802Y005993D01*
X006802Y005895D02*
X006316Y005895D01*
X006246Y005796D02*
X006802Y005796D01*
X006802Y005698D02*
X006084Y005698D01*
X006064Y005466D02*
X005752Y005466D01*
X005752Y005086D01*
X005692Y005086D01*
X005692Y005466D01*
X005380Y005466D01*
X005230Y005403D01*
X005114Y005288D01*
X005052Y005137D01*
X005052Y005086D01*
X005692Y005086D01*
X005692Y005026D01*
X005052Y005026D01*
X005052Y004974D01*
X005114Y004823D01*
X005230Y004708D01*
X005380Y004646D01*
X005692Y004646D01*
X005692Y005025D01*
X005752Y005025D01*
X005752Y004646D01*
X006064Y004646D01*
X006214Y004708D01*
X006330Y004823D01*
X006392Y004974D01*
X006392Y005026D01*
X005752Y005026D01*
X005752Y005086D01*
X006392Y005086D01*
X006392Y005137D01*
X006330Y005288D01*
X006214Y005403D01*
X006064Y005466D01*
X006215Y005402D02*
X006801Y005402D01*
X006801Y005501D02*
X005104Y005501D01*
X005107Y005599D02*
X006802Y005599D01*
X006801Y005303D02*
X006314Y005303D01*
X006364Y005205D02*
X006801Y005205D01*
X006801Y005106D02*
X006392Y005106D01*
X006392Y005008D02*
X006801Y005008D01*
X006801Y004909D02*
X006365Y004909D01*
X006317Y004811D02*
X006801Y004811D01*
X006800Y004712D02*
X006218Y004712D01*
X006077Y004417D02*
X006800Y004417D01*
X006800Y004318D02*
X006243Y004318D01*
X006315Y004219D02*
X006800Y004219D01*
X006800Y004121D02*
X006352Y004121D01*
X006352Y004022D02*
X006800Y004022D01*
X006799Y003924D02*
X006328Y003924D01*
X006275Y003825D02*
X006799Y003825D01*
X006799Y003727D02*
X006155Y003727D01*
X006064Y003466D02*
X005752Y003466D01*
X005752Y003086D01*
X006392Y003086D01*
X006392Y003137D01*
X006330Y003288D01*
X006214Y003403D01*
X006064Y003466D01*
X006147Y003431D02*
X006799Y003431D01*
X006799Y003333D02*
X006285Y003333D01*
X006352Y003234D02*
X006798Y003234D01*
X006798Y003135D02*
X006392Y003135D01*
X006377Y002938D02*
X006798Y002938D01*
X006798Y002840D02*
X006336Y002840D01*
X006247Y002741D02*
X006798Y002741D01*
X006798Y003037D02*
X005752Y003037D01*
X005692Y003037D02*
X004582Y003037D01*
X004582Y002938D02*
X005067Y002938D01*
X005052Y003135D02*
X004582Y003135D01*
X004582Y003234D02*
X005092Y003234D01*
X005159Y003333D02*
X004582Y003333D01*
X004582Y003431D02*
X005297Y003431D01*
X005289Y003727D02*
X004582Y003727D01*
X004582Y003825D02*
X005169Y003825D01*
X004874Y003924D02*
X004582Y003924D01*
X004582Y004022D02*
X004775Y004022D01*
X004676Y004121D02*
X004582Y004121D01*
X005031Y004417D02*
X005366Y004417D01*
X005201Y004318D02*
X005130Y004318D01*
X004961Y004515D02*
X006800Y004515D01*
X006800Y004614D02*
X004952Y004614D01*
X004952Y004712D02*
X005226Y004712D01*
X005127Y004811D02*
X004952Y004811D01*
X004952Y004909D02*
X005079Y004909D01*
X005052Y005008D02*
X004952Y005008D01*
X004978Y005106D02*
X005052Y005106D01*
X005080Y005205D02*
X004987Y005205D01*
X004958Y005303D02*
X005130Y005303D01*
X005058Y005402D02*
X005229Y005402D01*
X005359Y005698D02*
X005072Y005698D01*
X004842Y005561D02*
X004662Y005561D01*
X004422Y005321D01*
X004422Y002781D01*
X004242Y002601D01*
X004582Y003530D02*
X006799Y003530D01*
X006799Y003628D02*
X004582Y003628D01*
X003525Y003646D02*
X003520Y003651D01*
X003042Y003651D01*
X002992Y003701D01*
X002992Y003751D01*
X002942Y003801D01*
X002683Y003801D01*
X001953Y004531D01*
X001722Y004531D01*
X002512Y004811D02*
X003041Y004811D01*
X002862Y004701D02*
X002862Y004281D01*
X002802Y003961D02*
X003525Y003961D01*
X003525Y004614D02*
X003525Y004614D01*
X003525Y004712D02*
X003525Y004712D01*
X003525Y004811D02*
X003525Y004811D01*
X002884Y005106D02*
X002512Y005106D01*
X002512Y005205D02*
X002884Y005205D01*
X002884Y005303D02*
X002512Y005303D01*
X002512Y005402D02*
X002884Y005402D01*
X002884Y005501D02*
X002509Y005501D01*
X002884Y005599D02*
X001883Y005599D01*
X001883Y005698D02*
X002884Y005698D01*
X002884Y005796D02*
X001883Y005796D01*
X001883Y005895D02*
X002884Y005895D01*
X002884Y005993D02*
X001883Y005993D01*
X001883Y006092D02*
X002884Y006092D01*
X002922Y006190D02*
X001845Y006190D01*
X001291Y006486D02*
X003222Y006486D01*
X003149Y006584D02*
X001212Y006584D01*
X001212Y006683D02*
X003127Y006683D01*
X003143Y006782D02*
X001212Y006782D01*
X001212Y006880D02*
X003207Y006880D01*
X003577Y006880D02*
X004088Y006880D01*
X005692Y005402D02*
X005752Y005402D01*
X005752Y005303D02*
X005692Y005303D01*
X005692Y005205D02*
X005752Y005205D01*
X005752Y005106D02*
X005692Y005106D01*
X005692Y005008D02*
X005752Y005008D01*
X005752Y004909D02*
X005692Y004909D01*
X005692Y004811D02*
X005752Y004811D01*
X005752Y004712D02*
X005692Y004712D01*
X005692Y003431D02*
X005752Y003431D01*
X005752Y003333D02*
X005692Y003333D01*
X005692Y003234D02*
X005752Y003234D01*
X005752Y003135D02*
X005692Y003135D01*
X005692Y002938D02*
X005752Y002938D01*
X005752Y002840D02*
X005692Y002840D01*
X005692Y002741D02*
X005752Y002741D01*
D15*
X002802Y003961D02*
X002802Y003961D01*
X001842Y004921D01*
X001372Y004921D01*
X001372Y004861D01*
X002512Y001811D02*
X002452Y001751D01*
X002422Y001751D01*
D16*
X002042Y002111D02*
X002042Y003091D01*
X002272Y003321D01*
X003515Y003321D01*
X003525Y003331D01*
X004722Y004401D02*
X004722Y005181D01*
X004722Y004401D02*
X005067Y004056D01*
X005722Y004056D01*
X002942Y006811D02*
X002782Y006821D01*
X004242Y007101D02*
X004272Y007131D01*
X004272Y007201D01*
X004302Y007201D01*
X004272Y007201D02*
X000982Y007201D01*
X000982Y006331D01*
X001072Y006331D01*
M02*
