G75*
G70*
%OFA0B0*%
%FSLAX24Y24*%
%IPPOS*%
%LPD*%
%AMOC8*
5,1,8,0,0,1.08239X$1,22.5*
%
%ADD10C,0.1580*%
%ADD11C,0.0673*%
%ADD12C,0.1400*%
%ADD13C,0.0550*%
%ADD14C,0.0885*%
%ADD15C,0.0500*%
%ADD16C,0.0640*%
%ADD17C,0.0390*%
%ADD18C,0.0080*%
%ADD19C,0.0560*%
%ADD20C,0.0160*%
%ADD21R,0.0476X0.0476*%
%ADD22C,0.0476*%
%ADD23C,0.0120*%
%ADD24C,0.0555*%
D10*
X004037Y021914D03*
X002187Y023095D03*
X004037Y024276D03*
D11*
X004534Y016650D03*
X004534Y015650D03*
X004534Y014650D03*
X004534Y013650D03*
X004534Y012650D03*
X004534Y011650D03*
X004534Y010650D03*
X004534Y009650D03*
X004534Y008650D03*
X004534Y007650D03*
X004534Y006650D03*
X004534Y005650D03*
X005534Y005650D03*
X005534Y006650D03*
X005534Y007650D03*
X005534Y008650D03*
X005534Y009650D03*
X005534Y010650D03*
X005534Y011650D03*
X005534Y012650D03*
X005534Y013650D03*
X005534Y014650D03*
X005534Y015650D03*
X005534Y016650D03*
X003534Y016650D03*
X003534Y015650D03*
X003534Y014650D03*
X003534Y013650D03*
X003534Y012650D03*
X003534Y011650D03*
X003534Y010650D03*
X003534Y009650D03*
X003534Y008650D03*
X003534Y007650D03*
X003534Y006650D03*
X003534Y005650D03*
X003534Y002650D03*
X004534Y002650D03*
X005534Y002650D03*
X007534Y001400D03*
X008534Y001400D03*
X009534Y001400D03*
X010534Y001400D03*
X011534Y001400D03*
X012534Y001400D03*
X013534Y001400D03*
X014534Y001400D03*
X016534Y002650D03*
X017534Y002650D03*
X018534Y002650D03*
X018534Y005650D03*
X018534Y006650D03*
X018534Y007650D03*
X018534Y008650D03*
X018534Y009650D03*
X018534Y010650D03*
X018534Y011650D03*
X018534Y012650D03*
X018534Y013650D03*
X018534Y014650D03*
X018534Y015650D03*
X018534Y016650D03*
X017534Y016650D03*
X017534Y015650D03*
X017534Y014650D03*
X017534Y013650D03*
X017534Y012650D03*
X017534Y011650D03*
X017534Y010650D03*
X017534Y009650D03*
X017534Y008650D03*
X017534Y007650D03*
X017534Y006650D03*
X017534Y005650D03*
X016534Y005650D03*
X016534Y006650D03*
X016534Y007650D03*
X016534Y008650D03*
X016534Y009650D03*
X016534Y010650D03*
X016534Y011650D03*
X016534Y012650D03*
X016534Y013650D03*
X016534Y014650D03*
X016534Y015650D03*
X016534Y016650D03*
X016154Y022500D03*
X015154Y022500D03*
X014154Y022500D03*
X017154Y022500D03*
X018154Y022500D03*
X019154Y022500D03*
X020154Y022500D03*
D12*
X020284Y018900D03*
X020284Y001400D03*
X001784Y001400D03*
X001784Y018900D03*
D13*
X003737Y018169D03*
X004524Y018169D03*
X005311Y018169D03*
X016737Y018169D03*
X017524Y018169D03*
X018311Y018169D03*
D14*
X019099Y018169D03*
X015949Y018169D03*
X006099Y018169D03*
X002949Y018169D03*
D15*
X001338Y020328D03*
D16*
X010464Y011650D03*
X013344Y014490D03*
X013304Y015530D03*
X013484Y012070D03*
D17*
X012854Y012080D03*
X012104Y011490D03*
X011624Y011490D03*
X011644Y010750D03*
X012124Y010750D03*
X012184Y008990D03*
X011744Y008890D03*
X011444Y008550D03*
X011584Y008110D03*
X011144Y008210D03*
X011144Y008890D03*
X010464Y007950D03*
X010004Y007830D03*
X009544Y007310D03*
X009104Y007410D03*
X009184Y006810D03*
X009504Y006490D03*
X009224Y006130D03*
X009964Y007130D03*
X010244Y006750D03*
X010484Y007170D03*
X010144Y008530D03*
X009824Y008850D03*
X012044Y008550D03*
X013804Y010890D03*
X013604Y012800D03*
X014384Y013110D03*
X014704Y014210D03*
X015164Y014130D03*
X015404Y013110D03*
X012744Y015150D03*
X012884Y015970D03*
X013744Y016750D03*
X012404Y018150D03*
X011664Y018310D03*
X011324Y017410D03*
X010504Y018420D03*
X010644Y019040D03*
X011464Y019450D03*
X011744Y019810D03*
X012064Y019490D03*
X012184Y019930D03*
X011164Y021830D03*
X010824Y022130D03*
X010464Y022410D03*
X009704Y022430D03*
X010124Y021190D03*
X008464Y019630D03*
X008824Y019130D03*
X008444Y018830D03*
X008444Y018370D03*
X008904Y018370D03*
X007604Y019030D03*
X006844Y018870D03*
X007024Y017290D03*
X007344Y016970D03*
X007484Y016530D03*
X006864Y016490D03*
X006724Y016950D03*
X006424Y017290D03*
X006304Y016750D03*
X007564Y014230D03*
X008444Y013530D03*
X008104Y013230D03*
X008444Y012930D03*
X009344Y013450D03*
X009744Y013230D03*
X009744Y013690D03*
X010384Y012910D03*
X010424Y014790D03*
X007364Y012670D03*
X007344Y008910D03*
X007244Y007750D03*
X007384Y006050D03*
X007384Y005050D03*
X011704Y004090D03*
X014304Y008170D03*
X015194Y007630D03*
X015264Y003730D03*
X019824Y016530D03*
X015804Y019410D03*
X015804Y019910D03*
X011884Y022190D03*
D18*
X011164Y021830D02*
X010884Y021830D01*
X010744Y021690D01*
X010744Y021510D01*
X011444Y020810D01*
X011444Y020110D01*
X011744Y019810D01*
X012064Y019490D02*
X011704Y019130D01*
X011344Y019130D01*
X011164Y019310D01*
X011164Y020690D01*
X010464Y021390D01*
X010464Y022410D01*
X010824Y022130D02*
X010604Y021910D01*
X010604Y021450D01*
X011304Y020750D01*
X011304Y019610D01*
X011464Y019450D01*
X011324Y017410D02*
X011324Y017350D01*
X011924Y016750D01*
X013744Y016750D01*
X012944Y015970D02*
X012884Y015970D01*
X014384Y014390D02*
X014384Y013950D01*
X014224Y013790D01*
X013904Y013790D01*
X013744Y013630D01*
X009804Y013630D01*
X009744Y013690D01*
X010004Y013490D02*
X013824Y013490D01*
X013984Y013650D01*
X014604Y013650D01*
X014704Y013750D01*
X014704Y014210D01*
X014524Y014530D02*
X014984Y014530D01*
X015104Y014410D01*
X015104Y014090D01*
X015144Y014130D01*
X015164Y014130D01*
X015104Y014090D02*
X015104Y014050D01*
X014524Y014530D02*
X014384Y014390D01*
X014244Y013510D02*
X015784Y013510D01*
X016284Y014050D01*
X016284Y014510D01*
X016424Y014650D01*
X016534Y014650D01*
X016534Y013650D02*
X016274Y013350D01*
X015724Y013350D01*
X015744Y013290D01*
X015744Y013030D01*
X015704Y012990D01*
X015704Y012870D01*
X015604Y012770D01*
X014264Y012770D01*
X013924Y013110D01*
X013924Y013170D01*
X013904Y013190D01*
X010904Y013190D01*
X010624Y012910D01*
X010384Y012910D01*
X010324Y013350D02*
X014044Y013350D01*
X014244Y013510D01*
X014384Y013110D02*
X015404Y013110D01*
X015904Y011650D02*
X015144Y010890D01*
X013804Y010890D01*
X013424Y011300D02*
X013424Y010430D01*
X013664Y010190D01*
X014714Y010190D01*
X015944Y008960D01*
X015944Y007820D01*
X015704Y007580D01*
X015704Y006830D01*
X015464Y006590D01*
X010404Y006590D01*
X010244Y006750D01*
X009944Y006710D02*
X009944Y006510D01*
X010024Y006430D01*
X015524Y006430D01*
X015864Y006770D01*
X015864Y007510D01*
X016104Y007750D01*
X016104Y008530D01*
X016204Y008630D01*
X016514Y008630D01*
X016534Y008650D01*
X015794Y008900D02*
X015794Y007880D01*
X015554Y007640D01*
X015554Y006890D01*
X015404Y006740D01*
X010914Y006740D01*
X010484Y007170D01*
X009944Y006710D02*
X009544Y007110D01*
X009544Y007310D01*
X009664Y006790D02*
X009204Y006790D01*
X009184Y006810D01*
X009504Y006490D02*
X009524Y006470D01*
X009564Y006470D01*
X009884Y006150D01*
X015644Y006150D01*
X016144Y006650D01*
X016534Y006650D01*
X016004Y006710D02*
X016004Y007450D01*
X016204Y007650D01*
X016534Y007650D01*
X016004Y006710D02*
X015584Y006290D01*
X009944Y006290D01*
X009804Y006430D01*
X009804Y006650D01*
X009664Y006790D01*
X009704Y006130D02*
X009224Y006130D01*
X009304Y006210D01*
X009704Y006130D02*
X009824Y006010D01*
X015644Y006010D01*
X016004Y005650D01*
X016534Y005650D01*
X015794Y008900D02*
X014654Y010040D01*
X013604Y010040D01*
X013274Y010370D01*
X013274Y011330D01*
X012854Y011750D01*
X012854Y012080D01*
X012104Y011490D02*
X012104Y011170D01*
X012144Y011130D01*
X012264Y011130D01*
X012424Y010970D01*
X012424Y010590D01*
X012284Y010450D01*
X011984Y010450D01*
X011684Y010750D01*
X011644Y010750D01*
X011784Y011130D02*
X011784Y011330D01*
X011624Y011490D01*
X011784Y011130D02*
X012124Y010790D01*
X012124Y010750D01*
X011564Y009470D02*
X011704Y009330D01*
X012264Y009330D01*
X012484Y009110D01*
X012484Y008670D01*
X012364Y008550D01*
X012044Y008550D01*
X011744Y008890D02*
X011444Y009190D01*
X010704Y009190D01*
X010184Y009710D01*
X009004Y009710D01*
X007504Y011210D01*
X007044Y011210D01*
X006644Y011610D01*
X006644Y011690D01*
X006444Y011890D01*
X006444Y012150D01*
X006144Y012450D01*
X006144Y013250D01*
X005984Y013410D01*
X005984Y014350D01*
X005684Y014650D01*
X005534Y014650D01*
X005984Y014550D02*
X006124Y014410D01*
X006124Y013470D01*
X006284Y013310D01*
X006284Y012510D01*
X006584Y012210D01*
X006584Y011950D01*
X006784Y011750D01*
X006784Y011670D01*
X007104Y011350D01*
X007564Y011350D01*
X009064Y009850D01*
X010244Y009850D01*
X010764Y009330D01*
X011504Y009330D01*
X011644Y009190D01*
X011984Y009190D01*
X012184Y008990D01*
X011564Y009470D02*
X010824Y009470D01*
X010304Y009990D01*
X009124Y009990D01*
X007624Y011490D01*
X007164Y011490D01*
X006924Y011730D01*
X006924Y011810D01*
X006724Y012010D01*
X006724Y012270D01*
X006424Y012570D01*
X006424Y013370D01*
X006264Y013530D01*
X006264Y014470D01*
X006124Y014610D01*
X006124Y014890D01*
X005984Y015030D01*
X005984Y015830D01*
X005534Y016280D01*
X005534Y016650D01*
X006124Y016570D02*
X006304Y016750D01*
X006124Y016570D02*
X006124Y015090D01*
X006264Y014950D01*
X006264Y014670D01*
X006404Y014530D01*
X006404Y013590D01*
X006764Y013230D01*
X008104Y013230D01*
X007804Y013370D02*
X006824Y013370D01*
X006544Y013650D01*
X006544Y014590D01*
X006404Y014730D01*
X006404Y015010D01*
X006264Y015150D01*
X006264Y016070D01*
X006684Y016490D01*
X006864Y016490D01*
X006724Y016950D02*
X006724Y017470D01*
X006924Y017670D01*
X006924Y018090D01*
X007424Y018590D01*
X007804Y018590D01*
X008024Y018810D01*
X008424Y018810D01*
X008444Y018830D01*
X008144Y018670D02*
X008444Y018370D01*
X008324Y018070D02*
X008584Y018070D01*
X008884Y018370D01*
X008904Y018370D01*
X008824Y019130D02*
X008824Y019170D01*
X008664Y019330D01*
X008224Y019330D01*
X007904Y019010D01*
X007904Y018890D01*
X007744Y018730D01*
X007364Y018730D01*
X006784Y018150D01*
X006784Y017830D01*
X006424Y017470D01*
X006424Y017290D01*
X007024Y017290D02*
X007064Y017330D01*
X007064Y018030D01*
X007484Y018450D01*
X007864Y018450D01*
X008084Y018670D01*
X008144Y018670D01*
X008084Y018310D02*
X008324Y018070D01*
X008084Y018310D02*
X007544Y018310D01*
X007204Y017970D01*
X007204Y017530D01*
X007344Y017390D01*
X007344Y016970D01*
X007604Y019030D02*
X008204Y019630D01*
X008464Y019630D01*
X005534Y015650D02*
X005534Y015280D01*
X005984Y014830D01*
X005984Y014550D01*
X005534Y013650D02*
X006004Y013180D01*
X006004Y012390D01*
X006304Y012090D01*
X006304Y011830D01*
X006504Y011630D01*
X006504Y011550D01*
X006984Y011070D01*
X007444Y011070D01*
X008944Y009570D01*
X010124Y009570D01*
X010804Y008890D01*
X011144Y008890D01*
X010944Y008550D02*
X011444Y008550D01*
X011584Y008110D02*
X011384Y007910D01*
X011004Y007910D01*
X010844Y008070D01*
X010844Y008250D01*
X009944Y009150D01*
X008764Y009150D01*
X007264Y010650D01*
X005534Y010650D01*
X006124Y010350D02*
X006124Y009730D01*
X006044Y009650D01*
X005534Y009650D01*
X006264Y009380D02*
X005534Y008650D01*
X006264Y009380D02*
X006264Y010290D01*
X006344Y010370D01*
X007124Y010370D01*
X008624Y008870D01*
X009384Y008870D01*
X009724Y008530D01*
X010144Y008530D01*
X009824Y008850D02*
X009604Y008850D01*
X009444Y009010D01*
X008684Y009010D01*
X007184Y010510D01*
X006284Y010510D01*
X006124Y010350D01*
X006864Y010790D02*
X006224Y011430D01*
X006224Y011510D01*
X006084Y011650D01*
X005534Y011650D01*
X006164Y011770D02*
X006364Y011570D01*
X006364Y011490D01*
X006924Y010930D01*
X007384Y010930D01*
X008884Y009430D01*
X010064Y009430D01*
X010944Y008550D01*
X010944Y008410D02*
X010884Y008410D01*
X010004Y009290D01*
X008824Y009290D01*
X007324Y010790D01*
X006864Y010790D01*
X006164Y011770D02*
X006164Y012020D01*
X005534Y012650D01*
X007364Y012670D02*
X007624Y012930D01*
X008444Y012930D01*
X008444Y013530D02*
X007964Y013530D01*
X007804Y013370D01*
X009344Y013450D02*
X009344Y013190D01*
X009624Y012910D01*
X009884Y012910D01*
X010324Y013350D01*
X010004Y013490D02*
X009744Y013230D01*
X009944Y013430D01*
X010424Y014790D02*
X010444Y014790D01*
X010464Y014810D01*
X013424Y011300D02*
X013994Y011870D01*
X013994Y012440D01*
X013634Y012800D01*
X013604Y012800D01*
X015904Y011650D02*
X016534Y011650D01*
X011144Y008210D02*
X010944Y008410D01*
X007384Y006050D02*
X007384Y005050D01*
D19*
X005534Y002650D02*
X014184Y002650D01*
X015264Y003730D01*
X019764Y016530D02*
X018984Y017310D01*
X018964Y017310D01*
X018864Y017410D01*
X016944Y017410D01*
X016737Y017617D01*
X016737Y018169D01*
X017164Y020870D02*
X017164Y022490D01*
X017154Y022500D01*
X019764Y016530D02*
X019824Y016530D01*
D20*
X001134Y025730D02*
X001134Y000650D01*
X020914Y000650D01*
X020914Y025553D01*
X020868Y025572D01*
X020726Y025714D01*
X020719Y025730D01*
X013589Y025730D01*
X013582Y025714D01*
X013440Y025572D01*
X013255Y025495D01*
X013054Y025495D01*
X012868Y025572D01*
X012726Y025714D01*
X012719Y025730D01*
X001134Y025730D01*
X001134Y025674D02*
X012766Y025674D01*
X013004Y025515D02*
X001134Y025515D01*
X001134Y025357D02*
X020914Y025357D01*
X020914Y025515D02*
X013304Y025515D01*
X013542Y025674D02*
X020766Y025674D01*
X020914Y025198D02*
X001134Y025198D01*
X001134Y025040D02*
X020914Y025040D01*
X020914Y024881D02*
X001134Y024881D01*
X001134Y024723D02*
X020914Y024723D01*
X020914Y024564D02*
X001134Y024564D01*
X001134Y024406D02*
X020914Y024406D01*
X020914Y024247D02*
X001134Y024247D01*
X001134Y024089D02*
X020914Y024089D01*
X020914Y023930D02*
X001134Y023930D01*
X001134Y023771D02*
X020914Y023771D01*
X020914Y023613D02*
X001134Y023613D01*
X001134Y023454D02*
X020914Y023454D01*
X020914Y023296D02*
X001134Y023296D01*
X001134Y023137D02*
X020914Y023137D01*
X020914Y022979D02*
X001134Y022979D01*
X001134Y022820D02*
X003795Y022820D01*
X003852Y022844D02*
X003510Y022702D01*
X003249Y022441D01*
X003107Y022099D01*
X003107Y021729D01*
X003249Y021387D01*
X003510Y021125D01*
X003852Y020984D01*
X004222Y020984D01*
X004564Y021125D01*
X004825Y021387D01*
X004967Y021729D01*
X004967Y022099D01*
X004825Y022441D01*
X004564Y022702D01*
X004222Y022844D01*
X003852Y022844D01*
X003470Y022662D02*
X001134Y022662D01*
X001134Y022503D02*
X003311Y022503D01*
X003209Y022345D02*
X001134Y022345D01*
X001134Y022186D02*
X003143Y022186D01*
X003107Y022027D02*
X001134Y022027D01*
X001134Y021869D02*
X003107Y021869D01*
X003115Y021710D02*
X001134Y021710D01*
X001134Y021552D02*
X003180Y021552D01*
X003246Y021393D02*
X001134Y021393D01*
X001134Y021235D02*
X003401Y021235D01*
X003629Y021076D02*
X001134Y021076D01*
X001134Y020918D02*
X009923Y020918D01*
X009934Y020906D02*
X010057Y020855D01*
X010191Y020855D01*
X010314Y020906D01*
X010368Y020960D01*
X010785Y020528D01*
X010804Y019228D01*
X010804Y019147D01*
X010805Y019146D01*
X010805Y019144D01*
X010863Y019088D01*
X011124Y018827D01*
X011124Y017684D01*
X011040Y017600D01*
X010989Y017477D01*
X010989Y017343D01*
X011040Y017220D01*
X011134Y017126D01*
X011257Y017075D01*
X011345Y017075D01*
X011850Y016570D01*
X011999Y016570D01*
X013456Y016570D01*
X013460Y016560D01*
X013554Y016466D01*
X013677Y016415D01*
X013811Y016415D01*
X013934Y016466D01*
X014028Y016560D01*
X014079Y016683D01*
X014079Y016817D01*
X014028Y016940D01*
X013934Y017034D01*
X013811Y017085D01*
X013677Y017085D01*
X013554Y017034D01*
X013460Y016940D01*
X013456Y016930D01*
X011999Y016930D01*
X011637Y017291D01*
X011659Y017343D01*
X011659Y017477D01*
X011608Y017600D01*
X011524Y017684D01*
X011524Y018005D01*
X011597Y017975D01*
X011716Y017975D01*
X011741Y017950D01*
X011907Y017950D01*
X012130Y017950D01*
X012214Y017866D01*
X012337Y017815D01*
X012471Y017815D01*
X012594Y017866D01*
X012688Y017960D01*
X012739Y018083D01*
X012739Y018217D01*
X012688Y018340D01*
X012594Y018434D01*
X012471Y018485D01*
X012337Y018485D01*
X012214Y018434D01*
X012130Y018350D01*
X011999Y018350D01*
X011999Y018377D01*
X011948Y018500D01*
X011854Y018594D01*
X011731Y018645D01*
X011597Y018645D01*
X011524Y018614D01*
X011524Y018827D01*
X011524Y018950D01*
X011630Y018950D01*
X011779Y018950D01*
X011988Y019159D01*
X011997Y019155D01*
X012131Y019155D01*
X012254Y019206D01*
X012348Y019300D01*
X012399Y019423D01*
X012399Y019557D01*
X012364Y019642D01*
X012374Y019646D01*
X012468Y019740D01*
X012519Y019863D01*
X012519Y019997D01*
X012468Y020120D01*
X012374Y020214D01*
X012251Y020265D01*
X012117Y020265D01*
X012057Y020240D01*
X011967Y020330D01*
X011804Y020330D01*
X011804Y021827D01*
X011832Y021855D01*
X011951Y021855D01*
X012074Y021906D01*
X012168Y022000D01*
X012219Y022123D01*
X012219Y022257D01*
X012168Y022380D01*
X012074Y022474D01*
X011951Y022525D01*
X011817Y022525D01*
X011694Y022474D01*
X011600Y022380D01*
X011549Y022257D01*
X011549Y022138D01*
X011440Y022028D01*
X011354Y022114D01*
X011231Y022165D01*
X011159Y022165D01*
X011159Y022197D01*
X011108Y022320D01*
X011014Y022414D01*
X010891Y022465D01*
X010799Y022465D01*
X010799Y022477D01*
X010748Y022600D01*
X010654Y022694D01*
X010531Y022745D01*
X010397Y022745D01*
X010274Y022694D01*
X010180Y022600D01*
X010129Y022477D01*
X010129Y022343D01*
X010180Y022220D01*
X010274Y022126D01*
X010284Y022122D01*
X010284Y021486D01*
X010191Y021525D01*
X010057Y021525D01*
X009934Y021474D01*
X009840Y021380D01*
X009789Y021257D01*
X009789Y021123D01*
X009840Y021000D01*
X009934Y020906D01*
X009809Y021076D02*
X004445Y021076D01*
X004673Y021235D02*
X009789Y021235D01*
X009854Y021393D02*
X004828Y021393D01*
X004894Y021552D02*
X010284Y021552D01*
X010284Y021710D02*
X004959Y021710D01*
X004967Y021869D02*
X010284Y021869D01*
X010284Y022027D02*
X004967Y022027D01*
X004931Y022186D02*
X010214Y022186D01*
X010129Y022345D02*
X004865Y022345D01*
X004763Y022503D02*
X010140Y022503D01*
X010242Y022662D02*
X004605Y022662D01*
X004279Y022820D02*
X013800Y022820D01*
X013750Y022770D02*
X013884Y022904D01*
X014059Y022976D01*
X014249Y022976D01*
X014424Y022904D01*
X014558Y022770D01*
X014631Y022595D01*
X014631Y022405D01*
X014558Y022230D01*
X014424Y022096D01*
X014249Y022023D01*
X014059Y022023D01*
X013884Y022096D01*
X013750Y022230D01*
X013678Y022405D01*
X013678Y022595D01*
X013750Y022770D01*
X013705Y022662D02*
X010686Y022662D01*
X010788Y022503D02*
X011765Y022503D01*
X012003Y022503D02*
X013678Y022503D01*
X013703Y022345D02*
X012183Y022345D01*
X012219Y022186D02*
X013794Y022186D01*
X014049Y022027D02*
X012179Y022027D01*
X011984Y021869D02*
X016744Y021869D01*
X016744Y022027D02*
X015259Y022027D01*
X015249Y022023D02*
X015424Y022096D01*
X015558Y022230D01*
X015631Y022405D01*
X015631Y022595D01*
X015558Y022770D01*
X015424Y022904D01*
X015249Y022976D01*
X015059Y022976D01*
X014884Y022904D01*
X014750Y022770D01*
X014678Y022595D01*
X014678Y022405D01*
X014750Y022230D01*
X014884Y022096D01*
X015059Y022023D01*
X015249Y022023D01*
X015049Y022027D02*
X014259Y022027D01*
X014514Y022186D02*
X014794Y022186D01*
X014703Y022345D02*
X014605Y022345D01*
X014631Y022503D02*
X014678Y022503D01*
X014705Y022662D02*
X014603Y022662D01*
X014508Y022820D02*
X014800Y022820D01*
X015508Y022820D02*
X016800Y022820D01*
X016750Y022770D02*
X016678Y022595D01*
X016678Y022405D01*
X016744Y022244D01*
X016744Y020786D01*
X016808Y020632D01*
X016926Y020514D01*
X017081Y020450D01*
X017248Y020450D01*
X017402Y020514D01*
X017520Y020632D01*
X017584Y020786D01*
X017584Y022293D01*
X017631Y022405D01*
X017631Y022595D01*
X017558Y022770D01*
X017424Y022904D01*
X017249Y022976D01*
X017059Y022976D01*
X016884Y022904D01*
X016750Y022770D01*
X016705Y022662D02*
X015603Y022662D01*
X015631Y022503D02*
X016678Y022503D01*
X016703Y022345D02*
X015605Y022345D01*
X015514Y022186D02*
X016744Y022186D01*
X016744Y021710D02*
X011804Y021710D01*
X011804Y021552D02*
X016744Y021552D01*
X016744Y021393D02*
X011804Y021393D01*
X011804Y021235D02*
X016744Y021235D01*
X016744Y021076D02*
X011804Y021076D01*
X011804Y020918D02*
X016744Y020918D01*
X016755Y020759D02*
X011804Y020759D01*
X011804Y020601D02*
X016839Y020601D01*
X017489Y020601D02*
X020914Y020601D01*
X020914Y020759D02*
X017573Y020759D01*
X017584Y020918D02*
X020914Y020918D01*
X020914Y021076D02*
X017584Y021076D01*
X017584Y021235D02*
X020914Y021235D01*
X020914Y021393D02*
X017584Y021393D01*
X017584Y021552D02*
X020914Y021552D01*
X020914Y021710D02*
X017584Y021710D01*
X017584Y021869D02*
X020914Y021869D01*
X020914Y022027D02*
X020259Y022027D01*
X020249Y022023D02*
X020424Y022096D01*
X020558Y022230D01*
X020631Y022405D01*
X020631Y022595D01*
X020558Y022770D01*
X020424Y022904D01*
X020249Y022976D01*
X020059Y022976D01*
X019884Y022904D01*
X019750Y022770D01*
X019678Y022595D01*
X019678Y022405D01*
X019750Y022230D01*
X019884Y022096D01*
X020059Y022023D01*
X020249Y022023D01*
X020049Y022027D02*
X019259Y022027D01*
X019249Y022023D02*
X019424Y022096D01*
X019558Y022230D01*
X019631Y022405D01*
X019631Y022595D01*
X019558Y022770D01*
X019424Y022904D01*
X019249Y022976D01*
X019059Y022976D01*
X018884Y022904D01*
X018750Y022770D01*
X018678Y022595D01*
X018678Y022405D01*
X018750Y022230D01*
X018884Y022096D01*
X019059Y022023D01*
X019249Y022023D01*
X019049Y022027D02*
X017584Y022027D01*
X017584Y022186D02*
X018794Y022186D01*
X018703Y022345D02*
X017605Y022345D01*
X017631Y022503D02*
X018678Y022503D01*
X018705Y022662D02*
X017603Y022662D01*
X017508Y022820D02*
X018800Y022820D01*
X019508Y022820D02*
X019800Y022820D01*
X019705Y022662D02*
X019603Y022662D01*
X019631Y022503D02*
X019678Y022503D01*
X019703Y022345D02*
X019605Y022345D01*
X019514Y022186D02*
X019794Y022186D01*
X020514Y022186D02*
X020914Y022186D01*
X020914Y022345D02*
X020605Y022345D01*
X020631Y022503D02*
X020914Y022503D01*
X020914Y022662D02*
X020603Y022662D01*
X020508Y022820D02*
X020914Y022820D01*
X020914Y020442D02*
X011804Y020442D01*
X012013Y020283D02*
X020914Y020283D01*
X020914Y020125D02*
X012463Y020125D01*
X012519Y019966D02*
X020914Y019966D01*
X020914Y019808D02*
X012496Y019808D01*
X012377Y019649D02*
X020914Y019649D01*
X020914Y019491D02*
X012399Y019491D01*
X012361Y019332D02*
X020914Y019332D01*
X020914Y019174D02*
X012176Y019174D01*
X011844Y019015D02*
X020914Y019015D01*
X020914Y018857D02*
X011524Y018857D01*
X011524Y018698D02*
X015704Y018698D01*
X015619Y018663D02*
X015455Y018499D01*
X015367Y018285D01*
X015367Y018053D01*
X015455Y017839D01*
X015619Y017675D01*
X015833Y017587D01*
X016065Y017587D01*
X016279Y017675D01*
X016317Y017713D01*
X016317Y017534D01*
X016381Y017379D01*
X016499Y017261D01*
X016637Y017123D01*
X016629Y017126D01*
X016439Y017126D01*
X016264Y017054D01*
X016130Y016920D01*
X016058Y016745D01*
X016058Y016555D01*
X016130Y016380D01*
X016264Y016246D01*
X016439Y016173D01*
X016629Y016173D01*
X016804Y016246D01*
X016938Y016380D01*
X017011Y016555D01*
X017011Y016745D01*
X016938Y016920D01*
X016868Y016990D01*
X017028Y016990D01*
X017200Y016990D01*
X017130Y016920D01*
X017058Y016745D01*
X017058Y016555D01*
X017130Y016380D01*
X017264Y016246D01*
X017439Y016173D01*
X017629Y016173D01*
X017804Y016246D01*
X017938Y016380D01*
X018011Y016555D01*
X018011Y016745D01*
X017938Y016920D01*
X017868Y016990D01*
X018690Y016990D01*
X018726Y016954D01*
X017904Y016954D01*
X017990Y016796D02*
X018905Y016796D01*
X018760Y016940D02*
X019526Y016174D01*
X019681Y016110D01*
X019848Y016110D01*
X019908Y016110D01*
X020062Y016174D01*
X020180Y016292D01*
X020244Y016446D01*
X020244Y016613D01*
X020180Y016768D01*
X020062Y016886D01*
X019960Y016928D01*
X019340Y017548D01*
X019276Y017612D01*
X019429Y017675D01*
X019593Y017839D01*
X019681Y018053D01*
X019681Y018285D01*
X019593Y018499D01*
X019429Y018663D01*
X019215Y018752D01*
X018983Y018752D01*
X018769Y018663D01*
X018605Y018499D01*
X018594Y018473D01*
X018547Y018521D01*
X018394Y018584D01*
X018229Y018584D01*
X018076Y018521D01*
X017960Y018404D01*
X017918Y018303D01*
X017876Y018404D01*
X017759Y018521D01*
X017607Y018584D01*
X017441Y018584D01*
X017289Y018521D01*
X017172Y018404D01*
X017133Y018310D01*
X017093Y018407D01*
X016975Y018525D01*
X016820Y018589D01*
X016653Y018589D01*
X016499Y018525D01*
X016452Y018478D01*
X016443Y018499D01*
X016279Y018663D01*
X016065Y018752D01*
X015833Y018752D01*
X015619Y018663D01*
X015496Y018539D02*
X011908Y018539D01*
X011997Y018381D02*
X012161Y018381D01*
X012175Y017905D02*
X011524Y017905D01*
X011524Y017747D02*
X015548Y017747D01*
X015428Y017905D02*
X012633Y017905D01*
X012731Y018064D02*
X015367Y018064D01*
X015367Y018222D02*
X012737Y018222D01*
X012647Y018381D02*
X015407Y018381D01*
X015829Y017588D02*
X011613Y017588D01*
X011659Y017430D02*
X016360Y017430D01*
X016317Y017588D02*
X016069Y017588D01*
X016489Y017271D02*
X011657Y017271D01*
X011816Y017113D02*
X016406Y017113D01*
X016164Y016954D02*
X014014Y016954D01*
X014079Y016796D02*
X016079Y016796D01*
X016058Y016637D02*
X014060Y016637D01*
X013946Y016478D02*
X016089Y016478D01*
X016190Y016320D02*
X007748Y016320D01*
X007768Y016340D02*
X007674Y016246D01*
X007551Y016195D01*
X007417Y016195D01*
X007294Y016246D01*
X007200Y016340D01*
X007182Y016383D01*
X007148Y016300D01*
X007054Y016206D01*
X006931Y016155D01*
X006797Y016155D01*
X006674Y016206D01*
X006664Y016216D01*
X006444Y015995D01*
X006444Y015224D01*
X006584Y015084D01*
X006584Y014935D01*
X006584Y014804D01*
X006724Y014664D01*
X006724Y014515D01*
X006724Y013724D01*
X006899Y013550D01*
X007730Y013550D01*
X007890Y013710D01*
X008039Y013710D01*
X008156Y013710D01*
X008160Y013720D01*
X008254Y013814D01*
X008377Y013865D01*
X008511Y013865D01*
X008634Y013814D01*
X008728Y013720D01*
X008779Y013597D01*
X008779Y013463D01*
X008728Y013340D01*
X008634Y013246D01*
X008595Y013230D01*
X008634Y013214D01*
X008728Y013120D01*
X008779Y012997D01*
X008779Y012863D01*
X008728Y012740D01*
X008634Y012646D01*
X008511Y012595D01*
X008377Y012595D01*
X008254Y012646D01*
X008160Y012740D01*
X008156Y012750D01*
X007699Y012750D01*
X007695Y012746D01*
X007699Y012737D01*
X007699Y012603D01*
X007648Y012480D01*
X007554Y012386D01*
X007431Y012335D01*
X007297Y012335D01*
X007174Y012386D01*
X007080Y012480D01*
X007029Y012603D01*
X007029Y012737D01*
X007080Y012860D01*
X007174Y012954D01*
X007297Y013005D01*
X007431Y013005D01*
X007440Y013001D01*
X007490Y013050D01*
X006839Y013050D01*
X006690Y013050D01*
X006604Y013135D01*
X006604Y012644D01*
X006904Y012344D01*
X006904Y012195D01*
X006904Y012084D01*
X006999Y011990D01*
X006999Y011990D01*
X007104Y011884D01*
X007104Y011804D01*
X007239Y011670D01*
X007550Y011670D01*
X007699Y011670D01*
X009199Y010170D01*
X010230Y010170D01*
X010379Y010170D01*
X010899Y009650D01*
X011490Y009650D01*
X011639Y009650D01*
X011779Y009510D01*
X012190Y009510D01*
X012339Y009510D01*
X012559Y009290D01*
X012664Y009184D01*
X012664Y008744D01*
X012664Y008595D01*
X012544Y008475D01*
X012439Y008370D01*
X012332Y008370D01*
X012328Y008360D01*
X012234Y008266D01*
X012111Y008215D01*
X011977Y008215D01*
X011888Y008252D01*
X011919Y008177D01*
X011919Y008043D01*
X011868Y007920D01*
X011774Y007826D01*
X011735Y007810D01*
X013661Y007810D01*
X013969Y008118D01*
X013969Y008237D01*
X014020Y008360D01*
X014114Y008454D01*
X014237Y008505D01*
X014371Y008505D01*
X014494Y008454D01*
X014588Y008360D01*
X014639Y008237D01*
X014639Y008103D01*
X014588Y007980D01*
X014494Y007886D01*
X014371Y007835D01*
X014252Y007835D01*
X013827Y007410D01*
X013661Y007410D01*
X010718Y007410D01*
X010768Y007360D01*
X010819Y007237D01*
X010819Y007103D01*
X010815Y007094D01*
X010989Y006920D01*
X015330Y006920D01*
X015374Y006964D01*
X015374Y007565D01*
X015374Y007714D01*
X015614Y007954D01*
X015614Y008825D01*
X014580Y009860D01*
X013679Y009860D01*
X013530Y009860D01*
X013200Y010190D01*
X013094Y010295D01*
X012384Y010295D01*
X012359Y010270D02*
X012499Y010410D01*
X012604Y010515D01*
X012604Y010895D01*
X012604Y011044D01*
X012444Y011204D01*
X012368Y011280D01*
X012388Y011300D01*
X012439Y011423D01*
X012439Y011557D01*
X012388Y011680D01*
X012294Y011774D01*
X012171Y011825D01*
X012037Y011825D01*
X011914Y011774D01*
X011864Y011724D01*
X011814Y011774D01*
X011691Y011825D01*
X011557Y011825D01*
X011434Y011774D01*
X011340Y011680D01*
X011289Y011557D01*
X011289Y011423D01*
X011340Y011300D01*
X011434Y011206D01*
X011557Y011155D01*
X011604Y011155D01*
X011604Y011085D01*
X011577Y011085D01*
X011454Y011034D01*
X011360Y010940D01*
X011309Y010817D01*
X011309Y010683D01*
X011360Y010560D01*
X011454Y010466D01*
X011577Y010415D01*
X011711Y010415D01*
X011749Y010431D01*
X011804Y010375D01*
X011910Y010270D01*
X012210Y010270D01*
X012359Y010270D01*
X012542Y010454D02*
X013094Y010454D01*
X013094Y010612D02*
X012604Y010612D01*
X012604Y010771D02*
X013094Y010771D01*
X013094Y010929D02*
X012604Y010929D01*
X012561Y011088D02*
X013094Y011088D01*
X013094Y011246D02*
X012402Y011246D01*
X012431Y011405D02*
X012944Y011405D01*
X013094Y011255D02*
X013094Y010295D01*
X013253Y010137D02*
X010412Y010137D01*
X010570Y009978D02*
X013411Y009978D01*
X013739Y010370D02*
X013604Y010504D01*
X013604Y010616D01*
X013614Y010606D01*
X013737Y010555D01*
X013871Y010555D01*
X013994Y010606D01*
X014088Y010700D01*
X014092Y010710D01*
X015219Y010710D01*
X015324Y010815D01*
X015979Y011470D01*
X016093Y011470D01*
X016130Y011380D01*
X016264Y011246D01*
X016439Y011173D01*
X016629Y011173D01*
X016804Y011246D01*
X016938Y011380D01*
X017011Y011555D01*
X017011Y011745D01*
X016938Y011920D01*
X016804Y012054D01*
X016629Y012126D01*
X016439Y012126D01*
X016264Y012054D01*
X016130Y011920D01*
X016093Y011830D01*
X015979Y011830D01*
X015830Y011830D01*
X015070Y011070D01*
X014092Y011070D01*
X014088Y011080D01*
X013994Y011174D01*
X013871Y011225D01*
X013737Y011225D01*
X013614Y011174D01*
X013604Y011164D01*
X013604Y011225D01*
X014069Y011690D01*
X014174Y011795D01*
X014174Y012365D01*
X014174Y012514D01*
X013939Y012749D01*
X013939Y012840D01*
X014084Y012695D01*
X014190Y012590D01*
X015530Y012590D01*
X015679Y012590D01*
X015779Y012690D01*
X015884Y012795D01*
X015884Y012915D01*
X015924Y012955D01*
X015924Y013170D01*
X016207Y013170D01*
X016213Y013165D01*
X016280Y013170D01*
X016349Y013170D01*
X016354Y013175D01*
X016361Y013176D01*
X016380Y013198D01*
X016439Y013173D01*
X016629Y013173D01*
X016804Y013246D01*
X016938Y013380D01*
X017011Y013555D01*
X017011Y013745D01*
X016938Y013920D01*
X016804Y014054D01*
X016629Y014126D01*
X016464Y014126D01*
X016464Y014173D01*
X016629Y014173D01*
X016804Y014246D01*
X016938Y014380D01*
X017011Y014555D01*
X017011Y014745D01*
X016938Y014920D01*
X016804Y015054D01*
X016629Y015126D01*
X016439Y015126D01*
X016264Y015054D01*
X016130Y014920D01*
X016058Y014745D01*
X016058Y014555D01*
X016104Y014443D01*
X016104Y014435D01*
X016104Y014120D01*
X015705Y013690D01*
X014884Y013690D01*
X014884Y013922D01*
X014894Y013926D01*
X014974Y013846D01*
X015097Y013795D01*
X015231Y013795D01*
X015354Y013846D01*
X015448Y013940D01*
X015499Y014063D01*
X015499Y014197D01*
X015448Y014320D01*
X015354Y014414D01*
X015284Y014443D01*
X015284Y014484D01*
X015179Y014590D01*
X015059Y014710D01*
X014910Y014710D01*
X014450Y014710D01*
X014344Y014604D01*
X014204Y014464D01*
X014204Y014315D01*
X014204Y014024D01*
X014150Y013970D01*
X013830Y013970D01*
X013724Y013864D01*
X013670Y013810D01*
X010057Y013810D01*
X010028Y013880D01*
X009934Y013974D01*
X009811Y014025D01*
X009677Y014025D01*
X009554Y013974D01*
X009460Y013880D01*
X009419Y013781D01*
X009411Y013785D01*
X009277Y013785D01*
X009154Y013734D01*
X009060Y013640D01*
X009009Y013517D01*
X009009Y013383D01*
X009060Y013260D01*
X009154Y013166D01*
X009164Y013162D01*
X009164Y013115D01*
X009444Y012835D01*
X009550Y012730D01*
X009810Y012730D01*
X009959Y012730D01*
X010056Y012827D01*
X010100Y012720D01*
X010194Y012626D01*
X010317Y012575D01*
X010451Y012575D01*
X010574Y012626D01*
X010668Y012720D01*
X010672Y012730D01*
X010699Y012730D01*
X010979Y013010D01*
X013340Y013010D01*
X013320Y012990D01*
X013269Y012867D01*
X013269Y012733D01*
X013320Y012610D01*
X013400Y012530D01*
X013393Y012530D01*
X013224Y012460D01*
X013094Y012330D01*
X013089Y012319D01*
X013044Y012364D01*
X012921Y012415D01*
X012787Y012415D01*
X012664Y012364D01*
X012570Y012270D01*
X012519Y012147D01*
X012519Y012013D01*
X012570Y011890D01*
X012664Y011796D01*
X012674Y011792D01*
X012674Y011675D01*
X012780Y011570D01*
X013094Y011255D01*
X012786Y011564D02*
X012436Y011564D01*
X012346Y011722D02*
X012674Y011722D01*
X012580Y011881D02*
X010866Y011881D01*
X010854Y011910D02*
X010725Y012040D01*
X010556Y012110D01*
X010373Y012110D01*
X010204Y012040D01*
X010074Y011910D01*
X010004Y011741D01*
X010004Y011558D01*
X010074Y011389D01*
X010204Y011260D01*
X010373Y011190D01*
X010556Y011190D01*
X010725Y011260D01*
X010854Y011389D01*
X010924Y011558D01*
X010924Y011741D01*
X010854Y011910D01*
X010725Y012039D02*
X012519Y012039D01*
X012540Y012198D02*
X006904Y012198D01*
X006892Y012356D02*
X007246Y012356D01*
X007482Y012356D02*
X012657Y012356D01*
X013051Y012356D02*
X013120Y012356D01*
X013356Y012515D02*
X007662Y012515D01*
X007699Y012673D02*
X008227Y012673D01*
X008661Y012673D02*
X010147Y012673D01*
X010621Y012673D02*
X013294Y012673D01*
X013269Y012832D02*
X010801Y012832D01*
X010959Y012990D02*
X013321Y012990D01*
X013939Y012832D02*
X013948Y012832D01*
X014015Y012673D02*
X014106Y012673D01*
X014174Y012515D02*
X016074Y012515D01*
X016058Y012555D02*
X016130Y012380D01*
X016264Y012246D01*
X016439Y012173D01*
X016629Y012173D01*
X016804Y012246D01*
X016938Y012380D01*
X017011Y012555D01*
X017011Y012745D01*
X016938Y012920D01*
X016804Y013054D01*
X016629Y013126D01*
X016439Y013126D01*
X016264Y013054D01*
X016130Y012920D01*
X016058Y012745D01*
X016058Y012555D01*
X016058Y012673D02*
X015762Y012673D01*
X015884Y012832D02*
X016094Y012832D01*
X016201Y012990D02*
X015924Y012990D01*
X015924Y013149D02*
X020914Y013149D01*
X020914Y013308D02*
X017866Y013308D01*
X017804Y013246D02*
X017938Y013380D01*
X018011Y013555D01*
X018011Y013745D01*
X017938Y013920D01*
X017804Y014054D01*
X017629Y014126D01*
X017439Y014126D01*
X017264Y014054D01*
X017130Y013920D01*
X017058Y013745D01*
X017058Y013555D01*
X017130Y013380D01*
X017264Y013246D01*
X017439Y013173D01*
X017629Y013173D01*
X017804Y013246D01*
X017804Y013054D02*
X017629Y013126D01*
X017439Y013126D01*
X017264Y013054D01*
X017130Y012920D01*
X017058Y012745D01*
X017058Y012555D01*
X017130Y012380D01*
X017264Y012246D01*
X017439Y012173D01*
X017629Y012173D01*
X017804Y012246D01*
X017938Y012380D01*
X018011Y012555D01*
X018011Y012745D01*
X017938Y012920D01*
X017804Y013054D01*
X017867Y012990D02*
X020914Y012990D01*
X020914Y012832D02*
X017974Y012832D01*
X018011Y012673D02*
X020914Y012673D01*
X020914Y012515D02*
X017994Y012515D01*
X017914Y012356D02*
X020914Y012356D01*
X020914Y012198D02*
X017688Y012198D01*
X017629Y012126D02*
X017804Y012054D01*
X017938Y011920D01*
X018011Y011745D01*
X018011Y011555D01*
X017938Y011380D01*
X017804Y011246D01*
X017629Y011173D01*
X017439Y011173D01*
X017264Y011246D01*
X017130Y011380D01*
X017058Y011555D01*
X017058Y011745D01*
X017130Y011920D01*
X017264Y012054D01*
X017439Y012126D01*
X017629Y012126D01*
X017819Y012039D02*
X020914Y012039D01*
X020914Y011881D02*
X017954Y011881D01*
X018011Y011722D02*
X020914Y011722D01*
X020914Y011564D02*
X018011Y011564D01*
X017948Y011405D02*
X020914Y011405D01*
X020914Y011246D02*
X017805Y011246D01*
X017722Y011088D02*
X020914Y011088D01*
X020914Y010929D02*
X017928Y010929D01*
X017938Y010920D02*
X017804Y011054D01*
X017629Y011126D01*
X017439Y011126D01*
X017264Y011054D01*
X017130Y010920D01*
X017058Y010745D01*
X017058Y010555D01*
X017130Y010380D01*
X017264Y010246D01*
X017439Y010173D01*
X017629Y010173D01*
X017804Y010246D01*
X017938Y010380D01*
X018011Y010555D01*
X018011Y010745D01*
X017938Y010920D01*
X018000Y010771D02*
X020914Y010771D01*
X020914Y010612D02*
X018011Y010612D01*
X017969Y010454D02*
X020914Y010454D01*
X020914Y010295D02*
X017853Y010295D01*
X017804Y010054D02*
X017629Y010126D01*
X017439Y010126D01*
X017264Y010054D01*
X017130Y009920D01*
X017058Y009745D01*
X017058Y009555D01*
X017130Y009380D01*
X017264Y009246D01*
X017439Y009173D01*
X017629Y009173D01*
X017804Y009246D01*
X017938Y009380D01*
X018011Y009555D01*
X018011Y009745D01*
X017938Y009920D01*
X017804Y010054D01*
X017880Y009978D02*
X020914Y009978D01*
X020914Y009820D02*
X017980Y009820D01*
X018011Y009661D02*
X020914Y009661D01*
X020914Y009503D02*
X017989Y009503D01*
X017902Y009344D02*
X020914Y009344D01*
X020914Y009185D02*
X017658Y009185D01*
X017629Y009126D02*
X017439Y009126D01*
X017264Y009054D01*
X017130Y008920D01*
X017058Y008745D01*
X017058Y008555D01*
X017130Y008380D01*
X017264Y008246D01*
X017439Y008173D01*
X017629Y008173D01*
X017804Y008246D01*
X017938Y008380D01*
X018011Y008555D01*
X018011Y008745D01*
X017938Y008920D01*
X017804Y009054D01*
X017629Y009126D01*
X017831Y009027D02*
X020914Y009027D01*
X020914Y008868D02*
X017959Y008868D01*
X018011Y008710D02*
X020914Y008710D01*
X020914Y008551D02*
X018009Y008551D01*
X017943Y008393D02*
X020914Y008393D01*
X020914Y008234D02*
X017776Y008234D01*
X017751Y008076D02*
X020914Y008076D01*
X020914Y007917D02*
X017939Y007917D01*
X017938Y007920D02*
X017804Y008054D01*
X017629Y008126D01*
X017439Y008126D01*
X017264Y008054D01*
X017130Y007920D01*
X017058Y007745D01*
X017058Y007555D01*
X017130Y007380D01*
X017264Y007246D01*
X017439Y007173D01*
X017629Y007173D01*
X017804Y007246D01*
X017938Y007380D01*
X018011Y007555D01*
X018011Y007745D01*
X017938Y007920D01*
X018005Y007759D02*
X020914Y007759D01*
X020914Y007600D02*
X018011Y007600D01*
X017964Y007441D02*
X020914Y007441D01*
X020914Y007283D02*
X017841Y007283D01*
X017804Y007054D02*
X017629Y007126D01*
X017439Y007126D01*
X017264Y007054D01*
X017130Y006920D01*
X017058Y006745D01*
X017058Y006555D01*
X017130Y006380D01*
X017264Y006246D01*
X017439Y006173D01*
X017629Y006173D01*
X017804Y006246D01*
X017938Y006380D01*
X018011Y006555D01*
X018011Y006745D01*
X017938Y006920D01*
X017804Y007054D01*
X017892Y006966D02*
X020914Y006966D01*
X020914Y007124D02*
X017634Y007124D01*
X017434Y007124D02*
X016634Y007124D01*
X016629Y007126D02*
X016439Y007126D01*
X016264Y007054D01*
X016184Y006974D01*
X016184Y007326D01*
X016264Y007246D01*
X016439Y007173D01*
X016629Y007173D01*
X016804Y007246D01*
X016938Y007380D01*
X017011Y007555D01*
X017011Y007745D01*
X016938Y007920D01*
X016804Y008054D01*
X016629Y008126D01*
X016439Y008126D01*
X016284Y008062D01*
X016284Y008238D01*
X016439Y008173D01*
X016629Y008173D01*
X016804Y008246D01*
X016938Y008380D01*
X017011Y008555D01*
X017011Y008745D01*
X016938Y008920D01*
X016804Y009054D01*
X016629Y009126D01*
X016439Y009126D01*
X016264Y009054D01*
X016130Y008920D01*
X016124Y008905D01*
X016124Y009034D01*
X014894Y010264D01*
X014789Y010370D01*
X013739Y010370D01*
X013655Y010454D02*
X016100Y010454D01*
X016130Y010380D02*
X016264Y010246D01*
X016439Y010173D01*
X016629Y010173D01*
X016804Y010246D01*
X016938Y010380D01*
X017011Y010555D01*
X017011Y010745D01*
X016938Y010920D01*
X016804Y011054D01*
X016629Y011126D01*
X016439Y011126D01*
X016264Y011054D01*
X016130Y010920D01*
X016058Y010745D01*
X016058Y010555D01*
X016130Y010380D01*
X016215Y010295D02*
X014863Y010295D01*
X015022Y010137D02*
X020914Y010137D01*
X020914Y013466D02*
X017974Y013466D01*
X018011Y013625D02*
X020914Y013625D01*
X020914Y013783D02*
X017995Y013783D01*
X017916Y013942D02*
X020914Y013942D01*
X020914Y014100D02*
X017692Y014100D01*
X017629Y014173D02*
X017804Y014246D01*
X017938Y014380D01*
X018011Y014555D01*
X018011Y014745D01*
X017938Y014920D01*
X017804Y015054D01*
X017629Y015126D01*
X017439Y015126D01*
X017264Y015054D01*
X017130Y014920D01*
X017058Y014745D01*
X017058Y014555D01*
X017130Y014380D01*
X017264Y014246D01*
X017439Y014173D01*
X017629Y014173D01*
X017817Y014259D02*
X020914Y014259D01*
X020914Y014417D02*
X017954Y014417D01*
X018011Y014576D02*
X020914Y014576D01*
X020914Y014734D02*
X018011Y014734D01*
X017949Y014893D02*
X020914Y014893D01*
X020914Y015052D02*
X017806Y015052D01*
X017717Y015210D02*
X020914Y015210D01*
X020914Y015369D02*
X017927Y015369D01*
X017938Y015380D02*
X018011Y015555D01*
X018011Y015745D01*
X017938Y015920D01*
X017804Y016054D01*
X017629Y016126D01*
X017439Y016126D01*
X017264Y016054D01*
X017130Y015920D01*
X017058Y015745D01*
X017058Y015555D01*
X017130Y015380D01*
X017264Y015246D01*
X017439Y015173D01*
X017629Y015173D01*
X017804Y015246D01*
X017938Y015380D01*
X017999Y015527D02*
X020914Y015527D01*
X020914Y015686D02*
X018011Y015686D01*
X017969Y015844D02*
X020914Y015844D01*
X020914Y016003D02*
X017855Y016003D01*
X017878Y016320D02*
X019380Y016320D01*
X019222Y016478D02*
X017979Y016478D01*
X018011Y016637D02*
X019063Y016637D01*
X018760Y016940D02*
X018726Y016954D01*
X019300Y017588D02*
X020914Y017588D01*
X020914Y017430D02*
X019458Y017430D01*
X019617Y017271D02*
X020914Y017271D01*
X020914Y017113D02*
X019775Y017113D01*
X019934Y016954D02*
X020914Y016954D01*
X020914Y016796D02*
X020152Y016796D01*
X020234Y016637D02*
X020914Y016637D01*
X020914Y016478D02*
X020244Y016478D01*
X020192Y016320D02*
X020914Y016320D01*
X020914Y016161D02*
X020032Y016161D01*
X019556Y016161D02*
X006946Y016161D01*
X006782Y016161D02*
X006610Y016161D01*
X006451Y016003D02*
X016213Y016003D01*
X016264Y016054D02*
X016130Y015920D01*
X016058Y015745D01*
X016058Y015555D01*
X016130Y015380D01*
X016264Y015246D01*
X016439Y015173D01*
X016629Y015173D01*
X016804Y015246D01*
X016938Y015380D01*
X017011Y015555D01*
X017011Y015745D01*
X016938Y015920D01*
X016804Y016054D01*
X016629Y016126D01*
X016439Y016126D01*
X016264Y016054D01*
X016099Y015844D02*
X013640Y015844D01*
X013694Y015790D02*
X013565Y015920D01*
X013396Y015990D01*
X013213Y015990D01*
X013044Y015920D01*
X012914Y015790D01*
X012844Y015621D01*
X012844Y015438D01*
X012914Y015269D01*
X013044Y015140D01*
X013213Y015070D01*
X013396Y015070D01*
X013565Y015140D01*
X013694Y015269D01*
X013764Y015438D01*
X013764Y015621D01*
X013694Y015790D01*
X013737Y015686D02*
X016058Y015686D01*
X016069Y015527D02*
X013764Y015527D01*
X013735Y015369D02*
X016141Y015369D01*
X016351Y015210D02*
X013635Y015210D01*
X013573Y014893D02*
X016119Y014893D01*
X016058Y014734D02*
X013741Y014734D01*
X013734Y014750D02*
X013605Y014880D01*
X013436Y014950D01*
X013253Y014950D01*
X013084Y014880D01*
X012954Y014750D01*
X012884Y014581D01*
X012884Y014398D01*
X012954Y014229D01*
X013084Y014100D01*
X013253Y014030D01*
X013436Y014030D01*
X013605Y014100D01*
X014204Y014100D01*
X014204Y014259D02*
X013746Y014259D01*
X013734Y014229D02*
X013804Y014398D01*
X013804Y014581D01*
X013734Y014750D01*
X013804Y014576D02*
X014316Y014576D01*
X014204Y014417D02*
X013804Y014417D01*
X013734Y014229D02*
X013605Y014100D01*
X013801Y013942D02*
X009966Y013942D01*
X009522Y013942D02*
X006724Y013942D01*
X006724Y014100D02*
X013083Y014100D01*
X012942Y014259D02*
X006724Y014259D01*
X006724Y014417D02*
X012884Y014417D01*
X012884Y014576D02*
X006724Y014576D01*
X006654Y014734D02*
X012948Y014734D01*
X013115Y014893D02*
X006584Y014893D01*
X006584Y015052D02*
X016262Y015052D01*
X016717Y015210D02*
X017351Y015210D01*
X017262Y015052D02*
X016806Y015052D01*
X016949Y014893D02*
X017119Y014893D01*
X017058Y014734D02*
X017011Y014734D01*
X017011Y014576D02*
X017058Y014576D01*
X017115Y014417D02*
X016954Y014417D01*
X016817Y014259D02*
X017251Y014259D01*
X017376Y014100D02*
X016692Y014100D01*
X016916Y013942D02*
X017152Y013942D01*
X017074Y013783D02*
X016995Y013783D01*
X017011Y013625D02*
X017058Y013625D01*
X017094Y013466D02*
X016974Y013466D01*
X016866Y013308D02*
X017203Y013308D01*
X017201Y012990D02*
X016867Y012990D01*
X016974Y012832D02*
X017094Y012832D01*
X017058Y012673D02*
X017011Y012673D01*
X016994Y012515D02*
X017074Y012515D01*
X017154Y012356D02*
X016914Y012356D01*
X016688Y012198D02*
X017380Y012198D01*
X017249Y012039D02*
X016819Y012039D01*
X016954Y011881D02*
X017114Y011881D01*
X017058Y011722D02*
X017011Y011722D01*
X017011Y011564D02*
X017058Y011564D01*
X017120Y011405D02*
X016948Y011405D01*
X016805Y011246D02*
X017264Y011246D01*
X017346Y011088D02*
X016722Y011088D01*
X016928Y010929D02*
X017140Y010929D01*
X017068Y010771D02*
X017000Y010771D01*
X017011Y010612D02*
X017058Y010612D01*
X017100Y010454D02*
X016969Y010454D01*
X016853Y010295D02*
X017215Y010295D01*
X017188Y009978D02*
X016880Y009978D01*
X016938Y009920D02*
X016804Y010054D01*
X016629Y010126D01*
X016439Y010126D01*
X016264Y010054D01*
X016130Y009920D01*
X016058Y009745D01*
X016058Y009555D01*
X016130Y009380D01*
X016264Y009246D01*
X016439Y009173D01*
X016629Y009173D01*
X016804Y009246D01*
X016938Y009380D01*
X017011Y009555D01*
X017011Y009745D01*
X016938Y009920D01*
X016980Y009820D02*
X017089Y009820D01*
X017058Y009661D02*
X017011Y009661D01*
X016989Y009503D02*
X017079Y009503D01*
X017166Y009344D02*
X016902Y009344D01*
X016658Y009185D02*
X017410Y009185D01*
X017237Y009027D02*
X016831Y009027D01*
X016959Y008868D02*
X017109Y008868D01*
X017058Y008710D02*
X017011Y008710D01*
X017009Y008551D02*
X017059Y008551D01*
X017125Y008393D02*
X016943Y008393D01*
X016776Y008234D02*
X017293Y008234D01*
X017317Y008076D02*
X016751Y008076D01*
X016939Y007917D02*
X017129Y007917D01*
X017063Y007759D02*
X017005Y007759D01*
X017011Y007600D02*
X017058Y007600D01*
X017105Y007441D02*
X016964Y007441D01*
X016841Y007283D02*
X017227Y007283D01*
X017176Y006966D02*
X016892Y006966D01*
X016938Y006920D02*
X016804Y007054D01*
X016629Y007126D01*
X016434Y007124D02*
X016184Y007124D01*
X016184Y007283D02*
X016227Y007283D01*
X016284Y008076D02*
X016317Y008076D01*
X016293Y008234D02*
X016284Y008234D01*
X015614Y008234D02*
X014639Y008234D01*
X014628Y008076D02*
X015614Y008076D01*
X015577Y007917D02*
X014525Y007917D01*
X014176Y007759D02*
X015418Y007759D01*
X015374Y007600D02*
X014017Y007600D01*
X013858Y007441D02*
X015374Y007441D01*
X015374Y007283D02*
X010800Y007283D01*
X010819Y007124D02*
X015374Y007124D01*
X015374Y006966D02*
X010943Y006966D01*
X010850Y007810D02*
X010339Y007810D01*
X010339Y007897D01*
X010288Y008020D01*
X010194Y008114D01*
X010071Y008165D01*
X009937Y008165D01*
X009901Y008150D01*
X008387Y008150D01*
X007679Y008858D01*
X007679Y008977D01*
X007628Y009100D01*
X007534Y009194D01*
X007411Y009245D01*
X007277Y009245D01*
X007154Y009194D01*
X007060Y009100D01*
X007009Y008977D01*
X007009Y008843D01*
X007060Y008720D01*
X007154Y008626D01*
X007277Y008575D01*
X007396Y008575D01*
X008221Y007750D01*
X008387Y007750D01*
X008904Y007750D01*
X008904Y007684D01*
X008820Y007600D01*
X008769Y007477D01*
X008769Y007343D01*
X008820Y007220D01*
X008914Y007126D01*
X008994Y007093D01*
X008900Y007000D01*
X008849Y006877D01*
X008849Y006743D01*
X008900Y006620D01*
X008994Y006526D01*
X009117Y006475D01*
X009169Y006475D01*
X009169Y006465D01*
X009157Y006465D01*
X009034Y006414D01*
X008940Y006320D01*
X008889Y006197D01*
X008889Y006063D01*
X008940Y005940D01*
X009034Y005846D01*
X009157Y005795D01*
X009291Y005795D01*
X009414Y005846D01*
X009508Y005940D01*
X009512Y005950D01*
X009630Y005950D01*
X009644Y005935D01*
X009750Y005830D01*
X015570Y005830D01*
X015824Y005575D01*
X015930Y005470D01*
X016093Y005470D01*
X016130Y005380D01*
X016264Y005246D01*
X016439Y005173D01*
X016629Y005173D01*
X016804Y005246D01*
X016938Y005380D01*
X017011Y005555D01*
X017011Y005745D01*
X016938Y005920D01*
X016804Y006054D01*
X016629Y006126D01*
X016439Y006126D01*
X016264Y006054D01*
X016130Y005920D01*
X016093Y005830D01*
X016079Y005830D01*
X015829Y006080D01*
X016130Y006381D01*
X016130Y006380D01*
X016264Y006246D01*
X016439Y006173D01*
X016629Y006173D01*
X016804Y006246D01*
X016938Y006380D01*
X017011Y006555D01*
X017011Y006745D01*
X016938Y006920D01*
X016985Y006807D02*
X017084Y006807D01*
X017058Y006649D02*
X017011Y006649D01*
X016984Y006490D02*
X017084Y006490D01*
X017178Y006332D02*
X016890Y006332D01*
X016843Y006015D02*
X017225Y006015D01*
X017264Y006054D02*
X017130Y005920D01*
X017058Y005745D01*
X017058Y005555D01*
X017130Y005380D01*
X017264Y005246D01*
X017439Y005173D01*
X017629Y005173D01*
X017804Y005246D01*
X017938Y005380D01*
X018011Y005555D01*
X018011Y005745D01*
X017938Y005920D01*
X017804Y006054D01*
X017629Y006126D01*
X017439Y006126D01*
X017264Y006054D01*
X017104Y005856D02*
X016964Y005856D01*
X017011Y005697D02*
X017058Y005697D01*
X017064Y005539D02*
X017004Y005539D01*
X016938Y005380D02*
X017130Y005380D01*
X017322Y005222D02*
X016746Y005222D01*
X016322Y005222D02*
X007675Y005222D01*
X007668Y005240D02*
X007574Y005334D01*
X007564Y005338D01*
X007564Y005762D01*
X007574Y005766D01*
X007668Y005860D01*
X007719Y005983D01*
X007719Y006117D01*
X007668Y006240D01*
X007574Y006334D01*
X007451Y006385D01*
X007317Y006385D01*
X007194Y006334D01*
X007100Y006240D01*
X007049Y006117D01*
X007049Y005983D01*
X007100Y005860D01*
X007194Y005766D01*
X007204Y005762D01*
X007204Y005338D01*
X007194Y005334D01*
X007100Y005240D01*
X007049Y005117D01*
X007049Y004983D01*
X007100Y004860D01*
X007194Y004766D01*
X007317Y004715D01*
X007451Y004715D01*
X007574Y004766D01*
X007668Y004860D01*
X007719Y004983D01*
X007719Y005117D01*
X007668Y005240D01*
X007564Y005380D02*
X016130Y005380D01*
X015861Y005539D02*
X007564Y005539D01*
X007564Y005697D02*
X015702Y005697D01*
X015894Y006015D02*
X016225Y006015D01*
X016104Y005856D02*
X016052Y005856D01*
X015922Y006173D02*
X020914Y006173D01*
X020914Y006015D02*
X017843Y006015D01*
X017964Y005856D02*
X020914Y005856D01*
X020914Y005697D02*
X018011Y005697D01*
X018004Y005539D02*
X020914Y005539D01*
X020914Y005380D02*
X017938Y005380D01*
X017746Y005222D02*
X020914Y005222D01*
X020914Y005063D02*
X007719Y005063D01*
X007687Y004905D02*
X020914Y004905D01*
X020914Y004746D02*
X007526Y004746D01*
X007242Y004746D02*
X001134Y004746D01*
X001134Y004588D02*
X020914Y004588D01*
X020914Y004429D02*
X001134Y004429D01*
X001134Y004271D02*
X020914Y004271D01*
X020914Y004112D02*
X015439Y004112D01*
X015502Y004086D02*
X015348Y004150D01*
X015181Y004150D01*
X015026Y004086D01*
X014010Y003070D01*
X005765Y003070D01*
X005629Y003126D01*
X005439Y003126D01*
X005264Y003054D01*
X005130Y002920D01*
X005058Y002745D01*
X005058Y002555D01*
X005130Y002380D01*
X005264Y002246D01*
X005439Y002173D01*
X005629Y002173D01*
X005765Y002230D01*
X014101Y002230D01*
X014268Y002230D01*
X014422Y002294D01*
X015620Y003492D01*
X015684Y003646D01*
X015684Y003813D01*
X015620Y003968D01*
X015502Y004086D01*
X015626Y003954D02*
X020914Y003954D01*
X020914Y003795D02*
X015684Y003795D01*
X015680Y003636D02*
X020914Y003636D01*
X020914Y003478D02*
X015606Y003478D01*
X015447Y003319D02*
X020914Y003319D01*
X020914Y003161D02*
X015289Y003161D01*
X015130Y003002D02*
X020914Y003002D01*
X020914Y002844D02*
X014972Y002844D01*
X014813Y002685D02*
X020914Y002685D01*
X020914Y002527D02*
X014655Y002527D01*
X014496Y002368D02*
X020914Y002368D01*
X020914Y002210D02*
X005716Y002210D01*
X005352Y002210D02*
X004716Y002210D01*
X004629Y002173D02*
X004804Y002246D01*
X004938Y002380D01*
X005011Y002555D01*
X005011Y002745D01*
X004938Y002920D01*
X004804Y003054D01*
X004629Y003126D01*
X004439Y003126D01*
X004264Y003054D01*
X004130Y002920D01*
X004058Y002745D01*
X004058Y002555D01*
X004130Y002380D01*
X004264Y002246D01*
X004439Y002173D01*
X004629Y002173D01*
X004352Y002210D02*
X003716Y002210D01*
X003629Y002173D02*
X003804Y002246D01*
X003938Y002380D01*
X004011Y002555D01*
X004011Y002745D01*
X003938Y002920D01*
X003804Y003054D01*
X003629Y003126D01*
X003439Y003126D01*
X003264Y003054D01*
X003130Y002920D01*
X003058Y002745D01*
X003058Y002555D01*
X003130Y002380D01*
X003264Y002246D01*
X003439Y002173D01*
X003629Y002173D01*
X003352Y002210D02*
X001134Y002210D01*
X001134Y002368D02*
X003142Y002368D01*
X003069Y002527D02*
X001134Y002527D01*
X001134Y002685D02*
X003058Y002685D01*
X003099Y002844D02*
X001134Y002844D01*
X001134Y003002D02*
X003213Y003002D01*
X003856Y003002D02*
X004213Y003002D01*
X004099Y002844D02*
X003970Y002844D01*
X004011Y002685D02*
X004058Y002685D01*
X004069Y002527D02*
X003999Y002527D01*
X003926Y002368D02*
X004142Y002368D01*
X004926Y002368D02*
X005142Y002368D01*
X005069Y002527D02*
X004999Y002527D01*
X005011Y002685D02*
X005058Y002685D01*
X005099Y002844D02*
X004970Y002844D01*
X004856Y003002D02*
X005213Y003002D01*
X005439Y005173D02*
X005264Y005246D01*
X005130Y005380D01*
X005058Y005555D01*
X005058Y005745D01*
X005130Y005920D01*
X005264Y006054D01*
X005439Y006126D01*
X005629Y006126D01*
X005804Y006054D01*
X005938Y005920D01*
X006011Y005745D01*
X006011Y005555D01*
X005938Y005380D01*
X005804Y005246D01*
X005629Y005173D01*
X005439Y005173D01*
X005322Y005222D02*
X004746Y005222D01*
X004804Y005246D02*
X004938Y005380D01*
X005011Y005555D01*
X005011Y005745D01*
X004938Y005920D01*
X004804Y006054D01*
X004629Y006126D01*
X004439Y006126D01*
X004264Y006054D01*
X004130Y005920D01*
X004058Y005745D01*
X004058Y005555D01*
X004130Y005380D01*
X004264Y005246D01*
X004439Y005173D01*
X004629Y005173D01*
X004804Y005246D01*
X004938Y005380D02*
X005130Y005380D01*
X005064Y005539D02*
X005004Y005539D01*
X005011Y005697D02*
X005058Y005697D01*
X005104Y005856D02*
X004964Y005856D01*
X004843Y006015D02*
X005225Y006015D01*
X005264Y006246D02*
X005130Y006380D01*
X005058Y006555D01*
X005058Y006745D01*
X005130Y006920D01*
X005264Y007054D01*
X005439Y007126D01*
X005629Y007126D01*
X005804Y007054D01*
X005938Y006920D01*
X006011Y006745D01*
X006011Y006555D01*
X005938Y006380D01*
X005804Y006246D01*
X005629Y006173D01*
X005439Y006173D01*
X005264Y006246D01*
X005178Y006332D02*
X004890Y006332D01*
X004938Y006380D02*
X005011Y006555D01*
X005011Y006745D01*
X004938Y006920D01*
X004804Y007054D01*
X004629Y007126D01*
X004439Y007126D01*
X004264Y007054D01*
X004130Y006920D01*
X004058Y006745D01*
X004058Y006555D01*
X004130Y006380D01*
X004264Y006246D01*
X004439Y006173D01*
X004629Y006173D01*
X004804Y006246D01*
X004938Y006380D01*
X004984Y006490D02*
X005084Y006490D01*
X005058Y006649D02*
X005011Y006649D01*
X004985Y006807D02*
X005084Y006807D01*
X005176Y006966D02*
X004892Y006966D01*
X004804Y007246D02*
X004938Y007380D01*
X005011Y007555D01*
X005011Y007745D01*
X004938Y007920D01*
X004804Y008054D01*
X004629Y008126D01*
X004439Y008126D01*
X004264Y008054D01*
X004130Y007920D01*
X004058Y007745D01*
X004058Y007555D01*
X004130Y007380D01*
X004264Y007246D01*
X004439Y007173D01*
X004629Y007173D01*
X004804Y007246D01*
X004841Y007283D02*
X005227Y007283D01*
X005264Y007246D02*
X005439Y007173D01*
X005629Y007173D01*
X005804Y007246D01*
X005938Y007380D01*
X006011Y007555D01*
X006011Y007745D01*
X005938Y007920D01*
X005804Y008054D01*
X005629Y008126D01*
X005439Y008126D01*
X005264Y008054D01*
X005130Y007920D01*
X005058Y007745D01*
X005058Y007555D01*
X005130Y007380D01*
X005264Y007246D01*
X005434Y007124D02*
X004634Y007124D01*
X004434Y007124D02*
X001134Y007124D01*
X001134Y006966D02*
X004176Y006966D01*
X004084Y006807D02*
X001134Y006807D01*
X001134Y006649D02*
X004058Y006649D01*
X004084Y006490D02*
X001134Y006490D01*
X001134Y006332D02*
X004178Y006332D01*
X004225Y006015D02*
X001134Y006015D01*
X001134Y006173D02*
X007073Y006173D01*
X007049Y006015D02*
X005843Y006015D01*
X005964Y005856D02*
X007104Y005856D01*
X007204Y005697D02*
X006011Y005697D01*
X006004Y005539D02*
X007204Y005539D01*
X007204Y005380D02*
X005938Y005380D01*
X005746Y005222D02*
X007093Y005222D01*
X007049Y005063D02*
X001134Y005063D01*
X001134Y004905D02*
X007082Y004905D01*
X007664Y005856D02*
X009024Y005856D01*
X008909Y006015D02*
X007719Y006015D01*
X007696Y006173D02*
X008889Y006173D01*
X008952Y006332D02*
X007576Y006332D01*
X007192Y006332D02*
X005890Y006332D01*
X005984Y006490D02*
X009081Y006490D01*
X008888Y006649D02*
X006011Y006649D01*
X005985Y006807D02*
X008849Y006807D01*
X008886Y006966D02*
X005892Y006966D01*
X005634Y007124D02*
X008918Y007124D01*
X008794Y007283D02*
X005841Y007283D01*
X005964Y007441D02*
X008769Y007441D01*
X008820Y007600D02*
X006011Y007600D01*
X006005Y007759D02*
X008213Y007759D01*
X008054Y007917D02*
X005939Y007917D01*
X005751Y008076D02*
X007896Y008076D01*
X007737Y008234D02*
X005776Y008234D01*
X005804Y008246D02*
X005938Y008380D01*
X006011Y008555D01*
X006011Y008745D01*
X005973Y008835D01*
X006339Y009200D01*
X006444Y009305D01*
X006444Y010190D01*
X007050Y010190D01*
X008444Y008795D01*
X008550Y008690D01*
X009310Y008690D01*
X009650Y008350D01*
X009799Y008350D01*
X009856Y008350D01*
X009860Y008340D01*
X009954Y008246D01*
X010077Y008195D01*
X010211Y008195D01*
X010334Y008246D01*
X010428Y008340D01*
X010449Y008391D01*
X010664Y008175D01*
X010664Y007995D01*
X010770Y007890D01*
X010850Y007810D01*
X010742Y007917D02*
X010331Y007917D01*
X010232Y008076D02*
X010664Y008076D01*
X010605Y008234D02*
X010305Y008234D01*
X009983Y008234D02*
X008303Y008234D01*
X008144Y008393D02*
X009607Y008393D01*
X009448Y008551D02*
X007986Y008551D01*
X007827Y008710D02*
X008530Y008710D01*
X008371Y008868D02*
X007679Y008868D01*
X007658Y009027D02*
X008213Y009027D01*
X008054Y009185D02*
X007542Y009185D01*
X007737Y009503D02*
X006444Y009503D01*
X006444Y009661D02*
X007578Y009661D01*
X007420Y009820D02*
X006444Y009820D01*
X006444Y009978D02*
X007261Y009978D01*
X007103Y010137D02*
X006444Y010137D01*
X005944Y010137D02*
X001134Y010137D01*
X001134Y010295D02*
X004215Y010295D01*
X004264Y010246D02*
X004130Y010380D01*
X004058Y010555D01*
X004058Y010745D01*
X004130Y010920D01*
X004264Y011054D01*
X004439Y011126D01*
X004629Y011126D01*
X004804Y011054D01*
X004938Y010920D01*
X005011Y010745D01*
X005011Y010555D01*
X004938Y010380D01*
X004804Y010246D01*
X004629Y010173D01*
X004439Y010173D01*
X004264Y010246D01*
X004264Y010054D02*
X004130Y009920D01*
X004058Y009745D01*
X004058Y009555D01*
X004130Y009380D01*
X004264Y009246D01*
X004439Y009173D01*
X004629Y009173D01*
X004804Y009246D01*
X004938Y009380D01*
X005011Y009555D01*
X005011Y009745D01*
X004938Y009920D01*
X004804Y010054D01*
X004629Y010126D01*
X004439Y010126D01*
X004264Y010054D01*
X004188Y009978D02*
X001134Y009978D01*
X001134Y009820D02*
X004089Y009820D01*
X004058Y009661D02*
X001134Y009661D01*
X001134Y009503D02*
X004079Y009503D01*
X004166Y009344D02*
X001134Y009344D01*
X001134Y009185D02*
X004410Y009185D01*
X004439Y009126D02*
X004264Y009054D01*
X004130Y008920D01*
X004058Y008745D01*
X004058Y008555D01*
X004130Y008380D01*
X004264Y008246D01*
X004439Y008173D01*
X004629Y008173D01*
X004804Y008246D01*
X004938Y008380D01*
X005011Y008555D01*
X005011Y008745D01*
X004938Y008920D01*
X004804Y009054D01*
X004629Y009126D01*
X004439Y009126D01*
X004237Y009027D02*
X001134Y009027D01*
X001134Y008868D02*
X004109Y008868D01*
X004058Y008710D02*
X001134Y008710D01*
X001134Y008551D02*
X004059Y008551D01*
X004125Y008393D02*
X001134Y008393D01*
X001134Y008234D02*
X004293Y008234D01*
X004317Y008076D02*
X001134Y008076D01*
X001134Y007917D02*
X004129Y007917D01*
X004063Y007759D02*
X001134Y007759D01*
X001134Y007600D02*
X004058Y007600D01*
X004105Y007441D02*
X001134Y007441D01*
X001134Y007283D02*
X004227Y007283D01*
X004751Y008076D02*
X005317Y008076D01*
X005439Y008173D02*
X005264Y008246D01*
X005130Y008380D01*
X005058Y008555D01*
X005058Y008745D01*
X005130Y008920D01*
X005264Y009054D01*
X005439Y009126D01*
X005629Y009126D01*
X005719Y009089D01*
X006084Y009454D01*
X006084Y009470D01*
X005975Y009470D01*
X005938Y009380D01*
X005804Y009246D01*
X005629Y009173D01*
X005439Y009173D01*
X005264Y009246D01*
X005130Y009380D01*
X005058Y009555D01*
X005058Y009745D01*
X005130Y009920D01*
X005264Y010054D01*
X005439Y010126D01*
X005629Y010126D01*
X005804Y010054D01*
X005938Y009920D01*
X005944Y009905D01*
X005944Y010395D01*
X005938Y010380D01*
X005804Y010246D01*
X005629Y010173D01*
X005439Y010173D01*
X005264Y010246D01*
X005130Y010380D01*
X005058Y010555D01*
X005058Y010745D01*
X005130Y010920D01*
X005264Y011054D01*
X005439Y011126D01*
X005629Y011126D01*
X005804Y011054D01*
X005938Y010920D01*
X005975Y010830D01*
X006570Y010830D01*
X006044Y011355D01*
X006044Y011435D01*
X006010Y011470D01*
X005975Y011470D01*
X005938Y011380D01*
X005804Y011246D01*
X005629Y011173D01*
X005439Y011173D01*
X005264Y011246D01*
X005130Y011380D01*
X005058Y011555D01*
X005058Y011745D01*
X005130Y011920D01*
X005264Y012054D01*
X005439Y012126D01*
X005629Y012126D01*
X005804Y012054D01*
X005938Y011920D01*
X005975Y011830D01*
X005984Y011830D01*
X005984Y011844D01*
X005984Y011945D01*
X005719Y012211D01*
X005629Y012173D01*
X005439Y012173D01*
X005264Y012246D01*
X005130Y012380D01*
X005058Y012555D01*
X005058Y012745D01*
X005130Y012920D01*
X005264Y013054D01*
X005439Y013126D01*
X005629Y013126D01*
X005804Y013054D01*
X005824Y013034D01*
X005824Y013105D01*
X005719Y013211D01*
X005629Y013173D01*
X005439Y013173D01*
X005264Y013246D01*
X005130Y013380D01*
X005058Y013555D01*
X005058Y013745D01*
X005130Y013920D01*
X005264Y014054D01*
X005439Y014126D01*
X005629Y014126D01*
X005804Y014054D01*
X005804Y014054D01*
X005804Y014246D01*
X005804Y014246D01*
X005629Y014173D01*
X005439Y014173D01*
X005264Y014246D01*
X005130Y014380D01*
X005058Y014555D01*
X005058Y014745D01*
X005130Y014920D01*
X005264Y015054D01*
X005435Y015125D01*
X005354Y015205D01*
X005354Y015209D01*
X005264Y015246D01*
X005130Y015380D01*
X005058Y015555D01*
X005058Y015745D01*
X005130Y015920D01*
X005264Y016054D01*
X005435Y016125D01*
X005354Y016205D01*
X005354Y016209D01*
X005264Y016246D01*
X005130Y016380D01*
X005058Y016555D01*
X005058Y016745D01*
X005130Y016920D01*
X005264Y017054D01*
X005439Y017126D01*
X005629Y017126D01*
X005804Y017054D01*
X005938Y016920D01*
X005975Y016831D01*
X006020Y016940D01*
X006114Y017034D01*
X006179Y017061D01*
X006140Y017100D01*
X006089Y017223D01*
X006089Y017357D01*
X006140Y017480D01*
X006234Y017574D01*
X006301Y017602D01*
X006337Y017637D01*
X006215Y017587D01*
X005983Y017587D01*
X005769Y017675D01*
X005605Y017839D01*
X005594Y017865D01*
X005547Y017817D01*
X005394Y017754D01*
X005229Y017754D01*
X005076Y017817D01*
X004960Y017934D01*
X004918Y018035D01*
X004876Y017934D01*
X004759Y017817D01*
X004607Y017754D01*
X004441Y017754D01*
X004289Y017817D01*
X004172Y017934D01*
X004130Y018035D01*
X004088Y017934D01*
X003972Y017817D01*
X003819Y017754D01*
X003654Y017754D01*
X003502Y017817D01*
X003454Y017865D01*
X003443Y017839D01*
X003279Y017675D01*
X003065Y017587D01*
X002833Y017587D01*
X002619Y017675D01*
X002455Y017839D01*
X002367Y018053D01*
X002367Y018285D01*
X002455Y018499D01*
X002619Y018663D01*
X002833Y018752D01*
X003065Y018752D01*
X003279Y018663D01*
X003443Y018499D01*
X003454Y018473D01*
X003502Y018521D01*
X003654Y018584D01*
X003819Y018584D01*
X003972Y018521D01*
X004088Y018404D01*
X004130Y018303D01*
X004172Y018404D01*
X004289Y018521D01*
X004441Y018584D01*
X004607Y018584D01*
X004759Y018521D01*
X004876Y018404D01*
X004918Y018303D01*
X004960Y018404D01*
X005076Y018521D01*
X005229Y018584D01*
X005394Y018584D01*
X005547Y018521D01*
X005594Y018473D01*
X005605Y018499D01*
X005769Y018663D01*
X005983Y018752D01*
X006215Y018752D01*
X006429Y018663D01*
X006593Y018499D01*
X006676Y018297D01*
X006710Y018330D01*
X006917Y018538D01*
X006911Y018535D01*
X006777Y018535D01*
X006654Y018586D01*
X006560Y018680D01*
X006509Y018803D01*
X006509Y018937D01*
X006560Y019060D01*
X006654Y019154D01*
X006777Y019205D01*
X006911Y019205D01*
X007034Y019154D01*
X007128Y019060D01*
X007179Y018937D01*
X007179Y018803D01*
X007176Y018797D01*
X007290Y018910D01*
X007291Y018910D01*
X007269Y018963D01*
X007269Y019097D01*
X007320Y019220D01*
X007414Y019314D01*
X007537Y019365D01*
X007671Y019365D01*
X007680Y019361D01*
X008130Y019810D01*
X008176Y019810D01*
X008180Y019820D01*
X008274Y019914D01*
X008397Y019965D01*
X008531Y019965D01*
X008654Y019914D01*
X008748Y019820D01*
X008799Y019697D01*
X008799Y019563D01*
X008766Y019483D01*
X008784Y019465D01*
X008891Y019465D01*
X009014Y019414D01*
X009108Y019320D01*
X009159Y019197D01*
X009159Y019063D01*
X009108Y018940D01*
X009014Y018846D01*
X008891Y018795D01*
X008779Y018795D01*
X008779Y018763D01*
X008738Y018664D01*
X008837Y018705D01*
X008971Y018705D01*
X009094Y018654D01*
X009188Y018560D01*
X009239Y018437D01*
X009239Y018303D01*
X009188Y018180D01*
X009094Y018086D01*
X008971Y018035D01*
X008837Y018035D01*
X008814Y018045D01*
X008659Y017890D01*
X008510Y017890D01*
X008399Y017890D01*
X008250Y017890D01*
X008010Y018130D01*
X007619Y018130D01*
X007384Y017895D01*
X007384Y017604D01*
X007524Y017464D01*
X007524Y017315D01*
X007524Y017258D01*
X007534Y017254D01*
X007628Y017160D01*
X007679Y017037D01*
X007679Y016903D01*
X007647Y016825D01*
X007674Y016814D01*
X007768Y016720D01*
X007819Y016597D01*
X007819Y016463D01*
X007768Y016340D01*
X007819Y016478D02*
X013542Y016478D01*
X013474Y016954D02*
X011974Y016954D01*
X011782Y016637D02*
X007802Y016637D01*
X007692Y016796D02*
X011624Y016796D01*
X011465Y016954D02*
X007679Y016954D01*
X007648Y017113D02*
X011166Y017113D01*
X011019Y017271D02*
X007524Y017271D01*
X007524Y017430D02*
X010989Y017430D01*
X011035Y017588D02*
X007400Y017588D01*
X007384Y017747D02*
X011124Y017747D01*
X011124Y017905D02*
X008674Y017905D01*
X009041Y018064D02*
X011124Y018064D01*
X011124Y018222D02*
X009206Y018222D01*
X009239Y018381D02*
X011124Y018381D01*
X011124Y018539D02*
X009196Y018539D01*
X008987Y018698D02*
X011124Y018698D01*
X011095Y018857D02*
X009024Y018857D01*
X009139Y019015D02*
X010936Y019015D01*
X010804Y019174D02*
X009159Y019174D01*
X009096Y019332D02*
X010803Y019332D01*
X010800Y019491D02*
X008769Y019491D01*
X008799Y019649D02*
X010798Y019649D01*
X010796Y019808D02*
X008753Y019808D01*
X008127Y019808D02*
X001134Y019808D01*
X001134Y019966D02*
X010793Y019966D01*
X010791Y020125D02*
X001134Y020125D01*
X001134Y020283D02*
X010789Y020283D01*
X010786Y020442D02*
X001134Y020442D01*
X001134Y020601D02*
X010715Y020601D01*
X010562Y020759D02*
X001134Y020759D01*
X001134Y019649D02*
X007969Y019649D01*
X007810Y019491D02*
X001134Y019491D01*
X001134Y019332D02*
X007459Y019332D01*
X007301Y019174D02*
X006986Y019174D01*
X007147Y019015D02*
X007269Y019015D01*
X007236Y018857D02*
X007179Y018857D01*
X006766Y018539D02*
X006552Y018539D01*
X006553Y018698D02*
X006344Y018698D01*
X006509Y018857D02*
X001134Y018857D01*
X001134Y019015D02*
X006542Y019015D01*
X006702Y019174D02*
X001134Y019174D01*
X001134Y018698D02*
X002704Y018698D01*
X002496Y018539D02*
X001134Y018539D01*
X001134Y018381D02*
X002407Y018381D01*
X002367Y018222D02*
X001134Y018222D01*
X001134Y018064D02*
X002367Y018064D01*
X002428Y017905D02*
X001134Y017905D01*
X001134Y017747D02*
X002548Y017747D01*
X002829Y017588D02*
X001134Y017588D01*
X001134Y017430D02*
X006119Y017430D01*
X006089Y017271D02*
X001134Y017271D01*
X001134Y017113D02*
X004406Y017113D01*
X004439Y017126D02*
X004264Y017054D01*
X004130Y016920D01*
X004058Y016745D01*
X004058Y016555D01*
X004130Y016380D01*
X004264Y016246D01*
X004439Y016173D01*
X004629Y016173D01*
X004804Y016246D01*
X004938Y016380D01*
X005011Y016555D01*
X005011Y016745D01*
X004938Y016920D01*
X004804Y017054D01*
X004629Y017126D01*
X004439Y017126D01*
X004662Y017113D02*
X005406Y017113D01*
X005662Y017113D02*
X006135Y017113D01*
X006034Y016954D02*
X005904Y016954D01*
X005398Y016161D02*
X001134Y016161D01*
X001134Y016003D02*
X004213Y016003D01*
X004264Y016054D02*
X004130Y015920D01*
X004058Y015745D01*
X004058Y015555D01*
X004130Y015380D01*
X004264Y015246D01*
X004439Y015173D01*
X004629Y015173D01*
X004804Y015246D01*
X004938Y015380D01*
X005011Y015555D01*
X005011Y015745D01*
X004938Y015920D01*
X004804Y016054D01*
X004629Y016126D01*
X004439Y016126D01*
X004264Y016054D01*
X004099Y015844D02*
X001134Y015844D01*
X001134Y015686D02*
X004058Y015686D01*
X004069Y015527D02*
X001134Y015527D01*
X001134Y015369D02*
X004141Y015369D01*
X004351Y015210D02*
X001134Y015210D01*
X001134Y015052D02*
X004262Y015052D01*
X004264Y015054D02*
X004130Y014920D01*
X004058Y014745D01*
X004058Y014555D01*
X004130Y014380D01*
X004264Y014246D01*
X004439Y014173D01*
X004629Y014173D01*
X004804Y014246D01*
X004938Y014380D01*
X005011Y014555D01*
X005011Y014745D01*
X004938Y014920D01*
X004804Y015054D01*
X004629Y015126D01*
X004439Y015126D01*
X004264Y015054D01*
X004119Y014893D02*
X001134Y014893D01*
X001134Y014734D02*
X004058Y014734D01*
X004058Y014576D02*
X001134Y014576D01*
X001134Y014417D02*
X004115Y014417D01*
X004251Y014259D02*
X001134Y014259D01*
X001134Y014100D02*
X004376Y014100D01*
X004439Y014126D02*
X004264Y014054D01*
X004130Y013920D01*
X004058Y013745D01*
X004058Y013555D01*
X004130Y013380D01*
X004264Y013246D01*
X004439Y013173D01*
X004629Y013173D01*
X004804Y013246D01*
X004938Y013380D01*
X005011Y013555D01*
X005011Y013745D01*
X004938Y013920D01*
X004804Y014054D01*
X004629Y014126D01*
X004439Y014126D01*
X004692Y014100D02*
X005376Y014100D01*
X005251Y014259D02*
X004817Y014259D01*
X004954Y014417D02*
X005115Y014417D01*
X005058Y014576D02*
X005011Y014576D01*
X005011Y014734D02*
X005058Y014734D01*
X005119Y014893D02*
X004949Y014893D01*
X004806Y015052D02*
X005262Y015052D01*
X005351Y015210D02*
X004717Y015210D01*
X004927Y015369D02*
X005141Y015369D01*
X005069Y015527D02*
X004999Y015527D01*
X005011Y015686D02*
X005058Y015686D01*
X005099Y015844D02*
X004969Y015844D01*
X004855Y016003D02*
X005213Y016003D01*
X005190Y016320D02*
X004878Y016320D01*
X004979Y016478D02*
X005089Y016478D01*
X005058Y016637D02*
X005011Y016637D01*
X004990Y016796D02*
X005079Y016796D01*
X005164Y016954D02*
X004904Y016954D01*
X004164Y016954D02*
X001134Y016954D01*
X001134Y016796D02*
X004079Y016796D01*
X004058Y016637D02*
X001134Y016637D01*
X001134Y016478D02*
X004089Y016478D01*
X004190Y016320D02*
X001134Y016320D01*
X001134Y013942D02*
X004152Y013942D01*
X004074Y013783D02*
X001134Y013783D01*
X001134Y013625D02*
X004058Y013625D01*
X004094Y013466D02*
X001134Y013466D01*
X001134Y013308D02*
X004203Y013308D01*
X004264Y013054D02*
X004130Y012920D01*
X004058Y012745D01*
X004058Y012555D01*
X004130Y012380D01*
X004264Y012246D01*
X004439Y012173D01*
X004629Y012173D01*
X004804Y012246D01*
X004938Y012380D01*
X005011Y012555D01*
X005011Y012745D01*
X004938Y012920D01*
X004804Y013054D01*
X004629Y013126D01*
X004439Y013126D01*
X004264Y013054D01*
X004201Y012990D02*
X001134Y012990D01*
X001134Y012832D02*
X004094Y012832D01*
X004058Y012673D02*
X001134Y012673D01*
X001134Y012515D02*
X004074Y012515D01*
X004154Y012356D02*
X001134Y012356D01*
X001134Y012198D02*
X004380Y012198D01*
X004439Y012126D02*
X004264Y012054D01*
X004130Y011920D01*
X004058Y011745D01*
X004058Y011555D01*
X004130Y011380D01*
X004264Y011246D01*
X004439Y011173D01*
X004629Y011173D01*
X004804Y011246D01*
X004938Y011380D01*
X005011Y011555D01*
X005011Y011745D01*
X004938Y011920D01*
X004804Y012054D01*
X004629Y012126D01*
X004439Y012126D01*
X004249Y012039D02*
X001134Y012039D01*
X001134Y011881D02*
X004114Y011881D01*
X004058Y011722D02*
X001134Y011722D01*
X001134Y011564D02*
X004058Y011564D01*
X004120Y011405D02*
X001134Y011405D01*
X001134Y011246D02*
X004264Y011246D01*
X004346Y011088D02*
X001134Y011088D01*
X001134Y010929D02*
X004140Y010929D01*
X004068Y010771D02*
X001134Y010771D01*
X001134Y010612D02*
X004058Y010612D01*
X004100Y010454D02*
X001134Y010454D01*
X001134Y013149D02*
X005780Y013149D01*
X005203Y013308D02*
X004866Y013308D01*
X004974Y013466D02*
X005094Y013466D01*
X005058Y013625D02*
X005011Y013625D01*
X004995Y013783D02*
X005074Y013783D01*
X005152Y013942D02*
X004916Y013942D01*
X005692Y014100D02*
X005804Y014100D01*
X005201Y012990D02*
X004867Y012990D01*
X004974Y012832D02*
X005094Y012832D01*
X005058Y012673D02*
X005011Y012673D01*
X004994Y012515D02*
X005074Y012515D01*
X005154Y012356D02*
X004914Y012356D01*
X004688Y012198D02*
X005380Y012198D01*
X005249Y012039D02*
X004819Y012039D01*
X004954Y011881D02*
X005114Y011881D01*
X005058Y011722D02*
X005011Y011722D01*
X005011Y011564D02*
X005058Y011564D01*
X005120Y011405D02*
X004948Y011405D01*
X004805Y011246D02*
X005264Y011246D01*
X005346Y011088D02*
X004722Y011088D01*
X004928Y010929D02*
X005140Y010929D01*
X005068Y010771D02*
X005000Y010771D01*
X005011Y010612D02*
X005058Y010612D01*
X005100Y010454D02*
X004969Y010454D01*
X004853Y010295D02*
X005215Y010295D01*
X005188Y009978D02*
X004880Y009978D01*
X004980Y009820D02*
X005089Y009820D01*
X005058Y009661D02*
X005011Y009661D01*
X004989Y009503D02*
X005079Y009503D01*
X005166Y009344D02*
X004902Y009344D01*
X004658Y009185D02*
X005410Y009185D01*
X005237Y009027D02*
X004831Y009027D01*
X004959Y008868D02*
X005109Y008868D01*
X005058Y008710D02*
X005011Y008710D01*
X005009Y008551D02*
X005059Y008551D01*
X005125Y008393D02*
X004943Y008393D01*
X004776Y008234D02*
X005293Y008234D01*
X005439Y008173D02*
X005629Y008173D01*
X005804Y008246D01*
X005943Y008393D02*
X007578Y008393D01*
X007420Y008551D02*
X006009Y008551D01*
X006011Y008710D02*
X007070Y008710D01*
X007009Y008868D02*
X006007Y008868D01*
X006166Y009027D02*
X007030Y009027D01*
X007146Y009185D02*
X006324Y009185D01*
X006444Y009344D02*
X007895Y009344D01*
X008915Y010454D02*
X011484Y010454D01*
X011338Y010612D02*
X008756Y010612D01*
X008598Y010771D02*
X011309Y010771D01*
X011356Y010929D02*
X008439Y010929D01*
X008281Y011088D02*
X011604Y011088D01*
X011394Y011246D02*
X010692Y011246D01*
X010861Y011405D02*
X011297Y011405D01*
X011292Y011564D02*
X010924Y011564D01*
X010924Y011722D02*
X011383Y011722D01*
X010203Y012039D02*
X006949Y012039D01*
X007104Y011881D02*
X010062Y011881D01*
X010004Y011722D02*
X007186Y011722D01*
X007066Y012515D02*
X006734Y012515D01*
X006604Y012673D02*
X007029Y012673D01*
X007069Y012832D02*
X006604Y012832D01*
X006604Y012990D02*
X007263Y012990D01*
X006824Y013625D02*
X007804Y013625D01*
X008224Y013783D02*
X006724Y013783D01*
X006458Y015210D02*
X012973Y015210D01*
X012873Y015369D02*
X006444Y015369D01*
X006444Y015527D02*
X012844Y015527D01*
X012871Y015686D02*
X006444Y015686D01*
X006444Y015844D02*
X012968Y015844D01*
X014894Y013926D02*
X014894Y013926D01*
X014884Y013783D02*
X015792Y013783D01*
X015939Y013942D02*
X015449Y013942D01*
X015499Y014100D02*
X016085Y014100D01*
X016104Y014259D02*
X015473Y014259D01*
X015345Y014417D02*
X016104Y014417D01*
X016058Y014576D02*
X015193Y014576D01*
X016927Y015369D02*
X017141Y015369D01*
X017069Y015527D02*
X016999Y015527D01*
X017011Y015686D02*
X017058Y015686D01*
X017099Y015844D02*
X016969Y015844D01*
X016855Y016003D02*
X017213Y016003D01*
X017190Y016320D02*
X016878Y016320D01*
X016979Y016478D02*
X017089Y016478D01*
X017058Y016637D02*
X017011Y016637D01*
X016990Y016796D02*
X017079Y016796D01*
X017164Y016954D02*
X016904Y016954D01*
X017104Y018381D02*
X017163Y018381D01*
X017334Y018539D02*
X016940Y018539D01*
X016533Y018539D02*
X016403Y018539D01*
X016195Y018698D02*
X018854Y018698D01*
X018645Y018539D02*
X018502Y018539D01*
X018121Y018539D02*
X017714Y018539D01*
X017886Y018381D02*
X017950Y018381D01*
X019344Y018698D02*
X020914Y018698D01*
X020914Y018539D02*
X019552Y018539D01*
X019642Y018381D02*
X020914Y018381D01*
X020914Y018222D02*
X019681Y018222D01*
X019681Y018064D02*
X020914Y018064D01*
X020914Y017905D02*
X019620Y017905D01*
X019500Y017747D02*
X020914Y017747D01*
X016380Y012198D02*
X014174Y012198D01*
X014174Y012356D02*
X016154Y012356D01*
X016249Y012039D02*
X014174Y012039D01*
X014174Y011881D02*
X016114Y011881D01*
X016120Y011405D02*
X015914Y011405D01*
X015755Y011246D02*
X016264Y011246D01*
X016346Y011088D02*
X015597Y011088D01*
X015438Y010929D02*
X016140Y010929D01*
X016068Y010771D02*
X015280Y010771D01*
X015088Y011088D02*
X014080Y011088D01*
X014000Y010612D02*
X016058Y010612D01*
X016188Y009978D02*
X015180Y009978D01*
X015339Y009820D02*
X016089Y009820D01*
X016058Y009661D02*
X015497Y009661D01*
X015656Y009503D02*
X016079Y009503D01*
X016166Y009344D02*
X015815Y009344D01*
X015973Y009185D02*
X016410Y009185D01*
X016237Y009027D02*
X016124Y009027D01*
X015571Y008868D02*
X012664Y008868D01*
X012664Y008710D02*
X015614Y008710D01*
X015614Y008551D02*
X012620Y008551D01*
X012461Y008393D02*
X014053Y008393D01*
X013969Y008234D02*
X012157Y008234D01*
X011931Y008234D02*
X011895Y008234D01*
X011919Y008076D02*
X013927Y008076D01*
X013768Y007917D02*
X011865Y007917D01*
X012664Y009027D02*
X015413Y009027D01*
X015254Y009185D02*
X012663Y009185D01*
X012505Y009344D02*
X015095Y009344D01*
X014937Y009503D02*
X012346Y009503D01*
X011884Y010295D02*
X009073Y010295D01*
X010068Y011405D02*
X007963Y011405D01*
X007805Y011564D02*
X010004Y011564D01*
X010236Y011246D02*
X008122Y011246D01*
X008766Y012832D02*
X009448Y012832D01*
X009289Y012990D02*
X008779Y012990D01*
X008699Y013149D02*
X009164Y013149D01*
X009040Y013308D02*
X008695Y013308D01*
X008779Y013466D02*
X009009Y013466D01*
X009054Y013625D02*
X008767Y013625D01*
X008665Y013783D02*
X009273Y013783D01*
X009415Y013783D02*
X009420Y013783D01*
X007220Y016320D02*
X007156Y016320D01*
X006269Y017588D02*
X006219Y017588D01*
X005979Y017588D02*
X003069Y017588D01*
X003351Y017747D02*
X005697Y017747D01*
X004988Y017905D02*
X004847Y017905D01*
X004886Y018381D02*
X004950Y018381D01*
X005121Y018539D02*
X004714Y018539D01*
X004334Y018539D02*
X003927Y018539D01*
X004098Y018381D02*
X004163Y018381D01*
X004201Y017905D02*
X004060Y017905D01*
X003546Y018539D02*
X003403Y018539D01*
X003195Y018698D02*
X005854Y018698D01*
X005645Y018539D02*
X005502Y018539D01*
X006642Y018381D02*
X006761Y018381D01*
X007394Y017905D02*
X008234Y017905D01*
X008076Y018064D02*
X007553Y018064D01*
X008752Y018698D02*
X008821Y018698D01*
X010326Y020918D02*
X010409Y020918D01*
X011159Y022186D02*
X011549Y022186D01*
X011586Y022345D02*
X011083Y022345D01*
X007924Y023710D02*
X007844Y023710D01*
X007844Y023750D01*
X005732Y012198D02*
X005688Y012198D01*
X005819Y012039D02*
X005890Y012039D01*
X005954Y011881D02*
X005984Y011881D01*
X005948Y011405D02*
X006044Y011405D01*
X006153Y011246D02*
X005805Y011246D01*
X005722Y011088D02*
X006311Y011088D01*
X006470Y010929D02*
X005928Y010929D01*
X005944Y010295D02*
X005853Y010295D01*
X005880Y009978D02*
X005944Y009978D01*
X005974Y009344D02*
X005902Y009344D01*
X005815Y009185D02*
X005658Y009185D01*
X005129Y007917D02*
X004939Y007917D01*
X005005Y007759D02*
X005063Y007759D01*
X005058Y007600D02*
X005011Y007600D01*
X004964Y007441D02*
X005105Y007441D01*
X004104Y005856D02*
X001134Y005856D01*
X001134Y005697D02*
X004058Y005697D01*
X004064Y005539D02*
X001134Y005539D01*
X001134Y005380D02*
X004130Y005380D01*
X004322Y005222D02*
X001134Y005222D01*
X001134Y004112D02*
X015089Y004112D01*
X014894Y003954D02*
X001134Y003954D01*
X001134Y003795D02*
X014735Y003795D01*
X014577Y003636D02*
X001134Y003636D01*
X001134Y003478D02*
X014418Y003478D01*
X014260Y003319D02*
X001134Y003319D01*
X001134Y003161D02*
X014101Y003161D01*
X014439Y001876D02*
X014264Y001804D01*
X014130Y001670D01*
X014058Y001495D01*
X014058Y001305D01*
X014130Y001130D01*
X014264Y000996D01*
X014439Y000923D01*
X014629Y000923D01*
X014804Y000996D01*
X014938Y001130D01*
X015011Y001305D01*
X015011Y001495D01*
X014938Y001670D01*
X014804Y001804D01*
X014629Y001876D01*
X014439Y001876D01*
X014194Y001734D02*
X013874Y001734D01*
X013938Y001670D02*
X013804Y001804D01*
X013629Y001876D01*
X013439Y001876D01*
X013264Y001804D01*
X013130Y001670D01*
X013058Y001495D01*
X013058Y001305D01*
X013130Y001130D01*
X013264Y000996D01*
X013439Y000923D01*
X013629Y000923D01*
X013804Y000996D01*
X013938Y001130D01*
X014011Y001305D01*
X014011Y001495D01*
X013938Y001670D01*
X013977Y001575D02*
X014091Y001575D01*
X014058Y001417D02*
X014011Y001417D01*
X013991Y001258D02*
X014077Y001258D01*
X014160Y001100D02*
X013908Y001100D01*
X013672Y000941D02*
X014396Y000941D01*
X014672Y000941D02*
X020914Y000941D01*
X020914Y000783D02*
X001134Y000783D01*
X001134Y000941D02*
X009396Y000941D01*
X009439Y000923D02*
X009629Y000923D01*
X009804Y000996D01*
X009938Y001130D01*
X010011Y001305D01*
X010011Y001495D01*
X009938Y001670D01*
X009804Y001804D01*
X009629Y001876D01*
X009439Y001876D01*
X009264Y001804D01*
X009130Y001670D01*
X009058Y001495D01*
X009058Y001305D01*
X009130Y001130D01*
X009264Y000996D01*
X009439Y000923D01*
X009672Y000941D02*
X010396Y000941D01*
X010439Y000923D02*
X010629Y000923D01*
X010804Y000996D01*
X010938Y001130D01*
X011011Y001305D01*
X011011Y001495D01*
X010938Y001670D01*
X010804Y001804D01*
X010629Y001876D01*
X010439Y001876D01*
X010264Y001804D01*
X010130Y001670D01*
X010058Y001495D01*
X010058Y001305D01*
X010130Y001130D01*
X010264Y000996D01*
X010439Y000923D01*
X010672Y000941D02*
X011396Y000941D01*
X011439Y000923D02*
X011264Y000996D01*
X011130Y001130D01*
X011058Y001305D01*
X011058Y001495D01*
X011130Y001670D01*
X011264Y001804D01*
X011439Y001876D01*
X011629Y001876D01*
X011804Y001804D01*
X011938Y001670D01*
X012011Y001495D01*
X012011Y001305D01*
X011938Y001130D01*
X011804Y000996D01*
X011629Y000923D01*
X011439Y000923D01*
X011672Y000941D02*
X013396Y000941D01*
X013160Y001100D02*
X011908Y001100D01*
X011991Y001258D02*
X013077Y001258D01*
X013058Y001417D02*
X012011Y001417D01*
X011977Y001575D02*
X013091Y001575D01*
X013194Y001734D02*
X011874Y001734D01*
X011194Y001734D02*
X010874Y001734D01*
X010977Y001575D02*
X011091Y001575D01*
X011058Y001417D02*
X011011Y001417D01*
X010991Y001258D02*
X011077Y001258D01*
X011160Y001100D02*
X010908Y001100D01*
X010160Y001100D02*
X009908Y001100D01*
X009991Y001258D02*
X010077Y001258D01*
X010058Y001417D02*
X010011Y001417D01*
X009977Y001575D02*
X010091Y001575D01*
X010194Y001734D02*
X009874Y001734D01*
X009194Y001734D02*
X001134Y001734D01*
X001134Y001892D02*
X020914Y001892D01*
X020914Y001734D02*
X014874Y001734D01*
X014977Y001575D02*
X020914Y001575D01*
X020914Y001417D02*
X015011Y001417D01*
X014991Y001258D02*
X020914Y001258D01*
X020914Y001100D02*
X014908Y001100D01*
X016080Y006332D02*
X016178Y006332D01*
X017890Y006332D02*
X020914Y006332D01*
X020914Y006490D02*
X017984Y006490D01*
X018011Y006649D02*
X020914Y006649D01*
X020914Y006807D02*
X017985Y006807D01*
X015614Y008393D02*
X014555Y008393D01*
X014778Y009661D02*
X010887Y009661D01*
X010729Y009820D02*
X014620Y009820D01*
X013608Y010612D02*
X013604Y010612D01*
X013625Y011246D02*
X015246Y011246D01*
X015405Y011405D02*
X013784Y011405D01*
X013942Y011564D02*
X015563Y011564D01*
X015722Y011722D02*
X014101Y011722D01*
X009723Y005856D02*
X009424Y005856D01*
X009091Y001575D02*
X001134Y001575D01*
X001134Y001417D02*
X009058Y001417D01*
X009077Y001258D02*
X001134Y001258D01*
X001134Y001100D02*
X009160Y001100D01*
X001134Y002051D02*
X020914Y002051D01*
D21*
X006204Y023190D03*
X007924Y023710D03*
D22*
X007264Y020010D03*
D23*
X009564Y022430D02*
X009544Y022450D01*
X009564Y022430D02*
X009704Y022430D01*
X010124Y021190D02*
X010424Y021190D01*
X010984Y020610D01*
X011004Y019230D01*
X011324Y018910D01*
X011324Y017410D01*
X011824Y018150D02*
X011664Y018310D01*
X011824Y018150D02*
X012404Y018150D01*
X012404Y018030D01*
X012184Y019930D02*
X012084Y019930D01*
X011884Y020130D01*
X011664Y020130D01*
X011604Y020190D01*
X011604Y021910D01*
X011884Y022190D01*
X007344Y008910D02*
X008304Y007950D01*
X009984Y007950D01*
X010004Y007830D01*
X009984Y007950D02*
X009984Y007710D01*
X010084Y007610D01*
X013744Y007610D01*
X014304Y008170D01*
X011744Y004110D02*
X011724Y004090D01*
X011704Y004090D01*
X009104Y007410D02*
X009104Y007790D01*
D24*
X017164Y020870D03*
M02*
