G75*
G70*
%OFA0B0*%
%FSLAX24Y24*%
%IPPOS*%
%LPD*%
%AMOC8*
5,1,8,0,0,1.08239X$1,22.5*
%
%ADD10C,0.0060*%
%ADD11R,0.0138X0.0866*%
%ADD12R,0.0866X0.0138*%
%ADD13C,0.1580*%
%ADD14R,0.0512X0.0630*%
%ADD15R,0.0433X0.0394*%
%ADD16C,0.0673*%
%ADD17C,0.0050*%
%ADD18C,0.1400*%
%ADD19C,0.0550*%
%ADD20C,0.0885*%
%ADD21R,0.0768X0.0984*%
%ADD22R,0.0118X0.0335*%
%ADD23R,0.0335X0.0118*%
%ADD24R,0.2000X0.2000*%
%ADD25R,0.0217X0.0472*%
%ADD26R,0.0610X0.0709*%
%ADD27R,0.0591X0.0512*%
%ADD28R,0.0709X0.0610*%
%ADD29R,0.0394X0.0433*%
%ADD30R,0.0984X0.0866*%
%ADD31R,0.0197X0.0787*%
%ADD32R,0.0315X0.1024*%
%ADD33R,0.0591X0.0827*%
%ADD34R,0.0400X0.0200*%
%ADD35C,0.0640*%
%ADD36C,0.0390*%
%ADD37C,0.0080*%
%ADD38C,0.0120*%
%ADD39C,0.0560*%
%ADD40C,0.0010*%
%ADD41R,0.0476X0.0476*%
%ADD42C,0.0160*%
%ADD43C,0.0476*%
%ADD44C,0.0320*%
%ADD45C,0.0555*%
%ADD46C,0.0500*%
%ADD47C,0.0660*%
D10*
X000624Y000140D02*
X000624Y026240D01*
X021424Y026240D01*
X021424Y000140D01*
X000624Y000140D01*
D11*
X009154Y004999D03*
X009469Y004999D03*
X009784Y004999D03*
X010099Y004999D03*
X010414Y004999D03*
X010729Y004999D03*
X011044Y004999D03*
X011359Y004999D03*
X011674Y004999D03*
X011989Y004999D03*
X012304Y004999D03*
X012304Y009802D03*
X011989Y009802D03*
X011674Y009802D03*
X011359Y009802D03*
X011044Y009802D03*
X010729Y009802D03*
X010414Y009802D03*
X010099Y009802D03*
X009784Y009802D03*
X009469Y009802D03*
X009154Y009802D03*
D12*
X008328Y008975D03*
X008328Y008660D03*
X008328Y008345D03*
X008328Y008030D03*
X008328Y007715D03*
X008328Y007401D03*
X008328Y007086D03*
X008328Y006771D03*
X008328Y006456D03*
X008328Y006141D03*
X008328Y005826D03*
X013131Y005826D03*
X013131Y006141D03*
X013131Y006456D03*
X013131Y006771D03*
X013131Y007086D03*
X013131Y007401D03*
X013131Y007715D03*
X013131Y008030D03*
X013131Y008345D03*
X013131Y008660D03*
X013131Y008975D03*
D13*
X004037Y021914D03*
X002187Y023095D03*
X004037Y024276D03*
D14*
X013529Y002417D03*
X014277Y002417D03*
D15*
X011204Y004084D03*
X010535Y004084D03*
X007615Y007253D03*
X006945Y007253D03*
X010303Y010638D03*
X010973Y010638D03*
X014032Y007685D03*
X014701Y007685D03*
X013746Y017231D03*
X013746Y017901D03*
D16*
X016534Y016650D03*
X016534Y015650D03*
X016534Y014650D03*
X016534Y013650D03*
X016534Y012650D03*
X016534Y011650D03*
X016534Y010650D03*
X016534Y009650D03*
X016534Y008650D03*
X016534Y007650D03*
X016534Y006650D03*
X016534Y005650D03*
X017534Y005650D03*
X017534Y006650D03*
X017534Y007650D03*
X017534Y008650D03*
X017534Y009650D03*
X017534Y010650D03*
X017534Y011650D03*
X017534Y012650D03*
X017534Y013650D03*
X017534Y014650D03*
X017534Y015650D03*
X017534Y016650D03*
X018534Y016650D03*
X018534Y015650D03*
X018534Y014650D03*
X018534Y013650D03*
X018534Y012650D03*
X018534Y011650D03*
X018534Y010650D03*
X018534Y009650D03*
X018534Y008650D03*
X018534Y007650D03*
X018534Y006650D03*
X018534Y005650D03*
X018534Y002650D03*
X017534Y002650D03*
X016534Y002650D03*
X014534Y001400D03*
X013534Y001400D03*
X012534Y001400D03*
X011534Y001400D03*
X010534Y001400D03*
X009534Y001400D03*
X008534Y001400D03*
X007534Y001400D03*
X005534Y002650D03*
X004534Y002650D03*
X003534Y002650D03*
X003534Y005650D03*
X003534Y006650D03*
X003534Y007650D03*
X003534Y008650D03*
X003534Y009650D03*
X003534Y010650D03*
X003534Y011650D03*
X003534Y012650D03*
X003534Y013650D03*
X003534Y014650D03*
X003534Y015650D03*
X003534Y016650D03*
X004534Y016650D03*
X004534Y015650D03*
X004534Y014650D03*
X004534Y013650D03*
X004534Y012650D03*
X004534Y011650D03*
X004534Y010650D03*
X004534Y009650D03*
X004534Y008650D03*
X004534Y007650D03*
X004534Y006650D03*
X004534Y005650D03*
X005534Y005650D03*
X005534Y006650D03*
X005534Y007650D03*
X005534Y008650D03*
X005534Y009650D03*
X005534Y010650D03*
X005534Y011650D03*
X005534Y012650D03*
X005534Y013650D03*
X005534Y014650D03*
X005534Y015650D03*
X005534Y016650D03*
X014154Y022500D03*
X015154Y022500D03*
X016154Y022500D03*
X017154Y022500D03*
X018154Y022500D03*
X019154Y022500D03*
X020154Y022500D03*
D17*
X021154Y026000D02*
X021154Y027450D01*
X013154Y027450D01*
X013154Y026000D01*
D18*
X020284Y018900D03*
X020284Y001400D03*
X001784Y001400D03*
X001784Y018900D03*
D19*
X003737Y018169D03*
X004524Y018169D03*
X005311Y018169D03*
X016737Y018169D03*
X017524Y018169D03*
X018311Y018169D03*
D20*
X019099Y018169D03*
X015949Y018169D03*
X006099Y018169D03*
X002949Y018169D03*
D21*
X016518Y019659D03*
X017719Y019659D03*
D22*
X011964Y017864D03*
X011767Y017864D03*
X011570Y017864D03*
X011373Y017864D03*
X011176Y017864D03*
X010979Y017864D03*
X010783Y017864D03*
X010586Y017864D03*
X010389Y017864D03*
X010192Y017864D03*
X009995Y017864D03*
X009798Y017864D03*
X009601Y017864D03*
X009405Y017864D03*
X009208Y017864D03*
X009011Y017864D03*
X009011Y014320D03*
X009208Y014320D03*
X009405Y014320D03*
X009601Y014320D03*
X009798Y014320D03*
X009995Y014320D03*
X010192Y014320D03*
X010389Y014320D03*
X010586Y014320D03*
X010783Y014320D03*
X010979Y014320D03*
X011176Y014320D03*
X011373Y014320D03*
X011570Y014320D03*
X011767Y014320D03*
X011964Y014320D03*
D23*
X012259Y014616D03*
X012259Y014812D03*
X012259Y015009D03*
X012259Y015206D03*
X012259Y015403D03*
X012259Y015600D03*
X012259Y015797D03*
X012259Y015994D03*
X012259Y016190D03*
X012259Y016387D03*
X012259Y016584D03*
X012259Y016781D03*
X012259Y016978D03*
X012259Y017175D03*
X012259Y017371D03*
X012259Y017568D03*
X008716Y017568D03*
X008716Y017371D03*
X008716Y017175D03*
X008716Y016978D03*
X008716Y016781D03*
X008716Y016584D03*
X008716Y016387D03*
X008716Y016190D03*
X008716Y015994D03*
X008716Y015797D03*
X008716Y015600D03*
X008716Y015403D03*
X008716Y015206D03*
X008716Y015009D03*
X008716Y014812D03*
X008716Y014616D03*
D24*
X010509Y016116D03*
D25*
X007791Y020655D03*
X007417Y020655D03*
X007043Y020655D03*
X007043Y021678D03*
X007791Y021678D03*
D26*
X007184Y022440D03*
X006259Y022440D03*
X006263Y023997D03*
X007188Y023997D03*
D27*
X007942Y023077D03*
X007942Y022329D03*
X006338Y021543D03*
X006338Y020795D03*
D28*
X007883Y015732D03*
X007883Y014807D03*
D29*
X007124Y014805D03*
X007124Y015474D03*
X010493Y012306D03*
X011163Y012306D03*
X010904Y013155D03*
X010904Y013825D03*
X008764Y021535D03*
X008764Y022205D03*
X018309Y021490D03*
X018979Y021490D03*
X012469Y002540D03*
X011799Y002540D03*
D30*
X012258Y023273D03*
X012258Y025359D03*
X008951Y025359D03*
X008951Y023273D03*
D31*
X009974Y023174D03*
X010289Y023174D03*
X010604Y023174D03*
X010919Y023174D03*
X011234Y023174D03*
D32*
X010965Y019790D03*
X010374Y019790D03*
X009784Y019790D03*
D33*
X011915Y021390D03*
X013333Y021390D03*
D34*
X012613Y012972D03*
X012613Y012617D03*
X011865Y012617D03*
X011865Y012972D03*
D35*
X013344Y014490D03*
X013304Y015530D03*
X013484Y012070D03*
X010464Y011650D03*
D36*
X011624Y011490D03*
X012104Y011490D03*
X012124Y010750D03*
X011644Y010750D03*
X012854Y012080D03*
X013604Y012800D03*
X014384Y013110D03*
X014704Y014210D03*
X015164Y014130D03*
X015404Y013110D03*
X013804Y010890D03*
X012184Y008990D03*
X011744Y008890D03*
X011444Y008550D03*
X011584Y008110D03*
X011144Y008210D03*
X011144Y008890D03*
X010464Y007950D03*
X010004Y007830D03*
X009544Y007310D03*
X009104Y007410D03*
X009184Y006810D03*
X009504Y006490D03*
X009224Y006130D03*
X009964Y007130D03*
X010244Y006750D03*
X010484Y007170D03*
X010144Y008530D03*
X009824Y008850D03*
X012044Y008550D03*
X014304Y008170D03*
X015194Y007630D03*
X015264Y003730D03*
X011704Y004090D03*
X007384Y005050D03*
X007384Y006050D03*
X007244Y007750D03*
X007344Y008910D03*
X007364Y012670D03*
X008104Y013230D03*
X008444Y013530D03*
X008444Y012930D03*
X009344Y013450D03*
X009744Y013230D03*
X009744Y013690D03*
X010384Y012910D03*
X010424Y014790D03*
X011324Y017410D03*
X011664Y018310D03*
X012404Y018150D03*
X011464Y019450D03*
X011744Y019810D03*
X012064Y019490D03*
X012184Y019930D03*
X010644Y019040D03*
X010504Y018420D03*
X008904Y018370D03*
X008444Y018370D03*
X008444Y018830D03*
X008824Y019130D03*
X008464Y019630D03*
X007604Y019030D03*
X006844Y018870D03*
X007024Y017290D03*
X007344Y016970D03*
X007484Y016530D03*
X006864Y016490D03*
X006724Y016950D03*
X006424Y017290D03*
X006304Y016750D03*
X007564Y014230D03*
X012744Y015150D03*
X012884Y015970D03*
X013744Y016750D03*
X015804Y019410D03*
X015804Y019910D03*
X011884Y022190D03*
X011164Y021830D03*
X010824Y022130D03*
X010464Y022410D03*
X009704Y022430D03*
X010124Y021190D03*
X019824Y016530D03*
D37*
X016534Y016650D02*
X016534Y016280D01*
X015944Y015690D01*
X015944Y014650D01*
X015824Y014530D01*
X015824Y014490D01*
X015764Y014430D01*
X014924Y014430D01*
X014704Y014210D01*
X014684Y014190D01*
X014684Y011330D01*
X013964Y010610D01*
X013964Y010390D01*
X013376Y009802D01*
X012304Y009802D01*
X011989Y009802D02*
X011989Y010615D01*
X012124Y010750D01*
X011674Y010720D02*
X011644Y010750D01*
X011674Y010720D02*
X011674Y009802D01*
X011359Y009802D02*
X011359Y009175D01*
X011444Y009090D01*
X011444Y008550D01*
X011744Y008390D02*
X011744Y008890D01*
X012044Y008550D02*
X012044Y007750D01*
X012324Y007470D01*
X012324Y006530D01*
X012398Y006456D01*
X013131Y006456D01*
X013131Y006771D02*
X012563Y006771D01*
X012464Y006870D01*
X012464Y007530D01*
X012204Y007790D01*
X012204Y008290D01*
X012344Y008430D01*
X012344Y008830D01*
X012184Y008990D01*
X011744Y008390D02*
X011884Y008250D01*
X011884Y007690D01*
X012184Y007390D01*
X012184Y006270D01*
X012313Y006141D01*
X013131Y006141D01*
X013131Y007086D02*
X013820Y007086D01*
X013924Y007190D01*
X015724Y007190D01*
X015844Y007310D01*
X015844Y007990D01*
X015724Y008110D01*
X015094Y008110D01*
X014664Y008540D01*
X014664Y010290D01*
X014884Y010510D01*
X016064Y010510D01*
X016164Y010410D01*
X016164Y010090D01*
X016534Y009720D01*
X016534Y009650D01*
X016534Y010650D02*
X014824Y010650D01*
X014524Y010350D01*
X014524Y009010D01*
X014244Y008730D01*
X014244Y008610D01*
X013665Y008030D01*
X013131Y008030D01*
X013131Y007715D02*
X013161Y007685D01*
X014032Y007685D01*
X014032Y007897D01*
X014304Y008170D01*
X014104Y008670D02*
X013780Y008345D01*
X013131Y008345D01*
X013131Y008660D02*
X013875Y008660D01*
X013964Y008750D01*
X013964Y008850D01*
X014244Y009130D01*
X014244Y010490D01*
X014964Y011210D01*
X014964Y013310D01*
X015464Y013810D01*
X015904Y013810D01*
X016104Y014010D01*
X016104Y014330D01*
X016424Y014650D01*
X016534Y014650D01*
X016084Y014590D02*
X016084Y015330D01*
X016244Y015490D01*
X016374Y015490D01*
X016534Y015650D01*
X016084Y014590D02*
X015964Y014470D01*
X015964Y014070D01*
X015844Y013950D01*
X015404Y013950D01*
X015344Y013950D01*
X015164Y014130D01*
X015404Y013950D02*
X014824Y013370D01*
X014824Y011270D01*
X014104Y010550D01*
X014104Y009210D01*
X013869Y008975D01*
X013131Y008975D01*
X014104Y008790D02*
X014104Y008670D01*
X014104Y008790D02*
X014384Y009070D01*
X014384Y010430D01*
X015104Y011150D01*
X015104Y013250D01*
X015524Y013670D01*
X016514Y013670D01*
X016534Y013650D01*
X016074Y013110D02*
X015404Y013110D01*
X016074Y013110D02*
X016534Y012650D01*
X014804Y014540D02*
X014534Y014540D01*
X014384Y014390D01*
X014384Y013640D01*
X014204Y013460D01*
X014144Y013460D01*
X014054Y013370D01*
X014054Y012940D01*
X014164Y012830D01*
X014284Y012830D01*
X014404Y012710D01*
X014404Y011450D01*
X014284Y011330D01*
X012584Y011330D01*
X012424Y011490D01*
X012104Y011490D01*
X011984Y011810D02*
X012344Y011810D01*
X012684Y011470D01*
X014224Y011470D01*
X014264Y011510D01*
X014264Y012630D01*
X014204Y012690D01*
X014084Y012690D01*
X013904Y012870D01*
X013904Y013430D01*
X014234Y013760D01*
X014234Y014450D01*
X014714Y014930D01*
X014714Y016040D01*
X014464Y016290D01*
X013464Y016290D01*
X013284Y016470D01*
X013284Y017330D01*
X013243Y017371D01*
X012259Y017371D01*
X012259Y017175D02*
X012949Y017175D01*
X013124Y017000D01*
X013124Y016430D01*
X013424Y016130D01*
X014384Y016130D01*
X014564Y015950D01*
X014564Y015020D01*
X014084Y014540D01*
X014084Y013820D01*
X013754Y013490D01*
X013754Y012980D01*
X013604Y012830D01*
X013604Y012800D01*
X013304Y012950D02*
X013604Y013250D01*
X013604Y013550D01*
X013934Y013880D01*
X013934Y014600D01*
X014414Y015080D01*
X014414Y015860D01*
X014324Y015950D01*
X013394Y015950D01*
X012974Y016370D01*
X012974Y016760D01*
X012756Y016978D01*
X012259Y016978D01*
X012259Y017568D02*
X013286Y017568D01*
X013424Y017430D01*
X013424Y016530D01*
X013524Y016430D01*
X014559Y016430D01*
X014871Y016118D01*
X014871Y014607D01*
X014804Y014540D01*
X014384Y013110D02*
X014344Y013110D01*
X014544Y012910D01*
X014544Y011390D01*
X014344Y011190D01*
X010024Y011190D01*
X009824Y010990D01*
X009824Y010330D01*
X009784Y010290D01*
X009784Y009802D01*
X010099Y009802D02*
X010099Y010195D01*
X009964Y010330D01*
X009964Y010910D01*
X010104Y011050D01*
X013644Y011050D01*
X013804Y010890D01*
X013394Y011630D02*
X013484Y011720D01*
X013484Y012070D01*
X013394Y011630D02*
X012764Y011630D01*
X012434Y011960D01*
X012434Y012049D01*
X011865Y012617D01*
X011823Y012660D01*
X011214Y012660D01*
X011284Y012730D01*
X011284Y013750D01*
X011204Y013830D01*
X010909Y013830D01*
X010904Y013825D01*
X011373Y013921D02*
X011373Y014320D01*
X011570Y014320D02*
X011570Y013944D01*
X011604Y013910D01*
X011784Y013910D01*
X011984Y013710D01*
X011984Y013310D01*
X012104Y013190D01*
X012444Y013190D01*
X012613Y013021D01*
X012613Y012972D01*
X012613Y012617D02*
X012621Y012610D01*
X012924Y012610D01*
X012984Y012670D01*
X012984Y013190D01*
X012844Y013330D01*
X012204Y013330D01*
X012124Y013410D01*
X012124Y013790D01*
X011864Y014050D01*
X011804Y014050D01*
X011767Y014087D01*
X011767Y014320D01*
X011724Y013770D02*
X011524Y013770D01*
X011373Y013921D01*
X011724Y013770D02*
X011844Y013650D01*
X011844Y012993D01*
X011865Y012972D01*
X011214Y012660D02*
X011163Y012609D01*
X011163Y012306D01*
X010493Y012306D02*
X010493Y011853D01*
X010493Y012306D02*
X010489Y012470D01*
X010144Y012470D01*
X010044Y012570D01*
X010044Y013270D01*
X010192Y013418D01*
X010192Y014320D01*
X009995Y014320D02*
X009995Y013859D01*
X010044Y013810D01*
X010044Y013510D01*
X009904Y013370D01*
X009884Y013370D01*
X009744Y013230D01*
X009344Y013450D02*
X009344Y013750D01*
X009601Y014007D01*
X009601Y014320D01*
X009405Y014320D02*
X009405Y014050D01*
X009244Y013890D01*
X008864Y013890D01*
X008804Y013830D01*
X008804Y013290D01*
X008444Y012930D01*
X008084Y012790D02*
X008084Y010930D01*
X007684Y010530D01*
X006414Y010530D01*
X005534Y009650D01*
X005534Y010650D02*
X005804Y010650D01*
X006264Y011110D01*
X006284Y011130D01*
X007604Y011130D01*
X007804Y011330D01*
X007804Y012850D01*
X007644Y013010D01*
X006704Y013010D01*
X006404Y013310D01*
X006404Y014410D01*
X006564Y014570D01*
X006564Y015750D01*
X006664Y015850D01*
X007084Y015850D01*
X007384Y016150D01*
X007604Y016150D01*
X007784Y016330D01*
X007784Y016710D01*
X007524Y016970D01*
X007344Y016970D01*
X007024Y016750D02*
X007164Y016610D01*
X007164Y016370D01*
X006944Y016150D01*
X006404Y016150D01*
X006264Y016010D01*
X006264Y014630D01*
X006124Y014490D01*
X006124Y013290D01*
X006004Y013170D01*
X006004Y012750D01*
X005904Y012650D01*
X005534Y012650D01*
X005534Y013650D02*
X005554Y013670D01*
X005844Y013670D01*
X005984Y013810D01*
X005984Y014550D01*
X006124Y014690D01*
X006124Y016070D01*
X006364Y016310D01*
X006504Y016310D01*
X006684Y016490D01*
X006864Y016490D01*
X006604Y016630D02*
X006604Y016830D01*
X006724Y016950D01*
X006644Y016870D01*
X006604Y016630D02*
X006424Y016450D01*
X006304Y016450D01*
X005984Y016130D01*
X005984Y014770D01*
X005864Y014650D01*
X005534Y014650D01*
X005534Y015650D02*
X005764Y015880D01*
X005764Y016190D01*
X006304Y016730D01*
X006304Y016750D01*
X005784Y016650D02*
X006424Y017290D01*
X007024Y017290D02*
X007024Y016750D01*
X007604Y017610D02*
X007604Y018590D01*
X007304Y018890D01*
X007304Y019170D01*
X007484Y019350D01*
X007924Y019350D01*
X008024Y019450D01*
X008024Y019830D01*
X008264Y020070D01*
X008784Y020070D01*
X008944Y020230D01*
X008944Y020630D01*
X009184Y020870D01*
X013884Y020870D01*
X014154Y021140D01*
X014154Y022500D01*
X014444Y021910D02*
X014304Y021770D01*
X014304Y021090D01*
X013944Y020730D01*
X009244Y020730D01*
X009084Y020570D01*
X009084Y020170D01*
X008844Y019930D01*
X008324Y019930D01*
X008164Y019770D01*
X008164Y019190D01*
X007884Y018910D01*
X007884Y017730D01*
X008243Y017371D01*
X008716Y017371D01*
X008716Y017175D02*
X008239Y017175D01*
X007744Y017670D01*
X007744Y018890D01*
X007604Y019030D01*
X008024Y018850D02*
X008024Y017790D01*
X008246Y017568D01*
X008716Y017568D01*
X008716Y016978D02*
X008236Y016978D01*
X007604Y017610D01*
X008444Y018370D02*
X008464Y018370D01*
X008764Y018670D01*
X009024Y018670D01*
X009204Y018850D01*
X009824Y018850D01*
X009904Y018770D01*
X009904Y018350D01*
X009798Y018244D01*
X009798Y017864D01*
X009601Y017864D02*
X009601Y018247D01*
X009764Y018410D01*
X009764Y018690D01*
X009744Y018710D01*
X009304Y018710D01*
X008964Y018370D01*
X008904Y018370D01*
X008944Y018830D02*
X008444Y018830D01*
X008444Y019190D02*
X008364Y019190D01*
X008024Y018850D01*
X008444Y019190D02*
X008684Y019430D01*
X008744Y019430D01*
X009364Y020050D01*
X009364Y020430D01*
X009384Y020450D01*
X014084Y020450D01*
X014584Y020950D01*
X014584Y021610D01*
X014604Y021630D01*
X015084Y021630D01*
X015224Y021770D01*
X017524Y021770D01*
X017684Y021610D01*
X017684Y021210D01*
X018004Y020890D01*
X019844Y020890D01*
X020144Y021190D01*
X020144Y022490D01*
X020154Y022500D01*
X019424Y022230D02*
X019424Y021490D01*
X018979Y021490D01*
X019424Y021490D02*
X019424Y021230D01*
X019264Y021070D01*
X018064Y021070D01*
X017844Y021290D01*
X017844Y021690D01*
X017604Y021930D01*
X015164Y021930D01*
X015004Y021770D01*
X014524Y021770D01*
X014444Y021690D01*
X014444Y021030D01*
X014004Y020590D01*
X009304Y020590D01*
X009224Y020510D01*
X009224Y020110D01*
X008744Y019630D01*
X008464Y019630D01*
X008824Y019130D02*
X009964Y019130D01*
X010192Y018902D01*
X010192Y017864D01*
X009995Y017864D02*
X009995Y018181D01*
X010044Y018230D01*
X010044Y018850D01*
X009904Y018990D01*
X009104Y018990D01*
X008944Y018830D01*
X009784Y019790D02*
X010044Y019529D01*
X010044Y019250D01*
X010344Y018950D01*
X010344Y018790D01*
X010404Y018730D01*
X010664Y018730D01*
X010804Y018590D01*
X010804Y018290D01*
X010664Y018150D01*
X010624Y018150D01*
X010584Y018110D01*
X010584Y017865D01*
X010586Y017864D01*
X010783Y017864D02*
X010783Y018068D01*
X010864Y018150D01*
X011024Y018150D01*
X011044Y018170D01*
X011044Y019130D01*
X011084Y019170D01*
X011084Y019629D01*
X010944Y019769D01*
X010965Y019790D01*
X010374Y019790D02*
X010374Y019190D01*
X010644Y019040D01*
X011184Y018710D02*
X011284Y018810D01*
X011344Y018810D01*
X011464Y018930D01*
X011464Y019450D01*
X011764Y019290D02*
X011604Y019130D01*
X011604Y018870D01*
X011324Y018590D01*
X011324Y018150D01*
X011373Y018101D01*
X011373Y017864D01*
X011176Y017864D02*
X011176Y018122D01*
X011184Y018130D01*
X011184Y018710D01*
X011744Y018750D02*
X011744Y019070D01*
X011904Y019230D01*
X011904Y019330D01*
X012064Y019490D01*
X011764Y019290D02*
X011764Y019790D01*
X011744Y019810D01*
X011744Y018750D02*
X011964Y018530D01*
X011964Y017864D01*
X011978Y017850D01*
X013695Y017850D01*
X013746Y017901D01*
X013746Y017231D02*
X013746Y016752D01*
X013744Y016750D01*
X012884Y016010D02*
X012884Y015970D01*
X012884Y016010D02*
X012784Y016110D01*
X012664Y016110D01*
X012584Y016190D01*
X012259Y016190D01*
X012259Y015206D02*
X012688Y015206D01*
X012744Y015150D01*
X012927Y014812D02*
X013104Y014990D01*
X013104Y015330D01*
X013304Y015530D01*
X012927Y014812D02*
X012259Y014812D01*
X012259Y014616D02*
X013218Y014616D01*
X013344Y014490D01*
X013304Y012950D02*
X013304Y012530D01*
X012854Y012080D01*
X011984Y011810D02*
X011664Y011490D01*
X011624Y011490D01*
X010973Y010638D02*
X010729Y010394D01*
X010729Y009802D01*
X010729Y008215D01*
X010464Y007950D01*
X010304Y008210D02*
X010124Y008210D01*
X010004Y008090D01*
X010004Y007830D01*
X010304Y008210D02*
X010484Y008390D01*
X010484Y008650D01*
X010414Y008720D01*
X010414Y009802D01*
X010414Y010527D01*
X010303Y010638D01*
X011044Y009802D02*
X011044Y008990D01*
X011144Y008890D01*
X011144Y008210D02*
X011144Y008130D01*
X011404Y007870D01*
X011404Y007730D01*
X011904Y007230D01*
X011904Y005750D01*
X011674Y005520D01*
X011674Y004999D01*
X011989Y004999D02*
X011989Y005555D01*
X012044Y005610D01*
X012044Y007310D01*
X011584Y007770D01*
X011584Y008110D01*
X010544Y007110D02*
X010484Y007170D01*
X010544Y007110D02*
X010544Y006510D01*
X010414Y006380D01*
X010414Y004999D01*
X010414Y004510D01*
X010334Y004430D01*
X010274Y004430D01*
X010214Y004370D01*
X010214Y003230D01*
X010934Y002510D01*
X011769Y002510D01*
X011799Y002540D01*
X011364Y002110D02*
X011534Y001940D01*
X011534Y001400D01*
X011364Y002110D02*
X010724Y002110D01*
X009924Y002910D01*
X009924Y004330D01*
X010099Y004505D01*
X010099Y004999D01*
X009784Y004999D02*
X009784Y004410D01*
X009764Y004390D01*
X009764Y002870D01*
X010544Y002090D01*
X010544Y001410D01*
X010534Y001400D01*
X011044Y003010D02*
X010544Y003510D01*
X010544Y004075D01*
X010535Y004084D01*
X011044Y003010D02*
X012464Y003010D01*
X012464Y002545D01*
X012469Y002540D01*
X012464Y003010D02*
X013064Y003010D01*
X013534Y002540D01*
X013534Y001400D01*
X014284Y000790D02*
X014544Y001050D01*
X014544Y001390D01*
X014534Y001400D01*
X014284Y000790D02*
X007184Y000790D01*
X006784Y001190D01*
X006784Y002250D01*
X007384Y002850D01*
X007384Y005050D01*
X007564Y005710D02*
X005594Y005710D01*
X005534Y005650D01*
X005984Y005510D02*
X006044Y005570D01*
X009084Y005570D01*
X009154Y005500D01*
X009154Y004999D01*
X009469Y004999D02*
X009469Y005795D01*
X010244Y006570D01*
X010244Y006750D01*
X009964Y007110D02*
X009964Y007130D01*
X009764Y006930D01*
X009484Y006930D01*
X009304Y007110D01*
X008352Y007110D01*
X008328Y007086D01*
X008328Y007070D01*
X008352Y007110D02*
X008084Y007110D01*
X007924Y006950D01*
X007864Y006950D01*
X007844Y006930D01*
X007664Y006930D01*
X007624Y006890D01*
X007624Y006290D01*
X007384Y006050D01*
X007680Y005826D02*
X007564Y005710D01*
X007680Y005826D02*
X008328Y005826D01*
X008328Y006141D02*
X009213Y006141D01*
X009224Y006130D01*
X009470Y006456D02*
X009504Y006490D01*
X009470Y006456D02*
X008328Y006456D01*
X008328Y006771D02*
X009145Y006771D01*
X009184Y006810D01*
X009544Y007310D02*
X009544Y007910D01*
X009424Y008030D01*
X008328Y008030D01*
X008328Y008345D02*
X007720Y008345D01*
X007444Y008070D01*
X007064Y008070D01*
X006644Y007650D01*
X005534Y007650D01*
X005534Y006650D02*
X005144Y006650D01*
X005044Y006550D01*
X005044Y005390D01*
X005264Y005170D01*
X005704Y005170D01*
X005984Y005450D01*
X005984Y005510D01*
X009154Y009100D02*
X009724Y008530D01*
X010144Y008530D01*
X009824Y008850D02*
X009469Y009205D01*
X009469Y009802D01*
X009154Y009802D02*
X009154Y009100D01*
X009964Y007150D02*
X009964Y007130D01*
X013131Y007401D02*
X013161Y007370D01*
X013664Y007370D01*
X013764Y007270D01*
X013161Y007370D02*
X014386Y007370D01*
X014701Y007685D01*
X015139Y007685D01*
X015194Y007630D01*
X010384Y012910D02*
X010389Y012915D01*
X010389Y014320D01*
X010586Y014320D02*
X010586Y014628D01*
X010424Y014790D01*
X009798Y014320D02*
X009798Y013744D01*
X009744Y013690D01*
X009208Y014094D02*
X009164Y014050D01*
X008644Y014050D01*
X008564Y013970D01*
X008564Y013650D01*
X008444Y013530D01*
X008104Y013630D02*
X008424Y013950D01*
X008424Y014190D01*
X008554Y014320D01*
X009011Y014320D01*
X009208Y014320D02*
X009208Y014094D01*
X008716Y014616D02*
X008510Y014616D01*
X008404Y014510D01*
X008404Y014390D01*
X008184Y014170D01*
X007984Y014170D01*
X007784Y013970D01*
X007784Y013090D01*
X008084Y012790D01*
X008104Y013230D02*
X008104Y013630D01*
X007364Y012670D02*
X006554Y012670D01*
X005534Y011650D01*
X005534Y016650D02*
X005784Y016650D01*
X010389Y017864D02*
X010389Y018305D01*
X010504Y018420D01*
X011324Y017490D02*
X011324Y017410D01*
X011964Y017864D02*
X011964Y017864D01*
X011164Y021830D02*
X011164Y022410D01*
X010919Y022655D01*
X010919Y023174D01*
X010604Y023174D02*
X010604Y022730D01*
X010824Y022510D01*
X010824Y022130D01*
X010464Y022410D02*
X010289Y022585D01*
X010289Y023174D01*
X007188Y023997D02*
X007011Y023997D01*
X006944Y023930D01*
X006964Y024410D02*
X006944Y024430D01*
X006964Y024410D02*
X007164Y024410D01*
X014444Y021910D02*
X014924Y021910D01*
X015154Y022140D01*
X015154Y022500D01*
X017154Y022500D02*
X017424Y022230D01*
X017644Y022230D01*
X018309Y021565D01*
X018309Y021490D01*
X019154Y022500D02*
X019424Y022230D01*
D38*
X018204Y019830D02*
X018034Y019659D01*
X017719Y019659D01*
X012524Y019590D02*
X012524Y019250D01*
X012404Y019130D01*
X012404Y018150D01*
X011767Y018207D02*
X011767Y017864D01*
X011570Y017864D02*
X011564Y017858D01*
X011564Y017650D01*
X011404Y017490D01*
X011324Y017410D01*
X011324Y017490D02*
X011404Y017490D01*
X011764Y017490D01*
X011884Y017370D01*
X011884Y016350D01*
X011921Y016387D01*
X011941Y016387D01*
X011884Y016330D01*
X011884Y014990D01*
X011903Y015009D01*
X012259Y015009D01*
X011884Y014990D02*
X011884Y014750D01*
X011824Y014690D01*
X010804Y014690D01*
X010783Y014668D01*
X010783Y014320D01*
X010783Y013866D01*
X010904Y013825D01*
X010586Y013372D02*
X010584Y013370D01*
X010584Y013330D01*
X010759Y013155D01*
X010904Y013155D01*
X010586Y013372D02*
X010586Y014320D01*
X009084Y014810D02*
X009084Y015730D01*
X009084Y017390D01*
X009184Y017490D01*
X011004Y017490D01*
X010979Y017515D01*
X010979Y017864D01*
X011004Y017490D02*
X011324Y017490D01*
X011767Y018207D02*
X011664Y018310D01*
X012524Y019590D02*
X012184Y019930D01*
X010124Y021190D02*
X010064Y021130D01*
X008784Y021130D01*
X008764Y021150D01*
X008764Y021535D01*
X008784Y021130D02*
X007324Y021130D01*
X007043Y021411D01*
X007043Y021678D01*
X008764Y022205D02*
X009479Y022205D01*
X009704Y022430D01*
X009974Y022700D01*
X009974Y023174D01*
X005311Y018169D02*
X005064Y017922D01*
X005064Y009290D01*
X005184Y009170D01*
X005824Y009170D01*
X006084Y008910D01*
X007344Y008910D01*
X007735Y007715D02*
X008328Y007715D01*
X008328Y007401D02*
X007782Y007401D01*
X007615Y007253D01*
X008328Y007401D02*
X009095Y007401D01*
X009104Y007410D01*
X010004Y007830D02*
X010224Y007610D01*
X011084Y007610D01*
X011564Y007130D01*
X011564Y005990D01*
X011404Y005830D01*
X011004Y005830D01*
X010729Y005555D01*
X010729Y004999D01*
X010729Y004278D01*
X010535Y004084D01*
X011044Y004244D02*
X011044Y004999D01*
X011044Y004244D02*
X011204Y004084D01*
X011698Y004084D01*
X011704Y004090D01*
X014277Y002417D02*
X014544Y002150D01*
X014544Y001050D01*
X007124Y015474D02*
X007382Y015733D01*
X007884Y015733D01*
X007883Y015732D01*
X007884Y015733D02*
X007884Y016050D01*
X008025Y016190D01*
X008716Y016190D01*
X008716Y015994D02*
X009001Y015994D01*
X009084Y015910D01*
X009084Y015730D01*
X011941Y016387D02*
X012259Y016387D01*
D39*
X017164Y020870D02*
X018204Y019830D01*
X018311Y019723D01*
X018311Y018169D01*
X019824Y016530D02*
X019824Y004650D01*
X018904Y003730D01*
X015264Y003730D01*
X005534Y002650D02*
X004534Y002650D01*
X003534Y002650D01*
X002744Y002650D01*
X001724Y003670D01*
X001724Y017090D01*
X001944Y017310D01*
X003284Y017310D01*
X003737Y017763D01*
X003737Y018169D01*
X003744Y018177D01*
X003744Y021621D01*
X004037Y021914D01*
X005204Y023710D02*
X005204Y018810D01*
X005311Y018703D01*
X005311Y018169D01*
X013344Y024430D02*
X016264Y024430D01*
X017164Y023530D01*
X017164Y022510D01*
D40*
X016130Y020150D02*
X015544Y020150D01*
X015544Y019150D01*
X016904Y019150D01*
X016904Y019162D01*
X016523Y019162D01*
X016523Y019654D01*
X016513Y019654D01*
X016513Y019162D01*
X016132Y019162D01*
X016130Y019165D01*
X016130Y019654D01*
X016513Y019654D01*
X016513Y019664D01*
X016130Y019664D01*
X016130Y020150D01*
X016130Y020144D02*
X015544Y020144D01*
X015544Y020135D02*
X016130Y020135D01*
X016130Y020126D02*
X015544Y020126D01*
X015544Y020118D02*
X016130Y020118D01*
X016130Y020109D02*
X015544Y020109D01*
X015544Y020101D02*
X016130Y020101D01*
X016130Y020092D02*
X015544Y020092D01*
X015544Y020084D02*
X016130Y020084D01*
X016130Y020075D02*
X015544Y020075D01*
X015544Y020067D02*
X016130Y020067D01*
X016130Y020058D02*
X015544Y020058D01*
X015544Y020050D02*
X016130Y020050D01*
X016130Y020041D02*
X015544Y020041D01*
X015544Y020033D02*
X016130Y020033D01*
X016130Y020024D02*
X015544Y020024D01*
X015544Y020015D02*
X016130Y020015D01*
X016130Y020007D02*
X015544Y020007D01*
X015544Y019998D02*
X016130Y019998D01*
X016130Y019990D02*
X015544Y019990D01*
X015544Y019981D02*
X016130Y019981D01*
X016130Y019973D02*
X015544Y019973D01*
X015544Y019964D02*
X016130Y019964D01*
X016130Y019956D02*
X015544Y019956D01*
X015544Y019947D02*
X016130Y019947D01*
X016130Y019939D02*
X015544Y019939D01*
X015544Y019930D02*
X016130Y019930D01*
X016130Y019921D02*
X015544Y019921D01*
X015544Y019913D02*
X016130Y019913D01*
X016130Y019904D02*
X015544Y019904D01*
X015544Y019896D02*
X016130Y019896D01*
X016130Y019887D02*
X015544Y019887D01*
X015544Y019879D02*
X016130Y019879D01*
X016130Y019870D02*
X015544Y019870D01*
X015544Y019862D02*
X016130Y019862D01*
X016130Y019853D02*
X015544Y019853D01*
X015544Y019845D02*
X016130Y019845D01*
X016130Y019836D02*
X015544Y019836D01*
X015544Y019827D02*
X016130Y019827D01*
X016130Y019819D02*
X015544Y019819D01*
X015544Y019810D02*
X016130Y019810D01*
X016130Y019802D02*
X015544Y019802D01*
X015544Y019793D02*
X016130Y019793D01*
X016130Y019785D02*
X015544Y019785D01*
X015544Y019776D02*
X016130Y019776D01*
X016130Y019768D02*
X015544Y019768D01*
X015544Y019759D02*
X016130Y019759D01*
X016130Y019751D02*
X015544Y019751D01*
X015544Y019742D02*
X016130Y019742D01*
X016130Y019734D02*
X015544Y019734D01*
X015544Y019725D02*
X016130Y019725D01*
X016130Y019716D02*
X015544Y019716D01*
X015544Y019708D02*
X016130Y019708D01*
X016130Y019699D02*
X015544Y019699D01*
X015544Y019691D02*
X016130Y019691D01*
X016130Y019682D02*
X015544Y019682D01*
X015544Y019674D02*
X016130Y019674D01*
X016130Y019665D02*
X015544Y019665D01*
X015544Y019657D02*
X016513Y019657D01*
X016513Y019648D02*
X016523Y019648D01*
X016523Y019640D02*
X016513Y019640D01*
X016513Y019631D02*
X016523Y019631D01*
X016523Y019622D02*
X016513Y019622D01*
X016513Y019614D02*
X016523Y019614D01*
X016523Y019605D02*
X016513Y019605D01*
X016513Y019597D02*
X016523Y019597D01*
X016523Y019588D02*
X016513Y019588D01*
X016513Y019580D02*
X016523Y019580D01*
X016523Y019571D02*
X016513Y019571D01*
X016513Y019563D02*
X016523Y019563D01*
X016523Y019554D02*
X016513Y019554D01*
X016513Y019546D02*
X016523Y019546D01*
X016523Y019537D02*
X016513Y019537D01*
X016513Y019528D02*
X016523Y019528D01*
X016523Y019520D02*
X016513Y019520D01*
X016513Y019511D02*
X016523Y019511D01*
X016523Y019503D02*
X016513Y019503D01*
X016513Y019494D02*
X016523Y019494D01*
X016523Y019486D02*
X016513Y019486D01*
X016513Y019477D02*
X016523Y019477D01*
X016523Y019469D02*
X016513Y019469D01*
X016513Y019460D02*
X016523Y019460D01*
X016523Y019452D02*
X016513Y019452D01*
X016513Y019443D02*
X016523Y019443D01*
X016523Y019434D02*
X016513Y019434D01*
X016513Y019426D02*
X016523Y019426D01*
X016523Y019417D02*
X016513Y019417D01*
X016513Y019409D02*
X016523Y019409D01*
X016523Y019400D02*
X016513Y019400D01*
X016513Y019392D02*
X016523Y019392D01*
X016523Y019383D02*
X016513Y019383D01*
X016513Y019375D02*
X016523Y019375D01*
X016523Y019366D02*
X016513Y019366D01*
X016513Y019358D02*
X016523Y019358D01*
X016523Y019349D02*
X016513Y019349D01*
X016513Y019341D02*
X016523Y019341D01*
X016523Y019332D02*
X016513Y019332D01*
X016513Y019323D02*
X016523Y019323D01*
X016523Y019315D02*
X016513Y019315D01*
X016513Y019306D02*
X016523Y019306D01*
X016523Y019298D02*
X016513Y019298D01*
X016513Y019289D02*
X016523Y019289D01*
X016523Y019281D02*
X016513Y019281D01*
X016513Y019272D02*
X016523Y019272D01*
X016523Y019264D02*
X016513Y019264D01*
X016513Y019255D02*
X016523Y019255D01*
X016523Y019247D02*
X016513Y019247D01*
X016513Y019238D02*
X016523Y019238D01*
X016523Y019229D02*
X016513Y019229D01*
X016513Y019221D02*
X016523Y019221D01*
X016523Y019212D02*
X016513Y019212D01*
X016513Y019204D02*
X016523Y019204D01*
X016523Y019195D02*
X016513Y019195D01*
X016513Y019187D02*
X016523Y019187D01*
X016523Y019178D02*
X016513Y019178D01*
X016513Y019170D02*
X016523Y019170D01*
X016904Y019161D02*
X015544Y019161D01*
X015544Y019153D02*
X016904Y019153D01*
X016130Y019170D02*
X015544Y019170D01*
X015544Y019178D02*
X016130Y019178D01*
X016130Y019187D02*
X015544Y019187D01*
X015544Y019195D02*
X016130Y019195D01*
X016130Y019204D02*
X015544Y019204D01*
X015544Y019212D02*
X016130Y019212D01*
X016130Y019221D02*
X015544Y019221D01*
X015544Y019229D02*
X016130Y019229D01*
X016130Y019238D02*
X015544Y019238D01*
X015544Y019247D02*
X016130Y019247D01*
X016130Y019255D02*
X015544Y019255D01*
X015544Y019264D02*
X016130Y019264D01*
X016130Y019272D02*
X015544Y019272D01*
X015544Y019281D02*
X016130Y019281D01*
X016130Y019289D02*
X015544Y019289D01*
X015544Y019298D02*
X016130Y019298D01*
X016130Y019306D02*
X015544Y019306D01*
X015544Y019315D02*
X016130Y019315D01*
X016130Y019323D02*
X015544Y019323D01*
X015544Y019332D02*
X016130Y019332D01*
X016130Y019341D02*
X015544Y019341D01*
X015544Y019349D02*
X016130Y019349D01*
X016130Y019358D02*
X015544Y019358D01*
X015544Y019366D02*
X016130Y019366D01*
X016130Y019375D02*
X015544Y019375D01*
X015544Y019383D02*
X016130Y019383D01*
X016130Y019392D02*
X015544Y019392D01*
X015544Y019400D02*
X016130Y019400D01*
X016130Y019409D02*
X015544Y019409D01*
X015544Y019417D02*
X016130Y019417D01*
X016130Y019426D02*
X015544Y019426D01*
X015544Y019434D02*
X016130Y019434D01*
X016130Y019443D02*
X015544Y019443D01*
X015544Y019452D02*
X016130Y019452D01*
X016130Y019460D02*
X015544Y019460D01*
X015544Y019469D02*
X016130Y019469D01*
X016130Y019477D02*
X015544Y019477D01*
X015544Y019486D02*
X016130Y019486D01*
X016130Y019494D02*
X015544Y019494D01*
X015544Y019503D02*
X016130Y019503D01*
X016130Y019511D02*
X015544Y019511D01*
X015544Y019520D02*
X016130Y019520D01*
X016130Y019528D02*
X015544Y019528D01*
X015544Y019537D02*
X016130Y019537D01*
X016130Y019546D02*
X015544Y019546D01*
X015544Y019554D02*
X016130Y019554D01*
X016130Y019563D02*
X015544Y019563D01*
X015544Y019571D02*
X016130Y019571D01*
X016130Y019580D02*
X015544Y019580D01*
X015544Y019588D02*
X016130Y019588D01*
X016130Y019597D02*
X015544Y019597D01*
X015544Y019605D02*
X016130Y019605D01*
X016130Y019614D02*
X015544Y019614D01*
X015544Y019622D02*
X016130Y019622D01*
X016130Y019631D02*
X015544Y019631D01*
X015544Y019640D02*
X016130Y019640D01*
X016130Y019648D02*
X015544Y019648D01*
X008244Y015130D02*
X008244Y014378D01*
X008141Y014275D01*
X008028Y014275D01*
X007941Y014275D01*
X007741Y014075D01*
X007679Y014013D01*
X007679Y013990D01*
X006904Y013990D01*
X006904Y015130D01*
X008244Y015130D01*
X008244Y015129D02*
X006904Y015129D01*
X006904Y015120D02*
X008244Y015120D01*
X008240Y015117D02*
X007888Y015117D01*
X007888Y014812D01*
X007878Y014812D01*
X007878Y014802D01*
X007524Y014802D01*
X007524Y014500D01*
X007527Y014497D01*
X007878Y014497D01*
X007878Y014802D01*
X007888Y014802D01*
X007888Y014497D01*
X008240Y014497D01*
X008243Y014500D01*
X008243Y014802D01*
X007888Y014802D01*
X007888Y014812D01*
X008243Y014812D01*
X008243Y015114D01*
X008240Y015117D01*
X008243Y015112D02*
X008244Y015112D01*
X008243Y015103D02*
X008244Y015103D01*
X008243Y015094D02*
X008244Y015094D01*
X008243Y015086D02*
X008244Y015086D01*
X008243Y015077D02*
X008244Y015077D01*
X008243Y015069D02*
X008244Y015069D01*
X008243Y015060D02*
X008244Y015060D01*
X008243Y015052D02*
X008244Y015052D01*
X008243Y015043D02*
X008244Y015043D01*
X008243Y015035D02*
X008244Y015035D01*
X008243Y015026D02*
X008244Y015026D01*
X008243Y015018D02*
X008244Y015018D01*
X008243Y015009D02*
X008244Y015009D01*
X008243Y015001D02*
X008244Y015001D01*
X008243Y014992D02*
X008244Y014992D01*
X008243Y014983D02*
X008244Y014983D01*
X008243Y014975D02*
X008244Y014975D01*
X008243Y014966D02*
X008244Y014966D01*
X008243Y014958D02*
X008244Y014958D01*
X008243Y014949D02*
X008244Y014949D01*
X008243Y014941D02*
X008244Y014941D01*
X008243Y014932D02*
X008244Y014932D01*
X008243Y014924D02*
X008244Y014924D01*
X008243Y014915D02*
X008244Y014915D01*
X008243Y014907D02*
X008244Y014907D01*
X008243Y014898D02*
X008244Y014898D01*
X008243Y014889D02*
X008244Y014889D01*
X008243Y014881D02*
X008244Y014881D01*
X008243Y014872D02*
X008244Y014872D01*
X008243Y014864D02*
X008244Y014864D01*
X008243Y014855D02*
X008244Y014855D01*
X008243Y014847D02*
X008244Y014847D01*
X008243Y014838D02*
X008244Y014838D01*
X008243Y014830D02*
X008244Y014830D01*
X008243Y014821D02*
X008244Y014821D01*
X008243Y014813D02*
X008244Y014813D01*
X008244Y014804D02*
X007888Y014804D01*
X007888Y014813D02*
X007878Y014813D01*
X007878Y014812D02*
X007878Y015117D01*
X007527Y015117D01*
X007524Y015114D01*
X007524Y014812D01*
X007878Y014812D01*
X007878Y014804D02*
X007129Y014804D01*
X007129Y014800D02*
X007129Y014810D01*
X007325Y014810D01*
X007325Y015024D01*
X007323Y015026D01*
X007524Y015026D01*
X007524Y015018D02*
X007325Y015018D01*
X007323Y015026D02*
X007129Y015026D01*
X007119Y015026D01*
X006925Y015026D01*
X006922Y015024D01*
X006922Y014810D01*
X007118Y014810D01*
X007118Y014800D01*
X006922Y014800D01*
X006922Y014586D01*
X006925Y014583D01*
X007119Y014583D01*
X007119Y014800D01*
X007129Y014800D01*
X007325Y014800D01*
X007325Y014586D01*
X007323Y014583D01*
X007129Y014583D01*
X007129Y014800D01*
X007129Y014795D02*
X007119Y014795D01*
X007119Y014787D02*
X007129Y014787D01*
X007129Y014778D02*
X007119Y014778D01*
X007119Y014770D02*
X007129Y014770D01*
X007129Y014761D02*
X007119Y014761D01*
X007119Y014753D02*
X007129Y014753D01*
X007129Y014744D02*
X007119Y014744D01*
X007119Y014736D02*
X007129Y014736D01*
X007129Y014727D02*
X007119Y014727D01*
X007119Y014719D02*
X007129Y014719D01*
X007129Y014710D02*
X007119Y014710D01*
X007119Y014701D02*
X007129Y014701D01*
X007129Y014693D02*
X007119Y014693D01*
X007119Y014684D02*
X007129Y014684D01*
X007129Y014676D02*
X007119Y014676D01*
X007119Y014667D02*
X007129Y014667D01*
X007129Y014659D02*
X007119Y014659D01*
X007119Y014650D02*
X007129Y014650D01*
X007129Y014642D02*
X007119Y014642D01*
X007119Y014633D02*
X007129Y014633D01*
X007129Y014625D02*
X007119Y014625D01*
X007119Y014616D02*
X007129Y014616D01*
X007129Y014608D02*
X007119Y014608D01*
X007119Y014599D02*
X007129Y014599D01*
X007129Y014590D02*
X007119Y014590D01*
X006922Y014590D02*
X006904Y014590D01*
X006904Y014582D02*
X007524Y014582D01*
X007524Y014590D02*
X007325Y014590D01*
X007325Y014599D02*
X007524Y014599D01*
X007524Y014608D02*
X007325Y014608D01*
X007325Y014616D02*
X007524Y014616D01*
X007524Y014625D02*
X007325Y014625D01*
X007325Y014633D02*
X007524Y014633D01*
X007524Y014642D02*
X007325Y014642D01*
X007325Y014650D02*
X007524Y014650D01*
X007524Y014659D02*
X007325Y014659D01*
X007325Y014667D02*
X007524Y014667D01*
X007524Y014676D02*
X007325Y014676D01*
X007325Y014684D02*
X007524Y014684D01*
X007524Y014693D02*
X007325Y014693D01*
X007325Y014701D02*
X007524Y014701D01*
X007524Y014710D02*
X007325Y014710D01*
X007325Y014719D02*
X007524Y014719D01*
X007524Y014727D02*
X007325Y014727D01*
X007325Y014736D02*
X007524Y014736D01*
X007524Y014744D02*
X007325Y014744D01*
X007325Y014753D02*
X007524Y014753D01*
X007524Y014761D02*
X007325Y014761D01*
X007325Y014770D02*
X007524Y014770D01*
X007524Y014778D02*
X007325Y014778D01*
X007325Y014787D02*
X007524Y014787D01*
X007524Y014795D02*
X007325Y014795D01*
X007325Y014813D02*
X007524Y014813D01*
X007524Y014821D02*
X007325Y014821D01*
X007325Y014830D02*
X007524Y014830D01*
X007524Y014838D02*
X007325Y014838D01*
X007325Y014847D02*
X007524Y014847D01*
X007524Y014855D02*
X007325Y014855D01*
X007325Y014864D02*
X007524Y014864D01*
X007524Y014872D02*
X007325Y014872D01*
X007325Y014881D02*
X007524Y014881D01*
X007524Y014889D02*
X007325Y014889D01*
X007325Y014898D02*
X007524Y014898D01*
X007524Y014907D02*
X007325Y014907D01*
X007325Y014915D02*
X007524Y014915D01*
X007524Y014924D02*
X007325Y014924D01*
X007325Y014932D02*
X007524Y014932D01*
X007524Y014941D02*
X007325Y014941D01*
X007325Y014949D02*
X007524Y014949D01*
X007524Y014958D02*
X007325Y014958D01*
X007325Y014966D02*
X007524Y014966D01*
X007524Y014975D02*
X007325Y014975D01*
X007325Y014983D02*
X007524Y014983D01*
X007524Y014992D02*
X007325Y014992D01*
X007325Y015001D02*
X007524Y015001D01*
X007524Y015009D02*
X007325Y015009D01*
X007129Y015009D02*
X007119Y015009D01*
X007119Y015001D02*
X007129Y015001D01*
X007129Y014992D02*
X007119Y014992D01*
X007119Y014983D02*
X007129Y014983D01*
X007129Y014975D02*
X007119Y014975D01*
X007119Y014966D02*
X007129Y014966D01*
X007129Y014958D02*
X007119Y014958D01*
X007119Y014949D02*
X007129Y014949D01*
X007129Y014941D02*
X007119Y014941D01*
X007119Y014932D02*
X007129Y014932D01*
X007129Y014924D02*
X007119Y014924D01*
X007119Y014915D02*
X007129Y014915D01*
X007129Y014907D02*
X007119Y014907D01*
X007119Y014898D02*
X007129Y014898D01*
X007129Y014889D02*
X007119Y014889D01*
X007119Y014881D02*
X007129Y014881D01*
X007129Y014872D02*
X007119Y014872D01*
X007119Y014864D02*
X007129Y014864D01*
X007129Y014855D02*
X007119Y014855D01*
X007119Y014847D02*
X007129Y014847D01*
X007129Y014838D02*
X007119Y014838D01*
X007119Y014830D02*
X007129Y014830D01*
X007129Y014821D02*
X007119Y014821D01*
X007119Y014813D02*
X007129Y014813D01*
X007129Y014810D02*
X007119Y014810D01*
X007119Y015026D01*
X007119Y015018D02*
X007129Y015018D01*
X007129Y015026D02*
X007129Y014810D01*
X007118Y014804D02*
X006904Y014804D01*
X006904Y014813D02*
X006922Y014813D01*
X006922Y014821D02*
X006904Y014821D01*
X006904Y014830D02*
X006922Y014830D01*
X006922Y014838D02*
X006904Y014838D01*
X006904Y014847D02*
X006922Y014847D01*
X006922Y014855D02*
X006904Y014855D01*
X006904Y014864D02*
X006922Y014864D01*
X006922Y014872D02*
X006904Y014872D01*
X006904Y014881D02*
X006922Y014881D01*
X006922Y014889D02*
X006904Y014889D01*
X006904Y014898D02*
X006922Y014898D01*
X006922Y014907D02*
X006904Y014907D01*
X006904Y014915D02*
X006922Y014915D01*
X006922Y014924D02*
X006904Y014924D01*
X006904Y014932D02*
X006922Y014932D01*
X006922Y014941D02*
X006904Y014941D01*
X006904Y014949D02*
X006922Y014949D01*
X006922Y014958D02*
X006904Y014958D01*
X006904Y014966D02*
X006922Y014966D01*
X006922Y014975D02*
X006904Y014975D01*
X006904Y014983D02*
X006922Y014983D01*
X006922Y014992D02*
X006904Y014992D01*
X006904Y015001D02*
X006922Y015001D01*
X006922Y015009D02*
X006904Y015009D01*
X006904Y015018D02*
X006922Y015018D01*
X006924Y015026D02*
X006904Y015026D01*
X006904Y015035D02*
X007524Y015035D01*
X007524Y015043D02*
X006904Y015043D01*
X006904Y015052D02*
X007524Y015052D01*
X007524Y015060D02*
X006904Y015060D01*
X006904Y015069D02*
X007524Y015069D01*
X007524Y015077D02*
X006904Y015077D01*
X006904Y015086D02*
X007524Y015086D01*
X007524Y015094D02*
X006904Y015094D01*
X006904Y015103D02*
X007524Y015103D01*
X007524Y015112D02*
X006904Y015112D01*
X006904Y014795D02*
X006922Y014795D01*
X006922Y014787D02*
X006904Y014787D01*
X006904Y014778D02*
X006922Y014778D01*
X006922Y014770D02*
X006904Y014770D01*
X006904Y014761D02*
X006922Y014761D01*
X006922Y014753D02*
X006904Y014753D01*
X006904Y014744D02*
X006922Y014744D01*
X006922Y014736D02*
X006904Y014736D01*
X006904Y014727D02*
X006922Y014727D01*
X006922Y014719D02*
X006904Y014719D01*
X006904Y014710D02*
X006922Y014710D01*
X006922Y014701D02*
X006904Y014701D01*
X006904Y014693D02*
X006922Y014693D01*
X006922Y014684D02*
X006904Y014684D01*
X006904Y014676D02*
X006922Y014676D01*
X006922Y014667D02*
X006904Y014667D01*
X006904Y014659D02*
X006922Y014659D01*
X006922Y014650D02*
X006904Y014650D01*
X006904Y014642D02*
X006922Y014642D01*
X006922Y014633D02*
X006904Y014633D01*
X006904Y014625D02*
X006922Y014625D01*
X006922Y014616D02*
X006904Y014616D01*
X006904Y014608D02*
X006922Y014608D01*
X006922Y014599D02*
X006904Y014599D01*
X006904Y014573D02*
X007524Y014573D01*
X007524Y014565D02*
X006904Y014565D01*
X006904Y014556D02*
X007524Y014556D01*
X007524Y014548D02*
X006904Y014548D01*
X006904Y014539D02*
X007524Y014539D01*
X007524Y014531D02*
X006904Y014531D01*
X006904Y014522D02*
X007524Y014522D01*
X007524Y014514D02*
X006904Y014514D01*
X006904Y014505D02*
X007524Y014505D01*
X007878Y014505D02*
X007888Y014505D01*
X007888Y014514D02*
X007878Y014514D01*
X007878Y014522D02*
X007888Y014522D01*
X007888Y014531D02*
X007878Y014531D01*
X007878Y014539D02*
X007888Y014539D01*
X007888Y014548D02*
X007878Y014548D01*
X007878Y014556D02*
X007888Y014556D01*
X007888Y014565D02*
X007878Y014565D01*
X007878Y014573D02*
X007888Y014573D01*
X007888Y014582D02*
X007878Y014582D01*
X007878Y014590D02*
X007888Y014590D01*
X007888Y014599D02*
X007878Y014599D01*
X007878Y014608D02*
X007888Y014608D01*
X007888Y014616D02*
X007878Y014616D01*
X007878Y014625D02*
X007888Y014625D01*
X007888Y014633D02*
X007878Y014633D01*
X007878Y014642D02*
X007888Y014642D01*
X007888Y014650D02*
X007878Y014650D01*
X007878Y014659D02*
X007888Y014659D01*
X007888Y014667D02*
X007878Y014667D01*
X007878Y014676D02*
X007888Y014676D01*
X007888Y014684D02*
X007878Y014684D01*
X007878Y014693D02*
X007888Y014693D01*
X007888Y014701D02*
X007878Y014701D01*
X007878Y014710D02*
X007888Y014710D01*
X007888Y014719D02*
X007878Y014719D01*
X007878Y014727D02*
X007888Y014727D01*
X007888Y014736D02*
X007878Y014736D01*
X007878Y014744D02*
X007888Y014744D01*
X007888Y014753D02*
X007878Y014753D01*
X007878Y014761D02*
X007888Y014761D01*
X007888Y014770D02*
X007878Y014770D01*
X007878Y014778D02*
X007888Y014778D01*
X007888Y014787D02*
X007878Y014787D01*
X007878Y014795D02*
X007888Y014795D01*
X007888Y014821D02*
X007878Y014821D01*
X007878Y014830D02*
X007888Y014830D01*
X007888Y014838D02*
X007878Y014838D01*
X007878Y014847D02*
X007888Y014847D01*
X007888Y014855D02*
X007878Y014855D01*
X007878Y014864D02*
X007888Y014864D01*
X007888Y014872D02*
X007878Y014872D01*
X007878Y014881D02*
X007888Y014881D01*
X007888Y014889D02*
X007878Y014889D01*
X007878Y014898D02*
X007888Y014898D01*
X007888Y014907D02*
X007878Y014907D01*
X007878Y014915D02*
X007888Y014915D01*
X007888Y014924D02*
X007878Y014924D01*
X007878Y014932D02*
X007888Y014932D01*
X007888Y014941D02*
X007878Y014941D01*
X007878Y014949D02*
X007888Y014949D01*
X007888Y014958D02*
X007878Y014958D01*
X007878Y014966D02*
X007888Y014966D01*
X007888Y014975D02*
X007878Y014975D01*
X007878Y014983D02*
X007888Y014983D01*
X007888Y014992D02*
X007878Y014992D01*
X007878Y015001D02*
X007888Y015001D01*
X007888Y015009D02*
X007878Y015009D01*
X007878Y015018D02*
X007888Y015018D01*
X007888Y015026D02*
X007878Y015026D01*
X007878Y015035D02*
X007888Y015035D01*
X007888Y015043D02*
X007878Y015043D01*
X007878Y015052D02*
X007888Y015052D01*
X007888Y015060D02*
X007878Y015060D01*
X007878Y015069D02*
X007888Y015069D01*
X007888Y015077D02*
X007878Y015077D01*
X007878Y015086D02*
X007888Y015086D01*
X007888Y015094D02*
X007878Y015094D01*
X007878Y015103D02*
X007888Y015103D01*
X007888Y015112D02*
X007878Y015112D01*
X008243Y014795D02*
X008244Y014795D01*
X008243Y014787D02*
X008244Y014787D01*
X008243Y014778D02*
X008244Y014778D01*
X008243Y014770D02*
X008244Y014770D01*
X008243Y014761D02*
X008244Y014761D01*
X008243Y014753D02*
X008244Y014753D01*
X008243Y014744D02*
X008244Y014744D01*
X008243Y014736D02*
X008244Y014736D01*
X008243Y014727D02*
X008244Y014727D01*
X008243Y014719D02*
X008244Y014719D01*
X008243Y014710D02*
X008244Y014710D01*
X008243Y014701D02*
X008244Y014701D01*
X008243Y014693D02*
X008244Y014693D01*
X008243Y014684D02*
X008244Y014684D01*
X008243Y014676D02*
X008244Y014676D01*
X008243Y014667D02*
X008244Y014667D01*
X008243Y014659D02*
X008244Y014659D01*
X008243Y014650D02*
X008244Y014650D01*
X008243Y014642D02*
X008244Y014642D01*
X008243Y014633D02*
X008244Y014633D01*
X008243Y014625D02*
X008244Y014625D01*
X008243Y014616D02*
X008244Y014616D01*
X008243Y014608D02*
X008244Y014608D01*
X008243Y014599D02*
X008244Y014599D01*
X008243Y014590D02*
X008244Y014590D01*
X008243Y014582D02*
X008244Y014582D01*
X008243Y014573D02*
X008244Y014573D01*
X008243Y014565D02*
X008244Y014565D01*
X008243Y014556D02*
X008244Y014556D01*
X008243Y014548D02*
X008244Y014548D01*
X008243Y014539D02*
X008244Y014539D01*
X008243Y014531D02*
X008244Y014531D01*
X008243Y014522D02*
X008244Y014522D01*
X008243Y014514D02*
X008244Y014514D01*
X008243Y014505D02*
X008244Y014505D01*
X008244Y014496D02*
X006904Y014496D01*
X006904Y014488D02*
X008244Y014488D01*
X008244Y014479D02*
X006904Y014479D01*
X006904Y014471D02*
X008244Y014471D01*
X008244Y014462D02*
X006904Y014462D01*
X006904Y014454D02*
X008244Y014454D01*
X008244Y014445D02*
X006904Y014445D01*
X006904Y014437D02*
X008244Y014437D01*
X008244Y014428D02*
X006904Y014428D01*
X006904Y014420D02*
X008244Y014420D01*
X008244Y014411D02*
X006904Y014411D01*
X006904Y014402D02*
X008244Y014402D01*
X008244Y014394D02*
X006904Y014394D01*
X006904Y014385D02*
X008244Y014385D01*
X008243Y014377D02*
X006904Y014377D01*
X006904Y014368D02*
X008234Y014368D01*
X008226Y014360D02*
X006904Y014360D01*
X006904Y014351D02*
X008217Y014351D01*
X008208Y014343D02*
X006904Y014343D01*
X006904Y014334D02*
X008200Y014334D01*
X008191Y014326D02*
X006904Y014326D01*
X006904Y014317D02*
X008183Y014317D01*
X008174Y014309D02*
X006904Y014309D01*
X006904Y014300D02*
X008166Y014300D01*
X008157Y014291D02*
X006904Y014291D01*
X006904Y014283D02*
X008149Y014283D01*
X007940Y014274D02*
X006904Y014274D01*
X006904Y014266D02*
X007931Y014266D01*
X007923Y014257D02*
X006904Y014257D01*
X006904Y014249D02*
X007914Y014249D01*
X007906Y014240D02*
X006904Y014240D01*
X006904Y014232D02*
X007897Y014232D01*
X007889Y014223D02*
X006904Y014223D01*
X006904Y014215D02*
X007880Y014215D01*
X007872Y014206D02*
X006904Y014206D01*
X006904Y014197D02*
X007863Y014197D01*
X007855Y014189D02*
X006904Y014189D01*
X006904Y014180D02*
X007846Y014180D01*
X007838Y014172D02*
X006904Y014172D01*
X006904Y014163D02*
X007829Y014163D01*
X007820Y014155D02*
X006904Y014155D01*
X006904Y014146D02*
X007812Y014146D01*
X007803Y014138D02*
X006904Y014138D01*
X006904Y014129D02*
X007795Y014129D01*
X007786Y014121D02*
X006904Y014121D01*
X006904Y014112D02*
X007778Y014112D01*
X007769Y014103D02*
X006904Y014103D01*
X006904Y014095D02*
X007761Y014095D01*
X007752Y014086D02*
X006904Y014086D01*
X006904Y014078D02*
X007744Y014078D01*
X007735Y014069D02*
X006904Y014069D01*
X006904Y014061D02*
X007726Y014061D01*
X007718Y014052D02*
X006904Y014052D01*
X006904Y014044D02*
X007709Y014044D01*
X007701Y014035D02*
X006904Y014035D01*
X006904Y014027D02*
X007692Y014027D01*
X007684Y014018D02*
X006904Y014018D01*
X006904Y014009D02*
X007679Y014009D01*
X007679Y014001D02*
X006904Y014001D01*
X006904Y013992D02*
X007679Y013992D01*
X007444Y007950D02*
X007124Y007950D01*
X006624Y007450D01*
X006624Y007010D01*
X007353Y007010D01*
X007333Y007030D01*
X007333Y007477D01*
X007371Y007515D01*
X007649Y007515D01*
X007764Y007630D01*
X008244Y007630D01*
X008244Y007642D01*
X007892Y007642D01*
X007889Y007644D01*
X007889Y007711D01*
X008244Y007711D01*
X008244Y007720D01*
X007889Y007720D01*
X007889Y007786D01*
X007892Y007789D01*
X008244Y007789D01*
X008244Y007810D01*
X007604Y007810D01*
X007444Y007950D01*
X007451Y007944D02*
X007118Y007944D01*
X007109Y007935D02*
X007461Y007935D01*
X007471Y007927D02*
X007101Y007927D01*
X007092Y007918D02*
X007480Y007918D01*
X007490Y007910D02*
X007084Y007910D01*
X007075Y007901D02*
X007500Y007901D01*
X007510Y007892D02*
X007067Y007892D01*
X007058Y007884D02*
X007519Y007884D01*
X007529Y007875D02*
X007050Y007875D01*
X007041Y007867D02*
X007539Y007867D01*
X007549Y007858D02*
X007032Y007858D01*
X007024Y007850D02*
X007559Y007850D01*
X007568Y007841D02*
X007015Y007841D01*
X007007Y007833D02*
X007578Y007833D01*
X007588Y007824D02*
X006998Y007824D01*
X006990Y007816D02*
X007598Y007816D01*
X007762Y007628D02*
X006802Y007628D01*
X006810Y007636D02*
X008244Y007636D01*
X008244Y007713D02*
X006887Y007713D01*
X006879Y007705D02*
X007889Y007705D01*
X007889Y007696D02*
X006870Y007696D01*
X006862Y007687D02*
X007889Y007687D01*
X007889Y007679D02*
X006853Y007679D01*
X006845Y007670D02*
X007889Y007670D01*
X007889Y007662D02*
X006836Y007662D01*
X006827Y007653D02*
X007889Y007653D01*
X007889Y007645D02*
X006819Y007645D01*
X006793Y007619D02*
X007753Y007619D01*
X007745Y007611D02*
X006785Y007611D01*
X006776Y007602D02*
X007736Y007602D01*
X007728Y007593D02*
X006768Y007593D01*
X006759Y007585D02*
X007719Y007585D01*
X007711Y007576D02*
X006751Y007576D01*
X006742Y007568D02*
X007702Y007568D01*
X007693Y007559D02*
X006733Y007559D01*
X006725Y007551D02*
X007685Y007551D01*
X007676Y007542D02*
X006716Y007542D01*
X006708Y007534D02*
X007668Y007534D01*
X007659Y007525D02*
X006699Y007525D01*
X006691Y007517D02*
X007651Y007517D01*
X007364Y007508D02*
X006682Y007508D01*
X006674Y007499D02*
X007355Y007499D01*
X007347Y007491D02*
X006665Y007491D01*
X006657Y007482D02*
X007338Y007482D01*
X007333Y007474D02*
X006648Y007474D01*
X006639Y007465D02*
X007333Y007465D01*
X007333Y007457D02*
X006631Y007457D01*
X006624Y007448D02*
X006724Y007448D01*
X006724Y007452D02*
X006724Y007258D01*
X006940Y007258D01*
X006940Y007248D01*
X006950Y007248D01*
X006950Y007052D01*
X007164Y007052D01*
X007167Y007054D01*
X007167Y007248D01*
X006950Y007248D01*
X006950Y007258D01*
X007167Y007258D01*
X007167Y007452D01*
X007164Y007455D01*
X006950Y007455D01*
X006950Y007259D01*
X006940Y007259D01*
X006940Y007455D01*
X006727Y007455D01*
X006724Y007452D01*
X006724Y007440D02*
X006624Y007440D01*
X006624Y007431D02*
X006724Y007431D01*
X006724Y007423D02*
X006624Y007423D01*
X006624Y007414D02*
X006724Y007414D01*
X006724Y007406D02*
X006624Y007406D01*
X006624Y007397D02*
X006724Y007397D01*
X006724Y007388D02*
X006624Y007388D01*
X006624Y007380D02*
X006724Y007380D01*
X006724Y007371D02*
X006624Y007371D01*
X006624Y007363D02*
X006724Y007363D01*
X006724Y007354D02*
X006624Y007354D01*
X006624Y007346D02*
X006724Y007346D01*
X006724Y007337D02*
X006624Y007337D01*
X006624Y007329D02*
X006724Y007329D01*
X006724Y007320D02*
X006624Y007320D01*
X006624Y007312D02*
X006724Y007312D01*
X006724Y007303D02*
X006624Y007303D01*
X006624Y007294D02*
X006724Y007294D01*
X006724Y007286D02*
X006624Y007286D01*
X006624Y007277D02*
X006724Y007277D01*
X006724Y007269D02*
X006624Y007269D01*
X006624Y007260D02*
X006724Y007260D01*
X006724Y007248D02*
X006724Y007054D01*
X006727Y007052D01*
X006940Y007052D01*
X006940Y007248D01*
X006724Y007248D01*
X006724Y007243D02*
X006624Y007243D01*
X006624Y007235D02*
X006724Y007235D01*
X006724Y007226D02*
X006624Y007226D01*
X006624Y007218D02*
X006724Y007218D01*
X006724Y007209D02*
X006624Y007209D01*
X006624Y007200D02*
X006724Y007200D01*
X006724Y007192D02*
X006624Y007192D01*
X006624Y007183D02*
X006724Y007183D01*
X006724Y007175D02*
X006624Y007175D01*
X006624Y007166D02*
X006724Y007166D01*
X006724Y007158D02*
X006624Y007158D01*
X006624Y007149D02*
X006724Y007149D01*
X006724Y007141D02*
X006624Y007141D01*
X006624Y007132D02*
X006724Y007132D01*
X006724Y007124D02*
X006624Y007124D01*
X006624Y007115D02*
X006724Y007115D01*
X006724Y007106D02*
X006624Y007106D01*
X006624Y007098D02*
X006724Y007098D01*
X006724Y007089D02*
X006624Y007089D01*
X006624Y007081D02*
X006724Y007081D01*
X006724Y007072D02*
X006624Y007072D01*
X006624Y007064D02*
X006724Y007064D01*
X006724Y007055D02*
X006624Y007055D01*
X006624Y007047D02*
X007333Y007047D01*
X007333Y007055D02*
X007167Y007055D01*
X007167Y007064D02*
X007333Y007064D01*
X007333Y007072D02*
X007167Y007072D01*
X007167Y007081D02*
X007333Y007081D01*
X007333Y007089D02*
X007167Y007089D01*
X007167Y007098D02*
X007333Y007098D01*
X007333Y007106D02*
X007167Y007106D01*
X007167Y007115D02*
X007333Y007115D01*
X007333Y007124D02*
X007167Y007124D01*
X007167Y007132D02*
X007333Y007132D01*
X007333Y007141D02*
X007167Y007141D01*
X007167Y007149D02*
X007333Y007149D01*
X007333Y007158D02*
X007167Y007158D01*
X007167Y007166D02*
X007333Y007166D01*
X007333Y007175D02*
X007167Y007175D01*
X007167Y007183D02*
X007333Y007183D01*
X007333Y007192D02*
X007167Y007192D01*
X007167Y007200D02*
X007333Y007200D01*
X007333Y007209D02*
X007167Y007209D01*
X007167Y007218D02*
X007333Y007218D01*
X007333Y007226D02*
X007167Y007226D01*
X007167Y007235D02*
X007333Y007235D01*
X007333Y007243D02*
X007167Y007243D01*
X007167Y007260D02*
X007333Y007260D01*
X007333Y007252D02*
X006950Y007252D01*
X006950Y007260D02*
X006940Y007260D01*
X006940Y007252D02*
X006624Y007252D01*
X006624Y007038D02*
X007333Y007038D01*
X007333Y007030D02*
X006624Y007030D01*
X006624Y007021D02*
X007342Y007021D01*
X007350Y007013D02*
X006624Y007013D01*
X006940Y007055D02*
X006950Y007055D01*
X006950Y007064D02*
X006940Y007064D01*
X006940Y007072D02*
X006950Y007072D01*
X006950Y007081D02*
X006940Y007081D01*
X006940Y007089D02*
X006950Y007089D01*
X006950Y007098D02*
X006940Y007098D01*
X006940Y007106D02*
X006950Y007106D01*
X006950Y007115D02*
X006940Y007115D01*
X006940Y007124D02*
X006950Y007124D01*
X006950Y007132D02*
X006940Y007132D01*
X006940Y007141D02*
X006950Y007141D01*
X006950Y007149D02*
X006940Y007149D01*
X006940Y007158D02*
X006950Y007158D01*
X006950Y007166D02*
X006940Y007166D01*
X006940Y007175D02*
X006950Y007175D01*
X006950Y007183D02*
X006940Y007183D01*
X006940Y007192D02*
X006950Y007192D01*
X006950Y007200D02*
X006940Y007200D01*
X006940Y007209D02*
X006950Y007209D01*
X006950Y007218D02*
X006940Y007218D01*
X006940Y007226D02*
X006950Y007226D01*
X006950Y007235D02*
X006940Y007235D01*
X006940Y007243D02*
X006950Y007243D01*
X006950Y007269D02*
X006940Y007269D01*
X006940Y007277D02*
X006950Y007277D01*
X006950Y007286D02*
X006940Y007286D01*
X006940Y007294D02*
X006950Y007294D01*
X006950Y007303D02*
X006940Y007303D01*
X006940Y007312D02*
X006950Y007312D01*
X006950Y007320D02*
X006940Y007320D01*
X006940Y007329D02*
X006950Y007329D01*
X006950Y007337D02*
X006940Y007337D01*
X006940Y007346D02*
X006950Y007346D01*
X006950Y007354D02*
X006940Y007354D01*
X006940Y007363D02*
X006950Y007363D01*
X006950Y007371D02*
X006940Y007371D01*
X006940Y007380D02*
X006950Y007380D01*
X006950Y007388D02*
X006940Y007388D01*
X006940Y007397D02*
X006950Y007397D01*
X006950Y007406D02*
X006940Y007406D01*
X006940Y007414D02*
X006950Y007414D01*
X006950Y007423D02*
X006940Y007423D01*
X006940Y007431D02*
X006950Y007431D01*
X006950Y007440D02*
X006940Y007440D01*
X006940Y007448D02*
X006950Y007448D01*
X007167Y007448D02*
X007333Y007448D01*
X007333Y007440D02*
X007167Y007440D01*
X007167Y007431D02*
X007333Y007431D01*
X007333Y007423D02*
X007167Y007423D01*
X007167Y007414D02*
X007333Y007414D01*
X007333Y007406D02*
X007167Y007406D01*
X007167Y007397D02*
X007333Y007397D01*
X007333Y007388D02*
X007167Y007388D01*
X007167Y007380D02*
X007333Y007380D01*
X007333Y007371D02*
X007167Y007371D01*
X007167Y007363D02*
X007333Y007363D01*
X007333Y007354D02*
X007167Y007354D01*
X007167Y007346D02*
X007333Y007346D01*
X007333Y007337D02*
X007167Y007337D01*
X007167Y007329D02*
X007333Y007329D01*
X007333Y007320D02*
X007167Y007320D01*
X007167Y007312D02*
X007333Y007312D01*
X007333Y007303D02*
X007167Y007303D01*
X007167Y007294D02*
X007333Y007294D01*
X007333Y007286D02*
X007167Y007286D01*
X007167Y007277D02*
X007333Y007277D01*
X007333Y007269D02*
X007167Y007269D01*
X006904Y007730D02*
X007889Y007730D01*
X007889Y007722D02*
X006896Y007722D01*
X006913Y007739D02*
X007889Y007739D01*
X007889Y007747D02*
X006921Y007747D01*
X006930Y007756D02*
X007889Y007756D01*
X007889Y007764D02*
X006939Y007764D01*
X006947Y007773D02*
X007889Y007773D01*
X007889Y007781D02*
X006956Y007781D01*
X006964Y007790D02*
X008244Y007790D01*
X008244Y007799D02*
X006973Y007799D01*
X006981Y007807D02*
X008244Y007807D01*
D41*
X006204Y023190D03*
X007924Y023710D03*
D42*
X007924Y023077D01*
X007942Y023077D01*
X007942Y022329D02*
X007791Y022329D01*
X007791Y021678D01*
X007184Y022440D02*
X007184Y023294D01*
X006984Y023690D02*
X006984Y023890D01*
X006944Y023930D01*
X006944Y024430D01*
X006984Y023690D02*
X006724Y023430D01*
X006724Y022010D01*
X006784Y021950D01*
X006784Y021190D01*
X007043Y020931D01*
X007043Y020655D01*
X007417Y020655D02*
X007417Y020163D01*
X007264Y020010D01*
X006824Y019670D02*
X006964Y019530D01*
X007584Y019530D01*
X007704Y019650D01*
X007704Y020190D01*
X007784Y020270D01*
X007784Y020648D01*
X007791Y020655D01*
X007043Y021678D02*
X007043Y022440D01*
X007184Y022440D01*
X006259Y022440D02*
X006259Y021543D01*
X006338Y021543D01*
X006511Y021370D01*
X006338Y020795D02*
X006338Y020396D01*
X006824Y019910D01*
X006824Y019670D01*
X006204Y023190D02*
X006263Y023249D01*
X006263Y023997D01*
X011234Y023174D02*
X011234Y022680D01*
X011524Y022390D01*
X011724Y022390D01*
X011884Y022230D01*
X011884Y022190D01*
X011884Y021421D01*
X011915Y021390D01*
X017154Y022500D02*
X017164Y022510D01*
D43*
X007264Y020010D03*
D44*
X006259Y022440D02*
X006204Y022495D01*
X006204Y023190D01*
D45*
X017164Y020870D03*
D46*
X013333Y021390D02*
X013333Y024419D01*
X013344Y024430D01*
X007184Y024430D01*
X007164Y024410D01*
X007164Y024530D01*
X006904Y024790D01*
X005564Y024790D01*
X005204Y024430D01*
X005204Y023710D01*
D47*
X004524Y018169D02*
X004534Y018159D01*
X004534Y016650D01*
X004534Y015650D01*
X004534Y014650D01*
X004534Y013650D01*
X004534Y012650D01*
X004534Y011650D01*
X004534Y010650D01*
X004534Y009650D01*
X004534Y008650D01*
X004534Y007650D01*
X004534Y006650D01*
X004534Y005650D01*
X017534Y005650D02*
X017534Y006650D01*
X017534Y007650D01*
X017534Y008650D01*
X017534Y009650D01*
X017534Y010650D01*
X017534Y011650D01*
X017534Y012650D01*
X017534Y013650D01*
X017534Y014650D01*
X017534Y015650D01*
X017534Y016650D01*
X017534Y018159D01*
X017524Y018169D01*
M02*
