G75*
G70*
%OFA0B0*%
%FSLAX24Y24*%
%IPPOS*%
%LPD*%
%AMOC8*
5,1,8,0,0,1.08239X$1,22.5*
%
%ADD10C,0.0040*%
D10*
X003331Y025430D02*
X003792Y025430D01*
X003792Y025661D01*
X003715Y025737D01*
X003561Y025737D01*
X003485Y025661D01*
X003485Y025430D01*
X003485Y025584D02*
X003331Y025737D01*
X003331Y026044D02*
X003792Y026044D01*
X003792Y025891D02*
X003792Y026198D01*
X003715Y026351D02*
X003638Y026351D01*
X003561Y026428D01*
X003561Y026581D01*
X003485Y026658D01*
X003408Y026658D01*
X003331Y026581D01*
X003331Y026428D01*
X003408Y026351D01*
X003715Y026351D02*
X003792Y026428D01*
X003792Y026581D01*
X003715Y026658D01*
X004331Y026658D02*
X004792Y026351D01*
X004715Y026198D02*
X004561Y026198D01*
X004485Y026121D01*
X004485Y025891D01*
X004485Y026044D02*
X004331Y026198D01*
X004331Y026351D02*
X004792Y026658D01*
X004715Y026198D02*
X004792Y026121D01*
X004792Y025891D01*
X004331Y025891D01*
X008331Y026044D02*
X008792Y026044D01*
X008792Y025891D02*
X008792Y026198D01*
X008792Y026351D02*
X008331Y026658D01*
X008331Y026351D02*
X008792Y026658D01*
X009331Y026581D02*
X009331Y026428D01*
X009408Y026351D01*
X009561Y026428D02*
X009561Y026581D01*
X009485Y026658D01*
X009408Y026658D01*
X009331Y026581D01*
X009561Y026428D02*
X009638Y026351D01*
X009715Y026351D01*
X009792Y026428D01*
X009792Y026581D01*
X009715Y026658D01*
X009792Y026198D02*
X009792Y025891D01*
X009792Y026044D02*
X009331Y026044D01*
X009408Y025737D02*
X009331Y025661D01*
X009331Y025507D01*
X009408Y025430D01*
X009715Y025430D01*
X009792Y025507D01*
X009792Y025661D01*
X009715Y025737D01*
X011391Y025737D02*
X011545Y025584D01*
X011545Y025661D02*
X011545Y025430D01*
X011391Y025430D02*
X011852Y025430D01*
X011852Y025661D01*
X011775Y025737D01*
X011621Y025737D01*
X011545Y025661D01*
X011852Y025891D02*
X011852Y026198D01*
X011852Y026044D02*
X011391Y026044D01*
X011468Y026351D02*
X011391Y026428D01*
X011391Y026581D01*
X011468Y026658D01*
X011545Y026658D01*
X011621Y026581D01*
X011621Y026428D01*
X011698Y026351D01*
X011775Y026351D01*
X011852Y026428D01*
X011852Y026581D01*
X011775Y026658D01*
X012391Y026658D02*
X012852Y026351D01*
X012775Y026198D02*
X012621Y026198D01*
X012545Y026121D01*
X012545Y025891D01*
X012545Y026044D02*
X012391Y026198D01*
X012391Y026351D02*
X012852Y026658D01*
X012775Y026198D02*
X012852Y026121D01*
X012852Y025891D01*
X012391Y025891D01*
X016391Y026044D02*
X016852Y026044D01*
X016852Y025891D02*
X016852Y026198D01*
X016852Y026351D02*
X016391Y026658D01*
X016391Y026351D02*
X016852Y026658D01*
X017391Y026581D02*
X017391Y026428D01*
X017468Y026351D01*
X017621Y026428D02*
X017621Y026581D01*
X017545Y026658D01*
X017468Y026658D01*
X017391Y026581D01*
X017621Y026428D02*
X017698Y026351D01*
X017775Y026351D01*
X017852Y026428D01*
X017852Y026581D01*
X017775Y026658D01*
X017852Y026198D02*
X017852Y025891D01*
X017852Y026044D02*
X017391Y026044D01*
X017468Y025737D02*
X017391Y025661D01*
X017391Y025507D01*
X017468Y025430D01*
X017775Y025430D01*
X017852Y025507D01*
X017852Y025661D01*
X017775Y025737D01*
M02*
