%
M48
M72
T01C0.0150
T02C0.0197
T03C0.0236
T04C0.0315
T05C0.0394
T06C0.0400
T07C0.0433
T08C0.0550
T09C0.0630
T10C0.1000
T11C0.1180
T12C0.1299
%
T01
X8231Y12552
X9161Y14652
X9901Y15952
X9931Y16512
X9011Y17712
X7901Y18222
X7151Y18222
X6631Y18762
X7181Y19302
X8551Y20672
X8641Y20022
X9011Y19092
X9431Y21222
X8921Y21762
X8201Y22392
X7781Y22602
X6821Y21642
X6871Y21102
X6001Y21442
X4391Y20892
X4211Y20312
X3021Y21602
X2821Y23732
X1061Y24292
X3021Y18772
X5251Y18352
X9771Y22132
X10241Y24402
X13511Y24552
X15791Y24522
X16181Y22572
X16181Y22122
X16181Y21222
X17081Y21192
X18041Y21192
X18371Y20172
X17171Y18252
X17171Y17022
X15341Y17472
X14801Y15712
X14831Y14832
X14381Y14832
X13871Y14832
X13781Y15702
X12461Y15912
X12461Y15282
X12461Y14832
X12731Y13912
X13871Y13392
X13901Y12252
X14441Y12252
X14951Y12252
X15461Y12252
X15971Y12252
X16421Y12402
X17171Y11562
X18061Y11412
X17201Y10542
X18941Y9882
X19591Y7912
X18331Y7132
X17863Y5982
X16590Y5714
X15391Y5992
X14201Y7662
X14921Y8622
X13751Y9462
X13561Y10482
X14001Y11042
X14411Y10842
X15131Y11042
X16451Y13812
X15281Y14832
X13091Y11622
X10871Y13992
X12431Y16782
X14741Y21012
X19091Y21972
X19931Y22662
X18971Y14922
X18851Y13962
X18791Y13302
X18941Y12342
X18251Y14652
T02
X15941Y10182
X15341Y8982
X14681Y7302
X14861Y5622
X15041Y4662
X17681Y4482
X17651Y10002
T03
X11501Y10872
X10541Y11622
X10601Y9222
T04
X10792Y15588
X10792Y16376
X10792Y17163
X10792Y17950
X10792Y18738
X10792Y19525
X10792Y20313
X10792Y21100
X10792Y21887
X10792Y22675
X2131Y22675
X2131Y21887
X2131Y21100
X2131Y20313
X2131Y19525
X2131Y18738
X2131Y17950
X2131Y17163
X2131Y16376
X2131Y15588
T05
X8912Y7185
X9900Y7185
X10384Y8169
X11384Y8169
X11868Y7185
X12384Y8169
X10880Y7185
X9384Y8169
X8990Y2849
X7990Y2849
X12273Y2849
X13273Y2849
T06
X19941Y10022
X19941Y11022
X19941Y12022
X19941Y13022
X19941Y14022
X19941Y15022
T07
X17621Y23792
X16621Y23792
X15621Y23792
X14621Y23792
X13621Y23792
X12621Y23792
X11621Y23792
X9561Y23792
X8561Y23792
X7561Y23792
X6561Y23792
X5561Y23792
X4561Y23792
X3561Y23792
T08
X2721Y13542
X2721Y9742
X7521Y10242
X7521Y11642
X7521Y13042
T09
X7551Y6000
X13851Y6000
T10
X19841Y8872
X19841Y26372
X1341Y26372
X1341Y8872
T11
X3815Y3533
X3815Y5895
X5666Y4714
T12
X8469Y4669
X12943Y4669
M30
