G75*
G70*
%OFA0B0*%
%FSLAX24Y24*%
%IPPOS*%
%LPD*%
%AMOC8*
5,1,8,0,0,1.08239X$1,22.5*
%
%ADD10C,0.0100*%
%ADD11C,0.0020*%
%ADD12C,0.0050*%
%ADD13C,0.0080*%
%ADD14C,0.0010*%
%ADD15C,0.0040*%
%ADD16C,0.0060*%
%ADD17R,0.0125X0.0126*%
%ADD18R,0.0125X0.0126*%
%ADD19C,0.0030*%
%ADD20C,0.0200*%
%ADD21C,0.0160*%
%ADD22R,0.0118X0.0059*%
%ADD23R,0.0118X0.0118*%
%ADD24C,0.0200*%
D10*
X004364Y017945D02*
X004364Y019579D01*
X008439Y019579D01*
X008439Y017945D01*
X004364Y017945D01*
X017041Y018252D02*
X017041Y018402D01*
X017201Y018402D01*
X021111Y019202D02*
X021281Y019202D01*
X021281Y016042D01*
X021101Y016042D01*
D11*
X020821Y015457D02*
X020601Y015457D01*
X020674Y015384D01*
X020601Y015311D01*
X020821Y015311D01*
X020821Y015236D02*
X020674Y015236D01*
X020601Y015163D01*
X020674Y015090D01*
X020821Y015090D01*
X020821Y015015D02*
X020748Y014942D01*
X020748Y014979D02*
X020748Y014869D01*
X020821Y014869D02*
X020601Y014869D01*
X020601Y014979D01*
X020638Y015015D01*
X020711Y015015D01*
X020748Y014979D01*
X020711Y015090D02*
X020711Y015236D01*
X020711Y014794D02*
X020711Y014721D01*
X020711Y014794D02*
X020785Y014794D01*
X020821Y014758D01*
X020821Y014684D01*
X020785Y014648D01*
X020638Y014648D01*
X020601Y014684D01*
X020601Y014758D01*
X020638Y014794D01*
X020638Y014573D02*
X020601Y014537D01*
X020601Y014463D01*
X020638Y014427D01*
X020785Y014427D01*
X020821Y014463D01*
X020821Y014537D01*
X020785Y014573D01*
X020638Y014573D01*
X020638Y014352D02*
X020711Y014352D01*
X020748Y014316D01*
X020748Y014206D01*
X020748Y014279D02*
X020821Y014352D01*
X020821Y014206D02*
X020601Y014206D01*
X020601Y014316D01*
X020638Y014352D01*
X020638Y014131D02*
X020711Y014131D01*
X020748Y014095D01*
X020748Y013985D01*
X020821Y013985D02*
X020601Y013985D01*
X020601Y014095D01*
X020638Y014131D01*
X018523Y013872D02*
X018523Y013798D01*
X018487Y013762D01*
X018487Y013687D02*
X018523Y013651D01*
X018523Y013577D01*
X018487Y013541D01*
X018340Y013541D01*
X018303Y013577D01*
X018303Y013651D01*
X018340Y013687D01*
X018340Y013762D02*
X018376Y013762D01*
X018413Y013798D01*
X018413Y013908D01*
X018340Y013908D02*
X018303Y013872D01*
X018303Y013798D01*
X018340Y013762D01*
X018340Y013908D02*
X018487Y013908D01*
X018523Y013872D01*
X018089Y013152D02*
X018089Y013115D01*
X017942Y012968D01*
X017942Y012932D01*
X017868Y012968D02*
X017831Y012932D01*
X017758Y012932D01*
X017721Y012968D01*
X017721Y013115D01*
X017758Y013152D01*
X017831Y013152D01*
X017868Y013115D01*
X017942Y013152D02*
X018089Y013152D01*
X018008Y010432D02*
X018045Y010395D01*
X018045Y010322D01*
X018008Y010285D01*
X017898Y010285D01*
X017898Y010212D02*
X017898Y010432D01*
X018008Y010432D01*
X017972Y010285D02*
X018045Y010212D01*
X018119Y010322D02*
X018229Y010432D01*
X018229Y010212D01*
X018266Y010322D02*
X018119Y010322D01*
X018340Y010322D02*
X018450Y010432D01*
X018450Y010212D01*
X018487Y010322D02*
X018340Y010322D01*
X018801Y008517D02*
X018801Y008371D01*
X018801Y008444D02*
X018581Y008444D01*
X018654Y008371D01*
X018618Y008296D02*
X018581Y008260D01*
X018581Y008186D01*
X018618Y008150D01*
X018765Y008150D01*
X018801Y008186D01*
X018801Y008260D01*
X018765Y008296D01*
X015877Y009812D02*
X015730Y009812D01*
X015877Y009958D01*
X015877Y009995D01*
X015840Y010032D01*
X015767Y010032D01*
X015730Y009995D01*
X015583Y010032D02*
X015583Y009812D01*
X015656Y009812D02*
X015509Y009812D01*
X015435Y009812D02*
X015362Y009885D01*
X015398Y009885D02*
X015288Y009885D01*
X015288Y009812D02*
X015288Y010032D01*
X015398Y010032D01*
X015435Y009995D01*
X015435Y009922D01*
X015398Y009885D01*
X015509Y009958D02*
X015583Y010032D01*
X014775Y009197D02*
X014811Y009161D01*
X014811Y009087D01*
X014775Y009051D01*
X014701Y009051D02*
X014664Y009124D01*
X014664Y009161D01*
X014701Y009197D01*
X014775Y009197D01*
X014701Y009051D02*
X014591Y009051D01*
X014591Y009197D01*
X014628Y008976D02*
X014701Y008976D01*
X014738Y008940D01*
X014738Y008830D01*
X014738Y008903D02*
X014811Y008976D01*
X014811Y008830D02*
X014591Y008830D01*
X014591Y008940D01*
X014628Y008976D01*
X013271Y009100D02*
X013051Y009100D01*
X013051Y009210D01*
X013088Y009246D01*
X013161Y009246D01*
X013198Y009210D01*
X013198Y009100D01*
X013198Y009173D02*
X013271Y009246D01*
X013271Y009321D02*
X013235Y009321D01*
X013088Y009467D01*
X013051Y009467D01*
X013051Y009321D01*
X012401Y009820D02*
X012181Y009820D01*
X012181Y009930D01*
X012218Y009966D01*
X012291Y009966D01*
X012328Y009930D01*
X012328Y009820D01*
X012328Y009893D02*
X012401Y009966D01*
X012365Y010041D02*
X012401Y010077D01*
X012401Y010151D01*
X012365Y010187D01*
X012328Y010187D01*
X012291Y010151D01*
X012291Y010041D01*
X012365Y010041D01*
X012291Y010041D02*
X012218Y010114D01*
X012181Y010187D01*
X012258Y010472D02*
X012331Y010472D01*
X012368Y010508D01*
X012442Y010472D02*
X012589Y010472D01*
X012516Y010472D02*
X012516Y010692D01*
X012442Y010618D01*
X012368Y010655D02*
X012331Y010692D01*
X012258Y010692D01*
X012221Y010655D01*
X012221Y010508D01*
X012258Y010472D01*
X012663Y010508D02*
X012700Y010472D01*
X012773Y010472D01*
X012810Y010508D01*
X012810Y010582D01*
X012773Y010618D01*
X012737Y010618D01*
X012663Y010582D01*
X012663Y010692D01*
X012810Y010692D01*
X012908Y012239D02*
X013055Y012239D01*
X013091Y012275D01*
X013091Y012349D01*
X013055Y012385D01*
X013091Y012460D02*
X013091Y012606D01*
X013091Y012533D02*
X012871Y012533D01*
X012944Y012460D01*
X012908Y012385D02*
X012871Y012349D01*
X012871Y012275D01*
X012908Y012239D01*
X012908Y012681D02*
X012871Y012717D01*
X012871Y012791D01*
X012908Y012827D01*
X012944Y012827D01*
X012981Y012791D01*
X013018Y012827D01*
X013055Y012827D01*
X013091Y012791D01*
X013091Y012717D01*
X013055Y012681D01*
X012981Y012754D02*
X012981Y012791D01*
X011371Y012806D02*
X011371Y012660D01*
X011371Y012733D02*
X011151Y012733D01*
X011224Y012660D01*
X011188Y012585D02*
X011151Y012549D01*
X011151Y012475D01*
X011188Y012439D01*
X011335Y012439D01*
X011371Y012475D01*
X011371Y012549D01*
X011335Y012585D01*
X011335Y012881D02*
X011371Y012917D01*
X011371Y012991D01*
X011335Y013027D01*
X011188Y013027D01*
X011151Y012991D01*
X011151Y012917D01*
X011188Y012881D01*
X011224Y012881D01*
X011261Y012917D01*
X011261Y013027D01*
X009875Y010807D02*
X009838Y010807D01*
X009801Y010771D01*
X009801Y010661D01*
X009875Y010661D01*
X009911Y010697D01*
X009911Y010771D01*
X009875Y010807D01*
X009801Y010661D02*
X009728Y010734D01*
X009691Y010807D01*
X009728Y010586D02*
X009691Y010550D01*
X009691Y010476D01*
X009728Y010440D01*
X009875Y010440D01*
X009911Y010476D01*
X009911Y010550D01*
X009875Y010586D01*
X010098Y009829D02*
X010134Y009829D01*
X010171Y009793D01*
X010171Y009719D01*
X010134Y009683D01*
X010098Y009683D01*
X010061Y009719D01*
X010061Y009793D01*
X010098Y009829D01*
X010171Y009793D02*
X010208Y009829D01*
X010245Y009829D01*
X010281Y009793D01*
X010281Y009719D01*
X010245Y009683D01*
X010208Y009683D01*
X010171Y009719D01*
X010171Y009608D02*
X010208Y009572D01*
X010208Y009462D01*
X010208Y009535D02*
X010281Y009608D01*
X010171Y009608D02*
X010098Y009608D01*
X010061Y009572D01*
X010061Y009462D01*
X010281Y009462D01*
X008801Y009400D02*
X008581Y009400D01*
X008581Y009510D01*
X008618Y009546D01*
X008691Y009546D01*
X008728Y009510D01*
X008728Y009400D01*
X008728Y009473D02*
X008801Y009546D01*
X008765Y009621D02*
X008801Y009657D01*
X008801Y009731D01*
X008765Y009767D01*
X008618Y009767D01*
X008581Y009731D01*
X008581Y009657D01*
X008618Y009621D01*
X008654Y009621D01*
X008691Y009657D01*
X008691Y009767D01*
X008282Y011065D02*
X008135Y011065D01*
X008209Y011065D02*
X008209Y011285D01*
X008135Y011211D01*
X008061Y011065D02*
X007914Y011065D01*
X007914Y011285D01*
X014049Y016118D02*
X014086Y016082D01*
X014159Y016082D01*
X014196Y016118D01*
X014196Y016265D01*
X014159Y016302D01*
X014086Y016302D01*
X014049Y016265D01*
X014049Y016118D01*
X014123Y016155D02*
X014196Y016082D01*
X014270Y016082D02*
X014417Y016228D01*
X014417Y016265D01*
X014380Y016302D01*
X014307Y016302D01*
X014270Y016265D01*
X014270Y016082D02*
X014417Y016082D01*
X019048Y023772D02*
X019048Y023992D01*
X019158Y023992D01*
X019195Y023955D01*
X019195Y023882D01*
X019158Y023845D01*
X019048Y023845D01*
X019122Y023845D02*
X019195Y023772D01*
X019269Y023772D02*
X019416Y023772D01*
X019343Y023772D02*
X019343Y023992D01*
X019269Y023918D01*
X019490Y023882D02*
X019600Y023992D01*
X019600Y023772D01*
X019637Y023882D02*
X019490Y023882D01*
X015791Y004357D02*
X015791Y004211D01*
X015681Y004321D01*
X015901Y004321D01*
X015865Y004136D02*
X015901Y004100D01*
X015901Y004026D01*
X015865Y003990D01*
X015718Y003990D01*
X015681Y004026D01*
X015681Y004100D01*
X015718Y004136D01*
X016531Y004155D02*
X016531Y004008D01*
X016568Y003972D01*
X016641Y003972D01*
X016678Y004008D01*
X016752Y003972D02*
X016899Y004118D01*
X016899Y004155D01*
X016862Y004192D01*
X016789Y004192D01*
X016752Y004155D01*
X016678Y004155D02*
X016641Y004192D01*
X016568Y004192D01*
X016531Y004155D01*
X016752Y003972D02*
X016899Y003972D01*
X017899Y003958D02*
X017936Y003922D01*
X018009Y003922D01*
X018046Y003958D01*
X018120Y003958D02*
X018157Y003922D01*
X018230Y003922D01*
X018267Y003958D01*
X018267Y003995D01*
X018230Y004032D01*
X018194Y004032D01*
X018230Y004032D02*
X018267Y004068D01*
X018267Y004105D01*
X018230Y004142D01*
X018157Y004142D01*
X018120Y004105D01*
X018046Y004105D02*
X018009Y004142D01*
X017936Y004142D01*
X017899Y004105D01*
X017899Y003958D01*
X003553Y022902D02*
X003480Y022902D01*
X003443Y022938D01*
X003369Y022902D02*
X003222Y022902D01*
X003296Y022902D02*
X003296Y023122D01*
X003222Y023048D01*
X003148Y023012D02*
X003111Y022975D01*
X003001Y022975D01*
X003001Y022902D02*
X003001Y023122D01*
X003111Y023122D01*
X003148Y023085D01*
X003148Y023012D01*
X003075Y022975D02*
X003148Y022902D01*
X003443Y023085D02*
X003480Y023122D01*
X003553Y023122D01*
X003590Y023085D01*
X003590Y023048D01*
X003553Y023012D01*
X003590Y022975D01*
X003590Y022938D01*
X003553Y022902D01*
X003553Y023012D02*
X003517Y023012D01*
D12*
X002561Y023192D02*
X002561Y027392D01*
X010561Y027392D01*
X010561Y023192D01*
X002561Y023192D01*
X006209Y022565D02*
X006209Y022054D01*
X007469Y022054D01*
X007469Y022565D01*
X006209Y022565D01*
X010621Y023192D02*
X010621Y027392D01*
X018621Y027392D01*
X018621Y023192D01*
X010621Y023192D01*
X013999Y022815D02*
X013999Y022304D01*
X015259Y022304D01*
X015259Y022815D01*
X013999Y022815D01*
X017675Y022038D02*
X017675Y019991D01*
X019703Y019991D01*
X019703Y022038D01*
X017675Y022038D01*
X018036Y020994D02*
X018038Y021044D01*
X018044Y021095D01*
X018054Y021144D01*
X018067Y021193D01*
X018085Y021240D01*
X018106Y021286D01*
X018131Y021330D01*
X018159Y021372D01*
X018190Y021412D01*
X018224Y021449D01*
X018261Y021483D01*
X018301Y021514D01*
X018343Y021542D01*
X018387Y021567D01*
X018433Y021588D01*
X018480Y021606D01*
X018529Y021619D01*
X018578Y021629D01*
X018629Y021635D01*
X018679Y021637D01*
X018729Y021635D01*
X018780Y021629D01*
X018829Y021619D01*
X018878Y021606D01*
X018925Y021588D01*
X018971Y021567D01*
X019015Y021542D01*
X019057Y021514D01*
X019097Y021483D01*
X019134Y021449D01*
X019168Y021412D01*
X019199Y021372D01*
X019227Y021330D01*
X019252Y021286D01*
X019273Y021240D01*
X019291Y021193D01*
X019304Y021144D01*
X019314Y021095D01*
X019320Y021044D01*
X019322Y020994D01*
X019320Y020944D01*
X019314Y020893D01*
X019304Y020844D01*
X019291Y020795D01*
X019273Y020748D01*
X019252Y020702D01*
X019227Y020658D01*
X019199Y020616D01*
X019168Y020576D01*
X019134Y020539D01*
X019097Y020505D01*
X019057Y020474D01*
X019015Y020446D01*
X018971Y020421D01*
X018925Y020400D01*
X018878Y020382D01*
X018829Y020369D01*
X018780Y020359D01*
X018729Y020353D01*
X018679Y020351D01*
X018629Y020353D01*
X018578Y020359D01*
X018529Y020369D01*
X018480Y020382D01*
X018433Y020400D01*
X018387Y020421D01*
X018343Y020446D01*
X018301Y020474D01*
X018261Y020505D01*
X018224Y020539D01*
X018190Y020576D01*
X018159Y020616D01*
X018131Y020658D01*
X018106Y020702D01*
X018085Y020748D01*
X018067Y020795D01*
X018054Y020844D01*
X018044Y020893D01*
X018038Y020944D01*
X018036Y020994D01*
X016931Y015280D02*
X016734Y015280D01*
X016931Y015280D02*
X016931Y015083D01*
X016636Y014984D02*
X016636Y012032D01*
X013683Y012032D01*
X013683Y014984D01*
X016636Y014984D01*
X018816Y014986D02*
X019266Y014986D01*
X019266Y014836D02*
X019266Y015136D01*
X018966Y014836D02*
X018816Y014986D01*
X020691Y014522D02*
X020841Y014522D01*
X020916Y010136D02*
X020841Y010061D01*
X020841Y009836D01*
X020991Y009836D01*
X021066Y009911D01*
X021066Y010061D01*
X020991Y010136D01*
X020916Y010136D01*
X020691Y009986D02*
X020841Y009836D01*
X020691Y009986D02*
X020616Y010136D01*
X020841Y008872D02*
X020841Y007872D01*
X018956Y005612D02*
X016200Y005612D01*
X016200Y004195D01*
X018956Y004195D01*
X018956Y005612D01*
X019297Y005069D02*
X019297Y003809D01*
X019809Y003809D01*
X019809Y005069D01*
X019297Y005069D01*
X017776Y006168D02*
X017776Y006424D01*
X017776Y006168D02*
X017501Y006168D01*
X016240Y005612D02*
X016200Y005612D01*
X015631Y006168D02*
X015375Y006168D01*
X015375Y006443D01*
X015375Y008353D02*
X015375Y008609D01*
X015650Y008609D01*
X013851Y008829D02*
X007551Y008829D01*
X007551Y001649D01*
X013851Y001649D01*
X013851Y008829D01*
X013851Y008830D02*
X007551Y008830D01*
X007551Y008829D02*
X007551Y001859D01*
X007581Y001649D02*
X013851Y001649D01*
X017776Y008333D02*
X017776Y008609D01*
X017520Y008609D01*
X017646Y008825D02*
X017648Y008841D01*
X017654Y008857D01*
X017663Y008871D01*
X017675Y008882D01*
X017689Y008890D01*
X017705Y008895D01*
X017721Y008896D01*
X017737Y008893D01*
X017752Y008886D01*
X017766Y008877D01*
X017776Y008864D01*
X017784Y008849D01*
X017788Y008833D01*
X017788Y008817D01*
X017784Y008801D01*
X017776Y008786D01*
X017766Y008773D01*
X017753Y008764D01*
X017737Y008757D01*
X017721Y008754D01*
X017705Y008755D01*
X017689Y008760D01*
X017675Y008768D01*
X017663Y008779D01*
X017654Y008793D01*
X017648Y008809D01*
X017646Y008825D01*
X016931Y011736D02*
X016734Y011736D01*
X016931Y011736D02*
X016931Y011933D01*
X013585Y011736D02*
X013388Y011736D01*
X013388Y011933D01*
X013388Y011441D02*
X013390Y011460D01*
X013395Y011479D01*
X013405Y011495D01*
X013417Y011510D01*
X013432Y011522D01*
X013448Y011532D01*
X013467Y011537D01*
X013486Y011539D01*
X013505Y011537D01*
X013524Y011532D01*
X013540Y011522D01*
X013555Y011510D01*
X013567Y011495D01*
X013577Y011479D01*
X013582Y011460D01*
X013584Y011441D01*
X013582Y011422D01*
X013577Y011403D01*
X013567Y011387D01*
X013555Y011372D01*
X013540Y011360D01*
X013524Y011350D01*
X013505Y011345D01*
X013486Y011343D01*
X013467Y011345D01*
X013448Y011350D01*
X013432Y011360D01*
X013417Y011372D01*
X013405Y011387D01*
X013395Y011403D01*
X013390Y011422D01*
X013388Y011441D01*
X012039Y014439D02*
X011527Y014439D01*
X011527Y015699D01*
X012039Y015699D01*
X012039Y014439D01*
X011081Y014251D02*
X010648Y014251D01*
X010648Y014527D01*
X010451Y014527D01*
X010451Y014842D01*
X011081Y014842D01*
X011081Y014251D01*
X011042Y014251D02*
X010648Y014251D01*
X010451Y014251D01*
X010451Y014527D01*
X010299Y014522D02*
X010301Y014556D01*
X010307Y014589D01*
X010317Y014622D01*
X010330Y014653D01*
X010347Y014682D01*
X010367Y014710D01*
X010391Y014734D01*
X010417Y014756D01*
X010445Y014775D01*
X010475Y014790D01*
X010507Y014802D01*
X010540Y014810D01*
X010574Y014814D01*
X010608Y014814D01*
X010642Y014810D01*
X010675Y014802D01*
X010707Y014790D01*
X010737Y014775D01*
X010765Y014756D01*
X010791Y014734D01*
X010815Y014710D01*
X010835Y014682D01*
X010852Y014653D01*
X010865Y014622D01*
X010875Y014589D01*
X010881Y014556D01*
X010883Y014522D01*
X010881Y014488D01*
X010875Y014455D01*
X010865Y014422D01*
X010852Y014391D01*
X010835Y014362D01*
X010815Y014334D01*
X010791Y014310D01*
X010765Y014288D01*
X010737Y014269D01*
X010707Y014254D01*
X010675Y014242D01*
X010642Y014234D01*
X010608Y014230D01*
X010574Y014230D01*
X010540Y014234D01*
X010507Y014242D01*
X010475Y014254D01*
X010445Y014269D01*
X010417Y014288D01*
X010391Y014310D01*
X010367Y014334D01*
X010347Y014362D01*
X010330Y014391D01*
X010317Y014422D01*
X010307Y014455D01*
X010301Y014488D01*
X010299Y014522D01*
X010617Y014641D02*
X010617Y014759D01*
X010676Y014759D01*
X010687Y014747D01*
X010687Y014712D01*
X010664Y014688D01*
X010687Y014664D01*
X010687Y014641D01*
X010829Y014664D02*
X010829Y014735D01*
X010853Y014759D01*
X010912Y014759D01*
X010924Y014676D02*
X010947Y014676D01*
X010924Y014676D02*
X010900Y014676D01*
X010924Y014676D02*
X010924Y014629D01*
X010888Y014641D02*
X010924Y014676D01*
X010888Y014641D02*
X010853Y014641D01*
X010829Y014664D01*
X010853Y014464D02*
X010900Y014464D01*
X010924Y014440D01*
X010865Y014381D01*
X010900Y014381D01*
X010924Y014357D01*
X010924Y014346D01*
X010888Y014310D01*
X010853Y014310D01*
X010853Y014464D01*
X008321Y014342D02*
X001921Y014342D01*
X001921Y008942D01*
X008321Y008942D01*
X008321Y014342D01*
X013388Y015083D02*
X013388Y015280D01*
X013585Y015280D01*
X000491Y014522D02*
X000391Y014522D01*
X000341Y008372D02*
X000341Y007872D01*
D13*
X002044Y005895D02*
X002870Y005895D01*
X002044Y005895D02*
X002044Y001683D01*
X005587Y001683D01*
X005587Y003769D01*
X005587Y005620D02*
X005587Y005895D01*
X004760Y005895D01*
X006008Y007286D02*
X006795Y007286D01*
X006401Y007688D01*
X006008Y007286D01*
X008419Y010722D02*
X008419Y011981D01*
X009443Y011981D02*
X009443Y010722D01*
X011201Y012297D02*
X011201Y013547D01*
X011225Y014417D02*
X001697Y014417D01*
X001697Y022714D01*
X004188Y025204D01*
X008735Y025204D01*
X011225Y022714D01*
X011225Y014417D01*
X012201Y013547D02*
X012201Y012297D01*
X005448Y015172D02*
X005045Y015565D01*
X005045Y014778D01*
X005448Y015172D01*
X001761Y014877D02*
X001761Y013627D01*
X000761Y013627D02*
X000761Y014877D01*
D14*
X006035Y022098D02*
X006110Y022098D01*
X006125Y022113D01*
X006125Y022143D01*
X006110Y022158D01*
X006035Y022158D01*
X006050Y022190D02*
X006035Y022205D01*
X006035Y022235D01*
X006050Y022250D01*
X006050Y022282D02*
X006035Y022297D01*
X006035Y022327D01*
X006050Y022342D01*
X006065Y022342D01*
X006080Y022327D01*
X006095Y022342D01*
X006110Y022342D01*
X006125Y022327D01*
X006125Y022297D01*
X006110Y022282D01*
X006110Y022250D02*
X006095Y022250D01*
X006080Y022235D01*
X006080Y022205D01*
X006065Y022190D01*
X006050Y022190D01*
X006020Y022220D02*
X006140Y022220D01*
X006125Y022205D02*
X006125Y022235D01*
X006110Y022250D01*
X006125Y022205D02*
X006110Y022190D01*
X006080Y022312D02*
X006080Y022327D01*
X007570Y022243D02*
X007660Y022243D01*
X007630Y022243D02*
X007600Y022288D01*
X007630Y022243D02*
X007660Y022288D01*
X007645Y022211D02*
X007660Y022196D01*
X007660Y022166D01*
X007645Y022151D01*
X007585Y022211D01*
X007645Y022211D01*
X007585Y022211D02*
X007570Y022196D01*
X007570Y022166D01*
X007585Y022151D01*
X007645Y022151D01*
X007660Y022119D02*
X007660Y022059D01*
X007660Y022089D02*
X007570Y022089D01*
X007600Y022059D01*
X011783Y015891D02*
X011813Y015891D01*
X011828Y015876D01*
X011828Y015861D01*
X011813Y015846D01*
X011828Y015831D01*
X011828Y015816D01*
X011813Y015801D01*
X011783Y015801D01*
X011768Y015816D01*
X011798Y015846D02*
X011813Y015846D01*
X011768Y015876D02*
X011783Y015891D01*
X011860Y015876D02*
X011875Y015891D01*
X011905Y015891D01*
X011920Y015876D01*
X011920Y015861D01*
X011905Y015846D01*
X011920Y015831D01*
X011920Y015816D01*
X011905Y015801D01*
X011875Y015801D01*
X011860Y015816D01*
X011890Y015846D02*
X011905Y015846D01*
X011952Y015876D02*
X011967Y015891D01*
X011997Y015891D01*
X012012Y015876D01*
X011952Y015816D01*
X011967Y015801D01*
X011997Y015801D01*
X012012Y015816D01*
X012012Y015876D01*
X011952Y015876D02*
X011952Y015816D01*
X011851Y014370D02*
X011851Y014250D01*
X011866Y014265D02*
X011881Y014280D01*
X011881Y014295D01*
X011866Y014310D01*
X011836Y014310D01*
X011821Y014325D01*
X011821Y014340D01*
X011836Y014355D01*
X011866Y014355D01*
X011881Y014340D01*
X011913Y014355D02*
X011973Y014355D01*
X011973Y014340D01*
X011913Y014280D01*
X011913Y014265D01*
X011866Y014265D02*
X011836Y014265D01*
X011821Y014280D01*
X011789Y014280D02*
X011789Y014355D01*
X011729Y014355D02*
X011729Y014280D01*
X011744Y014265D01*
X011774Y014265D01*
X011789Y014280D01*
X013825Y022348D02*
X013900Y022348D01*
X013915Y022363D01*
X013915Y022393D01*
X013900Y022408D01*
X013825Y022408D01*
X013840Y022440D02*
X013825Y022455D01*
X013825Y022485D01*
X013840Y022500D01*
X013870Y022485D02*
X013870Y022455D01*
X013855Y022440D01*
X013840Y022440D01*
X013810Y022470D02*
X013930Y022470D01*
X013915Y022485D02*
X013900Y022500D01*
X013885Y022500D01*
X013870Y022485D01*
X013915Y022485D02*
X013915Y022455D01*
X013900Y022440D01*
X013870Y022532D02*
X013870Y022592D01*
X013915Y022577D02*
X013825Y022577D01*
X013870Y022532D01*
X015360Y022493D02*
X015450Y022493D01*
X015420Y022493D02*
X015390Y022538D01*
X015420Y022493D02*
X015450Y022538D01*
X015435Y022461D02*
X015450Y022446D01*
X015450Y022416D01*
X015435Y022401D01*
X015375Y022461D01*
X015435Y022461D01*
X015375Y022461D02*
X015360Y022446D01*
X015360Y022416D01*
X015375Y022401D01*
X015435Y022401D01*
X015450Y022369D02*
X015450Y022309D01*
X015450Y022339D02*
X015360Y022339D01*
X015390Y022309D01*
X019553Y005261D02*
X019583Y005261D01*
X019598Y005246D01*
X019598Y005231D01*
X019583Y005216D01*
X019598Y005201D01*
X019598Y005186D01*
X019583Y005171D01*
X019553Y005171D01*
X019538Y005186D01*
X019568Y005216D02*
X019583Y005216D01*
X019538Y005246D02*
X019553Y005261D01*
X019630Y005246D02*
X019645Y005261D01*
X019675Y005261D01*
X019690Y005246D01*
X019690Y005231D01*
X019675Y005216D01*
X019690Y005201D01*
X019690Y005186D01*
X019675Y005171D01*
X019645Y005171D01*
X019630Y005186D01*
X019660Y005216D02*
X019675Y005216D01*
X019722Y005246D02*
X019737Y005261D01*
X019767Y005261D01*
X019782Y005246D01*
X019722Y005186D01*
X019737Y005171D01*
X019767Y005171D01*
X019782Y005186D01*
X019782Y005246D01*
X019722Y005246D02*
X019722Y005186D01*
X019529Y003740D02*
X019529Y003620D01*
X019544Y003635D02*
X019559Y003650D01*
X019559Y003665D01*
X019544Y003680D01*
X019514Y003680D01*
X019499Y003695D01*
X019499Y003710D01*
X019514Y003725D01*
X019544Y003725D01*
X019559Y003710D01*
X019591Y003695D02*
X019621Y003725D01*
X019621Y003635D01*
X019591Y003635D02*
X019651Y003635D01*
X019683Y003635D02*
X019743Y003695D01*
X019743Y003710D01*
X019728Y003725D01*
X019698Y003725D01*
X019683Y003710D01*
X019683Y003635D02*
X019743Y003635D01*
X019544Y003635D02*
X019514Y003635D01*
X019499Y003650D01*
X019467Y003650D02*
X019467Y003725D01*
X019407Y003725D02*
X019407Y003650D01*
X019422Y003635D01*
X019452Y003635D01*
X019467Y003650D01*
X002568Y002507D02*
X002468Y002507D01*
X002518Y002507D02*
X002518Y002657D01*
X002468Y002607D01*
X002420Y002657D02*
X002370Y002657D01*
X002395Y002657D02*
X002395Y002532D01*
X002370Y002507D01*
X002345Y002507D01*
X002320Y002532D01*
D15*
X005651Y006472D02*
X005651Y008252D01*
X007151Y008252D02*
X007151Y006472D01*
X007271Y007311D02*
X007271Y007541D01*
X007348Y007618D01*
X007655Y007618D01*
X007731Y007541D01*
X007731Y007311D01*
X007271Y007311D01*
X007424Y007771D02*
X007271Y007925D01*
X007731Y007925D01*
X007731Y008078D02*
X007731Y007771D01*
X008765Y011798D02*
X008918Y011798D01*
X008995Y011875D01*
X009148Y011798D02*
X009455Y011798D01*
X009302Y011798D02*
X009302Y012258D01*
X009148Y012105D01*
X008995Y012181D02*
X008918Y012258D01*
X008765Y012258D01*
X008688Y012181D01*
X008688Y011875D01*
X008765Y011798D01*
X009609Y012028D02*
X009915Y012028D01*
X009839Y011798D02*
X009839Y012258D01*
X009609Y012028D01*
X008205Y013220D02*
X008205Y013374D01*
X008128Y013450D01*
X007744Y013450D01*
X007821Y013604D02*
X007744Y013681D01*
X007744Y013834D01*
X007821Y013911D01*
X007898Y014064D02*
X007744Y014218D01*
X008205Y014218D01*
X008205Y014371D02*
X008205Y014064D01*
X008128Y013911D02*
X008205Y013834D01*
X008205Y013681D01*
X008128Y013604D01*
X007975Y013681D02*
X007898Y013604D01*
X007821Y013604D01*
X007975Y013681D02*
X007975Y013834D01*
X008051Y013911D01*
X008128Y013911D01*
X008281Y013757D02*
X007668Y013757D01*
X007744Y013143D02*
X008128Y013143D01*
X008205Y013220D01*
X008205Y014525D02*
X008205Y014831D01*
X008205Y014678D02*
X007744Y014678D01*
X007898Y014525D01*
X008748Y014545D02*
X008825Y014468D01*
X008978Y014468D01*
X009055Y014545D01*
X009208Y014468D02*
X009515Y014468D01*
X009362Y014468D02*
X009362Y014928D01*
X009208Y014775D01*
X009055Y014851D02*
X008978Y014928D01*
X008825Y014928D01*
X008748Y014851D01*
X008748Y014545D01*
X009669Y014468D02*
X009975Y014468D01*
X009822Y014468D02*
X009822Y014928D01*
X009669Y014775D01*
X009055Y018400D02*
X008671Y018400D01*
X008671Y018707D02*
X009055Y018707D01*
X009131Y018631D01*
X009131Y018477D01*
X009055Y018400D01*
X009164Y018468D02*
X009241Y018655D01*
X009169Y018644D01*
X008380Y018644D01*
X008358Y018660D01*
X008353Y018698D01*
X008364Y018731D01*
X008407Y018918D01*
X009306Y018918D01*
X009400Y019296D01*
X009400Y019488D01*
X009378Y019510D01*
X009306Y019565D01*
X009246Y019587D01*
X008385Y019587D01*
X008353Y019581D01*
X008287Y019559D01*
X008199Y019504D01*
X008150Y019433D01*
X008084Y019301D01*
X008068Y019241D01*
X007958Y018753D01*
X007947Y018666D01*
X007947Y018611D01*
X007963Y018550D01*
X007991Y018512D01*
X008035Y018479D01*
X008078Y018468D01*
X009164Y018468D01*
X009055Y018861D02*
X009131Y018937D01*
X009131Y019091D01*
X009055Y019168D01*
X008978Y019168D01*
X008901Y019091D01*
X008901Y018937D01*
X008824Y018861D01*
X008748Y018861D01*
X008671Y018937D01*
X008671Y019091D01*
X008748Y019168D01*
X008748Y019321D02*
X008824Y019321D01*
X008901Y019398D01*
X008901Y019551D01*
X008978Y019628D01*
X009055Y019628D01*
X009131Y019551D01*
X009131Y019398D01*
X009055Y019321D01*
X008978Y019321D01*
X008901Y019398D01*
X008956Y019417D02*
X008978Y019411D01*
X008994Y019395D01*
X008994Y019323D01*
X008934Y019088D01*
X008462Y019088D01*
X008457Y019093D01*
X008495Y019318D01*
X008512Y019362D01*
X008534Y019400D01*
X008566Y019417D01*
X008956Y019417D01*
X008901Y019551D02*
X008824Y019628D01*
X008748Y019628D01*
X008671Y019551D01*
X008671Y019398D01*
X008748Y019321D01*
X008594Y019014D02*
X009208Y019014D01*
X007941Y019296D02*
X007848Y018918D01*
X006949Y018918D01*
X006905Y018731D01*
X006894Y018698D01*
X006900Y018660D01*
X006922Y018644D01*
X007711Y018644D01*
X007782Y018655D01*
X007706Y018468D01*
X006620Y018468D01*
X006576Y018479D01*
X006532Y018512D01*
X006505Y018550D01*
X006489Y018611D01*
X006489Y018666D01*
X006500Y018753D01*
X006609Y019241D01*
X006626Y019301D01*
X006691Y019433D01*
X006741Y019504D01*
X006829Y019559D01*
X006894Y019581D01*
X006927Y019587D01*
X007788Y019587D01*
X007848Y019565D01*
X007920Y019510D01*
X007941Y019488D01*
X007941Y019296D01*
X007536Y019323D02*
X007475Y019088D01*
X007004Y019088D01*
X006999Y019093D01*
X007037Y019318D01*
X007053Y019362D01*
X007075Y019400D01*
X007108Y019417D01*
X007497Y019417D01*
X007519Y019411D01*
X007536Y019395D01*
X007536Y019323D01*
X006532Y019691D02*
X006467Y019417D01*
X006445Y019362D01*
X006363Y019280D01*
X006297Y019252D01*
X006209Y019230D01*
X006099Y019230D01*
X006258Y019208D01*
X006374Y019154D01*
X006379Y019143D01*
X006379Y018994D01*
X006319Y018753D01*
X006280Y018693D01*
X006269Y018627D01*
X006187Y018534D01*
X006121Y018501D01*
X006017Y018468D01*
X004115Y018468D01*
X004148Y018529D01*
X004148Y018567D01*
X003972Y019000D01*
X003517Y018556D01*
X003468Y018468D01*
X003144Y018468D01*
X003281Y018567D01*
X003917Y019164D01*
X003605Y019926D01*
X003545Y019987D01*
X004148Y019987D01*
X004148Y019954D01*
X004131Y019921D01*
X004148Y019894D01*
X004148Y019866D01*
X004285Y019521D01*
X004674Y019905D01*
X004696Y019932D01*
X004712Y019965D01*
X004718Y019987D01*
X005063Y019987D01*
X004992Y019937D01*
X004937Y019899D01*
X004860Y019833D01*
X004345Y019351D01*
X004652Y018594D01*
X004740Y018474D01*
X004756Y018474D01*
X004789Y018507D01*
X004833Y018638D01*
X004899Y018885D01*
X004976Y019197D01*
X005118Y019778D01*
X005140Y019877D01*
X005140Y019987D01*
X006384Y019987D01*
X006450Y019970D01*
X006494Y019943D01*
X006527Y019883D01*
X006549Y019828D01*
X006549Y019735D01*
X006532Y019691D01*
X006116Y019685D02*
X006039Y019395D01*
X006023Y019356D01*
X005990Y019334D01*
X005442Y019334D01*
X005557Y019800D01*
X006061Y019800D01*
X006110Y019773D01*
X006116Y019685D01*
X005902Y019137D02*
X005946Y019121D01*
X005973Y019082D01*
X005973Y019066D01*
X005891Y018742D01*
X005869Y018709D01*
X005831Y018666D01*
X005809Y018655D01*
X005277Y018655D01*
X005403Y019137D01*
X005902Y019137D01*
X004401Y019801D02*
X003941Y019801D01*
X003941Y020031D01*
X004018Y020108D01*
X004171Y020108D01*
X004248Y020031D01*
X004248Y019801D01*
X004248Y019954D02*
X004401Y020108D01*
X004401Y020261D02*
X004094Y020568D01*
X004018Y020568D01*
X003941Y020491D01*
X003941Y020338D01*
X004018Y020261D01*
X004401Y020261D02*
X004401Y020568D01*
X003795Y019182D02*
X003795Y018722D01*
X003642Y018722D02*
X003949Y018722D01*
X003642Y019028D02*
X003795Y019182D01*
X003488Y019105D02*
X003488Y018952D01*
X003411Y018875D01*
X003181Y018875D01*
X003181Y018722D02*
X003181Y019182D01*
X003411Y019182D01*
X003488Y019105D01*
X003335Y018875D02*
X003488Y018722D01*
X004231Y015922D02*
X006011Y015922D01*
X006011Y014422D02*
X004231Y014422D01*
X005071Y014302D02*
X005071Y013842D01*
X005301Y013842D01*
X005377Y013918D01*
X005377Y014225D01*
X005301Y014302D01*
X005071Y014302D01*
X005531Y014225D02*
X005608Y014302D01*
X005761Y014302D01*
X005838Y014225D01*
X005838Y014148D01*
X005531Y013842D01*
X005838Y013842D01*
X003741Y012301D02*
X003281Y012301D01*
X003511Y012071D01*
X003511Y012378D01*
X003511Y011918D02*
X003358Y011918D01*
X003281Y011841D01*
X003281Y011611D01*
X003741Y011611D01*
X003588Y011611D02*
X003588Y011841D01*
X003511Y011918D01*
X003588Y011764D02*
X003741Y011918D01*
X003495Y009047D02*
X003342Y009047D01*
X003265Y008971D01*
X003265Y008664D01*
X003572Y008971D01*
X003572Y008664D01*
X003495Y008587D01*
X003342Y008587D01*
X003265Y008664D01*
X003111Y008587D02*
X002805Y008587D01*
X002958Y008587D02*
X002958Y009047D01*
X002805Y008894D01*
X002651Y008971D02*
X002574Y009047D01*
X002421Y009047D01*
X002344Y008971D01*
X002344Y008664D01*
X002421Y008587D01*
X002574Y008587D01*
X002651Y008664D01*
X003495Y009047D02*
X003572Y008971D01*
X013990Y012445D02*
X013990Y012675D01*
X014067Y012752D01*
X014220Y012752D01*
X014297Y012675D01*
X014297Y012445D01*
X014451Y012445D02*
X013990Y012445D01*
X013990Y012906D02*
X013990Y013059D01*
X013990Y012982D02*
X014451Y012982D01*
X014451Y012906D02*
X014451Y013059D01*
X014374Y013213D02*
X014451Y013289D01*
X014451Y013443D01*
X014374Y013519D01*
X014374Y013673D02*
X014451Y013750D01*
X014451Y013903D01*
X014374Y013980D01*
X014297Y013980D01*
X014220Y013903D01*
X014220Y013826D01*
X014220Y013903D02*
X014144Y013980D01*
X014067Y013980D01*
X013990Y013903D01*
X013990Y013750D01*
X014067Y013673D01*
X014067Y013519D02*
X013990Y013443D01*
X013990Y013289D01*
X014067Y013213D01*
X014374Y013213D01*
X014451Y014133D02*
X014144Y014440D01*
X014067Y014440D01*
X013990Y014363D01*
X013990Y014210D01*
X014067Y014133D01*
X014451Y014133D02*
X014451Y014440D01*
X014475Y016298D02*
X014475Y017046D01*
X016207Y017046D02*
X016207Y016298D01*
X017101Y017210D02*
X017101Y017441D01*
X017178Y017517D01*
X017331Y017517D01*
X017408Y017441D01*
X017408Y017210D01*
X017561Y017210D02*
X017101Y017210D01*
X017408Y017364D02*
X017561Y017517D01*
X017561Y017671D02*
X017254Y017978D01*
X017178Y017978D01*
X017101Y017901D01*
X017101Y017747D01*
X017178Y017671D01*
X017101Y018131D02*
X017101Y018438D01*
X017178Y018438D01*
X017485Y018131D01*
X017561Y018131D01*
X017561Y017978D02*
X017561Y017671D01*
X017211Y018471D02*
X016751Y018778D01*
X016828Y018931D02*
X016751Y019008D01*
X016751Y019161D01*
X016828Y019238D01*
X016904Y019238D01*
X017211Y018931D01*
X017211Y019238D01*
X017211Y018778D02*
X016751Y018471D01*
X017727Y018618D02*
X017727Y019120D01*
X017727Y019490D01*
X017726Y019490D02*
X017727Y019503D01*
X017732Y019516D01*
X017739Y019528D01*
X017749Y019538D01*
X017761Y019545D01*
X017774Y019550D01*
X017787Y019551D01*
X017788Y019551D02*
X017788Y019551D01*
X017788Y019550D02*
X017803Y019548D01*
X017817Y019543D01*
X017829Y019536D01*
X017840Y019525D01*
X017847Y019513D01*
X017852Y019499D01*
X017854Y019484D01*
X017854Y019424D01*
X017856Y019407D01*
X017861Y019390D01*
X017869Y019375D01*
X017880Y019362D01*
X017893Y019351D01*
X017908Y019343D01*
X017925Y019338D01*
X017942Y019336D01*
X017942Y019335D02*
X017953Y019335D01*
X017953Y019336D02*
X017970Y019338D01*
X017987Y019343D01*
X018002Y019351D01*
X018015Y019362D01*
X018026Y019375D01*
X018034Y019390D01*
X018039Y019407D01*
X018041Y019424D01*
X018041Y019490D01*
X018043Y019504D01*
X018047Y019516D01*
X018054Y019528D01*
X018064Y019538D01*
X018076Y019545D01*
X018088Y019549D01*
X018102Y019551D01*
X018102Y019550D02*
X018117Y019548D01*
X018131Y019543D01*
X018143Y019536D01*
X018154Y019525D01*
X018161Y019513D01*
X018166Y019499D01*
X018168Y019484D01*
X018168Y019142D01*
X017727Y019120D02*
X019808Y019120D01*
X019808Y019490D01*
X019809Y019503D01*
X019814Y019516D01*
X019821Y019527D01*
X019831Y019537D01*
X019842Y019544D01*
X019855Y019549D01*
X019868Y019550D01*
X019868Y019551D02*
X019868Y019551D01*
X019868Y019550D02*
X019883Y019548D01*
X019897Y019543D01*
X019909Y019536D01*
X019920Y019525D01*
X019927Y019513D01*
X019932Y019499D01*
X019934Y019484D01*
X019935Y019484D02*
X019935Y019424D01*
X019937Y019407D01*
X019942Y019390D01*
X019950Y019375D01*
X019961Y019362D01*
X019974Y019351D01*
X019989Y019343D01*
X020006Y019338D01*
X020023Y019336D01*
X020023Y019335D02*
X020034Y019335D01*
X020034Y019336D02*
X020051Y019338D01*
X020068Y019343D01*
X020083Y019351D01*
X020096Y019362D01*
X020107Y019375D01*
X020115Y019390D01*
X020120Y019407D01*
X020122Y019424D01*
X020122Y019490D01*
X020124Y019504D01*
X020128Y019516D01*
X020135Y019528D01*
X020145Y019538D01*
X020157Y019545D01*
X020169Y019549D01*
X020183Y019551D01*
X020183Y019550D02*
X020198Y019548D01*
X020212Y019543D01*
X020224Y019536D01*
X020235Y019525D01*
X020242Y019513D01*
X020247Y019499D01*
X020249Y019484D01*
X020249Y019142D01*
X019808Y019120D02*
X021232Y019120D01*
X021232Y016123D01*
X017727Y016123D01*
X017727Y016620D01*
X017729Y016642D01*
X017734Y016664D01*
X017743Y016685D01*
X017754Y016704D01*
X017769Y016721D01*
X017786Y016736D01*
X017805Y016747D01*
X017826Y016756D01*
X017848Y016761D01*
X017870Y016763D01*
X018080Y016763D01*
X018168Y016123D02*
X018168Y015753D01*
X018169Y015753D02*
X018167Y015740D01*
X018163Y015727D01*
X018156Y015715D01*
X018146Y015705D01*
X018134Y015698D01*
X018121Y015693D01*
X018108Y015692D01*
X018108Y015693D02*
X018108Y015693D01*
X018093Y015695D01*
X018079Y015700D01*
X018067Y015707D01*
X018056Y015718D01*
X018049Y015730D01*
X018044Y015744D01*
X018042Y015759D01*
X018041Y015759D02*
X018041Y015820D01*
X018039Y015837D01*
X018034Y015854D01*
X018026Y015869D01*
X018015Y015882D01*
X018002Y015893D01*
X017987Y015901D01*
X017970Y015906D01*
X017953Y015908D01*
X017942Y015908D01*
X017925Y015906D01*
X017908Y015901D01*
X017893Y015893D01*
X017880Y015882D01*
X017869Y015869D01*
X017861Y015854D01*
X017856Y015837D01*
X017854Y015820D01*
X017854Y015753D01*
X017852Y015739D01*
X017848Y015727D01*
X017841Y015715D01*
X017831Y015705D01*
X017819Y015698D01*
X017807Y015694D01*
X017793Y015692D01*
X017793Y015693D02*
X017778Y015695D01*
X017764Y015700D01*
X017752Y015707D01*
X017741Y015718D01*
X017734Y015730D01*
X017729Y015744D01*
X017727Y015759D01*
X017727Y016129D01*
X019101Y016145D02*
X019101Y016421D01*
X019101Y016422D02*
X019102Y016434D01*
X019106Y016445D01*
X019113Y016455D01*
X019122Y016463D01*
X019133Y016469D01*
X019145Y016471D01*
X020487Y016559D01*
X020505Y016561D01*
X020523Y016566D01*
X020539Y016575D01*
X020554Y016587D01*
X020566Y016601D01*
X020575Y016617D01*
X020581Y016635D01*
X020583Y016653D01*
X020582Y016672D01*
X020577Y016690D01*
X020569Y016706D01*
X020558Y016721D01*
X020544Y016734D01*
X020528Y016743D01*
X020511Y016750D01*
X020492Y016753D01*
X020492Y016752D02*
X019156Y016841D01*
X019142Y016843D01*
X019130Y016849D01*
X019118Y016858D01*
X019110Y016868D01*
X019104Y016881D01*
X019101Y016895D01*
X019102Y016909D01*
X019106Y016922D01*
X019113Y016934D01*
X019123Y016944D01*
X019134Y016952D01*
X019148Y016956D01*
X019162Y016957D01*
X020608Y016890D01*
X020624Y016890D01*
X020625Y016890D02*
X020647Y016888D01*
X020668Y016883D01*
X020688Y016875D01*
X020706Y016864D01*
X020723Y016850D01*
X020737Y016833D01*
X020748Y016815D01*
X020756Y016795D01*
X020761Y016774D01*
X020763Y016752D01*
X020762Y016752D02*
X020762Y016145D01*
X020249Y016123D02*
X020249Y015753D01*
X020248Y015740D01*
X020243Y015727D01*
X020236Y015716D01*
X020226Y015706D01*
X020215Y015699D01*
X020202Y015694D01*
X020189Y015693D01*
X020188Y015693D02*
X020188Y015693D01*
X020173Y015695D01*
X020159Y015700D01*
X020147Y015707D01*
X020136Y015718D01*
X020129Y015730D01*
X020124Y015744D01*
X020122Y015759D01*
X020122Y015820D01*
X020120Y015837D01*
X020115Y015854D01*
X020107Y015869D01*
X020096Y015882D01*
X020083Y015893D01*
X020068Y015901D01*
X020051Y015906D01*
X020034Y015908D01*
X020023Y015908D01*
X020006Y015906D01*
X019989Y015901D01*
X019974Y015893D01*
X019961Y015882D01*
X019950Y015869D01*
X019942Y015854D01*
X019937Y015837D01*
X019935Y015820D01*
X019935Y015753D01*
X019933Y015739D01*
X019929Y015727D01*
X019922Y015715D01*
X019912Y015705D01*
X019900Y015698D01*
X019888Y015694D01*
X019874Y015692D01*
X019874Y015693D02*
X019859Y015695D01*
X019845Y015700D01*
X019833Y015707D01*
X019822Y015718D01*
X019815Y015730D01*
X019810Y015744D01*
X019808Y015759D01*
X019808Y016101D01*
X019482Y017282D02*
X020707Y017216D01*
X020708Y017217D02*
X020721Y017214D01*
X020734Y017208D01*
X020744Y017199D01*
X020752Y017188D01*
X020757Y017175D01*
X020758Y017161D01*
X020755Y017148D01*
X020749Y017135D01*
X020740Y017125D01*
X020729Y017117D01*
X020716Y017112D01*
X020702Y017111D01*
X019118Y017194D01*
X019118Y017193D02*
X019097Y017195D01*
X019077Y017200D01*
X019058Y017208D01*
X019040Y017218D01*
X019024Y017232D01*
X019010Y017248D01*
X019000Y017266D01*
X018992Y017285D01*
X018987Y017305D01*
X018985Y017326D01*
X018985Y017906D01*
X018987Y017929D01*
X018992Y017950D01*
X019001Y017971D01*
X019013Y017991D01*
X019027Y018008D01*
X019044Y018022D01*
X019064Y018034D01*
X019085Y018043D01*
X019106Y018048D01*
X019129Y018050D01*
X019129Y018049D02*
X020702Y018132D01*
X020715Y018130D01*
X020728Y018124D01*
X020739Y018115D01*
X020747Y018104D01*
X020752Y018091D01*
X020754Y018077D01*
X020752Y018063D01*
X020747Y018050D01*
X020739Y018039D01*
X020728Y018030D01*
X020715Y018024D01*
X020702Y018022D01*
X019504Y017967D01*
X019476Y017967D01*
X019452Y017965D01*
X019429Y017960D01*
X019407Y017952D01*
X019386Y017941D01*
X019367Y017926D01*
X019351Y017910D01*
X019336Y017891D01*
X019325Y017870D01*
X019317Y017848D01*
X019312Y017825D01*
X019310Y017801D01*
X019311Y017801D02*
X019311Y017453D01*
X019313Y017429D01*
X019318Y017405D01*
X019326Y017382D01*
X019338Y017361D01*
X019353Y017341D01*
X019370Y017324D01*
X019390Y017309D01*
X019411Y017297D01*
X019434Y017289D01*
X019458Y017284D01*
X019482Y017282D01*
X019162Y018287D02*
X020608Y018353D01*
X020624Y018353D01*
X020646Y018355D01*
X020667Y018360D01*
X020687Y018368D01*
X020705Y018379D01*
X020722Y018393D01*
X020736Y018410D01*
X020747Y018428D01*
X020755Y018448D01*
X020760Y018469D01*
X020762Y018491D01*
X020762Y019098D01*
X020486Y018684D02*
X019145Y018772D01*
X019145Y018773D02*
X019133Y018775D01*
X019122Y018781D01*
X019113Y018789D01*
X019106Y018799D01*
X019102Y018810D01*
X019101Y018822D01*
X019101Y019098D01*
X019156Y018403D02*
X020492Y018491D01*
X020492Y018490D02*
X020511Y018493D01*
X020528Y018500D01*
X020544Y018509D01*
X020558Y018522D01*
X020569Y018537D01*
X020577Y018553D01*
X020582Y018571D01*
X020583Y018590D01*
X020581Y018608D01*
X020575Y018626D01*
X020566Y018642D01*
X020554Y018656D01*
X020539Y018668D01*
X020523Y018677D01*
X020505Y018682D01*
X020487Y018684D01*
X019156Y018403D02*
X019142Y018401D01*
X019130Y018395D01*
X019118Y018386D01*
X019110Y018376D01*
X019104Y018363D01*
X019101Y018349D01*
X019102Y018335D01*
X019106Y018322D01*
X019113Y018310D01*
X019123Y018300D01*
X019134Y018292D01*
X019148Y018288D01*
X019162Y018287D01*
X018097Y018480D02*
X017865Y018480D01*
X017843Y018482D01*
X017822Y018487D01*
X017802Y018495D01*
X017784Y018506D01*
X017767Y018520D01*
X017753Y018537D01*
X017742Y018555D01*
X017734Y018575D01*
X017729Y018596D01*
X017727Y018618D01*
X018210Y020702D02*
X018210Y021315D01*
X018134Y021239D02*
X018287Y021239D01*
X018364Y021162D01*
X018517Y021085D02*
X018671Y021239D01*
X018671Y020778D01*
X018824Y020778D02*
X018517Y020778D01*
X018364Y020855D02*
X018364Y020932D01*
X018287Y021008D01*
X018134Y021008D01*
X018057Y021085D01*
X018057Y021162D01*
X018134Y021239D01*
X017904Y021239D02*
X017904Y020855D01*
X017827Y020778D01*
X017673Y020778D01*
X017597Y020855D01*
X017597Y021239D01*
X018057Y020855D02*
X018134Y020778D01*
X018287Y020778D01*
X018364Y020855D01*
X018978Y020855D02*
X019054Y020778D01*
X019208Y020778D01*
X019285Y020855D01*
X019285Y021008D01*
X019208Y021085D01*
X019131Y021085D01*
X018978Y021008D01*
X018978Y021239D01*
X019285Y021239D01*
X019241Y022452D02*
X019010Y022452D01*
X019010Y022912D01*
X019241Y022912D01*
X019317Y022835D01*
X019317Y022528D01*
X019241Y022452D01*
X019471Y022452D02*
X019778Y022758D01*
X019778Y022835D01*
X019701Y022912D01*
X019547Y022912D01*
X019471Y022835D01*
X019471Y022452D02*
X019778Y022452D01*
X018857Y022452D02*
X018550Y022452D01*
X018550Y022912D01*
X018857Y022912D01*
X018704Y022682D02*
X018550Y022682D01*
X018397Y022452D02*
X018090Y022452D01*
X018090Y022912D01*
X017775Y025430D02*
X017468Y025430D01*
X017391Y025507D01*
X017391Y025661D01*
X017468Y025737D01*
X017391Y025891D02*
X017391Y026198D01*
X017391Y026044D02*
X017851Y026044D01*
X017775Y025737D02*
X017851Y025661D01*
X017851Y025507D01*
X017775Y025430D01*
X017775Y026351D02*
X017851Y026428D01*
X017851Y026581D01*
X017775Y026658D01*
X017698Y026658D01*
X017621Y026581D01*
X017621Y026428D01*
X017544Y026351D01*
X017468Y026351D01*
X017391Y026428D01*
X017391Y026581D01*
X017468Y026658D01*
X016851Y026658D02*
X016391Y026351D01*
X016391Y026198D02*
X016391Y025891D01*
X016391Y026044D02*
X016851Y026044D01*
X016851Y026351D02*
X016391Y026658D01*
X012851Y026658D02*
X012391Y026351D01*
X012468Y026198D02*
X012621Y026198D01*
X012698Y026121D01*
X012698Y025891D01*
X012698Y026044D02*
X012851Y026198D01*
X012851Y026351D02*
X012391Y026658D01*
X012468Y026198D02*
X012391Y026121D01*
X012391Y025891D01*
X012851Y025891D01*
X011851Y026044D02*
X011391Y026044D01*
X011851Y026044D01*
X011851Y025737D02*
X011698Y025584D01*
X011851Y025737D01*
X011698Y025661D02*
X011698Y025430D01*
X011698Y025661D01*
X011621Y025737D01*
X011468Y025737D01*
X011391Y025661D01*
X011391Y025430D01*
X011851Y025430D01*
X011391Y025430D01*
X011391Y025661D01*
X011468Y025737D01*
X011621Y025737D01*
X011698Y025661D01*
X011391Y025891D02*
X011391Y026198D01*
X011391Y025891D01*
X011468Y026351D02*
X011391Y026428D01*
X011391Y026581D01*
X011468Y026658D01*
X011391Y026581D01*
X011391Y026428D01*
X011468Y026351D01*
X011544Y026351D01*
X011621Y026428D01*
X011621Y026581D01*
X011698Y026658D01*
X011775Y026658D01*
X011851Y026581D01*
X011851Y026428D01*
X011775Y026351D01*
X011851Y026428D01*
X011851Y026581D01*
X011775Y026658D01*
X011698Y026658D01*
X011621Y026581D01*
X011621Y026428D01*
X011544Y026351D01*
X011468Y026351D01*
X009791Y026428D02*
X009715Y026351D01*
X009791Y026428D02*
X009791Y026581D01*
X009715Y026658D01*
X009638Y026658D01*
X009561Y026581D01*
X009561Y026428D01*
X009484Y026351D01*
X009408Y026351D01*
X009331Y026428D01*
X009331Y026581D01*
X009408Y026658D01*
X009331Y026198D02*
X009331Y025891D01*
X009331Y026044D02*
X009791Y026044D01*
X009715Y025737D02*
X009791Y025661D01*
X009791Y025507D01*
X009715Y025430D01*
X009408Y025430D01*
X009331Y025507D01*
X009331Y025661D01*
X009408Y025737D01*
X008791Y026044D02*
X008331Y026044D01*
X008331Y025891D02*
X008331Y026198D01*
X008331Y026351D02*
X008791Y026658D01*
X008791Y026351D02*
X008331Y026658D01*
X004791Y026658D02*
X004331Y026351D01*
X004408Y026198D02*
X004561Y026198D01*
X004638Y026121D01*
X004638Y025891D01*
X004638Y026044D02*
X004791Y026198D01*
X004791Y026351D02*
X004331Y026658D01*
X004408Y026198D02*
X004331Y026121D01*
X004331Y025891D01*
X004791Y025891D01*
X003791Y026044D02*
X003331Y026044D01*
X003791Y026044D01*
X003791Y025737D02*
X003638Y025584D01*
X003791Y025737D01*
X003638Y025661D02*
X003638Y025430D01*
X003638Y025661D01*
X003561Y025737D01*
X003408Y025737D01*
X003331Y025661D01*
X003331Y025430D01*
X003791Y025430D01*
X003331Y025430D01*
X003331Y025661D01*
X003408Y025737D01*
X003561Y025737D01*
X003638Y025661D01*
X003331Y025891D02*
X003331Y026198D01*
X003331Y025891D01*
X003408Y026351D02*
X003484Y026351D01*
X003561Y026428D01*
X003561Y026581D01*
X003638Y026658D01*
X003715Y026658D01*
X003791Y026581D01*
X003791Y026428D01*
X003715Y026351D01*
X003791Y026428D01*
X003791Y026581D01*
X003715Y026658D01*
X003638Y026658D01*
X003561Y026581D01*
X003561Y026428D01*
X003484Y026351D01*
X003408Y026351D01*
X003331Y026428D01*
X003331Y026581D01*
X003408Y026658D01*
X003331Y026581D01*
X003331Y026428D01*
X003408Y026351D01*
X003055Y025112D02*
X002902Y024958D01*
X002749Y024958D02*
X002672Y024882D01*
X002442Y024882D01*
X002532Y024722D02*
X002302Y024722D01*
X002302Y024262D01*
X002532Y024262D01*
X002609Y024338D01*
X002609Y024645D01*
X002532Y024722D01*
X002442Y024652D02*
X002672Y024652D01*
X002749Y024728D01*
X002749Y024805D01*
X002672Y024882D01*
X002749Y024958D02*
X002749Y025035D01*
X002672Y025112D01*
X002442Y025112D01*
X002442Y024652D01*
X002288Y024652D02*
X001981Y025112D01*
X002288Y025112D02*
X001981Y024652D01*
X001977Y024662D02*
X002131Y024662D01*
X002208Y024585D01*
X002208Y024508D01*
X002131Y024432D01*
X002208Y024355D01*
X002208Y024278D01*
X002131Y024202D01*
X001977Y024202D01*
X001901Y024278D01*
X001842Y024262D02*
X002149Y024262D01*
X002131Y024432D02*
X002054Y024432D01*
X001995Y024492D02*
X001842Y024492D01*
X001901Y024585D02*
X001977Y024662D01*
X001842Y024722D02*
X002149Y024722D01*
X001842Y024722D02*
X001842Y024262D01*
X001747Y024202D02*
X001440Y024202D01*
X001381Y024262D02*
X001688Y024262D01*
X001594Y024202D02*
X001594Y024662D01*
X001440Y024508D01*
X001287Y024585D02*
X001210Y024662D01*
X001057Y024662D01*
X000980Y024585D01*
X000980Y024508D01*
X001057Y024432D01*
X001210Y024432D01*
X001287Y024355D01*
X001287Y024278D01*
X001210Y024202D01*
X001057Y024202D01*
X000980Y024278D01*
X000827Y024278D02*
X000750Y024202D01*
X000596Y024202D01*
X000520Y024278D01*
X000520Y024662D01*
X000827Y024662D02*
X000827Y024278D01*
X000827Y024002D02*
X000827Y023618D01*
X000750Y023542D01*
X000596Y023542D01*
X000520Y023618D01*
X000520Y024002D01*
X000980Y023925D02*
X001057Y024002D01*
X001210Y024002D01*
X001287Y023925D01*
X001210Y023772D02*
X001057Y023772D01*
X000980Y023848D01*
X000980Y023925D01*
X001134Y024079D02*
X001134Y023465D01*
X001210Y023542D02*
X001287Y023618D01*
X001287Y023695D01*
X001210Y023772D01*
X001210Y023542D02*
X001057Y023542D01*
X000980Y023618D01*
X001440Y023542D02*
X001747Y023542D01*
X001594Y023542D02*
X001594Y024002D01*
X001440Y023848D01*
X001134Y024125D02*
X001134Y024739D01*
X001381Y024722D02*
X001381Y024262D01*
X001901Y023772D02*
X002208Y023772D01*
X002131Y023542D02*
X002131Y024002D01*
X001901Y023772D01*
X002762Y024262D02*
X003069Y024262D01*
X002916Y024262D02*
X002916Y024722D01*
X002762Y024568D01*
X002902Y024652D02*
X003209Y024652D01*
X003055Y024652D02*
X003055Y025112D01*
X015581Y020949D02*
X015581Y020642D01*
X015811Y020642D01*
X015734Y020796D01*
X015734Y020872D01*
X015811Y020949D01*
X015965Y020949D01*
X016041Y020872D01*
X016041Y020719D01*
X015965Y020642D01*
X015811Y020489D02*
X015811Y020182D01*
X015581Y020412D01*
X016041Y020412D01*
X016041Y020028D02*
X015888Y019875D01*
X015888Y019952D02*
X015888Y019722D01*
X016041Y019722D02*
X015581Y019722D01*
X015581Y019952D01*
X015658Y020028D01*
X015811Y020028D01*
X015888Y019952D01*
D16*
X019691Y015522D02*
X019441Y015272D01*
X019441Y014772D01*
X019691Y014522D01*
X019441Y014272D01*
X019441Y013772D01*
X019691Y013522D01*
X019441Y013272D01*
X019441Y012772D01*
X019691Y012522D01*
X019441Y012272D01*
X019441Y011772D01*
X019691Y011522D01*
X019441Y011272D01*
X019441Y010772D01*
X019691Y010522D01*
X019441Y010272D01*
X019441Y009772D01*
X019691Y009522D01*
X020191Y009522D01*
X020441Y009772D01*
X020441Y010272D01*
X020191Y010522D01*
X020441Y010772D01*
X020441Y011272D01*
X020191Y011522D01*
X020441Y011772D01*
X020441Y012272D01*
X020191Y012522D01*
X020441Y012772D01*
X020441Y013272D01*
X020191Y013522D01*
X020441Y013772D01*
X020441Y014272D01*
X020191Y014522D01*
X020441Y014772D01*
X020441Y015272D01*
X020191Y015522D01*
X019691Y015522D01*
X009625Y014886D02*
X008557Y014886D01*
X008557Y014489D01*
X008557Y013514D02*
X008557Y013097D01*
X009625Y013097D01*
X009628Y013623D02*
X009628Y013764D01*
X009628Y014213D02*
X009628Y014355D01*
X009389Y018172D02*
X003161Y018172D01*
X003161Y020261D02*
X009389Y020261D01*
X000606Y014268D02*
X000550Y014268D01*
X000323Y014495D01*
X000266Y014495D01*
X000266Y014268D01*
X000266Y014013D02*
X000606Y014013D01*
X000606Y013900D02*
X000606Y014127D01*
X000379Y013900D02*
X000266Y014013D01*
X000323Y013758D02*
X000266Y013702D01*
X000266Y013588D01*
X000323Y013532D01*
X000550Y013532D01*
X000606Y013588D01*
X000606Y013702D01*
X000550Y013758D01*
D17*
X000824Y014689D03*
X011264Y013359D03*
D18*
X012139Y013359D03*
X001699Y014689D03*
D19*
X010851Y012734D02*
X010851Y012664D01*
X010886Y012629D01*
X011026Y012629D01*
X010886Y012769D01*
X011026Y012769D01*
X011061Y012734D01*
X011061Y012664D01*
X011026Y012629D01*
X011061Y012548D02*
X011061Y012408D01*
X010921Y012548D01*
X010886Y012548D01*
X010851Y012513D01*
X010851Y012443D01*
X010886Y012408D01*
X010886Y012327D02*
X010851Y012292D01*
X010851Y012222D01*
X010886Y012187D01*
X011026Y012187D01*
X011061Y012222D01*
X011061Y012292D01*
X011026Y012327D01*
X010851Y012734D02*
X010886Y012769D01*
D20*
X010591Y001672D02*
X000341Y001672D01*
X000341Y008372D01*
X000341Y027372D01*
X010591Y027372D01*
X020841Y027372D01*
X020841Y014522D01*
X020841Y008872D01*
X020841Y001672D01*
X010591Y001672D01*
D21*
X010591Y001872D01*
X010591Y027222D02*
X010591Y027372D01*
D22*
X019352Y023668D03*
X019352Y023195D03*
X001920Y023505D03*
X001920Y023978D03*
D23*
X001920Y023742D03*
X019352Y023432D03*
D24*
X008151Y019362D03*
M02*
