G75*
G70*
%OFA0B0*%
%FSLAX24Y24*%
%IPPOS*%
%LPD*%
%AMOC8*
5,1,8,0,0,1.08239X$1,22.5*
%
%ADD10C,0.0760*%
%ADD11C,0.0650*%
%ADD12R,0.0250X0.0500*%
%ADD13R,0.0500X0.0250*%
%ADD14C,0.0060*%
%ADD15C,0.0310*%
%ADD16C,0.0120*%
%ADD17C,0.0396*%
%ADD18C,0.0475*%
%ADD19C,0.0560*%
D10*
X009575Y013785D03*
X010575Y013785D03*
X010696Y005086D03*
X009696Y005086D03*
D11*
X001695Y005085D03*
X002695Y005085D03*
X003695Y005085D03*
X004695Y005085D03*
X005695Y005085D03*
X006695Y005085D03*
X007695Y005085D03*
D12*
X007811Y007555D03*
X007338Y007555D03*
X006866Y007555D03*
X006394Y007555D03*
X005921Y007555D03*
X005449Y007555D03*
X004976Y007555D03*
X004976Y012752D03*
X005449Y012752D03*
X005921Y012752D03*
X006394Y012752D03*
X006866Y012752D03*
X007338Y012752D03*
X007811Y012752D03*
X008283Y012752D03*
X008756Y012752D03*
X009228Y012752D03*
X009701Y012752D03*
X010173Y012752D03*
X010173Y007555D03*
X009701Y007555D03*
X009228Y007555D03*
X008756Y007555D03*
X008283Y007555D03*
D13*
X011275Y008539D03*
X011275Y008933D03*
X011275Y009445D03*
X011275Y009917D03*
X011275Y010390D03*
X011275Y010862D03*
X011275Y011374D03*
X011275Y011768D03*
D14*
X011655Y011744D02*
X011705Y011744D01*
X011705Y011686D02*
X011655Y011686D01*
X011655Y011627D02*
X011705Y011627D01*
X011705Y011569D02*
X011635Y011569D01*
X011655Y011589D02*
X011655Y011946D01*
X011579Y012023D01*
X010972Y012023D01*
X010895Y011946D01*
X010895Y011589D01*
X010972Y011513D01*
X011579Y011513D01*
X011655Y011589D01*
X011705Y011510D02*
X004815Y011510D01*
X004815Y011452D02*
X011705Y011452D01*
X011705Y011393D02*
X004815Y011393D01*
X004815Y011335D02*
X011705Y011335D01*
X011705Y011276D02*
X004815Y011276D01*
X004815Y011218D02*
X011705Y011218D01*
X011705Y011159D02*
X004815Y011159D01*
X004815Y011100D02*
X010955Y011100D01*
X010972Y011117D02*
X010895Y011041D01*
X010895Y010683D01*
X010953Y010626D01*
X010895Y010569D01*
X010895Y010211D01*
X010953Y010153D01*
X010895Y010096D01*
X010895Y009738D01*
X010953Y009681D01*
X010895Y009624D01*
X010895Y009266D01*
X010972Y009190D01*
X011579Y009190D01*
X011655Y009266D01*
X011655Y009624D01*
X011598Y009681D01*
X011655Y009738D01*
X011655Y010096D01*
X011598Y010153D01*
X011655Y010211D01*
X011655Y010569D01*
X011598Y010626D01*
X011655Y010683D01*
X011655Y011041D01*
X011579Y011117D01*
X010972Y011117D01*
X010896Y011042D02*
X004815Y011042D01*
X004815Y010983D02*
X010895Y010983D01*
X010895Y010925D02*
X004815Y010925D01*
X004815Y010866D02*
X010895Y010866D01*
X010895Y010808D02*
X004815Y010808D01*
X004815Y010749D02*
X010895Y010749D01*
X010895Y010691D02*
X004815Y010691D01*
X004815Y010632D02*
X010947Y010632D01*
X010901Y010574D02*
X006460Y010574D01*
X006447Y010587D02*
X006342Y010630D01*
X006229Y010630D01*
X006124Y010587D01*
X006044Y010506D01*
X006000Y010402D01*
X006000Y010288D01*
X006041Y010190D01*
X006034Y010187D01*
X005954Y010106D01*
X005910Y010002D01*
X005910Y009888D01*
X005949Y009795D01*
X005277Y009795D01*
X005114Y009795D01*
X004963Y009733D01*
X004910Y009680D01*
X004910Y009702D01*
X004867Y009806D01*
X004815Y009858D01*
X004815Y012146D01*
X004815Y012304D01*
X004580Y012539D01*
X004580Y012612D01*
X004537Y012716D01*
X004457Y012797D01*
X004352Y012840D01*
X004239Y012840D01*
X004235Y012839D01*
X004235Y015775D01*
X011705Y015775D01*
X011705Y006155D01*
X007835Y006165D01*
X007835Y005519D01*
X007786Y005540D01*
X007605Y005540D01*
X007438Y005471D01*
X007310Y005343D01*
X007241Y005176D01*
X007241Y004995D01*
X007310Y004827D01*
X007438Y004699D01*
X007605Y004630D01*
X007786Y004630D01*
X007835Y004651D01*
X007835Y004485D01*
X004235Y004485D01*
X004235Y006425D01*
X004285Y006375D01*
X004285Y005284D01*
X004241Y005176D01*
X004241Y004995D01*
X004310Y004827D01*
X004438Y004699D01*
X004605Y004630D01*
X004786Y004630D01*
X004953Y004699D01*
X005081Y004827D01*
X005150Y004995D01*
X005150Y005176D01*
X005105Y005284D01*
X005105Y006627D01*
X005043Y006777D01*
X004928Y006893D01*
X004555Y007265D01*
X004555Y008165D01*
X005078Y008687D01*
X005365Y008975D01*
X007377Y008975D01*
X007528Y009037D01*
X007643Y009153D01*
X007705Y009303D01*
X007705Y009467D01*
X007643Y009617D01*
X007528Y009733D01*
X007377Y009795D01*
X007072Y009795D01*
X007092Y009815D01*
X008039Y009815D01*
X008305Y009549D01*
X008305Y008049D01*
X008399Y007955D01*
X008399Y007955D01*
X008419Y007935D01*
X008104Y007935D01*
X008047Y007878D01*
X007990Y007935D01*
X007632Y007935D01*
X007575Y007878D01*
X007517Y007935D01*
X007160Y007935D01*
X007102Y007878D01*
X007045Y007935D01*
X006687Y007935D01*
X006630Y007878D01*
X006572Y007935D01*
X006215Y007935D01*
X006157Y007878D01*
X006100Y007935D01*
X005742Y007935D01*
X005685Y007878D01*
X005627Y007935D01*
X005270Y007935D01*
X005212Y007878D01*
X005155Y007935D01*
X004797Y007935D01*
X004721Y007859D01*
X004721Y007251D01*
X004797Y007175D01*
X005155Y007175D01*
X005212Y007232D01*
X005270Y007175D01*
X005627Y007175D01*
X005685Y007232D01*
X005739Y007179D01*
X005734Y007177D01*
X005654Y007096D01*
X005610Y006992D01*
X005610Y006878D01*
X005654Y006774D01*
X005734Y006693D01*
X005839Y006650D01*
X005952Y006650D01*
X006057Y006693D01*
X006137Y006774D01*
X006138Y006775D01*
X006164Y006775D01*
X006144Y006767D01*
X006064Y006686D01*
X006020Y006582D01*
X006020Y006468D01*
X006064Y006364D01*
X006144Y006283D01*
X006249Y006240D01*
X006362Y006240D01*
X006467Y006283D01*
X006547Y006364D01*
X006590Y006468D01*
X006590Y006475D01*
X009662Y006475D01*
X009755Y006569D01*
X010333Y007146D01*
X010333Y007175D01*
X010352Y007175D01*
X010428Y007251D01*
X010428Y007859D01*
X010352Y007935D01*
X009994Y007935D01*
X009937Y007878D01*
X009879Y007935D01*
X009861Y007935D01*
X009861Y007996D01*
X009735Y008121D01*
X009642Y008215D01*
X008772Y008215D01*
X008745Y008241D01*
X008745Y009609D01*
X008745Y009741D01*
X008075Y010411D01*
X007982Y010505D01*
X006528Y010505D01*
X006527Y010506D01*
X006447Y010587D01*
X006518Y010515D02*
X010895Y010515D01*
X010895Y010456D02*
X008030Y010456D01*
X008089Y010398D02*
X010895Y010398D01*
X010895Y010339D02*
X008147Y010339D01*
X008206Y010281D02*
X010895Y010281D01*
X010895Y010222D02*
X008264Y010222D01*
X008323Y010164D02*
X010943Y010164D01*
X010905Y010105D02*
X008381Y010105D01*
X008440Y010047D02*
X010895Y010047D01*
X010895Y009988D02*
X008499Y009988D01*
X008557Y009930D02*
X010895Y009930D01*
X010895Y009871D02*
X008616Y009871D01*
X008674Y009812D02*
X010895Y009812D01*
X010895Y009754D02*
X008733Y009754D01*
X008745Y009695D02*
X010938Y009695D01*
X010909Y009637D02*
X008745Y009637D01*
X008745Y009578D02*
X010895Y009578D01*
X010895Y009520D02*
X008745Y009520D01*
X008745Y009461D02*
X010895Y009461D01*
X010895Y009403D02*
X008745Y009403D01*
X008745Y009344D02*
X010895Y009344D01*
X010895Y009286D02*
X008745Y009286D01*
X008745Y009227D02*
X010934Y009227D01*
X010972Y008794D02*
X010895Y008718D01*
X010895Y008360D01*
X010972Y008284D01*
X011579Y008284D01*
X011655Y008360D01*
X011655Y008718D01*
X011579Y008794D01*
X010972Y008794D01*
X010936Y008759D02*
X008745Y008759D01*
X008745Y008817D02*
X011705Y008817D01*
X011705Y008759D02*
X011615Y008759D01*
X011655Y008700D02*
X011705Y008700D01*
X011705Y008642D02*
X011655Y008642D01*
X011655Y008583D02*
X011705Y008583D01*
X011705Y008525D02*
X011655Y008525D01*
X011655Y008466D02*
X011705Y008466D01*
X011705Y008407D02*
X011655Y008407D01*
X011644Y008349D02*
X011705Y008349D01*
X011705Y008290D02*
X011585Y008290D01*
X011705Y008232D02*
X008755Y008232D01*
X008745Y008290D02*
X010966Y008290D01*
X010907Y008349D02*
X008745Y008349D01*
X008745Y008407D02*
X010895Y008407D01*
X010895Y008466D02*
X008745Y008466D01*
X008745Y008525D02*
X010895Y008525D01*
X010895Y008583D02*
X008745Y008583D01*
X008745Y008642D02*
X010895Y008642D01*
X010895Y008700D02*
X008745Y008700D01*
X008745Y008876D02*
X011705Y008876D01*
X011705Y008934D02*
X008745Y008934D01*
X008745Y008993D02*
X011705Y008993D01*
X011705Y009051D02*
X008745Y009051D01*
X008745Y009110D02*
X011705Y009110D01*
X011705Y009169D02*
X008745Y009169D01*
X008465Y009615D02*
X008465Y008115D01*
X008756Y007825D01*
X008756Y007555D01*
X008745Y007545D01*
X008705Y008055D02*
X008585Y008175D01*
X008585Y009675D01*
X007915Y010345D01*
X006285Y010345D01*
X006111Y010574D02*
X004815Y010574D01*
X004815Y010515D02*
X006052Y010515D01*
X006023Y010456D02*
X004815Y010456D01*
X004815Y010398D02*
X006000Y010398D01*
X006000Y010339D02*
X004815Y010339D01*
X004815Y010281D02*
X006004Y010281D01*
X006028Y010222D02*
X004815Y010222D01*
X004815Y010164D02*
X006011Y010164D01*
X005953Y010105D02*
X004815Y010105D01*
X004815Y010047D02*
X005929Y010047D01*
X005910Y009988D02*
X004815Y009988D01*
X004815Y009930D02*
X005910Y009930D01*
X005918Y009871D02*
X004815Y009871D01*
X004861Y009812D02*
X005942Y009812D01*
X006195Y009945D02*
X006355Y009945D01*
X006495Y009805D01*
X006855Y009805D01*
X007025Y009975D01*
X008105Y009975D01*
X008465Y009615D01*
X008305Y009520D02*
X007683Y009520D01*
X007705Y009461D02*
X008305Y009461D01*
X008305Y009403D02*
X007705Y009403D01*
X007705Y009344D02*
X008305Y009344D01*
X008305Y009286D02*
X007698Y009286D01*
X007674Y009227D02*
X008305Y009227D01*
X008305Y009169D02*
X007649Y009169D01*
X007600Y009110D02*
X008305Y009110D01*
X008305Y009051D02*
X007542Y009051D01*
X007420Y008993D02*
X008305Y008993D01*
X008305Y008934D02*
X005325Y008934D01*
X005266Y008876D02*
X008305Y008876D01*
X008305Y008817D02*
X005207Y008817D01*
X005149Y008759D02*
X008305Y008759D01*
X008305Y008700D02*
X005090Y008700D01*
X005032Y008642D02*
X008305Y008642D01*
X008305Y008583D02*
X004973Y008583D01*
X004915Y008525D02*
X008305Y008525D01*
X008305Y008466D02*
X004856Y008466D01*
X004798Y008407D02*
X008305Y008407D01*
X008305Y008349D02*
X004739Y008349D01*
X004681Y008290D02*
X008305Y008290D01*
X008305Y008232D02*
X004622Y008232D01*
X004563Y008173D02*
X008305Y008173D01*
X008305Y008115D02*
X004555Y008115D01*
X004555Y008056D02*
X008305Y008056D01*
X008357Y007998D02*
X004555Y007998D01*
X004555Y007939D02*
X008415Y007939D01*
X008705Y008055D02*
X009575Y008055D01*
X009701Y007930D01*
X009701Y007555D01*
X009934Y007881D02*
X009940Y007881D01*
X009861Y007939D02*
X011705Y007939D01*
X011705Y007881D02*
X010406Y007881D01*
X010428Y007822D02*
X011705Y007822D01*
X011705Y007763D02*
X010428Y007763D01*
X010428Y007705D02*
X011705Y007705D01*
X011705Y007646D02*
X010428Y007646D01*
X010428Y007588D02*
X011705Y007588D01*
X011705Y007529D02*
X010428Y007529D01*
X010428Y007471D02*
X011705Y007471D01*
X011705Y007412D02*
X010428Y007412D01*
X010428Y007354D02*
X011705Y007354D01*
X011705Y007295D02*
X010428Y007295D01*
X010413Y007237D02*
X011705Y007237D01*
X011705Y007178D02*
X010355Y007178D01*
X010306Y007119D02*
X011705Y007119D01*
X011705Y007061D02*
X010248Y007061D01*
X010189Y007002D02*
X011705Y007002D01*
X011705Y006944D02*
X010131Y006944D01*
X010072Y006885D02*
X011705Y006885D01*
X011705Y006827D02*
X010013Y006827D01*
X009955Y006768D02*
X011705Y006768D01*
X011705Y006710D02*
X009896Y006710D01*
X009838Y006651D02*
X011705Y006651D01*
X011705Y006593D02*
X009779Y006593D01*
X009721Y006534D02*
X011705Y006534D01*
X011705Y006476D02*
X009662Y006476D01*
X009595Y006635D02*
X006415Y006635D01*
X006305Y006525D01*
X006128Y006300D02*
X005105Y006300D01*
X005105Y006358D02*
X006069Y006358D01*
X006042Y006417D02*
X005105Y006417D01*
X005105Y006476D02*
X006020Y006476D01*
X006020Y006534D02*
X005105Y006534D01*
X005105Y006593D02*
X006025Y006593D01*
X006049Y006651D02*
X005955Y006651D01*
X005836Y006651D02*
X005095Y006651D01*
X005071Y006710D02*
X005718Y006710D01*
X005659Y006768D02*
X005047Y006768D01*
X004993Y006827D02*
X005632Y006827D01*
X005610Y006885D02*
X004935Y006885D01*
X004876Y006944D02*
X005610Y006944D01*
X005615Y007002D02*
X004818Y007002D01*
X004759Y007061D02*
X005639Y007061D01*
X005677Y007119D02*
X004701Y007119D01*
X004642Y007178D02*
X004794Y007178D01*
X004736Y007237D02*
X004584Y007237D01*
X004555Y007295D02*
X004721Y007295D01*
X004721Y007354D02*
X004555Y007354D01*
X004555Y007412D02*
X004721Y007412D01*
X004721Y007471D02*
X004555Y007471D01*
X004555Y007529D02*
X004721Y007529D01*
X004721Y007588D02*
X004555Y007588D01*
X004555Y007646D02*
X004721Y007646D01*
X004721Y007705D02*
X004555Y007705D01*
X004555Y007763D02*
X004721Y007763D01*
X004721Y007822D02*
X004555Y007822D01*
X004555Y007881D02*
X004743Y007881D01*
X005209Y007881D02*
X005215Y007881D01*
X005682Y007881D02*
X005688Y007881D01*
X005737Y007178D02*
X005630Y007178D01*
X005895Y006935D02*
X006035Y006935D01*
X008995Y006935D01*
X009228Y007168D01*
X009228Y007555D01*
X009742Y008115D02*
X011705Y008115D01*
X011705Y008173D02*
X009683Y008173D01*
X009801Y008056D02*
X011705Y008056D01*
X011705Y007998D02*
X009859Y007998D01*
X010173Y007555D02*
X010173Y007213D01*
X009595Y006635D01*
X010430Y005484D02*
X010298Y005352D01*
X010226Y005180D01*
X010226Y004993D01*
X010298Y004820D01*
X010430Y004688D01*
X010603Y004616D01*
X010790Y004616D01*
X010963Y004688D01*
X011095Y004820D01*
X011166Y004993D01*
X011166Y005180D01*
X011095Y005352D01*
X010963Y005484D01*
X010790Y005556D01*
X010603Y005556D01*
X010430Y005484D01*
X010426Y005480D02*
X007995Y005480D01*
X007995Y005422D02*
X010367Y005422D01*
X010309Y005363D02*
X008004Y005363D01*
X007995Y005372D02*
X008047Y005320D01*
X008110Y005168D01*
X008110Y005002D01*
X008047Y004850D01*
X007995Y004798D01*
X007995Y004485D01*
X011695Y004485D01*
X011695Y005995D01*
X007995Y005995D01*
X007995Y005372D01*
X008053Y005305D02*
X010278Y005305D01*
X010254Y005246D02*
X008078Y005246D01*
X008102Y005188D02*
X010230Y005188D01*
X010226Y005129D02*
X008110Y005129D01*
X008110Y005070D02*
X010226Y005070D01*
X010226Y005012D02*
X008110Y005012D01*
X008090Y004953D02*
X010243Y004953D01*
X010267Y004895D02*
X008066Y004895D01*
X008033Y004836D02*
X010291Y004836D01*
X010340Y004778D02*
X007995Y004778D01*
X007995Y004719D02*
X010399Y004719D01*
X010495Y004661D02*
X007995Y004661D01*
X007995Y004602D02*
X011695Y004602D01*
X011695Y004544D02*
X007995Y004544D01*
X007995Y004485D02*
X011695Y004485D01*
X011695Y004661D02*
X010898Y004661D01*
X010994Y004719D02*
X011695Y004719D01*
X011695Y004778D02*
X011053Y004778D01*
X011102Y004836D02*
X011695Y004836D01*
X011695Y004895D02*
X011126Y004895D01*
X011150Y004953D02*
X011695Y004953D01*
X011695Y005012D02*
X011166Y005012D01*
X011166Y005070D02*
X011695Y005070D01*
X011695Y005129D02*
X011166Y005129D01*
X011163Y005188D02*
X011695Y005188D01*
X011695Y005246D02*
X011139Y005246D01*
X011115Y005305D02*
X011695Y005305D01*
X011695Y005363D02*
X011084Y005363D01*
X011025Y005422D02*
X011695Y005422D01*
X011695Y005480D02*
X010967Y005480D01*
X010831Y005539D02*
X011695Y005539D01*
X011695Y005597D02*
X007995Y005597D01*
X007995Y005539D02*
X010561Y005539D01*
X011695Y005656D02*
X007995Y005656D01*
X007995Y005714D02*
X011695Y005714D01*
X011695Y005773D02*
X007995Y005773D01*
X007995Y005832D02*
X011695Y005832D01*
X011695Y005890D02*
X007995Y005890D01*
X007995Y005949D02*
X011695Y005949D01*
X011705Y006183D02*
X005105Y006183D01*
X005105Y006241D02*
X006246Y006241D01*
X006365Y006241D02*
X011705Y006241D01*
X011705Y006300D02*
X006483Y006300D01*
X006542Y006358D02*
X011705Y006358D01*
X011705Y006417D02*
X006569Y006417D01*
X006148Y006768D02*
X006132Y006768D01*
X006087Y006710D02*
X006073Y006710D01*
X006154Y007881D02*
X006160Y007881D01*
X006627Y007881D02*
X006633Y007881D01*
X007099Y007881D02*
X007105Y007881D01*
X007572Y007881D02*
X007578Y007881D01*
X008044Y007881D02*
X008050Y007881D01*
X008276Y009578D02*
X007659Y009578D01*
X007623Y009637D02*
X008217Y009637D01*
X008159Y009695D02*
X007565Y009695D01*
X007476Y009754D02*
X008100Y009754D01*
X008042Y009812D02*
X007089Y009812D01*
X007045Y012372D02*
X006687Y012372D01*
X006630Y012429D01*
X006572Y012372D01*
X006215Y012372D01*
X006157Y012429D01*
X006100Y012372D01*
X005742Y012372D01*
X005685Y012429D01*
X005627Y012372D01*
X005270Y012372D01*
X005194Y012448D01*
X005194Y013056D01*
X005270Y013132D01*
X005627Y013132D01*
X005685Y013074D01*
X005742Y013132D01*
X006100Y013132D01*
X006157Y013074D01*
X006215Y013132D01*
X006572Y013132D01*
X006630Y013074D01*
X006687Y013132D01*
X007045Y013132D01*
X007102Y013074D01*
X007160Y013132D01*
X007517Y013132D01*
X007575Y013074D01*
X007632Y013132D01*
X007990Y013132D01*
X008047Y013074D01*
X008104Y013132D01*
X008220Y013132D01*
X008147Y013205D01*
X008035Y013316D01*
X008035Y013513D01*
X008034Y013513D01*
X007954Y013594D01*
X007910Y013698D01*
X007910Y013812D01*
X007954Y013916D01*
X008034Y013997D01*
X008139Y014040D01*
X008252Y014040D01*
X008357Y013997D01*
X008437Y013916D01*
X008480Y013812D01*
X008480Y013698D01*
X008437Y013594D01*
X008415Y013572D01*
X008415Y013474D01*
X008544Y013345D01*
X009305Y013345D01*
X009287Y013353D01*
X009143Y013496D01*
X009065Y013684D01*
X009065Y013886D01*
X009143Y014074D01*
X009287Y014217D01*
X009474Y014295D01*
X009677Y014295D01*
X009864Y014217D01*
X010008Y014074D01*
X010085Y013886D01*
X010085Y013684D01*
X010008Y013496D01*
X009864Y013353D01*
X009710Y013289D01*
X009779Y013220D01*
X009867Y013132D01*
X009879Y013132D01*
X009956Y013056D01*
X009956Y012448D01*
X009879Y012372D01*
X009522Y012372D01*
X009464Y012429D01*
X009407Y012372D01*
X009049Y012372D01*
X008992Y012429D01*
X008935Y012372D01*
X008577Y012372D01*
X008519Y012429D01*
X008462Y012372D01*
X008104Y012372D01*
X008047Y012429D01*
X007990Y012372D01*
X007632Y012372D01*
X007575Y012429D01*
X007517Y012372D01*
X007160Y012372D01*
X007102Y012429D01*
X007045Y012372D01*
X007061Y012388D02*
X007143Y012388D01*
X007534Y012388D02*
X007616Y012388D01*
X008006Y012388D02*
X008088Y012388D01*
X008479Y012388D02*
X008560Y012388D01*
X008951Y012388D02*
X009033Y012388D01*
X009423Y012388D02*
X009505Y012388D01*
X009701Y012752D02*
X009701Y012850D01*
X009850Y013149D02*
X011705Y013149D01*
X011705Y013091D02*
X009920Y013091D01*
X009956Y013032D02*
X011705Y013032D01*
X011705Y012974D02*
X009956Y012974D01*
X009956Y012915D02*
X011705Y012915D01*
X011705Y012857D02*
X009956Y012857D01*
X009956Y012798D02*
X011705Y012798D01*
X011705Y012740D02*
X009956Y012740D01*
X009956Y012681D02*
X011705Y012681D01*
X011705Y012623D02*
X009956Y012623D01*
X009956Y012564D02*
X011705Y012564D01*
X011705Y012505D02*
X009956Y012505D01*
X009954Y012447D02*
X011705Y012447D01*
X011705Y012388D02*
X009896Y012388D01*
X009791Y013208D02*
X011705Y013208D01*
X011705Y013267D02*
X009733Y013267D01*
X009798Y013325D02*
X011705Y013325D01*
X011705Y013384D02*
X009895Y013384D01*
X009954Y013442D02*
X011705Y013442D01*
X011705Y013501D02*
X010010Y013501D01*
X010034Y013559D02*
X011705Y013559D01*
X011705Y013618D02*
X010058Y013618D01*
X010082Y013676D02*
X011705Y013676D01*
X011705Y013735D02*
X010085Y013735D01*
X010085Y013793D02*
X011705Y013793D01*
X011705Y013852D02*
X010085Y013852D01*
X010075Y013911D02*
X011705Y013911D01*
X011705Y013969D02*
X010051Y013969D01*
X010027Y014028D02*
X011705Y014028D01*
X011705Y014086D02*
X009996Y014086D01*
X009937Y014145D02*
X011705Y014145D01*
X011705Y014203D02*
X009878Y014203D01*
X009757Y014262D02*
X011705Y014262D01*
X011705Y014320D02*
X004235Y014320D01*
X004235Y014262D02*
X009394Y014262D01*
X009272Y014203D02*
X004235Y014203D01*
X004235Y014145D02*
X009214Y014145D01*
X009155Y014086D02*
X004235Y014086D01*
X004235Y014028D02*
X008109Y014028D01*
X008006Y013969D02*
X004235Y013969D01*
X004235Y013911D02*
X007951Y013911D01*
X007927Y013852D02*
X004235Y013852D01*
X004235Y013793D02*
X007910Y013793D01*
X007910Y013735D02*
X004235Y013735D01*
X004235Y013676D02*
X007920Y013676D01*
X007944Y013618D02*
X004235Y013618D01*
X004235Y013559D02*
X007988Y013559D01*
X008035Y013501D02*
X004235Y013501D01*
X004235Y013442D02*
X008035Y013442D01*
X008035Y013384D02*
X004235Y013384D01*
X004235Y013325D02*
X008035Y013325D01*
X008085Y013267D02*
X004235Y013267D01*
X004235Y013208D02*
X008144Y013208D01*
X008202Y013149D02*
X004235Y013149D01*
X004235Y013091D02*
X005229Y013091D01*
X005194Y013032D02*
X004235Y013032D01*
X004235Y012974D02*
X005194Y012974D01*
X005194Y012915D02*
X004235Y012915D01*
X004235Y012857D02*
X005194Y012857D01*
X005194Y012798D02*
X004453Y012798D01*
X004514Y012740D02*
X005194Y012740D01*
X005194Y012681D02*
X004552Y012681D01*
X004576Y012623D02*
X005194Y012623D01*
X005194Y012564D02*
X004580Y012564D01*
X004614Y012505D02*
X005194Y012505D01*
X005195Y012447D02*
X004672Y012447D01*
X004731Y012388D02*
X005253Y012388D01*
X005644Y012388D02*
X005726Y012388D01*
X006116Y012388D02*
X006198Y012388D01*
X006589Y012388D02*
X006671Y012388D01*
X006646Y013091D02*
X006613Y013091D01*
X006174Y013091D02*
X006141Y013091D01*
X005701Y013091D02*
X005668Y013091D01*
X004789Y012330D02*
X011705Y012330D01*
X011705Y012271D02*
X004815Y012271D01*
X004815Y012213D02*
X011705Y012213D01*
X011705Y012154D02*
X004815Y012154D01*
X004815Y012096D02*
X011705Y012096D01*
X011705Y012037D02*
X004815Y012037D01*
X004815Y011979D02*
X010928Y011979D01*
X010895Y011920D02*
X004815Y011920D01*
X004815Y011861D02*
X010895Y011861D01*
X010895Y011803D02*
X004815Y011803D01*
X004815Y011744D02*
X010895Y011744D01*
X010895Y011686D02*
X004815Y011686D01*
X004815Y011627D02*
X010895Y011627D01*
X010915Y011569D02*
X004815Y011569D01*
X004889Y009754D02*
X005015Y009754D01*
X004926Y009695D02*
X004910Y009695D01*
X004625Y009645D02*
X004625Y009255D01*
X004845Y009035D01*
X005158Y007178D02*
X005267Y007178D01*
X005105Y006124D02*
X007835Y006124D01*
X007835Y006066D02*
X005105Y006066D01*
X005105Y006007D02*
X007835Y006007D01*
X007835Y005949D02*
X005105Y005949D01*
X005105Y005890D02*
X007835Y005890D01*
X007835Y005832D02*
X005105Y005832D01*
X005105Y005773D02*
X007835Y005773D01*
X007835Y005714D02*
X005105Y005714D01*
X005105Y005656D02*
X007835Y005656D01*
X007835Y005597D02*
X005105Y005597D01*
X005105Y005539D02*
X006603Y005539D01*
X006605Y005540D02*
X006438Y005471D01*
X006310Y005343D01*
X006241Y005176D01*
X006241Y004995D01*
X006310Y004827D01*
X006438Y004699D01*
X006605Y004630D01*
X006786Y004630D01*
X006953Y004699D01*
X007081Y004827D01*
X007150Y004995D01*
X007150Y005176D01*
X007081Y005343D01*
X006953Y005471D01*
X006786Y005540D01*
X006605Y005540D01*
X006461Y005480D02*
X005105Y005480D01*
X005105Y005422D02*
X006389Y005422D01*
X006330Y005363D02*
X005105Y005363D01*
X005105Y005305D02*
X006294Y005305D01*
X006270Y005246D02*
X005121Y005246D01*
X005145Y005188D02*
X006246Y005188D01*
X006241Y005129D02*
X005150Y005129D01*
X005150Y005070D02*
X006241Y005070D01*
X006241Y005012D02*
X005150Y005012D01*
X005133Y004953D02*
X006258Y004953D01*
X006282Y004895D02*
X005109Y004895D01*
X005085Y004836D02*
X006306Y004836D01*
X006360Y004778D02*
X005031Y004778D01*
X004973Y004719D02*
X006418Y004719D01*
X006531Y004661D02*
X004859Y004661D01*
X004531Y004661D02*
X004235Y004661D01*
X004235Y004719D02*
X004418Y004719D01*
X004360Y004778D02*
X004235Y004778D01*
X004235Y004836D02*
X004306Y004836D01*
X004282Y004895D02*
X004235Y004895D01*
X004235Y004953D02*
X004258Y004953D01*
X004241Y005012D02*
X004235Y005012D01*
X004235Y005070D02*
X004241Y005070D01*
X004235Y005129D02*
X004241Y005129D01*
X004235Y005188D02*
X004246Y005188D01*
X004235Y005246D02*
X004270Y005246D01*
X004285Y005305D02*
X004235Y005305D01*
X004235Y005363D02*
X004285Y005363D01*
X004285Y005422D02*
X004235Y005422D01*
X004235Y005480D02*
X004285Y005480D01*
X004285Y005539D02*
X004235Y005539D01*
X004235Y005597D02*
X004285Y005597D01*
X004285Y005656D02*
X004235Y005656D01*
X004235Y005714D02*
X004285Y005714D01*
X004285Y005773D02*
X004235Y005773D01*
X004235Y005832D02*
X004285Y005832D01*
X004285Y005890D02*
X004235Y005890D01*
X004235Y005949D02*
X004285Y005949D01*
X004285Y006007D02*
X004235Y006007D01*
X004235Y006066D02*
X004285Y006066D01*
X004285Y006124D02*
X004235Y006124D01*
X004235Y006183D02*
X004285Y006183D01*
X004285Y006241D02*
X004235Y006241D01*
X004235Y006300D02*
X004285Y006300D01*
X004285Y006358D02*
X004235Y006358D01*
X004235Y006417D02*
X004244Y006417D01*
X004535Y005085D02*
X004695Y005085D01*
X004235Y004602D02*
X007835Y004602D01*
X007835Y004544D02*
X004235Y004544D01*
X004235Y004485D02*
X007835Y004485D01*
X007531Y004661D02*
X006859Y004661D01*
X006973Y004719D02*
X007418Y004719D01*
X007360Y004778D02*
X007031Y004778D01*
X007085Y004836D02*
X007306Y004836D01*
X007282Y004895D02*
X007109Y004895D01*
X007133Y004953D02*
X007258Y004953D01*
X007241Y005012D02*
X007150Y005012D01*
X007150Y005070D02*
X007241Y005070D01*
X007241Y005129D02*
X007150Y005129D01*
X007145Y005188D02*
X007246Y005188D01*
X007270Y005246D02*
X007121Y005246D01*
X007097Y005305D02*
X007294Y005305D01*
X007330Y005363D02*
X007060Y005363D01*
X007002Y005422D02*
X007389Y005422D01*
X007461Y005480D02*
X006930Y005480D01*
X006788Y005539D02*
X007603Y005539D01*
X007788Y005539D02*
X007835Y005539D01*
X011616Y009227D02*
X011705Y009227D01*
X011705Y009286D02*
X011655Y009286D01*
X011655Y009344D02*
X011705Y009344D01*
X011705Y009403D02*
X011655Y009403D01*
X011655Y009461D02*
X011705Y009461D01*
X011705Y009520D02*
X011655Y009520D01*
X011655Y009578D02*
X011705Y009578D01*
X011705Y009637D02*
X011642Y009637D01*
X011612Y009695D02*
X011705Y009695D01*
X011705Y009754D02*
X011655Y009754D01*
X011655Y009812D02*
X011705Y009812D01*
X011705Y009871D02*
X011655Y009871D01*
X011655Y009930D02*
X011705Y009930D01*
X011705Y009988D02*
X011655Y009988D01*
X011655Y010047D02*
X011705Y010047D01*
X011705Y010105D02*
X011646Y010105D01*
X011608Y010164D02*
X011705Y010164D01*
X011705Y010222D02*
X011655Y010222D01*
X011655Y010281D02*
X011705Y010281D01*
X011705Y010339D02*
X011655Y010339D01*
X011655Y010398D02*
X011705Y010398D01*
X011705Y010456D02*
X011655Y010456D01*
X011655Y010515D02*
X011705Y010515D01*
X011705Y010574D02*
X011650Y010574D01*
X011604Y010632D02*
X011705Y010632D01*
X011705Y010691D02*
X011655Y010691D01*
X011655Y010749D02*
X011705Y010749D01*
X011705Y010808D02*
X011655Y010808D01*
X011655Y010866D02*
X011705Y010866D01*
X011705Y010925D02*
X011655Y010925D01*
X011655Y010983D02*
X011705Y010983D01*
X011705Y011042D02*
X011654Y011042D01*
X011705Y011100D02*
X011596Y011100D01*
X011655Y011803D02*
X011705Y011803D01*
X011705Y011861D02*
X011655Y011861D01*
X011655Y011920D02*
X011705Y011920D01*
X011705Y011979D02*
X011623Y011979D01*
X011705Y014379D02*
X004235Y014379D01*
X004235Y014437D02*
X011705Y014437D01*
X011705Y014496D02*
X004235Y014496D01*
X004235Y014554D02*
X011705Y014554D01*
X011705Y014613D02*
X004235Y014613D01*
X004235Y014672D02*
X011705Y014672D01*
X011705Y014730D02*
X004235Y014730D01*
X004235Y014789D02*
X011705Y014789D01*
X011705Y014847D02*
X004235Y014847D01*
X004235Y014906D02*
X011705Y014906D01*
X011705Y014964D02*
X004235Y014964D01*
X004235Y015023D02*
X011705Y015023D01*
X011705Y015081D02*
X004235Y015081D01*
X004235Y015140D02*
X011705Y015140D01*
X011705Y015198D02*
X004235Y015198D01*
X004235Y015257D02*
X011705Y015257D01*
X011705Y015316D02*
X004235Y015316D01*
X004235Y015374D02*
X011705Y015374D01*
X011705Y015433D02*
X004235Y015433D01*
X004235Y015491D02*
X011705Y015491D01*
X011705Y015550D02*
X004235Y015550D01*
X004235Y015608D02*
X011705Y015608D01*
X011705Y015667D02*
X004235Y015667D01*
X004235Y015725D02*
X011705Y015725D01*
X009256Y013384D02*
X008506Y013384D01*
X008447Y013442D02*
X009197Y013442D01*
X009141Y013501D02*
X008415Y013501D01*
X008415Y013559D02*
X009117Y013559D01*
X009093Y013618D02*
X008447Y013618D01*
X008471Y013676D02*
X009068Y013676D01*
X009065Y013735D02*
X008480Y013735D01*
X008480Y013793D02*
X009065Y013793D01*
X009065Y013852D02*
X008464Y013852D01*
X008439Y013911D02*
X009075Y013911D01*
X009100Y013969D02*
X008384Y013969D01*
X008282Y014028D02*
X009124Y014028D01*
X008064Y013091D02*
X008031Y013091D01*
X007591Y013091D02*
X007558Y013091D01*
X007119Y013091D02*
X007086Y013091D01*
D15*
X008195Y013755D03*
X008885Y010515D03*
X009305Y010515D03*
X009695Y010515D03*
X010115Y010515D03*
X010115Y009795D03*
X009695Y009795D03*
X009305Y009795D03*
X008885Y009795D03*
X008885Y009075D03*
X009305Y009075D03*
X009695Y009075D03*
X010115Y009075D03*
X010115Y008355D03*
X009695Y008355D03*
X009305Y008355D03*
X008885Y008355D03*
X006305Y006525D03*
X005895Y006935D03*
X005915Y008595D03*
X006195Y009945D03*
X006285Y010345D03*
X005405Y012105D03*
X004295Y012555D03*
X004625Y009645D03*
D16*
X004625Y012225D01*
X004295Y012555D01*
X004625Y009645D02*
X004625Y009045D01*
X008465Y013155D02*
X008225Y013395D01*
X008225Y013695D01*
X008195Y013755D01*
X008465Y013155D02*
X009575Y013155D01*
X009701Y013030D01*
X009701Y012752D01*
D17*
X008655Y005315D03*
X008885Y004915D03*
X008415Y004915D03*
D18*
X007295Y009385D03*
D19*
X005195Y009385D01*
X004845Y009035D01*
X004145Y008335D01*
X004145Y007095D01*
X004695Y006545D01*
X004695Y005085D01*
M02*
