G75*
G70*
%OFA0B0*%
%FSLAX24Y24*%
%IPPOS*%
%LPD*%
%AMOC8*
5,1,8,0,0,1.08239X$1,22.5*
%
%ADD10R,0.0513X0.0474*%
%ADD11R,0.0552X0.0297*%
%ADD12R,0.2718X0.2718*%
%ADD13R,0.1261X0.0710*%
%ADD14C,0.0840*%
%ADD15C,0.0730*%
%ADD16R,0.0474X0.0631*%
%ADD17R,0.0474X0.0513*%
%ADD18C,0.0555*%
D10*
X004535Y006380D03*
X004535Y007050D03*
X004555Y007620D03*
X004555Y008290D03*
X005455Y008290D03*
X005455Y007620D03*
X005435Y007050D03*
X005435Y006380D03*
X007841Y007205D03*
X008510Y007205D03*
X010021Y006055D03*
X010690Y006055D03*
X006620Y012445D03*
X005951Y012445D03*
X004508Y013070D03*
X004508Y013739D03*
D11*
X005944Y013829D03*
X005944Y013455D03*
X005944Y013081D03*
X006967Y013081D03*
X006967Y013829D03*
D12*
X009897Y009455D03*
D13*
X007298Y008570D03*
X007298Y010381D03*
D14*
X009575Y013785D03*
X010575Y013785D03*
X010696Y005086D03*
X009696Y005086D03*
D15*
X001695Y005085D03*
X002695Y005085D03*
X003695Y005085D03*
X004695Y005085D03*
X005695Y005085D03*
X006695Y005085D03*
X007695Y005085D03*
D16*
X005345Y009745D03*
X004971Y010611D03*
X004419Y010608D03*
X004045Y009742D03*
X003671Y010608D03*
X005719Y010611D03*
D17*
X005680Y011375D03*
X005011Y011375D03*
X004380Y011375D03*
X003711Y011375D03*
X003721Y009045D03*
X004390Y009045D03*
X004981Y009065D03*
X005650Y009065D03*
X005290Y013070D03*
X005290Y013739D03*
X007755Y013767D03*
X007755Y013098D03*
D18*
X007295Y009385D03*
M02*
