G75*
G70*
%OFA0B0*%
%FSLAX24Y24*%
%IPPOS*%
%LPD*%
%AMOC8*
5,1,8,0,0,1.08239X$1,22.5*
%
%ADD10C,0.0760*%
%ADD11C,0.0650*%
%ADD12C,0.0600*%
%ADD13C,0.0560*%
%ADD14C,0.0795*%
%ADD15C,0.0560*%
%ADD16C,0.0750*%
%ADD17C,0.0310*%
%ADD18C,0.0060*%
%ADD19C,0.0160*%
%ADD20C,0.0120*%
%ADD21C,0.0320*%
D10*
X017970Y005075D03*
X018970Y005075D03*
X011970Y016155D03*
X010970Y016155D03*
X008970Y016155D03*
X007970Y016155D03*
D11*
X009970Y005075D03*
X010970Y005075D03*
X011970Y005075D03*
X012970Y005075D03*
X013970Y005075D03*
X014970Y005075D03*
X015970Y005075D03*
D12*
X016450Y006585D02*
X016450Y007185D01*
X017450Y007185D02*
X017450Y006585D01*
X018450Y006585D02*
X018450Y007185D01*
D13*
X013180Y011325D02*
X013180Y011885D01*
X012180Y011885D02*
X012180Y011325D01*
D14*
X014070Y014855D03*
X016210Y014855D03*
X017170Y014855D03*
X019310Y014855D03*
X019310Y017615D03*
X017170Y017615D03*
X016210Y017615D03*
X014070Y017615D03*
D15*
X015140Y017325D03*
X015140Y016535D03*
X015140Y015745D03*
X015140Y014955D03*
X018240Y014955D03*
X018240Y015745D03*
X018240Y016535D03*
X018240Y017325D03*
D16*
X005920Y017035D03*
X005920Y015165D03*
X005920Y013295D03*
D17*
X010720Y010455D03*
X012580Y009645D03*
X013030Y009585D03*
X012910Y008235D03*
X012640Y007935D03*
X010810Y007815D03*
X010810Y008235D03*
X011560Y006015D03*
X006130Y005565D03*
X003850Y006975D03*
X014230Y010875D03*
D18*
X013180Y011605D02*
X012580Y011005D01*
X012580Y009645D01*
X012910Y008235D02*
X010810Y008235D01*
X011110Y008115D02*
X010810Y007815D01*
X011110Y008115D02*
X012490Y008115D01*
X012640Y007965D01*
X012640Y007935D01*
X011560Y006015D02*
X011560Y005985D01*
X006190Y005625D02*
X006130Y005565D01*
X003970Y006945D02*
X003880Y006945D01*
X003850Y006975D01*
D19*
X010660Y010425D02*
X010690Y010455D01*
X010720Y010455D01*
X013030Y009585D02*
X013030Y009525D01*
D20*
X003260Y010645D02*
X003260Y004445D01*
X015380Y004445D01*
X015380Y004903D01*
X015347Y004823D01*
X015222Y004698D01*
X015058Y004630D01*
X014882Y004630D01*
X014718Y004698D01*
X014593Y004823D01*
X014525Y004987D01*
X014525Y005163D01*
X014593Y005327D01*
X014718Y005452D01*
X014882Y005520D01*
X015058Y005520D01*
X015222Y005452D01*
X015347Y005327D01*
X015380Y005247D01*
X015380Y008113D01*
X015462Y008195D01*
X015578Y008195D01*
X015660Y008113D01*
X015660Y005394D01*
X015718Y005452D01*
X015882Y005520D01*
X016058Y005520D01*
X016222Y005452D01*
X016347Y005327D01*
X016415Y005163D01*
X016415Y004987D01*
X016347Y004823D01*
X016222Y004698D01*
X016058Y004630D01*
X015882Y004630D01*
X015718Y004698D01*
X015660Y004756D01*
X015660Y004445D01*
X019680Y004445D01*
X019680Y007679D01*
X018870Y006869D01*
X018870Y006501D01*
X018806Y006347D01*
X018688Y006229D01*
X018534Y006165D01*
X018366Y006165D01*
X018212Y006229D01*
X018094Y006347D01*
X018030Y006501D01*
X018030Y007269D01*
X018094Y007423D01*
X018212Y007541D01*
X018366Y007605D01*
X018534Y007605D01*
X018688Y007541D01*
X018719Y007510D01*
X019200Y007991D01*
X019200Y013129D01*
X019102Y013227D01*
X019160Y013010D01*
X019160Y012560D01*
X019043Y012125D01*
X018818Y011735D01*
X018500Y011417D01*
X018110Y011192D01*
X017675Y011075D01*
X017225Y011075D01*
X016790Y011192D01*
X016400Y011417D01*
X016082Y011735D01*
X015857Y012125D01*
X015740Y012560D01*
X015740Y013010D01*
X015857Y013445D01*
X016082Y013835D01*
X016132Y013885D01*
X013242Y013885D01*
X013160Y013967D01*
X013160Y015823D01*
X013242Y015905D01*
X013358Y015905D01*
X013440Y015823D01*
X013440Y014165D01*
X016420Y014165D01*
X016790Y014378D01*
X016854Y014396D01*
X016807Y014430D01*
X016745Y014492D01*
X016693Y014563D01*
X016690Y014569D01*
X016687Y014563D01*
X016635Y014492D01*
X016573Y014430D01*
X016502Y014378D01*
X016424Y014338D01*
X016341Y014311D01*
X016270Y014300D01*
X016270Y014795D01*
X016270Y014915D01*
X016150Y014915D01*
X016150Y015410D01*
X016079Y015399D01*
X015996Y015372D01*
X015918Y015332D01*
X015847Y015280D01*
X015785Y015218D01*
X015733Y015147D01*
X015693Y015069D01*
X015666Y014986D01*
X015655Y014915D01*
X016150Y014915D01*
X016150Y014795D01*
X016270Y014795D01*
X016765Y014795D01*
X017110Y014795D01*
X017110Y014915D01*
X017110Y015410D01*
X017039Y015399D01*
X016956Y015372D01*
X016878Y015332D01*
X016807Y015280D01*
X016745Y015218D01*
X016693Y015147D01*
X016690Y015141D01*
X016687Y015147D01*
X016635Y015218D01*
X016573Y015280D01*
X016502Y015332D01*
X016424Y015372D01*
X016341Y015399D01*
X016270Y015410D01*
X016270Y014915D01*
X017110Y014915D01*
X017230Y014915D01*
X017230Y015410D01*
X017301Y015399D01*
X017384Y015372D01*
X017462Y015332D01*
X017533Y015280D01*
X017595Y015218D01*
X017647Y015147D01*
X017687Y015069D01*
X017714Y014986D01*
X017725Y014915D01*
X017230Y014915D01*
X017230Y014795D01*
X017725Y014795D01*
X017714Y014724D01*
X017687Y014641D01*
X017647Y014563D01*
X017598Y014495D01*
X017675Y014495D01*
X017965Y014417D01*
X017960Y014429D01*
X017960Y014669D01*
X017901Y014728D01*
X017840Y014875D01*
X017840Y015035D01*
X017901Y015182D01*
X018013Y015294D01*
X017514Y015294D01*
X017626Y015176D02*
X017898Y015176D01*
X017849Y015057D02*
X017691Y015057D01*
X017721Y014939D02*
X017840Y014939D01*
X017863Y014820D02*
X017230Y014820D01*
X017230Y014939D02*
X017110Y014939D01*
X017110Y015057D02*
X017230Y015057D01*
X017230Y015176D02*
X017110Y015176D01*
X017110Y015294D02*
X017230Y015294D01*
X016826Y015294D02*
X016554Y015294D01*
X016666Y015176D02*
X016714Y015176D01*
X017110Y014820D02*
X016270Y014820D01*
X016270Y014702D02*
X016150Y014702D01*
X016150Y014795D02*
X016150Y014300D01*
X016079Y014311D01*
X015996Y014338D01*
X015918Y014378D01*
X015847Y014430D01*
X015785Y014492D01*
X015733Y014563D01*
X015693Y014641D01*
X015666Y014724D01*
X015655Y014795D01*
X016150Y014795D01*
X016150Y014820D02*
X015517Y014820D01*
X015540Y014875D02*
X015540Y015035D01*
X015479Y015182D01*
X015367Y015294D01*
X015866Y015294D01*
X015754Y015176D02*
X015482Y015176D01*
X015531Y015057D02*
X015689Y015057D01*
X015659Y014939D02*
X015540Y014939D01*
X015540Y014875D02*
X015479Y014728D01*
X015367Y014616D01*
X015220Y014555D01*
X015060Y014555D01*
X014913Y014616D01*
X014801Y014728D01*
X014740Y014875D01*
X014740Y015035D01*
X014801Y015182D01*
X014913Y015294D01*
X014414Y015294D01*
X014433Y015280D02*
X014362Y015332D01*
X014284Y015372D01*
X014201Y015399D01*
X014130Y015410D01*
X014130Y014915D01*
X014625Y014915D01*
X014614Y014986D01*
X014587Y015069D01*
X014547Y015147D01*
X014495Y015218D01*
X014433Y015280D01*
X014526Y015176D02*
X014798Y015176D01*
X014749Y015057D02*
X014591Y015057D01*
X014621Y014939D02*
X014740Y014939D01*
X014763Y014820D02*
X014130Y014820D01*
X014130Y014795D02*
X014130Y014915D01*
X014010Y014915D01*
X014010Y015410D01*
X013939Y015399D01*
X013856Y015372D01*
X013778Y015332D01*
X013707Y015280D01*
X013645Y015218D01*
X013593Y015147D01*
X013553Y015069D01*
X013526Y014986D01*
X013515Y014915D01*
X014010Y014915D01*
X014010Y014795D01*
X014130Y014795D01*
X014625Y014795D01*
X014614Y014724D01*
X014587Y014641D01*
X014547Y014563D01*
X014495Y014492D01*
X014433Y014430D01*
X014362Y014378D01*
X014284Y014338D01*
X014201Y014311D01*
X014130Y014300D01*
X014130Y014795D01*
X014130Y014702D02*
X014010Y014702D01*
X014010Y014795D02*
X014010Y014300D01*
X013939Y014311D01*
X013856Y014338D01*
X013778Y014378D01*
X013707Y014430D01*
X013645Y014492D01*
X013593Y014563D01*
X013553Y014641D01*
X013526Y014724D01*
X013515Y014795D01*
X014010Y014795D01*
X014010Y014820D02*
X013440Y014820D01*
X013440Y014702D02*
X013534Y014702D01*
X013583Y014583D02*
X013440Y014583D01*
X013440Y014465D02*
X013672Y014465D01*
X013841Y014346D02*
X013440Y014346D01*
X013440Y014228D02*
X016529Y014228D01*
X016439Y014346D02*
X016734Y014346D01*
X016772Y014465D02*
X016608Y014465D01*
X016270Y014465D02*
X016150Y014465D01*
X016150Y014583D02*
X016270Y014583D01*
X016270Y014346D02*
X016150Y014346D01*
X015981Y014346D02*
X014299Y014346D01*
X014130Y014346D02*
X014010Y014346D01*
X014010Y014465D02*
X014130Y014465D01*
X014130Y014583D02*
X014010Y014583D01*
X014010Y014939D02*
X014130Y014939D01*
X014130Y015057D02*
X014010Y015057D01*
X014010Y015176D02*
X014130Y015176D01*
X014130Y015294D02*
X014010Y015294D01*
X013726Y015294D02*
X013440Y015294D01*
X013440Y015176D02*
X013614Y015176D01*
X013549Y015057D02*
X013440Y015057D01*
X013440Y014939D02*
X013519Y014939D01*
X013160Y014939D02*
X006362Y014939D01*
X006340Y014885D02*
X006415Y015067D01*
X006415Y015263D01*
X006340Y015445D01*
X006200Y015585D01*
X006018Y015660D01*
X005822Y015660D01*
X005640Y015585D01*
X005500Y015445D01*
X005425Y015263D01*
X005425Y015067D01*
X005500Y014885D01*
X005640Y014745D01*
X005822Y014670D01*
X006018Y014670D01*
X006200Y014745D01*
X006340Y014885D01*
X006275Y014820D02*
X013160Y014820D01*
X013160Y014702D02*
X006095Y014702D01*
X005745Y014702D02*
X003260Y014702D01*
X003260Y014820D02*
X005565Y014820D01*
X005478Y014939D02*
X003260Y014939D01*
X003260Y015057D02*
X005429Y015057D01*
X005425Y015176D02*
X003260Y015176D01*
X003260Y015294D02*
X005438Y015294D01*
X005487Y015413D02*
X003260Y015413D01*
X003260Y015531D02*
X005586Y015531D01*
X005796Y015650D02*
X003260Y015650D01*
X003260Y015768D02*
X007650Y015768D01*
X007687Y015731D02*
X007546Y015872D01*
X007470Y016056D01*
X007470Y016254D01*
X007546Y016438D01*
X007687Y016579D01*
X007871Y016655D01*
X008069Y016655D01*
X008253Y016579D01*
X008394Y016438D01*
X008450Y016302D01*
X008470Y016362D01*
X008508Y016438D01*
X008558Y016507D01*
X008618Y016567D01*
X008687Y016617D01*
X008763Y016655D01*
X008844Y016682D01*
X008915Y016693D01*
X008915Y016210D01*
X009025Y016210D01*
X009508Y016210D01*
X009497Y016281D01*
X009470Y016362D01*
X009432Y016438D01*
X009382Y016507D01*
X009322Y016567D01*
X009253Y016617D01*
X009177Y016655D01*
X009096Y016682D01*
X009025Y016693D01*
X009025Y016210D01*
X009025Y016100D01*
X009508Y016100D01*
X009497Y016029D01*
X009470Y015948D01*
X009432Y015872D01*
X009382Y015803D01*
X009322Y015743D01*
X009253Y015693D01*
X009177Y015655D01*
X009096Y015628D01*
X009025Y015617D01*
X009025Y016100D01*
X008915Y016100D01*
X008915Y015617D01*
X008844Y015628D01*
X008763Y015655D01*
X008687Y015693D01*
X008618Y015743D01*
X008558Y015803D01*
X008508Y015872D01*
X008470Y015948D01*
X008450Y016008D01*
X008394Y015872D01*
X008253Y015731D01*
X008069Y015655D01*
X007871Y015655D01*
X007687Y015731D01*
X007540Y015887D02*
X003260Y015887D01*
X003260Y016005D02*
X007491Y016005D01*
X007470Y016124D02*
X003260Y016124D01*
X003260Y016242D02*
X007470Y016242D01*
X007514Y016361D02*
X003260Y016361D01*
X003260Y016479D02*
X007587Y016479D01*
X007732Y016598D02*
X006157Y016598D01*
X006200Y016615D02*
X006340Y016755D01*
X006415Y016937D01*
X006415Y017133D01*
X006340Y017315D01*
X006200Y017455D01*
X006018Y017530D01*
X005822Y017530D01*
X005640Y017455D01*
X005500Y017315D01*
X005425Y017133D01*
X005425Y016937D01*
X005500Y016755D01*
X005640Y016615D01*
X005822Y016540D01*
X006018Y016540D01*
X006200Y016615D01*
X006301Y016716D02*
X013160Y016716D01*
X013160Y016598D02*
X012280Y016598D01*
X012253Y016617D02*
X012177Y016655D01*
X012096Y016682D01*
X012025Y016693D01*
X012025Y016210D01*
X012508Y016210D01*
X012497Y016281D01*
X012470Y016362D01*
X012432Y016438D01*
X012382Y016507D01*
X012322Y016567D01*
X012253Y016617D01*
X012402Y016479D02*
X013160Y016479D01*
X013160Y016361D02*
X012471Y016361D01*
X012503Y016242D02*
X013160Y016242D01*
X013160Y016124D02*
X012025Y016124D01*
X012025Y016100D02*
X012025Y016210D01*
X011915Y016210D01*
X011915Y016693D01*
X011844Y016682D01*
X011763Y016655D01*
X011687Y016617D01*
X011618Y016567D01*
X011558Y016507D01*
X011508Y016438D01*
X011470Y016362D01*
X011450Y016302D01*
X011394Y016438D01*
X011253Y016579D01*
X011069Y016655D01*
X010871Y016655D01*
X010687Y016579D01*
X010546Y016438D01*
X010470Y016254D01*
X010470Y016056D01*
X010546Y015872D01*
X010687Y015731D01*
X010871Y015655D01*
X011069Y015655D01*
X011253Y015731D01*
X011394Y015872D01*
X011450Y016008D01*
X011470Y015948D01*
X011508Y015872D01*
X011558Y015803D01*
X011618Y015743D01*
X011687Y015693D01*
X011763Y015655D01*
X011844Y015628D01*
X011915Y015617D01*
X011915Y016100D01*
X012025Y016100D01*
X012508Y016100D01*
X012497Y016029D01*
X012470Y015948D01*
X012432Y015872D01*
X012382Y015803D01*
X012322Y015743D01*
X012253Y015693D01*
X012177Y015655D01*
X012096Y015628D01*
X012025Y015617D01*
X012025Y016100D01*
X012025Y016005D02*
X011915Y016005D01*
X011915Y015887D02*
X012025Y015887D01*
X012025Y015768D02*
X011915Y015768D01*
X011915Y015650D02*
X012025Y015650D01*
X012162Y015650D02*
X013160Y015650D01*
X013160Y015768D02*
X012347Y015768D01*
X012439Y015887D02*
X013224Y015887D01*
X013242Y015925D02*
X013358Y015925D01*
X013440Y016007D01*
X013440Y018965D01*
X019680Y018965D01*
X019680Y018033D01*
X019673Y018040D01*
X019602Y018092D01*
X019524Y018132D01*
X019441Y018159D01*
X019370Y018170D01*
X019370Y017675D01*
X019250Y017675D01*
X019250Y018170D01*
X019179Y018159D01*
X019096Y018132D01*
X019018Y018092D01*
X018947Y018040D01*
X018885Y017978D01*
X018833Y017907D01*
X018793Y017829D01*
X018766Y017746D01*
X018755Y017675D01*
X019250Y017675D01*
X019250Y017555D01*
X019370Y017555D01*
X019370Y017060D01*
X019441Y017071D01*
X019524Y017098D01*
X019602Y017138D01*
X019673Y017190D01*
X019680Y017197D01*
X019680Y015273D01*
X019673Y015280D01*
X019602Y015332D01*
X019524Y015372D01*
X019441Y015399D01*
X019370Y015410D01*
X019370Y014915D01*
X019250Y014915D01*
X019250Y015410D01*
X019179Y015399D01*
X019096Y015372D01*
X019018Y015332D01*
X018947Y015280D01*
X018885Y015218D01*
X018833Y015147D01*
X018793Y015069D01*
X018766Y014986D01*
X018755Y014915D01*
X019250Y014915D01*
X019250Y014795D01*
X019370Y014795D01*
X019370Y014300D01*
X019441Y014311D01*
X019524Y014338D01*
X019602Y014378D01*
X019673Y014430D01*
X019680Y014437D01*
X019680Y014165D01*
X018956Y014165D01*
X018520Y014601D01*
X018520Y014669D01*
X018579Y014728D01*
X018640Y014875D01*
X018640Y015035D01*
X018579Y015182D01*
X018467Y015294D01*
X018966Y015294D01*
X018854Y015176D02*
X018582Y015176D01*
X018631Y015057D02*
X018789Y015057D01*
X018759Y014939D02*
X018640Y014939D01*
X018617Y014820D02*
X019250Y014820D01*
X019250Y014795D02*
X018755Y014795D01*
X018766Y014724D01*
X018793Y014641D01*
X018833Y014563D01*
X018885Y014492D01*
X018947Y014430D01*
X019018Y014378D01*
X019096Y014338D01*
X019179Y014311D01*
X019250Y014300D01*
X019250Y014795D01*
X019250Y014702D02*
X019370Y014702D01*
X019370Y014583D02*
X019250Y014583D01*
X019250Y014465D02*
X019370Y014465D01*
X019370Y014346D02*
X019250Y014346D01*
X019081Y014346D02*
X018775Y014346D01*
X018893Y014228D02*
X019680Y014228D01*
X019680Y014346D02*
X019539Y014346D01*
X019370Y014939D02*
X019250Y014939D01*
X019250Y015057D02*
X019370Y015057D01*
X019370Y015176D02*
X019250Y015176D01*
X019250Y015294D02*
X019370Y015294D01*
X019654Y015294D02*
X019680Y015294D01*
X019680Y015413D02*
X018473Y015413D01*
X018467Y015406D02*
X018579Y015518D01*
X018640Y015665D01*
X018640Y015825D01*
X018579Y015972D01*
X018467Y016084D01*
X018332Y016140D01*
X018467Y016196D01*
X018579Y016308D01*
X018640Y016455D01*
X018640Y016615D01*
X018579Y016762D01*
X018467Y016874D01*
X018383Y016909D01*
X018409Y016917D01*
X018471Y016949D01*
X018527Y016989D01*
X018576Y017038D01*
X018616Y017094D01*
X018648Y017156D01*
X018669Y017222D01*
X018680Y017290D01*
X018680Y017295D01*
X018270Y017295D01*
X018270Y017355D01*
X018210Y017355D01*
X018210Y017765D01*
X018205Y017765D01*
X018137Y017754D01*
X018071Y017733D01*
X018009Y017701D01*
X017953Y017661D01*
X017904Y017612D01*
X017864Y017556D01*
X017832Y017494D01*
X017811Y017428D01*
X017800Y017360D01*
X017800Y017355D01*
X018210Y017355D01*
X018210Y017295D01*
X017800Y017295D01*
X017800Y017290D01*
X017811Y017222D01*
X017832Y017156D01*
X017864Y017094D01*
X017904Y017038D01*
X017953Y016989D01*
X018009Y016949D01*
X018071Y016917D01*
X018097Y016909D01*
X018013Y016874D01*
X017901Y016762D01*
X017840Y016615D01*
X017840Y016455D01*
X017901Y016308D01*
X018013Y016196D01*
X018148Y016140D01*
X018013Y016084D01*
X017901Y015972D01*
X017840Y015825D01*
X017840Y015665D01*
X017901Y015518D01*
X018013Y015406D01*
X018148Y015350D01*
X018013Y015294D01*
X018007Y015413D02*
X015373Y015413D01*
X015367Y015406D02*
X015479Y015518D01*
X015540Y015665D01*
X015540Y015825D01*
X015479Y015972D01*
X015367Y016084D01*
X015232Y016140D01*
X015367Y016196D01*
X015479Y016308D01*
X015540Y016455D01*
X015540Y016615D01*
X015479Y016762D01*
X015367Y016874D01*
X015283Y016909D01*
X015309Y016917D01*
X015371Y016949D01*
X015427Y016989D01*
X015476Y017038D01*
X015516Y017094D01*
X015548Y017156D01*
X015569Y017222D01*
X015580Y017290D01*
X015580Y017295D01*
X015170Y017295D01*
X015170Y017355D01*
X015110Y017355D01*
X015110Y017765D01*
X015105Y017765D01*
X015037Y017754D01*
X014971Y017733D01*
X014909Y017701D01*
X014853Y017661D01*
X014804Y017612D01*
X014764Y017556D01*
X014732Y017494D01*
X014711Y017428D01*
X014700Y017360D01*
X014700Y017355D01*
X015110Y017355D01*
X015110Y017295D01*
X014700Y017295D01*
X014700Y017290D01*
X014711Y017222D01*
X014732Y017156D01*
X014764Y017094D01*
X014804Y017038D01*
X014853Y016989D01*
X014909Y016949D01*
X014971Y016917D01*
X014997Y016909D01*
X014913Y016874D01*
X014801Y016762D01*
X014740Y016615D01*
X014740Y016455D01*
X014801Y016308D01*
X014913Y016196D01*
X015048Y016140D01*
X014913Y016084D01*
X014801Y015972D01*
X014740Y015825D01*
X014740Y015665D01*
X014801Y015518D01*
X014913Y015406D01*
X015048Y015350D01*
X014913Y015294D01*
X014907Y015413D02*
X013440Y015413D01*
X013440Y015531D02*
X014796Y015531D01*
X014747Y015650D02*
X013440Y015650D01*
X013440Y015768D02*
X014740Y015768D01*
X014766Y015887D02*
X013376Y015887D01*
X013438Y016005D02*
X014834Y016005D01*
X015009Y016124D02*
X013440Y016124D01*
X013440Y016242D02*
X014867Y016242D01*
X014779Y016361D02*
X013440Y016361D01*
X013440Y016479D02*
X014740Y016479D01*
X014740Y016598D02*
X013440Y016598D01*
X013440Y016716D02*
X014782Y016716D01*
X014874Y016835D02*
X013440Y016835D01*
X013440Y016953D02*
X014903Y016953D01*
X014780Y017072D02*
X014201Y017072D01*
X014201Y017071D02*
X014284Y017098D01*
X014362Y017138D01*
X014433Y017190D01*
X014495Y017252D01*
X014547Y017323D01*
X014587Y017401D01*
X014614Y017484D01*
X014625Y017555D01*
X014130Y017555D01*
X014130Y017675D01*
X014625Y017675D01*
X014614Y017746D01*
X014587Y017829D01*
X014547Y017907D01*
X014495Y017978D01*
X014433Y018040D01*
X014362Y018092D01*
X014284Y018132D01*
X014201Y018159D01*
X014130Y018170D01*
X014130Y017675D01*
X014010Y017675D01*
X014010Y018170D01*
X013939Y018159D01*
X013856Y018132D01*
X013778Y018092D01*
X013707Y018040D01*
X013645Y017978D01*
X013593Y017907D01*
X013553Y017829D01*
X013526Y017746D01*
X013515Y017675D01*
X014010Y017675D01*
X014010Y017555D01*
X014130Y017555D01*
X014130Y017060D01*
X014201Y017071D01*
X014130Y017072D02*
X014010Y017072D01*
X014010Y017060D02*
X014010Y017555D01*
X013515Y017555D01*
X013526Y017484D01*
X013553Y017401D01*
X013593Y017323D01*
X013645Y017252D01*
X013707Y017190D01*
X013778Y017138D01*
X013856Y017098D01*
X013939Y017071D01*
X014010Y017060D01*
X013939Y017072D02*
X013440Y017072D01*
X013440Y017190D02*
X013707Y017190D01*
X013604Y017309D02*
X013440Y017309D01*
X013440Y017427D02*
X013545Y017427D01*
X013517Y017546D02*
X013440Y017546D01*
X013440Y017664D02*
X014010Y017664D01*
X014010Y017546D02*
X014130Y017546D01*
X014130Y017664D02*
X014858Y017664D01*
X014759Y017546D02*
X014623Y017546D01*
X014595Y017427D02*
X014711Y017427D01*
X014536Y017309D02*
X015110Y017309D01*
X015170Y017309D02*
X015744Y017309D01*
X015733Y017323D02*
X015785Y017252D01*
X015847Y017190D01*
X015918Y017138D01*
X015996Y017098D01*
X016079Y017071D01*
X016150Y017060D01*
X016150Y017555D01*
X016270Y017555D01*
X016270Y017675D01*
X016150Y017675D01*
X016150Y018170D01*
X016079Y018159D01*
X015996Y018132D01*
X015918Y018092D01*
X015847Y018040D01*
X015785Y017978D01*
X015733Y017907D01*
X015693Y017829D01*
X015666Y017746D01*
X015655Y017675D01*
X016150Y017675D01*
X016150Y017555D01*
X015655Y017555D01*
X015666Y017484D01*
X015693Y017401D01*
X015733Y017323D01*
X015685Y017427D02*
X015569Y017427D01*
X015569Y017428D02*
X015548Y017494D01*
X015516Y017556D01*
X015476Y017612D01*
X015427Y017661D01*
X015371Y017701D01*
X015309Y017733D01*
X015243Y017754D01*
X015175Y017765D01*
X015170Y017765D01*
X015170Y017355D01*
X015580Y017355D01*
X015580Y017360D01*
X015569Y017428D01*
X015521Y017546D02*
X015657Y017546D01*
X015678Y017783D02*
X014602Y017783D01*
X014550Y017901D02*
X015730Y017901D01*
X015826Y018020D02*
X014454Y018020D01*
X014264Y018138D02*
X016016Y018138D01*
X016150Y018138D02*
X016270Y018138D01*
X016270Y018170D02*
X016270Y017675D01*
X017110Y017675D01*
X017110Y018170D01*
X017039Y018159D01*
X016956Y018132D01*
X016878Y018092D01*
X016807Y018040D01*
X016745Y017978D01*
X016693Y017907D01*
X016690Y017901D01*
X016690Y017901D01*
X016687Y017907D01*
X016635Y017978D01*
X016573Y018040D01*
X016502Y018092D01*
X016424Y018132D01*
X016341Y018159D01*
X016270Y018170D01*
X016404Y018138D02*
X016976Y018138D01*
X017110Y018138D02*
X017230Y018138D01*
X017230Y018170D02*
X017301Y018159D01*
X017384Y018132D01*
X017462Y018092D01*
X017533Y018040D01*
X017595Y017978D01*
X017647Y017907D01*
X017687Y017829D01*
X017714Y017746D01*
X017725Y017675D01*
X017230Y017675D01*
X017230Y017555D01*
X017725Y017555D01*
X017714Y017484D01*
X017687Y017401D01*
X017647Y017323D01*
X017595Y017252D01*
X017533Y017190D01*
X017462Y017138D01*
X017384Y017098D01*
X017301Y017071D01*
X017230Y017060D01*
X017230Y017555D01*
X017110Y017555D01*
X017110Y017060D01*
X017039Y017071D01*
X016956Y017098D01*
X016878Y017138D01*
X016807Y017190D01*
X016745Y017252D01*
X016693Y017323D01*
X016690Y017329D01*
X016687Y017323D01*
X016635Y017252D01*
X016573Y017190D01*
X016502Y017138D01*
X016424Y017098D01*
X016341Y017071D01*
X016270Y017060D01*
X016270Y017555D01*
X016615Y017555D01*
X017110Y017555D01*
X017110Y017675D01*
X017230Y017675D01*
X017230Y018170D01*
X017364Y018138D02*
X019116Y018138D01*
X019250Y018138D02*
X019370Y018138D01*
X019370Y018020D02*
X019250Y018020D01*
X019250Y017901D02*
X019370Y017901D01*
X019370Y017783D02*
X019250Y017783D01*
X019250Y017664D02*
X018522Y017664D01*
X018527Y017661D02*
X018471Y017701D01*
X018409Y017733D01*
X018343Y017754D01*
X018275Y017765D01*
X018270Y017765D01*
X018270Y017355D01*
X018680Y017355D01*
X018680Y017360D01*
X018669Y017428D01*
X018648Y017494D01*
X018616Y017556D01*
X018576Y017612D01*
X018527Y017661D01*
X018621Y017546D02*
X018757Y017546D01*
X018755Y017555D02*
X018766Y017484D01*
X018793Y017401D01*
X018833Y017323D01*
X018885Y017252D01*
X018947Y017190D01*
X019018Y017138D01*
X019096Y017098D01*
X019179Y017071D01*
X019250Y017060D01*
X019250Y017555D01*
X018755Y017555D01*
X018785Y017427D02*
X018669Y017427D01*
X018844Y017309D02*
X018270Y017309D01*
X018210Y017309D02*
X017636Y017309D01*
X017695Y017427D02*
X017811Y017427D01*
X017859Y017546D02*
X017723Y017546D01*
X017702Y017783D02*
X018778Y017783D01*
X018830Y017901D02*
X017650Y017901D01*
X017554Y018020D02*
X018926Y018020D01*
X019250Y017546D02*
X019370Y017546D01*
X019370Y017427D02*
X019250Y017427D01*
X019250Y017309D02*
X019370Y017309D01*
X019370Y017190D02*
X019250Y017190D01*
X019250Y017072D02*
X019370Y017072D01*
X019441Y017072D02*
X019680Y017072D01*
X019673Y017190D02*
X019680Y017190D01*
X019680Y016953D02*
X018477Y016953D01*
X018506Y016835D02*
X019680Y016835D01*
X019680Y016716D02*
X018598Y016716D01*
X018640Y016598D02*
X019680Y016598D01*
X019680Y016479D02*
X018640Y016479D01*
X018601Y016361D02*
X019680Y016361D01*
X019680Y016242D02*
X018513Y016242D01*
X018371Y016124D02*
X019680Y016124D01*
X019680Y016005D02*
X018546Y016005D01*
X018614Y015887D02*
X019680Y015887D01*
X019680Y015768D02*
X018640Y015768D01*
X018633Y015650D02*
X019680Y015650D01*
X019680Y015531D02*
X018584Y015531D01*
X018467Y015406D02*
X018332Y015350D01*
X018467Y015294D01*
X017896Y015531D02*
X015484Y015531D01*
X015533Y015650D02*
X017847Y015650D01*
X017840Y015768D02*
X015540Y015768D01*
X015514Y015887D02*
X017866Y015887D01*
X017934Y016005D02*
X015446Y016005D01*
X015271Y016124D02*
X018109Y016124D01*
X017967Y016242D02*
X015413Y016242D01*
X015501Y016361D02*
X017879Y016361D01*
X017840Y016479D02*
X015540Y016479D01*
X015540Y016598D02*
X017840Y016598D01*
X017882Y016716D02*
X015498Y016716D01*
X015406Y016835D02*
X017974Y016835D01*
X018003Y016953D02*
X015377Y016953D01*
X015500Y017072D02*
X016079Y017072D01*
X016150Y017072D02*
X016270Y017072D01*
X016341Y017072D02*
X017039Y017072D01*
X017110Y017072D02*
X017230Y017072D01*
X017301Y017072D02*
X017880Y017072D01*
X017821Y017190D02*
X017533Y017190D01*
X017230Y017190D02*
X017110Y017190D01*
X017110Y017309D02*
X017230Y017309D01*
X017230Y017427D02*
X017110Y017427D01*
X017110Y017546D02*
X017230Y017546D01*
X017230Y017664D02*
X017958Y017664D01*
X018210Y017664D02*
X018270Y017664D01*
X018270Y017546D02*
X018210Y017546D01*
X018210Y017427D02*
X018270Y017427D01*
X018659Y017190D02*
X018947Y017190D01*
X019179Y017072D02*
X018600Y017072D01*
X019504Y018138D02*
X019680Y018138D01*
X019680Y018257D02*
X013440Y018257D01*
X013440Y018375D02*
X019680Y018375D01*
X019680Y018494D02*
X013440Y018494D01*
X013440Y018612D02*
X019680Y018612D01*
X019680Y018731D02*
X013440Y018731D01*
X013440Y018849D02*
X019680Y018849D01*
X017230Y018020D02*
X017110Y018020D01*
X017110Y017901D02*
X017230Y017901D01*
X017230Y017783D02*
X017110Y017783D01*
X017110Y017664D02*
X016270Y017664D01*
X016270Y017546D02*
X016150Y017546D01*
X016150Y017664D02*
X015422Y017664D01*
X015170Y017664D02*
X015110Y017664D01*
X015110Y017546D02*
X015170Y017546D01*
X015170Y017427D02*
X015110Y017427D01*
X014721Y017190D02*
X014433Y017190D01*
X014130Y017190D02*
X014010Y017190D01*
X014010Y017309D02*
X014130Y017309D01*
X014130Y017427D02*
X014010Y017427D01*
X014010Y017783D02*
X014130Y017783D01*
X014130Y017901D02*
X014010Y017901D01*
X014010Y018020D02*
X014130Y018020D01*
X014130Y018138D02*
X014010Y018138D01*
X013876Y018138D02*
X013440Y018138D01*
X013440Y018020D02*
X013686Y018020D01*
X013590Y017901D02*
X013440Y017901D01*
X013440Y017783D02*
X013538Y017783D01*
X013160Y017783D02*
X003260Y017783D01*
X003260Y017901D02*
X013160Y017901D01*
X013160Y018020D02*
X003260Y018020D01*
X003260Y018138D02*
X013160Y018138D01*
X013160Y018257D02*
X003260Y018257D01*
X003260Y018375D02*
X013160Y018375D01*
X013160Y018494D02*
X003260Y018494D01*
X003260Y018612D02*
X013160Y018612D01*
X013160Y018731D02*
X003260Y018731D01*
X003260Y018849D02*
X013160Y018849D01*
X013160Y018965D02*
X013160Y016007D01*
X013242Y015925D01*
X013162Y016005D02*
X012489Y016005D01*
X012025Y016242D02*
X011915Y016242D01*
X011915Y016361D02*
X012025Y016361D01*
X012025Y016479D02*
X011915Y016479D01*
X011915Y016598D02*
X012025Y016598D01*
X011660Y016598D02*
X011208Y016598D01*
X011353Y016479D02*
X011538Y016479D01*
X011469Y016361D02*
X011426Y016361D01*
X011449Y016005D02*
X011451Y016005D01*
X011400Y015887D02*
X011501Y015887D01*
X011593Y015768D02*
X011290Y015768D01*
X011778Y015650D02*
X009162Y015650D01*
X009025Y015650D02*
X008915Y015650D01*
X008915Y015768D02*
X009025Y015768D01*
X009025Y015887D02*
X008915Y015887D01*
X008915Y016005D02*
X009025Y016005D01*
X009025Y016124D02*
X010470Y016124D01*
X010470Y016242D02*
X009503Y016242D01*
X009471Y016361D02*
X010514Y016361D01*
X010587Y016479D02*
X009402Y016479D01*
X009280Y016598D02*
X010732Y016598D01*
X010491Y016005D02*
X009489Y016005D01*
X009439Y015887D02*
X010540Y015887D01*
X010650Y015768D02*
X009347Y015768D01*
X009025Y016242D02*
X008915Y016242D01*
X008915Y016361D02*
X009025Y016361D01*
X009025Y016479D02*
X008915Y016479D01*
X008915Y016598D02*
X009025Y016598D01*
X008660Y016598D02*
X008208Y016598D01*
X008353Y016479D02*
X008538Y016479D01*
X008469Y016361D02*
X008426Y016361D01*
X008449Y016005D02*
X008451Y016005D01*
X008400Y015887D02*
X008501Y015887D01*
X008593Y015768D02*
X008290Y015768D01*
X008778Y015650D02*
X006044Y015650D01*
X006254Y015531D02*
X013160Y015531D01*
X013160Y015413D02*
X006353Y015413D01*
X006402Y015294D02*
X013160Y015294D01*
X013160Y015176D02*
X006415Y015176D01*
X006411Y015057D02*
X013160Y015057D01*
X013160Y014583D02*
X003260Y014583D01*
X003260Y014465D02*
X013160Y014465D01*
X013160Y014346D02*
X003260Y014346D01*
X003260Y014228D02*
X013160Y014228D01*
X013160Y014109D02*
X003260Y014109D01*
X003260Y013991D02*
X013160Y013991D01*
X014468Y014465D02*
X015812Y014465D01*
X015723Y014583D02*
X015287Y014583D01*
X015452Y014702D02*
X015674Y014702D01*
X016150Y014939D02*
X016270Y014939D01*
X016270Y015057D02*
X016150Y015057D01*
X016150Y015176D02*
X016270Y015176D01*
X016270Y015294D02*
X016150Y015294D01*
X015367Y015294D02*
X015232Y015350D01*
X015367Y015406D01*
X014828Y014702D02*
X014606Y014702D01*
X014557Y014583D02*
X014993Y014583D01*
X016035Y013754D02*
X006107Y013754D01*
X006018Y013790D02*
X006200Y013715D01*
X006340Y013575D01*
X006415Y013393D01*
X006415Y013197D01*
X006340Y013015D01*
X006200Y012875D01*
X006018Y012800D01*
X005822Y012800D01*
X005640Y012875D01*
X005500Y013015D01*
X005425Y013197D01*
X005425Y013393D01*
X005500Y013575D01*
X005640Y013715D01*
X005822Y013790D01*
X006018Y013790D01*
X005733Y013754D02*
X003260Y013754D01*
X003260Y013872D02*
X016119Y013872D01*
X015966Y013635D02*
X006280Y013635D01*
X006364Y013517D02*
X015898Y013517D01*
X015844Y013398D02*
X006413Y013398D01*
X006415Y013280D02*
X015812Y013280D01*
X015780Y013161D02*
X006400Y013161D01*
X006351Y013043D02*
X015749Y013043D01*
X015740Y012924D02*
X006249Y012924D01*
X006032Y012806D02*
X015740Y012806D01*
X015740Y012687D02*
X003260Y012687D01*
X003260Y012569D02*
X015740Y012569D01*
X015769Y012450D02*
X003260Y012450D01*
X003260Y012332D02*
X015801Y012332D01*
X015833Y012213D02*
X013418Y012213D01*
X013407Y012224D02*
X013260Y012285D01*
X013100Y012285D01*
X012953Y012224D01*
X012841Y012112D01*
X012780Y011965D01*
X012780Y011417D01*
X012560Y011197D01*
X012580Y011245D01*
X012580Y011965D01*
X012519Y012112D01*
X012407Y012224D01*
X012260Y012285D01*
X012100Y012285D01*
X011953Y012224D01*
X011841Y012112D01*
X011780Y011965D01*
X011780Y011245D01*
X011841Y011098D01*
X011953Y010986D01*
X012100Y010925D01*
X012260Y010925D01*
X012407Y010986D01*
X012430Y011009D01*
X012430Y010205D01*
X011708Y010205D01*
X011070Y010843D01*
X010988Y010925D01*
X003260Y010925D01*
X003260Y018965D01*
X013160Y018965D01*
X013160Y017664D02*
X003260Y017664D01*
X003260Y017546D02*
X013160Y017546D01*
X013160Y017427D02*
X006228Y017427D01*
X006342Y017309D02*
X013160Y017309D01*
X013160Y017190D02*
X006392Y017190D01*
X006415Y017072D02*
X013160Y017072D01*
X013160Y016953D02*
X006415Y016953D01*
X006373Y016835D02*
X013160Y016835D01*
X015559Y017190D02*
X015847Y017190D01*
X016150Y017190D02*
X016270Y017190D01*
X016270Y017309D02*
X016150Y017309D01*
X016150Y017427D02*
X016270Y017427D01*
X016270Y017783D02*
X016150Y017783D01*
X016150Y017901D02*
X016270Y017901D01*
X016270Y018020D02*
X016150Y018020D01*
X016594Y018020D02*
X016786Y018020D01*
X016704Y017309D02*
X016676Y017309D01*
X016573Y017190D02*
X016807Y017190D01*
X017706Y014702D02*
X017928Y014702D01*
X017960Y014583D02*
X017657Y014583D01*
X017789Y014465D02*
X017960Y014465D01*
X018538Y014583D02*
X018823Y014583D01*
X018774Y014702D02*
X018552Y014702D01*
X018656Y014465D02*
X018912Y014465D01*
X019120Y013161D02*
X019168Y013161D01*
X019151Y013043D02*
X019200Y013043D01*
X019200Y012924D02*
X019160Y012924D01*
X019160Y012806D02*
X019200Y012806D01*
X019200Y012687D02*
X019160Y012687D01*
X019160Y012569D02*
X019200Y012569D01*
X019200Y012450D02*
X019131Y012450D01*
X019099Y012332D02*
X019200Y012332D01*
X019200Y012213D02*
X019067Y012213D01*
X019026Y012095D02*
X019200Y012095D01*
X019200Y011976D02*
X018957Y011976D01*
X018889Y011858D02*
X019200Y011858D01*
X019200Y011739D02*
X018821Y011739D01*
X018704Y011621D02*
X019200Y011621D01*
X019200Y011502D02*
X018585Y011502D01*
X018443Y011384D02*
X019200Y011384D01*
X019200Y011265D02*
X018237Y011265D01*
X017942Y011147D02*
X019200Y011147D01*
X019200Y011028D02*
X013449Y011028D01*
X013407Y010986D02*
X013519Y011098D01*
X013580Y011245D01*
X013580Y011965D01*
X013519Y012112D01*
X013407Y012224D01*
X013526Y012095D02*
X015874Y012095D01*
X015943Y011976D02*
X013575Y011976D01*
X013580Y011858D02*
X016011Y011858D01*
X016079Y011739D02*
X013580Y011739D01*
X013580Y011621D02*
X016196Y011621D01*
X016315Y011502D02*
X013580Y011502D01*
X013580Y011384D02*
X016457Y011384D01*
X016663Y011265D02*
X013580Y011265D01*
X013539Y011147D02*
X016958Y011147D01*
X019200Y010910D02*
X012730Y010910D01*
X012730Y010943D02*
X012863Y011076D01*
X012953Y010986D01*
X013100Y010925D01*
X013260Y010925D01*
X013407Y010986D01*
X012911Y011028D02*
X012815Y011028D01*
X012730Y010943D02*
X012730Y010205D01*
X013148Y010205D01*
X013230Y010123D01*
X014678Y008675D01*
X015578Y008675D01*
X015660Y008593D01*
X015660Y008297D01*
X015578Y008215D01*
X015462Y008215D01*
X015380Y008297D01*
X015380Y008395D01*
X014562Y008395D01*
X013032Y009925D01*
X012730Y009925D01*
X012730Y009881D01*
X012736Y009878D01*
X012813Y009801D01*
X012855Y009700D01*
X012855Y009590D01*
X012813Y009489D01*
X012736Y009412D01*
X012635Y009370D01*
X012525Y009370D01*
X012424Y009412D01*
X012347Y009489D01*
X012305Y009590D01*
X012305Y009700D01*
X012347Y009801D01*
X012424Y009878D01*
X012430Y009881D01*
X012430Y009925D01*
X011592Y009925D01*
X010872Y010645D01*
X003260Y010645D01*
X003260Y010554D02*
X010963Y010554D01*
X011081Y010436D02*
X003260Y010436D01*
X003260Y010317D02*
X011200Y010317D01*
X011318Y010199D02*
X003260Y010199D01*
X003260Y010080D02*
X011437Y010080D01*
X011555Y009962D02*
X003260Y009962D01*
X003260Y009843D02*
X012389Y009843D01*
X012315Y009725D02*
X003260Y009725D01*
X003260Y009606D02*
X012305Y009606D01*
X012349Y009488D02*
X003260Y009488D01*
X003260Y009369D02*
X013588Y009369D01*
X013706Y009251D02*
X003260Y009251D01*
X003260Y009132D02*
X013825Y009132D01*
X013943Y009014D02*
X003260Y009014D01*
X003260Y008895D02*
X014062Y008895D01*
X014180Y008777D02*
X003260Y008777D01*
X003260Y008658D02*
X014299Y008658D01*
X014418Y008540D02*
X003260Y008540D01*
X003260Y008421D02*
X010607Y008421D01*
X010577Y008391D02*
X010535Y008290D01*
X010535Y008180D01*
X010577Y008079D01*
X010631Y008025D01*
X010577Y007971D01*
X010535Y007870D01*
X010535Y007760D01*
X010577Y007659D01*
X010654Y007582D01*
X010755Y007540D01*
X010865Y007540D01*
X010966Y007582D01*
X011043Y007659D01*
X011085Y007760D01*
X011085Y007870D01*
X011083Y007875D01*
X011172Y007965D01*
X012365Y007965D01*
X012365Y007880D01*
X012407Y007779D01*
X012484Y007702D01*
X012585Y007660D01*
X012695Y007660D01*
X012796Y007702D01*
X012873Y007779D01*
X012915Y007880D01*
X012915Y007960D01*
X012965Y007960D01*
X013066Y008002D01*
X013143Y008079D01*
X013185Y008180D01*
X013185Y008290D01*
X013143Y008391D01*
X013066Y008468D01*
X012965Y008510D01*
X012855Y008510D01*
X012754Y008468D01*
X012677Y008391D01*
X012674Y008385D01*
X011046Y008385D01*
X011043Y008391D01*
X010966Y008468D01*
X010865Y008510D01*
X010755Y008510D01*
X010654Y008468D01*
X010577Y008391D01*
X010540Y008303D02*
X003260Y008303D01*
X003260Y008184D02*
X010535Y008184D01*
X010591Y008066D02*
X003260Y008066D01*
X003260Y007947D02*
X010567Y007947D01*
X010535Y007829D02*
X003260Y007829D01*
X003260Y007710D02*
X010556Y007710D01*
X010645Y007592D02*
X003260Y007592D01*
X003260Y007473D02*
X015380Y007473D01*
X015380Y007355D02*
X003260Y007355D01*
X003260Y007236D02*
X015380Y007236D01*
X015380Y007118D02*
X003260Y007118D01*
X003260Y006999D02*
X015380Y006999D01*
X015380Y006881D02*
X003260Y006881D01*
X003260Y006762D02*
X015380Y006762D01*
X015380Y006644D02*
X003260Y006644D01*
X003260Y006525D02*
X015380Y006525D01*
X015380Y006407D02*
X003260Y006407D01*
X003260Y006288D02*
X015380Y006288D01*
X015380Y006170D02*
X003260Y006170D01*
X003260Y006051D02*
X015380Y006051D01*
X015380Y005933D02*
X003260Y005933D01*
X003260Y005814D02*
X015380Y005814D01*
X015380Y005696D02*
X003260Y005696D01*
X003260Y005577D02*
X015380Y005577D01*
X015380Y005459D02*
X015206Y005459D01*
X015334Y005340D02*
X015380Y005340D01*
X015660Y005459D02*
X015734Y005459D01*
X015660Y005577D02*
X018768Y005577D01*
X018763Y005575D02*
X018687Y005537D01*
X018618Y005487D01*
X018558Y005427D01*
X018508Y005358D01*
X018470Y005282D01*
X018450Y005222D01*
X018394Y005358D01*
X018253Y005499D01*
X018069Y005575D01*
X017871Y005575D01*
X017687Y005499D01*
X017546Y005358D01*
X017470Y005174D01*
X017470Y004976D01*
X017546Y004792D01*
X017687Y004651D01*
X017871Y004575D01*
X018069Y004575D01*
X018253Y004651D01*
X018394Y004792D01*
X018450Y004928D01*
X018470Y004868D01*
X018508Y004792D01*
X018558Y004723D01*
X018618Y004663D01*
X018687Y004613D01*
X018763Y004575D01*
X018844Y004548D01*
X018915Y004537D01*
X018915Y005020D01*
X019025Y005020D01*
X019025Y005130D01*
X019508Y005130D01*
X019497Y005201D01*
X019470Y005282D01*
X019432Y005358D01*
X019382Y005427D01*
X019322Y005487D01*
X019253Y005537D01*
X019177Y005575D01*
X019096Y005602D01*
X019025Y005613D01*
X019025Y005130D01*
X018915Y005130D01*
X018915Y005613D01*
X018844Y005602D01*
X018763Y005575D01*
X018915Y005577D02*
X019025Y005577D01*
X019025Y005459D02*
X018915Y005459D01*
X018915Y005340D02*
X019025Y005340D01*
X019025Y005222D02*
X018915Y005222D01*
X019025Y005103D02*
X019680Y005103D01*
X019680Y004985D02*
X019502Y004985D01*
X019508Y005020D02*
X019025Y005020D01*
X019025Y004537D01*
X019096Y004548D01*
X019177Y004575D01*
X019253Y004613D01*
X019322Y004663D01*
X019382Y004723D01*
X019432Y004792D01*
X019470Y004868D01*
X019497Y004949D01*
X019508Y005020D01*
X019470Y004866D02*
X019680Y004866D01*
X019680Y004748D02*
X019400Y004748D01*
X019275Y004629D02*
X019680Y004629D01*
X019680Y004511D02*
X015660Y004511D01*
X015660Y004629D02*
X017740Y004629D01*
X017590Y004748D02*
X016272Y004748D01*
X016365Y004866D02*
X017515Y004866D01*
X017470Y004985D02*
X016414Y004985D01*
X016415Y005103D02*
X017470Y005103D01*
X017489Y005222D02*
X016391Y005222D01*
X016334Y005340D02*
X017539Y005340D01*
X017646Y005459D02*
X016206Y005459D01*
X015660Y005696D02*
X019680Y005696D01*
X019680Y005814D02*
X015660Y005814D01*
X015660Y005933D02*
X019680Y005933D01*
X019680Y006051D02*
X015660Y006051D01*
X015660Y006170D02*
X016356Y006170D01*
X016366Y006165D02*
X016534Y006165D01*
X016688Y006229D01*
X016806Y006347D01*
X016870Y006501D01*
X016870Y007269D01*
X016806Y007423D01*
X016688Y007541D01*
X016534Y007605D01*
X016366Y007605D01*
X016212Y007541D01*
X016094Y007423D01*
X016030Y007269D01*
X016030Y006501D01*
X016094Y006347D01*
X016212Y006229D01*
X016366Y006165D01*
X016544Y006170D02*
X017252Y006170D01*
X017273Y006159D02*
X017342Y006136D01*
X017410Y006126D01*
X017410Y006845D01*
X017490Y006845D01*
X017490Y006925D01*
X017910Y006925D01*
X017910Y007221D01*
X017899Y007293D01*
X017876Y007362D01*
X017843Y007426D01*
X017801Y007485D01*
X017750Y007536D01*
X017691Y007578D01*
X017627Y007611D01*
X017558Y007634D01*
X017490Y007644D01*
X017490Y006925D01*
X017410Y006925D01*
X017410Y007644D01*
X017342Y007634D01*
X017273Y007611D01*
X017209Y007578D01*
X017150Y007536D01*
X017099Y007485D01*
X017057Y007426D01*
X017024Y007362D01*
X017001Y007293D01*
X016990Y007221D01*
X016990Y006925D01*
X017410Y006925D01*
X017410Y006845D01*
X016990Y006845D01*
X016990Y006549D01*
X017001Y006477D01*
X017024Y006408D01*
X017057Y006344D01*
X017099Y006285D01*
X017150Y006234D01*
X017209Y006192D01*
X017273Y006159D01*
X017410Y006170D02*
X017490Y006170D01*
X017490Y006126D02*
X017558Y006136D01*
X017627Y006159D01*
X017691Y006192D01*
X017750Y006234D01*
X017801Y006285D01*
X017843Y006344D01*
X017876Y006408D01*
X017899Y006477D01*
X017910Y006549D01*
X017910Y006845D01*
X017490Y006845D01*
X017490Y006126D01*
X017490Y006288D02*
X017410Y006288D01*
X017410Y006407D02*
X017490Y006407D01*
X017490Y006525D02*
X017410Y006525D01*
X017410Y006644D02*
X017490Y006644D01*
X017490Y006762D02*
X017410Y006762D01*
X017410Y006881D02*
X016870Y006881D01*
X016870Y006999D02*
X016990Y006999D01*
X016990Y007118D02*
X016870Y007118D01*
X016870Y007236D02*
X016992Y007236D01*
X017021Y007355D02*
X016834Y007355D01*
X016756Y007473D02*
X017091Y007473D01*
X017235Y007592D02*
X016566Y007592D01*
X016334Y007592D02*
X015660Y007592D01*
X015660Y007710D02*
X018919Y007710D01*
X018801Y007592D02*
X018566Y007592D01*
X018334Y007592D02*
X017665Y007592D01*
X017490Y007592D02*
X017410Y007592D01*
X017410Y007473D02*
X017490Y007473D01*
X017490Y007355D02*
X017410Y007355D01*
X017410Y007236D02*
X017490Y007236D01*
X017490Y007118D02*
X017410Y007118D01*
X017410Y006999D02*
X017490Y006999D01*
X017490Y006881D02*
X018030Y006881D01*
X018030Y006999D02*
X017910Y006999D01*
X017910Y007118D02*
X018030Y007118D01*
X018030Y007236D02*
X017908Y007236D01*
X017879Y007355D02*
X018066Y007355D01*
X018144Y007473D02*
X017809Y007473D01*
X017910Y006762D02*
X018030Y006762D01*
X018030Y006644D02*
X017910Y006644D01*
X017906Y006525D02*
X018030Y006525D01*
X018069Y006407D02*
X017875Y006407D01*
X017803Y006288D02*
X018153Y006288D01*
X018356Y006170D02*
X017648Y006170D01*
X017097Y006288D02*
X016747Y006288D01*
X016831Y006407D02*
X017025Y006407D01*
X016994Y006525D02*
X016870Y006525D01*
X016870Y006644D02*
X016990Y006644D01*
X016990Y006762D02*
X016870Y006762D01*
X016153Y006288D02*
X015660Y006288D01*
X015660Y006407D02*
X016069Y006407D01*
X016030Y006525D02*
X015660Y006525D01*
X015660Y006644D02*
X016030Y006644D01*
X016030Y006762D02*
X015660Y006762D01*
X015660Y006881D02*
X016030Y006881D01*
X016030Y006999D02*
X015660Y006999D01*
X015660Y007118D02*
X016030Y007118D01*
X016030Y007236D02*
X015660Y007236D01*
X015660Y007355D02*
X016066Y007355D01*
X016144Y007473D02*
X015660Y007473D01*
X015380Y007592D02*
X010975Y007592D01*
X011064Y007710D02*
X012476Y007710D01*
X012386Y007829D02*
X011085Y007829D01*
X011154Y007947D02*
X012365Y007947D01*
X012804Y007710D02*
X015380Y007710D01*
X015380Y007829D02*
X012894Y007829D01*
X012915Y007947D02*
X015380Y007947D01*
X015380Y008066D02*
X013129Y008066D01*
X013185Y008184D02*
X015451Y008184D01*
X015589Y008184D02*
X019200Y008184D01*
X019200Y008066D02*
X015660Y008066D01*
X015660Y007947D02*
X019156Y007947D01*
X019038Y007829D02*
X015660Y007829D01*
X015660Y008303D02*
X019200Y008303D01*
X019200Y008421D02*
X015660Y008421D01*
X015660Y008540D02*
X019200Y008540D01*
X019200Y008658D02*
X015595Y008658D01*
X015380Y008303D02*
X013180Y008303D01*
X013113Y008421D02*
X014536Y008421D01*
X014576Y008777D02*
X019200Y008777D01*
X019200Y008895D02*
X014458Y008895D01*
X014339Y009014D02*
X019200Y009014D01*
X019200Y009132D02*
X014221Y009132D01*
X014102Y009251D02*
X019200Y009251D01*
X019200Y009369D02*
X013984Y009369D01*
X013865Y009488D02*
X019200Y009488D01*
X019200Y009606D02*
X013747Y009606D01*
X013628Y009725D02*
X019200Y009725D01*
X019200Y009843D02*
X013510Y009843D01*
X013391Y009962D02*
X019200Y009962D01*
X019200Y010080D02*
X013273Y010080D01*
X013154Y010199D02*
X019200Y010199D01*
X019200Y010317D02*
X012730Y010317D01*
X012730Y010436D02*
X019200Y010436D01*
X019200Y010554D02*
X012730Y010554D01*
X012730Y010673D02*
X019200Y010673D01*
X019200Y010791D02*
X012730Y010791D01*
X012430Y010791D02*
X011122Y010791D01*
X011240Y010673D02*
X012430Y010673D01*
X012430Y010554D02*
X011359Y010554D01*
X011477Y010436D02*
X012430Y010436D01*
X012430Y010317D02*
X011596Y010317D01*
X011003Y010910D02*
X012430Y010910D01*
X012580Y011265D02*
X012628Y011265D01*
X012580Y011384D02*
X012746Y011384D01*
X012780Y011502D02*
X012580Y011502D01*
X012580Y011621D02*
X012780Y011621D01*
X012780Y011739D02*
X012580Y011739D01*
X012580Y011858D02*
X012780Y011858D01*
X012785Y011976D02*
X012575Y011976D01*
X012526Y012095D02*
X012834Y012095D01*
X012942Y012213D02*
X012418Y012213D01*
X011942Y012213D02*
X003260Y012213D01*
X003260Y012095D02*
X011834Y012095D01*
X011785Y011976D02*
X003260Y011976D01*
X003260Y011858D02*
X011780Y011858D01*
X011780Y011739D02*
X003260Y011739D01*
X003260Y011621D02*
X011780Y011621D01*
X011780Y011502D02*
X003260Y011502D01*
X003260Y011384D02*
X011780Y011384D01*
X011780Y011265D02*
X003260Y011265D01*
X003260Y011147D02*
X011821Y011147D01*
X011911Y011028D02*
X003260Y011028D01*
X003260Y012806D02*
X005808Y012806D01*
X005591Y012924D02*
X003260Y012924D01*
X003260Y013043D02*
X005489Y013043D01*
X005440Y013161D02*
X003260Y013161D01*
X003260Y013280D02*
X005425Y013280D01*
X005427Y013398D02*
X003260Y013398D01*
X003260Y013517D02*
X005476Y013517D01*
X005560Y013635D02*
X003260Y013635D01*
X003260Y016598D02*
X005683Y016598D01*
X005539Y016716D02*
X003260Y016716D01*
X003260Y016835D02*
X005467Y016835D01*
X005425Y016953D02*
X003260Y016953D01*
X003260Y017072D02*
X005425Y017072D01*
X005448Y017190D02*
X003260Y017190D01*
X003260Y017309D02*
X005498Y017309D01*
X005612Y017427D02*
X003260Y017427D01*
X012771Y009843D02*
X013114Y009843D01*
X013232Y009725D02*
X012845Y009725D01*
X012855Y009606D02*
X013351Y009606D01*
X013469Y009488D02*
X012811Y009488D01*
X012707Y008421D02*
X011013Y008421D01*
X011058Y005520D02*
X010882Y005520D01*
X010718Y005452D01*
X010593Y005327D01*
X010525Y005163D01*
X010525Y004987D01*
X010593Y004823D01*
X010718Y004698D01*
X010882Y004630D01*
X011058Y004630D01*
X011222Y004698D01*
X011347Y004823D01*
X011415Y004987D01*
X011415Y005163D01*
X011347Y005327D01*
X011222Y005452D01*
X011058Y005520D01*
X011206Y005459D02*
X011673Y005459D01*
X011654Y005445D02*
X011600Y005391D01*
X011555Y005329D01*
X011521Y005261D01*
X011497Y005189D01*
X011487Y005123D01*
X011922Y005123D01*
X011922Y005027D01*
X012018Y005027D01*
X012018Y005123D01*
X012453Y005123D01*
X012443Y005189D01*
X012419Y005261D01*
X012385Y005329D01*
X012340Y005391D01*
X012286Y005445D01*
X012224Y005490D01*
X012156Y005524D01*
X012084Y005548D01*
X012018Y005558D01*
X012018Y005123D01*
X011922Y005123D01*
X011922Y005558D01*
X011856Y005548D01*
X011784Y005524D01*
X011716Y005490D01*
X011654Y005445D01*
X011563Y005340D02*
X011334Y005340D01*
X011391Y005222D02*
X011508Y005222D01*
X011415Y005103D02*
X011922Y005103D01*
X011922Y005027D02*
X011487Y005027D01*
X011497Y004961D01*
X011521Y004889D01*
X011555Y004821D01*
X011600Y004759D01*
X011654Y004705D01*
X011716Y004660D01*
X011784Y004626D01*
X011856Y004602D01*
X011922Y004592D01*
X011922Y005027D01*
X011922Y004985D02*
X012018Y004985D01*
X012018Y005027D02*
X012018Y004592D01*
X012084Y004602D01*
X012156Y004626D01*
X012224Y004660D01*
X012286Y004705D01*
X012340Y004759D01*
X012385Y004821D01*
X012419Y004889D01*
X012443Y004961D01*
X012453Y005027D01*
X012018Y005027D01*
X012018Y005103D02*
X012525Y005103D01*
X012525Y005163D02*
X012525Y004987D01*
X012593Y004823D01*
X012718Y004698D01*
X012882Y004630D01*
X013058Y004630D01*
X013222Y004698D01*
X013347Y004823D01*
X013415Y004987D01*
X013415Y005163D01*
X013347Y005327D01*
X013222Y005452D01*
X013058Y005520D01*
X012882Y005520D01*
X012718Y005452D01*
X012593Y005327D01*
X012525Y005163D01*
X012549Y005222D02*
X012432Y005222D01*
X012377Y005340D02*
X012606Y005340D01*
X012734Y005459D02*
X012267Y005459D01*
X012018Y005459D02*
X011922Y005459D01*
X011922Y005340D02*
X012018Y005340D01*
X012018Y005222D02*
X011922Y005222D01*
X011922Y004866D02*
X012018Y004866D01*
X012018Y004748D02*
X011922Y004748D01*
X011922Y004629D02*
X012018Y004629D01*
X012163Y004629D02*
X013777Y004629D01*
X013784Y004626D02*
X013856Y004602D01*
X013922Y004592D01*
X013922Y005027D01*
X014018Y005027D01*
X014018Y005123D01*
X014453Y005123D01*
X014443Y005189D01*
X014419Y005261D01*
X014385Y005329D01*
X014340Y005391D01*
X014286Y005445D01*
X014224Y005490D01*
X014156Y005524D01*
X014084Y005548D01*
X014018Y005558D01*
X014018Y005123D01*
X013922Y005123D01*
X013922Y005027D01*
X013487Y005027D01*
X013497Y004961D01*
X013521Y004889D01*
X013555Y004821D01*
X013600Y004759D01*
X013654Y004705D01*
X013716Y004660D01*
X013784Y004626D01*
X013922Y004629D02*
X014018Y004629D01*
X014018Y004592D02*
X014084Y004602D01*
X014156Y004626D01*
X014224Y004660D01*
X014286Y004705D01*
X014340Y004759D01*
X014385Y004821D01*
X014419Y004889D01*
X014443Y004961D01*
X014453Y005027D01*
X014018Y005027D01*
X014018Y004592D01*
X014163Y004629D02*
X015380Y004629D01*
X015380Y004511D02*
X003260Y004511D01*
X003260Y004629D02*
X011777Y004629D01*
X011612Y004748D02*
X011272Y004748D01*
X011365Y004866D02*
X011532Y004866D01*
X011493Y004985D02*
X011414Y004985D01*
X010668Y004748D02*
X010272Y004748D01*
X010222Y004698D02*
X010347Y004823D01*
X010415Y004987D01*
X010415Y005163D01*
X010347Y005327D01*
X010222Y005452D01*
X010058Y005520D01*
X009882Y005520D01*
X009718Y005452D01*
X009593Y005327D01*
X009525Y005163D01*
X009525Y004987D01*
X009593Y004823D01*
X009718Y004698D01*
X009882Y004630D01*
X010058Y004630D01*
X010222Y004698D01*
X010365Y004866D02*
X010575Y004866D01*
X010526Y004985D02*
X010414Y004985D01*
X010415Y005103D02*
X010525Y005103D01*
X010549Y005222D02*
X010391Y005222D01*
X010334Y005340D02*
X010606Y005340D01*
X010734Y005459D02*
X010206Y005459D01*
X009734Y005459D02*
X003260Y005459D01*
X003260Y005340D02*
X009606Y005340D01*
X009549Y005222D02*
X003260Y005222D01*
X003260Y005103D02*
X009525Y005103D01*
X009526Y004985D02*
X003260Y004985D01*
X003260Y004866D02*
X009575Y004866D01*
X009668Y004748D02*
X003260Y004748D01*
X012328Y004748D02*
X012668Y004748D01*
X012575Y004866D02*
X012408Y004866D01*
X012447Y004985D02*
X012526Y004985D01*
X013206Y005459D02*
X013673Y005459D01*
X013654Y005445D02*
X013600Y005391D01*
X013555Y005329D01*
X013521Y005261D01*
X013497Y005189D01*
X013487Y005123D01*
X013922Y005123D01*
X013922Y005558D01*
X013856Y005548D01*
X013784Y005524D01*
X013716Y005490D01*
X013654Y005445D01*
X013563Y005340D02*
X013334Y005340D01*
X013391Y005222D02*
X013508Y005222D01*
X013415Y005103D02*
X013922Y005103D01*
X014018Y005103D02*
X014525Y005103D01*
X014526Y004985D02*
X014447Y004985D01*
X014408Y004866D02*
X014575Y004866D01*
X014668Y004748D02*
X014328Y004748D01*
X014018Y004748D02*
X013922Y004748D01*
X013922Y004866D02*
X014018Y004866D01*
X014018Y004985D02*
X013922Y004985D01*
X013922Y005222D02*
X014018Y005222D01*
X014018Y005340D02*
X013922Y005340D01*
X013922Y005459D02*
X014018Y005459D01*
X014267Y005459D02*
X014734Y005459D01*
X014606Y005340D02*
X014377Y005340D01*
X014432Y005222D02*
X014549Y005222D01*
X015272Y004748D02*
X015380Y004748D01*
X015365Y004866D02*
X015380Y004866D01*
X015660Y004748D02*
X015668Y004748D01*
X013612Y004748D02*
X013272Y004748D01*
X013365Y004866D02*
X013532Y004866D01*
X013493Y004985D02*
X013414Y004985D01*
X018200Y004629D02*
X018665Y004629D01*
X018540Y004748D02*
X018350Y004748D01*
X018425Y004866D02*
X018470Y004866D01*
X018915Y004866D02*
X019025Y004866D01*
X019025Y004748D02*
X018915Y004748D01*
X018915Y004629D02*
X019025Y004629D01*
X019025Y004985D02*
X018915Y004985D01*
X018499Y005340D02*
X018401Y005340D01*
X018294Y005459D02*
X018590Y005459D01*
X019172Y005577D02*
X019680Y005577D01*
X019680Y005459D02*
X019350Y005459D01*
X019441Y005340D02*
X019680Y005340D01*
X019680Y005222D02*
X019490Y005222D01*
X019680Y006170D02*
X018544Y006170D01*
X018747Y006288D02*
X019680Y006288D01*
X019680Y006407D02*
X018831Y006407D01*
X018870Y006525D02*
X019680Y006525D01*
X019680Y006644D02*
X018870Y006644D01*
X018870Y006762D02*
X019680Y006762D01*
X019680Y006881D02*
X018881Y006881D01*
X019000Y006999D02*
X019680Y006999D01*
X019680Y007118D02*
X019118Y007118D01*
X019237Y007236D02*
X019680Y007236D01*
X019680Y007355D02*
X019355Y007355D01*
X019474Y007473D02*
X019680Y007473D01*
X019680Y007592D02*
X019592Y007592D01*
D21*
X019480Y007875D02*
X018430Y006825D01*
X019480Y007875D02*
X019480Y013245D01*
X018240Y014485D01*
X018240Y014955D01*
X014200Y010875D02*
X014110Y010965D01*
X014200Y010875D02*
X014230Y010875D01*
M02*
