G75*
G70*
%OFA0B0*%
%FSLAX24Y24*%
%IPPOS*%
%LPD*%
%AMOC8*
5,1,8,0,0,1.08239X$1,22.5*
%
%ADD10C,0.1340*%
%ADD11C,0.0680*%
%ADD12C,0.1261*%
%ADD13C,0.0081*%
%ADD14C,0.0680*%
%ADD15C,0.0083*%
%ADD16C,0.0084*%
%ADD17C,0.1025*%
%ADD18R,0.0476X0.0476*%
D10*
X001472Y003931D03*
X001472Y013931D03*
X011472Y013931D03*
X011472Y003931D03*
D11*
X009957Y010651D03*
X002957Y010651D03*
D12*
X005957Y005651D03*
X009957Y005651D03*
D13*
X003474Y013638D02*
X003080Y013638D01*
X003474Y013638D02*
X003474Y013088D01*
X003080Y013088D01*
X003080Y013638D01*
X003080Y013168D02*
X003474Y013168D01*
X003474Y013248D02*
X003080Y013248D01*
X003080Y013328D02*
X003474Y013328D01*
X003474Y013408D02*
X003080Y013408D01*
X003080Y013488D02*
X003474Y013488D01*
X003474Y013568D02*
X003080Y013568D01*
X003100Y014504D02*
X002706Y014504D01*
X003100Y014504D02*
X003100Y013954D01*
X002706Y013954D01*
X002706Y014504D01*
X002706Y014034D02*
X003100Y014034D01*
X003100Y014114D02*
X002706Y014114D01*
X002706Y014194D02*
X003100Y014194D01*
X003100Y014274D02*
X002706Y014274D01*
X002706Y014354D02*
X003100Y014354D01*
X003100Y014434D02*
X002706Y014434D01*
X003454Y014504D02*
X003848Y014504D01*
X003848Y013954D01*
X003454Y013954D01*
X003454Y014504D01*
X003454Y014034D02*
X003848Y014034D01*
X003848Y014114D02*
X003454Y014114D01*
X003454Y014194D02*
X003848Y014194D01*
X003848Y014274D02*
X003454Y014274D01*
X003454Y014354D02*
X003848Y014354D01*
X003848Y014434D02*
X003454Y014434D01*
D14*
X006952Y013671D02*
X006952Y013071D01*
X007952Y013071D02*
X007952Y013671D01*
X008952Y013671D02*
X008952Y013071D01*
D15*
X006051Y014635D02*
X005541Y014635D01*
X006051Y014635D02*
X006051Y014047D01*
X005541Y014047D01*
X005541Y014635D01*
X005541Y014129D02*
X006051Y014129D01*
X006051Y014211D02*
X005541Y014211D01*
X005541Y014293D02*
X006051Y014293D01*
X006051Y014375D02*
X005541Y014375D01*
X005541Y014457D02*
X006051Y014457D01*
X006051Y014539D02*
X005541Y014539D01*
X005541Y014621D02*
X006051Y014621D01*
X005382Y014635D02*
X004872Y014635D01*
X005382Y014635D02*
X005382Y014047D01*
X004872Y014047D01*
X004872Y014635D01*
X004872Y014129D02*
X005382Y014129D01*
X005382Y014211D02*
X004872Y014211D01*
X004872Y014293D02*
X005382Y014293D01*
X005382Y014375D02*
X004872Y014375D01*
X004872Y014457D02*
X005382Y014457D01*
X005382Y014539D02*
X004872Y014539D01*
X004872Y014621D02*
X005382Y014621D01*
D16*
X005329Y013109D02*
X006175Y013109D01*
X006175Y012033D01*
X005329Y012033D01*
X005329Y013109D01*
X005329Y012116D02*
X006175Y012116D01*
X006175Y012199D02*
X005329Y012199D01*
X005329Y012282D02*
X006175Y012282D01*
X006175Y012365D02*
X005329Y012365D01*
X005329Y012448D02*
X006175Y012448D01*
X006175Y012531D02*
X005329Y012531D01*
X005329Y012614D02*
X006175Y012614D01*
X006175Y012697D02*
X005329Y012697D01*
X005329Y012780D02*
X006175Y012780D01*
X006175Y012863D02*
X005329Y012863D01*
X005329Y012946D02*
X006175Y012946D01*
X006175Y013029D02*
X005329Y013029D01*
X004435Y013099D02*
X003589Y013099D01*
X004435Y013099D02*
X004435Y012023D01*
X003589Y012023D01*
X003589Y013099D01*
X003589Y012106D02*
X004435Y012106D01*
X004435Y012189D02*
X003589Y012189D01*
X003589Y012272D02*
X004435Y012272D01*
X004435Y012355D02*
X003589Y012355D01*
X003589Y012438D02*
X004435Y012438D01*
X004435Y012521D02*
X003589Y012521D01*
X003589Y012604D02*
X004435Y012604D01*
X004435Y012687D02*
X003589Y012687D01*
X003589Y012770D02*
X004435Y012770D01*
X004435Y012853D02*
X003589Y012853D01*
X003589Y012936D02*
X004435Y012936D01*
X004435Y013019D02*
X003589Y013019D01*
D17*
X005497Y002191D03*
X007465Y002191D03*
D18*
X002742Y013361D03*
M02*
