G75*
G70*
%OFA0B0*%
%FSLAX24Y24*%
%IPPOS*%
%LPD*%
%AMOC8*
5,1,8,0,0,1.08239X$1,22.5*
%
%ADD10C,0.0030*%
%ADD11C,0.0600*%
%ADD12C,0.1181*%
%ADD13R,0.0394X0.0551*%
%ADD14C,0.0600*%
%ADD15R,0.0512X0.0591*%
%ADD16R,0.0850X0.1080*%
%ADD17C,0.0945*%
%ADD18R,0.0396X0.0396*%
%ADD19C,0.0240*%
%ADD20C,0.1000*%
D10*
X001086Y005821D02*
X001457Y006068D01*
X001086Y006068D01*
X001210Y006251D02*
X001210Y006375D01*
X001272Y006437D01*
X001333Y006437D01*
X001333Y006190D01*
X001272Y006190D02*
X001395Y006190D01*
X001457Y006251D01*
X001457Y006375D01*
X001395Y006558D02*
X001457Y006620D01*
X001457Y006805D01*
X001210Y006805D01*
X001210Y006926D02*
X001457Y006926D01*
X001333Y006926D02*
X001210Y007050D01*
X001210Y007111D01*
X001272Y007233D02*
X001395Y007233D01*
X001457Y007295D01*
X001457Y007418D01*
X001395Y007480D01*
X001272Y007480D01*
X001210Y007418D01*
X001210Y007295D01*
X001272Y007233D01*
X001210Y007602D02*
X001210Y007787D01*
X001272Y007848D01*
X001457Y007848D01*
X001457Y007602D02*
X001210Y007602D01*
X001333Y008338D02*
X001333Y008523D01*
X001272Y008585D01*
X001148Y008585D01*
X001086Y008523D01*
X001086Y008338D01*
X001457Y008338D01*
X001333Y008462D02*
X001457Y008585D01*
X001395Y008706D02*
X001457Y008768D01*
X001457Y008892D01*
X001395Y008953D01*
X001272Y008953D01*
X001210Y008892D01*
X001210Y008768D01*
X001272Y008706D01*
X001395Y008706D01*
X001457Y009075D02*
X001086Y009075D01*
X001210Y009075D02*
X001210Y009260D01*
X001272Y009322D01*
X001395Y009322D01*
X001457Y009260D01*
X001457Y009075D01*
X001395Y009443D02*
X001272Y009443D01*
X001210Y009505D01*
X001210Y009628D01*
X001272Y009690D01*
X001395Y009690D01*
X001457Y009628D01*
X001457Y009505D01*
X001395Y009443D01*
X001210Y009811D02*
X001210Y009935D01*
X001148Y009873D02*
X001395Y009873D01*
X001457Y009935D01*
X001457Y010057D02*
X001457Y010180D01*
X001457Y010119D02*
X001210Y010119D01*
X001210Y010057D01*
X001086Y010119D02*
X001025Y010119D01*
X001210Y010364D02*
X001272Y010302D01*
X001395Y010302D01*
X001457Y010364D01*
X001457Y010549D01*
X001457Y010671D02*
X001457Y010856D01*
X001395Y010918D01*
X001333Y010856D01*
X001333Y010732D01*
X001272Y010671D01*
X001210Y010732D01*
X001210Y010918D01*
X001210Y010549D02*
X001210Y010364D01*
X001086Y011407D02*
X001457Y011407D01*
X001457Y011654D01*
X001457Y011776D02*
X001457Y012022D01*
X001395Y012144D02*
X001457Y012206D01*
X001457Y012329D01*
X001395Y012391D01*
X001148Y012391D02*
X001086Y012329D01*
X001086Y012206D01*
X001148Y012144D01*
X001395Y012144D01*
X001457Y011776D02*
X001086Y011776D01*
X001210Y006558D02*
X001395Y006558D01*
X001210Y006251D02*
X001272Y006190D01*
X001457Y005821D02*
X001086Y005821D01*
D11*
X002957Y010651D03*
X009957Y010651D03*
D12*
X009957Y005651D03*
X005957Y005651D03*
D13*
X003277Y013363D03*
X003651Y014229D03*
X002903Y014229D03*
D14*
X006952Y013671D02*
X006952Y013071D01*
X007952Y013071D02*
X007952Y013671D01*
X008952Y013671D02*
X008952Y013071D01*
D15*
X005796Y014341D03*
X005127Y014341D03*
D16*
X005752Y012571D03*
X004012Y012561D03*
D17*
X005497Y002191D03*
X007465Y002191D03*
D18*
X002742Y013361D03*
D19*
X002742Y014069D01*
X002903Y014229D01*
X003651Y014229D02*
X005015Y014229D01*
X005127Y014341D01*
X005142Y014327D01*
X005142Y013689D01*
X006310Y013689D01*
X006628Y013371D01*
X006952Y013371D01*
X007832Y012571D02*
X007842Y012581D01*
X009582Y012581D01*
X009987Y012176D01*
X009957Y012146D01*
X009957Y010651D01*
X007962Y012701D02*
X007962Y013361D01*
X007952Y013371D01*
X007962Y012701D02*
X007842Y012581D01*
X007832Y012571D02*
X005752Y012571D01*
X005876Y014261D02*
X008682Y014261D01*
X008982Y013961D01*
X008982Y013401D01*
X008952Y013371D01*
X005876Y014261D02*
X005796Y014341D01*
X004012Y012561D02*
X003533Y012561D01*
X003281Y012813D01*
X003281Y013359D01*
X003277Y013363D01*
X004012Y012561D02*
X004002Y012551D01*
X004002Y011141D01*
X003512Y010651D01*
X002957Y010651D01*
D20*
X005957Y005651D02*
X005497Y005191D01*
X005497Y002191D01*
X007465Y002191D02*
X007465Y003160D01*
X009957Y005651D01*
M02*
