G75*
G70*
%OFA0B0*%
%FSLAX24Y24*%
%IPPOS*%
%LPD*%
%AMOC8*
5,1,8,0,0,1.08239X$1,22.5*
%
%ADD10C,0.0040*%
%ADD11C,0.0020*%
%ADD12C,0.0010*%
%ADD13C,0.0060*%
%ADD14C,0.0050*%
D10*
X001091Y005826D02*
X001452Y006067D01*
X001091Y006067D01*
X001272Y006195D02*
X001212Y006255D01*
X001212Y006375D01*
X001272Y006435D01*
X001332Y006435D01*
X001332Y006195D01*
X001392Y006195D02*
X001272Y006195D01*
X001392Y006195D02*
X001452Y006255D01*
X001452Y006375D01*
X001392Y006563D02*
X001452Y006623D01*
X001452Y006803D01*
X001212Y006803D01*
X001212Y006931D02*
X001452Y006931D01*
X001332Y006931D02*
X001212Y007051D01*
X001212Y007111D01*
X001272Y007238D02*
X001392Y007238D01*
X001452Y007298D01*
X001452Y007418D01*
X001392Y007478D01*
X001272Y007478D01*
X001212Y007418D01*
X001212Y007298D01*
X001272Y007238D01*
X001212Y007607D02*
X001212Y007787D01*
X001272Y007847D01*
X001452Y007847D01*
X001452Y007607D02*
X001212Y007607D01*
X001332Y008343D02*
X001332Y008523D01*
X001272Y008583D01*
X001151Y008583D01*
X001091Y008523D01*
X001091Y008343D01*
X001452Y008343D01*
X001332Y008463D02*
X001452Y008583D01*
X001392Y008711D02*
X001452Y008771D01*
X001452Y008892D01*
X001392Y008952D01*
X001272Y008952D01*
X001212Y008892D01*
X001212Y008771D01*
X001272Y008711D01*
X001392Y008711D01*
X001452Y009080D02*
X001091Y009080D01*
X001212Y009080D02*
X001212Y009260D01*
X001272Y009320D01*
X001392Y009320D01*
X001452Y009260D01*
X001452Y009080D01*
X001392Y009448D02*
X001272Y009448D01*
X001212Y009508D01*
X001212Y009628D01*
X001272Y009688D01*
X001392Y009688D01*
X001452Y009628D01*
X001452Y009508D01*
X001392Y009448D01*
X001212Y009816D02*
X001212Y009936D01*
X001151Y009876D02*
X001392Y009876D01*
X001452Y009936D01*
X001452Y010062D02*
X001452Y010182D01*
X001452Y010122D02*
X001212Y010122D01*
X001212Y010062D01*
X001091Y010122D02*
X001031Y010122D01*
X001272Y010307D02*
X001212Y010367D01*
X001212Y010548D01*
X001272Y010676D02*
X001212Y010736D01*
X001212Y010916D01*
X001332Y010856D02*
X001332Y010736D01*
X001272Y010676D01*
X001332Y010856D02*
X001392Y010916D01*
X001452Y010856D01*
X001452Y010676D01*
X001452Y010548D02*
X001452Y010367D01*
X001392Y010307D01*
X001272Y010307D01*
X001091Y011412D02*
X001452Y011412D01*
X001452Y011653D01*
X001452Y011781D02*
X001452Y012021D01*
X001392Y012149D02*
X001452Y012209D01*
X001452Y012329D01*
X001392Y012389D01*
X001392Y012149D02*
X001151Y012149D01*
X001091Y012209D01*
X001091Y012329D01*
X001151Y012389D01*
X001091Y011781D02*
X001452Y011781D01*
X001392Y006563D02*
X001212Y006563D01*
X001091Y005826D02*
X001452Y005826D01*
X011716Y005826D02*
X011716Y006007D01*
X011776Y006067D01*
X011897Y006067D01*
X011957Y006007D01*
X011957Y005826D01*
X012077Y005826D02*
X011716Y005826D01*
X011957Y005946D02*
X012077Y006067D01*
X012017Y006195D02*
X011897Y006195D01*
X011837Y006255D01*
X011837Y006375D01*
X011897Y006435D01*
X011957Y006435D01*
X011957Y006195D01*
X012017Y006195D02*
X012077Y006255D01*
X012077Y006375D01*
X012077Y006563D02*
X012077Y006683D01*
X012077Y006623D02*
X011716Y006623D01*
X011716Y006563D01*
X011837Y006869D02*
X011837Y006989D01*
X011897Y007049D01*
X012077Y007049D01*
X012077Y006869D01*
X012017Y006809D01*
X011957Y006869D01*
X011957Y007049D01*
X012017Y007177D02*
X011837Y007177D01*
X012017Y007177D02*
X012077Y007237D01*
X012077Y007417D01*
X012137Y007417D02*
X012197Y007357D01*
X012197Y007297D01*
X012137Y007417D02*
X011837Y007417D01*
X011897Y007913D02*
X011897Y008094D01*
X011957Y008154D01*
X012017Y008154D01*
X012077Y008094D01*
X012077Y007913D01*
X011716Y007913D01*
X011716Y008094D01*
X011776Y008154D01*
X011837Y008154D01*
X011897Y008094D01*
X011897Y008282D02*
X012017Y008282D01*
X012077Y008342D01*
X012077Y008462D01*
X012017Y008522D01*
X011897Y008522D01*
X011837Y008462D01*
X011837Y008342D01*
X011897Y008282D01*
X012017Y008650D02*
X011957Y008710D01*
X011957Y008890D01*
X011897Y008890D02*
X012077Y008890D01*
X012077Y008710D01*
X012017Y008650D01*
X011837Y008710D02*
X011837Y008830D01*
X011897Y008890D01*
X011957Y009018D02*
X011837Y009138D01*
X011837Y009199D01*
X011897Y009325D02*
X011837Y009385D01*
X011837Y009565D01*
X011716Y009565D02*
X012077Y009565D01*
X012077Y009385D01*
X012017Y009325D01*
X011897Y009325D01*
X011837Y009018D02*
X012077Y009018D01*
X012077Y010062D02*
X011716Y010062D01*
X011716Y010242D01*
X011776Y010302D01*
X011897Y010302D01*
X011957Y010242D01*
X011957Y010062D01*
X011957Y010182D02*
X012077Y010302D01*
X012017Y010430D02*
X011897Y010430D01*
X011837Y010490D01*
X011837Y010610D01*
X011897Y010670D01*
X011957Y010670D01*
X011957Y010430D01*
X012017Y010430D02*
X012077Y010490D01*
X012077Y010610D01*
X011837Y010799D02*
X012077Y010919D01*
X011837Y011039D01*
X012017Y011167D02*
X012017Y011227D01*
X012077Y011227D01*
X012077Y011167D01*
X012017Y011167D01*
X012077Y011351D02*
X011837Y011591D01*
X011776Y011591D01*
X011716Y011531D01*
X011716Y011411D01*
X011776Y011351D01*
X012077Y011351D02*
X012077Y011591D01*
D11*
X000504Y002320D02*
X000394Y002320D01*
X000394Y002540D01*
X000504Y002540D01*
X000540Y002503D01*
X000540Y002357D01*
X000504Y002320D01*
X000615Y002357D02*
X000651Y002320D01*
X000725Y002320D01*
X000761Y002357D01*
X000761Y002430D01*
X000725Y002467D01*
X000651Y002467D01*
X000615Y002430D01*
X000615Y002357D01*
X000836Y002320D02*
X000836Y002467D01*
X000946Y002467D01*
X000982Y002430D01*
X000982Y002320D01*
X001057Y002467D02*
X001093Y002503D01*
X001093Y002577D01*
X001129Y002702D02*
X001129Y002812D01*
X001092Y002849D01*
X000982Y002849D01*
X000982Y002702D01*
X000908Y002702D02*
X000835Y002702D01*
X000872Y002702D02*
X000872Y002849D01*
X000835Y002849D01*
X000872Y002922D02*
X000872Y002959D01*
X000761Y002812D02*
X000761Y002702D01*
X000651Y002702D01*
X000614Y002738D01*
X000651Y002775D01*
X000761Y002775D01*
X000761Y002812D02*
X000724Y002849D01*
X000651Y002849D01*
X000540Y002922D02*
X000540Y002702D01*
X000393Y002702D02*
X000393Y002922D01*
X000466Y002849D01*
X000540Y002922D01*
X001203Y002812D02*
X001240Y002849D01*
X001350Y002849D01*
X001313Y002775D02*
X001240Y002775D01*
X001203Y002812D01*
X001203Y002702D02*
X001313Y002702D01*
X001350Y002738D01*
X001313Y002775D01*
X001204Y002503D02*
X001204Y002357D01*
X001240Y002320D01*
X001240Y002467D02*
X001167Y002467D01*
X001535Y002430D02*
X001645Y002430D01*
X001682Y002393D01*
X001682Y002357D01*
X001645Y002320D01*
X001535Y002320D01*
X001535Y002540D01*
X001645Y002540D01*
X001682Y002503D01*
X001682Y002467D01*
X001645Y002430D01*
X001756Y002430D02*
X001793Y002467D01*
X001866Y002467D01*
X001903Y002430D01*
X001903Y002393D01*
X001756Y002393D01*
X001756Y002357D02*
X001756Y002430D01*
X001756Y002357D02*
X001793Y002320D01*
X001866Y002320D01*
X002198Y002357D02*
X002235Y002320D01*
X002308Y002320D01*
X002345Y002357D01*
X002345Y002393D01*
X002308Y002430D01*
X002235Y002430D01*
X002198Y002467D01*
X002198Y002503D01*
X002235Y002540D01*
X002308Y002540D01*
X002345Y002503D01*
X002419Y002467D02*
X002493Y002467D01*
X002456Y002503D02*
X002456Y002357D01*
X002493Y002320D01*
X002567Y002357D02*
X002603Y002320D01*
X002713Y002320D01*
X002713Y002467D01*
X002788Y002467D02*
X002898Y002467D01*
X002934Y002430D01*
X002934Y002357D01*
X002898Y002320D01*
X002788Y002320D01*
X002788Y002247D02*
X002788Y002467D01*
X002750Y002702D02*
X002713Y002738D01*
X002750Y002775D01*
X002860Y002775D01*
X002860Y002812D02*
X002860Y002702D01*
X002750Y002702D01*
X002639Y002702D02*
X002639Y002922D01*
X002639Y002849D02*
X002529Y002849D01*
X002492Y002812D01*
X002492Y002738D01*
X002529Y002702D01*
X002639Y002702D01*
X002750Y002849D02*
X002823Y002849D01*
X002860Y002812D01*
X002934Y002849D02*
X003044Y002849D01*
X003081Y002812D01*
X003081Y002702D01*
X003155Y002738D02*
X003155Y002812D01*
X003192Y002849D01*
X003302Y002849D01*
X003302Y002665D01*
X003265Y002628D01*
X003229Y002628D01*
X003192Y002702D02*
X003302Y002702D01*
X003376Y002738D02*
X003376Y002812D01*
X003413Y002849D01*
X003486Y002849D01*
X003523Y002812D01*
X003523Y002775D01*
X003376Y002775D01*
X003376Y002738D02*
X003413Y002702D01*
X003486Y002702D01*
X003597Y002702D02*
X003597Y002849D01*
X003597Y002775D02*
X003671Y002849D01*
X003707Y002849D01*
X003781Y002812D02*
X003781Y002738D01*
X003818Y002702D01*
X003891Y002702D01*
X003928Y002738D01*
X003928Y002812D01*
X003891Y002849D01*
X003818Y002849D01*
X003781Y002812D01*
X004002Y002849D02*
X004002Y002738D01*
X004039Y002702D01*
X004149Y002702D01*
X004149Y002849D01*
X004223Y002812D02*
X004260Y002849D01*
X004370Y002849D01*
X004333Y002775D02*
X004260Y002775D01*
X004223Y002812D01*
X004223Y002702D02*
X004333Y002702D01*
X004370Y002738D01*
X004333Y002775D01*
X004444Y002738D02*
X004444Y002702D01*
X004444Y002812D02*
X004444Y002959D01*
X003303Y002540D02*
X003303Y002320D01*
X003193Y002320D01*
X003156Y002357D01*
X003156Y002430D01*
X003193Y002467D01*
X003303Y002467D01*
X003192Y002702D02*
X003155Y002738D01*
X003045Y002577D02*
X003045Y002540D01*
X003045Y002467D02*
X003045Y002320D01*
X003009Y002320D02*
X003082Y002320D01*
X003045Y002467D02*
X003009Y002467D01*
X002934Y002702D02*
X002934Y002849D01*
X002567Y002467D02*
X002567Y002357D01*
X002160Y002702D02*
X002087Y002702D01*
X002050Y002738D01*
X002050Y002812D01*
X002087Y002849D01*
X002160Y002849D01*
X002197Y002812D01*
X002197Y002775D01*
X002050Y002775D01*
X001976Y002849D02*
X001940Y002849D01*
X001866Y002775D01*
X001866Y002702D02*
X001866Y002849D01*
X001792Y002812D02*
X001792Y002702D01*
X001682Y002702D01*
X001645Y002738D01*
X001682Y002775D01*
X001792Y002775D01*
X001792Y002812D02*
X001755Y002849D01*
X001682Y002849D01*
X004152Y011931D02*
X004152Y012011D01*
X004152Y011931D02*
X005632Y011931D01*
X005632Y012021D01*
X005632Y013121D02*
X005632Y013211D01*
X004152Y013211D01*
X004152Y013111D01*
X003256Y012966D02*
X003256Y012929D01*
X003109Y012782D01*
X003256Y012782D01*
X003256Y012966D02*
X003219Y013002D01*
X003146Y013002D01*
X003109Y012966D01*
X003035Y013002D02*
X003035Y012819D01*
X002998Y012782D01*
X002925Y012782D01*
X002888Y012819D01*
X002888Y013002D01*
X004080Y014336D02*
X004080Y014557D01*
X004190Y014557D01*
X004227Y014520D01*
X004227Y014446D01*
X004190Y014410D01*
X004080Y014410D01*
X004153Y014410D02*
X004227Y014336D01*
X004301Y014336D02*
X004448Y014336D01*
X004374Y014336D02*
X004374Y014557D01*
X004301Y014483D01*
X005310Y013587D02*
X005310Y013366D01*
X005420Y013366D01*
X005457Y013403D01*
X005457Y013550D01*
X005420Y013587D01*
X005310Y013587D01*
X005531Y013513D02*
X005604Y013587D01*
X005604Y013366D01*
X005531Y013366D02*
X005678Y013366D01*
X009277Y013958D02*
X009313Y013921D01*
X009350Y013921D01*
X009387Y013958D01*
X009387Y014031D01*
X009423Y014068D01*
X009460Y014068D01*
X009497Y014031D01*
X009497Y013958D01*
X009460Y013921D01*
X009423Y014142D02*
X009497Y014216D01*
X009423Y014289D01*
X009277Y014289D01*
X009350Y014363D02*
X009277Y014437D01*
X009497Y014437D01*
X009497Y014510D02*
X009497Y014363D01*
X009423Y014142D02*
X009277Y014142D01*
X009313Y014068D02*
X009277Y014031D01*
X009277Y013958D01*
D12*
X009054Y013999D02*
X009054Y014049D01*
X009029Y014074D01*
X008979Y014074D01*
X008979Y014024D01*
X008929Y013974D02*
X009029Y013974D01*
X009054Y013999D01*
X009054Y014121D02*
X008954Y014121D01*
X009004Y014121D02*
X008954Y014171D01*
X008954Y014196D01*
X008979Y014244D02*
X009029Y014244D01*
X009054Y014269D01*
X009054Y014319D01*
X009029Y014344D01*
X008979Y014344D01*
X008954Y014319D01*
X008954Y014269D01*
X008979Y014244D01*
X008954Y014391D02*
X009029Y014391D01*
X009054Y014416D01*
X009054Y014491D01*
X008954Y014491D01*
X008954Y014538D02*
X008954Y014613D01*
X008979Y014638D01*
X009054Y014638D01*
X009029Y014686D02*
X008979Y014686D01*
X008954Y014711D01*
X008954Y014786D01*
X008903Y014786D02*
X009054Y014786D01*
X009054Y014711D01*
X009029Y014686D01*
X009054Y014538D02*
X008954Y014538D01*
X008929Y014074D02*
X008903Y014049D01*
X008903Y013999D01*
X008929Y013974D01*
X008052Y014043D02*
X007901Y014043D01*
X007901Y014118D01*
X007926Y014143D01*
X007976Y014143D01*
X008001Y014118D01*
X008001Y014043D01*
X007976Y014190D02*
X008027Y014190D01*
X008052Y014215D01*
X008052Y014265D01*
X008027Y014290D01*
X007976Y014290D01*
X007951Y014265D01*
X007951Y014215D01*
X007976Y014190D01*
X007951Y014337D02*
X008027Y014337D01*
X008052Y014362D01*
X008027Y014387D01*
X008052Y014412D01*
X008027Y014437D01*
X007951Y014437D01*
X007976Y014485D02*
X007951Y014510D01*
X007951Y014560D01*
X007976Y014585D01*
X008001Y014585D01*
X008001Y014485D01*
X007976Y014485D02*
X008027Y014485D01*
X008052Y014510D01*
X008052Y014560D01*
X008052Y014632D02*
X007951Y014632D01*
X008001Y014632D02*
X007951Y014682D01*
X007951Y014707D01*
X007050Y014692D02*
X007050Y014616D01*
X007025Y014591D01*
X006999Y014616D01*
X006999Y014692D01*
X006974Y014692D02*
X007050Y014692D01*
X007050Y014739D02*
X007050Y014789D01*
X007050Y014764D02*
X006899Y014764D01*
X006899Y014739D01*
X006949Y014666D02*
X006974Y014692D01*
X006949Y014666D02*
X006949Y014616D01*
X006974Y014544D02*
X007050Y014544D01*
X006974Y014544D02*
X006949Y014519D01*
X006949Y014444D01*
X007050Y014444D01*
X007050Y014397D02*
X007050Y014322D01*
X007025Y014297D01*
X006974Y014297D01*
X006949Y014322D01*
X006949Y014397D01*
X007075Y014397D01*
X007100Y014372D01*
X007100Y014347D01*
X007050Y014249D02*
X007050Y014199D01*
X007050Y014224D02*
X006949Y014224D01*
X006949Y014199D01*
X006924Y014151D02*
X006899Y014126D01*
X006899Y014076D01*
X006924Y014051D01*
X006949Y014051D01*
X006974Y014076D01*
X006974Y014126D01*
X006999Y014151D01*
X007025Y014151D01*
X007050Y014126D01*
X007050Y014076D01*
X007025Y014051D01*
X006899Y014224D02*
X006874Y014224D01*
D13*
X006702Y013871D02*
X006452Y013621D01*
X006452Y013121D01*
X006702Y012871D01*
X007202Y012871D01*
X007452Y013121D01*
X007702Y012871D01*
X008202Y012871D01*
X008452Y013121D01*
X008702Y012871D01*
X009202Y012871D01*
X009452Y013121D01*
X009452Y013621D01*
X009202Y013871D01*
X008702Y013871D01*
X008452Y013621D01*
X008202Y013871D01*
X007702Y013871D01*
X007452Y013621D01*
X007202Y013871D01*
X006702Y013871D01*
X005722Y013301D02*
X005722Y013131D01*
X005722Y013301D02*
X004062Y013301D01*
X004062Y013121D01*
X004062Y012001D02*
X004062Y011841D01*
X005722Y011841D01*
X005722Y012011D01*
D14*
X005977Y013146D02*
X006277Y013146D01*
X006127Y013146D02*
X006127Y013597D01*
X005977Y013447D01*
X004512Y003806D02*
X004512Y000577D01*
X008449Y000577D01*
X008449Y003806D01*
X004512Y003806D01*
M02*
