M48
T01C0.0150
T02C0.0236
T03C0.0240
T04C0.0280
T05C0.0315
T06C0.0320
T07C0.0360
T08C0.0394
T09C0.0400
T10C0.0433
T11C0.0460
T12C0.0551
T13C0.0630
T14C0.0910
T15C0.1260
G90
M72
%
T12
X5527Y86918
X4277Y86918
X3027Y86918
X1777Y86918
X1777Y80668
X5527Y80668
X5662Y113783
X4412Y113783
X3162Y113783
X1912Y113783
X1912Y107533
X5662Y107533
T04
X11537Y73453
X11537Y72753
X21687Y72961
X22387Y72961
X7785Y84457
X7785Y85157
X5379Y89335
X4679Y89335
X3410Y89335
X2710Y89335
X11672Y100318
X11672Y99618
X21822Y99826
X22522Y99826
X7920Y111322
X7920Y112022
X5514Y116200
X4814Y116200
X3545Y116200
X2845Y116200
T03
X1525Y75256
X1525Y73256
X1660Y102121
X1660Y100121
T13
X3642Y52447
X5611Y52447
X2457Y57408
X2457Y59377
X11925Y52448
X13893Y52448
X19707Y52312
X21676Y52312
X18522Y57273
X18522Y59242
X27990Y52313
X29958Y52313
T05
X7160Y43675
X32270Y43540
X19715Y43675
X40100Y61630
T02
X8373Y56982
X8733Y56472
X8853Y55692
X9393Y55332
X8433Y61362
X10173Y61512
X8520Y39605
X8750Y39205
X8280Y39205
X33630Y39470
X33860Y39070
X33390Y39070
X21075Y39605
X21305Y39205
X20835Y39205
X41460Y57560
X41690Y57160
X41220Y57160
X24438Y56847
X24798Y56337
X24918Y55557
X25458Y55197
X24498Y61227
X26238Y61377
T15
X1564Y70713
X1564Y93390
X37824Y93390
X37824Y70713
X1699Y97578
X1699Y120255
X37959Y120255
X37959Y97578
T06
X9713Y60162
X8713Y60162
X7713Y60162
X6713Y60162
X7252Y58569
X7252Y57569
X7252Y56569
X7252Y55569
X7252Y54569
X7252Y53569
X7252Y52569
X7252Y51569
X10252Y51569
X10252Y52569
X10252Y53569
X10252Y54569
X10252Y55569
X10252Y56569
X10252Y57569
X10252Y58569
X10713Y60162
X11713Y60162
X12713Y60162
X13713Y60162
X14713Y60162
X15713Y60162
X15713Y63162
X14713Y63162
X13713Y63162
X12713Y63162
X11713Y63162
X10713Y63162
X9713Y63162
X8713Y63162
X7713Y63162
X6713Y63162
X7153Y64472
X7153Y65472
X8653Y65472
X8653Y64472
X10153Y64472
X10153Y65472
X11653Y65472
X11653Y64472
X25778Y60027
X24778Y60027
X23778Y60027
X22778Y60027
X23317Y58434
X23317Y57434
X23317Y56434
X23317Y55434
X23317Y54434
X23317Y53434
X23317Y52434
X23317Y51434
X26317Y51434
X26317Y52434
X26317Y53434
X26317Y54434
X26317Y55434
X26317Y56434
X26317Y57434
X26317Y58434
X26778Y60027
X27778Y60027
X28778Y60027
X29778Y60027
X30778Y60027
X31778Y60027
X31778Y63027
X30778Y63027
X29778Y63027
X28778Y63027
X27778Y63027
X26778Y63027
X25778Y63027
X24778Y63027
X23778Y63027
X22778Y63027
X23218Y64337
X23218Y65337
X24718Y65337
X24718Y64337
X26218Y64337
X26218Y65337
X27718Y65337
X27718Y64337
T01
X4438Y71697
X2706Y72918
X3179Y73508
X3572Y73430
X3375Y74138
X4202Y74217
X4911Y74217
X5265Y73548
X4517Y73469
X3415Y74926
X3454Y75516
X4084Y75437
X5304Y75634
X6249Y76067
X6446Y76540
X7903Y76658
X5541Y78902
X5304Y79374
X4438Y77839
X3493Y77800
X2312Y77800
X7903Y72918
X8179Y71737
X9871Y72406
X9793Y73075
X22903Y84768
X22903Y85359
X23887Y86185
X23690Y87878
X24793Y88351
X22706Y88823
X21801Y88981
X20619Y88075
X20068Y88193
X18808Y88233
X20974Y86382
X21525Y86855
X26682Y86579
X32903Y86067
X34517Y86067
X35108Y85004
X36525Y83587
X35698Y87563
X11328Y89217
X1407Y90280
X4490Y43935
X5780Y42885
X6060Y44235
X6150Y44635
X5270Y46395
X4160Y46845
X5760Y41225
X6170Y40815
X8750Y42645
X9170Y42645
X9560Y42645
X9980Y42645
X9980Y43365
X9560Y43365
X9170Y43365
X8750Y43365
X8750Y44085
X9170Y44085
X9560Y44085
X9980Y44085
X9980Y44805
X9560Y44805
X9170Y44805
X8750Y44805
X8060Y48045
X4573Y98562
X2841Y99783
X3314Y100373
X3707Y100295
X3510Y101003
X4337Y101082
X5046Y101082
X5400Y100413
X4652Y100334
X3550Y101791
X3589Y102381
X4219Y102302
X5439Y102499
X6384Y102932
X6581Y103405
X8038Y103523
X5676Y105767
X5439Y106239
X4573Y104704
X3628Y104665
X2447Y104665
X8038Y99783
X8314Y98602
X10006Y99271
X9928Y99940
X23038Y111633
X23038Y112224
X24022Y113050
X23825Y114743
X24928Y115216
X22841Y115688
X21936Y115846
X20754Y114940
X20203Y115058
X18943Y115098
X21109Y113247
X21660Y113720
X26817Y113444
X33038Y112932
X34652Y112932
X35243Y111869
X36660Y110452
X35833Y114428
X11463Y116082
X1542Y117145
X29600Y43800
X30890Y42750
X31170Y44100
X31260Y44500
X30380Y46260
X29270Y46710
X30870Y41090
X31280Y40680
X33860Y42510
X34280Y42510
X34670Y42510
X35090Y42510
X35090Y43230
X34670Y43230
X34280Y43230
X33860Y43230
X33860Y43950
X34280Y43950
X34670Y43950
X35090Y43950
X35090Y44670
X34670Y44670
X34280Y44670
X33860Y44670
X33170Y47910
X17045Y43935
X18335Y42885
X18615Y44235
X18705Y44635
X17825Y46395
X16715Y46845
X18315Y41225
X18725Y40815
X21305Y42645
X21725Y42645
X22115Y42645
X22535Y42645
X22535Y43365
X22115Y43365
X21725Y43365
X21305Y43365
X21305Y44085
X21725Y44085
X22115Y44085
X22535Y44085
X22535Y44805
X22115Y44805
X21725Y44805
X21305Y44805
X20615Y48045
X37430Y61890
X38720Y60840
X39000Y62190
X39090Y62590
X38210Y64350
X37100Y64800
X38700Y59180
X39110Y58770
X41690Y60600
X42110Y60600
X42500Y60600
X42920Y60600
X42920Y61320
X42500Y61320
X42110Y61320
X41690Y61320
X41690Y62040
X42110Y62040
X42500Y62040
X42920Y62040
X42920Y62760
X42500Y62760
X42110Y62760
X41690Y62760
X41000Y66000
T09
X37364Y87552
X38364Y87552
X38364Y86552
X37364Y86552
X37364Y85552
X38364Y85552
X38364Y84552
X37364Y84552
X37364Y83552
X38364Y83552
X38364Y82552
X37364Y82552
X37364Y81552
X38364Y81552
X38364Y80552
X37364Y80552
X37364Y79552
X38364Y79552
X38364Y78552
X37364Y78552
X37364Y77552
X38364Y77552
X38364Y76552
X37364Y76552
X37364Y75552
X38364Y75552
X38364Y74552
X38364Y73552
X37364Y73552
X37364Y74552
X37364Y72552
X38364Y72552
X38364Y88552
X37364Y88552
X37364Y89552
X38364Y89552
X38364Y90552
X37364Y90552
X37364Y91552
X38364Y91552
X3553Y65442
X2553Y65442
X2553Y66442
X3553Y66442
X1553Y66442
X1553Y65442
X1553Y63442
X1553Y62442
X2553Y62442
X3553Y62442
X3553Y63442
X2553Y63442
X37499Y114417
X38499Y114417
X38499Y113417
X37499Y113417
X37499Y112417
X38499Y112417
X38499Y111417
X37499Y111417
X37499Y110417
X38499Y110417
X38499Y109417
X37499Y109417
X37499Y108417
X38499Y108417
X38499Y107417
X37499Y107417
X37499Y106417
X38499Y106417
X38499Y105417
X37499Y105417
X37499Y104417
X38499Y104417
X38499Y103417
X37499Y103417
X37499Y102417
X38499Y102417
X38499Y101417
X38499Y100417
X37499Y100417
X37499Y101417
X37499Y99417
X38499Y99417
X38499Y115417
X37499Y115417
X37499Y116417
X38499Y116417
X38499Y117417
X37499Y117417
X37499Y118417
X38499Y118417
X19618Y65307
X18618Y65307
X18618Y66307
X19618Y66307
X17618Y66307
X17618Y65307
X17618Y63307
X17618Y62307
X18618Y62307
X19618Y62307
X19618Y63307
X18618Y63307
T14
X8986Y82719
X8986Y77549
X12719Y71953
X17889Y71953
X23719Y71953
X28889Y71953
X9121Y109584
X9121Y104414
X12854Y98818
X18024Y98818
X23854Y98818
X29024Y98818
T08
X13021Y87918
X13156Y114783
T11
X5804Y90953
X4804Y90953
X19304Y90953
X20304Y90953
X33304Y90953
X34304Y90953
X9561Y39376
X10561Y39376
X10440Y48075
X9440Y48075
X5939Y117818
X4939Y117818
X19439Y117818
X20439Y117818
X33439Y117818
X34439Y117818
X34671Y39241
X35671Y39241
X35550Y47940
X34550Y47940
X22116Y39376
X23116Y39376
X22995Y48075
X21995Y48075
X42501Y57331
X43501Y57331
X43380Y66030
X42380Y66030
T07
X7916Y81509
X7916Y80529
X7916Y79739
X7916Y78759
X13929Y73023
X14909Y73023
X15699Y73023
X16679Y73023
X24929Y73023
X25909Y73023
X26699Y73023
X27679Y73023
X8051Y108374
X8051Y107394
X8051Y106604
X8051Y105624
X14064Y99888
X15044Y99888
X15834Y99888
X16814Y99888
X25064Y99888
X26044Y99888
X26834Y99888
X27814Y99888
T10
X31304Y90953
X30304Y90953
X29304Y90953
X28304Y90953
X27304Y90953
X26304Y90953
X25304Y90953
X17304Y90953
X16304Y90953
X15304Y90953
X14304Y90953
X13304Y90953
X12304Y90953
X11304Y90953
X1560Y39375
X2560Y39375
X3560Y39375
X4560Y39375
X5560Y39375
X6560Y39375
X7560Y39375
X31439Y117818
X30439Y117818
X29439Y117818
X28439Y117818
X27439Y117818
X26439Y117818
X25439Y117818
X17439Y117818
X16439Y117818
X15439Y117818
X14439Y117818
X13439Y117818
X12439Y117818
X11439Y117818
X26670Y39240
X27670Y39240
X28670Y39240
X29670Y39240
X30670Y39240
X31670Y39240
X32670Y39240
X14115Y39375
X15115Y39375
X16115Y39375
X17115Y39375
X18115Y39375
X19115Y39375
X20115Y39375
X34500Y57330
X35500Y57330
X36500Y57330
X37500Y57330
X38500Y57330
X39500Y57330
X40500Y57330
M30
