G75*
G70*
%OFA0B0*%
%FSLAX24Y24*%
%IPPOS*%
%LPD*%
G04 *
G04 macro definitions for tiled file 'solderStiched.GBS':*
G04 *
%AMOC8*
5,1,8,0,0,1.08239X$1,22.5*
%
G04 *
G04 aperture list for tiled file 'solderStiched.GBS':*
G04 *
%ADD15C,0.0840*%
%ADD26C,0.0600*%
%ADD20R,0.0474X0.0178*%
%ADD28OC8,0.0600*%
%ADD25C,0.1025*%
%ADD14C,0.0730*%
%ADD13C,0.0560*%
%ADD16C,0.0640*%
%ADD31C,0.0555*%
%ADD27C,0.0680*%
%ADD29R,0.0330X0.0580*%
%ADD24C,0.0671*%
%ADD18R,0.0237X0.0395*%
%ADD21R,0.0608X0.0474*%
%ADD11C,0.0907*%
%ADD30R,0.0580X0.0330*%
%ADD19OC8,0.0680*%
%ADD22C,0.0520*%
%ADD23R,0.0336X0.0336*%
%ADD12OC8,0.0560*%
%ADD10C,0.1340*%
%ADD17C,0.1390*%
G04 *
G04 next data from source file './BDM2/bottom_soldermask.GBS', *
G04 source file key is 'infile_0003'. *
G04 *
D10*
X001564Y070713D03*
X001564Y093390D03*
X037824Y093390D03*
X037824Y070713D03*
D11*
X005527Y080668D03*
X001777Y080668D03*
X001777Y086918D03*
X003027Y086918D03*
X004277Y086918D03*
X005527Y086918D03*
D12*
X007785Y085157D03*
X005379Y089335D03*
X003410Y089335D03*
X011537Y073453D03*
X021687Y072961D03*
D13*
X022387Y072961D03*
X011537Y072753D03*
X007785Y084457D03*
X004679Y089335D03*
X002710Y089335D03*
D14*
X011304Y090953D03*
X012304Y090953D03*
X013304Y090953D03*
X014304Y090953D03*
X015304Y090953D03*
X016304Y090953D03*
X017304Y090953D03*
X025304Y090953D03*
X026304Y090953D03*
X027304Y090953D03*
X028304Y090953D03*
X029304Y090953D03*
X030304Y090953D03*
X031304Y090953D03*
D15*
X033304Y090953D03*
X034304Y090953D03*
X020304Y090953D03*
X019304Y090953D03*
X005804Y090953D03*
X004804Y090953D03*
D16*
X007916Y081509D03*
X007916Y080529D03*
X007916Y079739D03*
X007916Y078759D03*
X013929Y073023D03*
X014909Y073023D03*
X015699Y073023D03*
X016679Y073023D03*
X024929Y073023D03*
X025909Y073023D03*
X026699Y073023D03*
X027679Y073023D03*
D17*
X028889Y071953D03*
X023719Y071953D03*
X017889Y071953D03*
X012719Y071953D03*
X008986Y077549D03*
X008986Y082719D03*
D18*
X015167Y072209D03*
X015560Y072209D03*
X015364Y071658D03*
X026175Y072288D03*
X026568Y072288D03*
X026371Y071737D03*
D19*
X037364Y072552D03*
X038364Y072552D03*
X038364Y073552D03*
X038364Y074552D03*
X037364Y074552D03*
X037364Y073552D03*
X037364Y075552D03*
X038364Y075552D03*
X038364Y076552D03*
X038364Y077552D03*
X037364Y077552D03*
X037364Y076552D03*
X037364Y078552D03*
X038364Y078552D03*
X038364Y079552D03*
X037364Y079552D03*
X037364Y080552D03*
X038364Y080552D03*
X038364Y081552D03*
X037364Y081552D03*
X037364Y082552D03*
X038364Y082552D03*
X038364Y083552D03*
X037364Y083552D03*
X037364Y084552D03*
X038364Y084552D03*
X038364Y085552D03*
X037364Y085552D03*
X037364Y086552D03*
X038364Y086552D03*
X038364Y087552D03*
X037364Y087552D03*
X037364Y088552D03*
X038364Y088552D03*
X038364Y089552D03*
X038364Y090552D03*
X037364Y090552D03*
X037364Y089552D03*
X037364Y091552D03*
X038364Y091552D03*
D20*
X006761Y075969D03*
X006761Y075772D03*
X006761Y075575D03*
X006761Y075378D03*
D21*
X006348Y074339D03*
X006348Y077008D03*
D22*
X001745Y075256D02*
X001305Y075256D01*
X001305Y073256D02*
X001745Y073256D01*
D23*
X001525Y072622D03*
X001525Y072268D03*
X001525Y075851D03*
X001525Y076205D03*
D24*
X013021Y087918D03*
G04 *
G04 next data from source file './bluetooth4/bottom_soldermask.GBS', *
G04 source file key is 'infile_0008'. *
G04 *
D15*
X009440Y048075D03*
X010440Y048075D03*
X010561Y039376D03*
X009561Y039376D03*
D14*
X001560Y039375D03*
X002560Y039375D03*
X003560Y039375D03*
X004560Y039375D03*
X005560Y039375D03*
X006560Y039375D03*
X007560Y039375D03*
D29*
X007676Y041845D03*
X007203Y041845D03*
X006731Y041845D03*
X006259Y041845D03*
X005786Y041845D03*
X005314Y041845D03*
X004841Y041845D03*
X004841Y047042D03*
X005314Y047042D03*
X005786Y047042D03*
X006259Y047042D03*
X006731Y047042D03*
X007203Y047042D03*
X007676Y047042D03*
X008148Y047042D03*
X008621Y047042D03*
X009093Y047042D03*
X009566Y047042D03*
X010038Y047042D03*
X010038Y041845D03*
X009566Y041845D03*
X009093Y041845D03*
X008621Y041845D03*
X008148Y041845D03*
D30*
X011140Y042829D03*
X011140Y043223D03*
X011140Y043735D03*
X011140Y044207D03*
X011140Y044680D03*
X011140Y045152D03*
X011140Y045664D03*
X011140Y046058D03*
D31*
X007160Y043675D03*
G04 *
G04 next data from source file './BDM1/bottom_soldermask.GBS', *
G04 source file key is 'infile_0007'. *
G04 *
D10*
X001699Y097578D03*
X001699Y120255D03*
X037959Y120255D03*
X037959Y097578D03*
D11*
X005662Y107533D03*
X001912Y107533D03*
X001912Y113783D03*
X003162Y113783D03*
X004412Y113783D03*
X005662Y113783D03*
D12*
X007920Y112022D03*
X005514Y116200D03*
X003545Y116200D03*
X011672Y100318D03*
X021822Y099826D03*
D13*
X022522Y099826D03*
X011672Y099618D03*
X007920Y111322D03*
X004814Y116200D03*
X002845Y116200D03*
D14*
X011439Y117818D03*
X012439Y117818D03*
X013439Y117818D03*
X014439Y117818D03*
X015439Y117818D03*
X016439Y117818D03*
X017439Y117818D03*
X025439Y117818D03*
X026439Y117818D03*
X027439Y117818D03*
X028439Y117818D03*
X029439Y117818D03*
X030439Y117818D03*
X031439Y117818D03*
D15*
X033439Y117818D03*
X034439Y117818D03*
X020439Y117818D03*
X019439Y117818D03*
X005939Y117818D03*
X004939Y117818D03*
D16*
X008051Y108374D03*
X008051Y107394D03*
X008051Y106604D03*
X008051Y105624D03*
X014064Y099888D03*
X015044Y099888D03*
X015834Y099888D03*
X016814Y099888D03*
X025064Y099888D03*
X026044Y099888D03*
X026834Y099888D03*
X027814Y099888D03*
D17*
X029024Y098818D03*
X023854Y098818D03*
X018024Y098818D03*
X012854Y098818D03*
X009121Y104414D03*
X009121Y109584D03*
D18*
X015302Y099074D03*
X015695Y099074D03*
X015499Y098523D03*
X026310Y099153D03*
X026703Y099153D03*
X026506Y098602D03*
D19*
X037499Y099417D03*
X038499Y099417D03*
X038499Y100417D03*
X038499Y101417D03*
X037499Y101417D03*
X037499Y100417D03*
X037499Y102417D03*
X038499Y102417D03*
X038499Y103417D03*
X038499Y104417D03*
X037499Y104417D03*
X037499Y103417D03*
X037499Y105417D03*
X038499Y105417D03*
X038499Y106417D03*
X037499Y106417D03*
X037499Y107417D03*
X038499Y107417D03*
X038499Y108417D03*
X037499Y108417D03*
X037499Y109417D03*
X038499Y109417D03*
X038499Y110417D03*
X037499Y110417D03*
X037499Y111417D03*
X038499Y111417D03*
X038499Y112417D03*
X037499Y112417D03*
X037499Y113417D03*
X038499Y113417D03*
X038499Y114417D03*
X037499Y114417D03*
X037499Y115417D03*
X038499Y115417D03*
X038499Y116417D03*
X038499Y117417D03*
X037499Y117417D03*
X037499Y116417D03*
X037499Y118417D03*
X038499Y118417D03*
D20*
X006896Y102834D03*
X006896Y102637D03*
X006896Y102440D03*
X006896Y102243D03*
D21*
X006483Y101204D03*
X006483Y103873D03*
D22*
X001880Y102121D02*
X001440Y102121D01*
X001440Y100121D02*
X001880Y100121D01*
D23*
X001660Y099487D03*
X001660Y099133D03*
X001660Y102716D03*
X001660Y103070D03*
D24*
X013156Y114783D03*
G04 *
G04 next data from source file './bluetooth3/bottom_soldermask.GBS', *
G04 source file key is 'infile_0004'. *
G04 *
D15*
X034550Y047940D03*
X035550Y047940D03*
X035671Y039241D03*
X034671Y039241D03*
D14*
X026670Y039240D03*
X027670Y039240D03*
X028670Y039240D03*
X029670Y039240D03*
X030670Y039240D03*
X031670Y039240D03*
X032670Y039240D03*
D29*
X032786Y041710D03*
X032313Y041710D03*
X031841Y041710D03*
X031369Y041710D03*
X030896Y041710D03*
X030424Y041710D03*
X029951Y041710D03*
X029951Y046907D03*
X030424Y046907D03*
X030896Y046907D03*
X031369Y046907D03*
X031841Y046907D03*
X032313Y046907D03*
X032786Y046907D03*
X033258Y046907D03*
X033731Y046907D03*
X034203Y046907D03*
X034676Y046907D03*
X035148Y046907D03*
X035148Y041710D03*
X034676Y041710D03*
X034203Y041710D03*
X033731Y041710D03*
X033258Y041710D03*
D30*
X036250Y042694D03*
X036250Y043088D03*
X036250Y043600D03*
X036250Y044072D03*
X036250Y044545D03*
X036250Y045017D03*
X036250Y045529D03*
X036250Y045923D03*
D31*
X032270Y043540D03*
G04 *
G04 next data from source file './HCD2/bottom_soldermask.GBS', *
G04 source file key is 'infile_0002'. *
G04 *
D25*
X019707Y052312D03*
X021676Y052312D03*
X018522Y057273D03*
X018522Y059242D03*
X027990Y052313D03*
X029958Y052313D03*
D26*
X026577Y052434D02*
X026057Y052434D01*
X026057Y051434D02*
X026577Y051434D01*
X026577Y053434D02*
X026057Y053434D01*
X026057Y054434D02*
X026577Y054434D01*
X026577Y055434D02*
X026057Y055434D01*
X026057Y056434D02*
X026577Y056434D01*
X026577Y057434D02*
X026057Y057434D01*
X026057Y058434D02*
X026577Y058434D01*
X026778Y059767D02*
X026778Y060287D01*
X025778Y060287D02*
X025778Y059767D01*
X024778Y059767D02*
X024778Y060287D01*
X023778Y060287D02*
X023778Y059767D01*
X022778Y059767D02*
X022778Y060287D01*
X023057Y058434D02*
X023577Y058434D01*
X023577Y057434D02*
X023057Y057434D01*
X023057Y056434D02*
X023577Y056434D01*
X023577Y055434D02*
X023057Y055434D01*
X023057Y054434D02*
X023577Y054434D01*
X023577Y053434D02*
X023057Y053434D01*
X023057Y052434D02*
X023577Y052434D01*
X023577Y051434D02*
X023057Y051434D01*
X027778Y059767D02*
X027778Y060287D01*
X028778Y060287D02*
X028778Y059767D01*
X029778Y059767D02*
X029778Y060287D01*
X030778Y060287D02*
X030778Y059767D01*
X031778Y059767D02*
X031778Y060287D01*
X031778Y062767D02*
X031778Y063287D01*
X030778Y063287D02*
X030778Y062767D01*
X029778Y062767D02*
X029778Y063287D01*
X028778Y063287D02*
X028778Y062767D01*
X027778Y062767D02*
X027778Y063287D01*
X026778Y063287D02*
X026778Y062767D01*
X025778Y062767D02*
X025778Y063287D01*
X024778Y063287D02*
X024778Y062767D01*
X023778Y062767D02*
X023778Y063287D01*
X022778Y063287D02*
X022778Y062767D01*
D27*
X017618Y063307D03*
X017618Y066307D03*
D19*
X017618Y065307D03*
X018618Y065307D03*
X018618Y066307D03*
X019618Y066307D03*
X019618Y065307D03*
X019618Y063307D03*
X018618Y063307D03*
X018618Y062307D03*
X019618Y062307D03*
X017618Y062307D03*
D28*
X023218Y064337D03*
X023218Y065337D03*
X024718Y065337D03*
X024718Y064337D03*
X026218Y064337D03*
X026218Y065337D03*
X027718Y065337D03*
X027718Y064337D03*
G04 *
G04 next data from source file './HCD1/bottom_soldermask.GBS', *
G04 source file key is 'infile_0005'. *
G04 *
D25*
X003642Y052447D03*
X005611Y052447D03*
X002457Y057408D03*
X002457Y059377D03*
X011925Y052448D03*
X013893Y052448D03*
D26*
X010512Y052569D02*
X009992Y052569D01*
X009992Y051569D02*
X010512Y051569D01*
X010512Y053569D02*
X009992Y053569D01*
X009992Y054569D02*
X010512Y054569D01*
X010512Y055569D02*
X009992Y055569D01*
X009992Y056569D02*
X010512Y056569D01*
X010512Y057569D02*
X009992Y057569D01*
X009992Y058569D02*
X010512Y058569D01*
X010713Y059902D02*
X010713Y060422D01*
X009713Y060422D02*
X009713Y059902D01*
X008713Y059902D02*
X008713Y060422D01*
X007713Y060422D02*
X007713Y059902D01*
X006713Y059902D02*
X006713Y060422D01*
X006992Y058569D02*
X007512Y058569D01*
X007512Y057569D02*
X006992Y057569D01*
X006992Y056569D02*
X007512Y056569D01*
X007512Y055569D02*
X006992Y055569D01*
X006992Y054569D02*
X007512Y054569D01*
X007512Y053569D02*
X006992Y053569D01*
X006992Y052569D02*
X007512Y052569D01*
X007512Y051569D02*
X006992Y051569D01*
X011713Y059902D02*
X011713Y060422D01*
X012713Y060422D02*
X012713Y059902D01*
X013713Y059902D02*
X013713Y060422D01*
X014713Y060422D02*
X014713Y059902D01*
X015713Y059902D02*
X015713Y060422D01*
X015713Y062902D02*
X015713Y063422D01*
X014713Y063422D02*
X014713Y062902D01*
X013713Y062902D02*
X013713Y063422D01*
X012713Y063422D02*
X012713Y062902D01*
X011713Y062902D02*
X011713Y063422D01*
X010713Y063422D02*
X010713Y062902D01*
X009713Y062902D02*
X009713Y063422D01*
X008713Y063422D02*
X008713Y062902D01*
X007713Y062902D02*
X007713Y063422D01*
X006713Y063422D02*
X006713Y062902D01*
D27*
X001553Y063442D03*
X001553Y066442D03*
D19*
X001553Y065442D03*
X002553Y065442D03*
X002553Y066442D03*
X003553Y066442D03*
X003553Y065442D03*
X003553Y063442D03*
X002553Y063442D03*
X002553Y062442D03*
X003553Y062442D03*
X001553Y062442D03*
D28*
X007153Y064472D03*
X007153Y065472D03*
X008653Y065472D03*
X008653Y064472D03*
X010153Y064472D03*
X010153Y065472D03*
X011653Y065472D03*
X011653Y064472D03*
G04 *
G04 next data from source file './bluetooth5/bottom_soldermask.GBS', *
G04 source file key is 'infile_0006'. *
G04 *
D15*
X021995Y048075D03*
X022995Y048075D03*
X023116Y039376D03*
X022116Y039376D03*
D14*
X014115Y039375D03*
X015115Y039375D03*
X016115Y039375D03*
X017115Y039375D03*
X018115Y039375D03*
X019115Y039375D03*
X020115Y039375D03*
D29*
X020231Y041845D03*
X019758Y041845D03*
X019286Y041845D03*
X018814Y041845D03*
X018341Y041845D03*
X017869Y041845D03*
X017396Y041845D03*
X017396Y047042D03*
X017869Y047042D03*
X018341Y047042D03*
X018814Y047042D03*
X019286Y047042D03*
X019758Y047042D03*
X020231Y047042D03*
X020703Y047042D03*
X021176Y047042D03*
X021648Y047042D03*
X022121Y047042D03*
X022593Y047042D03*
X022593Y041845D03*
X022121Y041845D03*
X021648Y041845D03*
X021176Y041845D03*
X020703Y041845D03*
D30*
X023695Y042829D03*
X023695Y043223D03*
X023695Y043735D03*
X023695Y044207D03*
X023695Y044680D03*
X023695Y045152D03*
X023695Y045664D03*
X023695Y046058D03*
D31*
X019715Y043675D03*
G04 *
G04 next data from source file './bluetooth6/bottom_soldermask.GBS', *
G04 source file key is 'infile_0001'. *
G04 *
D15*
X042380Y066030D03*
X043380Y066030D03*
X043501Y057331D03*
X042501Y057331D03*
D14*
X034500Y057330D03*
X035500Y057330D03*
X036500Y057330D03*
X037500Y057330D03*
X038500Y057330D03*
X039500Y057330D03*
X040500Y057330D03*
D29*
X040616Y059800D03*
X040143Y059800D03*
X039671Y059800D03*
X039199Y059800D03*
X038726Y059800D03*
X038254Y059800D03*
X037781Y059800D03*
X037781Y064997D03*
X038254Y064997D03*
X038726Y064997D03*
X039199Y064997D03*
X039671Y064997D03*
X040143Y064997D03*
X040616Y064997D03*
X041088Y064997D03*
X041561Y064997D03*
X042033Y064997D03*
X042506Y064997D03*
X042978Y064997D03*
X042978Y059800D03*
X042506Y059800D03*
X042033Y059800D03*
X041561Y059800D03*
X041088Y059800D03*
D30*
X044080Y060784D03*
X044080Y061178D03*
X044080Y061690D03*
X044080Y062162D03*
X044080Y062635D03*
X044080Y063107D03*
X044080Y063619D03*
X044080Y064013D03*
D31*
X040100Y061630D03*
M02*
