%
M48
M72
T01C0.0150
T02C0.0236
T03C0.0315
T04C0.0320
T05C0.1180
%
T01
X5506Y4661
X8426Y4601
X7586Y8861
X9206Y9761
X8786Y11921
X9026Y12581
X7526Y13001
X5546Y12221
X4406Y12221
X10706Y13841
X11306Y12581
T02
X9746Y8021
X9266Y8021
X5726Y7541
X5246Y7541
T03
X3175Y7465
X3175Y8252
X3175Y9040
X3175Y9827
X3175Y10614
X3175Y11402
X3175Y12189
X3175Y12977
X3175Y13764
X3175Y6677
X11836Y6677
X11836Y7465
X11836Y8252
X11836Y9040
X11836Y9827
X11836Y10614
X11836Y11402
X11836Y12189
X11836Y12977
X11836Y13764
T04
X10526Y15701
X9526Y15701
X8526Y15701
X7526Y15701
X6526Y15701
X5526Y15701
X4526Y15701
T05
X3107Y2711
X4718Y1220
X5969Y2721
X9042Y2721
X10293Y4222
X11904Y2731
M30
