G75*
G70*
%OFA0B0*%
%FSLAX24Y24*%
%IPPOS*%
%LPD*%
%AMOC8*
5,1,8,0,0,1.08239X$1,22.5*
%
%ADD10C,0.0595*%
%ADD11R,0.0560X0.0960*%
%ADD12R,0.1497X0.0946*%
%ADD13R,0.1064X0.0848*%
%ADD14C,0.1660*%
%ADD15C,0.0600*%
%ADD16R,0.0474X0.0631*%
%ADD17R,0.0513X0.0474*%
%ADD18R,0.0474X0.0513*%
%ADD19C,0.0390*%
%ADD20R,0.0476X0.0476*%
%ADD21R,0.0390X0.0390*%
D10*
X003175Y006677D03*
X003175Y007465D03*
X003175Y008252D03*
X003175Y009040D03*
X003175Y009827D03*
X003175Y010614D03*
X003175Y011402D03*
X003175Y012189D03*
X003175Y012977D03*
X003175Y013764D03*
X011836Y013764D03*
X011836Y012977D03*
X011836Y012189D03*
X011836Y011402D03*
X011836Y010614D03*
X011836Y009827D03*
X011836Y009040D03*
X011836Y008252D03*
X011836Y007465D03*
X011836Y006677D03*
D11*
X008416Y005501D03*
X007506Y005501D03*
X006596Y005501D03*
X006616Y009681D03*
X007526Y009681D03*
X008436Y009681D03*
D12*
X007506Y007941D03*
X007526Y012121D03*
D13*
X005426Y010961D03*
X005426Y009760D03*
X005506Y006821D03*
X005506Y005620D03*
X009506Y006100D03*
X009506Y007301D03*
D14*
X003107Y002711D03*
X004718Y001220D03*
X005969Y002721D03*
X009042Y002721D03*
X010293Y004222D03*
X011904Y002731D03*
D15*
X010526Y015441D02*
X010526Y015961D01*
X009526Y015961D02*
X009526Y015441D01*
X008526Y015441D02*
X008526Y015961D01*
X007526Y015961D02*
X007526Y015441D01*
X006526Y015441D02*
X006526Y015961D01*
X005526Y015961D02*
X005526Y015441D01*
X004526Y015441D02*
X004526Y015961D01*
D16*
X005306Y013914D03*
X005680Y013048D03*
X004932Y013048D03*
D17*
X004226Y013086D03*
X004226Y013755D03*
X006386Y013695D03*
X006386Y013026D03*
D18*
X007971Y013001D03*
X008640Y013001D03*
X008640Y013781D03*
X007971Y013781D03*
D19*
X007526Y013001D03*
X008786Y011921D03*
X009026Y012581D03*
X010706Y013841D03*
X011306Y012581D03*
X009206Y009761D03*
X007586Y008861D03*
X004406Y012221D03*
X005506Y004661D03*
X008426Y004601D03*
D20*
X009266Y008021D03*
X009746Y008021D03*
X005726Y007541D03*
X005246Y007541D03*
D21*
X005546Y012221D03*
M02*
