%
M48
M72
T01C0.0150
T02C0.0236
T03C0.0310
T04C0.0315
T05C0.0400
T06C0.0433
T07C0.0590
T08C0.1000
T09C0.1180
%
T01
X7244Y7750
X7344Y8910
X9104Y7410
X9544Y7310
X9964Y7130
X10244Y6750
X10484Y7170
X10464Y7950
X10004Y7830
X10144Y8530
X9824Y8850
X11144Y8890
X11444Y8550
X11744Y8890
X12044Y8550
X12184Y8990
X11584Y8110
X11144Y8210
X9504Y6490
X9184Y6810
X9224Y6130
X7384Y6050
X7384Y5050
X11704Y4090
X14304Y8170
X15194Y7630
X13804Y10890
X12854Y12080
X12104Y11490
X11624Y11490
X11644Y10750
X12124Y10750
X13604Y12800
X14384Y13110
X14704Y14210
X15164Y14130
X15404Y13110
X12744Y15150
X12884Y15970
X13744Y16750
X12404Y18150
X11664Y18310
X11324Y17410
X10504Y18420
X10644Y19040
X11464Y19450
X11744Y19810
X12064Y19490
X12184Y19930
X11164Y21830
X10824Y22130
X10464Y22410
X9704Y22430
X10124Y21190
X8464Y19630
X8824Y19130
X8444Y18830
X8444Y18370
X8904Y18370
X7604Y19030
X6844Y18870
X7024Y17290
X7344Y16970
X7484Y16530
X6864Y16490
X6724Y16950
X6424Y17290
X6304Y16750
X7564Y14230
X8444Y13530
X8104Y13230
X8444Y12930
X9344Y13450
X9744Y13230
X9744Y13690
X10384Y12910
X10424Y14790
X7364Y12670
X11884Y22190
X15804Y19910
X15804Y19410
X19824Y16530
X15264Y3730
T02
X7264Y20010
X6204Y23190
X7924Y23710
T03
X5311Y18169
X4524Y18169
X3737Y18169
X16737Y18169
X17524Y18169
X18311Y18169
T04
X17164Y20870
T05
X13304Y15530
X13344Y14490
X13484Y12070
X10464Y11650
T06
X5534Y11650
X5534Y10650
X4534Y10650
X4534Y11650
X4534Y12650
X4534Y13650
X4534Y14650
X4534Y15650
X4534Y16650
X5534Y16650
X5534Y15650
X5534Y14650
X5534Y13650
X5534Y12650
X3534Y12650
X3534Y13650
X3534Y14650
X3534Y15650
X3534Y16650
X3534Y11650
X3534Y10650
X3534Y9650
X3534Y8650
X3534Y7650
X3534Y6650
X3534Y5650
X4534Y5650
X4534Y6650
X4534Y7650
X4534Y8650
X4534Y9650
X5534Y9650
X5534Y8650
X5534Y7650
X5534Y6650
X5534Y5650
X5534Y2650
X4534Y2650
X3534Y2650
X7534Y1400
X8534Y1400
X9534Y1400
X10534Y1400
X11534Y1400
X12534Y1400
X13534Y1400
X14534Y1400
X16534Y2650
X17534Y2650
X18534Y2650
X18534Y5650
X18534Y6650
X18534Y7650
X18534Y8650
X18534Y9650
X18534Y10650
X18534Y11650
X18534Y12650
X18534Y13650
X18534Y14650
X18534Y15650
X18534Y16650
X17534Y16650
X17534Y15650
X17534Y14650
X17534Y13650
X17534Y12650
X17534Y11650
X17534Y10650
X17534Y9650
X17534Y8650
X17534Y7650
X17534Y6650
X17534Y5650
X16534Y5650
X16534Y6650
X16534Y7650
X16534Y8650
X16534Y9650
X16534Y10650
X16534Y11650
X16534Y12650
X16534Y13650
X16534Y14650
X16534Y15650
X16534Y16650
X16154Y22500
X15154Y22500
X14154Y22500
X17154Y22500
X18154Y22500
X19154Y22500
X20154Y22500
T07
X19099Y18169
X15949Y18169
X6099Y18169
X2949Y18169
T08
X1784Y1400
X1784Y18900
X20284Y18900
X20284Y1400
T09
X4037Y21914
X2187Y23095
X4037Y24276
M30
