G75*
G70*
%OFA0B0*%
%FSLAX24Y24*%
%IPPOS*%
%LPD*%
%AMOC8*
5,1,8,0,0,1.08239X$1,22.5*
%
%ADD10C,0.0050*%
%ADD11C,0.0040*%
%ADD12C,0.0060*%
%ADD13C,0.0020*%
%ADD14C,0.0010*%
%ADD15R,0.0200X0.2000*%
D10*
X003291Y004006D02*
X003685Y004006D01*
X003685Y004793D01*
X003291Y004793D01*
X003291Y004006D01*
X002732Y004955D02*
X006433Y004955D01*
X006433Y008656D01*
X003578Y008656D01*
X003244Y008656D01*
X002732Y008656D01*
X002732Y004955D01*
X003185Y005408D02*
X003185Y008203D01*
X005980Y008203D01*
X005980Y005408D01*
X003185Y005408D01*
X004866Y004754D02*
X004866Y003967D01*
X005260Y003967D01*
X005260Y004754D01*
X004866Y004754D01*
X004669Y008967D02*
X004275Y008967D01*
X004275Y009754D01*
X004669Y009754D01*
X004669Y008967D01*
X003960Y008967D02*
X003567Y008967D01*
X003567Y009754D01*
X003960Y009754D01*
X003960Y008967D01*
X003488Y008967D02*
X003094Y008967D01*
X003094Y009754D01*
X003488Y009754D01*
X003488Y008967D01*
X002779Y008967D02*
X002386Y008967D01*
X002386Y009754D01*
X002779Y009754D01*
X002779Y008967D01*
X000797Y011648D02*
X007047Y011648D01*
X007047Y020398D01*
X000797Y020398D01*
X000797Y011648D01*
X007796Y009804D02*
X007796Y014924D01*
X007801Y014949D02*
X013306Y014949D01*
X013306Y014914D02*
X013306Y009814D01*
X013306Y009779D02*
X007801Y009779D01*
X010256Y010364D02*
X012756Y010614D01*
X012756Y011864D01*
X010256Y012114D01*
X010256Y012614D02*
X012756Y012864D01*
X012756Y014114D01*
X010256Y014364D01*
X007655Y017912D02*
X007354Y017912D01*
X007279Y017988D01*
X007279Y018138D01*
X007354Y018213D01*
X007354Y018373D02*
X007279Y018448D01*
X007279Y018598D01*
X007354Y018673D01*
X007430Y018673D01*
X007730Y018373D01*
X007730Y018673D01*
X007730Y018833D02*
X007730Y019133D01*
X007730Y018983D02*
X007279Y018983D01*
X007430Y018833D01*
X007247Y018442D02*
X009256Y018442D01*
X009256Y022963D01*
X007247Y022963D01*
X007247Y018442D01*
X007655Y018213D02*
X007730Y018138D01*
X007730Y017988D01*
X007655Y017912D01*
X010171Y019132D02*
X010171Y021132D01*
X010471Y021132D01*
X010471Y019132D01*
X010171Y019132D01*
X010471Y019132D02*
X012071Y019132D01*
X012071Y021132D01*
X010471Y021132D01*
X010574Y022583D02*
X010574Y026783D01*
X018574Y026783D01*
X018574Y022583D01*
X010574Y022583D01*
X006934Y022265D02*
X006859Y022340D01*
X006709Y022340D01*
X006634Y022265D01*
X006474Y022265D02*
X006399Y022340D01*
X006249Y022340D01*
X006174Y022265D01*
X006174Y021965D01*
X006249Y021890D01*
X006399Y021890D01*
X006474Y021965D01*
X006634Y021890D02*
X006934Y022190D01*
X006934Y022265D01*
X006934Y021890D02*
X006634Y021890D01*
X005426Y022265D02*
X005126Y021965D01*
X005126Y021890D01*
X004966Y021890D02*
X004666Y021890D01*
X004966Y022190D01*
X004966Y022265D01*
X004891Y022340D01*
X004741Y022340D01*
X004666Y022265D01*
X004506Y022265D02*
X004431Y022340D01*
X004280Y022340D01*
X004205Y022265D01*
X004205Y021965D01*
X004280Y021890D01*
X004431Y021890D01*
X004506Y021965D01*
X005126Y022340D02*
X005426Y022340D01*
X005426Y022265D01*
X019275Y020660D02*
X019275Y020266D01*
X020063Y020266D01*
X020063Y020660D01*
X019275Y020660D01*
X020634Y020974D02*
X020634Y017392D01*
X023960Y017392D01*
X023960Y020974D01*
X020634Y020974D01*
X024574Y022583D02*
X024574Y026783D01*
X032574Y026783D01*
X032574Y022583D01*
X024574Y022583D01*
X024866Y020345D02*
X025260Y020345D01*
X025260Y019557D01*
X024866Y019557D01*
X024866Y020345D01*
X036508Y023532D02*
X036733Y023307D01*
X036733Y023607D01*
X036583Y023767D02*
X036508Y023842D01*
X036508Y023992D01*
X036583Y024067D01*
X036884Y023767D01*
X036959Y023842D01*
X036959Y023992D01*
X036884Y024067D01*
X036583Y024067D01*
X036583Y023767D02*
X036884Y023767D01*
X036959Y023532D02*
X036508Y023532D01*
X011482Y007354D02*
X011482Y007204D01*
X011407Y007128D01*
X011257Y007128D01*
X011257Y007354D01*
X011332Y007429D01*
X011407Y007429D01*
X011482Y007354D01*
X011257Y007128D02*
X011106Y007279D01*
X011031Y007429D01*
X011031Y006818D02*
X011482Y006818D01*
X011482Y006668D02*
X011482Y006968D01*
X011182Y006668D02*
X011031Y006818D01*
X011106Y006508D02*
X011031Y006433D01*
X011031Y006283D01*
X011106Y006208D01*
X011407Y006208D01*
X011482Y006283D01*
X011482Y006433D01*
X011407Y006508D01*
X012989Y005638D02*
X012989Y000133D01*
X013024Y000133D02*
X018124Y000133D01*
X018159Y000133D02*
X018159Y005638D01*
X018134Y005643D02*
X013014Y005643D01*
X013574Y003183D02*
X013824Y000683D01*
X015074Y000683D01*
X015324Y003183D01*
X015824Y003183D02*
X016074Y000683D01*
X017324Y000683D01*
X017574Y003183D01*
X020101Y004491D02*
X020176Y004416D01*
X020326Y004416D01*
X020401Y004491D01*
X020561Y004416D02*
X020861Y004716D01*
X020861Y004791D01*
X020786Y004866D01*
X020636Y004866D01*
X020561Y004791D01*
X020401Y004791D02*
X020326Y004866D01*
X020176Y004866D01*
X020101Y004791D01*
X020101Y004491D01*
X020561Y004416D02*
X020861Y004416D01*
X021021Y004491D02*
X021021Y004791D01*
X021096Y004866D01*
X021246Y004866D01*
X021322Y004791D01*
X021021Y004491D01*
X021096Y004416D01*
X021246Y004416D01*
X021322Y004491D01*
X021322Y004791D01*
X023989Y005638D02*
X023989Y000133D01*
X024024Y000133D02*
X029124Y000133D01*
X029159Y000133D02*
X029159Y005638D01*
X029134Y005643D02*
X024014Y005643D01*
X024574Y003183D02*
X024824Y000683D01*
X026074Y000683D01*
X026324Y003183D01*
X026824Y003183D02*
X027074Y000683D01*
X028324Y000683D01*
X028574Y003183D01*
X036508Y004382D02*
X036583Y004307D01*
X036658Y004307D01*
X036733Y004382D01*
X036733Y004532D01*
X036808Y004607D01*
X036884Y004607D01*
X036959Y004532D01*
X036959Y004382D01*
X036884Y004307D01*
X036508Y004382D02*
X036508Y004532D01*
X036583Y004607D01*
X036508Y004767D02*
X036808Y004767D01*
X036959Y004917D01*
X036808Y005067D01*
X036508Y005067D01*
X036658Y005227D02*
X036508Y005377D01*
X036959Y005377D01*
X036959Y005227D02*
X036959Y005528D01*
X039308Y004757D02*
X039759Y004757D01*
X039759Y004607D02*
X039759Y004907D01*
X039458Y004607D02*
X039308Y004757D01*
D11*
X004543Y003591D02*
X004466Y003668D01*
X004466Y003822D01*
X004543Y003898D01*
X004466Y004052D02*
X004696Y004052D01*
X004620Y004205D01*
X004620Y004282D01*
X004696Y004359D01*
X004850Y004359D01*
X004927Y004282D01*
X004927Y004129D01*
X004850Y004052D01*
X004850Y003898D02*
X004927Y003822D01*
X004927Y003668D01*
X004850Y003591D01*
X004543Y003591D01*
X004466Y004052D02*
X004466Y004359D01*
X004619Y004356D02*
X004652Y004323D01*
X004786Y004323D01*
X004819Y004356D01*
X004819Y004423D01*
X004786Y004456D01*
X004819Y004544D02*
X004819Y004677D01*
X004819Y004611D02*
X004619Y004611D01*
X004685Y004544D01*
X004652Y004456D02*
X004619Y004423D01*
X004619Y004356D01*
X003932Y004256D02*
X003898Y004256D01*
X003765Y004389D01*
X003731Y004389D01*
X003731Y004256D01*
X003765Y004168D02*
X003832Y004168D01*
X003865Y004135D01*
X003865Y004035D01*
X003932Y004035D02*
X003731Y004035D01*
X003731Y004135D01*
X003765Y004168D01*
X003865Y004102D02*
X003932Y004168D01*
X007844Y004229D02*
X008228Y004229D01*
X008304Y004305D01*
X008304Y004459D01*
X008228Y004536D01*
X007844Y004536D01*
X007844Y004689D02*
X007844Y004996D01*
X007921Y004996D01*
X008228Y004689D01*
X008304Y004689D01*
X012253Y006030D02*
X012330Y005953D01*
X012483Y005953D01*
X012560Y006030D01*
X012560Y006414D01*
X012713Y006337D02*
X012713Y006260D01*
X012790Y006183D01*
X012943Y006183D01*
X013020Y006107D01*
X013020Y006030D01*
X012943Y005953D01*
X012790Y005953D01*
X012713Y006030D01*
X012713Y006337D02*
X012790Y006414D01*
X012943Y006414D01*
X013020Y006337D01*
X013174Y006414D02*
X013404Y006414D01*
X013481Y006337D01*
X013481Y006260D01*
X013404Y006183D01*
X013174Y006183D01*
X013404Y006183D02*
X013481Y006107D01*
X013481Y006030D01*
X013404Y005953D01*
X013174Y005953D01*
X013174Y006414D01*
X013634Y006260D02*
X013787Y006414D01*
X013787Y005953D01*
X013634Y005953D02*
X013941Y005953D01*
X013273Y007115D02*
X013273Y007191D01*
X013580Y007498D01*
X013580Y007575D01*
X013273Y007575D01*
X013120Y007115D02*
X012813Y007115D01*
X012813Y007575D01*
X012253Y006414D02*
X012253Y006030D01*
X007486Y009119D02*
X007409Y009043D01*
X007025Y009043D01*
X007486Y009119D02*
X007486Y009273D01*
X007409Y009350D01*
X007025Y009350D01*
X007102Y009503D02*
X007179Y009503D01*
X007255Y009580D01*
X007255Y009733D01*
X007332Y009810D01*
X007409Y009810D01*
X007486Y009733D01*
X007486Y009580D01*
X007409Y009503D01*
X007102Y009503D02*
X007025Y009580D01*
X007025Y009733D01*
X007102Y009810D01*
X007025Y009963D02*
X007025Y010194D01*
X007102Y010270D01*
X007179Y010270D01*
X007255Y010194D01*
X007255Y009963D01*
X007025Y009963D02*
X007486Y009963D01*
X007486Y010194D01*
X007409Y010270D01*
X007332Y010270D01*
X007255Y010194D01*
X007102Y010424D02*
X007025Y010500D01*
X007025Y010654D01*
X007102Y010731D01*
X007179Y010731D01*
X007255Y010654D01*
X007332Y010731D01*
X007409Y010731D01*
X007486Y010654D01*
X007486Y010500D01*
X007409Y010424D01*
X007255Y010577D02*
X007255Y010654D01*
X004916Y009350D02*
X004916Y009217D01*
X004916Y009283D02*
X004716Y009283D01*
X004782Y009217D01*
X004749Y009129D02*
X004816Y009129D01*
X004849Y009096D01*
X004849Y008996D01*
X004849Y009062D02*
X004916Y009129D01*
X004916Y008996D02*
X004716Y008996D01*
X004716Y009096D01*
X004749Y009129D01*
X004207Y009129D02*
X004141Y009062D01*
X004141Y009096D02*
X004141Y008996D01*
X004207Y008996D02*
X004007Y008996D01*
X004007Y009096D01*
X004040Y009129D01*
X004107Y009129D01*
X004141Y009096D01*
X004174Y009217D02*
X004207Y009250D01*
X004207Y009317D01*
X004174Y009350D01*
X004141Y009350D01*
X004107Y009317D01*
X004107Y009217D01*
X004174Y009217D01*
X004107Y009217D02*
X004040Y009283D01*
X004007Y009350D01*
X002339Y009323D02*
X002339Y009456D01*
X002339Y009390D02*
X002138Y009390D01*
X002205Y009323D01*
X002172Y009235D02*
X002239Y009235D01*
X002272Y009202D01*
X002272Y009102D01*
X002339Y009102D02*
X002138Y009102D01*
X002138Y009202D01*
X002172Y009235D01*
X002272Y009169D02*
X002339Y009235D01*
X002339Y009544D02*
X002339Y009677D01*
X002339Y009611D02*
X002138Y009611D01*
X002205Y009544D01*
X007267Y019087D02*
X007650Y019087D01*
X007727Y019163D01*
X007727Y019317D01*
X007650Y019393D01*
X007267Y019393D01*
X007343Y019547D02*
X007267Y019624D01*
X007267Y019777D01*
X007343Y019854D01*
X007343Y020007D02*
X007267Y020084D01*
X007267Y020237D01*
X007343Y020314D01*
X007420Y020314D01*
X007727Y020007D01*
X007727Y020314D01*
X007650Y019854D02*
X007574Y019854D01*
X007497Y019777D01*
X007497Y019624D01*
X007420Y019547D01*
X007343Y019547D01*
X007190Y019700D02*
X007804Y019700D01*
X007727Y019624D02*
X007727Y019777D01*
X007650Y019854D01*
X007727Y019624D02*
X007650Y019547D01*
X009527Y021602D02*
X009911Y021602D01*
X009988Y021679D01*
X009988Y021832D01*
X009911Y021909D01*
X009527Y021909D01*
X009604Y022063D02*
X009527Y022139D01*
X009527Y022293D01*
X009604Y022370D01*
X009527Y022523D02*
X009527Y022830D01*
X009604Y022830D01*
X009911Y022523D01*
X009988Y022523D01*
X009911Y022370D02*
X009834Y022370D01*
X009757Y022293D01*
X009757Y022139D01*
X009681Y022063D01*
X009604Y022063D01*
X009450Y022216D02*
X010064Y022216D01*
X009988Y022139D02*
X009988Y022293D01*
X009911Y022370D01*
X009988Y022139D02*
X009911Y022063D01*
X011344Y024822D02*
X011344Y025052D01*
X011421Y025129D01*
X011574Y025129D01*
X011651Y025052D01*
X011651Y024822D01*
X011651Y025052D01*
X011574Y025129D01*
X011421Y025129D01*
X011344Y025052D01*
X011344Y024822D01*
X011804Y024822D01*
X011344Y024822D01*
X011651Y024975D02*
X011804Y025129D01*
X011651Y024975D01*
X011344Y025282D02*
X011344Y025589D01*
X011344Y025282D01*
X011344Y025436D02*
X011804Y025436D01*
X011344Y025436D01*
X011421Y025743D02*
X011498Y025743D01*
X011574Y025819D01*
X011574Y025973D01*
X011651Y026050D01*
X011728Y026050D01*
X011804Y025973D01*
X011804Y025819D01*
X011728Y025743D01*
X011804Y025819D01*
X011804Y025973D01*
X011728Y026050D01*
X011651Y026050D01*
X011574Y025973D01*
X011574Y025819D01*
X011498Y025743D01*
X011421Y025743D01*
X011344Y025819D01*
X011344Y025973D01*
X011421Y026050D01*
X011344Y025973D01*
X011344Y025819D01*
X011421Y025743D01*
X012344Y025743D02*
X012804Y026050D01*
X012804Y025743D02*
X012344Y026050D01*
X012421Y025589D02*
X012574Y025589D01*
X012651Y025513D01*
X012651Y025282D01*
X012804Y025282D02*
X012344Y025282D01*
X012344Y025513D01*
X012421Y025589D01*
X012651Y025436D02*
X012804Y025589D01*
X016344Y025589D02*
X016344Y025282D01*
X016344Y025436D02*
X016804Y025436D01*
X016804Y025743D02*
X016344Y026050D01*
X016344Y025743D02*
X016804Y026050D01*
X017344Y025973D02*
X017344Y025819D01*
X017421Y025743D01*
X017498Y025743D01*
X017574Y025819D01*
X017574Y025973D01*
X017651Y026050D01*
X017728Y026050D01*
X017804Y025973D01*
X017804Y025819D01*
X017728Y025743D01*
X017344Y025589D02*
X017344Y025282D01*
X017344Y025436D02*
X017804Y025436D01*
X017728Y025129D02*
X017804Y025052D01*
X017804Y024899D01*
X017728Y024822D01*
X017421Y024822D01*
X017344Y024899D01*
X017344Y025052D01*
X017421Y025129D01*
X017344Y025973D02*
X017421Y026050D01*
X019665Y020907D02*
X019632Y020873D01*
X019632Y020740D01*
X019665Y020706D01*
X019732Y020706D01*
X019765Y020740D01*
X019853Y020807D02*
X019986Y020807D01*
X019953Y020907D02*
X019853Y020807D01*
X019765Y020873D02*
X019732Y020907D01*
X019665Y020907D01*
X019953Y020907D02*
X019953Y020706D01*
X025306Y019907D02*
X025340Y019941D01*
X025373Y019941D01*
X025406Y019907D01*
X025440Y019941D01*
X025473Y019941D01*
X025506Y019907D01*
X025506Y019841D01*
X025473Y019807D01*
X025473Y019720D02*
X025506Y019686D01*
X025506Y019620D01*
X025473Y019586D01*
X025340Y019586D01*
X025306Y019620D01*
X025306Y019686D01*
X025340Y019720D01*
X025340Y019807D02*
X025306Y019841D01*
X025306Y019907D01*
X025406Y019907D02*
X025406Y019874D01*
X025344Y024822D02*
X025344Y025052D01*
X025421Y025129D01*
X025574Y025129D01*
X025651Y025052D01*
X025651Y024822D01*
X025651Y025052D01*
X025574Y025129D01*
X025421Y025129D01*
X025344Y025052D01*
X025344Y024822D01*
X025804Y024822D01*
X025344Y024822D01*
X025651Y024975D02*
X025804Y025129D01*
X025651Y024975D01*
X025344Y025282D02*
X025344Y025589D01*
X025344Y025282D01*
X025344Y025436D02*
X025804Y025436D01*
X025344Y025436D01*
X025421Y025743D02*
X025498Y025743D01*
X025574Y025819D01*
X025574Y025973D01*
X025651Y026050D01*
X025728Y026050D01*
X025804Y025973D01*
X025804Y025819D01*
X025728Y025743D01*
X025804Y025819D01*
X025804Y025973D01*
X025728Y026050D01*
X025651Y026050D01*
X025574Y025973D01*
X025574Y025819D01*
X025498Y025743D01*
X025421Y025743D01*
X025344Y025819D01*
X025344Y025973D01*
X025421Y026050D01*
X025344Y025973D01*
X025344Y025819D01*
X025421Y025743D01*
X026344Y025743D02*
X026804Y026050D01*
X026804Y025743D02*
X026344Y026050D01*
X026421Y025589D02*
X026574Y025589D01*
X026651Y025513D01*
X026651Y025282D01*
X026804Y025282D02*
X026344Y025282D01*
X026344Y025513D01*
X026421Y025589D01*
X026651Y025436D02*
X026804Y025589D01*
X030344Y025589D02*
X030344Y025282D01*
X030344Y025436D02*
X030804Y025436D01*
X030804Y025743D02*
X030344Y026050D01*
X030344Y025743D02*
X030804Y026050D01*
X031344Y025973D02*
X031344Y025819D01*
X031421Y025743D01*
X031498Y025743D01*
X031574Y025819D01*
X031574Y025973D01*
X031651Y026050D01*
X031728Y026050D01*
X031804Y025973D01*
X031804Y025819D01*
X031728Y025743D01*
X031344Y025589D02*
X031344Y025282D01*
X031344Y025436D02*
X031804Y025436D01*
X031728Y025129D02*
X031804Y025052D01*
X031804Y024899D01*
X031728Y024822D01*
X031421Y024822D01*
X031344Y024899D01*
X031344Y025052D01*
X031421Y025129D01*
X031344Y025973D02*
X031421Y026050D01*
X024358Y007614D02*
X024435Y007538D01*
X024435Y007461D01*
X024358Y007384D01*
X024204Y007384D01*
X024128Y007461D01*
X024128Y007538D01*
X024204Y007614D01*
X024358Y007614D01*
X024358Y007384D02*
X024435Y007307D01*
X024435Y007231D01*
X024358Y007154D01*
X024204Y007154D01*
X024128Y007231D01*
X024128Y007307D01*
X024204Y007384D01*
X023974Y007154D02*
X023667Y007154D01*
X023667Y007614D01*
X023560Y006414D02*
X023560Y006030D01*
X023483Y005953D01*
X023330Y005953D01*
X023253Y006030D01*
X023253Y006414D01*
X023713Y006337D02*
X023713Y006260D01*
X023790Y006183D01*
X023943Y006183D01*
X024020Y006107D01*
X024020Y006030D01*
X023943Y005953D01*
X023790Y005953D01*
X023713Y006030D01*
X023713Y006337D02*
X023790Y006414D01*
X023943Y006414D01*
X024020Y006337D01*
X024174Y006414D02*
X024174Y005953D01*
X024404Y005953D01*
X024481Y006030D01*
X024481Y006107D01*
X024404Y006183D01*
X024174Y006183D01*
X024404Y006183D02*
X024481Y006260D01*
X024481Y006337D01*
X024404Y006414D01*
X024174Y006414D01*
X024634Y006337D02*
X024711Y006414D01*
X024864Y006414D01*
X024941Y006337D01*
X024941Y006260D01*
X024634Y005953D01*
X024941Y005953D01*
X002434Y020556D02*
X001974Y020556D01*
X001974Y020786D01*
X002051Y020863D01*
X002204Y020863D01*
X002281Y020786D01*
X002281Y020556D01*
X002281Y020710D02*
X002434Y020863D01*
X002434Y021017D02*
X002434Y021324D01*
X002434Y021477D02*
X002128Y021784D01*
X002051Y021784D01*
X001974Y021707D01*
X001974Y021554D01*
X002051Y021477D01*
X001974Y021170D02*
X002434Y021170D01*
X002434Y021477D02*
X002434Y021784D01*
X001974Y021170D02*
X002128Y021017D01*
D12*
X002530Y021565D02*
X002532Y021621D01*
X002538Y021678D01*
X002548Y021733D01*
X002562Y021788D01*
X002579Y021842D01*
X002601Y021894D01*
X002626Y021944D01*
X002654Y021993D01*
X002686Y022040D01*
X002721Y022084D01*
X002759Y022126D01*
X002800Y022165D01*
X002844Y022200D01*
X002890Y022233D01*
X002938Y022262D01*
X002988Y022288D01*
X003040Y022311D01*
X003094Y022329D01*
X003148Y022344D01*
X003203Y022355D01*
X003259Y022362D01*
X003316Y022365D01*
X003372Y022364D01*
X003429Y022359D01*
X003484Y022350D01*
X003539Y022337D01*
X003593Y022320D01*
X003646Y022300D01*
X003697Y022276D01*
X003746Y022248D01*
X003793Y022217D01*
X003838Y022183D01*
X003881Y022145D01*
X003920Y022105D01*
X003957Y022062D01*
X003990Y022017D01*
X004020Y021969D01*
X004047Y021919D01*
X004070Y021868D01*
X004090Y021815D01*
X004106Y021761D01*
X004118Y021705D01*
X004126Y021650D01*
X004130Y021593D01*
X004130Y021537D01*
X004126Y021480D01*
X004118Y021425D01*
X004106Y021369D01*
X004090Y021315D01*
X004070Y021262D01*
X004047Y021211D01*
X004020Y021161D01*
X003990Y021113D01*
X003957Y021068D01*
X003920Y021025D01*
X003881Y020985D01*
X003838Y020947D01*
X003793Y020913D01*
X003746Y020882D01*
X003697Y020854D01*
X003646Y020830D01*
X003593Y020810D01*
X003539Y020793D01*
X003484Y020780D01*
X003429Y020771D01*
X003372Y020766D01*
X003316Y020765D01*
X003259Y020768D01*
X003203Y020775D01*
X003148Y020786D01*
X003094Y020801D01*
X003040Y020819D01*
X002988Y020842D01*
X002938Y020868D01*
X002890Y020897D01*
X002844Y020930D01*
X002800Y020965D01*
X002759Y021004D01*
X002721Y021046D01*
X002686Y021090D01*
X002654Y021137D01*
X002626Y021186D01*
X002601Y021236D01*
X002579Y021288D01*
X002562Y021342D01*
X002548Y021397D01*
X002538Y021452D01*
X002532Y021509D01*
X002530Y021565D01*
X003030Y022015D02*
X003030Y022215D01*
X002930Y022115D02*
X003130Y022115D01*
X004899Y022115D02*
X005099Y022115D01*
X004999Y022015D02*
X004999Y022215D01*
X004499Y021565D02*
X004501Y021621D01*
X004507Y021678D01*
X004517Y021733D01*
X004531Y021788D01*
X004548Y021842D01*
X004570Y021894D01*
X004595Y021944D01*
X004623Y021993D01*
X004655Y022040D01*
X004690Y022084D01*
X004728Y022126D01*
X004769Y022165D01*
X004813Y022200D01*
X004859Y022233D01*
X004907Y022262D01*
X004957Y022288D01*
X005009Y022311D01*
X005063Y022329D01*
X005117Y022344D01*
X005172Y022355D01*
X005228Y022362D01*
X005285Y022365D01*
X005341Y022364D01*
X005398Y022359D01*
X005453Y022350D01*
X005508Y022337D01*
X005562Y022320D01*
X005615Y022300D01*
X005666Y022276D01*
X005715Y022248D01*
X005762Y022217D01*
X005807Y022183D01*
X005850Y022145D01*
X005889Y022105D01*
X005926Y022062D01*
X005959Y022017D01*
X005989Y021969D01*
X006016Y021919D01*
X006039Y021868D01*
X006059Y021815D01*
X006075Y021761D01*
X006087Y021705D01*
X006095Y021650D01*
X006099Y021593D01*
X006099Y021537D01*
X006095Y021480D01*
X006087Y021425D01*
X006075Y021369D01*
X006059Y021315D01*
X006039Y021262D01*
X006016Y021211D01*
X005989Y021161D01*
X005959Y021113D01*
X005926Y021068D01*
X005889Y021025D01*
X005850Y020985D01*
X005807Y020947D01*
X005762Y020913D01*
X005715Y020882D01*
X005666Y020854D01*
X005615Y020830D01*
X005562Y020810D01*
X005508Y020793D01*
X005453Y020780D01*
X005398Y020771D01*
X005341Y020766D01*
X005285Y020765D01*
X005228Y020768D01*
X005172Y020775D01*
X005117Y020786D01*
X005063Y020801D01*
X005009Y020819D01*
X004957Y020842D01*
X004907Y020868D01*
X004859Y020897D01*
X004813Y020930D01*
X004769Y020965D01*
X004728Y021004D01*
X004690Y021046D01*
X004655Y021090D01*
X004623Y021137D01*
X004595Y021186D01*
X004570Y021236D01*
X004548Y021288D01*
X004531Y021342D01*
X004517Y021397D01*
X004507Y021452D01*
X004501Y021509D01*
X004499Y021565D01*
X007255Y017037D02*
X007257Y017093D01*
X007263Y017150D01*
X007273Y017205D01*
X007287Y017260D01*
X007304Y017314D01*
X007326Y017366D01*
X007351Y017416D01*
X007379Y017465D01*
X007411Y017512D01*
X007446Y017556D01*
X007484Y017598D01*
X007525Y017637D01*
X007569Y017672D01*
X007615Y017705D01*
X007663Y017734D01*
X007713Y017760D01*
X007765Y017783D01*
X007819Y017801D01*
X007873Y017816D01*
X007928Y017827D01*
X007984Y017834D01*
X008041Y017837D01*
X008097Y017836D01*
X008154Y017831D01*
X008209Y017822D01*
X008264Y017809D01*
X008318Y017792D01*
X008371Y017772D01*
X008422Y017748D01*
X008471Y017720D01*
X008518Y017689D01*
X008563Y017655D01*
X008606Y017617D01*
X008645Y017577D01*
X008682Y017534D01*
X008715Y017489D01*
X008745Y017441D01*
X008772Y017391D01*
X008795Y017340D01*
X008815Y017287D01*
X008831Y017233D01*
X008843Y017177D01*
X008851Y017122D01*
X008855Y017065D01*
X008855Y017009D01*
X008851Y016952D01*
X008843Y016897D01*
X008831Y016841D01*
X008815Y016787D01*
X008795Y016734D01*
X008772Y016683D01*
X008745Y016633D01*
X008715Y016585D01*
X008682Y016540D01*
X008645Y016497D01*
X008606Y016457D01*
X008563Y016419D01*
X008518Y016385D01*
X008471Y016354D01*
X008422Y016326D01*
X008371Y016302D01*
X008318Y016282D01*
X008264Y016265D01*
X008209Y016252D01*
X008154Y016243D01*
X008097Y016238D01*
X008041Y016237D01*
X007984Y016240D01*
X007928Y016247D01*
X007873Y016258D01*
X007819Y016273D01*
X007765Y016291D01*
X007713Y016314D01*
X007663Y016340D01*
X007615Y016369D01*
X007569Y016402D01*
X007525Y016437D01*
X007484Y016476D01*
X007446Y016518D01*
X007411Y016562D01*
X007379Y016609D01*
X007351Y016658D01*
X007326Y016708D01*
X007304Y016760D01*
X007287Y016814D01*
X007273Y016869D01*
X007263Y016924D01*
X007257Y016981D01*
X007255Y017037D01*
X007505Y016837D02*
X007505Y016637D01*
X007605Y016737D02*
X007405Y016737D01*
X011007Y005333D02*
X011009Y005389D01*
X011015Y005446D01*
X011025Y005501D01*
X011039Y005556D01*
X011056Y005610D01*
X011078Y005662D01*
X011103Y005712D01*
X011131Y005761D01*
X011163Y005808D01*
X011198Y005852D01*
X011236Y005894D01*
X011277Y005933D01*
X011321Y005968D01*
X011367Y006001D01*
X011415Y006030D01*
X011465Y006056D01*
X011517Y006079D01*
X011571Y006097D01*
X011625Y006112D01*
X011680Y006123D01*
X011736Y006130D01*
X011793Y006133D01*
X011849Y006132D01*
X011906Y006127D01*
X011961Y006118D01*
X012016Y006105D01*
X012070Y006088D01*
X012123Y006068D01*
X012174Y006044D01*
X012223Y006016D01*
X012270Y005985D01*
X012315Y005951D01*
X012358Y005913D01*
X012397Y005873D01*
X012434Y005830D01*
X012467Y005785D01*
X012497Y005737D01*
X012524Y005687D01*
X012547Y005636D01*
X012567Y005583D01*
X012583Y005529D01*
X012595Y005473D01*
X012603Y005418D01*
X012607Y005361D01*
X012607Y005305D01*
X012603Y005248D01*
X012595Y005193D01*
X012583Y005137D01*
X012567Y005083D01*
X012547Y005030D01*
X012524Y004979D01*
X012497Y004929D01*
X012467Y004881D01*
X012434Y004836D01*
X012397Y004793D01*
X012358Y004753D01*
X012315Y004715D01*
X012270Y004681D01*
X012223Y004650D01*
X012174Y004622D01*
X012123Y004598D01*
X012070Y004578D01*
X012016Y004561D01*
X011961Y004548D01*
X011906Y004539D01*
X011849Y004534D01*
X011793Y004533D01*
X011736Y004536D01*
X011680Y004543D01*
X011625Y004554D01*
X011571Y004569D01*
X011517Y004587D01*
X011465Y004610D01*
X011415Y004636D01*
X011367Y004665D01*
X011321Y004698D01*
X011277Y004733D01*
X011236Y004772D01*
X011198Y004814D01*
X011163Y004858D01*
X011131Y004905D01*
X011103Y004954D01*
X011078Y005004D01*
X011056Y005056D01*
X011039Y005110D01*
X011025Y005165D01*
X011015Y005220D01*
X011009Y005277D01*
X011007Y005333D01*
X011257Y005133D02*
X011257Y004933D01*
X011357Y005033D02*
X011157Y005033D01*
X021507Y005191D02*
X021509Y005247D01*
X021515Y005304D01*
X021525Y005359D01*
X021539Y005414D01*
X021556Y005468D01*
X021578Y005520D01*
X021603Y005570D01*
X021631Y005619D01*
X021663Y005666D01*
X021698Y005710D01*
X021736Y005752D01*
X021777Y005791D01*
X021821Y005826D01*
X021867Y005859D01*
X021915Y005888D01*
X021965Y005914D01*
X022017Y005937D01*
X022071Y005955D01*
X022125Y005970D01*
X022180Y005981D01*
X022236Y005988D01*
X022293Y005991D01*
X022349Y005990D01*
X022406Y005985D01*
X022461Y005976D01*
X022516Y005963D01*
X022570Y005946D01*
X022623Y005926D01*
X022674Y005902D01*
X022723Y005874D01*
X022770Y005843D01*
X022815Y005809D01*
X022858Y005771D01*
X022897Y005731D01*
X022934Y005688D01*
X022967Y005643D01*
X022997Y005595D01*
X023024Y005545D01*
X023047Y005494D01*
X023067Y005441D01*
X023083Y005387D01*
X023095Y005331D01*
X023103Y005276D01*
X023107Y005219D01*
X023107Y005163D01*
X023103Y005106D01*
X023095Y005051D01*
X023083Y004995D01*
X023067Y004941D01*
X023047Y004888D01*
X023024Y004837D01*
X022997Y004787D01*
X022967Y004739D01*
X022934Y004694D01*
X022897Y004651D01*
X022858Y004611D01*
X022815Y004573D01*
X022770Y004539D01*
X022723Y004508D01*
X022674Y004480D01*
X022623Y004456D01*
X022570Y004436D01*
X022516Y004419D01*
X022461Y004406D01*
X022406Y004397D01*
X022349Y004392D01*
X022293Y004391D01*
X022236Y004394D01*
X022180Y004401D01*
X022125Y004412D01*
X022071Y004427D01*
X022017Y004445D01*
X021965Y004468D01*
X021915Y004494D01*
X021867Y004523D01*
X021821Y004556D01*
X021777Y004591D01*
X021736Y004630D01*
X021698Y004672D01*
X021663Y004716D01*
X021631Y004763D01*
X021603Y004812D01*
X021578Y004862D01*
X021556Y004914D01*
X021539Y004968D01*
X021525Y005023D01*
X021515Y005078D01*
X021509Y005135D01*
X021507Y005191D01*
X022507Y004641D02*
X022707Y004641D01*
X022607Y004741D02*
X022607Y004541D01*
X037134Y004532D02*
X037384Y004282D01*
X038884Y004282D01*
X039134Y004532D01*
X039134Y005032D01*
X038884Y005282D01*
X039134Y005532D01*
X039134Y006032D01*
X038884Y006282D01*
X039134Y006532D01*
X039134Y007032D01*
X038884Y007282D01*
X039134Y007532D01*
X039134Y008032D01*
X038884Y008282D01*
X039134Y008532D01*
X039134Y009032D01*
X038884Y009282D01*
X039134Y009532D01*
X039134Y010032D01*
X038884Y010282D01*
X039134Y010532D01*
X039134Y011032D01*
X038884Y011282D01*
X039134Y011532D01*
X039134Y012032D01*
X038884Y012282D01*
X039134Y012532D01*
X039134Y013032D01*
X038884Y013282D01*
X039134Y013532D01*
X039134Y014032D01*
X038884Y014282D01*
X039134Y014532D01*
X039134Y015032D01*
X038884Y015282D01*
X039134Y015532D01*
X039134Y016032D01*
X038884Y016282D01*
X039134Y016532D01*
X039134Y017032D01*
X038884Y017282D01*
X039134Y017532D01*
X039134Y018032D01*
X038884Y018282D01*
X039134Y018532D01*
X039134Y019032D01*
X038884Y019282D01*
X039134Y019532D01*
X039134Y020032D01*
X038884Y020282D01*
X039134Y020532D01*
X039134Y021032D01*
X038884Y021282D01*
X039134Y021532D01*
X039134Y022032D01*
X038884Y022282D01*
X039134Y022532D01*
X039134Y023032D01*
X038884Y023282D01*
X039134Y023532D01*
X039134Y024032D01*
X038884Y024282D01*
X037384Y024282D01*
X037134Y024032D01*
X037134Y023532D01*
X037384Y023282D01*
X037134Y023032D01*
X037134Y022532D01*
X037384Y022282D01*
X037134Y022032D01*
X037134Y021532D01*
X037384Y021282D01*
X037134Y021032D01*
X037134Y020532D01*
X037384Y020282D01*
X037134Y020032D01*
X037134Y019532D01*
X037384Y019282D01*
X037134Y019032D01*
X037134Y018532D01*
X037384Y018282D01*
X037134Y018032D01*
X037134Y017532D01*
X037384Y017282D01*
X037134Y017032D01*
X037134Y016532D01*
X037384Y016282D01*
X037134Y016032D01*
X037134Y015532D01*
X037384Y015282D01*
X037134Y015032D01*
X037134Y014532D01*
X037384Y014282D01*
X037134Y014032D01*
X037134Y013532D01*
X037384Y013282D01*
X037134Y013032D01*
X037134Y012532D01*
X037384Y012282D01*
X037134Y012032D01*
X037134Y011532D01*
X037384Y011282D01*
X037134Y011032D01*
X037134Y010532D01*
X037384Y010282D01*
X037134Y010032D01*
X037134Y009532D01*
X037384Y009282D01*
X037134Y009032D01*
X037134Y008532D01*
X037384Y008282D01*
X037134Y008032D01*
X037134Y007532D01*
X037384Y007282D01*
X037134Y007032D01*
X037134Y006532D01*
X037384Y006282D01*
X037134Y006032D01*
X037134Y005532D01*
X037384Y005282D01*
X037134Y005032D01*
X037134Y004532D01*
D13*
X026862Y005900D02*
X026311Y005900D01*
X026311Y006766D01*
X026862Y006766D01*
X026862Y005900D01*
X015799Y005856D02*
X015248Y005856D01*
X015248Y006723D01*
X015799Y006723D01*
X015799Y005856D01*
D14*
X015185Y006543D02*
X015185Y006603D01*
X015170Y006635D02*
X015185Y006650D01*
X015185Y006680D01*
X015170Y006695D01*
X015140Y006695D01*
X015125Y006680D01*
X015125Y006665D01*
X015140Y006635D01*
X015095Y006635D01*
X015095Y006695D01*
X015095Y006543D02*
X015185Y006543D01*
X026158Y006587D02*
X026248Y006587D01*
X026248Y006647D01*
X026233Y006679D02*
X026248Y006694D01*
X026248Y006724D01*
X026233Y006739D01*
X026218Y006739D01*
X026203Y006724D01*
X026203Y006679D01*
X026233Y006679D01*
X026203Y006679D02*
X026173Y006709D01*
X026158Y006739D01*
X003112Y008759D02*
X003012Y008759D01*
X003112Y008859D01*
X003112Y008884D01*
X003087Y008909D01*
X003037Y008909D01*
X003012Y008884D01*
X002915Y008909D02*
X002915Y008759D01*
X002865Y008759D02*
X002965Y008759D01*
X002865Y008859D02*
X002915Y008909D01*
X002817Y008909D02*
X002817Y008784D01*
X002792Y008759D01*
X002742Y008759D01*
X002717Y008784D01*
X002717Y008909D01*
D15*
X010371Y020132D03*
M02*
