G75*
G70*
%OFA0B0*%
%FSLAX24Y24*%
%IPPOS*%
%LPD*%
%AMOC8*
5,1,8,0,0,1.08239X$1,22.5*
%
%ADD10C,0.0827*%
%ADD11OC8,0.0480*%
%ADD12C,0.0480*%
%ADD13R,0.0433X0.0394*%
%ADD14C,0.0650*%
%ADD15C,0.0760*%
%ADD16C,0.0560*%
%ADD17C,0.1310*%
%ADD18R,0.0157X0.0177*%
%ADD19R,0.0177X0.0394*%
%ADD20R,0.0394X0.0177*%
%ADD21R,0.0236X0.0866*%
%ADD22R,0.0394X0.0433*%
%ADD23R,0.0551X0.0945*%
%ADD24R,0.0256X0.0256*%
%ADD25OC8,0.0600*%
%ADD26R,0.1500X0.1669*%
%ADD27R,0.0118X0.0394*%
%ADD28R,0.0700X0.2000*%
%ADD29C,0.0310*%
%ADD30C,0.0500*%
%ADD31C,0.0100*%
%ADD32C,0.0080*%
%ADD33R,0.0310X0.0310*%
%ADD34C,0.0591*%
%ADD35C,0.0320*%
%ADD36C,0.0400*%
%ADD37C,0.0160*%
D10*
X002047Y012898D03*
X005797Y012898D03*
X005797Y019148D03*
X004547Y019148D03*
X003297Y019148D03*
X002047Y019148D03*
D11*
X003680Y021565D03*
X005649Y021565D03*
X008055Y017387D03*
X011807Y005683D03*
X021957Y005191D03*
D12*
X022657Y005191D03*
X011807Y004983D03*
X008055Y016687D03*
X004949Y021565D03*
X002980Y021565D03*
D13*
X001704Y021333D03*
X001704Y022002D03*
D14*
X011574Y023183D03*
X012574Y023183D03*
X013574Y023183D03*
X014574Y023183D03*
X015574Y023183D03*
X016574Y023183D03*
X017574Y023183D03*
X025574Y023183D03*
X026574Y023183D03*
X027574Y023183D03*
X028574Y023183D03*
X029574Y023183D03*
X030574Y023183D03*
X031574Y023183D03*
D15*
X033574Y023183D03*
X034574Y023183D03*
X020574Y023183D03*
X019574Y023183D03*
X006074Y023183D03*
X005074Y023183D03*
D16*
X008186Y013739D03*
X008186Y012759D03*
X008186Y011969D03*
X008186Y010989D03*
X014199Y005253D03*
X015179Y005253D03*
X015969Y005253D03*
X016949Y005253D03*
X025199Y005253D03*
X026179Y005253D03*
X026969Y005253D03*
X027949Y005253D03*
D17*
X029159Y004183D03*
X023989Y004183D03*
X018159Y004183D03*
X012989Y004183D03*
X009256Y009779D03*
X009256Y014949D03*
D18*
X015366Y006595D03*
X015681Y006595D03*
X015681Y005984D03*
X015366Y005984D03*
X026429Y006028D03*
X026744Y006028D03*
X026744Y006638D03*
X026429Y006638D03*
D19*
X005704Y005191D03*
X005389Y005191D03*
X005074Y005191D03*
X004760Y005191D03*
X004445Y005191D03*
X004130Y005191D03*
X003815Y005191D03*
X003500Y005191D03*
X003500Y008419D03*
X003815Y008419D03*
X004130Y008419D03*
X004445Y008419D03*
X004760Y008419D03*
X005074Y008419D03*
X005389Y008419D03*
X005704Y008419D03*
D20*
X006197Y007908D03*
X006197Y007593D03*
X006197Y007278D03*
X006197Y006963D03*
X006197Y006648D03*
X006197Y006333D03*
X006197Y006018D03*
X006197Y005703D03*
X002968Y005703D03*
X002968Y006018D03*
X002968Y006333D03*
X002968Y006648D03*
X002968Y006963D03*
X002968Y007278D03*
X002968Y007593D03*
X002968Y007908D03*
D21*
X008824Y005982D03*
X009324Y005982D03*
X009824Y005982D03*
X010324Y005982D03*
X010324Y003935D03*
X009824Y003935D03*
X009324Y003935D03*
X008824Y003935D03*
D22*
X004197Y003908D03*
X004197Y004577D03*
D23*
X013071Y006345D03*
X014015Y006345D03*
X023925Y006384D03*
X024870Y006384D03*
D24*
X025063Y019774D03*
X025063Y020128D03*
X019846Y020463D03*
X019492Y020463D03*
X004472Y009537D03*
X004472Y009183D03*
X003763Y009183D03*
X003763Y009537D03*
X003291Y009537D03*
X003291Y009183D03*
X002582Y009183D03*
X002582Y009537D03*
X003488Y004577D03*
X003488Y004223D03*
X005063Y004183D03*
X005063Y004537D03*
D25*
X037634Y004782D03*
X038634Y004782D03*
X038634Y005782D03*
X038634Y006782D03*
X037634Y006782D03*
X037634Y005782D03*
X037634Y007782D03*
X038634Y007782D03*
X038634Y008782D03*
X038634Y009782D03*
X037634Y009782D03*
X037634Y008782D03*
X037634Y010782D03*
X038634Y010782D03*
X038634Y011782D03*
X037634Y011782D03*
X037634Y012782D03*
X038634Y012782D03*
X038634Y013782D03*
X037634Y013782D03*
X037634Y014782D03*
X038634Y014782D03*
X038634Y015782D03*
X037634Y015782D03*
X037634Y016782D03*
X038634Y016782D03*
X038634Y017782D03*
X037634Y017782D03*
X037634Y018782D03*
X038634Y018782D03*
X038634Y019782D03*
X037634Y019782D03*
X037634Y020782D03*
X038634Y020782D03*
X038634Y021782D03*
X038634Y022782D03*
X037634Y022782D03*
X037634Y021782D03*
X037634Y023782D03*
X038634Y023782D03*
D26*
X008252Y021959D03*
X008252Y019447D03*
D27*
X021145Y020463D03*
X021401Y020463D03*
X021657Y020463D03*
X021913Y020463D03*
X022169Y020463D03*
X022425Y020463D03*
X022681Y020463D03*
X022937Y020463D03*
X023193Y020463D03*
X023449Y020463D03*
X023449Y017904D03*
X023193Y017904D03*
X022937Y017904D03*
X022681Y017904D03*
X022425Y017904D03*
X022169Y017904D03*
X021913Y017904D03*
X021657Y017904D03*
X021401Y017904D03*
X021145Y017904D03*
D28*
X012421Y020132D03*
X009821Y020132D03*
D29*
X011598Y021447D03*
X019078Y020463D03*
X020338Y020423D03*
X021362Y021368D03*
X022661Y019597D03*
X021165Y019163D03*
X025063Y020581D03*
X026952Y018809D03*
X033173Y018297D03*
X034787Y018297D03*
X035378Y017234D03*
X036795Y015817D03*
X035968Y019793D03*
X010063Y005305D03*
X010141Y004636D03*
X008449Y003967D03*
X008173Y005148D03*
X005535Y005778D03*
X004787Y005699D03*
X004472Y006447D03*
X005181Y006447D03*
X003645Y006368D03*
X003449Y005738D03*
X003842Y005660D03*
X004708Y003927D03*
X004354Y007667D03*
X003724Y007746D03*
X005574Y007864D03*
X008173Y008494D03*
X005811Y011132D03*
X005574Y011604D03*
X003763Y010030D03*
X002582Y010030D03*
X001677Y022510D03*
D30*
X005063Y023195D02*
X005074Y023183D01*
X005063Y023195D02*
X005063Y025541D01*
X005417Y025896D01*
X008212Y025896D01*
X008252Y025856D01*
X008252Y021959D01*
X008937Y020132D02*
X009821Y020132D01*
X008937Y020132D02*
X008252Y019447D01*
X009708Y017471D02*
X010220Y017471D01*
X011047Y018297D01*
X011047Y020896D01*
X011598Y021447D01*
X012436Y020148D02*
X013291Y020148D01*
X012436Y020148D02*
X012421Y020132D01*
X009708Y017471D02*
X008925Y016687D01*
X008055Y016687D01*
X005797Y014430D01*
X005797Y012898D01*
X005797Y012406D01*
X007031Y011171D01*
X008004Y011171D01*
X008186Y010989D01*
X008186Y008507D01*
X008173Y008494D01*
X008173Y005148D02*
X008567Y004715D01*
X009118Y004715D01*
X009315Y004478D01*
X009315Y003709D01*
X009324Y003935D01*
X028574Y022423D02*
X028724Y022274D01*
X035181Y022274D01*
X036689Y023782D01*
X037634Y023782D01*
X033574Y023183D02*
X033574Y025297D01*
X032976Y025896D01*
X019630Y025896D01*
X019574Y025841D01*
X019630Y025896D02*
X008212Y025896D01*
X028574Y023183D02*
X028574Y022423D01*
D31*
X028724Y022274D02*
X026244Y019793D01*
X025082Y019793D01*
X025063Y019774D01*
X025082Y019793D02*
X023488Y019793D01*
X023193Y020089D01*
X023193Y020463D01*
X023449Y020463D02*
X023449Y020974D01*
X024039Y021565D01*
X026047Y021565D01*
X027071Y022589D01*
X027071Y023534D01*
X026574Y023183D02*
X025389Y021998D01*
X023173Y021998D01*
X022169Y020994D01*
X022169Y020463D01*
X022681Y020463D02*
X022681Y019616D01*
X022661Y019597D01*
X023291Y018967D02*
X022681Y018356D01*
X022681Y017904D01*
X023193Y017904D02*
X023212Y017923D01*
X023212Y018297D01*
X023606Y018691D01*
X026559Y018691D01*
X026677Y018809D01*
X026952Y018809D01*
X026165Y018967D02*
X023291Y018967D01*
X023645Y018415D02*
X023449Y018219D01*
X023449Y017904D01*
X023645Y018415D02*
X033055Y018415D01*
X033173Y018297D01*
X033015Y017313D02*
X022582Y017313D01*
X022169Y017726D01*
X022169Y017904D01*
X021657Y017904D02*
X021657Y017254D01*
X021913Y016998D01*
X034000Y016998D01*
X034511Y017510D01*
X035614Y017510D01*
X036874Y016250D01*
X037937Y016250D01*
X036795Y015817D02*
X035378Y017234D01*
X034787Y018297D02*
X038118Y018297D01*
X038157Y018258D01*
X038134Y019282D02*
X038094Y019321D01*
X035771Y019321D01*
X035535Y019557D01*
X035260Y019557D01*
X033015Y017313D01*
X028134Y019793D02*
X026992Y019793D01*
X026165Y018967D01*
X025063Y020128D02*
X025063Y020581D01*
X021657Y020463D02*
X021657Y020167D01*
X021441Y019951D01*
X015181Y019951D01*
X014748Y020384D01*
X016574Y023183D02*
X018389Y021368D01*
X021362Y021368D01*
X021145Y020463D02*
X020378Y020463D01*
X020338Y020423D01*
X019886Y020423D01*
X019846Y020463D01*
X019492Y020463D02*
X019078Y020463D01*
X021145Y019144D02*
X021165Y019163D01*
X021145Y019144D02*
X021145Y017904D01*
D32*
X014748Y020384D02*
X012574Y022557D01*
X012574Y023183D01*
X001677Y022510D02*
X001677Y022030D01*
X001704Y022002D01*
X005574Y011604D02*
X005338Y011368D01*
X005338Y009360D01*
X004760Y008782D01*
X004760Y008419D01*
X005074Y008419D02*
X005074Y008821D01*
X005574Y009321D01*
X005574Y010896D01*
X005811Y011132D01*
X004708Y010069D02*
X004708Y009774D01*
X004472Y009537D01*
X004472Y009183D02*
X003763Y009183D01*
X003763Y009537D02*
X003291Y009537D01*
X003291Y009183D02*
X002582Y009183D01*
X002582Y009537D02*
X002582Y010030D01*
X003291Y009183D02*
X003291Y008628D01*
X003500Y008419D01*
X003815Y008419D02*
X004130Y008419D01*
X004130Y007892D01*
X004354Y007667D01*
X004130Y007341D02*
X003724Y007746D01*
X003571Y007593D01*
X002968Y007593D01*
X002968Y007908D01*
X002968Y007278D02*
X002547Y007278D01*
X002110Y006841D01*
X002110Y004675D01*
X002563Y004223D01*
X003488Y004223D01*
X003488Y004577D02*
X003500Y004589D01*
X003500Y005191D01*
X003500Y005750D01*
X003815Y005632D02*
X003815Y005191D01*
X004130Y005191D02*
X004130Y007341D01*
X003645Y006762D02*
X003645Y006368D01*
X003295Y006018D01*
X002968Y006018D01*
X003815Y005632D02*
X003842Y005660D01*
X004130Y005191D02*
X004130Y004644D01*
X004197Y004577D01*
X005023Y004577D01*
X005063Y004537D01*
X005063Y005179D01*
X005074Y005191D01*
X005389Y005191D02*
X005389Y005411D01*
X005102Y005699D01*
X004787Y005699D01*
X005535Y005778D02*
X005535Y006762D01*
X005732Y006959D01*
X006193Y006959D01*
X006197Y006963D01*
X006197Y007278D02*
X005303Y007278D01*
X005181Y007156D01*
X005181Y006447D01*
X004866Y006841D02*
X004472Y006447D01*
X004866Y006841D02*
X004866Y007667D01*
X005063Y007864D01*
X005574Y007864D01*
X006197Y007908D02*
X006200Y007904D01*
X026165Y007904D01*
X026744Y007325D01*
X026744Y006638D01*
X026429Y006638D02*
X026429Y007364D01*
X026047Y007746D01*
X007307Y007746D01*
X007153Y007593D01*
X006197Y007593D01*
X007189Y007352D02*
X007189Y006801D01*
X007031Y006644D01*
X006200Y006644D01*
X006197Y006648D01*
X006197Y006333D02*
X006956Y006333D01*
X007346Y006723D01*
X007346Y007274D01*
X007504Y007431D01*
X015181Y007431D01*
X015366Y007246D01*
X015366Y006595D01*
X015681Y006595D02*
X015681Y007246D01*
X015338Y007589D01*
X007425Y007589D01*
X007189Y007352D01*
X006598Y006014D02*
X006200Y006014D01*
X006197Y006018D01*
X006197Y005703D02*
X006712Y005703D01*
X007110Y005305D01*
X007110Y004006D01*
X007858Y003258D01*
X009708Y003258D01*
X009826Y003376D01*
X009826Y003933D01*
X009824Y003935D01*
X010324Y003935D02*
X010324Y004453D01*
X010141Y004636D01*
X010063Y005305D02*
X010324Y005567D01*
X010324Y005982D01*
X008824Y005982D02*
X006630Y005982D01*
X006598Y006014D01*
X005704Y005191D02*
X005704Y004687D01*
X005555Y004537D01*
X005063Y004183D02*
X005043Y004183D01*
X004787Y003927D01*
X004708Y003927D01*
X004787Y003908D02*
X005063Y004183D01*
X004787Y003908D02*
X004197Y003908D01*
X003645Y006762D02*
X003449Y006959D01*
X002972Y006959D01*
X002968Y006963D01*
X004445Y008419D02*
X004445Y009156D01*
X004472Y009183D01*
X003763Y009537D02*
X003763Y010030D01*
X008449Y003967D02*
X008480Y003935D01*
X008824Y003935D01*
X028134Y019793D02*
X035968Y019793D01*
X038134Y019282D02*
X038634Y018782D01*
X038157Y018258D02*
X038634Y017782D01*
X037937Y016250D02*
X038094Y016093D01*
X038094Y015345D01*
X038634Y014805D01*
X038634Y014782D01*
X036795Y015817D02*
X036795Y012620D01*
X037634Y011782D01*
X030574Y023183D02*
X030574Y023573D01*
X029945Y024203D01*
X027740Y024203D01*
X027071Y023534D01*
D33*
X004708Y010069D03*
D34*
X013291Y020148D03*
D35*
X008252Y019447D02*
X007511Y020187D01*
X005023Y020187D01*
X004949Y020261D01*
X004949Y021565D01*
X004240Y020856D01*
X002976Y020856D01*
X002976Y021561D01*
X002980Y021565D01*
X002976Y020856D02*
X002976Y020699D01*
X003297Y020378D01*
X003297Y019148D01*
X002047Y017337D02*
X001283Y018100D01*
X001283Y020911D01*
X001704Y021333D01*
X002047Y017337D02*
X002047Y012898D01*
X005063Y004537D02*
X005555Y004537D01*
X007622Y002471D01*
X035323Y002471D01*
X037634Y004782D01*
D36*
X019574Y023183D02*
X019574Y025841D01*
D37*
X014511Y007077D02*
X010220Y007077D01*
X009824Y006681D01*
X009824Y005982D01*
X009324Y005982D02*
X009324Y005217D01*
X009590Y004951D01*
X010693Y004951D01*
X010811Y005069D01*
X010811Y006014D01*
X011086Y006289D01*
X013015Y006289D01*
X013071Y006345D01*
X014015Y006345D02*
X014015Y005437D01*
X014199Y005253D01*
X014108Y005345D01*
X012622Y005345D01*
X012260Y004983D01*
X011807Y004983D01*
X014669Y006723D02*
X014669Y006919D01*
X014511Y007077D01*
X014669Y006723D02*
X015102Y006289D01*
X023724Y006289D01*
X023724Y006384D01*
X023925Y006384D01*
X024870Y006384D02*
X025199Y006054D01*
X025199Y005253D01*
X025137Y005191D01*
X022657Y005191D01*
X026179Y005253D02*
X026429Y005502D01*
X026429Y006028D01*
X026744Y006028D02*
X026744Y005479D01*
X026969Y005253D01*
X015969Y005253D02*
X015681Y005542D01*
X015681Y005984D01*
X015366Y005984D02*
X015366Y005439D01*
X015179Y005253D01*
M02*
