%
M48
M72
T01C0.0236
T02C0.0320
T03C0.0400
T04C0.0630
%
T01
X8643Y6492
X9003Y5982
X9123Y5202
X9663Y4842
X8703Y10872
X10443Y11022
T02
X9983Y9672
X8983Y9672
X7983Y9672
X6983Y9672
X7522Y8079
X7522Y7079
X7522Y6079
X7522Y5079
X7522Y4079
X7522Y3079
X7522Y2079
X7522Y1079
X10522Y1079
X10522Y2079
X10522Y3079
X10522Y4079
X10522Y5079
X10522Y6079
X10522Y7079
X10522Y8079
X10983Y9672
X11983Y9672
X12983Y9672
X13983Y9672
X14983Y9672
X15983Y9672
X15983Y12672
X14983Y12672
X13983Y12672
X12983Y12672
X11983Y12672
X10983Y12672
X9983Y12672
X8983Y12672
X7983Y12672
X6983Y12672
X7423Y13982
X7423Y14982
X8923Y14982
X8923Y13982
X10423Y13982
X10423Y14982
X11923Y14982
X11923Y13982
T03
X3823Y14952
X2823Y14952
X2823Y15952
X3823Y15952
X1823Y15952
X1823Y14952
X1823Y12952
X1823Y11952
X2823Y11952
X3823Y11952
X3823Y12952
X2823Y12952
T04
X3912Y1957
X5881Y1957
X2727Y6918
X2727Y8887
X12195Y1958
X14163Y1958
M30
