G75*
G70*
%OFA0B0*%
%FSLAX24Y24*%
%IPPOS*%
%LPD*%
%AMOC8*
5,1,8,0,0,1.08239X$1,22.5*
%
%ADD10C,0.0945*%
%ADD11C,0.0520*%
%ADD12C,0.0600*%
%ADD13OC8,0.0600*%
%ADD14R,0.1669X0.1500*%
%ADD15OC8,0.0520*%
%ADD16C,0.0160*%
%ADD17C,0.0396*%
%ADD18C,0.0080*%
D10*
X003912Y001957D03*
X005881Y001957D03*
X002727Y006918D03*
X002727Y008887D03*
X012195Y001958D03*
X014163Y001958D03*
D11*
X010782Y002079D02*
X010262Y002079D01*
X010262Y001079D02*
X010782Y001079D01*
X010782Y003079D02*
X010262Y003079D01*
X010262Y004079D02*
X010782Y004079D01*
X010782Y005079D02*
X010262Y005079D01*
X010262Y006079D02*
X010782Y006079D01*
X010782Y007079D02*
X010262Y007079D01*
X010262Y008079D02*
X010782Y008079D01*
X010983Y009412D02*
X010983Y009932D01*
X009983Y009932D02*
X009983Y009412D01*
X008983Y009412D02*
X008983Y009932D01*
X007983Y009932D02*
X007983Y009412D01*
X006983Y009412D02*
X006983Y009932D01*
X007262Y008079D02*
X007782Y008079D01*
X007782Y007079D02*
X007262Y007079D01*
X007262Y006079D02*
X007782Y006079D01*
X007782Y005079D02*
X007262Y005079D01*
X007262Y004079D02*
X007782Y004079D01*
X007782Y003079D02*
X007262Y003079D01*
X007262Y002079D02*
X007782Y002079D01*
X007782Y001079D02*
X007262Y001079D01*
X011983Y009412D02*
X011983Y009932D01*
X012983Y009932D02*
X012983Y009412D01*
X013983Y009412D02*
X013983Y009932D01*
X014983Y009932D02*
X014983Y009412D01*
X015983Y009412D02*
X015983Y009932D01*
X015983Y012412D02*
X015983Y012932D01*
X014983Y012932D02*
X014983Y012412D01*
X013983Y012412D02*
X013983Y012932D01*
X012983Y012932D02*
X012983Y012412D01*
X011983Y012412D02*
X011983Y012932D01*
X010983Y012932D02*
X010983Y012412D01*
X009983Y012412D02*
X009983Y012932D01*
X008983Y012932D02*
X008983Y012412D01*
X007983Y012412D02*
X007983Y012932D01*
X006983Y012932D02*
X006983Y012412D01*
D12*
X001823Y012952D03*
X001823Y015952D03*
D13*
X001823Y014952D03*
X002823Y014952D03*
X002823Y015952D03*
X003823Y015952D03*
X003823Y014952D03*
X003823Y012952D03*
X002823Y012952D03*
X002823Y011952D03*
X003823Y011952D03*
X001823Y011952D03*
D14*
X003361Y004692D03*
X005873Y004692D03*
X012233Y004692D03*
X014745Y004692D03*
D15*
X011923Y013982D03*
X011923Y014982D03*
X010423Y014982D03*
X010423Y013982D03*
X008923Y013982D03*
X008923Y014982D03*
X007423Y014982D03*
X007423Y013982D03*
D16*
X002793Y013982D01*
X001823Y014952D01*
X001503Y015432D02*
X009603Y015432D01*
X009903Y015132D01*
X009903Y014502D01*
X010423Y013982D01*
X011283Y014622D02*
X011923Y013982D01*
X011283Y014622D02*
X011283Y015162D01*
X010623Y015822D01*
X007173Y015822D01*
X006303Y016692D01*
X002253Y016692D01*
X001823Y016262D01*
X001823Y015952D01*
X001503Y015432D02*
X001203Y015132D01*
X001203Y012192D01*
X001443Y011952D01*
X001823Y011952D01*
X001823Y012952D02*
X002353Y013482D01*
X005613Y013482D01*
X006423Y012672D01*
X006983Y012672D01*
X006983Y011872D01*
X007203Y011652D01*
X009813Y011652D01*
X010443Y011022D01*
X010923Y010542D02*
X011133Y010752D01*
X011133Y011712D01*
X010983Y011862D01*
X010983Y012672D01*
X011983Y012672D01*
X010923Y010542D02*
X009603Y010542D01*
X009273Y010872D01*
X008703Y010872D01*
X008343Y011232D01*
X005223Y011232D01*
X004023Y012432D01*
X003453Y012432D01*
X002973Y011952D01*
X002823Y011952D01*
X003543Y010152D02*
X004863Y008832D01*
X006882Y008842D01*
X007022Y008702D01*
X007204Y008702D01*
X010953Y008702D01*
X010953Y007812D01*
X010713Y007572D01*
X010023Y007572D01*
X009333Y006882D01*
X008134Y006882D01*
X008182Y007000D01*
X008182Y007159D01*
X008121Y007306D01*
X008009Y007418D01*
X007862Y007479D01*
X007183Y007479D01*
X007036Y007418D01*
X006923Y007306D01*
X006862Y007159D01*
X006862Y007000D01*
X006911Y006882D01*
X006033Y006882D01*
X005013Y005862D01*
X000983Y005862D01*
X000983Y010152D01*
X003543Y010152D01*
X003584Y010112D02*
X000983Y010112D01*
X000983Y009953D02*
X003742Y009953D01*
X003901Y009795D02*
X000983Y009795D01*
X000983Y009636D02*
X004059Y009636D01*
X004218Y009478D02*
X000983Y009478D01*
X000983Y009319D02*
X004376Y009319D01*
X004535Y009161D02*
X000983Y009161D01*
X000983Y009002D02*
X004693Y009002D01*
X004852Y008844D02*
X000983Y008844D01*
X000983Y008685D02*
X010953Y008685D01*
X010953Y008526D02*
X000983Y008526D01*
X000983Y008368D02*
X006985Y008368D01*
X007036Y008418D02*
X006923Y008306D01*
X006862Y008159D01*
X006862Y008000D01*
X006923Y007853D01*
X007036Y007740D01*
X007183Y007679D01*
X007862Y007679D01*
X008009Y007740D01*
X008121Y007853D01*
X008182Y008000D01*
X008182Y008159D01*
X008121Y008306D01*
X008009Y008418D01*
X007862Y008479D01*
X007183Y008479D01*
X007036Y008418D01*
X006883Y008209D02*
X000983Y008209D01*
X000983Y008051D02*
X006862Y008051D01*
X006907Y007892D02*
X000983Y007892D01*
X000983Y007734D02*
X007051Y007734D01*
X007034Y007417D02*
X003095Y007417D01*
X003074Y007438D02*
X002849Y007531D01*
X002605Y007531D01*
X002380Y007438D01*
X002208Y007265D01*
X002115Y007040D01*
X002115Y006797D01*
X002208Y006571D01*
X002380Y006399D01*
X002605Y006306D01*
X002849Y006306D01*
X003074Y006399D01*
X003246Y006571D01*
X003340Y006797D01*
X003340Y007040D01*
X003246Y007265D01*
X003074Y007438D01*
X003249Y007258D02*
X006904Y007258D01*
X006862Y007100D02*
X003315Y007100D01*
X003340Y006941D02*
X006887Y006941D01*
X005934Y006782D02*
X003334Y006782D01*
X003268Y006624D02*
X005775Y006624D01*
X005616Y006465D02*
X003140Y006465D01*
X002851Y006307D02*
X005458Y006307D01*
X005299Y006148D02*
X000983Y006148D01*
X000983Y005990D02*
X005141Y005990D01*
X002603Y006307D02*
X000983Y006307D01*
X000983Y006465D02*
X002314Y006465D01*
X002186Y006624D02*
X000983Y006624D01*
X000983Y006782D02*
X002121Y006782D01*
X002115Y006941D02*
X000983Y006941D01*
X000983Y007100D02*
X002139Y007100D01*
X002205Y007258D02*
X000983Y007258D01*
X000983Y007417D02*
X002359Y007417D01*
X000983Y007575D02*
X010716Y007575D01*
X010875Y007734D02*
X007993Y007734D01*
X008138Y007892D02*
X010953Y007892D01*
X010953Y008051D02*
X008182Y008051D01*
X008161Y008209D02*
X010953Y008209D01*
X010953Y008368D02*
X008059Y008368D01*
X008011Y007417D02*
X009868Y007417D01*
X009709Y007258D02*
X008141Y007258D01*
X008182Y007100D02*
X009551Y007100D01*
X009392Y006941D02*
X008158Y006941D01*
X008613Y006462D02*
X008643Y006492D01*
X008613Y006462D02*
X008613Y005712D01*
X008493Y005592D01*
X008493Y002532D01*
X008040Y002079D01*
X007522Y002079D01*
X007522Y001079D02*
X008030Y001079D01*
X008763Y001812D01*
X008763Y005472D01*
X008883Y005592D01*
X008883Y005862D01*
X009003Y005982D01*
X009123Y005202D02*
X009123Y001542D01*
X009586Y001079D01*
X010522Y001079D01*
X010522Y002079D02*
X009906Y002079D01*
X009663Y002322D01*
X009663Y004842D01*
X010522Y007079D02*
X011120Y007079D01*
X011553Y007512D01*
X011553Y008472D01*
X011103Y008922D01*
X007113Y008922D01*
X006963Y009072D01*
X006963Y009652D01*
X006983Y009672D01*
X007983Y012672D02*
X007983Y013632D01*
X007633Y013982D01*
X007423Y013982D01*
D17*
X008703Y010872D03*
X010443Y011022D03*
X008643Y006492D03*
X009003Y005982D03*
X009123Y005202D03*
X009663Y004842D03*
D18*
X002523Y005452D02*
X002523Y000802D01*
X004823Y000802D01*
X004823Y002632D01*
X004163Y003292D01*
X004163Y005452D01*
X002523Y005452D01*
X002523Y005388D02*
X004163Y005388D01*
X004163Y005309D02*
X002523Y005309D01*
X002523Y005230D02*
X004163Y005230D01*
X004163Y005152D02*
X002523Y005152D01*
X002523Y005073D02*
X004163Y005073D01*
X004163Y004995D02*
X002523Y004995D01*
X002523Y004916D02*
X004163Y004916D01*
X004163Y004838D02*
X002523Y004838D01*
X002523Y004759D02*
X004163Y004759D01*
X004163Y004681D02*
X002523Y004681D01*
X002523Y004602D02*
X004163Y004602D01*
X004163Y004524D02*
X002523Y004524D01*
X002523Y004445D02*
X004163Y004445D01*
X004163Y004366D02*
X002523Y004366D01*
X002523Y004288D02*
X004163Y004288D01*
X004163Y004209D02*
X002523Y004209D01*
X002523Y004131D02*
X004163Y004131D01*
X004163Y004052D02*
X002523Y004052D01*
X002523Y003974D02*
X004163Y003974D01*
X004163Y003895D02*
X002523Y003895D01*
X002523Y003817D02*
X004163Y003817D01*
X004163Y003738D02*
X002523Y003738D01*
X002523Y003660D02*
X004163Y003660D01*
X004163Y003581D02*
X002523Y003581D01*
X002523Y003502D02*
X004163Y003502D01*
X004163Y003424D02*
X002523Y003424D01*
X002523Y003345D02*
X004163Y003345D01*
X004189Y003267D02*
X002523Y003267D01*
X002523Y003188D02*
X004267Y003188D01*
X004346Y003110D02*
X002523Y003110D01*
X002523Y003031D02*
X004424Y003031D01*
X004503Y002953D02*
X002523Y002953D01*
X002523Y002874D02*
X004581Y002874D01*
X004660Y002796D02*
X002523Y002796D01*
X002523Y002717D02*
X004738Y002717D01*
X004817Y002639D02*
X002523Y002639D01*
X002523Y002560D02*
X004823Y002560D01*
X004823Y002481D02*
X002523Y002481D01*
X002523Y002403D02*
X004823Y002403D01*
X004823Y002324D02*
X002523Y002324D01*
X002523Y002246D02*
X004823Y002246D01*
X004823Y002167D02*
X002523Y002167D01*
X002523Y002089D02*
X004823Y002089D01*
X004823Y002010D02*
X002523Y002010D01*
X002523Y001932D02*
X004823Y001932D01*
X004823Y001853D02*
X002523Y001853D01*
X002523Y001775D02*
X004823Y001775D01*
X004823Y001696D02*
X002523Y001696D01*
X002523Y001617D02*
X004823Y001617D01*
X004823Y001539D02*
X002523Y001539D01*
X002523Y001460D02*
X004823Y001460D01*
X004823Y001382D02*
X002523Y001382D01*
X002523Y001303D02*
X004823Y001303D01*
X004823Y001225D02*
X002523Y001225D01*
X002523Y001146D02*
X004823Y001146D01*
X004823Y001068D02*
X002523Y001068D01*
X002523Y000989D02*
X004823Y000989D01*
X004823Y000911D02*
X002523Y000911D01*
X002523Y000832D02*
X004823Y000832D01*
X005033Y000832D02*
X006833Y000832D01*
X006833Y000802D02*
X005033Y000802D01*
X005033Y002812D01*
X005713Y003492D01*
X008063Y003492D01*
X008233Y003322D01*
X008233Y002842D01*
X008093Y002702D01*
X006993Y002702D01*
X006833Y002542D01*
X006833Y000802D01*
X006833Y000911D02*
X005033Y000911D01*
X005033Y000989D02*
X006833Y000989D01*
X006833Y001068D02*
X005033Y001068D01*
X005033Y001146D02*
X006833Y001146D01*
X006833Y001225D02*
X005033Y001225D01*
X005033Y001303D02*
X006833Y001303D01*
X006833Y001382D02*
X005033Y001382D01*
X005033Y001460D02*
X006833Y001460D01*
X006833Y001539D02*
X005033Y001539D01*
X005033Y001617D02*
X006833Y001617D01*
X006833Y001696D02*
X005033Y001696D01*
X005033Y001775D02*
X006833Y001775D01*
X006833Y001853D02*
X005033Y001853D01*
X005033Y001932D02*
X006833Y001932D01*
X006833Y002010D02*
X005033Y002010D01*
X005033Y002089D02*
X006833Y002089D01*
X006833Y002167D02*
X005033Y002167D01*
X005033Y002246D02*
X006833Y002246D01*
X006833Y002324D02*
X005033Y002324D01*
X005033Y002403D02*
X006833Y002403D01*
X006833Y002481D02*
X005033Y002481D01*
X005033Y002560D02*
X006851Y002560D01*
X006930Y002639D02*
X005033Y002639D01*
X005033Y002717D02*
X008108Y002717D01*
X008187Y002796D02*
X005033Y002796D01*
X005095Y002874D02*
X008233Y002874D01*
X008233Y002953D02*
X005174Y002953D01*
X005252Y003031D02*
X008233Y003031D01*
X008233Y003110D02*
X005331Y003110D01*
X005409Y003188D02*
X008233Y003188D01*
X008233Y003267D02*
X005488Y003267D01*
X005566Y003345D02*
X008210Y003345D01*
X008132Y003424D02*
X005645Y003424D01*
X005043Y003962D02*
X005043Y005462D01*
X006113Y006532D01*
X008113Y006532D01*
X008363Y006282D01*
X008363Y005792D01*
X008183Y005612D01*
X006853Y005612D01*
X006693Y005452D01*
X006693Y003962D01*
X005043Y003962D01*
X005043Y003974D02*
X006693Y003974D01*
X006693Y004052D02*
X005043Y004052D01*
X005043Y004131D02*
X006693Y004131D01*
X006693Y004209D02*
X005043Y004209D01*
X005043Y004288D02*
X006693Y004288D01*
X006693Y004366D02*
X005043Y004366D01*
X005043Y004445D02*
X006693Y004445D01*
X006693Y004524D02*
X005043Y004524D01*
X005043Y004602D02*
X006693Y004602D01*
X006693Y004681D02*
X005043Y004681D01*
X005043Y004759D02*
X006693Y004759D01*
X006693Y004838D02*
X005043Y004838D01*
X005043Y004916D02*
X006693Y004916D01*
X006693Y004995D02*
X005043Y004995D01*
X005043Y005073D02*
X006693Y005073D01*
X006693Y005152D02*
X005043Y005152D01*
X005043Y005230D02*
X006693Y005230D01*
X006693Y005309D02*
X005043Y005309D01*
X005043Y005388D02*
X006693Y005388D01*
X006707Y005466D02*
X005047Y005466D01*
X005126Y005545D02*
X006786Y005545D01*
X005990Y006409D02*
X008237Y006409D01*
X008158Y006487D02*
X006068Y006487D01*
X005911Y006330D02*
X008315Y006330D01*
X008363Y006251D02*
X005833Y006251D01*
X005754Y006173D02*
X008363Y006173D01*
X008363Y006094D02*
X005676Y006094D01*
X005597Y006016D02*
X008363Y006016D01*
X008363Y005937D02*
X005518Y005937D01*
X005440Y005859D02*
X008363Y005859D01*
X008351Y005780D02*
X005361Y005780D01*
X005283Y005702D02*
X008273Y005702D01*
X008194Y005623D02*
X005204Y005623D01*
X009743Y005762D02*
X009743Y006252D01*
X009993Y006502D01*
X011993Y006502D01*
X013063Y005432D01*
X013063Y003932D01*
X011413Y003932D01*
X011413Y005422D01*
X011253Y005582D01*
X009923Y005582D01*
X009743Y005762D01*
X009743Y005780D02*
X012715Y005780D01*
X012637Y005859D02*
X009743Y005859D01*
X009743Y005937D02*
X012558Y005937D01*
X012480Y006016D02*
X009743Y006016D01*
X009743Y006094D02*
X012401Y006094D01*
X012323Y006173D02*
X009743Y006173D01*
X009743Y006251D02*
X012244Y006251D01*
X012165Y006330D02*
X009821Y006330D01*
X009900Y006409D02*
X012087Y006409D01*
X012008Y006487D02*
X009978Y006487D01*
X009804Y005702D02*
X012794Y005702D01*
X012872Y005623D02*
X009882Y005623D01*
X011291Y005545D02*
X012951Y005545D01*
X013029Y005466D02*
X011369Y005466D01*
X011413Y005388D02*
X013063Y005388D01*
X013063Y005309D02*
X011413Y005309D01*
X011413Y005230D02*
X013063Y005230D01*
X013063Y005152D02*
X011413Y005152D01*
X011413Y005073D02*
X013063Y005073D01*
X013063Y004995D02*
X011413Y004995D01*
X011413Y004916D02*
X013063Y004916D01*
X013063Y004838D02*
X011413Y004838D01*
X011413Y004759D02*
X013063Y004759D01*
X013063Y004681D02*
X011413Y004681D01*
X011413Y004602D02*
X013063Y004602D01*
X013063Y004524D02*
X011413Y004524D01*
X011413Y004445D02*
X013063Y004445D01*
X013063Y004366D02*
X011413Y004366D01*
X011413Y004288D02*
X013063Y004288D01*
X013063Y004209D02*
X011413Y004209D01*
X011413Y004131D02*
X013063Y004131D01*
X013063Y004052D02*
X011413Y004052D01*
X011413Y003974D02*
X013063Y003974D01*
X013093Y003502D02*
X013093Y000802D01*
X011593Y000802D01*
X011593Y002202D01*
X011163Y002632D01*
X010083Y002632D01*
X009883Y002832D01*
X009883Y003302D01*
X010083Y003502D01*
X013093Y003502D01*
X013093Y003424D02*
X010005Y003424D01*
X009926Y003345D02*
X013093Y003345D01*
X013093Y003267D02*
X009883Y003267D01*
X009883Y003188D02*
X013093Y003188D01*
X013093Y003110D02*
X009883Y003110D01*
X009883Y003031D02*
X013093Y003031D01*
X013093Y002953D02*
X009883Y002953D01*
X009883Y002874D02*
X013093Y002874D01*
X013093Y002796D02*
X009920Y002796D01*
X009998Y002717D02*
X013093Y002717D01*
X013093Y002639D02*
X010077Y002639D01*
X011236Y002560D02*
X013093Y002560D01*
X013093Y002481D02*
X011314Y002481D01*
X011393Y002403D02*
X013093Y002403D01*
X013093Y002324D02*
X011471Y002324D01*
X011550Y002246D02*
X013093Y002246D01*
X013093Y002167D02*
X011593Y002167D01*
X011593Y002089D02*
X013093Y002089D01*
X013093Y002010D02*
X011593Y002010D01*
X011593Y001932D02*
X013093Y001932D01*
X013093Y001853D02*
X011593Y001853D01*
X011593Y001775D02*
X013093Y001775D01*
X013093Y001696D02*
X011593Y001696D01*
X011593Y001617D02*
X013093Y001617D01*
X013093Y001539D02*
X011593Y001539D01*
X011593Y001460D02*
X013093Y001460D01*
X013093Y001382D02*
X011593Y001382D01*
X011593Y001303D02*
X013093Y001303D01*
X013093Y001225D02*
X011593Y001225D01*
X011593Y001146D02*
X013093Y001146D01*
X013093Y001068D02*
X011593Y001068D01*
X011593Y000989D02*
X013093Y000989D01*
X013093Y000911D02*
X011593Y000911D01*
X011593Y000832D02*
X013093Y000832D01*
X013293Y000832D02*
X015563Y000832D01*
X015563Y000802D02*
X013293Y000802D01*
X013293Y002652D01*
X013923Y003312D01*
X013923Y005472D01*
X015563Y005472D01*
X015563Y000802D01*
X015563Y000911D02*
X013293Y000911D01*
X013293Y000989D02*
X015563Y000989D01*
X015563Y001068D02*
X013293Y001068D01*
X013293Y001146D02*
X015563Y001146D01*
X015563Y001225D02*
X013293Y001225D01*
X013293Y001303D02*
X015563Y001303D01*
X015563Y001382D02*
X013293Y001382D01*
X013293Y001460D02*
X015563Y001460D01*
X015563Y001539D02*
X013293Y001539D01*
X013293Y001617D02*
X015563Y001617D01*
X015563Y001696D02*
X013293Y001696D01*
X013293Y001775D02*
X015563Y001775D01*
X015563Y001853D02*
X013293Y001853D01*
X013293Y001932D02*
X015563Y001932D01*
X015563Y002010D02*
X013293Y002010D01*
X013293Y002089D02*
X015563Y002089D01*
X015563Y002167D02*
X013293Y002167D01*
X013293Y002246D02*
X015563Y002246D01*
X015563Y002324D02*
X013293Y002324D01*
X013293Y002403D02*
X015563Y002403D01*
X015563Y002481D02*
X013293Y002481D01*
X013293Y002560D02*
X015563Y002560D01*
X015563Y002639D02*
X013293Y002639D01*
X013355Y002717D02*
X015563Y002717D01*
X015563Y002796D02*
X013430Y002796D01*
X013505Y002874D02*
X015563Y002874D01*
X015563Y002953D02*
X013580Y002953D01*
X013655Y003031D02*
X015563Y003031D01*
X015563Y003110D02*
X013730Y003110D01*
X013805Y003188D02*
X015563Y003188D01*
X015563Y003267D02*
X013880Y003267D01*
X013923Y003345D02*
X015563Y003345D01*
X015563Y003424D02*
X013923Y003424D01*
X013923Y003502D02*
X015563Y003502D01*
X015563Y003581D02*
X013923Y003581D01*
X013923Y003660D02*
X015563Y003660D01*
X015563Y003738D02*
X013923Y003738D01*
X013923Y003817D02*
X015563Y003817D01*
X015563Y003895D02*
X013923Y003895D01*
X013923Y003974D02*
X015563Y003974D01*
X015563Y004052D02*
X013923Y004052D01*
X013923Y004131D02*
X015563Y004131D01*
X015563Y004209D02*
X013923Y004209D01*
X013923Y004288D02*
X015563Y004288D01*
X015563Y004366D02*
X013923Y004366D01*
X013923Y004445D02*
X015563Y004445D01*
X015563Y004524D02*
X013923Y004524D01*
X013923Y004602D02*
X015563Y004602D01*
X015563Y004681D02*
X013923Y004681D01*
X013923Y004759D02*
X015563Y004759D01*
X015563Y004838D02*
X013923Y004838D01*
X013923Y004916D02*
X015563Y004916D01*
X015563Y004995D02*
X013923Y004995D01*
X013923Y005073D02*
X015563Y005073D01*
X015563Y005152D02*
X013923Y005152D01*
X013923Y005230D02*
X015563Y005230D01*
X015563Y005309D02*
X013923Y005309D01*
X013923Y005388D02*
X015563Y005388D01*
X015563Y005466D02*
X013923Y005466D01*
M02*
