G75*
G70*
%OFA0B0*%
%FSLAX24Y24*%
%IPPOS*%
%LPD*%
%AMOC8*
5,1,8,0,0,1.08239X$1,22.5*
%
%ADD10C,0.1025*%
%ADD11C,0.0600*%
%ADD12C,0.0680*%
%ADD13OC8,0.0680*%
%ADD14R,0.1749X0.1580*%
%ADD15OC8,0.0600*%
D10*
X003912Y001957D03*
X005881Y001957D03*
X002727Y006918D03*
X002727Y008887D03*
X012195Y001958D03*
X014163Y001958D03*
D11*
X010782Y002079D02*
X010262Y002079D01*
X010262Y001079D02*
X010782Y001079D01*
X010782Y003079D02*
X010262Y003079D01*
X010262Y004079D02*
X010782Y004079D01*
X010782Y005079D02*
X010262Y005079D01*
X010262Y006079D02*
X010782Y006079D01*
X010782Y007079D02*
X010262Y007079D01*
X010262Y008079D02*
X010782Y008079D01*
X010983Y009412D02*
X010983Y009932D01*
X009983Y009932D02*
X009983Y009412D01*
X008983Y009412D02*
X008983Y009932D01*
X007983Y009932D02*
X007983Y009412D01*
X006983Y009412D02*
X006983Y009932D01*
X007262Y008079D02*
X007782Y008079D01*
X007782Y007079D02*
X007262Y007079D01*
X007262Y006079D02*
X007782Y006079D01*
X007782Y005079D02*
X007262Y005079D01*
X007262Y004079D02*
X007782Y004079D01*
X007782Y003079D02*
X007262Y003079D01*
X007262Y002079D02*
X007782Y002079D01*
X007782Y001079D02*
X007262Y001079D01*
X011983Y009412D02*
X011983Y009932D01*
X012983Y009932D02*
X012983Y009412D01*
X013983Y009412D02*
X013983Y009932D01*
X014983Y009932D02*
X014983Y009412D01*
X015983Y009412D02*
X015983Y009932D01*
X015983Y012412D02*
X015983Y012932D01*
X014983Y012932D02*
X014983Y012412D01*
X013983Y012412D02*
X013983Y012932D01*
X012983Y012932D02*
X012983Y012412D01*
X011983Y012412D02*
X011983Y012932D01*
X010983Y012932D02*
X010983Y012412D01*
X009983Y012412D02*
X009983Y012932D01*
X008983Y012932D02*
X008983Y012412D01*
X007983Y012412D02*
X007983Y012932D01*
X006983Y012932D02*
X006983Y012412D01*
D12*
X001823Y012952D03*
X001823Y015952D03*
D13*
X001823Y014952D03*
X002823Y014952D03*
X002823Y015952D03*
X003823Y015952D03*
X003823Y014952D03*
X003823Y012952D03*
X002823Y012952D03*
X002823Y011952D03*
X003823Y011952D03*
X001823Y011952D03*
D14*
X003361Y004692D03*
X005873Y004692D03*
X012233Y004692D03*
X014745Y004692D03*
D15*
X011923Y013982D03*
X011923Y014982D03*
X010423Y014982D03*
X010423Y013982D03*
X008923Y013982D03*
X008923Y014982D03*
X007423Y014982D03*
X007423Y013982D03*
M02*
