G75*
G70*
%OFA0B0*%
%FSLAX24Y24*%
%IPPOS*%
%LPD*%
%AMOC8*
5,1,8,0,0,1.08239X$1,22.5*
%
%ADD10C,0.0000*%
%ADD11C,0.0160*%
D10*
X000915Y001394D02*
X000917Y001437D01*
X000923Y001480D01*
X000933Y001522D01*
X000946Y001563D01*
X000963Y001603D01*
X000984Y001641D01*
X001008Y001677D01*
X001036Y001710D01*
X001066Y001741D01*
X001099Y001769D01*
X001134Y001794D01*
X001171Y001816D01*
X001211Y001834D01*
X001251Y001848D01*
X001293Y001859D01*
X001336Y001866D01*
X001379Y001869D01*
X001422Y001868D01*
X001465Y001863D01*
X001508Y001854D01*
X001549Y001842D01*
X001589Y001825D01*
X001627Y001805D01*
X001664Y001782D01*
X001698Y001756D01*
X001730Y001726D01*
X001758Y001694D01*
X001784Y001659D01*
X001807Y001622D01*
X001826Y001583D01*
X001841Y001543D01*
X001853Y001501D01*
X001861Y001459D01*
X001865Y001416D01*
X001865Y001372D01*
X001861Y001329D01*
X001853Y001287D01*
X001841Y001245D01*
X001826Y001205D01*
X001807Y001166D01*
X001784Y001129D01*
X001758Y001094D01*
X001730Y001062D01*
X001698Y001032D01*
X001664Y001006D01*
X001628Y000983D01*
X001589Y000963D01*
X001549Y000946D01*
X001508Y000934D01*
X001465Y000925D01*
X001422Y000920D01*
X001379Y000919D01*
X001336Y000922D01*
X001293Y000929D01*
X001251Y000940D01*
X001211Y000954D01*
X001171Y000972D01*
X001134Y000994D01*
X001099Y001019D01*
X001066Y001047D01*
X001036Y001078D01*
X001008Y001111D01*
X000984Y001147D01*
X000963Y001185D01*
X000946Y001225D01*
X000933Y001266D01*
X000923Y001308D01*
X000917Y001351D01*
X000915Y001394D01*
X000905Y011481D02*
X000907Y011524D01*
X000913Y011567D01*
X000923Y011609D01*
X000936Y011650D01*
X000953Y011690D01*
X000974Y011728D01*
X000998Y011764D01*
X001026Y011797D01*
X001056Y011828D01*
X001089Y011856D01*
X001124Y011881D01*
X001161Y011903D01*
X001201Y011921D01*
X001241Y011935D01*
X001283Y011946D01*
X001326Y011953D01*
X001369Y011956D01*
X001412Y011955D01*
X001455Y011950D01*
X001498Y011941D01*
X001539Y011929D01*
X001579Y011912D01*
X001617Y011892D01*
X001654Y011869D01*
X001688Y011843D01*
X001720Y011813D01*
X001748Y011781D01*
X001774Y011746D01*
X001797Y011709D01*
X001816Y011670D01*
X001831Y011630D01*
X001843Y011588D01*
X001851Y011546D01*
X001855Y011503D01*
X001855Y011459D01*
X001851Y011416D01*
X001843Y011374D01*
X001831Y011332D01*
X001816Y011292D01*
X001797Y011253D01*
X001774Y011216D01*
X001748Y011181D01*
X001720Y011149D01*
X001688Y011119D01*
X001654Y011093D01*
X001618Y011070D01*
X001579Y011050D01*
X001539Y011033D01*
X001498Y011021D01*
X001455Y011012D01*
X001412Y011007D01*
X001369Y011006D01*
X001326Y011009D01*
X001283Y011016D01*
X001241Y011027D01*
X001201Y011041D01*
X001161Y011059D01*
X001124Y011081D01*
X001089Y011106D01*
X001056Y011134D01*
X001026Y011165D01*
X000998Y011198D01*
X000974Y011234D01*
X000953Y011272D01*
X000936Y011312D01*
X000923Y011353D01*
X000913Y011395D01*
X000907Y011438D01*
X000905Y011481D01*
X011002Y011471D02*
X011004Y011514D01*
X011010Y011557D01*
X011020Y011599D01*
X011033Y011640D01*
X011050Y011680D01*
X011071Y011718D01*
X011095Y011754D01*
X011123Y011787D01*
X011153Y011818D01*
X011186Y011846D01*
X011221Y011871D01*
X011258Y011893D01*
X011298Y011911D01*
X011338Y011925D01*
X011380Y011936D01*
X011423Y011943D01*
X011466Y011946D01*
X011509Y011945D01*
X011552Y011940D01*
X011595Y011931D01*
X011636Y011919D01*
X011676Y011902D01*
X011714Y011882D01*
X011751Y011859D01*
X011785Y011833D01*
X011817Y011803D01*
X011845Y011771D01*
X011871Y011736D01*
X011894Y011699D01*
X011913Y011660D01*
X011928Y011620D01*
X011940Y011578D01*
X011948Y011536D01*
X011952Y011493D01*
X011952Y011449D01*
X011948Y011406D01*
X011940Y011364D01*
X011928Y011322D01*
X011913Y011282D01*
X011894Y011243D01*
X011871Y011206D01*
X011845Y011171D01*
X011817Y011139D01*
X011785Y011109D01*
X011751Y011083D01*
X011715Y011060D01*
X011676Y011040D01*
X011636Y011023D01*
X011595Y011011D01*
X011552Y011002D01*
X011509Y010997D01*
X011466Y010996D01*
X011423Y010999D01*
X011380Y011006D01*
X011338Y011017D01*
X011298Y011031D01*
X011258Y011049D01*
X011221Y011071D01*
X011186Y011096D01*
X011153Y011124D01*
X011123Y011155D01*
X011095Y011188D01*
X011071Y011224D01*
X011050Y011262D01*
X011033Y011302D01*
X011020Y011343D01*
X011010Y011385D01*
X011004Y011428D01*
X011002Y011471D01*
X010986Y001395D02*
X010988Y001438D01*
X010994Y001481D01*
X011004Y001523D01*
X011017Y001564D01*
X011034Y001604D01*
X011055Y001642D01*
X011079Y001678D01*
X011107Y001711D01*
X011137Y001742D01*
X011170Y001770D01*
X011205Y001795D01*
X011242Y001817D01*
X011282Y001835D01*
X011322Y001849D01*
X011364Y001860D01*
X011407Y001867D01*
X011450Y001870D01*
X011493Y001869D01*
X011536Y001864D01*
X011579Y001855D01*
X011620Y001843D01*
X011660Y001826D01*
X011698Y001806D01*
X011735Y001783D01*
X011769Y001757D01*
X011801Y001727D01*
X011829Y001695D01*
X011855Y001660D01*
X011878Y001623D01*
X011897Y001584D01*
X011912Y001544D01*
X011924Y001502D01*
X011932Y001460D01*
X011936Y001417D01*
X011936Y001373D01*
X011932Y001330D01*
X011924Y001288D01*
X011912Y001246D01*
X011897Y001206D01*
X011878Y001167D01*
X011855Y001130D01*
X011829Y001095D01*
X011801Y001063D01*
X011769Y001033D01*
X011735Y001007D01*
X011699Y000984D01*
X011660Y000964D01*
X011620Y000947D01*
X011579Y000935D01*
X011536Y000926D01*
X011493Y000921D01*
X011450Y000920D01*
X011407Y000923D01*
X011364Y000930D01*
X011322Y000941D01*
X011282Y000955D01*
X011242Y000973D01*
X011205Y000995D01*
X011170Y001020D01*
X011137Y001048D01*
X011107Y001079D01*
X011079Y001112D01*
X011055Y001148D01*
X011034Y001186D01*
X011017Y001226D01*
X011004Y001267D01*
X010994Y001309D01*
X010988Y001352D01*
X010986Y001395D01*
D11*
X000181Y000181D02*
X000181Y012681D01*
X012681Y012681D01*
X012681Y000181D01*
X000181Y000181D01*
M02*
