G75*
G70*
%OFA0B0*%
%FSLAX24Y24*%
%IPPOS*%
%LPD*%
%AMOC8*
5,1,8,0,0,1.08239X$1,22.5*
%
%ADD10C,0.0840*%
%ADD11C,0.0730*%
%ADD12C,0.0680*%
%ADD13C,0.1380*%
%ADD14C,0.0640*%
%ADD15C,0.0875*%
%ADD16C,0.0640*%
%ADD17C,0.0830*%
%ADD18C,0.0390*%
D10*
X017970Y005075D03*
X018970Y005075D03*
X011970Y016155D03*
X010970Y016155D03*
X008970Y016155D03*
X007970Y016155D03*
D11*
X009970Y005075D03*
X010970Y005075D03*
X011970Y005075D03*
X012970Y005075D03*
X013970Y005075D03*
X014970Y005075D03*
X015970Y005075D03*
D12*
X016450Y006585D02*
X016450Y007185D01*
X017450Y007185D02*
X017450Y006585D01*
X018450Y006585D02*
X018450Y007185D01*
D13*
X017450Y012785D03*
D14*
X013180Y011885D02*
X013180Y011325D01*
X012180Y011325D02*
X012180Y011885D01*
D15*
X014070Y014855D03*
X016210Y014855D03*
X017170Y014855D03*
X019310Y014855D03*
X019310Y017615D03*
X017170Y017615D03*
X016210Y017615D03*
X014070Y017615D03*
D16*
X015140Y017325D03*
X015140Y016535D03*
X015140Y015745D03*
X015140Y014955D03*
X018240Y014955D03*
X018240Y015745D03*
X018240Y016535D03*
X018240Y017325D03*
D17*
X005920Y017035D03*
X005920Y015165D03*
X005920Y013295D03*
D18*
X006130Y005565D03*
X003850Y006975D03*
X010810Y007815D03*
X010810Y008235D03*
X012640Y007935D03*
X012910Y008235D03*
X013030Y009585D03*
X012580Y009645D03*
X014230Y010875D03*
X010720Y010455D03*
X011560Y006015D03*
M02*
