G75*
G70*
%OFA0B0*%
%FSLAX24Y24*%
%IPPOS*%
%LPD*%
%AMOC8*
5,1,8,0,0,1.08239X$1,22.5*
%
%ADD10C,0.0840*%
%ADD11C,0.0730*%
%ADD12C,0.0680*%
%ADD13C,0.1380*%
%ADD14R,0.0552X0.0552*%
%ADD15R,0.0513X0.0474*%
%ADD16R,0.0474X0.0513*%
%ADD17R,0.0434X0.0474*%
%ADD18R,0.0474X0.0434*%
%ADD19C,0.0640*%
%ADD20R,0.0474X0.0198*%
%ADD21C,0.0875*%
%ADD22C,0.0640*%
%ADD23R,0.0356X0.0316*%
%ADD24R,0.0789X0.0690*%
%ADD25R,0.1749X0.1580*%
%ADD26R,0.0907X0.0671*%
%ADD27C,0.0830*%
%ADD28C,0.0390*%
D10*
X017970Y005075D03*
X018970Y005075D03*
X011970Y016155D03*
X010970Y016155D03*
X008970Y016155D03*
X007970Y016155D03*
D11*
X009970Y005075D03*
X010970Y005075D03*
X011970Y005075D03*
X012970Y005075D03*
X013970Y005075D03*
X014970Y005075D03*
X015970Y005075D03*
D12*
X016450Y006585D02*
X016450Y007185D01*
X017450Y007185D02*
X017450Y006585D01*
X018450Y006585D02*
X018450Y007185D01*
D13*
X017450Y012785D03*
D14*
X014820Y013072D03*
X014820Y013898D03*
X014960Y010688D03*
X014960Y009862D03*
X008163Y011925D03*
X007337Y011925D03*
D15*
X014960Y009330D03*
X014960Y008660D03*
D16*
X003635Y004935D03*
X004305Y004935D03*
X004955Y004935D03*
X005625Y004935D03*
X005625Y005745D03*
X004955Y005745D03*
X004305Y005745D03*
X003635Y005745D03*
X007945Y005585D03*
X008615Y005585D03*
X010625Y011735D03*
X011295Y011735D03*
X009525Y011925D03*
X008855Y011925D03*
X012715Y015395D03*
X013385Y015395D03*
D17*
X011378Y010800D03*
X011378Y010209D03*
X011378Y009619D03*
X011378Y009028D03*
X011378Y008438D03*
X011378Y007847D03*
X011378Y007256D03*
X011378Y006666D03*
D18*
X010851Y006343D03*
X010260Y006343D03*
X009669Y006343D03*
X009079Y006343D03*
X008488Y006343D03*
X007898Y006343D03*
X007307Y006343D03*
X006717Y006343D03*
X006126Y006343D03*
X005536Y006343D03*
X004945Y006343D03*
X004354Y006343D03*
X003764Y006343D03*
X003764Y011107D03*
X004354Y011107D03*
X004945Y011107D03*
X005536Y011107D03*
X006126Y011107D03*
X006717Y011107D03*
X007307Y011107D03*
X007898Y011107D03*
X008488Y011107D03*
X009079Y011107D03*
X009669Y011107D03*
X010260Y011107D03*
X010851Y011107D03*
D19*
X012180Y011325D02*
X012180Y011885D01*
X013180Y011885D02*
X013180Y011325D01*
D20*
X013922Y008485D03*
X013922Y008229D03*
X013922Y007973D03*
X013922Y007717D03*
X013922Y007461D03*
X013922Y007205D03*
X013922Y006950D03*
X013922Y006694D03*
X013922Y006438D03*
X013922Y006182D03*
X012170Y006182D03*
X012170Y006438D03*
X012170Y006694D03*
X012170Y006950D03*
X012170Y007205D03*
X012170Y007461D03*
X012170Y007717D03*
X012170Y007973D03*
X012170Y008229D03*
X012170Y008485D03*
D21*
X014070Y014855D03*
X016210Y014855D03*
X017170Y014855D03*
X019310Y014855D03*
X019310Y017615D03*
X017170Y017615D03*
X016210Y017615D03*
X014070Y017615D03*
D22*
X015140Y017325D03*
X015140Y016535D03*
X015140Y015745D03*
X015140Y014955D03*
X018240Y014955D03*
X018240Y015745D03*
X018240Y016535D03*
X018240Y017325D03*
D23*
X012676Y010019D03*
X012676Y009271D03*
X013464Y009645D03*
D24*
X014050Y009182D03*
X014050Y010108D03*
X012070Y010108D03*
X012070Y009182D03*
D25*
X010622Y013395D03*
X008110Y013395D03*
D26*
X014920Y007534D03*
X014920Y006116D03*
D27*
X005920Y013295D03*
X005920Y015165D03*
X005920Y017035D03*
D28*
X010720Y010455D03*
X012580Y009645D03*
X013030Y009585D03*
X012910Y008235D03*
X012640Y007935D03*
X010810Y007815D03*
X010810Y008235D03*
X011560Y006015D03*
X006130Y005565D03*
X003850Y006975D03*
X014230Y010875D03*
M02*
