G75*
G70*
%OFA0B0*%
%FSLAX24Y24*%
%IPPOS*%
%LPD*%
%AMOC8*
5,1,8,0,0,1.08239X$1,22.5*
%
%ADD10C,0.0673*%
%ADD11C,0.1400*%
%ADD12C,0.0640*%
%ADD13C,0.0640*%
%ADD14C,0.0160*%
D10*
X003050Y002650D03*
X004050Y002650D03*
X005050Y002650D03*
X007050Y001400D03*
X008050Y001400D03*
X009050Y001400D03*
X010050Y001400D03*
X011050Y001400D03*
X012050Y001400D03*
X013050Y001400D03*
X014050Y001400D03*
X016050Y002650D03*
X017050Y002650D03*
X018050Y002650D03*
X018050Y005650D03*
X018050Y006650D03*
X018050Y007650D03*
X018050Y008650D03*
X018050Y009650D03*
X018050Y010650D03*
X018050Y011650D03*
X018050Y012650D03*
X018050Y013650D03*
X018050Y014650D03*
X018050Y015650D03*
X018050Y016650D03*
X017050Y016650D03*
X016050Y016650D03*
X016050Y015650D03*
X016050Y014650D03*
X016050Y013650D03*
X016050Y012650D03*
X016050Y011650D03*
X016050Y010650D03*
X016050Y009650D03*
X016050Y008650D03*
X016050Y007650D03*
X016050Y006650D03*
X016050Y005650D03*
X017050Y005650D03*
X017050Y006650D03*
X017050Y007650D03*
X017050Y008650D03*
X017050Y009650D03*
X017050Y010650D03*
X017050Y011650D03*
X017050Y012650D03*
X017050Y013650D03*
X017050Y014650D03*
X017050Y015650D03*
X005050Y015650D03*
X004050Y015650D03*
X004050Y016650D03*
X005050Y016650D03*
X005050Y014650D03*
X004050Y014650D03*
X004050Y013650D03*
X004050Y012650D03*
X004050Y011650D03*
X004050Y010650D03*
X004050Y009650D03*
X004050Y008650D03*
X004050Y007650D03*
X004050Y006650D03*
X004050Y005650D03*
X005050Y005650D03*
X005050Y006650D03*
X005050Y007650D03*
X005050Y008650D03*
X005050Y009650D03*
X005050Y010650D03*
X005050Y011650D03*
X005050Y012650D03*
X005050Y013650D03*
X003050Y013650D03*
X003050Y014650D03*
X003050Y015650D03*
X003050Y016650D03*
X003050Y012650D03*
X003050Y011650D03*
X003050Y010650D03*
X003050Y009650D03*
X003050Y008650D03*
X003050Y007650D03*
X003050Y006650D03*
X003050Y005650D03*
D11*
X001300Y001400D03*
X001300Y018900D03*
X019800Y018900D03*
X019800Y001400D03*
D12*
X013000Y012070D03*
X012860Y014490D03*
X012820Y015530D03*
X009980Y011650D03*
D13*
X009500Y016830D02*
X009500Y017470D01*
X010500Y017470D02*
X010500Y016830D01*
X011500Y016830D02*
X011500Y017470D01*
X012500Y017470D02*
X012500Y016830D01*
X013500Y016830D02*
X013500Y017470D01*
X008500Y017470D02*
X008500Y016830D01*
X009060Y005390D02*
X009060Y004750D01*
X010060Y004750D02*
X010060Y005390D01*
X011060Y005390D02*
X011060Y004750D01*
X012060Y004750D02*
X012060Y005390D01*
X013060Y005390D02*
X013060Y004750D01*
X014060Y004750D02*
X014060Y005390D01*
D14*
X000650Y000650D02*
X000650Y025730D01*
X020430Y025730D01*
X020430Y000650D01*
X000650Y000650D01*
X000650Y000783D02*
X020430Y000783D01*
X020430Y000941D02*
X014188Y000941D01*
X014145Y000923D02*
X014320Y000996D01*
X014454Y001130D01*
X014527Y001305D01*
X014527Y001495D01*
X014454Y001670D01*
X014320Y001804D01*
X014145Y001876D01*
X013956Y001876D01*
X013780Y001804D01*
X013646Y001670D01*
X013574Y001495D01*
X013574Y001305D01*
X013646Y001130D01*
X013780Y000996D01*
X013956Y000923D01*
X014145Y000923D01*
X013913Y000941D02*
X013188Y000941D01*
X013145Y000923D02*
X013320Y000996D01*
X013454Y001130D01*
X013527Y001305D01*
X013527Y001495D01*
X013454Y001670D01*
X013320Y001804D01*
X013145Y001876D01*
X012956Y001876D01*
X012780Y001804D01*
X012646Y001670D01*
X012574Y001495D01*
X012574Y001305D01*
X012646Y001130D01*
X012780Y000996D01*
X012956Y000923D01*
X013145Y000923D01*
X012913Y000941D02*
X011188Y000941D01*
X011145Y000923D02*
X011320Y000996D01*
X011454Y001130D01*
X011527Y001305D01*
X011527Y001495D01*
X011454Y001670D01*
X011320Y001804D01*
X011145Y001876D01*
X010956Y001876D01*
X010780Y001804D01*
X010646Y001670D01*
X010574Y001495D01*
X010574Y001305D01*
X010646Y001130D01*
X010780Y000996D01*
X010956Y000923D01*
X011145Y000923D01*
X010913Y000941D02*
X010188Y000941D01*
X010145Y000923D02*
X010320Y000996D01*
X010454Y001130D01*
X010527Y001305D01*
X010527Y001495D01*
X010454Y001670D01*
X010320Y001804D01*
X010145Y001876D01*
X009956Y001876D01*
X009780Y001804D01*
X009646Y001670D01*
X009574Y001495D01*
X009574Y001305D01*
X009646Y001130D01*
X009780Y000996D01*
X009956Y000923D01*
X010145Y000923D01*
X009913Y000941D02*
X009188Y000941D01*
X009145Y000923D02*
X009320Y000996D01*
X009454Y001130D01*
X009527Y001305D01*
X009527Y001495D01*
X009454Y001670D01*
X009320Y001804D01*
X009145Y001876D01*
X008956Y001876D01*
X008780Y001804D01*
X008646Y001670D01*
X008574Y001495D01*
X008574Y001305D01*
X008646Y001130D01*
X008780Y000996D01*
X008956Y000923D01*
X009145Y000923D01*
X008913Y000941D02*
X000650Y000941D01*
X000650Y001100D02*
X008677Y001100D01*
X008593Y001258D02*
X000650Y001258D01*
X000650Y001417D02*
X008574Y001417D01*
X008607Y001575D02*
X000650Y001575D01*
X000650Y001734D02*
X008710Y001734D01*
X009390Y001734D02*
X009710Y001734D01*
X009607Y001575D02*
X009493Y001575D01*
X009527Y001417D02*
X009574Y001417D01*
X009593Y001258D02*
X009507Y001258D01*
X009424Y001100D02*
X009677Y001100D01*
X010424Y001100D02*
X010677Y001100D01*
X010593Y001258D02*
X010507Y001258D01*
X010527Y001417D02*
X010574Y001417D01*
X010607Y001575D02*
X010493Y001575D01*
X010390Y001734D02*
X010710Y001734D01*
X011390Y001734D02*
X012710Y001734D01*
X012607Y001575D02*
X011493Y001575D01*
X011527Y001417D02*
X012574Y001417D01*
X012593Y001258D02*
X011507Y001258D01*
X011424Y001100D02*
X012677Y001100D01*
X013424Y001100D02*
X013677Y001100D01*
X013593Y001258D02*
X013507Y001258D01*
X013527Y001417D02*
X013574Y001417D01*
X013607Y001575D02*
X013493Y001575D01*
X013390Y001734D02*
X013710Y001734D01*
X014390Y001734D02*
X020430Y001734D01*
X020430Y001892D02*
X000650Y001892D01*
X000650Y002051D02*
X020430Y002051D01*
X020430Y002210D02*
X005232Y002210D01*
X005145Y002173D02*
X005320Y002246D01*
X005454Y002380D01*
X005527Y002555D01*
X005527Y002745D01*
X005454Y002920D01*
X005320Y003054D01*
X005145Y003126D01*
X004956Y003126D01*
X004780Y003054D01*
X004646Y002920D01*
X004574Y002745D01*
X004574Y002555D01*
X004646Y002380D01*
X004780Y002246D01*
X004956Y002173D01*
X005145Y002173D01*
X004868Y002210D02*
X004232Y002210D01*
X004145Y002173D02*
X004320Y002246D01*
X004454Y002380D01*
X004527Y002555D01*
X004527Y002745D01*
X004454Y002920D01*
X004320Y003054D01*
X004145Y003126D01*
X003956Y003126D01*
X003780Y003054D01*
X003646Y002920D01*
X003574Y002745D01*
X003574Y002555D01*
X003646Y002380D01*
X003780Y002246D01*
X003956Y002173D01*
X004145Y002173D01*
X003868Y002210D02*
X003232Y002210D01*
X003145Y002173D02*
X003320Y002246D01*
X003454Y002380D01*
X003527Y002555D01*
X003527Y002745D01*
X003454Y002920D01*
X003320Y003054D01*
X003145Y003126D01*
X002956Y003126D01*
X002780Y003054D01*
X002646Y002920D01*
X002574Y002745D01*
X002574Y002555D01*
X002646Y002380D01*
X002780Y002246D01*
X002956Y002173D01*
X003145Y002173D01*
X002868Y002210D02*
X000650Y002210D01*
X000650Y002368D02*
X002658Y002368D01*
X002586Y002527D02*
X000650Y002527D01*
X000650Y002685D02*
X002574Y002685D01*
X002615Y002844D02*
X000650Y002844D01*
X000650Y003002D02*
X002729Y003002D01*
X003372Y003002D02*
X003729Y003002D01*
X003615Y002844D02*
X003486Y002844D01*
X003527Y002685D02*
X003574Y002685D01*
X003586Y002527D02*
X003515Y002527D01*
X003442Y002368D02*
X003658Y002368D01*
X004372Y003002D02*
X004729Y003002D01*
X004615Y002844D02*
X004486Y002844D01*
X004527Y002685D02*
X004574Y002685D01*
X004586Y002527D02*
X004515Y002527D01*
X004442Y002368D02*
X004658Y002368D01*
X005442Y002368D02*
X020430Y002368D01*
X020430Y002527D02*
X005515Y002527D01*
X005527Y002685D02*
X020430Y002685D01*
X020430Y002844D02*
X005486Y002844D01*
X005372Y003002D02*
X020430Y003002D01*
X020430Y003161D02*
X000650Y003161D01*
X000650Y003319D02*
X020430Y003319D01*
X020430Y003478D02*
X000650Y003478D01*
X000650Y003636D02*
X020430Y003636D01*
X020430Y003795D02*
X000650Y003795D01*
X000650Y003954D02*
X020430Y003954D01*
X020430Y004112D02*
X000650Y004112D01*
X000650Y004271D02*
X020430Y004271D01*
X020430Y004429D02*
X014390Y004429D01*
X014450Y004489D02*
X014520Y004658D01*
X014520Y005481D01*
X014450Y005650D01*
X014321Y005780D01*
X014152Y005850D01*
X013969Y005850D01*
X013800Y005780D01*
X013670Y005650D01*
X013600Y005481D01*
X013600Y004658D01*
X013670Y004489D01*
X013800Y004360D01*
X013969Y004290D01*
X014152Y004290D01*
X014321Y004360D01*
X014450Y004489D01*
X014491Y004588D02*
X020430Y004588D01*
X020430Y004746D02*
X014520Y004746D01*
X014520Y004905D02*
X020430Y004905D01*
X020430Y005063D02*
X014520Y005063D01*
X014520Y005222D02*
X015839Y005222D01*
X015780Y005246D02*
X015956Y005173D01*
X016145Y005173D01*
X016320Y005246D01*
X016454Y005380D01*
X016527Y005555D01*
X016527Y005745D01*
X016454Y005920D01*
X016320Y006054D01*
X016145Y006126D01*
X015956Y006126D01*
X015780Y006054D01*
X015646Y005920D01*
X015574Y005745D01*
X015574Y005555D01*
X015646Y005380D01*
X015780Y005246D01*
X015646Y005380D02*
X014520Y005380D01*
X014496Y005539D02*
X015580Y005539D01*
X015574Y005697D02*
X014403Y005697D01*
X013717Y005697D02*
X013403Y005697D01*
X013450Y005650D02*
X013321Y005780D01*
X013152Y005850D01*
X012969Y005850D01*
X012800Y005780D01*
X012670Y005650D01*
X012600Y005481D01*
X012600Y004658D01*
X012670Y004489D01*
X012800Y004360D01*
X012969Y004290D01*
X013152Y004290D01*
X013321Y004360D01*
X013450Y004489D01*
X013520Y004658D01*
X013520Y005481D01*
X013450Y005650D01*
X013496Y005539D02*
X013624Y005539D01*
X013600Y005380D02*
X013520Y005380D01*
X013520Y005222D02*
X013600Y005222D01*
X013600Y005063D02*
X013520Y005063D01*
X013520Y004905D02*
X013600Y004905D01*
X013600Y004746D02*
X013520Y004746D01*
X013491Y004588D02*
X013630Y004588D01*
X013731Y004429D02*
X013390Y004429D01*
X012731Y004429D02*
X011390Y004429D01*
X011450Y004489D02*
X011520Y004658D01*
X011520Y005481D01*
X011450Y005650D01*
X011321Y005780D01*
X011152Y005850D01*
X010969Y005850D01*
X010800Y005780D01*
X010670Y005650D01*
X010600Y005481D01*
X010600Y004658D01*
X010670Y004489D01*
X010800Y004360D01*
X010969Y004290D01*
X011152Y004290D01*
X011321Y004360D01*
X011450Y004489D01*
X011491Y004588D02*
X012630Y004588D01*
X012600Y004746D02*
X011520Y004746D01*
X011520Y004905D02*
X012600Y004905D01*
X012600Y005063D02*
X011520Y005063D01*
X011520Y005222D02*
X012600Y005222D01*
X012600Y005380D02*
X011520Y005380D01*
X011496Y005539D02*
X012624Y005539D01*
X012717Y005697D02*
X011403Y005697D01*
X010717Y005697D02*
X010403Y005697D01*
X010450Y005650D02*
X010321Y005780D01*
X010152Y005850D01*
X009969Y005850D01*
X009800Y005780D01*
X009670Y005650D01*
X009600Y005481D01*
X009600Y004658D01*
X009670Y004489D01*
X009800Y004360D01*
X009969Y004290D01*
X010152Y004290D01*
X010321Y004360D01*
X010450Y004489D01*
X010520Y004658D01*
X010520Y005481D01*
X010450Y005650D01*
X010496Y005539D02*
X010624Y005539D01*
X010600Y005380D02*
X010520Y005380D01*
X010520Y005222D02*
X010600Y005222D01*
X010600Y005063D02*
X010520Y005063D01*
X010520Y004905D02*
X010600Y004905D01*
X010600Y004746D02*
X010520Y004746D01*
X010491Y004588D02*
X010630Y004588D01*
X010731Y004429D02*
X010390Y004429D01*
X009731Y004429D02*
X009390Y004429D01*
X009450Y004489D02*
X009321Y004360D01*
X009152Y004290D01*
X008969Y004290D01*
X008800Y004360D01*
X008670Y004489D01*
X008600Y004658D01*
X008600Y005481D01*
X008670Y005650D01*
X008800Y005780D01*
X008969Y005850D01*
X009152Y005850D01*
X009321Y005780D01*
X009450Y005650D01*
X009520Y005481D01*
X009520Y004658D01*
X009450Y004489D01*
X009491Y004588D02*
X009630Y004588D01*
X009600Y004746D02*
X009520Y004746D01*
X009520Y004905D02*
X009600Y004905D01*
X009600Y005063D02*
X009520Y005063D01*
X009520Y005222D02*
X009600Y005222D01*
X009600Y005380D02*
X009520Y005380D01*
X009496Y005539D02*
X009624Y005539D01*
X009717Y005697D02*
X009403Y005697D01*
X008717Y005697D02*
X005527Y005697D01*
X005527Y005745D02*
X005454Y005920D01*
X005320Y006054D01*
X005145Y006126D01*
X004956Y006126D01*
X004780Y006054D01*
X004646Y005920D01*
X004574Y005745D01*
X004574Y005555D01*
X004646Y005380D01*
X004780Y005246D01*
X004956Y005173D01*
X005145Y005173D01*
X005320Y005246D01*
X005454Y005380D01*
X005527Y005555D01*
X005527Y005745D01*
X005481Y005856D02*
X015620Y005856D01*
X015741Y006015D02*
X005360Y006015D01*
X005320Y006246D02*
X005145Y006173D01*
X004956Y006173D01*
X004780Y006246D01*
X004646Y006380D01*
X004574Y006555D01*
X004574Y006745D01*
X004646Y006920D01*
X004780Y007054D01*
X004956Y007126D01*
X005145Y007126D01*
X005320Y007054D01*
X005454Y006920D01*
X005527Y006745D01*
X005527Y006555D01*
X005454Y006380D01*
X005320Y006246D01*
X005406Y006332D02*
X015695Y006332D01*
X015646Y006380D02*
X015780Y006246D01*
X015956Y006173D01*
X016145Y006173D01*
X016320Y006246D01*
X016454Y006380D01*
X016527Y006555D01*
X016527Y006745D01*
X016454Y006920D01*
X016320Y007054D01*
X016145Y007126D01*
X015956Y007126D01*
X015780Y007054D01*
X015646Y006920D01*
X015574Y006745D01*
X015574Y006555D01*
X015646Y006380D01*
X015601Y006490D02*
X005500Y006490D01*
X005527Y006649D02*
X015574Y006649D01*
X015600Y006807D02*
X005501Y006807D01*
X005408Y006966D02*
X015692Y006966D01*
X015780Y007246D02*
X015956Y007173D01*
X016145Y007173D01*
X016320Y007246D01*
X016454Y007380D01*
X016527Y007555D01*
X016527Y007745D01*
X016454Y007920D01*
X016320Y008054D01*
X016145Y008126D01*
X015956Y008126D01*
X015780Y008054D01*
X015646Y007920D01*
X015574Y007745D01*
X015574Y007555D01*
X015646Y007380D01*
X015780Y007246D01*
X015743Y007283D02*
X005357Y007283D01*
X005320Y007246D02*
X005454Y007380D01*
X005527Y007555D01*
X005527Y007745D01*
X005454Y007920D01*
X005320Y008054D01*
X005145Y008126D01*
X004956Y008126D01*
X004780Y008054D01*
X004646Y007920D01*
X004574Y007745D01*
X004574Y007555D01*
X004646Y007380D01*
X004780Y007246D01*
X004956Y007173D01*
X005145Y007173D01*
X005320Y007246D01*
X005150Y007124D02*
X015951Y007124D01*
X016150Y007124D02*
X016951Y007124D01*
X016956Y007126D02*
X016780Y007054D01*
X016646Y006920D01*
X016574Y006745D01*
X016574Y006555D01*
X016646Y006380D01*
X016780Y006246D01*
X016956Y006173D01*
X017145Y006173D01*
X017320Y006246D01*
X017454Y006380D01*
X017527Y006555D01*
X017527Y006745D01*
X017454Y006920D01*
X017320Y007054D01*
X017145Y007126D01*
X016956Y007126D01*
X016956Y007173D02*
X017145Y007173D01*
X017320Y007246D01*
X017454Y007380D01*
X017527Y007555D01*
X017527Y007745D01*
X017454Y007920D01*
X017320Y008054D01*
X017145Y008126D01*
X016956Y008126D01*
X016780Y008054D01*
X016646Y007920D01*
X016574Y007745D01*
X016574Y007555D01*
X016646Y007380D01*
X016780Y007246D01*
X016956Y007173D01*
X017150Y007124D02*
X020430Y007124D01*
X020430Y006966D02*
X017408Y006966D01*
X017501Y006807D02*
X020430Y006807D01*
X020430Y006649D02*
X017527Y006649D01*
X017500Y006490D02*
X020430Y006490D01*
X020430Y006332D02*
X017406Y006332D01*
X017320Y006054D02*
X017145Y006126D01*
X016956Y006126D01*
X016780Y006054D01*
X016646Y005920D01*
X016574Y005745D01*
X016574Y005555D01*
X016646Y005380D01*
X016780Y005246D01*
X016956Y005173D01*
X017145Y005173D01*
X017320Y005246D01*
X017454Y005380D01*
X017527Y005555D01*
X017527Y005745D01*
X017454Y005920D01*
X017320Y006054D01*
X017360Y006015D02*
X020430Y006015D01*
X020430Y006173D02*
X000650Y006173D01*
X000650Y006015D02*
X003741Y006015D01*
X003780Y006054D02*
X003646Y005920D01*
X003574Y005745D01*
X003574Y005555D01*
X003646Y005380D01*
X003780Y005246D01*
X003956Y005173D01*
X004145Y005173D01*
X004320Y005246D01*
X004454Y005380D01*
X004527Y005555D01*
X004527Y005745D01*
X004454Y005920D01*
X004320Y006054D01*
X004145Y006126D01*
X003956Y006126D01*
X003780Y006054D01*
X003780Y006246D02*
X003956Y006173D01*
X004145Y006173D01*
X004320Y006246D01*
X004454Y006380D01*
X004527Y006555D01*
X004527Y006745D01*
X004454Y006920D01*
X004320Y007054D01*
X004145Y007126D01*
X003956Y007126D01*
X003780Y007054D01*
X003646Y006920D01*
X003574Y006745D01*
X003574Y006555D01*
X003646Y006380D01*
X003780Y006246D01*
X003695Y006332D02*
X000650Y006332D01*
X000650Y006490D02*
X003601Y006490D01*
X003574Y006649D02*
X000650Y006649D01*
X000650Y006807D02*
X003600Y006807D01*
X003692Y006966D02*
X000650Y006966D01*
X000650Y007124D02*
X003951Y007124D01*
X003956Y007173D02*
X004145Y007173D01*
X004320Y007246D01*
X004454Y007380D01*
X004527Y007555D01*
X004527Y007745D01*
X004454Y007920D01*
X004320Y008054D01*
X004145Y008126D01*
X003956Y008126D01*
X003780Y008054D01*
X003646Y007920D01*
X003574Y007745D01*
X003574Y007555D01*
X003646Y007380D01*
X003780Y007246D01*
X003956Y007173D01*
X004150Y007124D02*
X004951Y007124D01*
X004743Y007283D02*
X004357Y007283D01*
X004480Y007441D02*
X004621Y007441D01*
X004574Y007600D02*
X004527Y007600D01*
X004521Y007759D02*
X004580Y007759D01*
X004645Y007917D02*
X004455Y007917D01*
X004268Y008076D02*
X004833Y008076D01*
X004956Y008173D02*
X004780Y008246D01*
X004646Y008380D01*
X004574Y008555D01*
X004574Y008745D01*
X004646Y008920D01*
X004780Y009054D01*
X004956Y009126D01*
X005145Y009126D01*
X005320Y009054D01*
X005454Y008920D01*
X005527Y008745D01*
X005527Y008555D01*
X005454Y008380D01*
X005320Y008246D01*
X005145Y008173D01*
X004956Y008173D01*
X004809Y008234D02*
X004292Y008234D01*
X004320Y008246D02*
X004454Y008380D01*
X004527Y008555D01*
X004527Y008745D01*
X004454Y008920D01*
X004320Y009054D01*
X004145Y009126D01*
X003956Y009126D01*
X003780Y009054D01*
X003646Y008920D01*
X003574Y008745D01*
X003574Y008555D01*
X003646Y008380D01*
X003780Y008246D01*
X003956Y008173D01*
X004145Y008173D01*
X004320Y008246D01*
X004460Y008393D02*
X004641Y008393D01*
X004575Y008551D02*
X004525Y008551D01*
X004527Y008710D02*
X004574Y008710D01*
X004625Y008868D02*
X004476Y008868D01*
X004347Y009027D02*
X004753Y009027D01*
X004780Y009246D02*
X004956Y009173D01*
X005145Y009173D01*
X005320Y009246D01*
X005454Y009380D01*
X005527Y009555D01*
X005527Y009745D01*
X005454Y009920D01*
X005320Y010054D01*
X005145Y010126D01*
X004956Y010126D01*
X004780Y010054D01*
X004646Y009920D01*
X004574Y009745D01*
X004574Y009555D01*
X004646Y009380D01*
X004780Y009246D01*
X004682Y009344D02*
X004418Y009344D01*
X004454Y009380D02*
X004320Y009246D01*
X004145Y009173D01*
X003956Y009173D01*
X003780Y009246D01*
X003646Y009380D01*
X003574Y009555D01*
X003574Y009745D01*
X003646Y009920D01*
X003780Y010054D01*
X003956Y010126D01*
X004145Y010126D01*
X004320Y010054D01*
X004454Y009920D01*
X004527Y009745D01*
X004527Y009555D01*
X004454Y009380D01*
X004505Y009503D02*
X004596Y009503D01*
X004574Y009661D02*
X004527Y009661D01*
X004496Y009820D02*
X004605Y009820D01*
X004705Y009978D02*
X004396Y009978D01*
X004320Y010246D02*
X004145Y010173D01*
X003956Y010173D01*
X003780Y010246D01*
X003646Y010380D01*
X003574Y010555D01*
X003574Y010745D01*
X003646Y010920D01*
X003780Y011054D01*
X003956Y011126D01*
X004145Y011126D01*
X004320Y011054D01*
X004454Y010920D01*
X004527Y010745D01*
X004527Y010555D01*
X004454Y010380D01*
X004320Y010246D01*
X004370Y010295D02*
X004731Y010295D01*
X004780Y010246D02*
X004646Y010380D01*
X004574Y010555D01*
X004574Y010745D01*
X004646Y010920D01*
X004780Y011054D01*
X004956Y011126D01*
X005145Y011126D01*
X005320Y011054D01*
X005454Y010920D01*
X005527Y010745D01*
X005527Y010555D01*
X005454Y010380D01*
X005320Y010246D01*
X005145Y010173D01*
X004956Y010173D01*
X004780Y010246D01*
X004616Y010454D02*
X004485Y010454D01*
X004527Y010612D02*
X004574Y010612D01*
X004585Y010771D02*
X004516Y010771D01*
X004445Y010929D02*
X004656Y010929D01*
X004863Y011088D02*
X004238Y011088D01*
X004145Y011173D02*
X004320Y011246D01*
X004454Y011380D01*
X004527Y011555D01*
X004527Y011745D01*
X004454Y011920D01*
X004320Y012054D01*
X004145Y012126D01*
X003956Y012126D01*
X003780Y012054D01*
X003646Y011920D01*
X003574Y011745D01*
X003574Y011555D01*
X003646Y011380D01*
X003780Y011246D01*
X003956Y011173D01*
X004145Y011173D01*
X004321Y011246D02*
X004780Y011246D01*
X004956Y011173D01*
X005145Y011173D01*
X005320Y011246D01*
X005454Y011380D01*
X005527Y011555D01*
X005527Y011745D01*
X005454Y011920D01*
X005320Y012054D01*
X005145Y012126D01*
X004956Y012126D01*
X004780Y012054D01*
X004646Y011920D01*
X004574Y011745D01*
X004574Y011555D01*
X004646Y011380D01*
X004780Y011246D01*
X004636Y011405D02*
X004465Y011405D01*
X004527Y011564D02*
X004574Y011564D01*
X004574Y011722D02*
X004527Y011722D01*
X004471Y011881D02*
X004630Y011881D01*
X004766Y012039D02*
X004335Y012039D01*
X004204Y012198D02*
X004897Y012198D01*
X004956Y012173D02*
X005145Y012173D01*
X005320Y012246D01*
X005454Y012380D01*
X005527Y012555D01*
X005527Y012745D01*
X005454Y012920D01*
X005320Y013054D01*
X005145Y013126D01*
X004956Y013126D01*
X004780Y013054D01*
X004646Y012920D01*
X004574Y012745D01*
X004574Y012555D01*
X004646Y012380D01*
X004780Y012246D01*
X004956Y012173D01*
X005204Y012198D02*
X012555Y012198D01*
X012540Y012161D02*
X012540Y011978D01*
X012610Y011809D01*
X012740Y011680D01*
X012909Y011610D01*
X013092Y011610D01*
X013261Y011680D01*
X013390Y011809D01*
X013460Y011978D01*
X013460Y012161D01*
X013390Y012330D01*
X013261Y012460D01*
X013092Y012530D01*
X012909Y012530D01*
X012740Y012460D01*
X012610Y012330D01*
X012540Y012161D01*
X012540Y012039D02*
X010241Y012039D01*
X010241Y012040D02*
X010072Y012110D01*
X009889Y012110D01*
X009720Y012040D01*
X009590Y011910D01*
X009520Y011741D01*
X009520Y011558D01*
X009590Y011389D01*
X009720Y011260D01*
X009889Y011190D01*
X010072Y011190D01*
X010241Y011260D01*
X010370Y011389D01*
X010440Y011558D01*
X010440Y011741D01*
X010370Y011910D01*
X010241Y012040D01*
X010383Y011881D02*
X012581Y011881D01*
X012698Y011722D02*
X010440Y011722D01*
X010440Y011564D02*
X015574Y011564D01*
X015574Y011555D02*
X015646Y011380D01*
X015780Y011246D01*
X015956Y011173D01*
X016145Y011173D01*
X016320Y011246D01*
X016454Y011380D01*
X016527Y011555D01*
X016527Y011745D01*
X016454Y011920D01*
X016320Y012054D01*
X016145Y012126D01*
X015956Y012126D01*
X015780Y012054D01*
X015646Y011920D01*
X015574Y011745D01*
X015574Y011555D01*
X015636Y011405D02*
X010377Y011405D01*
X010208Y011246D02*
X015780Y011246D01*
X015863Y011088D02*
X005238Y011088D01*
X005321Y011246D02*
X009752Y011246D01*
X009584Y011405D02*
X005465Y011405D01*
X005527Y011564D02*
X009520Y011564D01*
X009520Y011722D02*
X005527Y011722D01*
X005471Y011881D02*
X009578Y011881D01*
X009719Y012039D02*
X005335Y012039D01*
X005431Y012356D02*
X012636Y012356D01*
X012872Y012515D02*
X005510Y012515D01*
X005527Y012673D02*
X015574Y012673D01*
X015574Y012745D02*
X015574Y012555D01*
X015646Y012380D01*
X015780Y012246D01*
X015956Y012173D01*
X016145Y012173D01*
X016320Y012246D01*
X016454Y012380D01*
X016527Y012555D01*
X016527Y012745D01*
X016454Y012920D01*
X016320Y013054D01*
X016145Y013126D01*
X015956Y013126D01*
X015780Y013054D01*
X015646Y012920D01*
X015574Y012745D01*
X015610Y012832D02*
X005491Y012832D01*
X005384Y012990D02*
X015717Y012990D01*
X015780Y013246D02*
X015956Y013173D01*
X016145Y013173D01*
X016320Y013246D01*
X016454Y013380D01*
X016527Y013555D01*
X016527Y013745D01*
X016454Y013920D01*
X016320Y014054D01*
X016145Y014126D01*
X015956Y014126D01*
X015780Y014054D01*
X015646Y013920D01*
X015574Y013745D01*
X015574Y013555D01*
X015646Y013380D01*
X015780Y013246D01*
X015719Y013308D02*
X005382Y013308D01*
X005320Y013246D02*
X005454Y013380D01*
X005527Y013555D01*
X005527Y013745D01*
X005454Y013920D01*
X005320Y014054D01*
X005145Y014126D01*
X004956Y014126D01*
X004780Y014054D01*
X004646Y013920D01*
X004574Y013745D01*
X004574Y013555D01*
X004646Y013380D01*
X004780Y013246D01*
X004956Y013173D01*
X005145Y013173D01*
X005320Y013246D01*
X005490Y013466D02*
X015611Y013466D01*
X015574Y013625D02*
X005527Y013625D01*
X005511Y013783D02*
X015590Y013783D01*
X015668Y013942D02*
X005432Y013942D01*
X005208Y014100D02*
X012599Y014100D01*
X012600Y014100D02*
X012769Y014030D01*
X012952Y014030D01*
X013121Y014100D01*
X013250Y014229D01*
X013320Y014398D01*
X013320Y014581D01*
X013250Y014750D01*
X013121Y014880D01*
X012952Y014950D01*
X012769Y014950D01*
X012600Y014880D01*
X012470Y014750D01*
X012400Y014581D01*
X012400Y014398D01*
X012470Y014229D01*
X012600Y014100D01*
X012458Y014259D02*
X005333Y014259D01*
X005320Y014246D02*
X005454Y014380D01*
X005527Y014555D01*
X005527Y014745D01*
X005454Y014920D01*
X005320Y015054D01*
X005145Y015126D01*
X004956Y015126D01*
X004780Y015054D01*
X004646Y014920D01*
X004574Y014745D01*
X004574Y014555D01*
X004646Y014380D01*
X004780Y014246D01*
X004956Y014173D01*
X005145Y014173D01*
X005320Y014246D01*
X005470Y014417D02*
X012400Y014417D01*
X012400Y014576D02*
X005527Y014576D01*
X005527Y014734D02*
X012464Y014734D01*
X012631Y014893D02*
X005465Y014893D01*
X005323Y015052D02*
X015778Y015052D01*
X015780Y015054D02*
X015646Y014920D01*
X015574Y014745D01*
X015574Y014555D01*
X015646Y014380D01*
X015780Y014246D01*
X015956Y014173D01*
X016145Y014173D01*
X016320Y014246D01*
X016454Y014380D01*
X016527Y014555D01*
X016527Y014745D01*
X016454Y014920D01*
X016320Y015054D01*
X016145Y015126D01*
X015956Y015126D01*
X015780Y015054D01*
X015867Y015210D02*
X013151Y015210D01*
X013210Y015269D02*
X013280Y015438D01*
X013280Y015621D01*
X013210Y015790D01*
X013081Y015920D01*
X012912Y015990D01*
X012729Y015990D01*
X012560Y015920D01*
X012430Y015790D01*
X012360Y015621D01*
X012360Y015438D01*
X012430Y015269D01*
X012560Y015140D01*
X012729Y015070D01*
X012912Y015070D01*
X013081Y015140D01*
X013210Y015269D01*
X013251Y015369D02*
X015658Y015369D01*
X015646Y015380D02*
X015780Y015246D01*
X015956Y015173D01*
X016145Y015173D01*
X016320Y015246D01*
X016454Y015380D01*
X016527Y015555D01*
X016527Y015745D01*
X016454Y015920D01*
X016320Y016054D01*
X016145Y016126D01*
X015956Y016126D01*
X015780Y016054D01*
X015646Y015920D01*
X015574Y015745D01*
X015574Y015555D01*
X015646Y015380D01*
X015585Y015527D02*
X013280Y015527D01*
X013254Y015686D02*
X015574Y015686D01*
X015615Y015844D02*
X013156Y015844D01*
X013409Y016370D02*
X013240Y016440D01*
X013110Y016569D01*
X013040Y016738D01*
X013040Y017561D01*
X013110Y017730D01*
X013240Y017860D01*
X013409Y017930D01*
X013592Y017930D01*
X013761Y017860D01*
X013890Y017730D01*
X013960Y017561D01*
X013960Y016738D01*
X013890Y016569D01*
X013761Y016440D01*
X013592Y016370D01*
X013409Y016370D01*
X013201Y016478D02*
X012799Y016478D01*
X012761Y016440D02*
X012890Y016569D01*
X012960Y016738D01*
X012960Y017561D01*
X012890Y017730D01*
X012761Y017860D01*
X012592Y017930D01*
X012409Y017930D01*
X012240Y017860D01*
X012110Y017730D01*
X012040Y017561D01*
X012040Y016738D01*
X012110Y016569D01*
X012240Y016440D01*
X012409Y016370D01*
X012592Y016370D01*
X012761Y016440D01*
X012918Y016637D02*
X013082Y016637D01*
X013040Y016796D02*
X012960Y016796D01*
X012960Y016954D02*
X013040Y016954D01*
X013040Y017113D02*
X012960Y017113D01*
X012960Y017271D02*
X013040Y017271D01*
X013040Y017430D02*
X012960Y017430D01*
X012949Y017588D02*
X013051Y017588D01*
X013127Y017747D02*
X012874Y017747D01*
X012651Y017905D02*
X013349Y017905D01*
X013651Y017905D02*
X020430Y017905D01*
X020430Y017747D02*
X013874Y017747D01*
X013949Y017588D02*
X020430Y017588D01*
X020430Y017430D02*
X013960Y017430D01*
X013960Y017271D02*
X020430Y017271D01*
X020430Y017113D02*
X017178Y017113D01*
X017145Y017126D02*
X016956Y017126D01*
X016780Y017054D01*
X016646Y016920D01*
X016574Y016745D01*
X016574Y016555D01*
X016646Y016380D01*
X016780Y016246D01*
X016956Y016173D01*
X017145Y016173D01*
X017320Y016246D01*
X017454Y016380D01*
X017527Y016555D01*
X017527Y016745D01*
X017454Y016920D01*
X017320Y017054D01*
X017145Y017126D01*
X016922Y017113D02*
X016178Y017113D01*
X016145Y017126D02*
X015956Y017126D01*
X015780Y017054D01*
X015646Y016920D01*
X015574Y016745D01*
X015574Y016555D01*
X015646Y016380D01*
X015780Y016246D01*
X015956Y016173D01*
X016145Y016173D01*
X016320Y016246D01*
X016454Y016380D01*
X016527Y016555D01*
X016527Y016745D01*
X016454Y016920D01*
X016320Y017054D01*
X016145Y017126D01*
X015922Y017113D02*
X013960Y017113D01*
X013960Y016954D02*
X015681Y016954D01*
X015595Y016796D02*
X013960Y016796D01*
X013918Y016637D02*
X015574Y016637D01*
X015606Y016478D02*
X013799Y016478D01*
X012484Y015844D02*
X005486Y015844D01*
X005454Y015920D02*
X005527Y015745D01*
X005527Y015555D01*
X005454Y015380D01*
X005320Y015246D01*
X005145Y015173D01*
X004956Y015173D01*
X004780Y015246D01*
X004646Y015380D01*
X004574Y015555D01*
X004574Y015745D01*
X004646Y015920D01*
X004780Y016054D01*
X004956Y016126D01*
X005145Y016126D01*
X005320Y016054D01*
X005454Y015920D01*
X005371Y016003D02*
X015729Y016003D01*
X015706Y016320D02*
X005394Y016320D01*
X005454Y016380D02*
X005320Y016246D01*
X005145Y016173D01*
X004956Y016173D01*
X004780Y016246D01*
X004646Y016380D01*
X004574Y016555D01*
X004574Y016745D01*
X004646Y016920D01*
X004780Y017054D01*
X004956Y017126D01*
X005145Y017126D01*
X005320Y017054D01*
X005454Y016920D01*
X005527Y016745D01*
X005527Y016555D01*
X005454Y016380D01*
X005495Y016478D02*
X008201Y016478D01*
X008240Y016440D02*
X008110Y016569D01*
X008040Y016738D01*
X008040Y017561D01*
X008110Y017730D01*
X008240Y017860D01*
X008409Y017930D01*
X008592Y017930D01*
X008761Y017860D01*
X008890Y017730D01*
X008960Y017561D01*
X008960Y016738D01*
X008890Y016569D01*
X008761Y016440D01*
X008592Y016370D01*
X008409Y016370D01*
X008240Y016440D01*
X008082Y016637D02*
X005527Y016637D01*
X005506Y016796D02*
X008040Y016796D01*
X008040Y016954D02*
X005420Y016954D01*
X005178Y017113D02*
X008040Y017113D01*
X008040Y017271D02*
X000650Y017271D01*
X000650Y017113D02*
X003922Y017113D01*
X003956Y017126D02*
X003780Y017054D01*
X003646Y016920D01*
X003574Y016745D01*
X003574Y016555D01*
X003646Y016380D01*
X003780Y016246D01*
X003956Y016173D01*
X004145Y016173D01*
X004320Y016246D01*
X004454Y016380D01*
X004527Y016555D01*
X004527Y016745D01*
X004454Y016920D01*
X004320Y017054D01*
X004145Y017126D01*
X003956Y017126D01*
X004178Y017113D02*
X004922Y017113D01*
X004681Y016954D02*
X004420Y016954D01*
X004506Y016796D02*
X004595Y016796D01*
X004574Y016637D02*
X004527Y016637D01*
X004495Y016478D02*
X004606Y016478D01*
X004706Y016320D02*
X004394Y016320D01*
X004320Y016054D02*
X004145Y016126D01*
X003956Y016126D01*
X003780Y016054D01*
X003646Y015920D01*
X003574Y015745D01*
X003574Y015555D01*
X003646Y015380D01*
X003780Y015246D01*
X003956Y015173D01*
X004145Y015173D01*
X004320Y015246D01*
X004454Y015380D01*
X004527Y015555D01*
X004527Y015745D01*
X004454Y015920D01*
X004320Y016054D01*
X004371Y016003D02*
X004729Y016003D01*
X004615Y015844D02*
X004486Y015844D01*
X004527Y015686D02*
X004574Y015686D01*
X004585Y015527D02*
X004515Y015527D01*
X004443Y015369D02*
X004658Y015369D01*
X004867Y015210D02*
X004234Y015210D01*
X004145Y015126D02*
X004320Y015054D01*
X004454Y014920D01*
X004527Y014745D01*
X004527Y014555D01*
X004454Y014380D01*
X004320Y014246D01*
X004145Y014173D01*
X003956Y014173D01*
X003780Y014246D01*
X003646Y014380D01*
X003574Y014555D01*
X003574Y014745D01*
X003646Y014920D01*
X003780Y015054D01*
X003956Y015126D01*
X004145Y015126D01*
X004323Y015052D02*
X004778Y015052D01*
X004635Y014893D02*
X004465Y014893D01*
X004527Y014734D02*
X004574Y014734D01*
X004574Y014576D02*
X004527Y014576D01*
X004470Y014417D02*
X004631Y014417D01*
X004767Y014259D02*
X004333Y014259D01*
X004208Y014100D02*
X004892Y014100D01*
X004668Y013942D02*
X004432Y013942D01*
X004454Y013920D02*
X004320Y014054D01*
X004145Y014126D01*
X003956Y014126D01*
X003780Y014054D01*
X003646Y013920D01*
X003574Y013745D01*
X003574Y013555D01*
X003646Y013380D01*
X003780Y013246D01*
X003956Y013173D01*
X004145Y013173D01*
X004320Y013246D01*
X004454Y013380D01*
X004527Y013555D01*
X004527Y013745D01*
X004454Y013920D01*
X004511Y013783D02*
X004590Y013783D01*
X004574Y013625D02*
X004527Y013625D01*
X004490Y013466D02*
X004611Y013466D01*
X004719Y013308D02*
X004382Y013308D01*
X004320Y013054D02*
X004145Y013126D01*
X003956Y013126D01*
X003780Y013054D01*
X003646Y012920D01*
X003574Y012745D01*
X003574Y012555D01*
X003646Y012380D01*
X003780Y012246D01*
X003956Y012173D01*
X004145Y012173D01*
X004320Y012246D01*
X004454Y012380D01*
X004527Y012555D01*
X004527Y012745D01*
X004454Y012920D01*
X004320Y013054D01*
X004384Y012990D02*
X004717Y012990D01*
X004610Y012832D02*
X004491Y012832D01*
X004527Y012673D02*
X004574Y012673D01*
X004590Y012515D02*
X004510Y012515D01*
X004431Y012356D02*
X004670Y012356D01*
X003897Y012198D02*
X000650Y012198D01*
X000650Y012356D02*
X003670Y012356D01*
X003590Y012515D02*
X000650Y012515D01*
X000650Y012673D02*
X003574Y012673D01*
X003610Y012832D02*
X000650Y012832D01*
X000650Y012990D02*
X003717Y012990D01*
X003719Y013308D02*
X000650Y013308D01*
X000650Y013466D02*
X003611Y013466D01*
X003574Y013625D02*
X000650Y013625D01*
X000650Y013783D02*
X003590Y013783D01*
X003668Y013942D02*
X000650Y013942D01*
X000650Y014100D02*
X003892Y014100D01*
X003767Y014259D02*
X000650Y014259D01*
X000650Y014417D02*
X003631Y014417D01*
X003574Y014576D02*
X000650Y014576D01*
X000650Y014734D02*
X003574Y014734D01*
X003635Y014893D02*
X000650Y014893D01*
X000650Y015052D02*
X003778Y015052D01*
X003867Y015210D02*
X000650Y015210D01*
X000650Y015369D02*
X003658Y015369D01*
X003585Y015527D02*
X000650Y015527D01*
X000650Y015686D02*
X003574Y015686D01*
X003615Y015844D02*
X000650Y015844D01*
X000650Y016003D02*
X003729Y016003D01*
X003706Y016320D02*
X000650Y016320D01*
X000650Y016478D02*
X003606Y016478D01*
X003574Y016637D02*
X000650Y016637D01*
X000650Y016796D02*
X003595Y016796D01*
X003681Y016954D02*
X000650Y016954D01*
X000650Y017430D02*
X008040Y017430D01*
X008051Y017588D02*
X000650Y017588D01*
X000650Y017747D02*
X008127Y017747D01*
X008349Y017905D02*
X000650Y017905D01*
X000650Y018064D02*
X020430Y018064D01*
X020430Y018222D02*
X000650Y018222D01*
X000650Y018381D02*
X020430Y018381D01*
X020430Y018539D02*
X000650Y018539D01*
X000650Y018698D02*
X020430Y018698D01*
X020430Y018857D02*
X000650Y018857D01*
X000650Y019015D02*
X020430Y019015D01*
X020430Y019174D02*
X000650Y019174D01*
X000650Y019332D02*
X020430Y019332D01*
X020430Y019491D02*
X000650Y019491D01*
X000650Y019649D02*
X020430Y019649D01*
X020430Y019808D02*
X000650Y019808D01*
X000650Y019966D02*
X020430Y019966D01*
X020430Y020125D02*
X000650Y020125D01*
X000650Y020283D02*
X020430Y020283D01*
X020430Y020442D02*
X000650Y020442D01*
X000650Y020601D02*
X020430Y020601D01*
X020430Y020759D02*
X000650Y020759D01*
X000650Y020918D02*
X020430Y020918D01*
X020430Y021076D02*
X000650Y021076D01*
X000650Y021235D02*
X020430Y021235D01*
X020430Y021393D02*
X000650Y021393D01*
X000650Y021552D02*
X020430Y021552D01*
X020430Y021710D02*
X000650Y021710D01*
X000650Y021869D02*
X020430Y021869D01*
X020430Y022027D02*
X000650Y022027D01*
X000650Y022186D02*
X020430Y022186D01*
X020430Y022345D02*
X000650Y022345D01*
X000650Y022503D02*
X020430Y022503D01*
X020430Y022662D02*
X000650Y022662D01*
X000650Y022820D02*
X020430Y022820D01*
X020430Y022979D02*
X000650Y022979D01*
X000650Y023137D02*
X020430Y023137D01*
X020430Y023296D02*
X000650Y023296D01*
X000650Y023454D02*
X020430Y023454D01*
X020430Y023613D02*
X000650Y023613D01*
X000650Y023771D02*
X020430Y023771D01*
X020430Y023930D02*
X000650Y023930D01*
X000650Y024089D02*
X020430Y024089D01*
X020430Y024247D02*
X000650Y024247D01*
X000650Y024406D02*
X020430Y024406D01*
X020430Y024564D02*
X000650Y024564D01*
X000650Y024723D02*
X020430Y024723D01*
X020430Y024881D02*
X000650Y024881D01*
X000650Y025040D02*
X020430Y025040D01*
X020430Y025198D02*
X000650Y025198D01*
X000650Y025357D02*
X020430Y025357D01*
X020430Y025515D02*
X000650Y025515D01*
X000650Y025674D02*
X020430Y025674D01*
X020430Y016954D02*
X017420Y016954D01*
X017506Y016796D02*
X020430Y016796D01*
X020430Y016637D02*
X017527Y016637D01*
X017495Y016478D02*
X020430Y016478D01*
X020430Y016320D02*
X017394Y016320D01*
X017320Y016054D02*
X017145Y016126D01*
X016956Y016126D01*
X016780Y016054D01*
X016646Y015920D01*
X016574Y015745D01*
X016574Y015555D01*
X016646Y015380D01*
X016780Y015246D01*
X016956Y015173D01*
X017145Y015173D01*
X017320Y015246D01*
X017454Y015380D01*
X017527Y015555D01*
X017527Y015745D01*
X017454Y015920D01*
X017320Y016054D01*
X017371Y016003D02*
X020430Y016003D01*
X020430Y016161D02*
X000650Y016161D01*
X000650Y013149D02*
X020430Y013149D01*
X020430Y012990D02*
X017384Y012990D01*
X017320Y013054D02*
X017145Y013126D01*
X016956Y013126D01*
X016780Y013054D01*
X016646Y012920D01*
X016574Y012745D01*
X016574Y012555D01*
X016646Y012380D01*
X016780Y012246D01*
X016956Y012173D01*
X017145Y012173D01*
X017320Y012246D01*
X017454Y012380D01*
X017527Y012555D01*
X017527Y012745D01*
X017454Y012920D01*
X017320Y013054D01*
X017320Y013246D02*
X017454Y013380D01*
X017527Y013555D01*
X017527Y013745D01*
X017454Y013920D01*
X017320Y014054D01*
X017145Y014126D01*
X016956Y014126D01*
X016780Y014054D01*
X016646Y013920D01*
X016574Y013745D01*
X016574Y013555D01*
X016646Y013380D01*
X016780Y013246D01*
X016956Y013173D01*
X017145Y013173D01*
X017320Y013246D01*
X017382Y013308D02*
X020430Y013308D01*
X020430Y013466D02*
X017490Y013466D01*
X017527Y013625D02*
X020430Y013625D01*
X020430Y013783D02*
X017511Y013783D01*
X017432Y013942D02*
X020430Y013942D01*
X020430Y014100D02*
X017208Y014100D01*
X017145Y014173D02*
X017320Y014246D01*
X017454Y014380D01*
X017527Y014555D01*
X017527Y014745D01*
X017454Y014920D01*
X017320Y015054D01*
X017145Y015126D01*
X016956Y015126D01*
X016780Y015054D01*
X016646Y014920D01*
X016574Y014745D01*
X016574Y014555D01*
X016646Y014380D01*
X016780Y014246D01*
X016956Y014173D01*
X017145Y014173D01*
X017333Y014259D02*
X020430Y014259D01*
X020430Y014417D02*
X017470Y014417D01*
X017527Y014576D02*
X020430Y014576D01*
X020430Y014734D02*
X017527Y014734D01*
X017465Y014893D02*
X020430Y014893D01*
X020430Y015052D02*
X017323Y015052D01*
X017234Y015210D02*
X020430Y015210D01*
X020430Y015369D02*
X017443Y015369D01*
X017515Y015527D02*
X020430Y015527D01*
X020430Y015686D02*
X017527Y015686D01*
X017486Y015844D02*
X020430Y015844D01*
X020430Y012832D02*
X017491Y012832D01*
X017527Y012673D02*
X020430Y012673D01*
X020430Y012515D02*
X017510Y012515D01*
X017431Y012356D02*
X020430Y012356D01*
X020430Y012198D02*
X017204Y012198D01*
X017145Y012126D02*
X016956Y012126D01*
X016780Y012054D01*
X016646Y011920D01*
X016574Y011745D01*
X016574Y011555D01*
X016646Y011380D01*
X016780Y011246D01*
X016956Y011173D01*
X017145Y011173D01*
X017320Y011246D01*
X017454Y011380D01*
X017527Y011555D01*
X017527Y011745D01*
X017454Y011920D01*
X017320Y012054D01*
X017145Y012126D01*
X017335Y012039D02*
X020430Y012039D01*
X020430Y011881D02*
X017471Y011881D01*
X017527Y011722D02*
X020430Y011722D01*
X020430Y011564D02*
X017527Y011564D01*
X017465Y011405D02*
X020430Y011405D01*
X020430Y011246D02*
X017321Y011246D01*
X017238Y011088D02*
X020430Y011088D01*
X020430Y010929D02*
X017445Y010929D01*
X017454Y010920D02*
X017320Y011054D01*
X017145Y011126D01*
X016956Y011126D01*
X016780Y011054D01*
X016646Y010920D01*
X016574Y010745D01*
X016574Y010555D01*
X016646Y010380D01*
X016780Y010246D01*
X016956Y010173D01*
X017145Y010173D01*
X017320Y010246D01*
X017454Y010380D01*
X017527Y010555D01*
X017527Y010745D01*
X017454Y010920D01*
X017516Y010771D02*
X020430Y010771D01*
X020430Y010612D02*
X017527Y010612D01*
X017485Y010454D02*
X020430Y010454D01*
X020430Y010295D02*
X017370Y010295D01*
X017320Y010054D02*
X017145Y010126D01*
X016956Y010126D01*
X016780Y010054D01*
X016646Y009920D01*
X016574Y009745D01*
X016574Y009555D01*
X016646Y009380D01*
X016780Y009246D01*
X016956Y009173D01*
X017145Y009173D01*
X017320Y009246D01*
X017454Y009380D01*
X017527Y009555D01*
X017527Y009745D01*
X017454Y009920D01*
X017320Y010054D01*
X017396Y009978D02*
X020430Y009978D01*
X020430Y009820D02*
X017496Y009820D01*
X017527Y009661D02*
X020430Y009661D01*
X020430Y009503D02*
X017505Y009503D01*
X017418Y009344D02*
X020430Y009344D01*
X020430Y009185D02*
X017174Y009185D01*
X017145Y009126D02*
X016956Y009126D01*
X016780Y009054D01*
X016646Y008920D01*
X016574Y008745D01*
X016574Y008555D01*
X016646Y008380D01*
X016780Y008246D01*
X016956Y008173D01*
X017145Y008173D01*
X017320Y008246D01*
X017454Y008380D01*
X017527Y008555D01*
X017527Y008745D01*
X017454Y008920D01*
X017320Y009054D01*
X017145Y009126D01*
X017347Y009027D02*
X020430Y009027D01*
X020430Y008868D02*
X017476Y008868D01*
X017527Y008710D02*
X020430Y008710D01*
X020430Y008551D02*
X017525Y008551D01*
X017460Y008393D02*
X020430Y008393D01*
X020430Y008234D02*
X017292Y008234D01*
X017268Y008076D02*
X020430Y008076D01*
X020430Y007917D02*
X017455Y007917D01*
X017521Y007759D02*
X020430Y007759D01*
X020430Y007600D02*
X017527Y007600D01*
X017480Y007441D02*
X020430Y007441D01*
X020430Y007283D02*
X017357Y007283D01*
X016743Y007283D02*
X016357Y007283D01*
X016480Y007441D02*
X016621Y007441D01*
X016574Y007600D02*
X016527Y007600D01*
X016521Y007759D02*
X016580Y007759D01*
X016645Y007917D02*
X016455Y007917D01*
X016268Y008076D02*
X016833Y008076D01*
X016809Y008234D02*
X016292Y008234D01*
X016320Y008246D02*
X016454Y008380D01*
X016527Y008555D01*
X016527Y008745D01*
X016454Y008920D01*
X016320Y009054D01*
X016145Y009126D01*
X015956Y009126D01*
X015780Y009054D01*
X015646Y008920D01*
X015574Y008745D01*
X015574Y008555D01*
X015646Y008380D01*
X015780Y008246D01*
X015956Y008173D01*
X016145Y008173D01*
X016320Y008246D01*
X016460Y008393D02*
X016641Y008393D01*
X016575Y008551D02*
X016525Y008551D01*
X016527Y008710D02*
X016574Y008710D01*
X016625Y008868D02*
X016476Y008868D01*
X016347Y009027D02*
X016753Y009027D01*
X016926Y009185D02*
X016174Y009185D01*
X016145Y009173D02*
X016320Y009246D01*
X016454Y009380D01*
X016527Y009555D01*
X016527Y009745D01*
X016454Y009920D01*
X016320Y010054D01*
X016145Y010126D01*
X015956Y010126D01*
X015780Y010054D01*
X015646Y009920D01*
X015574Y009745D01*
X015574Y009555D01*
X015646Y009380D01*
X015780Y009246D01*
X015956Y009173D01*
X016145Y009173D01*
X015926Y009185D02*
X005174Y009185D01*
X005347Y009027D02*
X015753Y009027D01*
X015625Y008868D02*
X005476Y008868D01*
X005527Y008710D02*
X015574Y008710D01*
X015575Y008551D02*
X005525Y008551D01*
X005460Y008393D02*
X015641Y008393D01*
X015809Y008234D02*
X005292Y008234D01*
X005268Y008076D02*
X015833Y008076D01*
X015645Y007917D02*
X005455Y007917D01*
X005521Y007759D02*
X015580Y007759D01*
X015574Y007600D02*
X005527Y007600D01*
X005480Y007441D02*
X015621Y007441D01*
X016408Y006966D02*
X016692Y006966D01*
X016600Y006807D02*
X016501Y006807D01*
X016527Y006649D02*
X016574Y006649D01*
X016601Y006490D02*
X016500Y006490D01*
X016406Y006332D02*
X016695Y006332D01*
X016741Y006015D02*
X016360Y006015D01*
X016481Y005856D02*
X016620Y005856D01*
X016574Y005697D02*
X016527Y005697D01*
X016520Y005539D02*
X016580Y005539D01*
X016646Y005380D02*
X016454Y005380D01*
X016262Y005222D02*
X016839Y005222D01*
X017262Y005222D02*
X020430Y005222D01*
X020430Y005380D02*
X017454Y005380D01*
X017520Y005539D02*
X020430Y005539D01*
X020430Y005697D02*
X017527Y005697D01*
X017481Y005856D02*
X020430Y005856D01*
X020430Y010137D02*
X000650Y010137D01*
X000650Y010295D02*
X003731Y010295D01*
X003616Y010454D02*
X000650Y010454D01*
X000650Y010612D02*
X003574Y010612D01*
X003585Y010771D02*
X000650Y010771D01*
X000650Y010929D02*
X003656Y010929D01*
X003863Y011088D02*
X000650Y011088D01*
X000650Y011246D02*
X003780Y011246D01*
X003636Y011405D02*
X000650Y011405D01*
X000650Y011564D02*
X003574Y011564D01*
X003574Y011722D02*
X000650Y011722D01*
X000650Y011881D02*
X003630Y011881D01*
X003766Y012039D02*
X000650Y012039D01*
X000650Y009978D02*
X003705Y009978D01*
X003605Y009820D02*
X000650Y009820D01*
X000650Y009661D02*
X003574Y009661D01*
X003596Y009503D02*
X000650Y009503D01*
X000650Y009344D02*
X003682Y009344D01*
X003926Y009185D02*
X000650Y009185D01*
X000650Y009027D02*
X003753Y009027D01*
X003625Y008868D02*
X000650Y008868D01*
X000650Y008710D02*
X003574Y008710D01*
X003575Y008551D02*
X000650Y008551D01*
X000650Y008393D02*
X003641Y008393D01*
X003809Y008234D02*
X000650Y008234D01*
X000650Y008076D02*
X003833Y008076D01*
X003645Y007917D02*
X000650Y007917D01*
X000650Y007759D02*
X003580Y007759D01*
X003574Y007600D02*
X000650Y007600D01*
X000650Y007441D02*
X003621Y007441D01*
X003743Y007283D02*
X000650Y007283D01*
X000650Y005856D02*
X003620Y005856D01*
X003574Y005697D02*
X000650Y005697D01*
X000650Y005539D02*
X003580Y005539D01*
X003646Y005380D02*
X000650Y005380D01*
X000650Y005222D02*
X003839Y005222D01*
X004262Y005222D02*
X004839Y005222D01*
X004646Y005380D02*
X004454Y005380D01*
X004520Y005539D02*
X004580Y005539D01*
X004574Y005697D02*
X004527Y005697D01*
X004481Y005856D02*
X004620Y005856D01*
X004741Y006015D02*
X004360Y006015D01*
X004406Y006332D02*
X004695Y006332D01*
X004601Y006490D02*
X004500Y006490D01*
X004527Y006649D02*
X004574Y006649D01*
X004600Y006807D02*
X004501Y006807D01*
X004408Y006966D02*
X004692Y006966D01*
X005520Y005539D02*
X008624Y005539D01*
X008600Y005380D02*
X005454Y005380D01*
X005262Y005222D02*
X008600Y005222D01*
X008600Y005063D02*
X000650Y005063D01*
X000650Y004905D02*
X008600Y004905D01*
X008600Y004746D02*
X000650Y004746D01*
X000650Y004588D02*
X008630Y004588D01*
X008731Y004429D02*
X000650Y004429D01*
X004174Y009185D02*
X004926Y009185D01*
X005418Y009344D02*
X015682Y009344D01*
X015596Y009503D02*
X005505Y009503D01*
X005527Y009661D02*
X015574Y009661D01*
X015605Y009820D02*
X005496Y009820D01*
X005396Y009978D02*
X015705Y009978D01*
X015780Y010246D02*
X015956Y010173D01*
X016145Y010173D01*
X016320Y010246D01*
X016454Y010380D01*
X016527Y010555D01*
X016527Y010745D01*
X016454Y010920D01*
X016320Y011054D01*
X016145Y011126D01*
X015956Y011126D01*
X015780Y011054D01*
X015646Y010920D01*
X015574Y010745D01*
X015574Y010555D01*
X015646Y010380D01*
X015780Y010246D01*
X015731Y010295D02*
X005370Y010295D01*
X005485Y010454D02*
X015616Y010454D01*
X015574Y010612D02*
X005527Y010612D01*
X005516Y010771D02*
X015585Y010771D01*
X015656Y010929D02*
X005445Y010929D01*
X005234Y015210D02*
X012490Y015210D01*
X012389Y015369D02*
X005443Y015369D01*
X005515Y015527D02*
X012360Y015527D01*
X012387Y015686D02*
X005527Y015686D01*
X008799Y016478D02*
X009201Y016478D01*
X009240Y016440D02*
X009409Y016370D01*
X009592Y016370D01*
X009761Y016440D01*
X009890Y016569D01*
X009960Y016738D01*
X009960Y017561D01*
X009890Y017730D01*
X009761Y017860D01*
X009592Y017930D01*
X009409Y017930D01*
X009240Y017860D01*
X009110Y017730D01*
X009040Y017561D01*
X009040Y016738D01*
X009110Y016569D01*
X009240Y016440D01*
X009082Y016637D02*
X008918Y016637D01*
X008960Y016796D02*
X009040Y016796D01*
X009040Y016954D02*
X008960Y016954D01*
X008960Y017113D02*
X009040Y017113D01*
X009040Y017271D02*
X008960Y017271D01*
X008960Y017430D02*
X009040Y017430D01*
X009051Y017588D02*
X008949Y017588D01*
X008874Y017747D02*
X009127Y017747D01*
X009349Y017905D02*
X008651Y017905D01*
X009651Y017905D02*
X011349Y017905D01*
X011409Y017930D02*
X011240Y017860D01*
X011110Y017730D01*
X011040Y017561D01*
X011040Y016738D01*
X011110Y016569D01*
X011240Y016440D01*
X011409Y016370D01*
X011592Y016370D01*
X011761Y016440D01*
X011890Y016569D01*
X011960Y016738D01*
X011960Y017561D01*
X011890Y017730D01*
X011761Y017860D01*
X011592Y017930D01*
X011409Y017930D01*
X011651Y017905D02*
X012349Y017905D01*
X012127Y017747D02*
X011874Y017747D01*
X011949Y017588D02*
X012051Y017588D01*
X012040Y017430D02*
X011960Y017430D01*
X011960Y017271D02*
X012040Y017271D01*
X012040Y017113D02*
X011960Y017113D01*
X011960Y016954D02*
X012040Y016954D01*
X012040Y016796D02*
X011960Y016796D01*
X011918Y016637D02*
X012082Y016637D01*
X012201Y016478D02*
X011799Y016478D01*
X011201Y016478D02*
X009799Y016478D01*
X009918Y016637D02*
X011082Y016637D01*
X011040Y016796D02*
X009960Y016796D01*
X009960Y016954D02*
X011040Y016954D01*
X011040Y017113D02*
X009960Y017113D01*
X009960Y017271D02*
X011040Y017271D01*
X011040Y017430D02*
X009960Y017430D01*
X009949Y017588D02*
X011051Y017588D01*
X011127Y017747D02*
X009874Y017747D01*
X013089Y014893D02*
X015635Y014893D01*
X015574Y014734D02*
X013257Y014734D01*
X013320Y014576D02*
X015574Y014576D01*
X015631Y014417D02*
X013320Y014417D01*
X013262Y014259D02*
X015767Y014259D01*
X015892Y014100D02*
X013121Y014100D01*
X013128Y012515D02*
X015590Y012515D01*
X015670Y012356D02*
X013364Y012356D01*
X013445Y012198D02*
X015897Y012198D01*
X015766Y012039D02*
X013460Y012039D01*
X013420Y011881D02*
X015630Y011881D01*
X015574Y011722D02*
X013303Y011722D01*
X016204Y012198D02*
X016897Y012198D01*
X016766Y012039D02*
X016335Y012039D01*
X016471Y011881D02*
X016630Y011881D01*
X016574Y011722D02*
X016527Y011722D01*
X016527Y011564D02*
X016574Y011564D01*
X016636Y011405D02*
X016465Y011405D01*
X016321Y011246D02*
X016780Y011246D01*
X016863Y011088D02*
X016238Y011088D01*
X016445Y010929D02*
X016656Y010929D01*
X016585Y010771D02*
X016516Y010771D01*
X016527Y010612D02*
X016574Y010612D01*
X016616Y010454D02*
X016485Y010454D01*
X016370Y010295D02*
X016731Y010295D01*
X016705Y009978D02*
X016396Y009978D01*
X016496Y009820D02*
X016605Y009820D01*
X016574Y009661D02*
X016527Y009661D01*
X016505Y009503D02*
X016596Y009503D01*
X016682Y009344D02*
X016418Y009344D01*
X016431Y012356D02*
X016670Y012356D01*
X016590Y012515D02*
X016510Y012515D01*
X016527Y012673D02*
X016574Y012673D01*
X016610Y012832D02*
X016491Y012832D01*
X016384Y012990D02*
X016717Y012990D01*
X016719Y013308D02*
X016382Y013308D01*
X016490Y013466D02*
X016611Y013466D01*
X016574Y013625D02*
X016527Y013625D01*
X016511Y013783D02*
X016590Y013783D01*
X016668Y013942D02*
X016432Y013942D01*
X016208Y014100D02*
X016892Y014100D01*
X016767Y014259D02*
X016333Y014259D01*
X016470Y014417D02*
X016631Y014417D01*
X016574Y014576D02*
X016527Y014576D01*
X016527Y014734D02*
X016574Y014734D01*
X016635Y014893D02*
X016465Y014893D01*
X016323Y015052D02*
X016778Y015052D01*
X016867Y015210D02*
X016234Y015210D01*
X016443Y015369D02*
X016658Y015369D01*
X016585Y015527D02*
X016515Y015527D01*
X016527Y015686D02*
X016574Y015686D01*
X016615Y015844D02*
X016486Y015844D01*
X016371Y016003D02*
X016729Y016003D01*
X016706Y016320D02*
X016394Y016320D01*
X016495Y016478D02*
X016606Y016478D01*
X016574Y016637D02*
X016527Y016637D01*
X016506Y016796D02*
X016595Y016796D01*
X016681Y016954D02*
X016420Y016954D01*
X014493Y001575D02*
X020430Y001575D01*
X020430Y001417D02*
X014527Y001417D01*
X014507Y001258D02*
X020430Y001258D01*
X020430Y001100D02*
X014424Y001100D01*
M02*
