G75*
G70*
%OFA0B0*%
%FSLAX24Y24*%
%IPPOS*%
%LPD*%
%AMOC8*
5,1,8,0,0,1.08239X$1,22.5*
%
%ADD10C,0.0030*%
%ADD11C,0.0040*%
%ADD12C,0.0050*%
D10*
X016786Y020500D02*
X017156Y020500D01*
X017156Y020623D02*
X017156Y020376D01*
X017156Y020745D02*
X016786Y020992D01*
X016786Y020745D02*
X017156Y020992D01*
D11*
X003678Y003755D02*
X003678Y003295D01*
X003831Y003448D01*
X003985Y003295D01*
X003985Y003755D01*
X004138Y003602D02*
X004138Y003295D01*
X004138Y003525D02*
X004445Y003525D01*
X004445Y003602D02*
X004292Y003755D01*
X004138Y003602D01*
X004445Y003602D02*
X004445Y003295D01*
X004598Y003295D02*
X004752Y003448D01*
X004675Y003448D02*
X004905Y003448D01*
X004905Y003295D02*
X004905Y003755D01*
X004675Y003755D01*
X004598Y003679D01*
X004598Y003525D01*
X004675Y003448D01*
X006309Y005420D02*
X006616Y005420D01*
X006309Y005727D01*
X006309Y005804D01*
X006386Y005880D01*
X006539Y005880D01*
X006616Y005804D01*
X006923Y005880D02*
X006923Y005420D01*
X007076Y005420D02*
X006769Y005420D01*
X007076Y005727D02*
X006923Y005880D01*
X006923Y006420D02*
X006923Y006880D01*
X007076Y006727D01*
X007076Y006420D02*
X006769Y006420D01*
X006616Y006497D02*
X006539Y006420D01*
X006386Y006420D01*
X006309Y006497D01*
X006309Y006573D01*
X006386Y006650D01*
X006462Y006650D01*
X006386Y006650D02*
X006309Y006727D01*
X006309Y006804D01*
X006386Y006880D01*
X006539Y006880D01*
X006616Y006804D01*
X006769Y007420D02*
X007076Y007420D01*
X006923Y007420D02*
X006923Y007880D01*
X007076Y007727D01*
X006616Y007650D02*
X006309Y007650D01*
X006386Y007420D02*
X006386Y007880D01*
X006616Y007650D01*
X006539Y008420D02*
X006386Y008420D01*
X006309Y008497D01*
X006309Y008650D01*
X006386Y008727D01*
X006462Y008727D01*
X006616Y008650D01*
X006616Y008880D01*
X006309Y008880D01*
X006616Y008497D02*
X006539Y008420D01*
X006769Y008420D02*
X007076Y008420D01*
X006923Y008420D02*
X006923Y008880D01*
X007076Y008727D01*
X007076Y009420D02*
X006769Y009420D01*
X006923Y009420D02*
X006923Y009880D01*
X007076Y009727D01*
X006616Y009650D02*
X006386Y009650D01*
X006309Y009573D01*
X006309Y009497D01*
X006386Y009420D01*
X006539Y009420D01*
X006616Y009497D01*
X006616Y009650D01*
X006462Y009804D01*
X006309Y009880D01*
X006616Y010420D02*
X006616Y010497D01*
X006309Y010804D01*
X006309Y010880D01*
X006616Y010880D01*
X006923Y010880D02*
X006923Y010420D01*
X007076Y010420D02*
X006769Y010420D01*
X007076Y010727D02*
X006923Y010880D01*
X006923Y011420D02*
X006923Y011880D01*
X007076Y011727D01*
X007076Y011420D02*
X006769Y011420D01*
X006616Y011497D02*
X006616Y011573D01*
X006539Y011650D01*
X006386Y011650D01*
X006309Y011573D01*
X006309Y011497D01*
X006386Y011420D01*
X006539Y011420D01*
X006616Y011497D01*
X006539Y011650D02*
X006616Y011727D01*
X006616Y011804D01*
X006539Y011880D01*
X006386Y011880D01*
X006309Y011804D01*
X006309Y011727D01*
X006386Y011650D01*
X006386Y012420D02*
X006309Y012497D01*
X006309Y012804D01*
X006386Y012880D01*
X006539Y012880D01*
X006616Y012804D01*
X006616Y012727D01*
X006539Y012650D01*
X006309Y012650D01*
X006386Y012420D02*
X006539Y012420D01*
X006616Y012497D01*
X006769Y012420D02*
X007076Y012420D01*
X006923Y012420D02*
X006923Y012880D01*
X007076Y012727D01*
X007076Y013420D02*
X006769Y013420D01*
X006616Y013497D02*
X006309Y013804D01*
X006309Y013497D01*
X006386Y013420D01*
X006539Y013420D01*
X006616Y013497D01*
X006616Y013804D01*
X006539Y013880D01*
X006386Y013880D01*
X006309Y013804D01*
X006309Y014420D02*
X006616Y014420D01*
X006769Y014420D02*
X007076Y014420D01*
X006769Y014727D01*
X006769Y014804D01*
X006846Y014880D01*
X006999Y014880D01*
X007076Y014804D01*
X006616Y014727D02*
X006462Y014880D01*
X006462Y014420D01*
X006846Y013880D02*
X006999Y013880D01*
X007076Y013804D01*
X006846Y013880D02*
X006769Y013804D01*
X006769Y013727D01*
X007076Y013420D01*
X007076Y015420D02*
X006769Y015420D01*
X006616Y015420D02*
X006309Y015727D01*
X006309Y015804D01*
X006386Y015880D01*
X006539Y015880D01*
X006616Y015804D01*
X006769Y015804D02*
X006846Y015880D01*
X006999Y015880D01*
X007076Y015804D01*
X006769Y015804D02*
X006769Y015727D01*
X007076Y015420D01*
X006616Y015420D02*
X006309Y015420D01*
X006386Y016420D02*
X006309Y016497D01*
X006309Y016573D01*
X006386Y016650D01*
X006462Y016650D01*
X006386Y016650D02*
X006309Y016727D01*
X006309Y016804D01*
X006386Y016880D01*
X006539Y016880D01*
X006616Y016804D01*
X006769Y016804D02*
X006846Y016880D01*
X006999Y016880D01*
X007076Y016804D01*
X006769Y016804D02*
X006769Y016727D01*
X007076Y016420D01*
X006769Y016420D01*
X006616Y016497D02*
X006539Y016420D01*
X006386Y016420D01*
X014340Y006880D02*
X014263Y006804D01*
X014570Y006497D01*
X014493Y006420D01*
X014340Y006420D01*
X014263Y006497D01*
X014263Y006804D01*
X014340Y006880D02*
X014493Y006880D01*
X014570Y006804D01*
X014570Y006497D01*
X014723Y006420D02*
X015030Y006420D01*
X014877Y006420D02*
X014877Y006880D01*
X015030Y006727D01*
X014954Y007420D02*
X014800Y007420D01*
X014723Y007497D01*
X014723Y007804D01*
X014800Y007880D01*
X014954Y007880D01*
X015030Y007804D01*
X015030Y007727D01*
X014954Y007650D01*
X014723Y007650D01*
X014954Y007420D02*
X015030Y007497D01*
X014954Y008420D02*
X015030Y008497D01*
X015030Y008573D01*
X014954Y008650D01*
X014800Y008650D01*
X014723Y008573D01*
X014723Y008497D01*
X014800Y008420D01*
X014954Y008420D01*
X014954Y008650D02*
X015030Y008727D01*
X015030Y008804D01*
X014954Y008880D01*
X014800Y008880D01*
X014723Y008804D01*
X014723Y008727D01*
X014800Y008650D01*
X015030Y009420D02*
X015030Y009497D01*
X014723Y009804D01*
X014723Y009880D01*
X015030Y009880D01*
X014954Y010420D02*
X014800Y010420D01*
X014723Y010497D01*
X014723Y010573D01*
X014800Y010650D01*
X015030Y010650D01*
X015030Y010497D01*
X014954Y010420D01*
X015030Y010650D02*
X014877Y010804D01*
X014723Y010880D01*
X014800Y011420D02*
X014723Y011497D01*
X014723Y011650D01*
X014800Y011727D01*
X014877Y011727D01*
X015030Y011650D01*
X015030Y011880D01*
X014723Y011880D01*
X014800Y011420D02*
X014954Y011420D01*
X015030Y011497D01*
X014800Y012420D02*
X014800Y012880D01*
X015030Y012650D01*
X014723Y012650D01*
X014800Y013420D02*
X014954Y013420D01*
X015030Y013497D01*
X014877Y013650D02*
X014800Y013650D01*
X014723Y013573D01*
X014723Y013497D01*
X014800Y013420D01*
X014800Y013650D02*
X014723Y013727D01*
X014723Y013804D01*
X014800Y013880D01*
X014954Y013880D01*
X015030Y013804D01*
X015030Y014420D02*
X014723Y014420D01*
X014723Y014727D02*
X014723Y014804D01*
X014800Y014880D01*
X014954Y014880D01*
X015030Y014804D01*
X014723Y014727D02*
X015030Y014420D01*
X015030Y015420D02*
X014723Y015420D01*
X014877Y015420D02*
X014877Y015880D01*
X015030Y015727D01*
X014954Y016420D02*
X015030Y016497D01*
X014723Y016804D01*
X014723Y016497D01*
X014800Y016420D01*
X014954Y016420D01*
X015030Y016497D02*
X015030Y016804D01*
X014954Y016880D01*
X014800Y016880D01*
X014723Y016804D01*
X014877Y005880D02*
X014877Y005420D01*
X015030Y005420D02*
X014723Y005420D01*
X014570Y005420D02*
X014263Y005420D01*
X014417Y005420D02*
X014417Y005880D01*
X014570Y005727D01*
X014877Y005880D02*
X015030Y005727D01*
X016679Y003705D02*
X016603Y003629D01*
X016603Y003322D01*
X016679Y003245D01*
X016910Y003245D01*
X016910Y003705D01*
X016679Y003705D01*
X017063Y003705D02*
X017063Y003245D01*
X017370Y003705D01*
X017370Y003245D01*
X017523Y003322D02*
X017523Y003475D01*
X017677Y003475D01*
X017830Y003322D02*
X017754Y003245D01*
X017600Y003245D01*
X017523Y003322D01*
X017523Y003629D02*
X017600Y003705D01*
X017754Y003705D01*
X017830Y003629D01*
X017830Y003322D01*
D12*
X015675Y005650D02*
X015050Y005650D01*
X015050Y006650D02*
X015675Y006650D01*
X015675Y007650D02*
X015050Y007650D01*
X015050Y008650D02*
X015675Y008650D01*
X015675Y009650D02*
X015050Y009650D01*
X015050Y010650D02*
X015675Y010650D01*
X015675Y011650D02*
X015050Y011650D01*
X015050Y012650D02*
X015675Y012650D01*
X015675Y013650D02*
X015050Y013650D01*
X015050Y014650D02*
X015675Y014650D01*
X015675Y015650D02*
X015050Y015650D01*
X015050Y016650D02*
X015675Y016650D01*
X006175Y016650D02*
X005550Y016650D01*
X005550Y015650D02*
X006175Y015650D01*
X006175Y014650D02*
X005550Y014650D01*
X005550Y013650D02*
X006175Y013650D01*
X006175Y012650D02*
X005550Y012650D01*
X005550Y011650D02*
X006175Y011650D01*
X006175Y010650D02*
X005550Y010650D01*
X005550Y009650D02*
X006175Y009650D01*
X006175Y008650D02*
X005550Y008650D01*
X005550Y007650D02*
X006175Y007650D01*
X006175Y006650D02*
X005550Y006650D01*
X005550Y005650D02*
X006175Y005650D01*
M02*
