%
M48
M72
T01C0.0400
T02C0.0433
T03C0.1000
%
T01
X9060Y5070
X10060Y5070
X11060Y5070
X12060Y5070
X13060Y5070
X14060Y5070
X9980Y11650
X13000Y12070
X12860Y14490
X12820Y15530
X12500Y17150
X11500Y17150
X10500Y17150
X9500Y17150
X8500Y17150
X13500Y17150
T02
X16050Y16650
X16050Y15650
X16050Y14650
X16050Y13650
X16050Y12650
X16050Y11650
X16050Y10650
X16050Y9650
X16050Y8650
X16050Y7650
X16050Y6650
X16050Y5650
X17050Y5650
X17050Y6650
X17050Y7650
X17050Y8650
X17050Y9650
X17050Y10650
X17050Y11650
X17050Y12650
X17050Y13650
X17050Y14650
X17050Y15650
X17050Y16650
X18050Y16650
X18050Y15650
X18050Y14650
X18050Y13650
X18050Y12650
X18050Y11650
X18050Y10650
X18050Y9650
X18050Y8650
X18050Y7650
X18050Y6650
X18050Y5650
X18050Y2650
X17050Y2650
X16050Y2650
X14050Y1400
X13050Y1400
X12050Y1400
X11050Y1400
X10050Y1400
X9050Y1400
X8050Y1400
X7050Y1400
X5050Y2650
X4050Y2650
X3050Y2650
X3050Y5650
X3050Y6650
X3050Y7650
X3050Y8650
X3050Y9650
X3050Y10650
X3050Y11650
X3050Y12650
X3050Y13650
X3050Y14650
X3050Y15650
X3050Y16650
X4050Y16650
X4050Y15650
X4050Y14650
X4050Y13650
X4050Y12650
X4050Y11650
X4050Y10650
X4050Y9650
X4050Y8650
X4050Y7650
X4050Y6650
X4050Y5650
X5050Y5650
X5050Y6650
X5050Y7650
X5050Y8650
X5050Y9650
X5050Y10650
X5050Y11650
X5050Y12650
X5050Y13650
X5050Y14650
X5050Y15650
X5050Y16650
T03
X1300Y1400
X1300Y18900
X19800Y18900
X19800Y1400
M30
