G75*
G70*
%OFA0B0*%
%FSLAX24Y24*%
%IPPOS*%
%LPD*%
%AMOC8*
5,1,8,0,0,1.08239X$1,22.5*
%
%ADD10C,0.0060*%
%ADD11C,0.0673*%
%ADD12C,0.1400*%
%ADD13C,0.0640*%
%ADD14C,0.0640*%
%ADD15C,0.0160*%
D10*
X000140Y000140D02*
X000140Y026240D01*
X020940Y026240D01*
X020940Y000140D01*
X000140Y000140D01*
D11*
X003050Y002650D03*
X004050Y002650D03*
X005050Y002650D03*
X007050Y001400D03*
X008050Y001400D03*
X009050Y001400D03*
X010050Y001400D03*
X011050Y001400D03*
X012050Y001400D03*
X013050Y001400D03*
X014050Y001400D03*
X016050Y002650D03*
X017050Y002650D03*
X018050Y002650D03*
X018050Y005650D03*
X018050Y006650D03*
X018050Y007650D03*
X018050Y008650D03*
X018050Y009650D03*
X018050Y010650D03*
X018050Y011650D03*
X018050Y012650D03*
X018050Y013650D03*
X018050Y014650D03*
X018050Y015650D03*
X018050Y016650D03*
X017050Y016650D03*
X016050Y016650D03*
X016050Y015650D03*
X016050Y014650D03*
X016050Y013650D03*
X016050Y012650D03*
X016050Y011650D03*
X016050Y010650D03*
X016050Y009650D03*
X016050Y008650D03*
X016050Y007650D03*
X016050Y006650D03*
X016050Y005650D03*
X017050Y005650D03*
X017050Y006650D03*
X017050Y007650D03*
X017050Y008650D03*
X017050Y009650D03*
X017050Y010650D03*
X017050Y011650D03*
X017050Y012650D03*
X017050Y013650D03*
X017050Y014650D03*
X017050Y015650D03*
X005050Y015650D03*
X004050Y015650D03*
X004050Y016650D03*
X005050Y016650D03*
X005050Y014650D03*
X004050Y014650D03*
X004050Y013650D03*
X004050Y012650D03*
X004050Y011650D03*
X004050Y010650D03*
X004050Y009650D03*
X004050Y008650D03*
X004050Y007650D03*
X004050Y006650D03*
X004050Y005650D03*
X005050Y005650D03*
X005050Y006650D03*
X005050Y007650D03*
X005050Y008650D03*
X005050Y009650D03*
X005050Y010650D03*
X005050Y011650D03*
X005050Y012650D03*
X005050Y013650D03*
X003050Y013650D03*
X003050Y014650D03*
X003050Y015650D03*
X003050Y016650D03*
X003050Y012650D03*
X003050Y011650D03*
X003050Y010650D03*
X003050Y009650D03*
X003050Y008650D03*
X003050Y007650D03*
X003050Y006650D03*
X003050Y005650D03*
D12*
X001300Y001400D03*
X001300Y018900D03*
X019800Y018900D03*
X019800Y001400D03*
D13*
X013000Y012070D03*
X012860Y014490D03*
X012820Y015530D03*
X009980Y011650D03*
D14*
X009500Y016830D02*
X009500Y017470D01*
X010500Y017470D02*
X010500Y016830D01*
X011500Y016830D02*
X011500Y017470D01*
X012500Y017470D02*
X012500Y016830D01*
X013500Y016830D02*
X013500Y017470D01*
X008500Y017470D02*
X008500Y016830D01*
X009060Y005390D02*
X009060Y004750D01*
X010060Y004750D02*
X010060Y005390D01*
X011060Y005390D02*
X011060Y004750D01*
X012060Y004750D02*
X012060Y005390D01*
X013060Y005390D02*
X013060Y004750D01*
X014060Y004750D02*
X014060Y005390D01*
D15*
X014060Y005070D02*
X014050Y005060D01*
X014050Y001400D01*
X013050Y001400D02*
X013050Y005060D01*
X013060Y005070D01*
X011060Y005070D02*
X011050Y005060D01*
X011050Y001400D01*
X010050Y001400D02*
X010050Y005060D01*
X010060Y005070D01*
X009980Y011650D02*
X009980Y013150D01*
X008500Y014630D01*
X008500Y017150D01*
X009500Y017150D02*
X009640Y017010D01*
X009640Y015870D01*
X010140Y015370D01*
X010140Y014610D01*
X012680Y012070D01*
X013000Y012070D01*
X012800Y014470D02*
X012680Y014590D01*
X012760Y014590D01*
X012860Y014490D01*
X012800Y014470D02*
X013580Y014470D01*
X013800Y014690D01*
X013800Y016010D01*
X013640Y016170D01*
X012660Y016170D01*
X012500Y016330D01*
X012500Y017150D01*
X011560Y017090D02*
X011560Y015870D01*
X011900Y015530D01*
X012820Y015530D01*
X011560Y017090D02*
X011500Y017150D01*
M02*
