G75*
G70*
%OFA0B0*%
%FSLAX24Y24*%
%IPPOS*%
%LPD*%
%AMOC8*
5,1,8,0,0,1.08239X$1,22.5*
%
%ADD10C,0.0760*%
%ADD11C,0.0650*%
%ADD12C,0.0600*%
%ADD13R,0.0472X0.0472*%
%ADD14R,0.0433X0.0394*%
%ADD15R,0.0394X0.0433*%
%ADD16R,0.0354X0.0394*%
%ADD17R,0.0394X0.0354*%
%ADD18C,0.0560*%
%ADD19R,0.0394X0.0118*%
%ADD20C,0.0795*%
%ADD21C,0.0560*%
%ADD22R,0.0276X0.0236*%
%ADD23R,0.0709X0.0610*%
%ADD24R,0.1669X0.1500*%
%ADD25R,0.0827X0.0591*%
%ADD26C,0.0750*%
%ADD27C,0.0060*%
%ADD28C,0.0310*%
%ADD29C,0.0120*%
%ADD30C,0.0160*%
%ADD31C,0.0320*%
%ADD32C,0.0400*%
%ADD33C,0.0240*%
D10*
X017970Y005075D03*
X018970Y005075D03*
X011970Y016155D03*
X010970Y016155D03*
X008970Y016155D03*
X007970Y016155D03*
D11*
X009970Y005075D03*
X010970Y005075D03*
X011970Y005075D03*
X012970Y005075D03*
X013970Y005075D03*
X014970Y005075D03*
X015970Y005075D03*
D12*
X016450Y006585D02*
X016450Y007185D01*
X017450Y007185D02*
X017450Y006585D01*
X018450Y006585D02*
X018450Y007185D01*
D13*
X014960Y009862D03*
X014960Y010688D03*
X014820Y013072D03*
X014820Y013898D03*
X008163Y011925D03*
X007337Y011925D03*
D14*
X014960Y009330D03*
X014960Y008660D03*
D15*
X011295Y011735D03*
X010625Y011735D03*
X009525Y011925D03*
X008855Y011925D03*
X012715Y015395D03*
X013385Y015395D03*
X008615Y005585D03*
X007945Y005585D03*
X005625Y005745D03*
X004955Y005745D03*
X004305Y005745D03*
X003635Y005745D03*
X003635Y004935D03*
X004305Y004935D03*
X004955Y004935D03*
X005625Y004935D03*
D16*
X011378Y006666D03*
X011378Y007256D03*
X011378Y007847D03*
X011378Y008438D03*
X011378Y009028D03*
X011378Y009619D03*
X011378Y010209D03*
X011378Y010800D03*
D17*
X010851Y011107D03*
X010260Y011107D03*
X009669Y011107D03*
X009079Y011107D03*
X008488Y011107D03*
X007898Y011107D03*
X007307Y011107D03*
X006717Y011107D03*
X006126Y011107D03*
X005536Y011107D03*
X004945Y011107D03*
X004354Y011107D03*
X003764Y011107D03*
X003764Y006343D03*
X004354Y006343D03*
X004945Y006343D03*
X005536Y006343D03*
X006126Y006343D03*
X006717Y006343D03*
X007307Y006343D03*
X007898Y006343D03*
X008488Y006343D03*
X009079Y006343D03*
X009669Y006343D03*
X010260Y006343D03*
X010851Y006343D03*
D18*
X012180Y011325D02*
X012180Y011885D01*
X013180Y011885D02*
X013180Y011325D01*
D19*
X013922Y008485D03*
X013922Y008229D03*
X013922Y007973D03*
X013922Y007717D03*
X013922Y007461D03*
X013922Y007205D03*
X013922Y006950D03*
X013922Y006694D03*
X013922Y006438D03*
X013922Y006182D03*
X012170Y006182D03*
X012170Y006438D03*
X012170Y006694D03*
X012170Y006950D03*
X012170Y007205D03*
X012170Y007461D03*
X012170Y007717D03*
X012170Y007973D03*
X012170Y008229D03*
X012170Y008485D03*
D20*
X014070Y014855D03*
X016210Y014855D03*
X017170Y014855D03*
X019310Y014855D03*
X019310Y017615D03*
X017170Y017615D03*
X016210Y017615D03*
X014070Y017615D03*
D21*
X015140Y017325D03*
X015140Y016535D03*
X015140Y015745D03*
X015140Y014955D03*
X018240Y014955D03*
X018240Y015745D03*
X018240Y016535D03*
X018240Y017325D03*
D22*
X012676Y010019D03*
X012676Y009271D03*
X013464Y009645D03*
D23*
X014050Y009182D03*
X014050Y010108D03*
X012070Y010108D03*
X012070Y009182D03*
D24*
X010622Y013395D03*
X008110Y013395D03*
D25*
X014920Y007534D03*
X014920Y006116D03*
D26*
X005920Y013295D03*
X005920Y015165D03*
X005920Y017035D03*
D27*
X003635Y004725D02*
X003755Y004605D01*
X005980Y004605D01*
X006310Y004935D01*
X009250Y004935D01*
X009580Y004605D01*
X010500Y004605D01*
X010970Y005075D01*
X010878Y005585D02*
X010948Y005655D01*
X010878Y005585D02*
X008615Y005585D01*
X008315Y005955D02*
X009520Y005955D01*
X009670Y006105D01*
X009670Y006343D01*
X009669Y006343D01*
X008315Y005955D02*
X007945Y005585D01*
X006130Y005565D02*
X005950Y005745D01*
X005625Y005745D01*
X005536Y006343D02*
X005650Y006458D01*
X005650Y006525D01*
X006940Y007815D01*
X010810Y007815D01*
X010810Y008235D02*
X007180Y008235D01*
X005650Y006705D01*
X003880Y006705D01*
X003790Y006615D01*
X003790Y006369D01*
X003764Y006343D01*
X003340Y006040D02*
X003340Y006735D01*
X003580Y006975D01*
X003850Y006975D01*
X004354Y006343D02*
X004354Y005745D01*
X004354Y004935D01*
X004305Y004935D01*
X004955Y004935D02*
X004955Y005745D01*
X004945Y005745D01*
X004945Y006343D01*
X004354Y005745D02*
X004305Y005745D01*
X003635Y005745D02*
X003340Y006040D01*
X003635Y004935D02*
X003635Y004725D01*
X005625Y004935D02*
X006070Y004935D01*
X006190Y005055D01*
X009970Y005055D01*
X011560Y006015D02*
X011727Y006182D01*
X012170Y006182D01*
X013420Y006045D02*
X013600Y005865D01*
X014230Y005865D01*
X014350Y005985D01*
X014350Y006645D01*
X014470Y006765D01*
X015310Y006765D01*
X015430Y006645D01*
X015430Y005595D01*
X014970Y005135D01*
X014970Y005075D01*
X015524Y005091D02*
X015555Y005091D01*
X015555Y005033D02*
X015524Y005033D01*
X015555Y004992D02*
X015618Y004840D01*
X015735Y004723D01*
X015887Y004660D01*
X016053Y004660D01*
X016205Y004723D01*
X016322Y004840D01*
X016385Y004992D01*
X016385Y005158D01*
X016322Y005310D01*
X016205Y005427D01*
X016053Y005490D01*
X015887Y005490D01*
X015780Y005445D01*
X015720Y005505D01*
X015720Y005505D01*
X015670Y005555D01*
X015670Y006085D01*
X015686Y006069D01*
X016106Y005649D01*
X016212Y005605D01*
X018038Y005605D01*
X018144Y005649D01*
X018226Y005731D01*
X018696Y006201D01*
X018740Y006307D01*
X018740Y006323D01*
X018781Y006364D01*
X018840Y006507D01*
X018840Y007263D01*
X018781Y007406D01*
X018671Y007516D01*
X018528Y007575D01*
X018372Y007575D01*
X018229Y007516D01*
X018119Y007406D01*
X018060Y007263D01*
X018060Y006507D01*
X018096Y006421D01*
X017860Y006185D01*
X016610Y006185D01*
X016615Y006187D01*
X016675Y006217D01*
X016730Y006257D01*
X016778Y006305D01*
X016818Y006360D01*
X016848Y006420D01*
X016869Y006484D01*
X016880Y006551D01*
X016880Y006855D01*
X016480Y006855D01*
X016480Y006915D01*
X016420Y006915D01*
X016420Y007615D01*
X016416Y007615D01*
X016349Y007604D01*
X016285Y007583D01*
X016225Y007553D01*
X016170Y007513D01*
X016122Y007465D01*
X016082Y007410D01*
X016076Y007399D01*
X015766Y007709D01*
X015684Y007791D01*
X015578Y007835D01*
X015537Y007835D01*
X015550Y010425D01*
X015286Y010689D01*
X015286Y010962D01*
X015233Y011015D01*
X014960Y011015D01*
X013750Y012225D01*
X013326Y012225D01*
X013254Y012255D01*
X013106Y012255D01*
X013034Y012225D01*
X012326Y012225D01*
X012254Y012255D01*
X012106Y012255D01*
X012034Y012225D01*
X011980Y012225D01*
X011546Y012659D01*
X011546Y014182D01*
X011494Y014235D01*
X010192Y014235D01*
X009728Y014699D01*
X009646Y014781D01*
X009539Y014825D01*
X009380Y014825D01*
X009160Y015045D01*
X008940Y015045D01*
X008260Y015725D01*
X008260Y015780D01*
X008368Y015889D01*
X008440Y016062D01*
X008440Y016248D01*
X008368Y016421D01*
X008236Y016553D01*
X008063Y016625D01*
X007877Y016625D01*
X007704Y016553D01*
X007572Y016421D01*
X007500Y016248D01*
X007500Y016062D01*
X007572Y015889D01*
X007680Y015780D01*
X007680Y015547D01*
X007724Y015441D01*
X007806Y015359D01*
X008120Y015045D01*
X006870Y015045D01*
X006504Y015411D01*
X006398Y015455D01*
X006288Y015455D01*
X006183Y015559D01*
X006012Y015630D01*
X005828Y015630D01*
X005657Y015559D01*
X005526Y015428D01*
X005455Y015257D01*
X005455Y015073D01*
X005466Y015045D01*
X003230Y015045D01*
X003230Y018995D01*
X012920Y018995D01*
X013060Y018855D01*
X013060Y014115D01*
X013840Y013335D01*
X014316Y013335D01*
X014494Y013157D01*
X014494Y012798D01*
X014546Y012745D01*
X015093Y012745D01*
X015146Y012798D01*
X015146Y013335D01*
X016826Y013335D01*
X016746Y013255D01*
X016620Y012950D01*
X016620Y012620D01*
X016746Y012315D01*
X016980Y012081D01*
X017285Y011955D01*
X017615Y011955D01*
X017920Y012081D01*
X018154Y012315D01*
X018280Y012620D01*
X018280Y012950D01*
X018154Y013255D01*
X018074Y013335D01*
X019710Y013335D01*
X019710Y004415D01*
X015521Y004415D01*
X015525Y005360D01*
X015550Y005335D01*
X015606Y005280D01*
X015555Y005158D01*
X015555Y004992D01*
X015563Y004974D02*
X015524Y004974D01*
X015523Y004916D02*
X015587Y004916D01*
X015611Y004857D02*
X015523Y004857D01*
X015523Y004799D02*
X015660Y004799D01*
X015718Y004740D02*
X015522Y004740D01*
X015522Y004682D02*
X015836Y004682D01*
X016104Y004682D02*
X017644Y004682D01*
X017638Y004686D02*
X017703Y004639D01*
X017774Y004602D01*
X017851Y004578D01*
X017930Y004565D01*
X017940Y004565D01*
X017940Y005045D01*
X018000Y005045D01*
X018000Y005105D01*
X018480Y005105D01*
X018480Y005115D01*
X018467Y005194D01*
X018443Y005271D01*
X018406Y005342D01*
X018359Y005407D01*
X018302Y005464D01*
X018237Y005511D01*
X018166Y005548D01*
X018089Y005572D01*
X018010Y005585D01*
X018000Y005585D01*
X018000Y005105D01*
X017940Y005105D01*
X017940Y005585D01*
X017930Y005585D01*
X017851Y005572D01*
X017774Y005548D01*
X017703Y005511D01*
X017638Y005464D01*
X017581Y005407D01*
X017534Y005342D01*
X017497Y005271D01*
X017473Y005194D01*
X017460Y005115D01*
X017460Y005105D01*
X017940Y005105D01*
X017940Y005045D01*
X017460Y005045D01*
X017460Y005035D01*
X017473Y004956D01*
X017497Y004879D01*
X017534Y004808D01*
X017581Y004743D01*
X017638Y004686D01*
X017584Y004740D02*
X016222Y004740D01*
X016280Y004799D02*
X017540Y004799D01*
X017509Y004857D02*
X016329Y004857D01*
X016353Y004916D02*
X017486Y004916D01*
X017470Y004974D02*
X016377Y004974D01*
X016385Y005033D02*
X017460Y005033D01*
X017465Y005150D02*
X016385Y005150D01*
X016385Y005091D02*
X017940Y005091D01*
X017940Y005033D02*
X018000Y005033D01*
X018000Y005045D02*
X018000Y004565D01*
X018010Y004565D01*
X018089Y004578D01*
X018166Y004602D01*
X018237Y004639D01*
X018302Y004686D01*
X018359Y004743D01*
X018406Y004808D01*
X018443Y004879D01*
X018467Y004956D01*
X018480Y005035D01*
X018480Y005045D01*
X018000Y005045D01*
X018000Y005091D02*
X018500Y005091D01*
X018500Y005033D02*
X018480Y005033D01*
X018500Y004982D02*
X018572Y004809D01*
X018704Y004677D01*
X018877Y004605D01*
X019063Y004605D01*
X019236Y004677D01*
X019368Y004809D01*
X019440Y004982D01*
X019440Y005168D01*
X019368Y005341D01*
X019236Y005473D01*
X019063Y005545D01*
X018877Y005545D01*
X018704Y005473D01*
X018572Y005341D01*
X018500Y005168D01*
X018500Y004982D01*
X018503Y004974D02*
X018470Y004974D01*
X018454Y004916D02*
X018527Y004916D01*
X018552Y004857D02*
X018431Y004857D01*
X018400Y004799D02*
X018582Y004799D01*
X018640Y004740D02*
X018356Y004740D01*
X018296Y004682D02*
X018699Y004682D01*
X018833Y004623D02*
X018206Y004623D01*
X018000Y004623D02*
X017940Y004623D01*
X017940Y004682D02*
X018000Y004682D01*
X018000Y004740D02*
X017940Y004740D01*
X017940Y004799D02*
X018000Y004799D01*
X018000Y004857D02*
X017940Y004857D01*
X017940Y004916D02*
X018000Y004916D01*
X018000Y004974D02*
X017940Y004974D01*
X017940Y005150D02*
X018000Y005150D01*
X018000Y005208D02*
X017940Y005208D01*
X017940Y005267D02*
X018000Y005267D01*
X018000Y005325D02*
X017940Y005325D01*
X017940Y005384D02*
X018000Y005384D01*
X018000Y005442D02*
X017940Y005442D01*
X017940Y005501D02*
X018000Y005501D01*
X018000Y005559D02*
X017940Y005559D01*
X017809Y005559D02*
X015670Y005559D01*
X015670Y005618D02*
X016182Y005618D01*
X016079Y005676D02*
X015670Y005676D01*
X015670Y005735D02*
X016020Y005735D01*
X015962Y005793D02*
X015670Y005793D01*
X015670Y005852D02*
X015903Y005852D01*
X015845Y005910D02*
X015670Y005910D01*
X015670Y005969D02*
X015786Y005969D01*
X015728Y006027D02*
X015670Y006027D01*
X015724Y005501D02*
X017688Y005501D01*
X017616Y005442D02*
X016168Y005442D01*
X016248Y005384D02*
X017564Y005384D01*
X017525Y005325D02*
X016307Y005325D01*
X016340Y005267D02*
X017496Y005267D01*
X017477Y005208D02*
X016364Y005208D01*
X015970Y005085D02*
X015760Y005295D01*
X015670Y005385D01*
X015550Y005505D01*
X015550Y006735D01*
X015400Y006885D01*
X014410Y006885D01*
X014230Y006705D01*
X014230Y006045D01*
X014170Y005985D01*
X013660Y005985D01*
X013570Y006075D01*
X013570Y007365D01*
X013660Y007455D01*
X013930Y007455D01*
X013928Y007455D02*
X013922Y007461D01*
X013914Y007965D02*
X013570Y007965D01*
X013420Y007815D01*
X013420Y006045D01*
X012422Y007717D02*
X012170Y007717D01*
X012422Y007717D02*
X012640Y007935D01*
X012904Y008229D02*
X012170Y008229D01*
X012904Y008229D02*
X012910Y008235D01*
X013914Y007965D02*
X013922Y007973D01*
X013044Y009271D02*
X012894Y009271D01*
X012580Y009585D01*
X012580Y009645D01*
X012180Y011605D02*
X012050Y011735D01*
X011295Y011735D01*
X010985Y012045D01*
X010090Y012045D01*
X009850Y012285D01*
X004660Y012285D01*
X003910Y011535D01*
X003880Y011505D01*
X003764Y011389D01*
X003764Y011107D01*
X004945Y011107D02*
X004945Y011610D01*
X005260Y011925D01*
X007337Y011925D01*
X008163Y011925D02*
X008855Y011925D01*
X009525Y011925D02*
X009880Y011925D01*
X010090Y011715D01*
X010605Y011715D01*
X010625Y011735D01*
X011567Y012638D02*
X016620Y012638D01*
X016620Y012696D02*
X011546Y012696D01*
X011546Y012755D02*
X014537Y012755D01*
X014494Y012813D02*
X011546Y012813D01*
X011546Y012872D02*
X014494Y012872D01*
X014494Y012930D02*
X011546Y012930D01*
X011546Y012989D02*
X014494Y012989D01*
X014494Y013047D02*
X011546Y013047D01*
X011546Y013106D02*
X014494Y013106D01*
X014487Y013164D02*
X011546Y013164D01*
X011546Y013223D02*
X014429Y013223D01*
X014370Y013281D02*
X011546Y013281D01*
X011546Y013340D02*
X013835Y013340D01*
X013777Y013398D02*
X011546Y013398D01*
X011546Y013457D02*
X013718Y013457D01*
X013660Y013515D02*
X011546Y013515D01*
X011546Y013574D02*
X013601Y013574D01*
X013543Y013632D02*
X011546Y013632D01*
X011546Y013691D02*
X013484Y013691D01*
X013426Y013749D02*
X011546Y013749D01*
X011546Y013808D02*
X013367Y013808D01*
X013309Y013866D02*
X011546Y013866D01*
X011546Y013925D02*
X013250Y013925D01*
X013192Y013983D02*
X011546Y013983D01*
X011546Y014042D02*
X013133Y014042D01*
X013075Y014100D02*
X011546Y014100D01*
X011546Y014159D02*
X013060Y014159D01*
X013060Y014217D02*
X011512Y014217D01*
X012414Y015099D02*
X012439Y015074D01*
X012468Y015057D01*
X012501Y015048D01*
X012685Y015048D01*
X012685Y015365D01*
X012389Y015365D01*
X012389Y015161D01*
X012397Y015128D01*
X012414Y015099D01*
X012419Y015095D02*
X008891Y015095D01*
X008832Y015153D02*
X012391Y015153D01*
X012389Y015212D02*
X008774Y015212D01*
X008715Y015270D02*
X012389Y015270D01*
X012389Y015329D02*
X008657Y015329D01*
X008598Y015387D02*
X012685Y015387D01*
X012685Y015365D02*
X012685Y015425D01*
X012389Y015425D01*
X012389Y015629D01*
X012397Y015662D01*
X012414Y015691D01*
X012439Y015716D01*
X012468Y015733D01*
X012501Y015742D01*
X012685Y015742D01*
X012685Y015425D01*
X012745Y015425D01*
X012745Y015742D01*
X012929Y015742D01*
X012962Y015733D01*
X012992Y015716D01*
X013016Y015691D01*
X013033Y015662D01*
X013042Y015629D01*
X013042Y015425D01*
X012745Y015425D01*
X012745Y015365D01*
X012745Y015048D01*
X012929Y015048D01*
X012962Y015057D01*
X012992Y015074D01*
X013016Y015099D01*
X013033Y015128D01*
X013042Y015161D01*
X013042Y015365D01*
X012745Y015365D01*
X012685Y015365D01*
X012685Y015329D02*
X012745Y015329D01*
X012745Y015387D02*
X013060Y015387D01*
X013060Y015329D02*
X013042Y015329D01*
X013042Y015270D02*
X013060Y015270D01*
X013060Y015212D02*
X013042Y015212D01*
X013040Y015153D02*
X013060Y015153D01*
X013060Y015095D02*
X013012Y015095D01*
X013060Y015036D02*
X009169Y015036D01*
X009227Y014978D02*
X013060Y014978D01*
X013060Y014919D02*
X009286Y014919D01*
X009344Y014861D02*
X013060Y014861D01*
X013060Y014802D02*
X009595Y014802D01*
X009683Y014744D02*
X013060Y014744D01*
X013060Y014685D02*
X009742Y014685D01*
X009800Y014627D02*
X013060Y014627D01*
X013060Y014568D02*
X009859Y014568D01*
X009917Y014510D02*
X013060Y014510D01*
X013060Y014451D02*
X009976Y014451D01*
X010034Y014393D02*
X013060Y014393D01*
X013060Y014334D02*
X010093Y014334D01*
X010151Y014276D02*
X013060Y014276D01*
X012745Y015095D02*
X012685Y015095D01*
X012685Y015153D02*
X012745Y015153D01*
X012745Y015212D02*
X012685Y015212D01*
X012685Y015270D02*
X012745Y015270D01*
X012745Y015446D02*
X012685Y015446D01*
X012685Y015504D02*
X012745Y015504D01*
X012745Y015563D02*
X012685Y015563D01*
X012685Y015621D02*
X012745Y015621D01*
X012745Y015680D02*
X012685Y015680D01*
X012685Y015738D02*
X012745Y015738D01*
X012942Y015738D02*
X013060Y015738D01*
X013060Y015680D02*
X013023Y015680D01*
X013042Y015621D02*
X013060Y015621D01*
X013060Y015563D02*
X013042Y015563D01*
X013042Y015504D02*
X013060Y015504D01*
X013060Y015446D02*
X013042Y015446D01*
X013060Y015797D02*
X012276Y015797D01*
X012236Y015757D02*
X012368Y015889D01*
X012440Y016062D01*
X012440Y016248D01*
X012368Y016421D01*
X012236Y016553D01*
X012063Y016625D01*
X011877Y016625D01*
X011704Y016553D01*
X011572Y016421D01*
X011500Y016248D01*
X011500Y016062D01*
X011572Y015889D01*
X011704Y015757D01*
X011877Y015685D01*
X012063Y015685D01*
X012236Y015757D01*
X012192Y015738D02*
X012488Y015738D01*
X012408Y015680D02*
X011157Y015680D01*
X011166Y015682D02*
X011237Y015719D01*
X011302Y015766D01*
X011359Y015823D01*
X011406Y015888D01*
X011443Y015959D01*
X011467Y016036D01*
X011480Y016115D01*
X011480Y016125D01*
X011000Y016125D01*
X011000Y016185D01*
X011480Y016185D01*
X011480Y016195D01*
X011467Y016274D01*
X011443Y016351D01*
X011406Y016422D01*
X011359Y016487D01*
X011302Y016544D01*
X011237Y016591D01*
X011166Y016628D01*
X011089Y016652D01*
X011010Y016665D01*
X011000Y016665D01*
X011000Y016185D01*
X010940Y016185D01*
X010940Y016665D01*
X010930Y016665D01*
X010851Y016652D01*
X010774Y016628D01*
X010703Y016591D01*
X010638Y016544D01*
X010581Y016487D01*
X010534Y016422D01*
X010497Y016351D01*
X010473Y016274D01*
X010460Y016195D01*
X010460Y016185D01*
X010940Y016185D01*
X010940Y016125D01*
X011000Y016125D01*
X011000Y015645D01*
X011010Y015645D01*
X011089Y015658D01*
X011166Y015682D01*
X011264Y015738D02*
X011748Y015738D01*
X011664Y015797D02*
X011333Y015797D01*
X011382Y015855D02*
X011605Y015855D01*
X011561Y015914D02*
X011419Y015914D01*
X011447Y015972D02*
X011537Y015972D01*
X011513Y016031D02*
X011466Y016031D01*
X011476Y016089D02*
X011500Y016089D01*
X011500Y016148D02*
X011000Y016148D01*
X011000Y016206D02*
X010940Y016206D01*
X010940Y016148D02*
X009440Y016148D01*
X009440Y016206D02*
X010462Y016206D01*
X010471Y016265D02*
X009433Y016265D01*
X009440Y016248D02*
X009368Y016421D01*
X009236Y016553D01*
X009063Y016625D01*
X008877Y016625D01*
X008704Y016553D01*
X008572Y016421D01*
X008500Y016248D01*
X008500Y016062D01*
X008572Y015889D01*
X008704Y015757D01*
X008877Y015685D01*
X009063Y015685D01*
X009236Y015757D01*
X009368Y015889D01*
X009440Y016062D01*
X009440Y016248D01*
X009409Y016323D02*
X010488Y016323D01*
X010513Y016382D02*
X009385Y016382D01*
X009350Y016440D02*
X010547Y016440D01*
X010592Y016499D02*
X009291Y016499D01*
X009228Y016557D02*
X010656Y016557D01*
X010751Y016616D02*
X009086Y016616D01*
X008854Y016616D02*
X008086Y016616D01*
X008228Y016557D02*
X008712Y016557D01*
X008649Y016499D02*
X008291Y016499D01*
X008350Y016440D02*
X008590Y016440D01*
X008555Y016382D02*
X008385Y016382D01*
X008409Y016323D02*
X008531Y016323D01*
X008507Y016265D02*
X008433Y016265D01*
X008440Y016206D02*
X008500Y016206D01*
X008500Y016148D02*
X008440Y016148D01*
X008440Y016089D02*
X008500Y016089D01*
X008513Y016031D02*
X008427Y016031D01*
X008403Y015972D02*
X008537Y015972D01*
X008561Y015914D02*
X008379Y015914D01*
X008335Y015855D02*
X008605Y015855D01*
X008664Y015797D02*
X008276Y015797D01*
X008260Y015738D02*
X008748Y015738D01*
X008481Y015504D02*
X012389Y015504D01*
X012389Y015446D02*
X008540Y015446D01*
X008423Y015563D02*
X012389Y015563D01*
X012389Y015621D02*
X008364Y015621D01*
X008306Y015680D02*
X010783Y015680D01*
X010774Y015682D02*
X010851Y015658D01*
X010930Y015645D01*
X010940Y015645D01*
X010940Y016125D01*
X010460Y016125D01*
X010460Y016115D01*
X010473Y016036D01*
X010497Y015959D01*
X010534Y015888D01*
X010581Y015823D01*
X010638Y015766D01*
X010703Y015719D01*
X010774Y015682D01*
X010676Y015738D02*
X009192Y015738D01*
X009276Y015797D02*
X010607Y015797D01*
X010558Y015855D02*
X009335Y015855D01*
X009379Y015914D02*
X010521Y015914D01*
X010493Y015972D02*
X009403Y015972D01*
X009427Y016031D02*
X010474Y016031D01*
X010464Y016089D02*
X009440Y016089D01*
X008070Y015095D02*
X006821Y015095D01*
X006762Y015153D02*
X008012Y015153D01*
X007953Y015212D02*
X006704Y015212D01*
X006645Y015270D02*
X007895Y015270D01*
X007836Y015329D02*
X006587Y015329D01*
X006528Y015387D02*
X007778Y015387D01*
X007722Y015446D02*
X006421Y015446D01*
X006239Y015504D02*
X007698Y015504D01*
X007680Y015563D02*
X006175Y015563D01*
X006034Y015621D02*
X007680Y015621D01*
X007680Y015680D02*
X003230Y015680D01*
X003230Y015738D02*
X007680Y015738D01*
X007664Y015797D02*
X003230Y015797D01*
X003230Y015855D02*
X007605Y015855D01*
X007561Y015914D02*
X003230Y015914D01*
X003230Y015972D02*
X007537Y015972D01*
X007513Y016031D02*
X003230Y016031D01*
X003230Y016089D02*
X007500Y016089D01*
X007500Y016148D02*
X003230Y016148D01*
X003230Y016206D02*
X007500Y016206D01*
X007507Y016265D02*
X003230Y016265D01*
X003230Y016323D02*
X007531Y016323D01*
X007555Y016382D02*
X003230Y016382D01*
X003230Y016440D02*
X007590Y016440D01*
X007649Y016499D02*
X003230Y016499D01*
X003230Y016557D02*
X005757Y016557D01*
X005726Y016567D02*
X005802Y016542D01*
X005880Y016530D01*
X005890Y016530D01*
X005890Y017005D01*
X005950Y017005D01*
X005950Y017065D01*
X006425Y017065D01*
X006425Y017075D01*
X006413Y017153D01*
X006388Y017229D01*
X006352Y017300D01*
X006305Y017364D01*
X006249Y017420D01*
X006185Y017467D01*
X006114Y017503D01*
X006038Y017528D01*
X005960Y017540D01*
X005950Y017540D01*
X005950Y017065D01*
X005890Y017065D01*
X005890Y017540D01*
X005880Y017540D01*
X005802Y017528D01*
X005726Y017503D01*
X005655Y017467D01*
X005591Y017420D01*
X005535Y017364D01*
X005488Y017300D01*
X005452Y017229D01*
X005427Y017153D01*
X005415Y017075D01*
X005415Y017065D01*
X005890Y017065D01*
X005890Y017005D01*
X005415Y017005D01*
X005415Y016995D01*
X005427Y016917D01*
X005452Y016841D01*
X005488Y016770D01*
X005535Y016706D01*
X005591Y016650D01*
X005655Y016603D01*
X005726Y016567D01*
X005638Y016616D02*
X003230Y016616D01*
X003230Y016674D02*
X005567Y016674D01*
X005516Y016733D02*
X003230Y016733D01*
X003230Y016791D02*
X005478Y016791D01*
X005449Y016850D02*
X003230Y016850D01*
X003230Y016908D02*
X005430Y016908D01*
X005420Y016967D02*
X003230Y016967D01*
X003230Y017025D02*
X005890Y017025D01*
X005890Y016967D02*
X005950Y016967D01*
X005950Y017005D02*
X005950Y016530D01*
X005960Y016530D01*
X006038Y016542D01*
X006114Y016567D01*
X006185Y016603D01*
X006249Y016650D01*
X006305Y016706D01*
X006352Y016770D01*
X006388Y016841D01*
X006413Y016917D01*
X006425Y016995D01*
X006425Y017005D01*
X005950Y017005D01*
X005950Y017025D02*
X013060Y017025D01*
X013060Y016967D02*
X006420Y016967D01*
X006410Y016908D02*
X013060Y016908D01*
X013060Y016850D02*
X006391Y016850D01*
X006362Y016791D02*
X013060Y016791D01*
X013060Y016733D02*
X006324Y016733D01*
X006273Y016674D02*
X013060Y016674D01*
X013060Y016616D02*
X012086Y016616D01*
X012228Y016557D02*
X013060Y016557D01*
X013060Y016499D02*
X012291Y016499D01*
X012350Y016440D02*
X013060Y016440D01*
X013060Y016382D02*
X012385Y016382D01*
X012409Y016323D02*
X013060Y016323D01*
X013060Y016265D02*
X012433Y016265D01*
X012440Y016206D02*
X013060Y016206D01*
X013060Y016148D02*
X012440Y016148D01*
X012440Y016089D02*
X013060Y016089D01*
X013060Y016031D02*
X012427Y016031D01*
X012403Y015972D02*
X013060Y015972D01*
X013060Y015914D02*
X012379Y015914D01*
X012335Y015855D02*
X013060Y015855D01*
X013060Y017084D02*
X006424Y017084D01*
X006414Y017142D02*
X013060Y017142D01*
X013060Y017201D02*
X006397Y017201D01*
X006373Y017259D02*
X013060Y017259D01*
X013060Y017318D02*
X006339Y017318D01*
X006293Y017376D02*
X013060Y017376D01*
X013060Y017435D02*
X006229Y017435D01*
X006133Y017493D02*
X013060Y017493D01*
X013060Y017552D02*
X003230Y017552D01*
X003230Y017610D02*
X013060Y017610D01*
X013060Y017669D02*
X003230Y017669D01*
X003230Y017727D02*
X013060Y017727D01*
X013060Y017786D02*
X003230Y017786D01*
X003230Y017844D02*
X013060Y017844D01*
X013060Y017903D02*
X003230Y017903D01*
X003230Y017961D02*
X013060Y017961D01*
X013060Y018020D02*
X003230Y018020D01*
X003230Y018078D02*
X013060Y018078D01*
X013060Y018137D02*
X003230Y018137D01*
X003230Y018195D02*
X013060Y018195D01*
X013060Y018254D02*
X003230Y018254D01*
X003230Y018312D02*
X013060Y018312D01*
X013060Y018371D02*
X003230Y018371D01*
X003230Y018429D02*
X013060Y018429D01*
X013060Y018488D02*
X003230Y018488D01*
X003230Y018546D02*
X013060Y018546D01*
X013060Y018605D02*
X003230Y018605D01*
X003230Y018663D02*
X013060Y018663D01*
X013060Y018722D02*
X003230Y018722D01*
X003230Y018780D02*
X013060Y018780D01*
X013060Y018839D02*
X003230Y018839D01*
X003230Y018897D02*
X013018Y018897D01*
X012959Y018956D02*
X003230Y018956D01*
X003230Y017493D02*
X005707Y017493D01*
X005611Y017435D02*
X003230Y017435D01*
X003230Y017376D02*
X005547Y017376D01*
X005501Y017318D02*
X003230Y017318D01*
X003230Y017259D02*
X005467Y017259D01*
X005443Y017201D02*
X003230Y017201D01*
X003230Y017142D02*
X005426Y017142D01*
X005416Y017084D02*
X003230Y017084D01*
X003230Y015621D02*
X005806Y015621D01*
X005665Y015563D02*
X003230Y015563D01*
X003230Y015504D02*
X005601Y015504D01*
X005543Y015446D02*
X003230Y015446D01*
X003230Y015387D02*
X005509Y015387D01*
X005484Y015329D02*
X003230Y015329D01*
X003230Y015270D02*
X005460Y015270D01*
X005455Y015212D02*
X003230Y015212D01*
X003230Y015153D02*
X005455Y015153D01*
X005455Y015095D02*
X003230Y015095D01*
X005890Y016557D02*
X005950Y016557D01*
X005950Y016616D02*
X005890Y016616D01*
X005890Y016674D02*
X005950Y016674D01*
X005950Y016733D02*
X005890Y016733D01*
X005890Y016791D02*
X005950Y016791D01*
X005950Y016850D02*
X005890Y016850D01*
X005890Y016908D02*
X005950Y016908D01*
X005950Y017084D02*
X005890Y017084D01*
X005890Y017142D02*
X005950Y017142D01*
X005950Y017201D02*
X005890Y017201D01*
X005890Y017259D02*
X005950Y017259D01*
X005950Y017318D02*
X005890Y017318D01*
X005890Y017376D02*
X005950Y017376D01*
X005950Y017435D02*
X005890Y017435D01*
X005890Y017493D02*
X005950Y017493D01*
X006202Y016616D02*
X007854Y016616D01*
X007712Y016557D02*
X006083Y016557D01*
X010940Y016557D02*
X011000Y016557D01*
X011000Y016499D02*
X010940Y016499D01*
X010940Y016440D02*
X011000Y016440D01*
X011000Y016382D02*
X010940Y016382D01*
X010940Y016323D02*
X011000Y016323D01*
X011000Y016265D02*
X010940Y016265D01*
X010940Y016089D02*
X011000Y016089D01*
X011000Y016031D02*
X010940Y016031D01*
X010940Y015972D02*
X011000Y015972D01*
X011000Y015914D02*
X010940Y015914D01*
X010940Y015855D02*
X011000Y015855D01*
X011000Y015797D02*
X010940Y015797D01*
X010940Y015738D02*
X011000Y015738D01*
X011000Y015680D02*
X010940Y015680D01*
X011478Y016206D02*
X011500Y016206D01*
X011507Y016265D02*
X011469Y016265D01*
X011452Y016323D02*
X011531Y016323D01*
X011555Y016382D02*
X011427Y016382D01*
X011393Y016440D02*
X011590Y016440D01*
X011649Y016499D02*
X011348Y016499D01*
X011284Y016557D02*
X011712Y016557D01*
X011854Y016616D02*
X011189Y016616D01*
X011000Y016616D02*
X010940Y016616D01*
X015146Y013281D02*
X016772Y013281D01*
X016733Y013223D02*
X015146Y013223D01*
X015146Y013164D02*
X016709Y013164D01*
X016684Y013106D02*
X015146Y013106D01*
X015146Y013047D02*
X016660Y013047D01*
X016636Y012989D02*
X015146Y012989D01*
X015146Y012930D02*
X016620Y012930D01*
X016620Y012872D02*
X015146Y012872D01*
X015146Y012813D02*
X016620Y012813D01*
X016620Y012755D02*
X015103Y012755D01*
X014098Y011877D02*
X019710Y011877D01*
X019710Y011819D02*
X014156Y011819D01*
X014215Y011760D02*
X019710Y011760D01*
X019710Y011702D02*
X014273Y011702D01*
X014332Y011643D02*
X019710Y011643D01*
X019710Y011585D02*
X014390Y011585D01*
X014449Y011526D02*
X019710Y011526D01*
X019710Y011468D02*
X014507Y011468D01*
X014566Y011409D02*
X019710Y011409D01*
X019710Y011351D02*
X014624Y011351D01*
X014683Y011292D02*
X019710Y011292D01*
X019710Y011234D02*
X014741Y011234D01*
X014800Y011175D02*
X019710Y011175D01*
X019710Y011117D02*
X014858Y011117D01*
X014917Y011058D02*
X019710Y011058D01*
X019710Y011000D02*
X015249Y011000D01*
X015286Y010941D02*
X019710Y010941D01*
X019710Y010883D02*
X015286Y010883D01*
X015286Y010824D02*
X019710Y010824D01*
X019710Y010766D02*
X015286Y010766D01*
X015286Y010707D02*
X019710Y010707D01*
X019710Y010649D02*
X015326Y010649D01*
X015385Y010590D02*
X019710Y010590D01*
X019710Y010532D02*
X015443Y010532D01*
X015502Y010473D02*
X019710Y010473D01*
X019710Y010415D02*
X015550Y010415D01*
X015550Y010356D02*
X019710Y010356D01*
X019710Y010298D02*
X015549Y010298D01*
X015549Y010239D02*
X019710Y010239D01*
X019710Y010181D02*
X015549Y010181D01*
X015549Y010122D02*
X019710Y010122D01*
X019710Y010064D02*
X015548Y010064D01*
X015548Y010005D02*
X019710Y010005D01*
X019710Y009947D02*
X015548Y009947D01*
X015547Y009888D02*
X019710Y009888D01*
X019710Y009830D02*
X015547Y009830D01*
X015547Y009771D02*
X019710Y009771D01*
X019710Y009713D02*
X015547Y009713D01*
X015546Y009654D02*
X019710Y009654D01*
X019710Y009596D02*
X015546Y009596D01*
X015546Y009537D02*
X019710Y009537D01*
X019710Y009479D02*
X015545Y009479D01*
X015545Y009420D02*
X019710Y009420D01*
X019710Y009362D02*
X015545Y009362D01*
X015545Y009303D02*
X019710Y009303D01*
X019710Y009245D02*
X015544Y009245D01*
X015544Y009186D02*
X019710Y009186D01*
X019710Y009128D02*
X015544Y009128D01*
X015543Y009069D02*
X019710Y009069D01*
X019710Y009011D02*
X015543Y009011D01*
X015543Y008952D02*
X019710Y008952D01*
X019710Y008894D02*
X015543Y008894D01*
X015542Y008835D02*
X019710Y008835D01*
X019710Y008777D02*
X015542Y008777D01*
X015542Y008718D02*
X019710Y008718D01*
X019710Y008660D02*
X015541Y008660D01*
X015541Y008601D02*
X019710Y008601D01*
X019710Y008543D02*
X015541Y008543D01*
X015541Y008484D02*
X019710Y008484D01*
X019710Y008426D02*
X015540Y008426D01*
X015540Y008367D02*
X019710Y008367D01*
X019710Y008309D02*
X015540Y008309D01*
X015539Y008250D02*
X019710Y008250D01*
X019710Y008192D02*
X015539Y008192D01*
X015539Y008133D02*
X019710Y008133D01*
X019710Y008075D02*
X015539Y008075D01*
X015538Y008016D02*
X019710Y008016D01*
X019710Y007958D02*
X015538Y007958D01*
X015538Y007899D02*
X019710Y007899D01*
X019710Y007841D02*
X015537Y007841D01*
X015693Y007782D02*
X019710Y007782D01*
X019710Y007724D02*
X015752Y007724D01*
X015766Y007709D02*
X015766Y007709D01*
X015810Y007665D02*
X019710Y007665D01*
X019710Y007607D02*
X016537Y007607D01*
X016551Y007604D02*
X016484Y007615D01*
X016480Y007615D01*
X016480Y006915D01*
X016880Y006915D01*
X016880Y007219D01*
X016869Y007286D01*
X016848Y007350D01*
X016818Y007410D01*
X016778Y007465D01*
X016730Y007513D01*
X016675Y007553D01*
X016615Y007583D01*
X016551Y007604D01*
X016480Y007607D02*
X016420Y007607D01*
X016363Y007607D02*
X015869Y007607D01*
X015927Y007548D02*
X016218Y007548D01*
X016146Y007490D02*
X015986Y007490D01*
X016044Y007431D02*
X016097Y007431D01*
X016420Y007431D02*
X016480Y007431D01*
X016480Y007373D02*
X016420Y007373D01*
X016420Y007314D02*
X016480Y007314D01*
X016480Y007256D02*
X016420Y007256D01*
X016420Y007197D02*
X016480Y007197D01*
X016480Y007139D02*
X016420Y007139D01*
X016420Y007080D02*
X016480Y007080D01*
X016480Y007022D02*
X016420Y007022D01*
X016420Y006963D02*
X016480Y006963D01*
X016480Y006905D02*
X017060Y006905D01*
X017060Y006963D02*
X016880Y006963D01*
X016880Y007022D02*
X017060Y007022D01*
X017060Y007080D02*
X016880Y007080D01*
X016880Y007139D02*
X017060Y007139D01*
X017060Y007197D02*
X016880Y007197D01*
X016874Y007256D02*
X017060Y007256D01*
X017060Y007263D02*
X017119Y007406D01*
X017229Y007516D01*
X017372Y007575D01*
X017528Y007575D01*
X017671Y007516D01*
X017781Y007406D01*
X017840Y007263D01*
X017840Y006507D01*
X017781Y006364D01*
X017671Y006254D01*
X017528Y006195D01*
X017372Y006195D01*
X017229Y006254D01*
X017119Y006364D01*
X017060Y006507D01*
X017060Y007263D01*
X017081Y007314D02*
X016860Y007314D01*
X016837Y007373D02*
X017106Y007373D01*
X017144Y007431D02*
X016803Y007431D01*
X016754Y007490D02*
X017203Y007490D01*
X017307Y007548D02*
X016682Y007548D01*
X016480Y007548D02*
X016420Y007548D01*
X016420Y007490D02*
X016480Y007490D01*
X016880Y006846D02*
X017060Y006846D01*
X017060Y006788D02*
X016880Y006788D01*
X016880Y006729D02*
X017060Y006729D01*
X017060Y006671D02*
X016880Y006671D01*
X016880Y006612D02*
X017060Y006612D01*
X017060Y006554D02*
X016880Y006554D01*
X016871Y006495D02*
X017065Y006495D01*
X017089Y006437D02*
X016854Y006437D01*
X016827Y006378D02*
X017114Y006378D01*
X017164Y006320D02*
X016789Y006320D01*
X016734Y006261D02*
X017222Y006261D01*
X017354Y006203D02*
X016646Y006203D01*
X017546Y006203D02*
X017877Y006203D01*
X017936Y006261D02*
X017678Y006261D01*
X017736Y006320D02*
X017994Y006320D01*
X018053Y006378D02*
X017786Y006378D01*
X017811Y006437D02*
X018089Y006437D01*
X018065Y006495D02*
X017835Y006495D01*
X017840Y006554D02*
X018060Y006554D01*
X018060Y006612D02*
X017840Y006612D01*
X017840Y006671D02*
X018060Y006671D01*
X018060Y006729D02*
X017840Y006729D01*
X017840Y006788D02*
X018060Y006788D01*
X018060Y006846D02*
X017840Y006846D01*
X017840Y006905D02*
X018060Y006905D01*
X018060Y006963D02*
X017840Y006963D01*
X017840Y007022D02*
X018060Y007022D01*
X018060Y007080D02*
X017840Y007080D01*
X017840Y007139D02*
X018060Y007139D01*
X018060Y007197D02*
X017840Y007197D01*
X017840Y007256D02*
X018060Y007256D01*
X018081Y007314D02*
X017819Y007314D01*
X017794Y007373D02*
X018106Y007373D01*
X018144Y007431D02*
X017756Y007431D01*
X017697Y007490D02*
X018203Y007490D01*
X018307Y007548D02*
X017593Y007548D01*
X018593Y007548D02*
X019710Y007548D01*
X019710Y007490D02*
X018697Y007490D01*
X018756Y007431D02*
X019710Y007431D01*
X019710Y007373D02*
X018794Y007373D01*
X018819Y007314D02*
X019710Y007314D01*
X019710Y007256D02*
X018840Y007256D01*
X018840Y007197D02*
X019710Y007197D01*
X019710Y007139D02*
X018840Y007139D01*
X018840Y007080D02*
X019710Y007080D01*
X019710Y007022D02*
X018840Y007022D01*
X018840Y006963D02*
X019710Y006963D01*
X019710Y006905D02*
X018840Y006905D01*
X018840Y006846D02*
X019710Y006846D01*
X019710Y006788D02*
X018840Y006788D01*
X018840Y006729D02*
X019710Y006729D01*
X019710Y006671D02*
X018840Y006671D01*
X018840Y006612D02*
X019710Y006612D01*
X019710Y006554D02*
X018840Y006554D01*
X018835Y006495D02*
X019710Y006495D01*
X019710Y006437D02*
X018811Y006437D01*
X018786Y006378D02*
X019710Y006378D01*
X019710Y006320D02*
X018740Y006320D01*
X018721Y006261D02*
X019710Y006261D01*
X019710Y006203D02*
X018697Y006203D01*
X018639Y006144D02*
X019710Y006144D01*
X019710Y006086D02*
X018581Y006086D01*
X018522Y006027D02*
X019710Y006027D01*
X019710Y005969D02*
X018464Y005969D01*
X018405Y005910D02*
X019710Y005910D01*
X019710Y005852D02*
X018347Y005852D01*
X018288Y005793D02*
X019710Y005793D01*
X019710Y005735D02*
X018230Y005735D01*
X018226Y005731D02*
X018226Y005731D01*
X018171Y005676D02*
X019710Y005676D01*
X019710Y005618D02*
X018068Y005618D01*
X018131Y005559D02*
X019710Y005559D01*
X019710Y005501D02*
X019171Y005501D01*
X019268Y005442D02*
X019710Y005442D01*
X019710Y005384D02*
X019326Y005384D01*
X019375Y005325D02*
X019710Y005325D01*
X019710Y005267D02*
X019399Y005267D01*
X019424Y005208D02*
X019710Y005208D01*
X019710Y005150D02*
X019440Y005150D01*
X019440Y005091D02*
X019710Y005091D01*
X019710Y005033D02*
X019440Y005033D01*
X019437Y004974D02*
X019710Y004974D01*
X019710Y004916D02*
X019413Y004916D01*
X019388Y004857D02*
X019710Y004857D01*
X019710Y004799D02*
X019358Y004799D01*
X019300Y004740D02*
X019710Y004740D01*
X019710Y004682D02*
X019241Y004682D01*
X019107Y004623D02*
X019710Y004623D01*
X019710Y004565D02*
X015522Y004565D01*
X015522Y004623D02*
X017734Y004623D01*
X018475Y005150D02*
X018500Y005150D01*
X018516Y005208D02*
X018463Y005208D01*
X018444Y005267D02*
X018541Y005267D01*
X018565Y005325D02*
X018415Y005325D01*
X018376Y005384D02*
X018614Y005384D01*
X018672Y005442D02*
X018324Y005442D01*
X018252Y005501D02*
X018769Y005501D01*
X019710Y004506D02*
X015521Y004506D01*
X015521Y004448D02*
X019710Y004448D01*
X015600Y005267D02*
X015525Y005267D01*
X015525Y005325D02*
X015560Y005325D01*
X015550Y005335D02*
X015550Y005335D01*
X015525Y005208D02*
X015576Y005208D01*
X015555Y005150D02*
X015524Y005150D01*
X014039Y011936D02*
X019710Y011936D01*
X019710Y011994D02*
X017709Y011994D01*
X017851Y012053D02*
X019710Y012053D01*
X019710Y012111D02*
X017950Y012111D01*
X018008Y012170D02*
X019710Y012170D01*
X019710Y012228D02*
X018067Y012228D01*
X018125Y012287D02*
X019710Y012287D01*
X019710Y012345D02*
X018166Y012345D01*
X018190Y012404D02*
X019710Y012404D01*
X019710Y012462D02*
X018215Y012462D01*
X018239Y012521D02*
X019710Y012521D01*
X019710Y012579D02*
X018263Y012579D01*
X018280Y012638D02*
X019710Y012638D01*
X019710Y012696D02*
X018280Y012696D01*
X018280Y012755D02*
X019710Y012755D01*
X019710Y012813D02*
X018280Y012813D01*
X018280Y012872D02*
X019710Y012872D01*
X019710Y012930D02*
X018280Y012930D01*
X018264Y012989D02*
X019710Y012989D01*
X019710Y013047D02*
X018240Y013047D01*
X018216Y013106D02*
X019710Y013106D01*
X019710Y013164D02*
X018191Y013164D01*
X018167Y013223D02*
X019710Y013223D01*
X019710Y013281D02*
X018128Y013281D01*
X016661Y012521D02*
X011684Y012521D01*
X011626Y012579D02*
X016637Y012579D01*
X016685Y012462D02*
X011743Y012462D01*
X011801Y012404D02*
X016710Y012404D01*
X016734Y012345D02*
X011860Y012345D01*
X011918Y012287D02*
X016775Y012287D01*
X016833Y012228D02*
X013319Y012228D01*
X013041Y012228D02*
X012319Y012228D01*
X012041Y012228D02*
X011977Y012228D01*
X013805Y012170D02*
X016892Y012170D01*
X016950Y012111D02*
X013864Y012111D01*
X013922Y012053D02*
X017049Y012053D01*
X017191Y011994D02*
X013981Y011994D01*
D28*
X014230Y010875D03*
X013030Y009585D03*
X012580Y009645D03*
X012910Y008235D03*
X012640Y007935D03*
X010810Y007815D03*
X010810Y008235D03*
X010720Y010455D03*
X011560Y006015D03*
X006130Y005565D03*
X003850Y006975D03*
D29*
X010851Y006343D02*
X010879Y006315D01*
X011320Y006315D01*
X011560Y006075D01*
X011560Y006015D01*
X011320Y006315D02*
X011378Y006373D01*
X011378Y006666D01*
X014590Y008475D02*
X014775Y008660D01*
X014960Y008660D01*
X014820Y013072D02*
X014267Y013625D01*
X014820Y013898D02*
X014820Y014105D01*
X014070Y014855D01*
D30*
X013385Y014507D02*
X014820Y013072D01*
X013385Y014507D02*
X013385Y015395D01*
X015140Y015745D02*
X018240Y015745D01*
X017500Y015465D02*
X018010Y014955D01*
X017500Y015465D02*
X015580Y015465D01*
X015140Y015025D01*
X015140Y014955D01*
X015140Y016535D02*
X018240Y016535D01*
X012070Y010575D02*
X011860Y010785D01*
X011393Y010785D01*
X011378Y010800D01*
X011333Y010755D01*
X010990Y010755D01*
X010851Y010894D01*
X010851Y011107D01*
X010810Y011147D01*
X010810Y011325D01*
X010625Y011510D01*
X010625Y011735D01*
X010851Y011107D02*
X010851Y010586D01*
X010720Y010455D01*
X012070Y010575D02*
X012070Y010108D01*
X012676Y010019D02*
X013194Y010019D01*
X013283Y010108D01*
X014050Y010108D01*
X014063Y010095D01*
X014500Y010095D01*
X014590Y010005D01*
X014590Y008565D01*
X014590Y008475D01*
X014590Y007864D01*
X014920Y007534D01*
X014510Y008485D02*
X013922Y008485D01*
X014510Y008485D02*
X014590Y008565D01*
X014050Y009182D02*
X013926Y009182D01*
X013464Y009645D01*
X013090Y009645D01*
X013030Y009585D01*
X013044Y009271D02*
X013315Y009000D01*
X013315Y008100D01*
X012820Y007605D01*
X012820Y006105D01*
X012370Y005655D01*
X010948Y005655D01*
X010260Y006343D01*
X012070Y009182D02*
X012159Y009271D01*
X012676Y009271D01*
X013044Y009271D01*
D31*
X014417Y010688D02*
X014230Y010875D01*
X014417Y010688D02*
X014960Y010688D01*
X014960Y009862D02*
X014960Y009330D01*
D32*
X014931Y007545D02*
X014920Y007534D01*
X014931Y007545D02*
X015520Y007545D01*
X015850Y007215D01*
X015850Y006315D01*
X016270Y005895D01*
X017980Y005895D01*
X018450Y006365D01*
X018450Y006885D01*
X010622Y013395D02*
X009482Y014535D01*
X009040Y014535D01*
X007970Y015605D01*
X007970Y016155D01*
X006340Y015165D02*
X008110Y013395D01*
X006340Y015165D02*
X005920Y015165D01*
X005920Y017035D02*
X010090Y017035D01*
X010970Y016155D01*
D33*
X014920Y006116D02*
X014920Y005805D01*
X014740Y005625D01*
X013520Y005625D01*
X012970Y005075D01*
M02*
