G75*
G70*
%OFA0B0*%
%FSLAX24Y24*%
%IPPOS*%
%LPD*%
G04 *
G04 macro definitions for tiled file 'copperStiched.GTL':*
G04 *
%AMOC8*
5,1,8,0,0,1.08239X$1,22.5*
%
G04 *
G04 aperture list for tiled file 'copperStiched.GTL':*
G04 *
%ADD21C,0.0120*%
%ADD18C,0.1185*%
%ADD11C,0.0650*%
%ADD15C,0.0600*%
%ADD20C,0.0700*%
%ADD19OC8,0.0520*%
%ADD14C,0.0768*%
%ADD13C,0.1310*%
%ADD16OC8,0.0630*%
%ADD12C,0.0560*%
%ADD10C,0.0760*%
%ADD17C,0.0630*%
G04 *
G04 next data from source file './adk-aDAPTERanothercopy/top_copper.GTL', *
G04 source file key is 'infile_0003'. *
G04 *
D10*
X038825Y108316D03*
X039825Y108316D03*
X055825Y108016D03*
X056825Y108016D03*
X057126Y099317D03*
X056126Y099317D03*
D11*
X054125Y099316D03*
X053125Y099316D03*
X052125Y099316D03*
X051125Y099316D03*
X050125Y099316D03*
X049125Y099316D03*
X048125Y099316D03*
D12*
X050330Y107156D03*
X051310Y107156D03*
X052100Y107156D03*
X053080Y107156D03*
X045310Y107156D03*
X044330Y107156D03*
X043540Y107156D03*
X042560Y107156D03*
D13*
X041350Y108226D03*
X046520Y108226D03*
X049120Y108226D03*
X054290Y108226D03*
D14*
X054056Y104416D03*
X056025Y104416D03*
X049725Y104416D03*
X047757Y104416D03*
X044625Y104416D03*
X042656Y104416D03*
X038325Y104416D03*
X036357Y104416D03*
D15*
X042725Y101716D02*
X043325Y101716D01*
X043325Y100716D02*
X042725Y100716D01*
X042725Y099716D02*
X043325Y099716D01*
D16*
X044925Y100016D03*
X044925Y101216D03*
X050125Y101116D03*
X038325Y106716D03*
D17*
X037325Y106716D03*
X044925Y102216D03*
X044925Y099016D03*
X051125Y101116D03*
D18*
X032975Y106516D03*
X031675Y108316D03*
D19*
X033225Y098916D03*
X034125Y098916D03*
X034125Y099916D03*
X033225Y099916D03*
X031725Y101016D03*
X031725Y102016D03*
X053025Y102116D03*
X053025Y101116D03*
X056025Y101716D03*
X057025Y101716D03*
D20*
X055127Y100316D02*
X056126Y099317D01*
X055127Y100316D02*
X048025Y100316D01*
X046125Y102216D01*
X044925Y102216D01*
X043525Y102216D01*
X043025Y101716D01*
X039325Y101716D01*
X037325Y103716D01*
X037325Y106716D01*
X037325Y108316D01*
X031675Y108316D01*
X032975Y106516D02*
X035075Y104416D01*
X036357Y104416D01*
X039825Y105816D02*
X039825Y108316D01*
X038525Y109616D02*
X037325Y108416D01*
X037325Y108316D01*
X038525Y109616D02*
X050125Y109616D01*
X050225Y109516D01*
X055325Y109516D01*
X055825Y109016D01*
X055825Y108016D01*
X053080Y107156D02*
X053080Y106771D01*
X052325Y106016D01*
X046450Y106016D01*
X045310Y107156D01*
X044625Y104416D02*
X042656Y104416D01*
X041225Y104416D01*
X039825Y105816D01*
X043025Y099716D02*
X043725Y099016D01*
X044925Y099016D01*
X051125Y101116D02*
X051125Y101486D01*
X052841Y103201D01*
X054056Y104416D01*
X056025Y104416D01*
X054056Y104416D02*
X053080Y105392D01*
X053080Y107156D01*
D21*
X052100Y107156D02*
X052100Y106891D01*
X051725Y106516D01*
X046825Y106516D01*
X045625Y107716D01*
X044890Y107716D01*
X044330Y107156D01*
X043540Y107156D02*
X043540Y108031D01*
X044625Y109116D01*
X049925Y109116D01*
X051125Y107916D01*
X051125Y107341D01*
X051310Y107156D01*
X052841Y103201D02*
X053025Y103016D01*
X053025Y102116D01*
X053025Y101116D02*
X055425Y101116D01*
X056025Y101716D01*
X037325Y103716D02*
X036625Y103716D01*
X035225Y102316D01*
X035225Y100016D01*
X034125Y098916D01*
X033225Y098916D02*
X031725Y100416D01*
X031725Y101016D01*
X033225Y099916D02*
X034125Y099916D01*
G04 *
G04 next data from source file './adk-aDAPTER/top_copper.GTL', *
G04 source file key is 'infile_0010'. *
G04 *
D10*
X038825Y082126D03*
X039825Y082126D03*
X055825Y081826D03*
X056825Y081826D03*
X057126Y073127D03*
X056126Y073127D03*
D11*
X054125Y073126D03*
X053125Y073126D03*
X052125Y073126D03*
X051125Y073126D03*
X050125Y073126D03*
X049125Y073126D03*
X048125Y073126D03*
D12*
X050330Y080966D03*
X051310Y080966D03*
X052100Y080966D03*
X053080Y080966D03*
X045310Y080966D03*
X044330Y080966D03*
X043540Y080966D03*
X042560Y080966D03*
D13*
X041350Y082036D03*
X046520Y082036D03*
X049120Y082036D03*
X054290Y082036D03*
D14*
X054056Y078226D03*
X056025Y078226D03*
X049725Y078226D03*
X047757Y078226D03*
X044625Y078226D03*
X042656Y078226D03*
X038325Y078226D03*
X036357Y078226D03*
D15*
X042725Y075526D02*
X043325Y075526D01*
X043325Y074526D02*
X042725Y074526D01*
X042725Y073526D02*
X043325Y073526D01*
D16*
X044925Y073826D03*
X044925Y075026D03*
X050125Y074926D03*
X038325Y080526D03*
D17*
X037325Y080526D03*
X044925Y076026D03*
X044925Y072826D03*
X051125Y074926D03*
D18*
X032975Y080326D03*
X031675Y082126D03*
D19*
X033225Y072726D03*
X034125Y072726D03*
X034125Y073726D03*
X033225Y073726D03*
X031725Y074826D03*
X031725Y075826D03*
X053025Y075926D03*
X053025Y074926D03*
X056025Y075526D03*
X057025Y075526D03*
D20*
X055127Y074126D02*
X056126Y073127D01*
X055127Y074126D02*
X048025Y074126D01*
X046125Y076026D01*
X044925Y076026D01*
X043525Y076026D01*
X043025Y075526D01*
X039325Y075526D01*
X037325Y077526D01*
X037325Y080526D01*
X037325Y082126D01*
X031675Y082126D01*
X032975Y080326D02*
X035075Y078226D01*
X036357Y078226D01*
X039825Y079626D02*
X039825Y082126D01*
X038525Y083426D02*
X037325Y082226D01*
X037325Y082126D01*
X038525Y083426D02*
X050125Y083426D01*
X050225Y083326D01*
X055325Y083326D01*
X055825Y082826D01*
X055825Y081826D01*
X053080Y080966D02*
X053080Y080581D01*
X052325Y079826D01*
X046450Y079826D01*
X045310Y080966D01*
X044625Y078226D02*
X042656Y078226D01*
X041225Y078226D01*
X039825Y079626D01*
X043025Y073526D02*
X043725Y072826D01*
X044925Y072826D01*
X051125Y074926D02*
X051125Y075296D01*
X052841Y077011D01*
X054056Y078226D01*
X056025Y078226D01*
X054056Y078226D02*
X053080Y079202D01*
X053080Y080966D01*
D21*
X052100Y080966D02*
X052100Y080701D01*
X051725Y080326D01*
X046825Y080326D01*
X045625Y081526D01*
X044890Y081526D01*
X044330Y080966D01*
X043540Y080966D02*
X043540Y081841D01*
X044625Y082926D01*
X049925Y082926D01*
X051125Y081726D01*
X051125Y081151D01*
X051310Y080966D01*
X052841Y077011D02*
X053025Y076826D01*
X053025Y075926D01*
X053025Y074926D02*
X055425Y074926D01*
X056025Y075526D01*
X037325Y077526D02*
X036625Y077526D01*
X035225Y076126D01*
X035225Y073826D01*
X034125Y072726D01*
X033225Y072726D02*
X031725Y074226D01*
X031725Y074826D01*
X033225Y073726D02*
X034125Y073726D01*
G04 *
G04 next data from source file './adk-aDAPTER6thcopy/top_copper.GTL', *
G04 source file key is 'infile_0008'. *
G04 *
D10*
X038825Y095221D03*
X039825Y095221D03*
X055825Y094921D03*
X056825Y094921D03*
X057126Y086222D03*
X056126Y086222D03*
D11*
X054125Y086221D03*
X053125Y086221D03*
X052125Y086221D03*
X051125Y086221D03*
X050125Y086221D03*
X049125Y086221D03*
X048125Y086221D03*
D12*
X050330Y094061D03*
X051310Y094061D03*
X052100Y094061D03*
X053080Y094061D03*
X045310Y094061D03*
X044330Y094061D03*
X043540Y094061D03*
X042560Y094061D03*
D13*
X041350Y095131D03*
X046520Y095131D03*
X049120Y095131D03*
X054290Y095131D03*
D14*
X054056Y091321D03*
X056025Y091321D03*
X049725Y091321D03*
X047757Y091321D03*
X044625Y091321D03*
X042656Y091321D03*
X038325Y091321D03*
X036357Y091321D03*
D15*
X042725Y088621D02*
X043325Y088621D01*
X043325Y087621D02*
X042725Y087621D01*
X042725Y086621D02*
X043325Y086621D01*
D16*
X044925Y086921D03*
X044925Y088121D03*
X050125Y088021D03*
X038325Y093621D03*
D17*
X037325Y093621D03*
X044925Y089121D03*
X044925Y085921D03*
X051125Y088021D03*
D18*
X032975Y093421D03*
X031675Y095221D03*
D19*
X033225Y085821D03*
X034125Y085821D03*
X034125Y086821D03*
X033225Y086821D03*
X031725Y087921D03*
X031725Y088921D03*
X053025Y089021D03*
X053025Y088021D03*
X056025Y088621D03*
X057025Y088621D03*
D20*
X055127Y087221D02*
X056126Y086222D01*
X055127Y087221D02*
X048025Y087221D01*
X046125Y089121D01*
X044925Y089121D01*
X043525Y089121D01*
X043025Y088621D01*
X039325Y088621D01*
X037325Y090621D01*
X037325Y093621D01*
X037325Y095221D01*
X031675Y095221D01*
X032975Y093421D02*
X035075Y091321D01*
X036357Y091321D01*
X039825Y092721D02*
X039825Y095221D01*
X038525Y096521D02*
X037325Y095321D01*
X037325Y095221D01*
X038525Y096521D02*
X050125Y096521D01*
X050225Y096421D01*
X055325Y096421D01*
X055825Y095921D01*
X055825Y094921D01*
X053080Y094061D02*
X053080Y093676D01*
X052325Y092921D01*
X046450Y092921D01*
X045310Y094061D01*
X044625Y091321D02*
X042656Y091321D01*
X041225Y091321D01*
X039825Y092721D01*
X043025Y086621D02*
X043725Y085921D01*
X044925Y085921D01*
X051125Y088021D02*
X051125Y088391D01*
X052841Y090106D01*
X054056Y091321D01*
X056025Y091321D01*
X054056Y091321D02*
X053080Y092297D01*
X053080Y094061D01*
D21*
X052100Y094061D02*
X052100Y093796D01*
X051725Y093421D01*
X046825Y093421D01*
X045625Y094621D01*
X044890Y094621D01*
X044330Y094061D01*
X043540Y094061D02*
X043540Y094936D01*
X044625Y096021D01*
X049925Y096021D01*
X051125Y094821D01*
X051125Y094246D01*
X051310Y094061D01*
X052841Y090106D02*
X053025Y089921D01*
X053025Y089021D01*
X053025Y088021D02*
X055425Y088021D01*
X056025Y088621D01*
X037325Y090621D02*
X036625Y090621D01*
X035225Y089221D01*
X035225Y086921D01*
X034125Y085821D01*
X033225Y085821D02*
X031725Y087321D01*
X031725Y087921D01*
X033225Y086821D02*
X034125Y086821D01*
G04 *
G04 next data from source file './adk-aDAPTERcopy/top_copper.GTL', *
G04 source file key is 'infile_0007'. *
G04 *
D10*
X010610Y082261D03*
X011610Y082261D03*
X027610Y081961D03*
X028610Y081961D03*
X028911Y073262D03*
X027911Y073262D03*
D11*
X025910Y073261D03*
X024910Y073261D03*
X023910Y073261D03*
X022910Y073261D03*
X021910Y073261D03*
X020910Y073261D03*
X019910Y073261D03*
D12*
X022115Y081101D03*
X023095Y081101D03*
X023885Y081101D03*
X024865Y081101D03*
X017095Y081101D03*
X016115Y081101D03*
X015325Y081101D03*
X014345Y081101D03*
D13*
X013135Y082171D03*
X018305Y082171D03*
X020905Y082171D03*
X026075Y082171D03*
D14*
X025841Y078361D03*
X027810Y078361D03*
X021510Y078361D03*
X019542Y078361D03*
X016410Y078361D03*
X014441Y078361D03*
X010110Y078361D03*
X008142Y078361D03*
D15*
X014510Y075661D02*
X015110Y075661D01*
X015110Y074661D02*
X014510Y074661D01*
X014510Y073661D02*
X015110Y073661D01*
D16*
X016710Y073961D03*
X016710Y075161D03*
X021910Y075061D03*
X010110Y080661D03*
D17*
X009110Y080661D03*
X016710Y076161D03*
X016710Y072961D03*
X022910Y075061D03*
D18*
X004760Y080461D03*
X003460Y082261D03*
D19*
X005010Y072861D03*
X005910Y072861D03*
X005910Y073861D03*
X005010Y073861D03*
X003510Y074961D03*
X003510Y075961D03*
X024810Y076061D03*
X024810Y075061D03*
X027810Y075661D03*
X028810Y075661D03*
D20*
X026912Y074261D02*
X027911Y073262D01*
X026912Y074261D02*
X019810Y074261D01*
X017910Y076161D01*
X016710Y076161D01*
X015310Y076161D01*
X014810Y075661D01*
X011110Y075661D01*
X009110Y077661D01*
X009110Y080661D01*
X009110Y082261D01*
X003460Y082261D01*
X004760Y080461D02*
X006860Y078361D01*
X008142Y078361D01*
X011610Y079761D02*
X011610Y082261D01*
X010310Y083561D02*
X009110Y082361D01*
X009110Y082261D01*
X010310Y083561D02*
X021910Y083561D01*
X022010Y083461D01*
X027110Y083461D01*
X027610Y082961D01*
X027610Y081961D01*
X024865Y081101D02*
X024865Y080716D01*
X024110Y079961D01*
X018235Y079961D01*
X017095Y081101D01*
X016410Y078361D02*
X014441Y078361D01*
X013010Y078361D01*
X011610Y079761D01*
X014810Y073661D02*
X015510Y072961D01*
X016710Y072961D01*
X022910Y075061D02*
X022910Y075431D01*
X024626Y077146D01*
X025841Y078361D01*
X027810Y078361D01*
X025841Y078361D02*
X024865Y079337D01*
X024865Y081101D01*
D21*
X023885Y081101D02*
X023885Y080836D01*
X023510Y080461D01*
X018610Y080461D01*
X017410Y081661D01*
X016675Y081661D01*
X016115Y081101D01*
X015325Y081101D02*
X015325Y081976D01*
X016410Y083061D01*
X021710Y083061D01*
X022910Y081861D01*
X022910Y081286D01*
X023095Y081101D01*
X024626Y077146D02*
X024810Y076961D01*
X024810Y076061D01*
X024810Y075061D02*
X027210Y075061D01*
X027810Y075661D01*
X009110Y077661D02*
X008410Y077661D01*
X007010Y076261D01*
X007010Y073961D01*
X005910Y072861D01*
X005010Y072861D02*
X003510Y074361D01*
X003510Y074961D01*
X005010Y073861D02*
X005910Y073861D01*
G04 *
G04 next data from source file './adk-aDAPTERcopycopy/top_copper.GTL', *
G04 source file key is 'infile_0004'. *
G04 *
D10*
X010340Y069436D03*
X011340Y069436D03*
X027340Y069136D03*
X028340Y069136D03*
X028641Y060437D03*
X027641Y060437D03*
D11*
X025640Y060436D03*
X024640Y060436D03*
X023640Y060436D03*
X022640Y060436D03*
X021640Y060436D03*
X020640Y060436D03*
X019640Y060436D03*
D12*
X021845Y068276D03*
X022825Y068276D03*
X023615Y068276D03*
X024595Y068276D03*
X016825Y068276D03*
X015845Y068276D03*
X015055Y068276D03*
X014075Y068276D03*
D13*
X012865Y069346D03*
X018035Y069346D03*
X020635Y069346D03*
X025805Y069346D03*
D14*
X025571Y065536D03*
X027540Y065536D03*
X021240Y065536D03*
X019272Y065536D03*
X016140Y065536D03*
X014171Y065536D03*
X009840Y065536D03*
X007872Y065536D03*
D15*
X014240Y062836D02*
X014840Y062836D01*
X014840Y061836D02*
X014240Y061836D01*
X014240Y060836D02*
X014840Y060836D01*
D16*
X016440Y061136D03*
X016440Y062336D03*
X021640Y062236D03*
X009840Y067836D03*
D17*
X008840Y067836D03*
X016440Y063336D03*
X016440Y060136D03*
X022640Y062236D03*
D18*
X004490Y067636D03*
X003190Y069436D03*
D19*
X004740Y060036D03*
X005640Y060036D03*
X005640Y061036D03*
X004740Y061036D03*
X003240Y062136D03*
X003240Y063136D03*
X024540Y063236D03*
X024540Y062236D03*
X027540Y062836D03*
X028540Y062836D03*
D20*
X026642Y061436D02*
X027641Y060437D01*
X026642Y061436D02*
X019540Y061436D01*
X017640Y063336D01*
X016440Y063336D01*
X015040Y063336D01*
X014540Y062836D01*
X010840Y062836D01*
X008840Y064836D01*
X008840Y067836D01*
X008840Y069436D01*
X003190Y069436D01*
X004490Y067636D02*
X006590Y065536D01*
X007872Y065536D01*
X011340Y066936D02*
X011340Y069436D01*
X010040Y070736D02*
X008840Y069536D01*
X008840Y069436D01*
X010040Y070736D02*
X021640Y070736D01*
X021740Y070636D01*
X026840Y070636D01*
X027340Y070136D01*
X027340Y069136D01*
X024595Y068276D02*
X024595Y067891D01*
X023840Y067136D01*
X017965Y067136D01*
X016825Y068276D01*
X016140Y065536D02*
X014171Y065536D01*
X012740Y065536D01*
X011340Y066936D01*
X014540Y060836D02*
X015240Y060136D01*
X016440Y060136D01*
X022640Y062236D02*
X022640Y062606D01*
X024356Y064321D01*
X025571Y065536D01*
X027540Y065536D01*
X025571Y065536D02*
X024595Y066512D01*
X024595Y068276D01*
D21*
X023615Y068276D02*
X023615Y068011D01*
X023240Y067636D01*
X018340Y067636D01*
X017140Y068836D01*
X016405Y068836D01*
X015845Y068276D01*
X015055Y068276D02*
X015055Y069151D01*
X016140Y070236D01*
X021440Y070236D01*
X022640Y069036D01*
X022640Y068461D01*
X022825Y068276D01*
X024356Y064321D02*
X024540Y064136D01*
X024540Y063236D01*
X024540Y062236D02*
X026940Y062236D01*
X027540Y062836D01*
X008840Y064836D02*
X008140Y064836D01*
X006740Y063436D01*
X006740Y061136D01*
X005640Y060036D01*
X004740Y060036D02*
X003240Y061536D01*
X003240Y062136D01*
X004740Y061036D02*
X005640Y061036D01*
G04 *
G04 next data from source file './adk-aDAPTER5thcopy/top_copper.GTL', *
G04 source file key is 'infile_0002'. *
G04 *
D10*
X010475Y108046D03*
X011475Y108046D03*
X027475Y107746D03*
X028475Y107746D03*
X028776Y099047D03*
X027776Y099047D03*
D11*
X025775Y099046D03*
X024775Y099046D03*
X023775Y099046D03*
X022775Y099046D03*
X021775Y099046D03*
X020775Y099046D03*
X019775Y099046D03*
D12*
X021980Y106886D03*
X022960Y106886D03*
X023750Y106886D03*
X024730Y106886D03*
X016960Y106886D03*
X015980Y106886D03*
X015190Y106886D03*
X014210Y106886D03*
D13*
X013000Y107956D03*
X018170Y107956D03*
X020770Y107956D03*
X025940Y107956D03*
D14*
X025706Y104146D03*
X027675Y104146D03*
X021375Y104146D03*
X019407Y104146D03*
X016275Y104146D03*
X014306Y104146D03*
X009975Y104146D03*
X008007Y104146D03*
D15*
X014375Y101446D02*
X014975Y101446D01*
X014975Y100446D02*
X014375Y100446D01*
X014375Y099446D02*
X014975Y099446D01*
D16*
X016575Y099746D03*
X016575Y100946D03*
X021775Y100846D03*
X009975Y106446D03*
D17*
X008975Y106446D03*
X016575Y101946D03*
X016575Y098746D03*
X022775Y100846D03*
D18*
X004625Y106246D03*
X003325Y108046D03*
D19*
X004875Y098646D03*
X005775Y098646D03*
X005775Y099646D03*
X004875Y099646D03*
X003375Y100746D03*
X003375Y101746D03*
X024675Y101846D03*
X024675Y100846D03*
X027675Y101446D03*
X028675Y101446D03*
D20*
X026777Y100046D02*
X027776Y099047D01*
X026777Y100046D02*
X019675Y100046D01*
X017775Y101946D01*
X016575Y101946D01*
X015175Y101946D01*
X014675Y101446D01*
X010975Y101446D01*
X008975Y103446D01*
X008975Y106446D01*
X008975Y108046D01*
X003325Y108046D01*
X004625Y106246D02*
X006725Y104146D01*
X008007Y104146D01*
X011475Y105546D02*
X011475Y108046D01*
X010175Y109346D02*
X008975Y108146D01*
X008975Y108046D01*
X010175Y109346D02*
X021775Y109346D01*
X021875Y109246D01*
X026975Y109246D01*
X027475Y108746D01*
X027475Y107746D01*
X024730Y106886D02*
X024730Y106501D01*
X023975Y105746D01*
X018100Y105746D01*
X016960Y106886D01*
X016275Y104146D02*
X014306Y104146D01*
X012875Y104146D01*
X011475Y105546D01*
X014675Y099446D02*
X015375Y098746D01*
X016575Y098746D01*
X022775Y100846D02*
X022775Y101216D01*
X024491Y102931D01*
X025706Y104146D01*
X027675Y104146D01*
X025706Y104146D02*
X024730Y105122D01*
X024730Y106886D01*
D21*
X023750Y106886D02*
X023750Y106621D01*
X023375Y106246D01*
X018475Y106246D01*
X017275Y107446D01*
X016540Y107446D01*
X015980Y106886D01*
X015190Y106886D02*
X015190Y107761D01*
X016275Y108846D01*
X021575Y108846D01*
X022775Y107646D01*
X022775Y107071D01*
X022960Y106886D01*
X024491Y102931D02*
X024675Y102746D01*
X024675Y101846D01*
X024675Y100846D02*
X027075Y100846D01*
X027675Y101446D01*
X008975Y103446D02*
X008275Y103446D01*
X006875Y102046D01*
X006875Y099746D01*
X005775Y098646D01*
X004875Y098646D02*
X003375Y100146D01*
X003375Y100746D01*
X004875Y099646D02*
X005775Y099646D01*
G04 *
G04 next data from source file './adk-aDAPTER4thcopy/top_copper.GTL', *
G04 source file key is 'infile_0005'. *
G04 *
D10*
X010475Y095221D03*
X011475Y095221D03*
X027475Y094921D03*
X028475Y094921D03*
X028776Y086222D03*
X027776Y086222D03*
D11*
X025775Y086221D03*
X024775Y086221D03*
X023775Y086221D03*
X022775Y086221D03*
X021775Y086221D03*
X020775Y086221D03*
X019775Y086221D03*
D12*
X021980Y094061D03*
X022960Y094061D03*
X023750Y094061D03*
X024730Y094061D03*
X016960Y094061D03*
X015980Y094061D03*
X015190Y094061D03*
X014210Y094061D03*
D13*
X013000Y095131D03*
X018170Y095131D03*
X020770Y095131D03*
X025940Y095131D03*
D14*
X025706Y091321D03*
X027675Y091321D03*
X021375Y091321D03*
X019407Y091321D03*
X016275Y091321D03*
X014306Y091321D03*
X009975Y091321D03*
X008007Y091321D03*
D15*
X014375Y088621D02*
X014975Y088621D01*
X014975Y087621D02*
X014375Y087621D01*
X014375Y086621D02*
X014975Y086621D01*
D16*
X016575Y086921D03*
X016575Y088121D03*
X021775Y088021D03*
X009975Y093621D03*
D17*
X008975Y093621D03*
X016575Y089121D03*
X016575Y085921D03*
X022775Y088021D03*
D18*
X004625Y093421D03*
X003325Y095221D03*
D19*
X004875Y085821D03*
X005775Y085821D03*
X005775Y086821D03*
X004875Y086821D03*
X003375Y087921D03*
X003375Y088921D03*
X024675Y089021D03*
X024675Y088021D03*
X027675Y088621D03*
X028675Y088621D03*
D20*
X026777Y087221D02*
X027776Y086222D01*
X026777Y087221D02*
X019675Y087221D01*
X017775Y089121D01*
X016575Y089121D01*
X015175Y089121D01*
X014675Y088621D01*
X010975Y088621D01*
X008975Y090621D01*
X008975Y093621D01*
X008975Y095221D01*
X003325Y095221D01*
X004625Y093421D02*
X006725Y091321D01*
X008007Y091321D01*
X011475Y092721D02*
X011475Y095221D01*
X010175Y096521D02*
X008975Y095321D01*
X008975Y095221D01*
X010175Y096521D02*
X021775Y096521D01*
X021875Y096421D01*
X026975Y096421D01*
X027475Y095921D01*
X027475Y094921D01*
X024730Y094061D02*
X024730Y093676D01*
X023975Y092921D01*
X018100Y092921D01*
X016960Y094061D01*
X016275Y091321D02*
X014306Y091321D01*
X012875Y091321D01*
X011475Y092721D01*
X014675Y086621D02*
X015375Y085921D01*
X016575Y085921D01*
X022775Y088021D02*
X022775Y088391D01*
X024491Y090106D01*
X025706Y091321D01*
X027675Y091321D01*
X025706Y091321D02*
X024730Y092297D01*
X024730Y094061D01*
D21*
X023750Y094061D02*
X023750Y093796D01*
X023375Y093421D01*
X018475Y093421D01*
X017275Y094621D01*
X016540Y094621D01*
X015980Y094061D01*
X015190Y094061D02*
X015190Y094936D01*
X016275Y096021D01*
X021575Y096021D01*
X022775Y094821D01*
X022775Y094246D01*
X022960Y094061D01*
X024491Y090106D02*
X024675Y089921D01*
X024675Y089021D01*
X024675Y088021D02*
X027075Y088021D01*
X027675Y088621D01*
X008975Y090621D02*
X008275Y090621D01*
X006875Y089221D01*
X006875Y086921D01*
X005775Y085821D01*
X004875Y085821D02*
X003375Y087321D01*
X003375Y087921D01*
X004875Y086821D02*
X005775Y086821D01*
G04 *
G04 next data from source file './adk-aDAPTERcopyanothercopy/top_copper.GTL', *
G04 source file key is 'infile_0009'. *
G04 *
D10*
X038690Y069571D03*
X039690Y069571D03*
X055690Y069271D03*
X056690Y069271D03*
X056991Y060572D03*
X055991Y060572D03*
D11*
X053990Y060571D03*
X052990Y060571D03*
X051990Y060571D03*
X050990Y060571D03*
X049990Y060571D03*
X048990Y060571D03*
X047990Y060571D03*
D12*
X050195Y068411D03*
X051175Y068411D03*
X051965Y068411D03*
X052945Y068411D03*
X045175Y068411D03*
X044195Y068411D03*
X043405Y068411D03*
X042425Y068411D03*
D13*
X041215Y069481D03*
X046385Y069481D03*
X048985Y069481D03*
X054155Y069481D03*
D14*
X053921Y065671D03*
X055890Y065671D03*
X049590Y065671D03*
X047622Y065671D03*
X044490Y065671D03*
X042521Y065671D03*
X038190Y065671D03*
X036222Y065671D03*
D15*
X042590Y062971D02*
X043190Y062971D01*
X043190Y061971D02*
X042590Y061971D01*
X042590Y060971D02*
X043190Y060971D01*
D16*
X044790Y061271D03*
X044790Y062471D03*
X049990Y062371D03*
X038190Y067971D03*
D17*
X037190Y067971D03*
X044790Y063471D03*
X044790Y060271D03*
X050990Y062371D03*
D18*
X032840Y067771D03*
X031540Y069571D03*
D19*
X033090Y060171D03*
X033990Y060171D03*
X033990Y061171D03*
X033090Y061171D03*
X031590Y062271D03*
X031590Y063271D03*
X052890Y063371D03*
X052890Y062371D03*
X055890Y062971D03*
X056890Y062971D03*
D20*
X054992Y061571D02*
X055991Y060572D01*
X054992Y061571D02*
X047890Y061571D01*
X045990Y063471D01*
X044790Y063471D01*
X043390Y063471D01*
X042890Y062971D01*
X039190Y062971D01*
X037190Y064971D01*
X037190Y067971D01*
X037190Y069571D01*
X031540Y069571D01*
X032840Y067771D02*
X034940Y065671D01*
X036222Y065671D01*
X039690Y067071D02*
X039690Y069571D01*
X038390Y070871D02*
X037190Y069671D01*
X037190Y069571D01*
X038390Y070871D02*
X049990Y070871D01*
X050090Y070771D01*
X055190Y070771D01*
X055690Y070271D01*
X055690Y069271D01*
X052945Y068411D02*
X052945Y068026D01*
X052190Y067271D01*
X046315Y067271D01*
X045175Y068411D01*
X044490Y065671D02*
X042521Y065671D01*
X041090Y065671D01*
X039690Y067071D01*
X042890Y060971D02*
X043590Y060271D01*
X044790Y060271D01*
X050990Y062371D02*
X050990Y062741D01*
X052706Y064456D01*
X053921Y065671D01*
X055890Y065671D01*
X053921Y065671D02*
X052945Y066647D01*
X052945Y068411D01*
D21*
X051965Y068411D02*
X051965Y068146D01*
X051590Y067771D01*
X046690Y067771D01*
X045490Y068971D01*
X044755Y068971D01*
X044195Y068411D01*
X043405Y068411D02*
X043405Y069286D01*
X044490Y070371D01*
X049790Y070371D01*
X050990Y069171D01*
X050990Y068596D01*
X051175Y068411D01*
X052706Y064456D02*
X052890Y064271D01*
X052890Y063371D01*
X052890Y062371D02*
X055290Y062371D01*
X055890Y062971D01*
X037190Y064971D02*
X036490Y064971D01*
X035090Y063571D01*
X035090Y061271D01*
X033990Y060171D01*
X033090Y060171D02*
X031590Y061671D01*
X031590Y062271D01*
X033090Y061171D02*
X033990Y061171D01*
G04 *
G04 next data from source file './adk-aDAPTER3rdcopy/top_copper.GTL', *
G04 source file key is 'infile_0006'. *
G04 *
D10*
X038960Y120736D03*
X039960Y120736D03*
X055960Y120436D03*
X056960Y120436D03*
X057261Y111737D03*
X056261Y111737D03*
D11*
X054260Y111736D03*
X053260Y111736D03*
X052260Y111736D03*
X051260Y111736D03*
X050260Y111736D03*
X049260Y111736D03*
X048260Y111736D03*
D12*
X050465Y119576D03*
X051445Y119576D03*
X052235Y119576D03*
X053215Y119576D03*
X045445Y119576D03*
X044465Y119576D03*
X043675Y119576D03*
X042695Y119576D03*
D13*
X041485Y120646D03*
X046655Y120646D03*
X049255Y120646D03*
X054425Y120646D03*
D14*
X054191Y116836D03*
X056160Y116836D03*
X049860Y116836D03*
X047892Y116836D03*
X044760Y116836D03*
X042791Y116836D03*
X038460Y116836D03*
X036492Y116836D03*
D15*
X042860Y114136D02*
X043460Y114136D01*
X043460Y113136D02*
X042860Y113136D01*
X042860Y112136D02*
X043460Y112136D01*
D16*
X045060Y112436D03*
X045060Y113636D03*
X050260Y113536D03*
X038460Y119136D03*
D17*
X037460Y119136D03*
X045060Y114636D03*
X045060Y111436D03*
X051260Y113536D03*
D18*
X033110Y118936D03*
X031810Y120736D03*
D19*
X033360Y111336D03*
X034260Y111336D03*
X034260Y112336D03*
X033360Y112336D03*
X031860Y113436D03*
X031860Y114436D03*
X053160Y114536D03*
X053160Y113536D03*
X056160Y114136D03*
X057160Y114136D03*
D20*
X055262Y112736D02*
X056261Y111737D01*
X055262Y112736D02*
X048160Y112736D01*
X046260Y114636D01*
X045060Y114636D01*
X043660Y114636D01*
X043160Y114136D01*
X039460Y114136D01*
X037460Y116136D01*
X037460Y119136D01*
X037460Y120736D01*
X031810Y120736D01*
X033110Y118936D02*
X035210Y116836D01*
X036492Y116836D01*
X039960Y118236D02*
X039960Y120736D01*
X038660Y122036D02*
X037460Y120836D01*
X037460Y120736D01*
X038660Y122036D02*
X050260Y122036D01*
X050360Y121936D01*
X055460Y121936D01*
X055960Y121436D01*
X055960Y120436D01*
X053215Y119576D02*
X053215Y119191D01*
X052460Y118436D01*
X046585Y118436D01*
X045445Y119576D01*
X044760Y116836D02*
X042791Y116836D01*
X041360Y116836D01*
X039960Y118236D01*
X043160Y112136D02*
X043860Y111436D01*
X045060Y111436D01*
X051260Y113536D02*
X051260Y113906D01*
X052976Y115621D01*
X054191Y116836D01*
X056160Y116836D01*
X054191Y116836D02*
X053215Y117812D01*
X053215Y119576D01*
D21*
X052235Y119576D02*
X052235Y119311D01*
X051860Y118936D01*
X046960Y118936D01*
X045760Y120136D01*
X045025Y120136D01*
X044465Y119576D01*
X043675Y119576D02*
X043675Y120451D01*
X044760Y121536D01*
X050060Y121536D01*
X051260Y120336D01*
X051260Y119761D01*
X051445Y119576D01*
X052976Y115621D02*
X053160Y115436D01*
X053160Y114536D01*
X053160Y113536D02*
X055560Y113536D01*
X056160Y114136D01*
X037460Y116136D02*
X036760Y116136D01*
X035360Y114736D01*
X035360Y112436D01*
X034260Y111336D01*
X033360Y111336D02*
X031860Y112836D01*
X031860Y113436D01*
X033360Y112336D02*
X034260Y112336D01*
G04 *
G04 next data from source file './adk-aDAPTER7thcopy/top_copper.GTL', *
G04 source file key is 'infile_0001'. *
G04 *
D10*
X010475Y120466D03*
X011475Y120466D03*
X027475Y120166D03*
X028475Y120166D03*
X028776Y111467D03*
X027776Y111467D03*
D11*
X025775Y111466D03*
X024775Y111466D03*
X023775Y111466D03*
X022775Y111466D03*
X021775Y111466D03*
X020775Y111466D03*
X019775Y111466D03*
D12*
X021980Y119306D03*
X022960Y119306D03*
X023750Y119306D03*
X024730Y119306D03*
X016960Y119306D03*
X015980Y119306D03*
X015190Y119306D03*
X014210Y119306D03*
D13*
X013000Y120376D03*
X018170Y120376D03*
X020770Y120376D03*
X025940Y120376D03*
D14*
X025706Y116566D03*
X027675Y116566D03*
X021375Y116566D03*
X019407Y116566D03*
X016275Y116566D03*
X014306Y116566D03*
X009975Y116566D03*
X008007Y116566D03*
D15*
X014375Y113866D02*
X014975Y113866D01*
X014975Y112866D02*
X014375Y112866D01*
X014375Y111866D02*
X014975Y111866D01*
D16*
X016575Y112166D03*
X016575Y113366D03*
X021775Y113266D03*
X009975Y118866D03*
D17*
X008975Y118866D03*
X016575Y114366D03*
X016575Y111166D03*
X022775Y113266D03*
D18*
X004625Y118666D03*
X003325Y120466D03*
D19*
X004875Y111066D03*
X005775Y111066D03*
X005775Y112066D03*
X004875Y112066D03*
X003375Y113166D03*
X003375Y114166D03*
X024675Y114266D03*
X024675Y113266D03*
X027675Y113866D03*
X028675Y113866D03*
D20*
X026777Y112466D02*
X027776Y111467D01*
X026777Y112466D02*
X019675Y112466D01*
X017775Y114366D01*
X016575Y114366D01*
X015175Y114366D01*
X014675Y113866D01*
X010975Y113866D01*
X008975Y115866D01*
X008975Y118866D01*
X008975Y120466D01*
X003325Y120466D01*
X004625Y118666D02*
X006725Y116566D01*
X008007Y116566D01*
X011475Y117966D02*
X011475Y120466D01*
X010175Y121766D02*
X008975Y120566D01*
X008975Y120466D01*
X010175Y121766D02*
X021775Y121766D01*
X021875Y121666D01*
X026975Y121666D01*
X027475Y121166D01*
X027475Y120166D01*
X024730Y119306D02*
X024730Y118921D01*
X023975Y118166D01*
X018100Y118166D01*
X016960Y119306D01*
X016275Y116566D02*
X014306Y116566D01*
X012875Y116566D01*
X011475Y117966D01*
X014675Y111866D02*
X015375Y111166D01*
X016575Y111166D01*
X022775Y113266D02*
X022775Y113636D01*
X024491Y115351D01*
X025706Y116566D01*
X027675Y116566D01*
X025706Y116566D02*
X024730Y117542D01*
X024730Y119306D01*
D21*
X023750Y119306D02*
X023750Y119041D01*
X023375Y118666D01*
X018475Y118666D01*
X017275Y119866D01*
X016540Y119866D01*
X015980Y119306D01*
X015190Y119306D02*
X015190Y120181D01*
X016275Y121266D01*
X021575Y121266D01*
X022775Y120066D01*
X022775Y119491D01*
X022960Y119306D01*
X024491Y115351D02*
X024675Y115166D01*
X024675Y114266D01*
X024675Y113266D02*
X027075Y113266D01*
X027675Y113866D01*
X008975Y115866D02*
X008275Y115866D01*
X006875Y114466D01*
X006875Y112166D01*
X005775Y111066D01*
X004875Y111066D02*
X003375Y112566D01*
X003375Y113166D01*
X004875Y112066D02*
X005775Y112066D01*
M02*
