M48
T01C0.0320
T02C0.0360
T03C0.0400
T04C0.0433
T05C0.0460
T06C0.0512
T07C0.0790
T08C0.0910
T09C0.1300
G90
M72
%
T06
X38325Y104416
X36357Y104416
X42656Y104416
X44625Y104416
X47757Y104416
X49725Y104416
X54056Y104416
X56025Y104416
X38325Y78226
X36357Y78226
X42656Y78226
X44625Y78226
X47757Y78226
X49725Y78226
X54056Y78226
X56025Y78226
X38325Y91321
X36357Y91321
X42656Y91321
X44625Y91321
X47757Y91321
X49725Y91321
X54056Y91321
X56025Y91321
X10110Y78361
X8142Y78361
X14441Y78361
X16410Y78361
X19542Y78361
X21510Y78361
X25841Y78361
X27810Y78361
X9840Y65536
X7872Y65536
X14171Y65536
X16140Y65536
X19272Y65536
X21240Y65536
X25571Y65536
X27540Y65536
X9975Y104146
X8007Y104146
X14306Y104146
X16275Y104146
X19407Y104146
X21375Y104146
X25706Y104146
X27675Y104146
X9975Y91321
X8007Y91321
X14306Y91321
X16275Y91321
X19407Y91321
X21375Y91321
X25706Y91321
X27675Y91321
X38190Y65671
X36222Y65671
X42521Y65671
X44490Y65671
X47622Y65671
X49590Y65671
X53921Y65671
X55890Y65671
X38460Y116836
X36492Y116836
X42791Y116836
X44760Y116836
X47892Y116836
X49860Y116836
X54191Y116836
X56160Y116836
X9975Y116566
X8007Y116566
X14306Y116566
X16275Y116566
X19407Y116566
X21375Y116566
X25706Y116566
X27675Y116566
T01
X33225Y98916
X34125Y98916
X34125Y99916
X33225Y99916
X31725Y101016
X31725Y102016
X37325Y106716
X38325Y106716
X44925Y102216
X44925Y101216
X44925Y100016
X44925Y99016
X50125Y101116
X51125Y101116
X53025Y101116
X53025Y102116
X56025Y101716
X57025Y101716
X33225Y72726
X34125Y72726
X34125Y73726
X33225Y73726
X31725Y74826
X31725Y75826
X37325Y80526
X38325Y80526
X44925Y76026
X44925Y75026
X44925Y73826
X44925Y72826
X50125Y74926
X51125Y74926
X53025Y74926
X53025Y75926
X56025Y75526
X57025Y75526
X33225Y85821
X34125Y85821
X34125Y86821
X33225Y86821
X31725Y87921
X31725Y88921
X37325Y93621
X38325Y93621
X44925Y89121
X44925Y88121
X44925Y86921
X44925Y85921
X50125Y88021
X51125Y88021
X53025Y88021
X53025Y89021
X56025Y88621
X57025Y88621
X5010Y72861
X5910Y72861
X5910Y73861
X5010Y73861
X3510Y74961
X3510Y75961
X9110Y80661
X10110Y80661
X16710Y76161
X16710Y75161
X16710Y73961
X16710Y72961
X21910Y75061
X22910Y75061
X24810Y75061
X24810Y76061
X27810Y75661
X28810Y75661
X4740Y60036
X5640Y60036
X5640Y61036
X4740Y61036
X3240Y62136
X3240Y63136
X8840Y67836
X9840Y67836
X16440Y63336
X16440Y62336
X16440Y61136
X16440Y60136
X21640Y62236
X22640Y62236
X24540Y62236
X24540Y63236
X27540Y62836
X28540Y62836
X4875Y98646
X5775Y98646
X5775Y99646
X4875Y99646
X3375Y100746
X3375Y101746
X8975Y106446
X9975Y106446
X16575Y101946
X16575Y100946
X16575Y99746
X16575Y98746
X21775Y100846
X22775Y100846
X24675Y100846
X24675Y101846
X27675Y101446
X28675Y101446
X4875Y85821
X5775Y85821
X5775Y86821
X4875Y86821
X3375Y87921
X3375Y88921
X8975Y93621
X9975Y93621
X16575Y89121
X16575Y88121
X16575Y86921
X16575Y85921
X21775Y88021
X22775Y88021
X24675Y88021
X24675Y89021
X27675Y88621
X28675Y88621
X33090Y60171
X33990Y60171
X33990Y61171
X33090Y61171
X31590Y62271
X31590Y63271
X37190Y67971
X38190Y67971
X44790Y63471
X44790Y62471
X44790Y61271
X44790Y60271
X49990Y62371
X50990Y62371
X52890Y62371
X52890Y63371
X55890Y62971
X56890Y62971
X33360Y111336
X34260Y111336
X34260Y112336
X33360Y112336
X31860Y113436
X31860Y114436
X37460Y119136
X38460Y119136
X45060Y114636
X45060Y113636
X45060Y112436
X45060Y111436
X50260Y113536
X51260Y113536
X53160Y113536
X53160Y114536
X56160Y114136
X57160Y114136
X4875Y111066
X5775Y111066
X5775Y112066
X4875Y112066
X3375Y113166
X3375Y114166
X8975Y118866
X9975Y118866
X16575Y114366
X16575Y113366
X16575Y112166
X16575Y111166
X21775Y113266
X22775Y113266
X24675Y113266
X24675Y114266
X27675Y113866
X28675Y113866
T09
X37125Y100716
X37125Y74526
X37125Y87621
X8910Y74661
X8640Y61836
X8775Y100446
X8775Y87621
X36990Y61971
X37260Y113136
X8775Y112866
T04
X48125Y99316
X49125Y99316
X50125Y99316
X51125Y99316
X52125Y99316
X53125Y99316
X54125Y99316
X48125Y73126
X49125Y73126
X50125Y73126
X51125Y73126
X52125Y73126
X53125Y73126
X54125Y73126
X48125Y86221
X49125Y86221
X50125Y86221
X51125Y86221
X52125Y86221
X53125Y86221
X54125Y86221
X19910Y73261
X20910Y73261
X21910Y73261
X22910Y73261
X23910Y73261
X24910Y73261
X25910Y73261
X19640Y60436
X20640Y60436
X21640Y60436
X22640Y60436
X23640Y60436
X24640Y60436
X25640Y60436
X19775Y99046
X20775Y99046
X21775Y99046
X22775Y99046
X23775Y99046
X24775Y99046
X25775Y99046
X19775Y86221
X20775Y86221
X21775Y86221
X22775Y86221
X23775Y86221
X24775Y86221
X25775Y86221
X47990Y60571
X48990Y60571
X49990Y60571
X50990Y60571
X51990Y60571
X52990Y60571
X53990Y60571
X48260Y111736
X49260Y111736
X50260Y111736
X51260Y111736
X52260Y111736
X53260Y111736
X54260Y111736
X19775Y111466
X20775Y111466
X21775Y111466
X22775Y111466
X23775Y111466
X24775Y111466
X25775Y111466
T03
X43025Y101716
X43025Y100716
X43025Y99716
X43025Y75526
X43025Y74526
X43025Y73526
X43025Y88621
X43025Y87621
X43025Y86621
X14810Y75661
X14810Y74661
X14810Y73661
X14540Y62836
X14540Y61836
X14540Y60836
X14675Y101446
X14675Y100446
X14675Y99446
X14675Y88621
X14675Y87621
X14675Y86621
X42890Y62971
X42890Y61971
X42890Y60971
X43160Y114136
X43160Y113136
X43160Y112136
X14675Y113866
X14675Y112866
X14675Y111866
T08
X41350Y108226
X46520Y108226
X49120Y108226
X54290Y108226
X41350Y82036
X46520Y82036
X49120Y82036
X54290Y82036
X41350Y95131
X46520Y95131
X49120Y95131
X54290Y95131
X13135Y82171
X18305Y82171
X20905Y82171
X26075Y82171
X12865Y69346
X18035Y69346
X20635Y69346
X25805Y69346
X13000Y107956
X18170Y107956
X20770Y107956
X25940Y107956
X13000Y95131
X18170Y95131
X20770Y95131
X25940Y95131
X41215Y69481
X46385Y69481
X48985Y69481
X54155Y69481
X41485Y120646
X46655Y120646
X49255Y120646
X54425Y120646
X13000Y120376
X18170Y120376
X20770Y120376
X25940Y120376
T07
X32975Y106516
X31675Y108316
X32975Y80326
X31675Y82126
X32975Y93421
X31675Y95221
X4760Y80461
X3460Y82261
X4490Y67636
X3190Y69436
X4625Y106246
X3325Y108046
X4625Y93421
X3325Y95221
X32840Y67771
X31540Y69571
X33110Y118936
X31810Y120736
X4625Y118666
X3325Y120466
T05
X56126Y99317
X57126Y99317
X56825Y108016
X55825Y108016
X39825Y108316
X38825Y108316
X56126Y73127
X57126Y73127
X56825Y81826
X55825Y81826
X39825Y82126
X38825Y82126
X56126Y86222
X57126Y86222
X56825Y94921
X55825Y94921
X39825Y95221
X38825Y95221
X27911Y73262
X28911Y73262
X28610Y81961
X27610Y81961
X11610Y82261
X10610Y82261
X27641Y60437
X28641Y60437
X28340Y69136
X27340Y69136
X11340Y69436
X10340Y69436
X27776Y99047
X28776Y99047
X28475Y107746
X27475Y107746
X11475Y108046
X10475Y108046
X27776Y86222
X28776Y86222
X28475Y94921
X27475Y94921
X11475Y95221
X10475Y95221
X55991Y60572
X56991Y60572
X56690Y69271
X55690Y69271
X39690Y69571
X38690Y69571
X56261Y111737
X57261Y111737
X56960Y120436
X55960Y120436
X39960Y120736
X38960Y120736
X27776Y111467
X28776Y111467
X28475Y120166
X27475Y120166
X11475Y120466
X10475Y120466
T02
X53080Y107156
X52100Y107156
X51310Y107156
X50330Y107156
X45310Y107156
X44330Y107156
X43540Y107156
X42560Y107156
X53080Y80966
X52100Y80966
X51310Y80966
X50330Y80966
X45310Y80966
X44330Y80966
X43540Y80966
X42560Y80966
X53080Y94061
X52100Y94061
X51310Y94061
X50330Y94061
X45310Y94061
X44330Y94061
X43540Y94061
X42560Y94061
X24865Y81101
X23885Y81101
X23095Y81101
X22115Y81101
X17095Y81101
X16115Y81101
X15325Y81101
X14345Y81101
X24595Y68276
X23615Y68276
X22825Y68276
X21845Y68276
X16825Y68276
X15845Y68276
X15055Y68276
X14075Y68276
X24730Y106886
X23750Y106886
X22960Y106886
X21980Y106886
X16960Y106886
X15980Y106886
X15190Y106886
X14210Y106886
X24730Y94061
X23750Y94061
X22960Y94061
X21980Y94061
X16960Y94061
X15980Y94061
X15190Y94061
X14210Y94061
X52945Y68411
X51965Y68411
X51175Y68411
X50195Y68411
X45175Y68411
X44195Y68411
X43405Y68411
X42425Y68411
X53215Y119576
X52235Y119576
X51445Y119576
X50465Y119576
X45445Y119576
X44465Y119576
X43675Y119576
X42695Y119576
X24730Y119306
X23750Y119306
X22960Y119306
X21980Y119306
X16960Y119306
X15980Y119306
X15190Y119306
X14210Y119306
M30
