G75*
G70*
%OFA0B0*%
%FSLAX24Y24*%
%IPPOS*%
%LPD*%
%AMOC8*
5,1,8,0,0,1.08239X$1,22.5*
%
%ADD10C,0.0945*%
%ADD11C,0.0520*%
%ADD12C,0.0600*%
%ADD13OC8,0.0600*%
%ADD14OC8,0.0520*%
%ADD15C,0.0396*%
%ADD16C,0.0160*%
%ADD17C,0.0080*%
D10*
X003912Y001957D03*
X005881Y001957D03*
X002727Y006918D03*
X002727Y008887D03*
X012195Y001958D03*
X014163Y001958D03*
D11*
X010782Y002079D02*
X010262Y002079D01*
X010262Y001079D02*
X010782Y001079D01*
X010782Y003079D02*
X010262Y003079D01*
X010262Y004079D02*
X010782Y004079D01*
X010782Y005079D02*
X010262Y005079D01*
X010262Y006079D02*
X010782Y006079D01*
X010782Y007079D02*
X010262Y007079D01*
X010262Y008079D02*
X010782Y008079D01*
X010983Y009412D02*
X010983Y009932D01*
X009983Y009932D02*
X009983Y009412D01*
X008983Y009412D02*
X008983Y009932D01*
X007983Y009932D02*
X007983Y009412D01*
X006983Y009412D02*
X006983Y009932D01*
X007262Y008079D02*
X007782Y008079D01*
X007782Y007079D02*
X007262Y007079D01*
X007262Y006079D02*
X007782Y006079D01*
X007782Y005079D02*
X007262Y005079D01*
X007262Y004079D02*
X007782Y004079D01*
X007782Y003079D02*
X007262Y003079D01*
X007262Y002079D02*
X007782Y002079D01*
X007782Y001079D02*
X007262Y001079D01*
X011983Y009412D02*
X011983Y009932D01*
X012983Y009932D02*
X012983Y009412D01*
X013983Y009412D02*
X013983Y009932D01*
X014983Y009932D02*
X014983Y009412D01*
X015983Y009412D02*
X015983Y009932D01*
X015983Y012412D02*
X015983Y012932D01*
X014983Y012932D02*
X014983Y012412D01*
X013983Y012412D02*
X013983Y012932D01*
X012983Y012932D02*
X012983Y012412D01*
X011983Y012412D02*
X011983Y012932D01*
X010983Y012932D02*
X010983Y012412D01*
X009983Y012412D02*
X009983Y012932D01*
X008983Y012932D02*
X008983Y012412D01*
X007983Y012412D02*
X007983Y012932D01*
X006983Y012932D02*
X006983Y012412D01*
D12*
X001823Y012952D03*
X001823Y015952D03*
D13*
X001823Y014952D03*
X002823Y014952D03*
X002823Y015952D03*
X003823Y015952D03*
X003823Y014952D03*
X003823Y012952D03*
X002823Y012952D03*
X002823Y011952D03*
X003823Y011952D03*
X001823Y011952D03*
D14*
X007423Y013982D03*
X007423Y014982D03*
X008923Y014982D03*
X008923Y013982D03*
X010423Y013982D03*
X010423Y014982D03*
X011923Y014982D03*
X011923Y013982D03*
D15*
X010443Y011022D03*
X008703Y010872D03*
X008643Y006492D03*
X009003Y005982D03*
X009123Y005202D03*
X009663Y004842D03*
D16*
X009663Y006972D01*
X009783Y007092D01*
X009783Y008592D01*
X010083Y008892D01*
X010233Y008892D01*
X010443Y009102D01*
X010443Y011022D01*
X008703Y010872D02*
X008463Y010632D01*
X008463Y008592D01*
X008583Y008472D01*
X008583Y007452D01*
X009063Y006972D01*
X009063Y006402D01*
X009003Y006342D01*
X009003Y005982D01*
X009393Y005742D02*
X009393Y007092D01*
X009513Y007212D01*
X009513Y013452D01*
X010053Y013992D01*
X010413Y013992D01*
X010423Y013982D01*
X010173Y014502D02*
X011403Y014502D01*
X011923Y013982D01*
X010173Y014502D02*
X009153Y013482D01*
X008793Y013482D01*
X008463Y013152D01*
X008463Y011382D01*
X007473Y010392D01*
X007473Y008128D01*
X007522Y008079D01*
X007983Y008622D02*
X007983Y009672D01*
X007983Y008622D02*
X008283Y008322D01*
X008283Y006852D01*
X008643Y006492D01*
X009393Y005742D02*
X009123Y005472D01*
X009123Y005202D01*
X007522Y007079D02*
X006483Y008118D01*
X006483Y010422D01*
X007983Y011922D01*
X007983Y012672D01*
X006983Y012672D02*
X006983Y012722D01*
X008013Y013752D01*
X008013Y014712D01*
X008283Y014982D01*
X008923Y014982D01*
X002823Y014952D02*
X002823Y012952D01*
X002823Y011952D01*
X002823Y014952D02*
X002823Y015952D01*
D17*
X000943Y000802D02*
X006974Y000802D01*
X006923Y000853D01*
X006862Y001000D01*
X006862Y001159D01*
X006923Y001306D01*
X007036Y001418D01*
X007183Y001479D01*
X007862Y001479D01*
X008009Y001418D01*
X008121Y001306D01*
X008182Y001159D01*
X008182Y001000D01*
X008121Y000853D01*
X008071Y000802D01*
X009974Y000802D01*
X009923Y000853D01*
X009862Y001000D01*
X009862Y001159D01*
X009923Y001306D01*
X010036Y001418D01*
X010183Y001479D01*
X010862Y001479D01*
X011009Y001418D01*
X011121Y001306D01*
X011182Y001159D01*
X011182Y001000D01*
X011121Y000853D01*
X011071Y000802D01*
X016903Y000802D01*
X016903Y017262D01*
X000943Y017262D01*
X000943Y000802D01*
X000943Y000832D02*
X006944Y000832D01*
X006899Y000911D02*
X000943Y000911D01*
X000943Y000989D02*
X006867Y000989D01*
X006862Y001068D02*
X000943Y001068D01*
X000943Y001146D02*
X006862Y001146D01*
X006890Y001225D02*
X000943Y001225D01*
X000943Y001303D02*
X006922Y001303D01*
X006999Y001382D02*
X006094Y001382D01*
X006003Y001344D02*
X006228Y001437D01*
X006400Y001610D01*
X006493Y001835D01*
X006493Y002078D01*
X006400Y002304D01*
X006228Y002476D01*
X006003Y002569D01*
X005759Y002569D01*
X005534Y002476D01*
X005362Y002304D01*
X005269Y002078D01*
X005269Y001835D01*
X005362Y001610D01*
X005534Y001437D01*
X005759Y001344D01*
X006003Y001344D01*
X006251Y001460D02*
X007137Y001460D01*
X007183Y001679D02*
X007036Y001740D01*
X006923Y001853D01*
X006493Y001853D01*
X006493Y001932D02*
X006891Y001932D01*
X006862Y002000D02*
X006923Y001853D01*
X007001Y001775D02*
X006468Y001775D01*
X006436Y001696D02*
X007142Y001696D01*
X007183Y001679D02*
X007862Y001679D01*
X008009Y001740D01*
X008121Y001853D01*
X008182Y002000D01*
X008182Y002159D01*
X008121Y002306D01*
X008009Y002418D01*
X007862Y002479D01*
X007183Y002479D01*
X007036Y002418D01*
X006923Y002306D01*
X006862Y002159D01*
X006862Y002000D01*
X006862Y002010D02*
X006493Y002010D01*
X006489Y002089D02*
X006862Y002089D01*
X006866Y002167D02*
X006457Y002167D01*
X006424Y002246D02*
X006898Y002246D01*
X006942Y002324D02*
X006379Y002324D01*
X006301Y002403D02*
X007020Y002403D01*
X007183Y002679D02*
X007036Y002740D01*
X006923Y002853D01*
X006862Y003000D01*
X006862Y003159D01*
X006923Y003306D01*
X007036Y003418D01*
X007183Y003479D01*
X007862Y003479D01*
X008009Y003418D01*
X008121Y003306D01*
X008182Y003159D01*
X008182Y003000D01*
X008121Y002853D01*
X008009Y002740D01*
X007862Y002679D01*
X007183Y002679D01*
X007092Y002717D02*
X000943Y002717D01*
X000943Y002639D02*
X016903Y002639D01*
X016903Y002717D02*
X010953Y002717D01*
X011009Y002740D02*
X011121Y002853D01*
X011182Y003000D01*
X011182Y003159D01*
X011121Y003306D01*
X011009Y003418D01*
X010862Y003479D01*
X010183Y003479D01*
X010036Y003418D01*
X009923Y003306D01*
X009862Y003159D01*
X009862Y003000D01*
X009923Y002853D01*
X010036Y002740D01*
X010183Y002679D01*
X010862Y002679D01*
X011009Y002740D01*
X011064Y002796D02*
X016903Y002796D01*
X016903Y002874D02*
X011130Y002874D01*
X011163Y002953D02*
X016903Y002953D01*
X016903Y003031D02*
X011182Y003031D01*
X011182Y003110D02*
X016903Y003110D01*
X016903Y003188D02*
X011170Y003188D01*
X011138Y003267D02*
X016903Y003267D01*
X016903Y003345D02*
X011082Y003345D01*
X010996Y003424D02*
X016903Y003424D01*
X016903Y003502D02*
X000943Y003502D01*
X000943Y003424D02*
X007049Y003424D01*
X006963Y003345D02*
X000943Y003345D01*
X000943Y003267D02*
X006907Y003267D01*
X006875Y003188D02*
X000943Y003188D01*
X000943Y003110D02*
X006862Y003110D01*
X006862Y003031D02*
X000943Y003031D01*
X000943Y002953D02*
X006882Y002953D01*
X006914Y002874D02*
X000943Y002874D01*
X000943Y002796D02*
X006980Y002796D01*
X006214Y002481D02*
X011859Y002481D01*
X011848Y002477D02*
X011675Y002305D01*
X011582Y002079D01*
X011582Y001836D01*
X011675Y001611D01*
X011848Y001438D01*
X012073Y001345D01*
X012316Y001345D01*
X012542Y001438D01*
X012714Y001611D01*
X012807Y001836D01*
X012807Y002079D01*
X012714Y002305D01*
X012542Y002477D01*
X012316Y002570D01*
X012073Y002570D01*
X011848Y002477D01*
X011774Y002403D02*
X011024Y002403D01*
X011009Y002418D02*
X010862Y002479D01*
X010183Y002479D01*
X010036Y002418D01*
X009923Y002306D01*
X009862Y002159D01*
X009862Y002000D01*
X009923Y001853D01*
X008122Y001853D01*
X008154Y001932D02*
X009891Y001932D01*
X009862Y002010D02*
X008182Y002010D01*
X008182Y002089D02*
X009862Y002089D01*
X009866Y002167D02*
X008179Y002167D01*
X008146Y002246D02*
X009898Y002246D01*
X009942Y002324D02*
X008103Y002324D01*
X008024Y002403D02*
X010020Y002403D01*
X010092Y002717D02*
X007953Y002717D01*
X008064Y002796D02*
X009980Y002796D01*
X009914Y002874D02*
X008130Y002874D01*
X008163Y002953D02*
X009882Y002953D01*
X009862Y003031D02*
X008182Y003031D01*
X008182Y003110D02*
X009862Y003110D01*
X009875Y003188D02*
X008170Y003188D01*
X008138Y003267D02*
X009907Y003267D01*
X009963Y003345D02*
X008082Y003345D01*
X007996Y003424D02*
X010049Y003424D01*
X009731Y004504D02*
X009596Y004504D01*
X009472Y004556D01*
X009377Y004651D01*
X009325Y004775D01*
X009325Y004909D01*
X009337Y004938D01*
X009315Y004916D01*
X009191Y004864D01*
X009056Y004864D01*
X008932Y004916D01*
X008837Y005011D01*
X008785Y005135D01*
X008785Y005269D01*
X008837Y005394D01*
X008903Y005460D01*
X008903Y005563D01*
X008984Y005644D01*
X008936Y005644D01*
X008812Y005696D01*
X008717Y005791D01*
X008665Y005915D01*
X008665Y006049D01*
X008709Y006154D01*
X008576Y006154D01*
X008452Y006206D01*
X008357Y006301D01*
X008305Y006425D01*
X008305Y006519D01*
X008192Y006632D01*
X008063Y006761D01*
X008063Y006795D01*
X008009Y006740D01*
X007862Y006679D01*
X007183Y006679D01*
X007036Y006740D01*
X006923Y006853D01*
X006862Y007000D01*
X006862Y007159D01*
X006923Y007306D01*
X006954Y007337D01*
X006392Y007898D01*
X006263Y008027D01*
X006263Y010331D01*
X006263Y010513D01*
X007763Y012013D01*
X007763Y012070D01*
X007757Y012073D01*
X007644Y012186D01*
X007583Y012333D01*
X007583Y013011D01*
X007383Y012811D01*
X007383Y012333D01*
X007322Y012186D01*
X007210Y012073D01*
X007063Y012012D01*
X006904Y012012D01*
X006757Y012073D01*
X006644Y012186D01*
X006583Y012333D01*
X006583Y013012D01*
X006644Y013159D01*
X006757Y013271D01*
X006904Y013332D01*
X007063Y013332D01*
X007210Y013271D01*
X007216Y013266D01*
X007532Y013582D01*
X007258Y013582D01*
X007023Y013817D01*
X007023Y014148D01*
X007258Y014382D01*
X007589Y014382D01*
X007793Y014178D01*
X007793Y014621D01*
X007793Y014803D01*
X008063Y015073D01*
X008192Y015202D01*
X008578Y015202D01*
X008758Y015382D01*
X009089Y015382D01*
X009323Y015148D01*
X009323Y014817D01*
X009089Y014582D01*
X008758Y014582D01*
X008578Y014762D01*
X008374Y014762D01*
X008233Y014621D01*
X008233Y013661D01*
X008104Y013532D01*
X007904Y013332D01*
X008063Y013332D01*
X008210Y013271D01*
X008243Y013238D01*
X008243Y013243D01*
X008573Y013573D01*
X008702Y013702D01*
X009062Y013702D01*
X009953Y014593D01*
X010082Y014722D01*
X011494Y014722D01*
X011623Y014593D01*
X011834Y014382D01*
X012089Y014382D01*
X012323Y014148D01*
X012323Y013817D01*
X012089Y013582D01*
X011758Y013582D01*
X011523Y013817D01*
X011523Y014071D01*
X011312Y014282D01*
X010689Y014282D01*
X010823Y014148D01*
X010823Y013817D01*
X010589Y013582D01*
X010258Y013582D01*
X010106Y013734D01*
X009733Y013361D01*
X009733Y013248D01*
X009757Y013271D01*
X009904Y013332D01*
X010063Y013332D01*
X010210Y013271D01*
X010322Y013159D01*
X010383Y013012D01*
X010383Y012333D01*
X010322Y012186D01*
X010210Y012073D01*
X010063Y012012D01*
X009904Y012012D01*
X009757Y012073D01*
X009733Y012097D01*
X009733Y008853D01*
X009863Y008983D01*
X009992Y009112D01*
X010142Y009112D01*
X010223Y009193D01*
X010223Y010764D01*
X010157Y010831D01*
X010105Y010955D01*
X010105Y011089D01*
X010157Y011214D01*
X010252Y011309D01*
X010376Y011360D01*
X010511Y011360D01*
X010635Y011309D01*
X010730Y011214D01*
X010781Y011089D01*
X010781Y010955D01*
X010730Y010831D01*
X010663Y010764D01*
X010663Y009011D01*
X010534Y008882D01*
X010324Y008672D01*
X010174Y008672D01*
X010003Y008501D01*
X010003Y008386D01*
X010036Y008418D01*
X010183Y008479D01*
X010862Y008479D01*
X011009Y008418D01*
X011121Y008306D01*
X011182Y008159D01*
X011182Y008000D01*
X011121Y007853D01*
X011009Y007740D01*
X010862Y007679D01*
X010183Y007679D01*
X010036Y007740D01*
X010003Y007773D01*
X010003Y007386D01*
X010036Y007418D01*
X010183Y007479D01*
X010862Y007479D01*
X011009Y007418D01*
X011121Y007306D01*
X011182Y007159D01*
X011182Y007000D01*
X011121Y006853D01*
X011009Y006740D01*
X010862Y006679D01*
X010183Y006679D01*
X010036Y006740D01*
X009923Y006853D01*
X009903Y006901D01*
X009883Y006881D01*
X009883Y006209D01*
X009923Y006306D01*
X010036Y006418D01*
X010183Y006479D01*
X010862Y006479D01*
X011009Y006418D01*
X011121Y006306D01*
X011182Y006159D01*
X011182Y006000D01*
X011121Y005853D01*
X011009Y005740D01*
X010862Y005679D01*
X010183Y005679D01*
X010036Y005740D01*
X009923Y005853D01*
X009883Y005949D01*
X009883Y005100D01*
X009950Y005034D01*
X010001Y004909D01*
X010001Y004775D01*
X009950Y004651D01*
X009855Y004556D01*
X009731Y004504D01*
X009777Y004524D02*
X016903Y004524D01*
X016903Y004602D02*
X009901Y004602D01*
X009962Y004681D02*
X016903Y004681D01*
X016903Y004759D02*
X009995Y004759D01*
X010001Y004838D02*
X016903Y004838D01*
X016903Y004916D02*
X009999Y004916D01*
X009966Y004995D02*
X016903Y004995D01*
X016903Y005073D02*
X009910Y005073D01*
X009883Y005152D02*
X016903Y005152D01*
X016903Y005230D02*
X009883Y005230D01*
X009883Y005309D02*
X016903Y005309D01*
X016903Y005388D02*
X009883Y005388D01*
X009883Y005466D02*
X016903Y005466D01*
X016903Y005545D02*
X009883Y005545D01*
X009883Y005623D02*
X016903Y005623D01*
X016903Y005702D02*
X010916Y005702D01*
X011049Y005780D02*
X016903Y005780D01*
X016903Y005859D02*
X011124Y005859D01*
X011156Y005937D02*
X016903Y005937D01*
X016903Y006016D02*
X011182Y006016D01*
X011182Y006094D02*
X016903Y006094D01*
X016903Y006173D02*
X011177Y006173D01*
X011144Y006251D02*
X016903Y006251D01*
X016903Y006330D02*
X011097Y006330D01*
X011019Y006409D02*
X016903Y006409D01*
X016903Y006487D02*
X009883Y006487D01*
X009883Y006409D02*
X010026Y006409D01*
X009947Y006330D02*
X009883Y006330D01*
X009883Y006251D02*
X009901Y006251D01*
X009883Y005937D02*
X009888Y005937D01*
X009883Y005859D02*
X009921Y005859D01*
X009883Y005780D02*
X009996Y005780D01*
X009883Y005702D02*
X010129Y005702D01*
X009883Y006566D02*
X016903Y006566D01*
X016903Y006644D02*
X009883Y006644D01*
X009883Y006723D02*
X010078Y006723D01*
X009975Y006801D02*
X009883Y006801D01*
X009883Y006880D02*
X009912Y006880D01*
X010003Y007430D02*
X010063Y007430D01*
X010003Y007508D02*
X016903Y007508D01*
X016903Y007430D02*
X010982Y007430D01*
X011076Y007351D02*
X016903Y007351D01*
X016903Y007273D02*
X011135Y007273D01*
X011168Y007194D02*
X016903Y007194D01*
X016903Y007115D02*
X011182Y007115D01*
X011182Y007037D02*
X016903Y007037D01*
X016903Y006958D02*
X011165Y006958D01*
X011133Y006880D02*
X016903Y006880D01*
X016903Y006801D02*
X011070Y006801D01*
X010967Y006723D02*
X016903Y006723D01*
X016903Y007587D02*
X010003Y007587D01*
X010003Y007665D02*
X016903Y007665D01*
X016903Y007744D02*
X011013Y007744D01*
X011091Y007822D02*
X016903Y007822D01*
X016903Y007901D02*
X011141Y007901D01*
X011174Y007979D02*
X016903Y007979D01*
X016903Y008058D02*
X011182Y008058D01*
X011182Y008137D02*
X016903Y008137D01*
X016903Y008215D02*
X011159Y008215D01*
X011127Y008294D02*
X016903Y008294D01*
X016903Y008372D02*
X011055Y008372D01*
X010931Y008451D02*
X016903Y008451D01*
X016903Y008529D02*
X010031Y008529D01*
X010003Y008451D02*
X010114Y008451D01*
X010110Y008608D02*
X016903Y008608D01*
X016903Y008686D02*
X010339Y008686D01*
X010417Y008765D02*
X016903Y008765D01*
X016903Y008843D02*
X010496Y008843D01*
X010574Y008922D02*
X016903Y008922D01*
X016903Y009001D02*
X010653Y009001D01*
X010663Y009079D02*
X013751Y009079D01*
X013757Y009073D02*
X013904Y009012D01*
X014063Y009012D01*
X014210Y009073D01*
X014322Y009186D01*
X014383Y009333D01*
X014383Y010012D01*
X014322Y010159D01*
X014210Y010271D01*
X014063Y010332D01*
X013904Y010332D01*
X013757Y010271D01*
X013644Y010159D01*
X013583Y010012D01*
X013583Y009333D01*
X013644Y009186D01*
X013757Y009073D01*
X013672Y009158D02*
X010663Y009158D01*
X010663Y009236D02*
X013623Y009236D01*
X013591Y009315D02*
X010663Y009315D01*
X010663Y009393D02*
X013583Y009393D01*
X013583Y009472D02*
X010663Y009472D01*
X010663Y009550D02*
X013583Y009550D01*
X013583Y009629D02*
X010663Y009629D01*
X010663Y009707D02*
X013583Y009707D01*
X013583Y009786D02*
X010663Y009786D01*
X010663Y009864D02*
X013583Y009864D01*
X013583Y009943D02*
X010663Y009943D01*
X010663Y010022D02*
X013587Y010022D01*
X013620Y010100D02*
X010663Y010100D01*
X010663Y010179D02*
X013664Y010179D01*
X013743Y010257D02*
X010663Y010257D01*
X010663Y010336D02*
X016903Y010336D01*
X016903Y010414D02*
X010663Y010414D01*
X010663Y010493D02*
X016903Y010493D01*
X016903Y010571D02*
X010663Y010571D01*
X010663Y010650D02*
X016903Y010650D01*
X016903Y010728D02*
X010663Y010728D01*
X010706Y010807D02*
X016903Y010807D01*
X016903Y010886D02*
X010753Y010886D01*
X010781Y010964D02*
X016903Y010964D01*
X016903Y011043D02*
X010781Y011043D01*
X010768Y011121D02*
X016903Y011121D01*
X016903Y011200D02*
X010736Y011200D01*
X010665Y011278D02*
X016903Y011278D01*
X016903Y011357D02*
X010519Y011357D01*
X010368Y011357D02*
X009733Y011357D01*
X009733Y011435D02*
X016903Y011435D01*
X016903Y011514D02*
X009733Y011514D01*
X009733Y011592D02*
X016903Y011592D01*
X016903Y011671D02*
X009733Y011671D01*
X009733Y011750D02*
X016903Y011750D01*
X016903Y011828D02*
X009733Y011828D01*
X009733Y011907D02*
X016903Y011907D01*
X016903Y011985D02*
X009733Y011985D01*
X009733Y012064D02*
X009779Y012064D01*
X010187Y012064D02*
X010779Y012064D01*
X010757Y012073D02*
X010904Y012012D01*
X011063Y012012D01*
X011210Y012073D01*
X011322Y012186D01*
X011383Y012333D01*
X011383Y013012D01*
X011322Y013159D01*
X011210Y013271D01*
X011063Y013332D01*
X010904Y013332D01*
X010757Y013271D01*
X010644Y013159D01*
X010583Y013012D01*
X010583Y012333D01*
X010644Y012186D01*
X010757Y012073D01*
X010688Y012142D02*
X010279Y012142D01*
X010337Y012221D02*
X010630Y012221D01*
X010597Y012299D02*
X010369Y012299D01*
X010383Y012378D02*
X010583Y012378D01*
X010583Y012456D02*
X010383Y012456D01*
X010383Y012535D02*
X010583Y012535D01*
X010583Y012614D02*
X010383Y012614D01*
X010383Y012692D02*
X010583Y012692D01*
X010583Y012771D02*
X010383Y012771D01*
X010383Y012849D02*
X010583Y012849D01*
X010583Y012928D02*
X010383Y012928D01*
X010383Y013006D02*
X010583Y013006D01*
X010614Y013085D02*
X010353Y013085D01*
X010318Y013163D02*
X010649Y013163D01*
X010727Y013242D02*
X010239Y013242D01*
X010091Y013320D02*
X010875Y013320D01*
X011091Y013320D02*
X011875Y013320D01*
X011904Y013332D02*
X011757Y013271D01*
X011644Y013159D01*
X011583Y013012D01*
X011583Y012333D01*
X011644Y012186D01*
X011757Y012073D01*
X011904Y012012D01*
X012063Y012012D01*
X012210Y012073D01*
X012322Y012186D01*
X012383Y012333D01*
X012383Y013012D01*
X012322Y013159D01*
X012210Y013271D01*
X012063Y013332D01*
X011904Y013332D01*
X012091Y013320D02*
X012875Y013320D01*
X012904Y013332D02*
X012757Y013271D01*
X012644Y013159D01*
X012583Y013012D01*
X012583Y012333D01*
X012644Y012186D01*
X012757Y012073D01*
X012904Y012012D01*
X013063Y012012D01*
X013210Y012073D01*
X013322Y012186D01*
X013383Y012333D01*
X013383Y013012D01*
X013322Y013159D01*
X013210Y013271D01*
X013063Y013332D01*
X012904Y013332D01*
X013091Y013320D02*
X013875Y013320D01*
X013904Y013332D02*
X013757Y013271D01*
X013644Y013159D01*
X013583Y013012D01*
X013583Y012333D01*
X013644Y012186D01*
X013757Y012073D01*
X013904Y012012D01*
X014063Y012012D01*
X014210Y012073D01*
X014322Y012186D01*
X014383Y012333D01*
X014383Y013012D01*
X014322Y013159D01*
X014210Y013271D01*
X014063Y013332D01*
X013904Y013332D01*
X013727Y013242D02*
X013239Y013242D01*
X013318Y013163D02*
X013649Y013163D01*
X013614Y013085D02*
X013353Y013085D01*
X013383Y013006D02*
X013583Y013006D01*
X013583Y012928D02*
X013383Y012928D01*
X013383Y012849D02*
X013583Y012849D01*
X013583Y012771D02*
X013383Y012771D01*
X013383Y012692D02*
X013583Y012692D01*
X013583Y012614D02*
X013383Y012614D01*
X013383Y012535D02*
X013583Y012535D01*
X013583Y012456D02*
X013383Y012456D01*
X013383Y012378D02*
X013583Y012378D01*
X013597Y012299D02*
X013369Y012299D01*
X013337Y012221D02*
X013630Y012221D01*
X013688Y012142D02*
X013279Y012142D01*
X013187Y012064D02*
X013779Y012064D01*
X014187Y012064D02*
X014779Y012064D01*
X014757Y012073D02*
X014904Y012012D01*
X015063Y012012D01*
X015210Y012073D01*
X015322Y012186D01*
X015383Y012333D01*
X015383Y013012D01*
X015322Y013159D01*
X015210Y013271D01*
X015063Y013332D01*
X014904Y013332D01*
X014757Y013271D01*
X014644Y013159D01*
X014583Y013012D01*
X014583Y012333D01*
X014644Y012186D01*
X014757Y012073D01*
X014688Y012142D02*
X014279Y012142D01*
X014337Y012221D02*
X014630Y012221D01*
X014597Y012299D02*
X014369Y012299D01*
X014383Y012378D02*
X014583Y012378D01*
X014583Y012456D02*
X014383Y012456D01*
X014383Y012535D02*
X014583Y012535D01*
X014583Y012614D02*
X014383Y012614D01*
X014383Y012692D02*
X014583Y012692D01*
X014583Y012771D02*
X014383Y012771D01*
X014383Y012849D02*
X014583Y012849D01*
X014583Y012928D02*
X014383Y012928D01*
X014383Y013006D02*
X014583Y013006D01*
X014614Y013085D02*
X014353Y013085D01*
X014318Y013163D02*
X014649Y013163D01*
X014727Y013242D02*
X014239Y013242D01*
X014091Y013320D02*
X014875Y013320D01*
X015091Y013320D02*
X015875Y013320D01*
X015904Y013332D02*
X015757Y013271D01*
X015644Y013159D01*
X015583Y013012D01*
X015583Y012333D01*
X015644Y012186D01*
X015757Y012073D01*
X015904Y012012D01*
X016063Y012012D01*
X016210Y012073D01*
X016322Y012186D01*
X016383Y012333D01*
X016383Y013012D01*
X016322Y013159D01*
X016210Y013271D01*
X016063Y013332D01*
X015904Y013332D01*
X016091Y013320D02*
X016903Y013320D01*
X016903Y013242D02*
X016239Y013242D01*
X016318Y013163D02*
X016903Y013163D01*
X016903Y013085D02*
X016353Y013085D01*
X016383Y013006D02*
X016903Y013006D01*
X016903Y012928D02*
X016383Y012928D01*
X016383Y012849D02*
X016903Y012849D01*
X016903Y012771D02*
X016383Y012771D01*
X016383Y012692D02*
X016903Y012692D01*
X016903Y012614D02*
X016383Y012614D01*
X016383Y012535D02*
X016903Y012535D01*
X016903Y012456D02*
X016383Y012456D01*
X016383Y012378D02*
X016903Y012378D01*
X016903Y012299D02*
X016369Y012299D01*
X016337Y012221D02*
X016903Y012221D01*
X016903Y012142D02*
X016279Y012142D01*
X016187Y012064D02*
X016903Y012064D01*
X015779Y012064D02*
X015187Y012064D01*
X015279Y012142D02*
X015688Y012142D01*
X015630Y012221D02*
X015337Y012221D01*
X015369Y012299D02*
X015597Y012299D01*
X015583Y012378D02*
X015383Y012378D01*
X015383Y012456D02*
X015583Y012456D01*
X015583Y012535D02*
X015383Y012535D01*
X015383Y012614D02*
X015583Y012614D01*
X015583Y012692D02*
X015383Y012692D01*
X015383Y012771D02*
X015583Y012771D01*
X015583Y012849D02*
X015383Y012849D01*
X015383Y012928D02*
X015583Y012928D01*
X015583Y013006D02*
X015383Y013006D01*
X015353Y013085D02*
X015614Y013085D01*
X015649Y013163D02*
X015318Y013163D01*
X015239Y013242D02*
X015727Y013242D01*
X016903Y013399D02*
X009771Y013399D01*
X009733Y013320D02*
X009875Y013320D01*
X009850Y013477D02*
X016903Y013477D01*
X016903Y013556D02*
X009928Y013556D01*
X010007Y013635D02*
X010205Y013635D01*
X010127Y013713D02*
X010085Y013713D01*
X010641Y013635D02*
X011705Y013635D01*
X011627Y013713D02*
X010720Y013713D01*
X010798Y013792D02*
X011548Y013792D01*
X011523Y013870D02*
X010823Y013870D01*
X010823Y013949D02*
X011523Y013949D01*
X011523Y014027D02*
X010823Y014027D01*
X010823Y014106D02*
X011489Y014106D01*
X011410Y014184D02*
X010787Y014184D01*
X010708Y014263D02*
X011331Y014263D01*
X011639Y014577D02*
X016903Y014577D01*
X016903Y014499D02*
X011718Y014499D01*
X011797Y014420D02*
X016903Y014420D01*
X016903Y014341D02*
X012130Y014341D01*
X012208Y014263D02*
X016903Y014263D01*
X016903Y014184D02*
X012287Y014184D01*
X012323Y014106D02*
X016903Y014106D01*
X016903Y014027D02*
X012323Y014027D01*
X012323Y013949D02*
X016903Y013949D01*
X016903Y013870D02*
X012323Y013870D01*
X012298Y013792D02*
X016903Y013792D01*
X016903Y013713D02*
X012220Y013713D01*
X012141Y013635D02*
X016903Y013635D01*
X016903Y014656D02*
X011561Y014656D01*
X011727Y013242D02*
X011239Y013242D01*
X011318Y013163D02*
X011649Y013163D01*
X011614Y013085D02*
X011353Y013085D01*
X011383Y013006D02*
X011583Y013006D01*
X011583Y012928D02*
X011383Y012928D01*
X011383Y012849D02*
X011583Y012849D01*
X011583Y012771D02*
X011383Y012771D01*
X011383Y012692D02*
X011583Y012692D01*
X011583Y012614D02*
X011383Y012614D01*
X011383Y012535D02*
X011583Y012535D01*
X011583Y012456D02*
X011383Y012456D01*
X011383Y012378D02*
X011583Y012378D01*
X011597Y012299D02*
X011369Y012299D01*
X011337Y012221D02*
X011630Y012221D01*
X011688Y012142D02*
X011279Y012142D01*
X011187Y012064D02*
X011779Y012064D01*
X012187Y012064D02*
X012779Y012064D01*
X012688Y012142D02*
X012279Y012142D01*
X012337Y012221D02*
X012630Y012221D01*
X012597Y012299D02*
X012369Y012299D01*
X012383Y012378D02*
X012583Y012378D01*
X012583Y012456D02*
X012383Y012456D01*
X012383Y012535D02*
X012583Y012535D01*
X012583Y012614D02*
X012383Y012614D01*
X012383Y012692D02*
X012583Y012692D01*
X012583Y012771D02*
X012383Y012771D01*
X012383Y012849D02*
X012583Y012849D01*
X012583Y012928D02*
X012383Y012928D01*
X012383Y013006D02*
X012583Y013006D01*
X012614Y013085D02*
X012353Y013085D01*
X012318Y013163D02*
X012649Y013163D01*
X012727Y013242D02*
X012239Y013242D01*
X010221Y011278D02*
X009733Y011278D01*
X009733Y011200D02*
X010151Y011200D01*
X010118Y011121D02*
X009733Y011121D01*
X009733Y011043D02*
X010105Y011043D01*
X010105Y010964D02*
X009733Y010964D01*
X009733Y010886D02*
X010134Y010886D01*
X010180Y010807D02*
X009733Y010807D01*
X009733Y010728D02*
X010223Y010728D01*
X010223Y010650D02*
X009733Y010650D01*
X009733Y010571D02*
X010223Y010571D01*
X010223Y010493D02*
X009733Y010493D01*
X009733Y010414D02*
X010223Y010414D01*
X010223Y010336D02*
X009733Y010336D01*
X009733Y010257D02*
X010223Y010257D01*
X010223Y010179D02*
X009733Y010179D01*
X009733Y010100D02*
X010223Y010100D01*
X010223Y010022D02*
X009733Y010022D01*
X009733Y009943D02*
X010223Y009943D01*
X010223Y009864D02*
X009733Y009864D01*
X009733Y009786D02*
X010223Y009786D01*
X010223Y009707D02*
X009733Y009707D01*
X009733Y009629D02*
X010223Y009629D01*
X010223Y009550D02*
X009733Y009550D01*
X009733Y009472D02*
X010223Y009472D01*
X010223Y009393D02*
X009733Y009393D01*
X009733Y009315D02*
X010223Y009315D01*
X010223Y009236D02*
X009733Y009236D01*
X009733Y009158D02*
X010188Y009158D01*
X009959Y009079D02*
X009733Y009079D01*
X009733Y009001D02*
X009881Y009001D01*
X009802Y008922D02*
X009733Y008922D01*
X010003Y007744D02*
X010032Y007744D01*
X008305Y006487D02*
X000943Y006487D01*
X000943Y006409D02*
X007026Y006409D01*
X007036Y006418D02*
X006923Y006306D01*
X006862Y006159D01*
X006862Y006000D01*
X006923Y005853D01*
X007036Y005740D01*
X007183Y005679D01*
X007862Y005679D01*
X008009Y005740D01*
X008121Y005853D01*
X008182Y006000D01*
X008182Y006159D01*
X008121Y006306D01*
X008009Y006418D01*
X007862Y006479D01*
X007183Y006479D01*
X007036Y006418D01*
X006947Y006330D02*
X000943Y006330D01*
X000943Y006251D02*
X006901Y006251D01*
X006868Y006173D02*
X000943Y006173D01*
X000943Y006094D02*
X006862Y006094D01*
X006862Y006016D02*
X000943Y006016D01*
X000943Y005937D02*
X006888Y005937D01*
X006921Y005859D02*
X000943Y005859D01*
X000943Y005780D02*
X006996Y005780D01*
X007129Y005702D02*
X000943Y005702D01*
X000943Y005623D02*
X008963Y005623D01*
X008903Y005545D02*
X000943Y005545D01*
X000943Y005466D02*
X008903Y005466D01*
X008834Y005388D02*
X000943Y005388D01*
X000943Y005309D02*
X008802Y005309D01*
X008785Y005230D02*
X000943Y005230D01*
X000943Y005152D02*
X008785Y005152D01*
X008811Y005073D02*
X000943Y005073D01*
X000943Y004995D02*
X008853Y004995D01*
X008931Y004916D02*
X000943Y004916D01*
X000943Y004838D02*
X009325Y004838D01*
X009315Y004916D02*
X009328Y004916D01*
X009332Y004759D02*
X000943Y004759D01*
X000943Y004681D02*
X009364Y004681D01*
X009425Y004602D02*
X000943Y004602D01*
X000943Y004524D02*
X009549Y004524D01*
X008806Y005702D02*
X007916Y005702D01*
X008049Y005780D02*
X008727Y005780D01*
X008688Y005859D02*
X008124Y005859D01*
X008156Y005937D02*
X008665Y005937D01*
X008665Y006016D02*
X008182Y006016D01*
X008182Y006094D02*
X008684Y006094D01*
X008530Y006173D02*
X008177Y006173D01*
X008144Y006251D02*
X008406Y006251D01*
X008344Y006330D02*
X008097Y006330D01*
X008019Y006409D02*
X008312Y006409D01*
X008259Y006566D02*
X000943Y006566D01*
X000943Y006644D02*
X008180Y006644D01*
X008102Y006723D02*
X007967Y006723D01*
X007078Y006723D02*
X000943Y006723D01*
X000943Y006801D02*
X006975Y006801D01*
X006912Y006880D02*
X000943Y006880D01*
X000943Y006958D02*
X006879Y006958D01*
X006862Y007037D02*
X000943Y007037D01*
X000943Y007115D02*
X006862Y007115D01*
X006877Y007194D02*
X000943Y007194D01*
X000943Y007273D02*
X006910Y007273D01*
X006939Y007351D02*
X000943Y007351D01*
X000943Y007430D02*
X006861Y007430D01*
X006782Y007508D02*
X000943Y007508D01*
X000943Y007587D02*
X006704Y007587D01*
X006625Y007665D02*
X000943Y007665D01*
X000943Y007744D02*
X006547Y007744D01*
X006468Y007822D02*
X000943Y007822D01*
X000943Y007901D02*
X006390Y007901D01*
X006311Y007979D02*
X000943Y007979D01*
X000943Y008058D02*
X006263Y008058D01*
X006263Y008137D02*
X000943Y008137D01*
X000943Y008215D02*
X006263Y008215D01*
X006263Y008294D02*
X002895Y008294D01*
X002849Y008274D02*
X003074Y008368D01*
X003246Y008540D01*
X003340Y008765D01*
X003340Y009009D01*
X003246Y009234D01*
X003074Y009406D01*
X002849Y009499D01*
X002605Y009499D01*
X002380Y009406D01*
X002208Y009234D01*
X002115Y009009D01*
X002115Y008765D01*
X000943Y008765D01*
X000943Y008843D02*
X002115Y008843D01*
X002115Y008765D02*
X002208Y008540D01*
X002380Y008368D01*
X002605Y008274D01*
X002849Y008274D01*
X003079Y008372D02*
X006263Y008372D01*
X006263Y008451D02*
X003157Y008451D01*
X003236Y008529D02*
X006263Y008529D01*
X006263Y008608D02*
X003275Y008608D01*
X003307Y008686D02*
X006263Y008686D01*
X006263Y008765D02*
X003340Y008765D01*
X003340Y008843D02*
X006263Y008843D01*
X006263Y008922D02*
X003340Y008922D01*
X003340Y009001D02*
X006263Y009001D01*
X006263Y009079D02*
X003311Y009079D01*
X003278Y009158D02*
X006263Y009158D01*
X006263Y009236D02*
X003244Y009236D01*
X003166Y009315D02*
X006263Y009315D01*
X006263Y009393D02*
X003087Y009393D01*
X002916Y009472D02*
X006263Y009472D01*
X006263Y009550D02*
X000943Y009550D01*
X000943Y009472D02*
X002539Y009472D01*
X002367Y009393D02*
X000943Y009393D01*
X000943Y009315D02*
X002289Y009315D01*
X002210Y009236D02*
X000943Y009236D01*
X000943Y009158D02*
X002177Y009158D01*
X002144Y009079D02*
X000943Y009079D01*
X000943Y009001D02*
X002115Y009001D01*
X002115Y008922D02*
X000943Y008922D01*
X000943Y008686D02*
X002147Y008686D01*
X002180Y008608D02*
X000943Y008608D01*
X000943Y008529D02*
X002219Y008529D01*
X002297Y008451D02*
X000943Y008451D01*
X000943Y008372D02*
X002376Y008372D01*
X002559Y008294D02*
X000943Y008294D01*
X000943Y009629D02*
X006263Y009629D01*
X006263Y009707D02*
X000943Y009707D01*
X000943Y009786D02*
X006263Y009786D01*
X006263Y009864D02*
X000943Y009864D01*
X000943Y009943D02*
X006263Y009943D01*
X006263Y010022D02*
X000943Y010022D01*
X000943Y010100D02*
X006263Y010100D01*
X006263Y010179D02*
X000943Y010179D01*
X000943Y010257D02*
X006263Y010257D01*
X006263Y010336D02*
X000943Y010336D01*
X000943Y010414D02*
X006263Y010414D01*
X006263Y010493D02*
X000943Y010493D01*
X000943Y010571D02*
X006321Y010571D01*
X006400Y010650D02*
X000943Y010650D01*
X000943Y010728D02*
X006478Y010728D01*
X006557Y010807D02*
X000943Y010807D01*
X000943Y010886D02*
X006636Y010886D01*
X006714Y010964D02*
X000943Y010964D01*
X000943Y011043D02*
X006793Y011043D01*
X006871Y011121D02*
X000943Y011121D01*
X000943Y011200D02*
X006950Y011200D01*
X007028Y011278D02*
X000943Y011278D01*
X000943Y011357D02*
X007107Y011357D01*
X007185Y011435D02*
X000943Y011435D01*
X000943Y011514D02*
X001639Y011514D01*
X001641Y011512D02*
X002006Y011512D01*
X002263Y011770D01*
X002263Y012134D01*
X002006Y012392D01*
X001641Y012392D01*
X001383Y012134D01*
X001383Y011770D01*
X001641Y011512D01*
X001561Y011592D02*
X000943Y011592D01*
X000943Y011671D02*
X001482Y011671D01*
X001404Y011750D02*
X000943Y011750D01*
X000943Y011828D02*
X001383Y011828D01*
X001383Y011907D02*
X000943Y011907D01*
X000943Y011985D02*
X001383Y011985D01*
X001383Y012064D02*
X000943Y012064D01*
X000943Y012142D02*
X001391Y012142D01*
X001470Y012221D02*
X000943Y012221D01*
X000943Y012299D02*
X001548Y012299D01*
X001627Y012378D02*
X000943Y012378D01*
X000943Y012456D02*
X002603Y012456D01*
X002603Y012378D02*
X002020Y012378D01*
X002098Y012299D02*
X002548Y012299D01*
X002603Y012354D02*
X002383Y012134D01*
X002383Y011770D01*
X002641Y011512D01*
X003006Y011512D01*
X003263Y011770D01*
X003263Y012134D01*
X003043Y012354D01*
X003043Y012550D01*
X003263Y012770D01*
X003263Y013134D01*
X003043Y013354D01*
X003043Y014550D01*
X003263Y014770D01*
X003263Y015134D01*
X003043Y015354D01*
X003043Y015550D01*
X003263Y015770D01*
X003263Y016134D01*
X003006Y016392D01*
X002641Y016392D01*
X002383Y016134D01*
X002383Y015770D01*
X002603Y015550D01*
X002603Y015354D01*
X002383Y015134D01*
X002383Y014770D01*
X002603Y014550D01*
X002603Y013354D01*
X002383Y013134D01*
X002383Y012770D01*
X002603Y012550D01*
X002603Y012354D01*
X002603Y012535D02*
X001966Y012535D01*
X001911Y012512D02*
X002073Y012579D01*
X002196Y012703D01*
X002263Y012865D01*
X002263Y013040D01*
X002196Y013201D01*
X002073Y013325D01*
X001911Y013392D01*
X001736Y013392D01*
X001574Y013325D01*
X001450Y013201D01*
X001383Y013040D01*
X001383Y012865D01*
X001450Y012703D01*
X001574Y012579D01*
X001736Y012512D01*
X001911Y012512D01*
X002107Y012614D02*
X002540Y012614D01*
X002461Y012692D02*
X002185Y012692D01*
X002224Y012771D02*
X002383Y012771D01*
X002383Y012849D02*
X002257Y012849D01*
X002263Y012928D02*
X002383Y012928D01*
X002383Y013006D02*
X002263Y013006D01*
X002245Y013085D02*
X002383Y013085D01*
X002412Y013163D02*
X002212Y013163D01*
X002156Y013242D02*
X002491Y013242D01*
X002569Y013320D02*
X002077Y013320D01*
X001569Y013320D02*
X000943Y013320D01*
X000943Y013242D02*
X001491Y013242D01*
X001435Y013163D02*
X000943Y013163D01*
X000943Y013085D02*
X001402Y013085D01*
X001383Y013006D02*
X000943Y013006D01*
X000943Y012928D02*
X001383Y012928D01*
X001390Y012849D02*
X000943Y012849D01*
X000943Y012771D02*
X001422Y012771D01*
X001461Y012692D02*
X000943Y012692D01*
X000943Y012614D02*
X001540Y012614D01*
X001681Y012535D02*
X000943Y012535D01*
X000943Y013399D02*
X002603Y013399D01*
X002603Y013477D02*
X000943Y013477D01*
X000943Y013556D02*
X002603Y013556D01*
X002603Y013635D02*
X000943Y013635D01*
X000943Y013713D02*
X002603Y013713D01*
X002603Y013792D02*
X000943Y013792D01*
X000943Y013870D02*
X002603Y013870D01*
X002603Y013949D02*
X000943Y013949D01*
X000943Y014027D02*
X002603Y014027D01*
X002603Y014106D02*
X000943Y014106D01*
X000943Y014184D02*
X002603Y014184D01*
X002603Y014263D02*
X000943Y014263D01*
X000943Y014341D02*
X002603Y014341D01*
X002603Y014420D02*
X000943Y014420D01*
X000943Y014499D02*
X002603Y014499D01*
X002576Y014577D02*
X002070Y014577D01*
X002006Y014512D02*
X002263Y014770D01*
X002263Y015134D01*
X002006Y015392D01*
X001641Y015392D01*
X001383Y015134D01*
X001383Y014770D01*
X001641Y014512D01*
X002006Y014512D01*
X002149Y014656D02*
X002498Y014656D01*
X002419Y014734D02*
X002227Y014734D01*
X002263Y014813D02*
X002383Y014813D01*
X002383Y014891D02*
X002263Y014891D01*
X002263Y014970D02*
X002383Y014970D01*
X002383Y015048D02*
X002263Y015048D01*
X002263Y015127D02*
X002383Y015127D01*
X002454Y015205D02*
X002192Y015205D01*
X002114Y015284D02*
X002533Y015284D01*
X002603Y015363D02*
X002035Y015363D01*
X001929Y015520D02*
X002603Y015520D01*
X002603Y015441D02*
X000943Y015441D01*
X000943Y015363D02*
X001611Y015363D01*
X001533Y015284D02*
X000943Y015284D01*
X000943Y015205D02*
X001454Y015205D01*
X001383Y015127D02*
X000943Y015127D01*
X000943Y015048D02*
X001383Y015048D01*
X001383Y014970D02*
X000943Y014970D01*
X000943Y014891D02*
X001383Y014891D01*
X001383Y014813D02*
X000943Y014813D01*
X000943Y014734D02*
X001419Y014734D01*
X001498Y014656D02*
X000943Y014656D01*
X000943Y014577D02*
X001576Y014577D01*
X001736Y015512D02*
X001574Y015579D01*
X001450Y015703D01*
X001383Y015865D01*
X001383Y016040D01*
X001450Y016201D01*
X001574Y016325D01*
X001736Y016392D01*
X001911Y016392D01*
X002073Y016325D01*
X002196Y016201D01*
X002263Y016040D01*
X002263Y015865D01*
X002196Y015703D01*
X002073Y015579D01*
X001911Y015512D01*
X001736Y015512D01*
X001718Y015520D02*
X000943Y015520D01*
X000943Y015598D02*
X001555Y015598D01*
X001477Y015677D02*
X000943Y015677D01*
X000943Y015755D02*
X001429Y015755D01*
X001396Y015834D02*
X000943Y015834D01*
X000943Y015912D02*
X001383Y015912D01*
X001383Y015991D02*
X000943Y015991D01*
X000943Y016069D02*
X001396Y016069D01*
X001428Y016148D02*
X000943Y016148D01*
X000943Y016226D02*
X001475Y016226D01*
X001554Y016305D02*
X000943Y016305D01*
X000943Y016384D02*
X001715Y016384D01*
X001932Y016384D02*
X002632Y016384D01*
X002554Y016305D02*
X002093Y016305D01*
X002171Y016226D02*
X002475Y016226D01*
X002397Y016148D02*
X002218Y016148D01*
X002251Y016069D02*
X002383Y016069D01*
X002383Y015991D02*
X002263Y015991D01*
X002263Y015912D02*
X002383Y015912D01*
X002383Y015834D02*
X002250Y015834D01*
X002218Y015755D02*
X002398Y015755D01*
X002477Y015677D02*
X002170Y015677D01*
X002091Y015598D02*
X002555Y015598D01*
X003043Y015520D02*
X016903Y015520D01*
X016903Y015598D02*
X003091Y015598D01*
X003170Y015677D02*
X016903Y015677D01*
X016903Y015755D02*
X003249Y015755D01*
X003263Y015834D02*
X016903Y015834D01*
X016903Y015912D02*
X003263Y015912D01*
X003263Y015991D02*
X016903Y015991D01*
X016903Y016069D02*
X003263Y016069D01*
X003250Y016148D02*
X016903Y016148D01*
X016903Y016226D02*
X003171Y016226D01*
X003093Y016305D02*
X016903Y016305D01*
X016903Y016384D02*
X003014Y016384D01*
X003043Y015441D02*
X016903Y015441D01*
X016903Y015363D02*
X009109Y015363D01*
X009187Y015284D02*
X016903Y015284D01*
X016903Y015205D02*
X009266Y015205D01*
X009323Y015127D02*
X016903Y015127D01*
X016903Y015048D02*
X009323Y015048D01*
X009323Y014970D02*
X016903Y014970D01*
X016903Y014891D02*
X009323Y014891D01*
X009319Y014813D02*
X016903Y014813D01*
X016903Y014734D02*
X009241Y014734D01*
X009162Y014656D02*
X010016Y014656D01*
X009937Y014577D02*
X008233Y014577D01*
X008233Y014499D02*
X009859Y014499D01*
X009780Y014420D02*
X008233Y014420D01*
X008233Y014341D02*
X009701Y014341D01*
X009623Y014263D02*
X008233Y014263D01*
X008233Y014184D02*
X009544Y014184D01*
X009466Y014106D02*
X008233Y014106D01*
X008233Y014027D02*
X009387Y014027D01*
X009309Y013949D02*
X008233Y013949D01*
X008233Y013870D02*
X009230Y013870D01*
X009152Y013792D02*
X008233Y013792D01*
X008233Y013713D02*
X009073Y013713D01*
X008635Y013635D02*
X008207Y013635D01*
X008128Y013556D02*
X008556Y013556D01*
X008477Y013477D02*
X008050Y013477D01*
X007971Y013399D02*
X008399Y013399D01*
X008320Y013320D02*
X008091Y013320D01*
X008239Y013242D02*
X008243Y013242D01*
X007583Y013006D02*
X007578Y013006D01*
X007583Y012928D02*
X007500Y012928D01*
X007421Y012849D02*
X007583Y012849D01*
X007583Y012771D02*
X007383Y012771D01*
X007383Y012692D02*
X007583Y012692D01*
X007583Y012614D02*
X007383Y012614D01*
X007383Y012535D02*
X007583Y012535D01*
X007583Y012456D02*
X007383Y012456D01*
X007383Y012378D02*
X007583Y012378D01*
X007597Y012299D02*
X007369Y012299D01*
X007337Y012221D02*
X007630Y012221D01*
X007688Y012142D02*
X007279Y012142D01*
X007187Y012064D02*
X007763Y012064D01*
X007735Y011985D02*
X003263Y011985D01*
X003263Y011907D02*
X007657Y011907D01*
X007578Y011828D02*
X003263Y011828D01*
X003243Y011750D02*
X007500Y011750D01*
X007421Y011671D02*
X003164Y011671D01*
X003086Y011592D02*
X007342Y011592D01*
X007264Y011514D02*
X003007Y011514D01*
X002639Y011514D02*
X002007Y011514D01*
X002086Y011592D02*
X002561Y011592D01*
X002482Y011671D02*
X002164Y011671D01*
X002243Y011750D02*
X002404Y011750D01*
X002383Y011828D02*
X002263Y011828D01*
X002263Y011907D02*
X002383Y011907D01*
X002383Y011985D02*
X002263Y011985D01*
X002263Y012064D02*
X002383Y012064D01*
X002391Y012142D02*
X002255Y012142D01*
X002177Y012221D02*
X002470Y012221D01*
X003043Y012378D02*
X006583Y012378D01*
X006583Y012456D02*
X003043Y012456D01*
X003043Y012535D02*
X006583Y012535D01*
X006583Y012614D02*
X003107Y012614D01*
X003185Y012692D02*
X006583Y012692D01*
X006583Y012771D02*
X003263Y012771D01*
X003263Y012849D02*
X006583Y012849D01*
X006583Y012928D02*
X003263Y012928D01*
X003263Y013006D02*
X006583Y013006D01*
X006614Y013085D02*
X003263Y013085D01*
X003234Y013163D02*
X006649Y013163D01*
X006727Y013242D02*
X003156Y013242D01*
X003077Y013320D02*
X006875Y013320D01*
X007091Y013320D02*
X007270Y013320D01*
X007349Y013399D02*
X003043Y013399D01*
X003043Y013477D02*
X007428Y013477D01*
X007506Y013556D02*
X003043Y013556D01*
X003043Y013635D02*
X007205Y013635D01*
X007127Y013713D02*
X003043Y013713D01*
X003043Y013792D02*
X007048Y013792D01*
X007023Y013870D02*
X003043Y013870D01*
X003043Y013949D02*
X007023Y013949D01*
X007023Y014027D02*
X003043Y014027D01*
X003043Y014106D02*
X007023Y014106D01*
X007060Y014184D02*
X003043Y014184D01*
X003043Y014263D02*
X007138Y014263D01*
X007217Y014341D02*
X003043Y014341D01*
X003043Y014420D02*
X007793Y014420D01*
X007793Y014499D02*
X003043Y014499D01*
X003070Y014577D02*
X007793Y014577D01*
X007793Y014656D02*
X003149Y014656D01*
X003227Y014734D02*
X007793Y014734D01*
X007803Y014813D02*
X003263Y014813D01*
X003263Y014891D02*
X007881Y014891D01*
X007960Y014970D02*
X003263Y014970D01*
X003263Y015048D02*
X008038Y015048D01*
X008117Y015127D02*
X003263Y015127D01*
X003192Y015205D02*
X008581Y015205D01*
X008659Y015284D02*
X003114Y015284D01*
X003043Y015363D02*
X008738Y015363D01*
X008606Y014734D02*
X008346Y014734D01*
X008268Y014656D02*
X008684Y014656D01*
X007793Y014341D02*
X007630Y014341D01*
X007708Y014263D02*
X007793Y014263D01*
X007787Y014184D02*
X007793Y014184D01*
X006597Y012299D02*
X003098Y012299D01*
X003177Y012221D02*
X006630Y012221D01*
X006688Y012142D02*
X003255Y012142D01*
X003263Y012064D02*
X006779Y012064D01*
X000943Y016462D02*
X016903Y016462D01*
X016903Y016541D02*
X000943Y016541D01*
X000943Y016619D02*
X016903Y016619D01*
X016903Y016698D02*
X000943Y016698D01*
X000943Y016776D02*
X016903Y016776D01*
X016903Y016855D02*
X000943Y016855D01*
X000943Y016933D02*
X016903Y016933D01*
X016903Y017012D02*
X000943Y017012D01*
X000943Y017090D02*
X016903Y017090D01*
X016903Y017169D02*
X000943Y017169D01*
X000943Y017248D02*
X016903Y017248D01*
X016063Y010332D02*
X015904Y010332D01*
X015757Y010271D01*
X015644Y010159D01*
X015583Y010012D01*
X015583Y009333D01*
X015644Y009186D01*
X015757Y009073D01*
X015904Y009012D01*
X016063Y009012D01*
X016210Y009073D01*
X016322Y009186D01*
X016383Y009333D01*
X016383Y010012D01*
X016322Y010159D01*
X016210Y010271D01*
X016063Y010332D01*
X016224Y010257D02*
X016903Y010257D01*
X016903Y010179D02*
X016302Y010179D01*
X016347Y010100D02*
X016903Y010100D01*
X016903Y010022D02*
X016379Y010022D01*
X016383Y009943D02*
X016903Y009943D01*
X016903Y009864D02*
X016383Y009864D01*
X016383Y009786D02*
X016903Y009786D01*
X016903Y009707D02*
X016383Y009707D01*
X016383Y009629D02*
X016903Y009629D01*
X016903Y009550D02*
X016383Y009550D01*
X016383Y009472D02*
X016903Y009472D01*
X016903Y009393D02*
X016383Y009393D01*
X016376Y009315D02*
X016903Y009315D01*
X016903Y009236D02*
X016343Y009236D01*
X016294Y009158D02*
X016903Y009158D01*
X016903Y009079D02*
X016216Y009079D01*
X015751Y009079D02*
X015216Y009079D01*
X015210Y009073D02*
X015322Y009186D01*
X015383Y009333D01*
X015383Y010012D01*
X015322Y010159D01*
X015210Y010271D01*
X015063Y010332D01*
X014904Y010332D01*
X014757Y010271D01*
X014644Y010159D01*
X014583Y010012D01*
X014583Y009333D01*
X014644Y009186D01*
X014757Y009073D01*
X014904Y009012D01*
X015063Y009012D01*
X015210Y009073D01*
X015294Y009158D02*
X015672Y009158D01*
X015623Y009236D02*
X015343Y009236D01*
X015376Y009315D02*
X015591Y009315D01*
X015583Y009393D02*
X015383Y009393D01*
X015383Y009472D02*
X015583Y009472D01*
X015583Y009550D02*
X015383Y009550D01*
X015383Y009629D02*
X015583Y009629D01*
X015583Y009707D02*
X015383Y009707D01*
X015383Y009786D02*
X015583Y009786D01*
X015583Y009864D02*
X015383Y009864D01*
X015383Y009943D02*
X015583Y009943D01*
X015587Y010022D02*
X015379Y010022D01*
X015347Y010100D02*
X015620Y010100D01*
X015664Y010179D02*
X015302Y010179D01*
X015224Y010257D02*
X015743Y010257D01*
X014743Y010257D02*
X014224Y010257D01*
X014302Y010179D02*
X014664Y010179D01*
X014620Y010100D02*
X014347Y010100D01*
X014379Y010022D02*
X014587Y010022D01*
X014583Y009943D02*
X014383Y009943D01*
X014383Y009864D02*
X014583Y009864D01*
X014583Y009786D02*
X014383Y009786D01*
X014383Y009707D02*
X014583Y009707D01*
X014583Y009629D02*
X014383Y009629D01*
X014383Y009550D02*
X014583Y009550D01*
X014583Y009472D02*
X014383Y009472D01*
X014383Y009393D02*
X014583Y009393D01*
X014591Y009315D02*
X014376Y009315D01*
X014343Y009236D02*
X014623Y009236D01*
X014672Y009158D02*
X014294Y009158D01*
X014216Y009079D02*
X014751Y009079D01*
X016903Y004445D02*
X000943Y004445D01*
X000943Y004366D02*
X016903Y004366D01*
X016903Y004288D02*
X000943Y004288D01*
X000943Y004209D02*
X016903Y004209D01*
X016903Y004131D02*
X000943Y004131D01*
X000943Y004052D02*
X016903Y004052D01*
X016903Y003974D02*
X000943Y003974D01*
X000943Y003895D02*
X016903Y003895D01*
X016903Y003817D02*
X000943Y003817D01*
X000943Y003738D02*
X016903Y003738D01*
X016903Y003660D02*
X000943Y003660D01*
X000943Y003581D02*
X016903Y003581D01*
X016903Y002560D02*
X014309Y002560D01*
X014285Y002570D02*
X014041Y002570D01*
X013816Y002477D01*
X013644Y002305D01*
X013551Y002079D01*
X013551Y001836D01*
X013644Y001611D01*
X013816Y001438D01*
X014041Y001345D01*
X014285Y001345D01*
X014510Y001438D01*
X014682Y001611D01*
X014776Y001836D01*
X014776Y002079D01*
X014682Y002305D01*
X014510Y002477D01*
X014285Y002570D01*
X014499Y002481D02*
X016903Y002481D01*
X016903Y002403D02*
X014584Y002403D01*
X014663Y002324D02*
X016903Y002324D01*
X016903Y002246D02*
X014707Y002246D01*
X014739Y002167D02*
X016903Y002167D01*
X016903Y002089D02*
X014772Y002089D01*
X014776Y002010D02*
X016903Y002010D01*
X016903Y001932D02*
X014776Y001932D01*
X014776Y001853D02*
X016903Y001853D01*
X016903Y001775D02*
X014750Y001775D01*
X014718Y001696D02*
X016903Y001696D01*
X016903Y001617D02*
X014685Y001617D01*
X014611Y001539D02*
X016903Y001539D01*
X016903Y001460D02*
X014532Y001460D01*
X014373Y001382D02*
X016903Y001382D01*
X016903Y001303D02*
X011123Y001303D01*
X011155Y001225D02*
X016903Y001225D01*
X016903Y001146D02*
X011182Y001146D01*
X011182Y001068D02*
X016903Y001068D01*
X016903Y000989D02*
X011178Y000989D01*
X011145Y000911D02*
X016903Y000911D01*
X016903Y000832D02*
X011101Y000832D01*
X011046Y001382D02*
X011984Y001382D01*
X011826Y001460D02*
X010908Y001460D01*
X010862Y001679D02*
X011009Y001740D01*
X011121Y001853D01*
X011182Y002000D01*
X011182Y002159D01*
X011121Y002306D01*
X011009Y002418D01*
X011103Y002324D02*
X011695Y002324D01*
X011651Y002246D02*
X011146Y002246D01*
X011179Y002167D02*
X011619Y002167D01*
X011586Y002089D02*
X011182Y002089D01*
X011182Y002010D02*
X011582Y002010D01*
X011582Y001932D02*
X011154Y001932D01*
X011122Y001853D02*
X011582Y001853D01*
X011608Y001775D02*
X011043Y001775D01*
X010902Y001696D02*
X011640Y001696D01*
X011673Y001617D02*
X006403Y001617D01*
X006329Y001539D02*
X011747Y001539D01*
X012405Y001382D02*
X013953Y001382D01*
X013794Y001460D02*
X012564Y001460D01*
X012642Y001539D02*
X013716Y001539D01*
X013641Y001617D02*
X012717Y001617D01*
X012749Y001696D02*
X013609Y001696D01*
X013576Y001775D02*
X012782Y001775D01*
X012807Y001853D02*
X013551Y001853D01*
X013551Y001932D02*
X012807Y001932D01*
X012807Y002010D02*
X013551Y002010D01*
X013555Y002089D02*
X012803Y002089D01*
X012771Y002167D02*
X013587Y002167D01*
X013620Y002246D02*
X012738Y002246D01*
X012694Y002324D02*
X013664Y002324D01*
X013742Y002403D02*
X012616Y002403D01*
X012530Y002481D02*
X013827Y002481D01*
X014017Y002560D02*
X012341Y002560D01*
X012049Y002560D02*
X006025Y002560D01*
X005737Y002560D02*
X004056Y002560D01*
X004034Y002569D02*
X004259Y002476D01*
X004432Y002304D01*
X004525Y002078D01*
X004525Y001835D01*
X004432Y001610D01*
X004259Y001437D01*
X004034Y001344D01*
X003791Y001344D01*
X003566Y001437D01*
X003393Y001610D01*
X003300Y001835D01*
X003300Y002078D01*
X003393Y002304D01*
X003566Y002476D01*
X003791Y002569D01*
X004034Y002569D01*
X003769Y002560D02*
X000943Y002560D01*
X000943Y002481D02*
X003579Y002481D01*
X003493Y002403D02*
X000943Y002403D01*
X000943Y002324D02*
X003414Y002324D01*
X003369Y002246D02*
X000943Y002246D01*
X000943Y002167D02*
X003337Y002167D01*
X003304Y002089D02*
X000943Y002089D01*
X000943Y002010D02*
X003300Y002010D01*
X003300Y001932D02*
X000943Y001932D01*
X000943Y001853D02*
X003300Y001853D01*
X003325Y001775D02*
X000943Y001775D01*
X000943Y001696D02*
X003358Y001696D01*
X003390Y001617D02*
X000943Y001617D01*
X000943Y001539D02*
X003464Y001539D01*
X003543Y001460D02*
X000943Y001460D01*
X000943Y001382D02*
X003700Y001382D01*
X004125Y001382D02*
X005668Y001382D01*
X005511Y001460D02*
X004282Y001460D01*
X004361Y001539D02*
X005433Y001539D01*
X005359Y001617D02*
X004435Y001617D01*
X004467Y001696D02*
X005326Y001696D01*
X005294Y001775D02*
X004500Y001775D01*
X004525Y001853D02*
X005269Y001853D01*
X005269Y001932D02*
X004525Y001932D01*
X004525Y002010D02*
X005269Y002010D01*
X005273Y002089D02*
X004521Y002089D01*
X004488Y002167D02*
X005305Y002167D01*
X005338Y002246D02*
X004456Y002246D01*
X004411Y002324D02*
X005383Y002324D01*
X005461Y002403D02*
X004332Y002403D01*
X004246Y002481D02*
X005548Y002481D01*
X007902Y001696D02*
X010142Y001696D01*
X010183Y001679D02*
X010036Y001740D01*
X009923Y001853D01*
X010001Y001775D02*
X008043Y001775D01*
X007908Y001460D02*
X010137Y001460D01*
X009999Y001382D02*
X008046Y001382D01*
X008123Y001303D02*
X009922Y001303D01*
X009890Y001225D02*
X008155Y001225D01*
X008182Y001146D02*
X009862Y001146D01*
X009862Y001068D02*
X008182Y001068D01*
X008178Y000989D02*
X009867Y000989D01*
X009899Y000911D02*
X008145Y000911D01*
X008101Y000832D02*
X009944Y000832D01*
X010183Y001679D02*
X010862Y001679D01*
M02*
