G75*
G70*
%OFA0B0*%
%FSLAX24Y24*%
%IPPOS*%
%LPD*%
%AMOC8*
5,1,8,0,0,1.08239X$1,22.5*
%
%ADD10R,0.0420X0.0030*%
%ADD11R,0.0600X0.0030*%
%ADD12R,0.0750X0.0030*%
%ADD13R,0.0270X0.0030*%
%ADD14R,0.0240X0.0030*%
%ADD15R,0.0210X0.0030*%
%ADD16R,0.0180X0.0030*%
%ADD17R,0.0150X0.0030*%
%ADD18R,0.0120X0.0030*%
%ADD19R,0.0090X0.0030*%
%ADD20R,0.1230X0.0030*%
%ADD21R,0.1740X0.0030*%
%ADD22R,0.0300X0.0030*%
%ADD23R,0.1050X0.0030*%
%ADD24R,0.1410X0.0030*%
%ADD25R,0.1650X0.0030*%
%ADD26R,0.0060X0.0030*%
%ADD27R,0.0360X0.0030*%
%ADD28R,0.0450X0.0030*%
%ADD29R,0.0540X0.0030*%
%ADD30R,0.0030X0.0030*%
%ADD31R,0.0570X0.0030*%
%ADD32R,0.0330X0.0030*%
%ADD33R,0.0480X0.0030*%
%ADD34R,0.0390X0.0030*%
%ADD35R,0.1080X0.0030*%
%ADD36R,0.0930X0.0030*%
%ADD37R,0.0660X0.0030*%
%ADD38C,0.0020*%
%ADD39C,0.0010*%
%ADD40C,0.0160*%
%ADD41C,0.0050*%
%ADD42C,0.0040*%
%ADD43C,0.0060*%
%ADD44R,0.0500X0.0350*%
%ADD45R,0.0079X0.0079*%
%ADD46C,0.0000*%
D10*
X013045Y012165D03*
X013735Y013155D03*
X012325Y013155D03*
D11*
X013045Y012195D03*
X013045Y014085D03*
D12*
X013030Y012225D03*
D13*
X012730Y012255D03*
X012310Y012945D03*
X012130Y013575D03*
X011890Y013665D03*
X013030Y014205D03*
D14*
X012835Y014055D03*
X012835Y013665D03*
X013045Y013515D03*
X013945Y013215D03*
X014185Y013665D03*
X013585Y014535D03*
X012145Y013545D03*
X012115Y013215D03*
X012655Y012285D03*
X013345Y012255D03*
D15*
X013420Y012285D03*
X013030Y013335D03*
X013030Y013365D03*
X012700Y013515D03*
X013240Y013665D03*
X013270Y013695D03*
X013390Y013515D03*
X013270Y014025D03*
X013240Y014055D03*
X013390Y014205D03*
X012700Y014205D03*
X012430Y014505D03*
X012490Y014535D03*
X013930Y013545D03*
X014050Y013605D03*
X014020Y013245D03*
D16*
X014065Y013275D03*
X014125Y013305D03*
X013405Y013545D03*
X013375Y013485D03*
X013285Y013725D03*
X013315Y013785D03*
X013315Y013965D03*
X013285Y013995D03*
X013405Y014175D03*
X013375Y014235D03*
X013045Y014295D03*
X013045Y014325D03*
X013045Y014355D03*
X013045Y014385D03*
X013045Y014415D03*
X012805Y014025D03*
X012775Y013995D03*
X012745Y013875D03*
X012745Y013845D03*
X012775Y013755D03*
X012775Y013725D03*
X012805Y013695D03*
X012685Y013545D03*
X013015Y013395D03*
X012175Y013515D03*
X012025Y013605D03*
X011995Y013275D03*
X012055Y013245D03*
X012595Y012315D03*
X013465Y012315D03*
X013525Y012345D03*
X013645Y014505D03*
X012385Y014475D03*
D17*
X012340Y014445D03*
X012670Y014175D03*
X012700Y014235D03*
X012760Y013965D03*
X012760Y013935D03*
X012760Y013905D03*
X012760Y013815D03*
X012760Y013785D03*
X012550Y013815D03*
X012550Y013845D03*
X012550Y013875D03*
X012550Y013905D03*
X012550Y013935D03*
X012700Y013485D03*
X013030Y013425D03*
X013030Y013305D03*
X013300Y013755D03*
X013330Y013815D03*
X013330Y013845D03*
X013330Y013875D03*
X013330Y013905D03*
X013330Y013935D03*
X013540Y013875D03*
X013900Y013515D03*
X014170Y013335D03*
X014200Y013365D03*
X014230Y013395D03*
X014200Y013695D03*
X013690Y014475D03*
X011950Y013305D03*
X011920Y013335D03*
X012520Y012375D03*
X012550Y012345D03*
X013570Y012375D03*
X013600Y012405D03*
X013630Y012435D03*
X013660Y012465D03*
D18*
X013675Y012495D03*
X013705Y012525D03*
X013735Y012555D03*
X013765Y012615D03*
X013795Y012675D03*
X013855Y012855D03*
X014245Y013425D03*
X014275Y013455D03*
X014305Y013515D03*
X014305Y013575D03*
X013525Y013785D03*
X013525Y013815D03*
X013525Y013845D03*
X013525Y013905D03*
X013525Y013935D03*
X013405Y014145D03*
X013375Y014265D03*
X013735Y014445D03*
X013765Y014415D03*
X013405Y013575D03*
X013375Y013455D03*
X012715Y013455D03*
X012685Y013575D03*
X012535Y013785D03*
X012235Y013665D03*
X012265Y013995D03*
X012265Y014025D03*
X012265Y014055D03*
X012265Y014085D03*
X012265Y014115D03*
X012295Y014385D03*
X012325Y014415D03*
X012715Y014265D03*
X011875Y013695D03*
X011785Y013605D03*
X011785Y013485D03*
X011815Y013425D03*
X011845Y013395D03*
X011875Y013365D03*
X012235Y012795D03*
X012265Y012705D03*
X012295Y012645D03*
X012325Y012585D03*
X012355Y012525D03*
X012385Y012495D03*
X012415Y012465D03*
X012445Y012435D03*
X012475Y012405D03*
D19*
X012340Y012555D03*
X012310Y012615D03*
X012280Y012675D03*
X012250Y012735D03*
X012250Y012765D03*
X012220Y012825D03*
X012220Y012855D03*
X012220Y012975D03*
X012220Y013605D03*
X012220Y013635D03*
X012250Y013695D03*
X012250Y013725D03*
X012250Y013755D03*
X012250Y013785D03*
X012250Y013815D03*
X012250Y013845D03*
X012250Y013875D03*
X012250Y013905D03*
X012250Y013935D03*
X012250Y013965D03*
X012280Y014145D03*
X012280Y014175D03*
X012280Y014205D03*
X012280Y014235D03*
X012280Y014265D03*
X012280Y014295D03*
X012280Y014325D03*
X012280Y014355D03*
X012670Y014145D03*
X011770Y013575D03*
X011770Y013545D03*
X011770Y013515D03*
X011800Y013455D03*
X013810Y013785D03*
X013810Y013815D03*
X013810Y013845D03*
X013810Y013875D03*
X013810Y013905D03*
X013810Y013935D03*
X013810Y013965D03*
X013810Y013995D03*
X013810Y014025D03*
X013810Y014055D03*
X013810Y014085D03*
X013810Y014115D03*
X013810Y014145D03*
X013810Y014175D03*
X013810Y014205D03*
X013810Y014235D03*
X013810Y014265D03*
X013810Y014295D03*
X013810Y014325D03*
X013780Y014355D03*
X013780Y014385D03*
X013840Y013755D03*
X013840Y013725D03*
X013840Y013695D03*
X013840Y013665D03*
X013840Y013635D03*
X013840Y013605D03*
X014290Y013605D03*
X014320Y013545D03*
X014290Y013485D03*
X013870Y012975D03*
X013840Y012825D03*
X013840Y012795D03*
X013840Y012765D03*
X013810Y012735D03*
X013810Y012705D03*
X013780Y012645D03*
X013750Y012585D03*
D20*
X013030Y012855D03*
D21*
X013045Y012885D03*
X013045Y012915D03*
D22*
X013765Y012945D03*
X013855Y013185D03*
X013945Y013575D03*
X013495Y014565D03*
X012595Y014565D03*
X011905Y013635D03*
X012205Y013185D03*
D23*
X013030Y013065D03*
D24*
X013030Y013095D03*
D25*
X013030Y013125D03*
D26*
X012715Y013425D03*
X012685Y013605D03*
X013375Y013425D03*
X012685Y014115D03*
X012715Y014295D03*
X013375Y014295D03*
D27*
X013045Y013545D03*
D28*
X013030Y013575D03*
D29*
X013045Y013605D03*
X013045Y014115D03*
D30*
X013390Y014115D03*
X013570Y013965D03*
X013390Y013605D03*
X012520Y013965D03*
D31*
X013030Y013635D03*
D32*
X014170Y013635D03*
D33*
X013045Y014145D03*
D34*
X013030Y014175D03*
D35*
X013045Y014595D03*
D36*
X013030Y014625D03*
D37*
X013045Y014655D03*
D38*
X012953Y014785D02*
X012906Y014785D01*
X012883Y014808D01*
X012829Y014785D02*
X012782Y014832D01*
X012805Y014832D02*
X012735Y014832D01*
X012735Y014785D02*
X012735Y014925D01*
X012805Y014925D01*
X012829Y014902D01*
X012829Y014855D01*
X012805Y014832D01*
X012883Y014902D02*
X012906Y014925D01*
X012953Y014925D01*
X012976Y014902D01*
X012976Y014878D01*
X012953Y014855D01*
X012976Y014832D01*
X012976Y014808D01*
X012953Y014785D01*
X012953Y014855D02*
X012929Y014855D01*
X014610Y014415D02*
X014610Y014275D01*
X014680Y014275D01*
X014703Y014298D01*
X014703Y014322D01*
X014680Y014345D01*
X014610Y014345D01*
X014680Y014345D02*
X014703Y014368D01*
X014703Y014392D01*
X014680Y014415D01*
X014610Y014415D01*
X014757Y014368D02*
X014804Y014415D01*
X014851Y014368D01*
X014851Y014275D01*
X014851Y014345D02*
X014757Y014345D01*
X014757Y014368D02*
X014757Y014275D01*
X014951Y014275D02*
X014951Y014415D01*
X014905Y014415D02*
X014998Y014415D01*
X015052Y014415D02*
X015145Y014415D01*
X015099Y014415D02*
X015099Y014275D01*
X015263Y012245D02*
X015263Y012025D01*
X015189Y012025D02*
X015153Y012062D01*
X015153Y012208D01*
X015189Y012172D02*
X015116Y012172D01*
X015042Y012135D02*
X015005Y012172D01*
X014932Y012172D01*
X014895Y012135D01*
X014895Y012062D01*
X014932Y012025D01*
X015005Y012025D01*
X015042Y012062D01*
X015042Y012135D01*
X015061Y011975D02*
X015024Y011938D01*
X015061Y011975D02*
X015135Y011975D01*
X015171Y011938D01*
X015171Y011902D01*
X015024Y011755D01*
X015171Y011755D01*
X015241Y011668D02*
X015241Y011522D01*
X015278Y011485D01*
X015351Y011485D01*
X015388Y011522D01*
X015388Y011668D02*
X015351Y011705D01*
X015278Y011705D01*
X015241Y011668D01*
X014946Y011632D02*
X014799Y011485D01*
X014725Y011558D02*
X014578Y011558D01*
X014578Y011522D02*
X014578Y011595D01*
X014615Y011632D01*
X014688Y011632D01*
X014725Y011595D01*
X014725Y011558D01*
X014688Y011485D02*
X014615Y011485D01*
X014578Y011522D01*
X014504Y011485D02*
X014431Y011485D01*
X014468Y011485D02*
X014468Y011705D01*
X014431Y011705D01*
X014361Y011755D02*
X014288Y011755D01*
X014251Y011792D01*
X014251Y011865D01*
X014288Y011902D01*
X014361Y011902D01*
X014398Y011865D01*
X014398Y011828D01*
X014251Y011828D01*
X014177Y011865D02*
X014140Y011828D01*
X014030Y011828D01*
X014030Y011755D02*
X014030Y011975D01*
X014140Y011975D01*
X014177Y011938D01*
X014177Y011865D01*
X014103Y011828D02*
X014177Y011755D01*
X014283Y011705D02*
X014210Y011632D01*
X014210Y011485D01*
X014210Y011595D02*
X014357Y011595D01*
X014357Y011632D02*
X014357Y011485D01*
X014357Y011632D02*
X014283Y011705D01*
X014545Y011755D02*
X014472Y011902D01*
X014526Y012025D02*
X014526Y012245D01*
X014453Y012245D02*
X014600Y012245D01*
X014674Y012135D02*
X014674Y012062D01*
X014711Y012025D01*
X014784Y012025D01*
X014821Y012062D01*
X014821Y012135D01*
X014784Y012172D01*
X014711Y012172D01*
X014674Y012135D01*
X014619Y011902D02*
X014545Y011755D01*
X014693Y011755D02*
X014730Y011755D01*
X014730Y011792D01*
X014693Y011792D01*
X014693Y011755D01*
X014799Y011632D02*
X014946Y011485D01*
X014658Y011242D02*
X014635Y011265D01*
X014588Y011265D01*
X014565Y011242D01*
X014565Y011148D01*
X014588Y011125D01*
X014635Y011125D01*
X014658Y011148D01*
X014658Y011195D01*
X014611Y011195D01*
X014511Y011125D02*
X014417Y011125D01*
X014417Y011265D01*
X014511Y011265D01*
X014464Y011195D02*
X014417Y011195D01*
X014363Y011195D02*
X014340Y011172D01*
X014270Y011172D01*
X014317Y011172D02*
X014363Y011125D01*
X014363Y011195D02*
X014363Y011242D01*
X014340Y011265D01*
X014270Y011265D01*
X014270Y011125D01*
X014232Y012025D02*
X014232Y012245D01*
X014158Y012208D02*
X014121Y012245D01*
X014011Y012245D01*
X014011Y012025D01*
X014121Y012025D01*
X014158Y012062D01*
X014158Y012208D01*
X014232Y012098D02*
X014379Y012245D01*
X014269Y012135D02*
X014379Y012025D01*
X013937Y012025D02*
X013937Y012172D01*
X013863Y012245D01*
X013790Y012172D01*
X013790Y012025D01*
X013790Y012135D02*
X013937Y012135D01*
X015263Y012135D02*
X015300Y012172D01*
X015373Y012172D01*
X015410Y012135D01*
X015410Y012025D01*
X015650Y011385D02*
X015650Y008135D01*
X019250Y008135D01*
X019250Y011385D01*
X015650Y011385D01*
X015960Y010535D02*
X016007Y010535D01*
X015983Y010535D02*
X015983Y010395D01*
X015960Y010395D02*
X016007Y010395D01*
X016058Y010418D02*
X016082Y010395D01*
X016128Y010395D01*
X016152Y010418D01*
X016206Y010395D02*
X016299Y010395D01*
X016252Y010395D02*
X016252Y010535D01*
X016206Y010488D01*
X016152Y010512D02*
X016128Y010535D01*
X016082Y010535D01*
X016058Y010512D01*
X016058Y010418D01*
X015199Y008325D02*
X015199Y008185D01*
X015153Y008185D02*
X015246Y008185D01*
X015153Y008278D02*
X015199Y008325D01*
X015099Y008302D02*
X015099Y008255D01*
X015075Y008232D01*
X015005Y008232D01*
X015005Y008185D02*
X015005Y008325D01*
X015075Y008325D01*
X015099Y008302D01*
X015052Y008232D02*
X015099Y008185D01*
X012138Y010795D02*
X012045Y010795D01*
X012091Y010795D02*
X012091Y010935D01*
X012045Y010888D01*
X011991Y010865D02*
X011967Y010842D01*
X011897Y010842D01*
X011897Y010795D02*
X011897Y010935D01*
X011967Y010935D01*
X011991Y010912D01*
X011991Y010865D01*
X011843Y010935D02*
X011797Y010935D01*
X011820Y010935D02*
X011820Y010818D01*
X011797Y010795D01*
X011773Y010795D01*
X011750Y010818D01*
D39*
X004030Y004580D02*
X004030Y004430D01*
X004030Y004480D02*
X004105Y004480D01*
X004130Y004505D01*
X004130Y004555D01*
X004105Y004580D01*
X004030Y004580D01*
X004080Y004480D02*
X004130Y004430D01*
X004178Y004455D02*
X004203Y004430D01*
X004253Y004430D01*
X004278Y004455D01*
X004278Y004555D01*
X004253Y004580D01*
X004203Y004580D01*
X004178Y004555D01*
X004178Y004530D01*
X004203Y004505D01*
X004278Y004505D01*
X006025Y004900D02*
X006025Y005050D01*
X006100Y005050D01*
X006125Y005025D01*
X006125Y004975D01*
X006100Y004950D01*
X006025Y004950D01*
X006075Y004950D02*
X006125Y004900D01*
X006172Y004925D02*
X006197Y004900D01*
X006247Y004900D01*
X006272Y004925D01*
X006272Y004950D01*
X006247Y004975D01*
X006197Y004975D01*
X006172Y005000D01*
X006172Y005025D01*
X006197Y005050D01*
X006247Y005050D01*
X006272Y005025D01*
X006272Y005000D01*
X006247Y004975D01*
X006197Y004975D02*
X006172Y004950D01*
X006172Y004925D01*
X006140Y005750D02*
X006090Y005800D01*
X006115Y005800D02*
X006040Y005800D01*
X006040Y005750D02*
X006040Y005900D01*
X006115Y005900D01*
X006140Y005875D01*
X006140Y005825D01*
X006115Y005800D01*
X006188Y005775D02*
X006213Y005750D01*
X006263Y005750D01*
X006288Y005775D01*
X006288Y005825D01*
X006263Y005850D01*
X006238Y005850D01*
X006188Y005825D01*
X006188Y005900D01*
X006288Y005900D01*
X007935Y005940D02*
X007935Y006090D01*
X008010Y006090D01*
X008035Y006065D01*
X008035Y006015D01*
X008010Y005990D01*
X007935Y005990D01*
X007985Y005990D02*
X008035Y005940D01*
X008082Y005965D02*
X008107Y005940D01*
X008157Y005940D01*
X008182Y005965D01*
X008182Y005990D01*
X008157Y006015D01*
X008082Y006015D01*
X008082Y005965D01*
X008082Y006015D02*
X008132Y006065D01*
X008182Y006090D01*
X003872Y006225D02*
X003772Y006125D01*
X003772Y006100D01*
X003725Y006100D02*
X003675Y006150D01*
X003700Y006150D02*
X003625Y006150D01*
X003625Y006100D02*
X003625Y006250D01*
X003700Y006250D01*
X003725Y006225D01*
X003725Y006175D01*
X003700Y006150D01*
X003772Y006250D02*
X003872Y006250D01*
X003872Y006225D01*
X007135Y011440D02*
X007235Y011440D01*
X007282Y011440D02*
X007332Y011440D01*
X007307Y011440D02*
X007307Y011590D01*
X007282Y011590D02*
X007332Y011590D01*
X007381Y011590D02*
X007481Y011440D01*
X007481Y011590D01*
X007528Y011590D02*
X007528Y011440D01*
X007528Y011490D02*
X007628Y011590D01*
X007553Y011515D02*
X007628Y011440D01*
X007381Y011440D02*
X007381Y011590D01*
X007135Y011590D02*
X007135Y011440D01*
X010615Y012090D02*
X010615Y012240D01*
X010690Y012240D01*
X010715Y012215D01*
X010715Y012165D01*
X010690Y012140D01*
X010615Y012140D01*
X010665Y012140D02*
X010715Y012090D01*
X010762Y012165D02*
X010862Y012165D01*
X010837Y012090D02*
X010837Y012240D01*
X010762Y012165D01*
X012255Y010945D02*
X012255Y010845D01*
X012280Y010820D01*
X012330Y010820D01*
X012355Y010845D01*
X012402Y010845D02*
X012427Y010820D01*
X012477Y010820D01*
X012502Y010845D01*
X012502Y010895D01*
X012477Y010920D01*
X012427Y010920D01*
X012402Y010895D01*
X012402Y010845D01*
X012355Y010945D02*
X012330Y010970D01*
X012280Y010970D01*
X012255Y010945D01*
X012550Y010920D02*
X012575Y010920D01*
X012600Y010895D01*
X012625Y010920D01*
X012650Y010895D01*
X012650Y010820D01*
X012697Y010820D02*
X012697Y010920D01*
X012722Y010920D01*
X012747Y010895D01*
X012772Y010920D01*
X012797Y010895D01*
X012797Y010820D01*
X012747Y010820D02*
X012747Y010895D01*
X012844Y010845D02*
X012869Y010870D01*
X012944Y010870D01*
X012944Y010895D02*
X012944Y010820D01*
X012869Y010820D01*
X012844Y010845D01*
X012869Y010920D02*
X012919Y010920D01*
X012944Y010895D01*
X012992Y010920D02*
X013067Y010920D01*
X013092Y010895D01*
X013092Y010820D01*
X013139Y010845D02*
X013139Y010895D01*
X013164Y010920D01*
X013239Y010920D01*
X013239Y010970D02*
X013239Y010820D01*
X013164Y010820D01*
X013139Y010845D01*
X012992Y010820D02*
X012992Y010920D01*
X012940Y010530D02*
X012940Y010380D01*
X012890Y010380D02*
X012990Y010380D01*
X013038Y010380D02*
X013138Y010380D01*
X013088Y010380D02*
X013088Y010530D01*
X013038Y010480D01*
X012940Y010530D02*
X012890Y010480D01*
X012843Y010505D02*
X012818Y010530D01*
X012768Y010530D01*
X012743Y010505D01*
X012743Y010480D01*
X012768Y010455D01*
X012818Y010455D01*
X012843Y010430D01*
X012843Y010405D01*
X012818Y010380D01*
X012768Y010380D01*
X012743Y010405D01*
X012696Y010405D02*
X012696Y010530D01*
X012793Y010555D02*
X012793Y010355D01*
X012696Y010405D02*
X012671Y010380D01*
X012621Y010380D01*
X012596Y010405D01*
X012596Y010530D01*
X012600Y010820D02*
X012600Y010895D01*
X012550Y010920D02*
X012550Y010820D01*
X012015Y010626D02*
X011965Y010601D01*
X011915Y010551D01*
X011990Y010551D01*
X012015Y010526D01*
X012015Y010501D01*
X011990Y010476D01*
X011940Y010476D01*
X011915Y010501D01*
X011915Y010551D01*
X011868Y010501D02*
X011843Y010476D01*
X011793Y010476D01*
X011768Y010501D01*
X011768Y010601D01*
X011793Y010626D01*
X011843Y010626D01*
X011868Y010601D01*
X013434Y010820D02*
X013434Y010970D01*
X013484Y010920D01*
X013534Y010970D01*
X013534Y010820D01*
X013581Y010845D02*
X013606Y010820D01*
X013656Y010820D01*
X013681Y010845D01*
X013681Y010895D01*
X013656Y010920D01*
X013606Y010920D01*
X013581Y010895D01*
X013581Y010845D01*
X013728Y010845D02*
X013728Y010895D01*
X013753Y010920D01*
X013828Y010920D01*
X013828Y010970D02*
X013828Y010820D01*
X013753Y010820D01*
X013728Y010845D01*
X013876Y010845D02*
X013876Y010895D01*
X013901Y010920D01*
X013951Y010920D01*
X013976Y010895D01*
X013976Y010870D01*
X013876Y010870D01*
X013876Y010845D02*
X013901Y010820D01*
X013951Y010820D01*
X013865Y010614D02*
X013765Y010614D01*
X013765Y010539D01*
X013815Y010564D01*
X013840Y010564D01*
X013865Y010539D01*
X013865Y010489D01*
X013840Y010464D01*
X013790Y010464D01*
X013765Y010489D01*
X013717Y010489D02*
X013692Y010464D01*
X013642Y010464D01*
X013617Y010489D01*
X013617Y010589D01*
X013642Y010614D01*
X013692Y010614D01*
X013717Y010589D01*
X014310Y007647D02*
X014285Y007622D01*
X014285Y007572D01*
X014310Y007547D01*
X014310Y007500D02*
X014285Y007475D01*
X014285Y007400D01*
X014435Y007400D01*
X014435Y007475D01*
X014410Y007500D01*
X014310Y007500D01*
X014435Y007547D02*
X014335Y007647D01*
X014310Y007647D01*
X014435Y007647D02*
X014435Y007547D01*
X007922Y014686D02*
X007822Y014686D01*
X007822Y014836D01*
X007922Y014836D01*
X007872Y014761D02*
X007822Y014761D01*
X007775Y014736D02*
X007750Y014761D01*
X007700Y014761D01*
X007675Y014786D01*
X007675Y014811D01*
X007700Y014836D01*
X007750Y014836D01*
X007775Y014811D01*
X007775Y014736D02*
X007775Y014711D01*
X007750Y014686D01*
X007700Y014686D01*
X007675Y014711D01*
X007628Y014711D02*
X007628Y014836D01*
X007528Y014836D02*
X007528Y014711D01*
X007553Y014686D01*
X007603Y014686D01*
X007628Y014711D01*
X007480Y014836D02*
X007380Y014836D01*
X007380Y014686D01*
X007380Y014761D02*
X007430Y014761D01*
D40*
X008170Y005595D02*
X008410Y005595D01*
X005410Y005745D02*
X005170Y005745D01*
X005170Y004935D02*
X005410Y004935D01*
X004090Y004935D02*
X003850Y004935D01*
X003850Y005745D02*
X004090Y005745D01*
D41*
X008970Y005675D02*
X008970Y001475D01*
X016970Y001475D01*
X016970Y005675D01*
X008970Y005675D01*
X014732Y006700D02*
X014920Y006700D01*
X014920Y006604D01*
X014920Y006700D02*
X015108Y006700D01*
X014920Y006700D02*
X015108Y006950D01*
X014920Y006950D01*
X014920Y007046D01*
X014920Y006950D02*
X014732Y006950D01*
X014920Y006700D01*
X011627Y012390D02*
X011627Y014400D01*
X007105Y014400D01*
X007105Y012390D01*
X011627Y012390D01*
X014070Y014855D02*
X016210Y014855D01*
X016210Y022205D01*
X014070Y022205D01*
X014070Y022155D01*
X014070Y014855D01*
X017170Y014855D02*
X019310Y014855D01*
X019310Y022205D01*
X017170Y022205D01*
X017170Y022155D01*
X017170Y014855D01*
D42*
X017212Y011855D02*
X017095Y011855D01*
X017037Y011797D01*
X017212Y011855D02*
X017270Y011797D01*
X017270Y011739D01*
X017037Y011505D01*
X017270Y011505D01*
X017396Y011505D02*
X017396Y011739D01*
X017454Y011739D01*
X017513Y011680D01*
X017571Y011739D01*
X017629Y011680D01*
X017629Y011505D01*
X017513Y011505D02*
X017513Y011680D01*
X017755Y011739D02*
X017755Y011505D01*
X017872Y011505D02*
X017872Y011680D01*
X017930Y011739D01*
X017988Y011680D01*
X017988Y011505D01*
X017872Y011680D02*
X017813Y011739D01*
X017755Y011739D01*
X016914Y011563D02*
X016856Y011563D01*
X016856Y011505D01*
X016914Y011505D01*
X016914Y011563D01*
X016914Y011505D02*
X016797Y011388D01*
X016672Y011563D02*
X016613Y011505D01*
X016497Y011505D01*
X016438Y011563D01*
X016438Y011680D02*
X016555Y011739D01*
X016613Y011739D01*
X016672Y011680D01*
X016672Y011563D01*
X016438Y011680D02*
X016438Y011855D01*
X016672Y011855D01*
X016196Y011855D02*
X016196Y011505D01*
X016079Y011505D02*
X016313Y011505D01*
X016079Y011739D02*
X016196Y011855D01*
X015954Y011739D02*
X015954Y011505D01*
X015954Y011680D02*
X015720Y011680D01*
X015720Y011739D02*
X015837Y011855D01*
X015954Y011739D01*
X015720Y011739D02*
X015720Y011505D01*
X009407Y011479D02*
X009330Y011555D01*
X009176Y011555D01*
X009100Y011479D01*
X008946Y011479D02*
X008946Y011325D01*
X008869Y011248D01*
X008639Y011248D01*
X008639Y011095D02*
X008639Y011555D01*
X008869Y011555D01*
X008946Y011479D01*
X008793Y011248D02*
X008946Y011095D01*
X009100Y011095D02*
X009407Y011402D01*
X009407Y011479D01*
X009407Y011095D02*
X009100Y011095D01*
X009816Y003323D02*
X009740Y003246D01*
X009740Y003093D01*
X009816Y003016D01*
X009893Y003016D01*
X009970Y003093D01*
X009970Y003246D01*
X010047Y003323D01*
X010123Y003323D01*
X010200Y003246D01*
X010200Y003093D01*
X010123Y003016D01*
X010200Y002709D02*
X009740Y002709D01*
X009740Y002862D02*
X009740Y002555D01*
X009816Y002402D02*
X009740Y002325D01*
X009740Y002172D01*
X009816Y002095D01*
X010123Y002095D01*
X010200Y002172D01*
X010200Y002325D01*
X010123Y002402D01*
X010740Y002402D02*
X010740Y002095D01*
X010740Y002248D02*
X011200Y002248D01*
X011200Y002555D02*
X010740Y002862D01*
X010740Y002555D02*
X011200Y002862D01*
X014740Y002862D02*
X015200Y002555D01*
X015200Y002402D02*
X015047Y002248D01*
X015047Y002325D02*
X015047Y002095D01*
X015200Y002095D02*
X014740Y002095D01*
X014740Y002325D01*
X014816Y002402D01*
X014970Y002402D01*
X015047Y002325D01*
X014740Y002555D02*
X015200Y002862D01*
X015740Y002862D02*
X015740Y002555D01*
X015740Y002862D01*
X015740Y002709D02*
X016200Y002709D01*
X015740Y002709D01*
X015816Y003016D02*
X015893Y003016D01*
X015970Y003093D01*
X015970Y003246D01*
X016047Y003323D01*
X016123Y003323D01*
X016200Y003246D01*
X016200Y003093D01*
X016123Y003016D01*
X016200Y003093D01*
X016200Y003246D01*
X016123Y003323D01*
X016047Y003323D01*
X015970Y003246D01*
X015970Y003093D01*
X015893Y003016D01*
X015816Y003016D01*
X015740Y003093D01*
X015740Y003246D01*
X015816Y003323D01*
X015740Y003246D01*
X015740Y003093D01*
X015816Y003016D01*
X015816Y002402D02*
X015970Y002402D01*
X016047Y002325D01*
X016047Y002095D01*
X016047Y002325D01*
X015970Y002402D01*
X015816Y002402D01*
X015740Y002325D01*
X015740Y002095D01*
X016200Y002095D01*
X015740Y002095D01*
X015740Y002325D01*
X015816Y002402D01*
X016047Y002248D02*
X016200Y002402D01*
X016047Y002248D01*
D43*
X015400Y007885D02*
X015400Y012785D01*
X015750Y012785D01*
X015750Y013385D01*
X015400Y013385D01*
X015400Y014135D01*
X019500Y014135D01*
X019500Y013385D01*
X019150Y013385D01*
X019150Y012785D01*
X019500Y012785D01*
X019500Y007885D01*
X015400Y007885D01*
X013330Y009026D02*
X013330Y009423D01*
X013330Y009026D02*
X012813Y009026D01*
X012810Y009479D02*
X012810Y009817D01*
X012813Y010264D02*
X013330Y010264D01*
X013330Y009847D01*
X013580Y011105D02*
X012780Y011105D01*
X012680Y011205D01*
X012580Y011105D01*
X011780Y011105D01*
X011680Y011205D01*
X011680Y012005D01*
X011780Y012105D01*
X012580Y012105D01*
X012680Y012005D01*
X012780Y012105D01*
X013580Y012105D01*
X013680Y012005D01*
X013680Y011205D01*
X013580Y011105D01*
X016740Y012785D02*
X016742Y012838D01*
X016748Y012891D01*
X016758Y012943D01*
X016772Y012994D01*
X016789Y013044D01*
X016810Y013093D01*
X016835Y013140D01*
X016863Y013185D01*
X016895Y013228D01*
X016930Y013268D01*
X016967Y013305D01*
X017007Y013340D01*
X017050Y013372D01*
X017095Y013400D01*
X017142Y013425D01*
X017191Y013446D01*
X017241Y013463D01*
X017292Y013477D01*
X017344Y013487D01*
X017397Y013493D01*
X017450Y013495D01*
X017503Y013493D01*
X017556Y013487D01*
X017608Y013477D01*
X017659Y013463D01*
X017709Y013446D01*
X017758Y013425D01*
X017805Y013400D01*
X017850Y013372D01*
X017893Y013340D01*
X017933Y013305D01*
X017970Y013268D01*
X018005Y013228D01*
X018037Y013185D01*
X018065Y013140D01*
X018090Y013093D01*
X018111Y013044D01*
X018128Y012994D01*
X018142Y012943D01*
X018152Y012891D01*
X018158Y012838D01*
X018160Y012785D01*
X018158Y012732D01*
X018152Y012679D01*
X018142Y012627D01*
X018128Y012576D01*
X018111Y012526D01*
X018090Y012477D01*
X018065Y012430D01*
X018037Y012385D01*
X018005Y012342D01*
X017970Y012302D01*
X017933Y012265D01*
X017893Y012230D01*
X017850Y012198D01*
X017805Y012170D01*
X017758Y012145D01*
X017709Y012124D01*
X017659Y012107D01*
X017608Y012093D01*
X017556Y012083D01*
X017503Y012077D01*
X017450Y012075D01*
X017397Y012077D01*
X017344Y012083D01*
X017292Y012093D01*
X017241Y012107D01*
X017191Y012124D01*
X017142Y012145D01*
X017095Y012170D01*
X017050Y012198D01*
X017007Y012230D01*
X016967Y012265D01*
X016930Y012302D01*
X016895Y012342D01*
X016863Y012385D01*
X016835Y012430D01*
X016810Y012477D01*
X016789Y012526D01*
X016772Y012576D01*
X016758Y012627D01*
X016748Y012679D01*
X016742Y012732D01*
X016740Y012785D01*
D44*
X016450Y007710D03*
X017450Y007710D03*
X018450Y007710D03*
D45*
X014960Y010314D03*
X014820Y013524D03*
X007789Y011925D03*
D46*
X010851Y011284D02*
X011555Y011284D01*
X011555Y010772D01*
X011555Y006666D01*
X011555Y006166D01*
X010851Y006166D01*
X003760Y006166D01*
X000965Y006166D01*
X000965Y011284D01*
X003760Y011284D01*
X010851Y011284D01*
M02*
