%
M48
M72
T01C0.0150
T02C0.0360
T03C0.0400
T04C0.0433
T05C0.0460
T06C0.0500
T07C0.0530
T08C0.1300
%
T01
X6130Y5565
X3850Y6975
X10810Y7815
X10810Y8235
X12640Y7935
X12910Y8235
X13030Y9585
X12580Y9645
X14230Y10875
X10720Y10455
X11560Y6015
T02
X12180Y11605
X13180Y11605
X15140Y14955
X15140Y15745
X15140Y16535
X15140Y17325
X18240Y17325
X18240Y16535
X18240Y15745
X18240Y14955
T03
X18450Y6885
X17450Y6885
X16450Y6885
T04
X15970Y5075
X14970Y5075
X13970Y5075
X12970Y5075
X11970Y5075
X10970Y5075
X9970Y5075
T05
X17970Y5075
X18970Y5075
X11970Y16155
X10970Y16155
X8970Y16155
X7970Y16155
T06
X5920Y17035
X5920Y15165
X5920Y13295
T07
X14070Y14855
X16210Y14855
X17170Y14855
X19310Y14855
X19310Y17615
X17170Y17615
X16210Y17615
X14070Y17615
T08
X17450Y12785
M30
