%
M48
M72
T01C0.0320
T02C0.0360
T03C0.0400
T04C0.0433
T05C0.0460
T06C0.0512
T07C0.0790
T08C0.0910
T09C0.1300
%
T01
X5010Y4686
X5910Y4686
X5910Y5686
X5010Y5686
X3510Y6786
X3510Y7786
X9110Y12486
X10110Y12486
X16710Y7986
X16710Y6986
X16710Y5786
X16710Y4786
X21910Y6886
X22910Y6886
X24810Y6886
X24810Y7886
X27810Y7486
X28810Y7486
T02
X24865Y12926
X23885Y12926
X23095Y12926
X22115Y12926
X17095Y12926
X16115Y12926
X15325Y12926
X14345Y12926
T03
X14810Y7486
X14810Y6486
X14810Y5486
T04
X19910Y5086
X20910Y5086
X21910Y5086
X22910Y5086
X23910Y5086
X24910Y5086
X25910Y5086
T05
X27911Y5087
X28911Y5087
X28610Y13786
X27610Y13786
X11610Y14086
X10610Y14086
T06
X10110Y10186
X8142Y10186
X14441Y10186
X16410Y10186
X19542Y10186
X21510Y10186
X25841Y10186
X27810Y10186
T07
X4760Y12286
X3460Y14086
T08
X13135Y13996
X18305Y13996
X20905Y13996
X26075Y13996
T09
X8910Y6486
M30
