G75*
G70*
%OFA0B0*%
%FSLAX24Y24*%
%IPPOS*%
%LPD*%
%AMOC8*
5,1,8,0,0,1.08239X$1,22.5*
%
%ADD10R,0.0098X0.0394*%
%ADD11R,0.0394X0.0528*%
%ADD12C,0.0310*%
%ADD13C,0.0100*%
%ADD14C,0.0396*%
D10*
X002200Y001687D03*
X002397Y001687D03*
X002594Y001687D03*
X002790Y001687D03*
D11*
X003830Y001273D03*
X001160Y001273D03*
D12*
X001865Y002317D03*
X002180Y002671D03*
X002495Y002317D03*
X002810Y002671D03*
X003125Y002317D03*
D13*
X000740Y002556D02*
X000740Y000818D01*
X004250Y000818D01*
X004250Y002556D01*
X003071Y002556D01*
X003051Y002510D01*
X002990Y002448D01*
X002990Y002273D01*
X002990Y002124D01*
X002891Y002025D01*
X002897Y002023D01*
X002932Y002003D01*
X002960Y001976D01*
X002979Y001941D01*
X002990Y001903D01*
X002990Y001687D01*
X002791Y001687D01*
X002791Y001686D01*
X002990Y001686D01*
X002990Y001470D01*
X002979Y001432D01*
X002960Y001398D01*
X002932Y001370D01*
X002897Y001350D01*
X002859Y001340D01*
X002791Y001340D01*
X002791Y001686D01*
X002790Y001686D01*
X002790Y001340D01*
X002721Y001340D01*
X002683Y001350D01*
X002666Y001360D01*
X002490Y001360D01*
X002294Y001360D01*
X002097Y001360D01*
X002021Y001436D01*
X002021Y001611D01*
X002020Y001612D01*
X002020Y002072D01*
X001922Y002032D01*
X001809Y002032D01*
X001704Y002075D01*
X001624Y002155D01*
X001580Y002260D01*
X001580Y002373D01*
X001624Y002478D01*
X001701Y002556D01*
X000740Y002556D01*
X000740Y002460D02*
X001616Y002460D01*
X001580Y002362D02*
X000740Y002362D01*
X000740Y002263D02*
X001580Y002263D01*
X001620Y002164D02*
X000740Y002164D01*
X000740Y002066D02*
X001726Y002066D01*
X002004Y002066D02*
X002020Y002066D01*
X002020Y001967D02*
X000740Y001967D01*
X000740Y001869D02*
X002020Y001869D01*
X002020Y001770D02*
X000740Y001770D01*
X000740Y001672D02*
X000897Y001672D01*
X000906Y001677D02*
X000871Y001657D01*
X000844Y001629D01*
X000824Y001595D01*
X000814Y001557D01*
X000814Y001322D01*
X001112Y001322D01*
X001112Y001687D01*
X000944Y001687D01*
X000906Y001677D01*
X000818Y001573D02*
X000740Y001573D01*
X000740Y001475D02*
X000814Y001475D01*
X000814Y001376D02*
X000740Y001376D01*
X000740Y001278D02*
X001112Y001278D01*
X001112Y001322D02*
X001112Y001225D01*
X000814Y001225D01*
X000814Y000990D01*
X000824Y000952D01*
X000844Y000917D01*
X000871Y000889D01*
X000906Y000870D01*
X000944Y000859D01*
X001112Y000859D01*
X001112Y001225D01*
X001209Y001225D01*
X001209Y001322D01*
X001112Y001322D01*
X001112Y001376D02*
X001209Y001376D01*
X001209Y001322D02*
X001209Y001687D01*
X001377Y001687D01*
X001415Y001677D01*
X001449Y001657D01*
X001477Y001629D01*
X001497Y001595D01*
X001507Y001557D01*
X001507Y001322D01*
X001209Y001322D01*
X001209Y001278D02*
X003781Y001278D01*
X003781Y001322D02*
X003781Y001225D01*
X003483Y001225D01*
X003483Y000990D01*
X003493Y000952D01*
X003513Y000917D01*
X003541Y000889D01*
X003575Y000870D01*
X003613Y000859D01*
X003781Y000859D01*
X003781Y001225D01*
X003878Y001225D01*
X003878Y001322D01*
X003781Y001322D01*
X003781Y001687D01*
X003613Y001687D01*
X003575Y001677D01*
X003541Y001657D01*
X003513Y001629D01*
X003493Y001595D01*
X003483Y001557D01*
X003483Y001322D01*
X003781Y001322D01*
X003781Y001376D02*
X003878Y001376D01*
X003878Y001322D02*
X003878Y001687D01*
X004046Y001687D01*
X004084Y001677D01*
X004119Y001657D01*
X004147Y001629D01*
X004166Y001595D01*
X004177Y001557D01*
X004177Y001322D01*
X003878Y001322D01*
X003878Y001278D02*
X004250Y001278D01*
X004177Y001225D02*
X003878Y001225D01*
X003878Y000859D01*
X004046Y000859D01*
X004084Y000870D01*
X004119Y000889D01*
X004147Y000917D01*
X004166Y000952D01*
X004177Y000990D01*
X004177Y001225D01*
X004177Y001179D02*
X004250Y001179D01*
X004250Y001081D02*
X004177Y001081D01*
X004174Y000982D02*
X004250Y000982D01*
X004250Y000883D02*
X004108Y000883D01*
X003878Y000883D02*
X003781Y000883D01*
X003781Y000982D02*
X003878Y000982D01*
X003878Y001081D02*
X003781Y001081D01*
X003781Y001179D02*
X003878Y001179D01*
X004177Y001376D02*
X004250Y001376D01*
X004250Y001475D02*
X004177Y001475D01*
X004172Y001573D02*
X004250Y001573D01*
X004250Y001672D02*
X004093Y001672D01*
X004250Y001770D02*
X002990Y001770D01*
X002990Y001672D02*
X003566Y001672D01*
X003487Y001573D02*
X002990Y001573D01*
X002990Y001475D02*
X003483Y001475D01*
X003483Y001376D02*
X002938Y001376D01*
X002791Y001376D02*
X002790Y001376D01*
X002790Y001475D02*
X002791Y001475D01*
X002790Y001573D02*
X002791Y001573D01*
X002790Y001672D02*
X002791Y001672D01*
X002790Y001687D02*
X002790Y001883D01*
X003125Y002218D01*
X003125Y002317D01*
X002990Y002362D02*
X004250Y002362D01*
X004250Y002460D02*
X003002Y002460D01*
X002990Y002263D02*
X004250Y002263D01*
X004250Y002164D02*
X002990Y002164D01*
X002932Y002066D02*
X004250Y002066D01*
X004250Y001967D02*
X002964Y001967D01*
X002990Y001869D02*
X004250Y001869D01*
X003878Y001672D02*
X003781Y001672D01*
X003781Y001573D02*
X003878Y001573D01*
X003878Y001475D02*
X003781Y001475D01*
X003483Y001179D02*
X001507Y001179D01*
X001507Y001225D02*
X001209Y001225D01*
X001209Y000859D01*
X001377Y000859D01*
X001415Y000870D01*
X001449Y000889D01*
X001477Y000917D01*
X001497Y000952D01*
X001507Y000990D01*
X001507Y001225D01*
X001507Y001081D02*
X003483Y001081D01*
X003485Y000982D02*
X001505Y000982D01*
X001439Y000883D02*
X003551Y000883D01*
X002791Y001687D02*
X002791Y001924D01*
X002790Y001924D01*
X002790Y001687D01*
X002791Y001687D01*
X002790Y001770D02*
X002791Y001770D01*
X002790Y001869D02*
X002791Y001869D01*
X002594Y001982D02*
X002594Y001687D01*
X002397Y001687D02*
X002397Y002218D01*
X002495Y002317D01*
X002810Y002198D02*
X002594Y001982D01*
X002810Y002198D02*
X002810Y002671D01*
X002200Y002651D02*
X002200Y001687D01*
X002020Y001672D02*
X001424Y001672D01*
X001503Y001573D02*
X002021Y001573D01*
X002021Y001475D02*
X001507Y001475D01*
X001507Y001376D02*
X002080Y001376D01*
X001209Y001475D02*
X001112Y001475D01*
X001112Y001573D02*
X001209Y001573D01*
X001209Y001672D02*
X001112Y001672D01*
X001112Y001179D02*
X001209Y001179D01*
X001209Y001081D02*
X001112Y001081D01*
X001112Y000982D02*
X001209Y000982D01*
X001209Y000883D02*
X001112Y000883D01*
X000882Y000883D02*
X000740Y000883D01*
X000740Y000982D02*
X000816Y000982D01*
X000814Y001081D02*
X000740Y001081D01*
X000740Y001179D02*
X000814Y001179D01*
X002200Y002651D02*
X002180Y002671D01*
D14*
X000743Y002297D03*
X004247Y002297D03*
M02*
