G75*
G70*
%OFA0B0*%
%FSLAX24Y24*%
%IPPOS*%
%LPD*%
%AMOC8*
5,1,8,0,0,1.08239X$1,22.5*
%
%ADD10C,0.0020*%
%ADD11C,0.0040*%
%ADD12C,0.0050*%
D10*
X007341Y012075D02*
X007451Y012075D01*
X007488Y012112D01*
X007488Y012185D01*
X007451Y012222D01*
X007341Y012222D01*
X007562Y012222D02*
X007562Y012038D01*
X007599Y012002D01*
X007635Y012002D01*
X007562Y012295D02*
X007562Y012332D01*
D11*
X001465Y002182D02*
X001542Y002105D01*
X001849Y002105D01*
X001926Y002182D01*
X001926Y002335D01*
X001849Y002412D01*
X001926Y002565D02*
X001926Y002872D01*
X001926Y002719D02*
X001465Y002719D01*
X001542Y003026D02*
X001465Y003102D01*
X001465Y003256D01*
X001542Y003333D01*
X001619Y003333D01*
X001696Y003256D01*
X001696Y003102D01*
X001772Y003026D01*
X001849Y003026D01*
X001926Y003102D01*
X001926Y003256D01*
X001849Y003333D01*
X001542Y002412D02*
X001465Y002335D01*
X001465Y002182D01*
X002465Y002258D02*
X002926Y002258D01*
X002926Y002105D02*
X002926Y002412D01*
X002926Y002565D02*
X002465Y002872D01*
X002465Y002565D02*
X002926Y002872D01*
X006465Y002872D02*
X006926Y002565D01*
X006849Y002412D02*
X006696Y002412D01*
X006619Y002335D01*
X006619Y002105D01*
X006619Y002258D02*
X006465Y002412D01*
X006465Y002565D02*
X006926Y002872D01*
X006849Y002412D02*
X006926Y002335D01*
X006926Y002105D01*
X006465Y002105D01*
X007465Y002105D02*
X007926Y002105D01*
X007926Y002335D01*
X007849Y002412D01*
X007696Y002412D01*
X007619Y002335D01*
X007619Y002105D01*
X007619Y002258D02*
X007465Y002412D01*
X007465Y002719D02*
X007926Y002719D01*
X007926Y002872D02*
X007926Y002565D01*
X007849Y003026D02*
X007772Y003026D01*
X007696Y003102D01*
X007696Y003256D01*
X007619Y003333D01*
X007542Y003333D01*
X007465Y003256D01*
X007465Y003102D01*
X007542Y003026D01*
X007849Y003026D02*
X007926Y003102D01*
X007926Y003256D01*
X007849Y003333D01*
D12*
X011275Y007555D02*
X002181Y007555D01*
X002181Y012752D01*
X011275Y012752D01*
X011275Y007555D01*
M02*
