G75*
G70*
%OFA0B0*%
%FSLAX24Y24*%
%IPPOS*%
%LPD*%
%AMOC8*
5,1,8,0,0,1.08239X$1,22.5*
%
%ADD10R,0.0420X0.0030*%
%ADD11R,0.0600X0.0030*%
%ADD12R,0.0750X0.0030*%
%ADD13R,0.0270X0.0030*%
%ADD14R,0.0240X0.0030*%
%ADD15R,0.0210X0.0030*%
%ADD16R,0.0180X0.0030*%
%ADD17R,0.0150X0.0030*%
%ADD18R,0.0120X0.0030*%
%ADD19R,0.0090X0.0030*%
%ADD20R,0.1230X0.0030*%
%ADD21R,0.1740X0.0030*%
%ADD22R,0.0300X0.0030*%
%ADD23R,0.1050X0.0030*%
%ADD24R,0.1410X0.0030*%
%ADD25R,0.1650X0.0030*%
%ADD26R,0.0060X0.0030*%
%ADD27R,0.0360X0.0030*%
%ADD28R,0.0450X0.0030*%
%ADD29R,0.0540X0.0030*%
%ADD30R,0.0030X0.0030*%
%ADD31R,0.0570X0.0030*%
%ADD32R,0.0330X0.0030*%
%ADD33R,0.0480X0.0030*%
%ADD34R,0.0390X0.0030*%
%ADD35R,0.1080X0.0030*%
%ADD36R,0.0930X0.0030*%
%ADD37R,0.0660X0.0030*%
%ADD38C,0.0753*%
%ADD39C,0.0631*%
%ADD40C,0.0840*%
%ADD41C,0.0714*%
%ADD42C,0.0680*%
%ADD43C,0.0674*%
%ADD44C,0.1261*%
%ADD45C,0.0556*%
%ADD46R,0.0556X0.0556*%
D10*
X005786Y027121D03*
X005096Y028111D03*
X006506Y028111D03*
D11*
X005786Y029041D03*
X005786Y027151D03*
D12*
X005801Y027181D03*
D13*
X006101Y027211D03*
X006521Y027901D03*
X006701Y028531D03*
X006941Y028621D03*
X005801Y029161D03*
D14*
X005996Y029011D03*
X005996Y028621D03*
X005786Y028471D03*
X004886Y028171D03*
X004646Y028621D03*
X005246Y029491D03*
X006686Y028501D03*
X006716Y028171D03*
X006176Y027241D03*
X005486Y027211D03*
D15*
X005411Y027241D03*
X005801Y028291D03*
X005801Y028321D03*
X005591Y028621D03*
X005561Y028651D03*
X005441Y028471D03*
X005561Y028981D03*
X005591Y029011D03*
X005441Y029161D03*
X004901Y028501D03*
X004781Y028561D03*
X004811Y028201D03*
X006131Y028471D03*
X006131Y029161D03*
X006341Y029491D03*
X006401Y029461D03*
D16*
X006446Y029431D03*
X006026Y028981D03*
X006056Y028951D03*
X006086Y028831D03*
X006086Y028801D03*
X006056Y028711D03*
X006056Y028681D03*
X006026Y028651D03*
X006146Y028501D03*
X005816Y028351D03*
X005456Y028441D03*
X005426Y028501D03*
X005546Y028681D03*
X005516Y028741D03*
X005516Y028921D03*
X005546Y028951D03*
X005426Y029131D03*
X005456Y029191D03*
X005786Y029251D03*
X005786Y029281D03*
X005786Y029311D03*
X005786Y029341D03*
X005786Y029371D03*
X005186Y029461D03*
X004706Y028261D03*
X004766Y028231D03*
X005306Y027301D03*
X005366Y027271D03*
X006236Y027271D03*
X006776Y028201D03*
X006836Y028231D03*
X006656Y028471D03*
X006806Y028561D03*
D17*
X006911Y028291D03*
X006881Y028261D03*
X006131Y028441D03*
X006071Y028741D03*
X006071Y028771D03*
X006071Y028861D03*
X006071Y028891D03*
X006071Y028921D03*
X006281Y028891D03*
X006281Y028861D03*
X006281Y028831D03*
X006281Y028801D03*
X006281Y028771D03*
X006161Y029131D03*
X006131Y029191D03*
X006491Y029401D03*
X005801Y028381D03*
X005801Y028261D03*
X005531Y028711D03*
X005501Y028771D03*
X005501Y028801D03*
X005501Y028831D03*
X005501Y028861D03*
X005501Y028891D03*
X005291Y028831D03*
X004931Y028471D03*
X004661Y028291D03*
X004631Y028321D03*
X004601Y028351D03*
X004631Y028651D03*
X005141Y029431D03*
X005171Y027421D03*
X005201Y027391D03*
X005231Y027361D03*
X005261Y027331D03*
X006281Y027301D03*
X006311Y027331D03*
D18*
X006356Y027361D03*
X006386Y027391D03*
X006416Y027421D03*
X006446Y027451D03*
X006476Y027481D03*
X006506Y027541D03*
X006536Y027601D03*
X006566Y027661D03*
X006596Y027751D03*
X006956Y028321D03*
X006986Y028351D03*
X007016Y028381D03*
X007046Y028441D03*
X007046Y028561D03*
X006956Y028651D03*
X006596Y028621D03*
X006566Y028951D03*
X006566Y028981D03*
X006566Y029011D03*
X006566Y029041D03*
X006566Y029071D03*
X006536Y029341D03*
X006506Y029371D03*
X006116Y029221D03*
X006296Y028741D03*
X006146Y028531D03*
X006116Y028411D03*
X005456Y028411D03*
X005426Y028531D03*
X005306Y028741D03*
X005306Y028771D03*
X005306Y028801D03*
X005306Y028861D03*
X005306Y028891D03*
X005426Y029101D03*
X005456Y029221D03*
X005096Y029401D03*
X005066Y029371D03*
X004526Y028531D03*
X004526Y028471D03*
X004556Y028411D03*
X004586Y028381D03*
X004976Y027811D03*
X005036Y027631D03*
X005066Y027571D03*
X005096Y027511D03*
X005126Y027481D03*
X005156Y027451D03*
D19*
X005081Y027541D03*
X005051Y027601D03*
X005021Y027661D03*
X005021Y027691D03*
X004991Y027721D03*
X004991Y027751D03*
X004991Y027781D03*
X004961Y027931D03*
X004991Y028561D03*
X004991Y028591D03*
X004991Y028621D03*
X004991Y028651D03*
X004991Y028681D03*
X004991Y028711D03*
X005021Y028741D03*
X005021Y028771D03*
X005021Y028801D03*
X005021Y028831D03*
X005021Y028861D03*
X005021Y028891D03*
X005021Y028921D03*
X005021Y028951D03*
X005021Y028981D03*
X005021Y029011D03*
X005021Y029041D03*
X005021Y029071D03*
X005021Y029101D03*
X005021Y029131D03*
X005021Y029161D03*
X005021Y029191D03*
X005021Y029221D03*
X005021Y029251D03*
X005021Y029281D03*
X005051Y029311D03*
X005051Y029341D03*
X004541Y028561D03*
X004511Y028501D03*
X004541Y028441D03*
X006161Y029101D03*
X006551Y029101D03*
X006551Y029131D03*
X006551Y029161D03*
X006551Y029191D03*
X006551Y029221D03*
X006551Y029251D03*
X006551Y029281D03*
X006551Y029311D03*
X006581Y028921D03*
X006581Y028891D03*
X006581Y028861D03*
X006581Y028831D03*
X006581Y028801D03*
X006581Y028771D03*
X006581Y028741D03*
X006581Y028711D03*
X006581Y028681D03*
X006581Y028651D03*
X006611Y028591D03*
X006611Y028561D03*
X007031Y028411D03*
X007061Y028471D03*
X007061Y028501D03*
X007061Y028531D03*
X006611Y027931D03*
X006611Y027811D03*
X006611Y027781D03*
X006581Y027721D03*
X006581Y027691D03*
X006551Y027631D03*
X006521Y027571D03*
X006491Y027511D03*
D20*
X005801Y027811D03*
D21*
X005786Y027841D03*
X005786Y027871D03*
D22*
X005066Y027901D03*
X004976Y028141D03*
X004886Y028531D03*
X005336Y029521D03*
X006236Y029521D03*
X006926Y028591D03*
X006626Y028141D03*
D23*
X005801Y028021D03*
D24*
X005801Y028051D03*
D25*
X005801Y028081D03*
D26*
X005456Y028381D03*
X005456Y029251D03*
X006116Y029251D03*
X006146Y029071D03*
X006146Y028561D03*
X006116Y028381D03*
D27*
X005786Y028501D03*
D28*
X005801Y028531D03*
D29*
X005786Y028561D03*
X005786Y029071D03*
D30*
X005441Y029071D03*
X005261Y028921D03*
X005441Y028561D03*
X006311Y028921D03*
D31*
X005801Y028591D03*
D32*
X004661Y028591D03*
D33*
X005786Y029101D03*
D34*
X005801Y029131D03*
D35*
X005786Y029551D03*
D36*
X005801Y029581D03*
D37*
X005786Y029611D03*
D38*
X006198Y018700D03*
X006198Y017700D03*
X006198Y016700D03*
X006198Y015700D03*
X006198Y014700D03*
X006198Y013700D03*
X006198Y012700D03*
X006198Y011700D03*
X006198Y010700D03*
X006198Y009700D03*
X006198Y008700D03*
X006198Y007700D03*
X005198Y007700D03*
X005198Y008700D03*
X005198Y009700D03*
X005198Y010700D03*
X005198Y011700D03*
X005198Y012700D03*
X005198Y013700D03*
X005198Y014700D03*
X005198Y015700D03*
X005198Y016700D03*
X005198Y017700D03*
X005198Y018700D03*
X007201Y018700D03*
X007201Y017700D03*
X007201Y016700D03*
X007201Y015700D03*
X007201Y014700D03*
X007201Y013700D03*
X007201Y012700D03*
X007201Y011700D03*
X007201Y010700D03*
X007201Y009700D03*
X007201Y008700D03*
X007201Y007700D03*
X018198Y007697D03*
X018198Y008697D03*
X018198Y009697D03*
X018198Y010697D03*
X018198Y011697D03*
X018198Y012697D03*
X018198Y013697D03*
X018198Y014697D03*
X018198Y015697D03*
X018198Y016697D03*
X018198Y017697D03*
X018198Y018697D03*
X019199Y018699D03*
X019199Y017699D03*
X019199Y016699D03*
X019199Y015699D03*
X019199Y014699D03*
X019199Y013699D03*
X019199Y012699D03*
X019199Y011699D03*
X019199Y010699D03*
X019199Y009699D03*
X019199Y008699D03*
X019199Y007699D03*
X020199Y007699D03*
X020199Y008699D03*
X020199Y009699D03*
X020199Y010699D03*
X020199Y011699D03*
X020199Y012699D03*
X020199Y013699D03*
X020199Y014699D03*
X020199Y015699D03*
X020199Y016699D03*
X020199Y017699D03*
X020199Y018699D03*
D39*
X020921Y019771D03*
X021011Y021241D03*
X019206Y025269D03*
X017832Y025118D03*
X015941Y022111D03*
X015146Y020135D03*
X009791Y026791D03*
X008861Y026791D03*
X007961Y026791D03*
X007271Y026791D03*
X008861Y025741D03*
X008291Y021661D03*
X007751Y021271D03*
X007241Y021691D03*
X008891Y021301D03*
X004961Y020041D03*
X004571Y019171D03*
D40*
X014214Y026560D03*
X015214Y026560D03*
D41*
X017929Y028072D03*
X019681Y028072D03*
D42*
X020381Y024591D02*
X020981Y024591D01*
X020981Y023591D02*
X020381Y023591D01*
X020381Y022591D02*
X020981Y022591D01*
X005001Y022591D02*
X004401Y022591D01*
X004401Y023591D02*
X005001Y023591D01*
X005001Y024591D02*
X004401Y024591D01*
D43*
X009295Y016431D03*
X010815Y014317D03*
X015516Y015978D03*
X016244Y015978D03*
X017445Y014915D03*
X017445Y014187D03*
X019646Y019541D03*
X019657Y020620D03*
D44*
X003705Y006214D03*
X003705Y029167D03*
X021657Y029167D03*
X021657Y006214D03*
D45*
X017504Y018104D03*
X017832Y025118D03*
X021311Y027451D03*
D46*
X020921Y018571D03*
M02*
