G75*
G70*
%OFA0B0*%
%FSLAX24Y24*%
%IPPOS*%
%LPD*%
%AMOC8*
5,1,8,0,0,1.08239X$1,22.5*
%
%ADD10C,0.0673*%
%ADD11C,0.0551*%
%ADD12C,0.0760*%
%ADD13C,0.0634*%
%ADD14C,0.0600*%
%ADD15C,0.0390*%
%ADD16C,0.0100*%
%ADD17C,0.0060*%
%ADD18C,0.0594*%
%ADD19C,0.1181*%
%ADD20C,0.0240*%
%ADD21C,0.0060*%
%ADD22R,0.0390X0.0390*%
%ADD23C,0.0160*%
%ADD24C,0.0476*%
%ADD25R,0.0476X0.0476*%
D10*
X005198Y007700D03*
X005198Y008700D03*
X005198Y009700D03*
X005198Y010700D03*
X005198Y011700D03*
X005198Y012700D03*
X005198Y013700D03*
X005198Y014700D03*
X005198Y015700D03*
X005198Y016700D03*
X005198Y017700D03*
X005198Y018700D03*
X006198Y018700D03*
X006198Y017700D03*
X006198Y016700D03*
X006198Y015700D03*
X006198Y014700D03*
X006198Y013700D03*
X006198Y012700D03*
X006198Y011700D03*
X006198Y010700D03*
X006198Y009700D03*
X006198Y008700D03*
X006198Y007700D03*
X007201Y007700D03*
X007201Y008700D03*
X007201Y009700D03*
X007201Y010700D03*
X007201Y011700D03*
X007201Y012700D03*
X007201Y013700D03*
X007201Y014700D03*
X007201Y015700D03*
X007201Y016700D03*
X007201Y017700D03*
X007201Y018700D03*
X018198Y018697D03*
X018198Y017697D03*
X018198Y016697D03*
X018198Y015697D03*
X018198Y014697D03*
X018198Y013697D03*
X018198Y012697D03*
X018198Y011697D03*
X018198Y010697D03*
X018198Y009697D03*
X018198Y008697D03*
X018198Y007697D03*
X019199Y007699D03*
X019199Y008699D03*
X019199Y009699D03*
X019199Y010699D03*
X019199Y011699D03*
X019199Y012699D03*
X019199Y013699D03*
X019199Y014699D03*
X019199Y015699D03*
X019199Y016699D03*
X019199Y017699D03*
X019199Y018699D03*
X020199Y018699D03*
X020199Y017699D03*
X020199Y016699D03*
X020199Y015699D03*
X020199Y014699D03*
X020199Y013699D03*
X020199Y012699D03*
X020199Y011699D03*
X020199Y010699D03*
X020199Y009699D03*
X020199Y008699D03*
X020199Y007699D03*
D11*
X020921Y019771D03*
X021011Y021241D03*
X019206Y025269D03*
X017832Y025118D03*
X015941Y022111D03*
X015146Y020135D03*
X009791Y026791D03*
X008861Y026791D03*
X007961Y026791D03*
X007271Y026791D03*
X008861Y025741D03*
X008291Y021661D03*
X007751Y021271D03*
X007241Y021691D03*
X008891Y021301D03*
X004961Y020041D03*
X004571Y019171D03*
D12*
X014214Y026560D03*
X015214Y026560D03*
D13*
X017929Y028072D03*
X019681Y028072D03*
D14*
X020381Y024591D02*
X020981Y024591D01*
X020981Y023591D02*
X020381Y023591D01*
X020381Y022591D02*
X020981Y022591D01*
X005001Y022591D02*
X004401Y022591D01*
X004401Y023591D02*
X005001Y023591D01*
X005001Y024591D02*
X004401Y024591D01*
D15*
X006431Y024061D03*
X007241Y021691D03*
X007751Y021271D03*
X008291Y021661D03*
X008891Y021301D03*
X009791Y020161D03*
X009781Y019681D03*
X010141Y019411D03*
X009761Y019161D03*
X010301Y020161D03*
X010811Y020191D03*
X010691Y020671D03*
X011171Y020671D03*
X011351Y021091D03*
X011854Y019344D03*
X012169Y018990D03*
X012484Y019344D03*
X012819Y018990D03*
X012821Y018391D03*
X013301Y018391D03*
X012907Y017653D03*
X012957Y017031D03*
X012642Y016706D03*
X012327Y017061D03*
X012012Y016706D03*
X011677Y017061D03*
X011861Y018031D03*
X012311Y018061D03*
X013401Y019427D03*
X013961Y019861D03*
X014728Y019305D03*
X014724Y018765D03*
X014411Y018391D03*
X013941Y017120D03*
X014374Y016903D03*
X016401Y015309D03*
X016323Y013911D03*
X017071Y013261D03*
X015319Y013163D03*
X014669Y012572D03*
X015142Y012198D03*
X014351Y013591D03*
X013897Y013230D03*
X013685Y011903D03*
X013232Y011746D03*
X013721Y010291D03*
X013783Y009777D03*
X013252Y009521D03*
X013705Y009128D03*
X013429Y008694D03*
X012917Y008694D03*
X012327Y009049D03*
X011771Y008701D03*
X010841Y009601D03*
X010693Y010269D03*
X011598Y010230D03*
X011579Y010702D03*
X011951Y011131D03*
X011539Y011431D03*
X011421Y011883D03*
X011086Y011549D03*
X010752Y011883D03*
X008783Y014009D03*
X008783Y014462D03*
X008783Y014915D03*
X008960Y015801D03*
X009590Y015348D03*
X009905Y015702D03*
X010220Y015348D03*
X010535Y015702D03*
X007901Y018991D03*
X006401Y021151D03*
X005081Y021211D03*
X004961Y020041D03*
X004571Y019171D03*
X008861Y025741D03*
X008861Y026791D03*
X007961Y026791D03*
X007271Y026791D03*
X009791Y026791D03*
X011001Y027661D03*
X011451Y027661D03*
X011901Y027671D03*
X012361Y027671D03*
X013391Y025441D03*
X014966Y023026D03*
X015614Y023065D03*
X015941Y022111D03*
X015581Y020791D03*
X015716Y020216D03*
X015146Y020135D03*
X014531Y021691D03*
X013061Y022651D03*
X016992Y018399D03*
X016992Y017868D03*
X016601Y017581D03*
X017181Y017191D03*
X017799Y019994D03*
X019331Y022261D03*
X019121Y023881D03*
X019841Y025111D03*
X019206Y025269D03*
X018764Y025738D03*
X018449Y026072D03*
X018134Y025738D03*
X017831Y022801D03*
X021011Y021241D03*
X020921Y019771D03*
X016697Y010958D03*
X016106Y010033D03*
X014709Y007848D03*
X014413Y008202D03*
X014081Y006991D03*
X013311Y007041D03*
X011201Y005941D03*
X010791Y006352D03*
X007622Y006431D03*
X007012Y007041D03*
X008134Y010348D03*
X008134Y011647D03*
X008586Y011647D03*
X008134Y012100D03*
X015811Y007218D03*
X018744Y006214D03*
D16*
X015358Y006200D01*
X015057Y006200D01*
X014709Y006549D01*
X014709Y007100D01*
X014571Y007238D01*
X014571Y007376D01*
X014315Y007631D01*
X014197Y007631D01*
X013842Y007986D01*
X013842Y008104D01*
X013705Y008242D01*
X013370Y008242D01*
X012917Y008694D01*
X012464Y008813D02*
X012327Y009049D01*
X011815Y009561D01*
X011598Y010230D02*
X011460Y010230D01*
X011008Y010683D01*
X008468Y010683D01*
X008134Y010348D01*
X008134Y010289D01*
X008134Y011647D02*
X008449Y011962D01*
X008449Y013222D01*
X009098Y013872D01*
X009098Y014324D01*
X008960Y014462D01*
X008783Y014462D01*
X008783Y014009D02*
X008390Y014009D01*
X008232Y013852D01*
X008232Y012198D01*
X008134Y012100D01*
X007897Y012710D02*
X007394Y012710D01*
X007212Y012710D01*
X007897Y012710D02*
X008055Y012868D01*
X008055Y017371D01*
X008385Y017701D01*
X010919Y017701D01*
X011677Y018458D01*
X012386Y018458D01*
X012819Y018891D01*
X012819Y018990D01*
X012819Y018970D01*
X012484Y018832D02*
X012484Y019344D01*
X012484Y018832D02*
X012307Y018655D01*
X011638Y018655D01*
X010863Y017881D01*
X008291Y017881D01*
X007858Y017448D01*
X007858Y014876D01*
X007701Y014718D01*
X007220Y014718D01*
X007201Y014700D01*
X008783Y014915D02*
X009275Y014423D01*
X009275Y013813D01*
X008626Y013163D01*
X008626Y011687D01*
X008586Y011647D01*
X010035Y009982D02*
X010457Y009561D01*
X010870Y010899D02*
X011382Y010899D01*
X011579Y010702D01*
X011500Y010702D01*
X011067Y011529D02*
X011086Y011549D01*
X011067Y011529D02*
X010516Y011529D01*
X010417Y011628D01*
X010417Y012179D01*
X010575Y012336D01*
X010929Y012336D01*
X011638Y013045D01*
X011638Y014502D01*
X010791Y015348D01*
X010220Y015348D01*
X010516Y015171D02*
X010378Y015033D01*
X010063Y015033D01*
X009905Y015191D01*
X009905Y015702D01*
X009590Y015919D02*
X009669Y016017D01*
X010909Y016017D01*
X011126Y015801D01*
X011126Y015486D01*
X011992Y014620D01*
X011992Y012907D01*
X011579Y012494D01*
X011618Y012513D01*
X011421Y012317D01*
X011421Y011883D01*
X011086Y011943D02*
X011086Y012238D01*
X011815Y012966D01*
X011815Y014561D01*
X010929Y015446D01*
X010929Y015624D01*
X010850Y015702D01*
X010535Y015702D01*
X010516Y015171D02*
X010712Y015171D01*
X011187Y014696D01*
X011460Y014423D01*
X011460Y013104D01*
X011382Y013025D01*
X011382Y013045D01*
X010850Y012513D01*
X010516Y012513D01*
X010240Y012238D01*
X010240Y011529D01*
X010870Y010899D01*
X010752Y011883D02*
X011027Y011883D01*
X011086Y011943D01*
X012307Y012002D02*
X012307Y011313D01*
X012858Y010761D01*
X013882Y010761D01*
X014079Y010565D01*
X014079Y010072D01*
X013783Y009777D01*
X014020Y009462D02*
X013311Y009462D01*
X013252Y009521D01*
X013212Y009482D01*
X013646Y009069D02*
X013705Y009128D01*
X013744Y009088D01*
X014256Y009088D01*
X014413Y009246D01*
X014433Y009246D01*
X014433Y010683D01*
X014000Y011116D01*
X012976Y011116D01*
X012661Y011431D01*
X012661Y011864D01*
X012957Y012159D01*
X012957Y014836D01*
X012071Y015722D01*
X012071Y016313D01*
X012327Y016569D01*
X012327Y017061D01*
X012327Y017336D01*
X012012Y017297D02*
X012012Y016706D01*
X011894Y016588D01*
X011894Y015663D01*
X012779Y014777D01*
X012779Y012238D01*
X012484Y011943D01*
X012484Y011372D01*
X012917Y010939D01*
X013941Y010939D01*
X014256Y010624D01*
X014256Y009698D01*
X014020Y009462D01*
X014354Y009167D02*
X014433Y009246D01*
X014610Y009049D02*
X014374Y008813D01*
X013547Y008813D01*
X013429Y008694D01*
X014059Y008380D02*
X014059Y008065D01*
X014275Y007848D01*
X014709Y007848D01*
X014413Y008202D02*
X014413Y008320D01*
X014964Y008872D01*
X014964Y011175D01*
X015023Y011234D01*
X016421Y011234D01*
X017268Y012080D01*
X017814Y012080D01*
X018198Y011697D01*
X018198Y012697D02*
X017648Y012697D01*
X016362Y011411D01*
X014945Y011411D01*
X014787Y011254D01*
X014787Y008950D01*
X014394Y008557D01*
X014236Y008557D01*
X014059Y008380D01*
X014610Y009049D02*
X014610Y010761D01*
X014059Y011293D01*
X013035Y011293D01*
X012838Y011490D01*
X012838Y011805D01*
X013134Y012100D01*
X013134Y014895D01*
X012248Y015781D01*
X012248Y016254D01*
X012386Y016391D01*
X012504Y016391D01*
X012642Y016529D01*
X012642Y016706D01*
X012602Y016194D02*
X013547Y017120D01*
X013941Y017120D01*
X014354Y016805D02*
X013488Y016805D01*
X012779Y016116D01*
X012779Y015722D01*
X013488Y015013D01*
X013488Y013006D01*
X013665Y012828D01*
X014394Y012828D01*
X014453Y012887D01*
X015122Y012887D01*
X015142Y012198D01*
X015023Y011765D02*
X016244Y011765D01*
X018175Y013697D01*
X018198Y013697D01*
X018646Y013478D02*
X018409Y013242D01*
X017957Y013242D01*
X016303Y011588D01*
X014945Y011588D01*
X014236Y012297D01*
X014177Y012297D01*
X014000Y012120D01*
X014000Y011706D01*
X013862Y011569D01*
X013409Y011569D01*
X013232Y011746D01*
X013685Y011903D02*
X013685Y012238D01*
X013921Y012474D01*
X014315Y012474D01*
X015023Y011765D01*
X014669Y012572D02*
X014590Y012651D01*
X013606Y012651D01*
X013311Y012946D01*
X013311Y014954D01*
X012602Y015663D01*
X012602Y016194D01*
X013264Y016285D02*
X013264Y015525D01*
X013697Y015092D01*
X013697Y013431D01*
X013897Y013230D01*
X012602Y012297D02*
X012307Y012002D01*
X012602Y012297D02*
X012602Y014718D01*
X011716Y015604D01*
X011716Y016608D01*
X011677Y016647D01*
X011677Y017061D01*
X011697Y017041D01*
X010807Y018061D02*
X007961Y018061D01*
X007661Y017761D01*
X007661Y017160D01*
X007201Y016700D01*
X008021Y018271D02*
X007592Y018700D01*
X007201Y018700D01*
X008021Y018271D02*
X010781Y018271D01*
X011854Y019344D01*
X011677Y018931D02*
X010807Y018061D01*
X011677Y018931D02*
X012110Y018931D01*
X012169Y018990D01*
X013311Y019088D02*
X013331Y019069D01*
X013311Y019088D02*
X013401Y019427D01*
X014905Y017966D02*
X015031Y017841D01*
X015831Y017041D01*
X017031Y017041D01*
X017181Y017191D01*
X017720Y016864D02*
X018198Y017341D01*
X018198Y017697D01*
X017720Y016864D02*
X015771Y016864D01*
X014846Y017789D01*
X015159Y017004D02*
X014712Y016557D01*
X014228Y016557D01*
X014193Y016592D01*
X013571Y016592D01*
X013264Y016285D01*
X014354Y016805D02*
X014374Y016903D01*
X015159Y017004D02*
X015634Y016529D01*
X017386Y016529D01*
X017681Y016234D01*
X017681Y015801D01*
X017799Y015683D01*
X018181Y015683D01*
X018184Y015683D01*
X018198Y014697D02*
X018198Y014359D01*
X018646Y013911D01*
X018646Y013478D01*
X016323Y013911D02*
X016047Y013911D01*
X015319Y013163D01*
X016106Y010033D02*
X016106Y009935D01*
X013311Y007041D02*
X013311Y006450D01*
X013055Y006194D01*
X011711Y006194D01*
X011553Y006352D01*
X010791Y006352D01*
X007622Y006431D02*
X007012Y007041D01*
X009590Y015348D02*
X009590Y015919D01*
X014985Y022317D02*
X014531Y022771D01*
X014531Y023251D01*
X014741Y023461D01*
X015671Y023461D01*
X015890Y023242D01*
X017110Y023242D01*
X018271Y024403D01*
X018271Y025324D01*
X018134Y025462D01*
X018134Y025738D01*
X018449Y026072D02*
X018449Y024344D01*
X017169Y023065D01*
X015614Y023065D01*
X015949Y022750D02*
X017090Y022750D01*
X018626Y024285D01*
X018626Y025403D01*
X018764Y025541D01*
X018764Y025738D01*
X019216Y025368D02*
X019206Y025269D01*
X017787Y027045D02*
X017787Y027108D01*
X017787Y027045D02*
X017764Y027041D01*
X015279Y022317D02*
X014985Y022317D01*
X015279Y022317D02*
X015476Y022120D01*
X015941Y022111D01*
X015911Y020281D02*
X015846Y020216D01*
X015716Y020216D01*
X015702Y016697D02*
X018198Y016697D01*
D17*
X018198Y015697D02*
X018181Y015691D01*
X018181Y015683D01*
X016601Y017581D02*
X016601Y018451D01*
X016991Y018841D01*
X017651Y018841D01*
X018011Y019201D01*
X018461Y019201D01*
X018701Y018961D01*
X018701Y018391D01*
X018881Y018211D01*
X020561Y018211D01*
X020921Y018571D01*
X019413Y018699D02*
X019199Y018699D01*
X019413Y018699D02*
X018791Y019321D01*
X015251Y019321D01*
X014621Y019951D01*
X014621Y020281D01*
X014261Y020641D01*
X011981Y020641D01*
X011441Y020101D01*
X011441Y019981D01*
X010961Y019501D01*
X010691Y019501D01*
X010241Y019051D01*
X010061Y019051D01*
X009951Y019161D01*
X009761Y019161D01*
X010141Y019411D02*
X010391Y019411D01*
X010631Y019651D01*
X010931Y019651D01*
X011321Y020041D01*
X011321Y020161D01*
X011921Y020761D01*
X014321Y020761D01*
X014741Y020341D01*
X014741Y020011D01*
X015011Y019741D01*
X015371Y019741D01*
X015911Y020281D01*
X017231Y020281D01*
X018191Y021241D01*
X021011Y021241D01*
X019391Y022231D02*
X019361Y022231D01*
X019331Y022261D01*
X017831Y022801D02*
X016721Y021661D01*
X015641Y021661D01*
X015401Y021901D01*
X014741Y021901D01*
X014441Y022201D01*
X012461Y022201D01*
X011351Y021091D01*
X011171Y020731D02*
X010931Y020971D01*
X010301Y020971D01*
X009791Y021481D01*
X009791Y026791D01*
X009671Y025981D02*
X008861Y026791D01*
X008351Y026641D02*
X008741Y026251D01*
X009041Y026251D01*
X009551Y025741D01*
X009551Y021361D01*
X010721Y020191D01*
X010811Y020191D01*
X010691Y020671D02*
X010661Y020701D01*
X010391Y020701D01*
X009671Y021421D01*
X009671Y025981D01*
X008861Y025741D02*
X009431Y025171D01*
X009431Y021301D01*
X010301Y020431D01*
X010301Y020161D01*
X009941Y020311D02*
X009941Y020611D01*
X009311Y021241D01*
X009311Y024661D01*
X007961Y026011D01*
X007961Y026791D01*
X008351Y026641D02*
X008351Y027361D01*
X008021Y027691D01*
X007361Y027691D01*
X007031Y027361D01*
X007271Y026791D01*
X011171Y020731D02*
X011171Y020671D01*
X011201Y020221D02*
X011861Y020881D01*
X014400Y020881D01*
X015146Y020135D01*
X014471Y020161D02*
X014471Y019562D01*
X014728Y019305D01*
X014321Y019169D02*
X014724Y018765D01*
X014321Y019169D02*
X014321Y020131D01*
X014051Y020401D01*
X012101Y020401D01*
X011681Y019981D01*
X011681Y019861D01*
X011051Y019231D01*
X010781Y019231D01*
X010301Y018751D01*
X008771Y018751D01*
X007931Y019591D01*
X005771Y019591D01*
X005351Y019171D01*
X004571Y019171D01*
X004541Y019201D01*
X005081Y019711D02*
X004961Y019831D01*
X004961Y020041D01*
X005081Y019711D02*
X007991Y019711D01*
X008831Y018871D01*
X010241Y018871D01*
X010721Y019351D01*
X010991Y019351D01*
X011561Y019921D01*
X011561Y020041D01*
X012041Y020521D01*
X014111Y020521D01*
X014471Y020161D01*
X015431Y020791D02*
X014531Y021691D01*
X015341Y021661D01*
X015431Y020791D02*
X015581Y020791D01*
X015242Y022750D02*
X014966Y023026D01*
X015242Y022750D02*
X015949Y022750D01*
X018764Y025541D02*
X019043Y025541D01*
X019216Y025368D01*
X014781Y018091D02*
X015031Y017841D01*
X014846Y017789D02*
X014665Y017971D01*
X012821Y017971D01*
X012327Y017476D01*
X012327Y017336D01*
X012012Y017341D02*
X012012Y017297D01*
X012012Y017341D02*
X012761Y018091D01*
X014781Y018091D01*
X014819Y017581D02*
X015702Y016697D01*
X015159Y017004D02*
X014728Y017435D01*
X013785Y017435D01*
X013631Y017281D01*
X013176Y017281D01*
X012957Y017031D01*
X013061Y017341D02*
X012821Y017341D01*
X012642Y017161D01*
X012642Y016706D01*
X013061Y017341D02*
X013121Y017401D01*
X013571Y017401D01*
X013751Y017581D01*
X014819Y017581D01*
X011201Y020101D02*
X011201Y020221D01*
X011201Y020101D02*
X010871Y019771D01*
X010061Y019771D01*
X009971Y019681D01*
X009781Y019681D01*
X009791Y020161D02*
X009941Y020311D01*
X007901Y018991D02*
X007871Y018931D01*
X007481Y020431D02*
X007481Y020461D01*
X011187Y014696D02*
X011181Y014691D01*
X007201Y011700D02*
X007181Y011691D01*
D18*
X009295Y016431D03*
X010815Y014317D03*
X015516Y015978D03*
X016244Y015978D03*
X017445Y014915D03*
X017445Y014187D03*
X019646Y019541D03*
X019657Y020620D03*
D19*
X021657Y029167D03*
X021657Y006214D03*
X003705Y006214D03*
X003705Y029167D03*
D20*
X017740Y019974D02*
X017799Y019994D01*
D21*
X019564Y020625D02*
X019564Y020627D01*
X019564Y020625D02*
X019657Y020620D01*
X015146Y020139D02*
X015130Y020155D01*
X015146Y020139D02*
X015146Y020135D01*
X014728Y019344D02*
X014728Y019305D01*
X007394Y012710D02*
X007386Y012702D01*
X007216Y012702D01*
X007214Y012700D01*
X007201Y012700D01*
D22*
X017764Y027041D03*
D23*
X003186Y029686D02*
X003186Y005696D01*
X010916Y005696D01*
X010883Y005728D01*
X010826Y005866D01*
X010826Y005977D01*
X010717Y005977D01*
X010579Y006034D01*
X010473Y006140D01*
X010416Y006277D01*
X010416Y006427D01*
X010473Y006564D01*
X010579Y006670D01*
X010717Y006727D01*
X010866Y006727D01*
X011004Y006670D01*
X011091Y006582D01*
X011458Y006582D01*
X011649Y006582D01*
X011806Y006424D01*
X012960Y006424D01*
X013081Y006546D01*
X013081Y006741D01*
X012993Y006829D01*
X012936Y006966D01*
X012936Y007116D01*
X012993Y007253D01*
X013098Y007359D01*
X013236Y007416D01*
X013385Y007416D01*
X013523Y007359D01*
X013629Y007253D01*
X013686Y007116D01*
X013686Y006966D01*
X013629Y006829D01*
X013541Y006741D01*
X013541Y006546D01*
X013541Y006355D01*
X013285Y006099D01*
X013150Y005964D01*
X011806Y005964D01*
X011616Y005964D01*
X011576Y006004D01*
X011576Y005866D01*
X011519Y005728D01*
X011486Y005696D01*
X022176Y005696D01*
X022176Y029686D01*
X003186Y029686D01*
X003186Y029606D02*
X022176Y029606D01*
X022176Y029448D02*
X003186Y029448D01*
X003186Y029289D02*
X022176Y029289D01*
X022176Y029131D02*
X003186Y029131D01*
X003186Y028972D02*
X022176Y028972D01*
X022176Y028814D02*
X003186Y028814D01*
X003186Y028655D02*
X022176Y028655D01*
X022176Y028496D02*
X019956Y028496D01*
X019962Y028494D02*
X019780Y028569D01*
X019582Y028569D01*
X019399Y028494D01*
X019260Y028354D01*
X019184Y028171D01*
X019184Y027974D01*
X019260Y027791D01*
X019399Y027651D01*
X019582Y027576D01*
X019780Y027576D01*
X019962Y027651D01*
X020102Y027791D01*
X020178Y027974D01*
X020178Y028171D01*
X020102Y028354D01*
X019962Y028494D01*
X020109Y028338D02*
X022176Y028338D01*
X022176Y028179D02*
X020174Y028179D01*
X020178Y028021D02*
X022176Y028021D01*
X022176Y027862D02*
X021410Y027862D01*
X021394Y027869D02*
X021228Y027869D01*
X021074Y027805D01*
X020956Y027687D01*
X020893Y027534D01*
X020893Y027400D01*
X020281Y026788D01*
X020241Y026692D01*
X020241Y026589D01*
X020241Y026448D01*
X019621Y025828D01*
X019581Y025732D01*
X019581Y025629D01*
X019581Y025538D01*
X019464Y025655D01*
X019296Y025725D01*
X019156Y025725D01*
X019139Y025742D01*
X019139Y025812D01*
X019081Y025950D01*
X018976Y026056D01*
X018838Y026113D01*
X018824Y026113D01*
X018824Y026147D01*
X018767Y026285D01*
X018661Y026390D01*
X018523Y026447D01*
X018374Y026447D01*
X018236Y026390D01*
X018131Y026285D01*
X018074Y026147D01*
X018074Y026113D01*
X018059Y026113D01*
X017921Y026056D01*
X017816Y025950D01*
X017759Y025812D01*
X017759Y025663D01*
X017796Y025574D01*
X017742Y025574D01*
X017574Y025504D01*
X017446Y025376D01*
X017377Y025209D01*
X017377Y025027D01*
X017446Y024860D01*
X017574Y024732D01*
X017742Y024662D01*
X017923Y024662D01*
X018041Y024712D01*
X018041Y024498D01*
X017015Y023472D01*
X015985Y023472D01*
X015766Y023691D01*
X015576Y023691D01*
X014646Y023691D01*
X014511Y023556D01*
X014301Y023346D01*
X014301Y023155D01*
X014301Y022675D01*
X014436Y022541D01*
X014866Y022111D01*
X014828Y022111D01*
X014528Y022411D01*
X014354Y022411D01*
X012374Y022411D01*
X012251Y022288D01*
X011428Y021464D01*
X011426Y021466D01*
X011276Y021466D01*
X011139Y021408D01*
X011033Y021303D01*
X010982Y021181D01*
X010388Y021181D01*
X010001Y021568D01*
X010001Y026384D01*
X010049Y026404D01*
X010177Y026532D01*
X010246Y026700D01*
X010246Y026881D01*
X010177Y027049D01*
X010049Y027177D01*
X009882Y027246D01*
X009700Y027246D01*
X009533Y027177D01*
X009405Y027049D01*
X009335Y026881D01*
X009335Y026700D01*
X009397Y026552D01*
X009297Y026652D01*
X009316Y026700D01*
X009316Y026881D01*
X009247Y027049D01*
X009119Y027177D01*
X008952Y027246D01*
X008770Y027246D01*
X008603Y027177D01*
X008561Y027135D01*
X008561Y027448D01*
X008438Y027571D01*
X008108Y027901D01*
X007934Y027901D01*
X007448Y027901D01*
X007274Y027901D01*
X006912Y027538D01*
X006869Y027520D01*
X006852Y027479D01*
X006821Y027448D01*
X006821Y027402D01*
X006804Y027359D01*
X006821Y027318D01*
X006821Y027274D01*
X006853Y027241D01*
X006920Y027084D01*
X006885Y027049D01*
X006815Y026881D01*
X006815Y026700D01*
X006885Y026532D01*
X007013Y026404D01*
X007180Y026335D01*
X007362Y026335D01*
X007529Y026404D01*
X007616Y026491D01*
X007703Y026404D01*
X007751Y026384D01*
X007751Y025924D01*
X007874Y025801D01*
X009101Y024574D01*
X009101Y021707D01*
X008982Y021756D01*
X008800Y021756D01*
X008746Y021734D01*
X008746Y021751D01*
X008677Y021919D01*
X008549Y022047D01*
X008382Y022116D01*
X008200Y022116D01*
X008033Y022047D01*
X007905Y021919D01*
X007835Y021751D01*
X007835Y021726D01*
X007696Y021726D01*
X007696Y021781D01*
X007627Y021949D01*
X007499Y022077D01*
X007332Y022146D01*
X007150Y022146D01*
X006983Y022077D01*
X006855Y021949D01*
X006785Y021781D01*
X006785Y021600D01*
X006855Y021432D01*
X006983Y021304D01*
X007150Y021235D01*
X007295Y021235D01*
X007295Y021180D01*
X007365Y021012D01*
X007493Y020884D01*
X007660Y020815D01*
X007842Y020815D01*
X008009Y020884D01*
X008137Y021012D01*
X008206Y021180D01*
X008206Y021205D01*
X008382Y021205D01*
X008435Y021227D01*
X008435Y021210D01*
X008505Y021042D01*
X008633Y020914D01*
X008800Y020845D01*
X008982Y020845D01*
X009149Y020914D01*
X009245Y021010D01*
X009719Y020536D01*
X009716Y020536D01*
X009579Y020478D01*
X009473Y020373D01*
X009416Y020235D01*
X009416Y020086D01*
X009473Y019948D01*
X009496Y019926D01*
X009463Y019893D01*
X009406Y019755D01*
X009406Y019606D01*
X009463Y019468D01*
X009501Y019431D01*
X009443Y019373D01*
X009386Y019235D01*
X009386Y019086D01*
X009388Y019081D01*
X008918Y019081D01*
X008201Y019798D01*
X008078Y019921D01*
X005404Y019921D01*
X005416Y019950D01*
X005416Y020131D01*
X005347Y020299D01*
X005219Y020427D01*
X005052Y020496D01*
X004870Y020496D01*
X004703Y020427D01*
X004575Y020299D01*
X004505Y020131D01*
X004505Y019950D01*
X004575Y019782D01*
X004703Y019654D01*
X004870Y019585D01*
X004910Y019585D01*
X004994Y019501D01*
X005168Y019501D01*
X005384Y019501D01*
X005264Y019381D01*
X004977Y019381D01*
X004957Y019429D01*
X004829Y019557D01*
X004662Y019626D01*
X004480Y019626D01*
X004313Y019557D01*
X004185Y019429D01*
X004115Y019261D01*
X004115Y019080D01*
X004185Y018912D01*
X004313Y018784D01*
X004480Y018715D01*
X004662Y018715D01*
X004787Y018767D01*
X004782Y018733D01*
X004782Y018728D01*
X005170Y018728D01*
X005170Y018671D01*
X005227Y018671D01*
X005227Y018283D01*
X005231Y018283D01*
X005296Y018294D01*
X005358Y018314D01*
X005417Y018344D01*
X005470Y018382D01*
X005516Y018428D01*
X005555Y018481D01*
X005584Y018540D01*
X005605Y018602D01*
X005615Y018667D01*
X005615Y018671D01*
X005227Y018671D01*
X005227Y018728D01*
X005615Y018728D01*
X005615Y018733D01*
X005605Y018797D01*
X005584Y018860D01*
X005555Y018918D01*
X005516Y018971D01*
X005482Y019005D01*
X005561Y019084D01*
X005858Y019381D01*
X007844Y019381D01*
X007859Y019366D01*
X007826Y019366D01*
X007689Y019308D01*
X007583Y019203D01*
X007538Y019094D01*
X007494Y019138D01*
X007304Y019216D01*
X007099Y019216D01*
X006909Y019138D01*
X006763Y018992D01*
X006700Y018839D01*
X006636Y018992D01*
X006491Y019138D01*
X006301Y019216D01*
X006096Y019216D01*
X005906Y019138D01*
X005761Y018992D01*
X005682Y018803D01*
X005682Y018597D01*
X005761Y018407D01*
X005906Y018262D01*
X006056Y018200D01*
X005906Y018138D01*
X005761Y017992D01*
X005682Y017803D01*
X005682Y017597D01*
X005761Y017407D01*
X005906Y017262D01*
X006056Y017200D01*
X005906Y017138D01*
X005761Y016992D01*
X005682Y016803D01*
X005682Y016597D01*
X005761Y016407D01*
X005906Y016262D01*
X006056Y016200D01*
X005906Y016138D01*
X005761Y015992D01*
X005682Y015803D01*
X005682Y015597D01*
X005761Y015407D01*
X005906Y015262D01*
X006056Y015200D01*
X005906Y015138D01*
X005761Y014992D01*
X005682Y014803D01*
X005682Y014597D01*
X005761Y014407D01*
X005906Y014262D01*
X006056Y014200D01*
X005906Y014138D01*
X005761Y013992D01*
X005682Y013803D01*
X005682Y013597D01*
X005761Y013407D01*
X005906Y013262D01*
X006056Y013200D01*
X005906Y013138D01*
X005761Y012992D01*
X005682Y012803D01*
X005682Y012597D01*
X005761Y012407D01*
X005906Y012262D01*
X006056Y012200D01*
X005906Y012138D01*
X005761Y011992D01*
X005682Y011803D01*
X005682Y011597D01*
X005761Y011407D01*
X005906Y011262D01*
X006056Y011200D01*
X005906Y011138D01*
X005761Y010992D01*
X005682Y010803D01*
X005682Y010597D01*
X005761Y010407D01*
X005906Y010262D01*
X006056Y010200D01*
X005906Y010138D01*
X005761Y009992D01*
X005682Y009803D01*
X005682Y009597D01*
X005761Y009407D01*
X005906Y009262D01*
X006056Y009200D01*
X005906Y009138D01*
X005761Y008992D01*
X005682Y008803D01*
X005682Y008597D01*
X005761Y008407D01*
X005906Y008262D01*
X006056Y008200D01*
X005906Y008138D01*
X005761Y007992D01*
X005682Y007803D01*
X005682Y007597D01*
X005761Y007407D01*
X005906Y007262D01*
X006096Y007183D01*
X006301Y007183D01*
X006491Y007262D01*
X006636Y007407D01*
X006700Y007561D01*
X006763Y007407D01*
X006808Y007363D01*
X006799Y007359D01*
X006694Y007253D01*
X006637Y007116D01*
X006637Y006966D01*
X006694Y006829D01*
X006799Y006723D01*
X006937Y006666D01*
X007061Y006666D01*
X007247Y006480D01*
X007247Y006356D01*
X007304Y006218D01*
X007409Y006113D01*
X007547Y006056D01*
X007696Y006056D01*
X007834Y006113D01*
X007940Y006218D01*
X007997Y006356D01*
X007997Y006505D01*
X007940Y006643D01*
X007834Y006749D01*
X007696Y006806D01*
X007572Y006806D01*
X007387Y006991D01*
X007387Y007116D01*
X007351Y007203D01*
X007494Y007262D01*
X007639Y007407D01*
X007718Y007597D01*
X007718Y007803D01*
X007639Y007992D01*
X007494Y008138D01*
X007344Y008200D01*
X007494Y008262D01*
X007639Y008407D01*
X007718Y008597D01*
X007718Y008803D01*
X007639Y008992D01*
X007494Y009138D01*
X007344Y009200D01*
X007494Y009262D01*
X007639Y009407D01*
X007718Y009597D01*
X007718Y009803D01*
X007639Y009992D01*
X007494Y010138D01*
X007344Y010200D01*
X007494Y010262D01*
X007639Y010407D01*
X007718Y010597D01*
X007718Y010803D01*
X007639Y010992D01*
X007494Y011138D01*
X007344Y011200D01*
X007494Y011262D01*
X007639Y011407D01*
X007718Y011597D01*
X007718Y011803D01*
X007639Y011992D01*
X007494Y012138D01*
X007344Y012200D01*
X007494Y012262D01*
X007639Y012407D01*
X007669Y012480D01*
X007993Y012480D01*
X008002Y012490D01*
X008002Y012451D01*
X007921Y012418D01*
X007816Y012312D01*
X007759Y012175D01*
X007759Y012025D01*
X007816Y011888D01*
X007830Y011874D01*
X007816Y011860D01*
X007759Y011722D01*
X007759Y011573D01*
X007816Y011435D01*
X007921Y011329D01*
X008059Y011272D01*
X008208Y011272D01*
X008346Y011329D01*
X008360Y011343D01*
X008374Y011329D01*
X008512Y011272D01*
X008661Y011272D01*
X008799Y011329D01*
X008904Y011435D01*
X008961Y011573D01*
X008961Y011722D01*
X008904Y011860D01*
X008856Y011908D01*
X008856Y013068D01*
X009505Y013717D01*
X009505Y013908D01*
X009505Y014518D01*
X009371Y014653D01*
X009158Y014865D01*
X009158Y014990D01*
X009101Y015127D01*
X008996Y015233D01*
X008858Y015290D01*
X008709Y015290D01*
X008571Y015233D01*
X008465Y015127D01*
X008408Y014990D01*
X008408Y014840D01*
X008465Y014703D01*
X008285Y014703D01*
X008285Y014545D02*
X008412Y014545D01*
X008408Y014537D02*
X008408Y014388D01*
X008465Y014250D01*
X008476Y014239D01*
X008294Y014239D01*
X008285Y014230D01*
X008285Y017275D01*
X008480Y017471D01*
X011015Y017471D01*
X011149Y017605D01*
X011490Y017946D01*
X011543Y017818D01*
X011649Y017713D01*
X011786Y017656D01*
X011936Y017656D01*
X012073Y017713D01*
X012102Y017741D01*
X012111Y017737D01*
X011802Y017428D01*
X011802Y017415D01*
X011752Y017436D01*
X011602Y017436D01*
X011465Y017379D01*
X011359Y017273D01*
X011302Y017135D01*
X011302Y016986D01*
X011359Y016848D01*
X011447Y016760D01*
X011447Y016552D01*
X011486Y016513D01*
X011486Y015509D01*
X011621Y015374D01*
X012372Y014623D01*
X012372Y012392D01*
X012212Y012232D01*
X012212Y012232D01*
X012077Y012097D01*
X012077Y011484D01*
X012026Y011506D01*
X011876Y011506D01*
X011739Y011448D01*
X011633Y011343D01*
X011576Y011205D01*
X011576Y011077D01*
X011529Y011077D01*
X011477Y011129D01*
X011286Y011129D01*
X010965Y011129D01*
X010795Y011299D01*
X010806Y011299D01*
X010874Y011231D01*
X011012Y011174D01*
X011161Y011174D01*
X011299Y011231D01*
X011404Y011336D01*
X011461Y011474D01*
X011461Y011508D01*
X011496Y011508D01*
X011634Y011566D01*
X011739Y011671D01*
X011796Y011809D01*
X011796Y011958D01*
X011739Y012096D01*
X011651Y012184D01*
X011651Y012221D01*
X011754Y012324D01*
X011806Y012350D01*
X011819Y012389D01*
X011848Y012418D01*
X011848Y012438D01*
X012222Y012812D01*
X012222Y013002D01*
X012222Y014715D01*
X012087Y014850D01*
X011356Y015581D01*
X011356Y015706D01*
X011356Y015896D01*
X011139Y016113D01*
X011005Y016247D01*
X009750Y016247D01*
X009739Y016256D01*
X009772Y016336D01*
X009772Y016526D01*
X009700Y016701D01*
X009565Y016835D01*
X009390Y016908D01*
X009200Y016908D01*
X009025Y016835D01*
X008891Y016701D01*
X008818Y016526D01*
X008818Y016336D01*
X008891Y016160D01*
X009025Y016026D01*
X009200Y015954D01*
X009355Y015954D01*
X009360Y015906D01*
X009360Y015648D01*
X009272Y015560D01*
X009215Y015423D01*
X009215Y015273D01*
X009272Y015136D01*
X009378Y015030D01*
X009516Y014973D01*
X009665Y014973D01*
X009759Y015012D01*
X009833Y014938D01*
X009968Y014803D01*
X010283Y014803D01*
X010473Y014803D01*
X010611Y014941D01*
X010617Y014941D01*
X010764Y014794D01*
X010720Y014794D01*
X010544Y014721D01*
X010410Y014587D01*
X010338Y014411D01*
X010338Y014222D01*
X010410Y014046D01*
X010544Y013912D01*
X010720Y013839D01*
X010910Y013839D01*
X011085Y013912D01*
X011219Y014046D01*
X011230Y014073D01*
X011230Y013219D01*
X010755Y012743D01*
X010611Y012743D01*
X010420Y012743D01*
X010010Y012333D01*
X010010Y012143D01*
X010010Y011624D01*
X010010Y011434D01*
X010531Y010913D01*
X008564Y010913D01*
X008373Y010913D01*
X008183Y010723D01*
X008059Y010723D01*
X007921Y010666D01*
X007816Y010560D01*
X007759Y010423D01*
X007759Y010273D01*
X007816Y010136D01*
X007921Y010030D01*
X008059Y009973D01*
X008208Y009973D01*
X008346Y010030D01*
X008452Y010136D01*
X008509Y010273D01*
X008509Y010398D01*
X008564Y010453D01*
X010912Y010453D01*
X011230Y010135D01*
X011233Y010132D01*
X011280Y010017D01*
X011386Y009912D01*
X011524Y009855D01*
X011673Y009855D01*
X011811Y009912D01*
X011916Y010017D01*
X011973Y010155D01*
X011973Y010304D01*
X011916Y010442D01*
X011882Y010476D01*
X011896Y010490D01*
X011954Y010628D01*
X011954Y010756D01*
X012026Y010756D01*
X012163Y010813D01*
X012269Y010918D01*
X012300Y010994D01*
X012628Y010666D01*
X012763Y010531D01*
X013432Y010531D01*
X013403Y010503D01*
X013346Y010365D01*
X013346Y010216D01*
X013403Y010078D01*
X013479Y010003D01*
X013465Y009990D01*
X013412Y009861D01*
X013326Y009896D01*
X013177Y009896D01*
X013039Y009839D01*
X012934Y009734D01*
X012877Y009596D01*
X012877Y009447D01*
X012934Y009309D01*
X013039Y009203D01*
X013177Y009146D01*
X013326Y009146D01*
X013330Y009148D01*
X013330Y009059D01*
X013217Y009012D01*
X013173Y008969D01*
X013130Y009012D01*
X012992Y009069D01*
X012843Y009069D01*
X012705Y009012D01*
X012599Y008907D01*
X012542Y008769D01*
X012542Y008620D01*
X012599Y008482D01*
X012705Y008377D01*
X012843Y008319D01*
X012967Y008319D01*
X013140Y008146D01*
X013275Y008012D01*
X013609Y008012D01*
X013612Y008009D01*
X013612Y007891D01*
X013967Y007536D01*
X014101Y007401D01*
X014220Y007401D01*
X014341Y007280D01*
X014341Y007261D01*
X014293Y007308D01*
X014156Y007366D01*
X014006Y007366D01*
X013869Y007308D01*
X013763Y007203D01*
X013706Y007065D01*
X013706Y006916D01*
X013763Y006778D01*
X013869Y006673D01*
X014006Y006616D01*
X014156Y006616D01*
X014293Y006673D01*
X014399Y006778D01*
X014456Y006916D01*
X014456Y007027D01*
X014479Y007005D01*
X014479Y006644D01*
X014479Y006454D01*
X014827Y006105D01*
X014962Y005970D01*
X015263Y005970D01*
X015264Y005970D01*
X015362Y005970D01*
X015453Y005970D01*
X015454Y005971D01*
X018445Y005983D01*
X018531Y005896D01*
X018669Y005839D01*
X018819Y005839D01*
X018956Y005896D01*
X019062Y006002D01*
X019119Y006140D01*
X019119Y006289D01*
X019062Y006427D01*
X018956Y006532D01*
X018819Y006589D01*
X018669Y006589D01*
X018531Y006532D01*
X018442Y006443D01*
X015356Y006430D01*
X015152Y006430D01*
X014938Y006644D01*
X014938Y007195D01*
X014804Y007330D01*
X014801Y007333D01*
X014801Y007471D01*
X014794Y007478D01*
X014921Y007530D01*
X015026Y007636D01*
X015083Y007773D01*
X015083Y007923D01*
X015026Y008060D01*
X014921Y008166D01*
X014788Y008221D01*
X014788Y008277D01*
X014761Y008343D01*
X015060Y008642D01*
X015194Y008776D01*
X015194Y011004D01*
X016326Y011004D01*
X016516Y011004D01*
X017363Y011850D01*
X017702Y011850D01*
X017681Y011799D01*
X017681Y011594D01*
X017760Y011404D01*
X017905Y011259D01*
X018055Y011197D01*
X017905Y011134D01*
X017760Y010989D01*
X017681Y010799D01*
X017681Y010594D01*
X017760Y010404D01*
X017905Y010259D01*
X018055Y010197D01*
X017905Y010134D01*
X017760Y009989D01*
X017681Y009799D01*
X017681Y009594D01*
X017760Y009404D01*
X017905Y009259D01*
X018055Y009197D01*
X017905Y009134D01*
X017760Y008989D01*
X017681Y008799D01*
X017681Y008594D01*
X017760Y008404D01*
X017905Y008259D01*
X018055Y008197D01*
X017905Y008134D01*
X017760Y007989D01*
X017681Y007799D01*
X017681Y007594D01*
X017760Y007404D01*
X017905Y007259D01*
X018095Y007180D01*
X018301Y007180D01*
X018490Y007259D01*
X018636Y007404D01*
X018699Y007556D01*
X018761Y007406D01*
X018906Y007261D01*
X019096Y007182D01*
X019301Y007182D01*
X019491Y007261D01*
X019636Y007406D01*
X019715Y007596D01*
X019715Y007802D01*
X019636Y007991D01*
X019491Y008137D01*
X019341Y008199D01*
X019491Y008261D01*
X019636Y008406D01*
X019715Y008596D01*
X019715Y008802D01*
X019636Y008991D01*
X019491Y009137D01*
X019341Y009199D01*
X019491Y009261D01*
X019636Y009406D01*
X019715Y009596D01*
X019715Y009802D01*
X019636Y009991D01*
X019491Y010137D01*
X019341Y010199D01*
X019491Y010261D01*
X019636Y010406D01*
X019715Y010596D01*
X019715Y010802D01*
X019636Y010991D01*
X019491Y011137D01*
X019341Y011199D01*
X019491Y011261D01*
X019636Y011406D01*
X019715Y011596D01*
X019715Y011802D01*
X019636Y011991D01*
X019491Y012137D01*
X019341Y012199D01*
X019491Y012261D01*
X019636Y012406D01*
X019715Y012596D01*
X019715Y012802D01*
X019636Y012991D01*
X019491Y013137D01*
X019341Y013199D01*
X019491Y013261D01*
X019636Y013406D01*
X019715Y013596D01*
X019715Y013802D01*
X019636Y013991D01*
X019491Y014137D01*
X019341Y014199D01*
X019491Y014261D01*
X019636Y014406D01*
X019715Y014596D01*
X019715Y014802D01*
X019636Y014991D01*
X019491Y015137D01*
X019341Y015199D01*
X019491Y015261D01*
X019636Y015406D01*
X019715Y015596D01*
X019715Y015802D01*
X019636Y015991D01*
X019491Y016137D01*
X019341Y016199D01*
X019491Y016261D01*
X019636Y016406D01*
X019715Y016596D01*
X019715Y016802D01*
X019636Y016991D01*
X019491Y017137D01*
X019341Y017199D01*
X019491Y017261D01*
X019636Y017406D01*
X019715Y017596D01*
X019715Y017802D01*
X019636Y017991D01*
X019627Y018001D01*
X019911Y018001D01*
X019881Y017970D01*
X019842Y017917D01*
X019813Y017859D01*
X019792Y017796D01*
X019782Y017732D01*
X019782Y017727D01*
X020170Y017727D01*
X020170Y017670D01*
X020227Y017670D01*
X020227Y017282D01*
X020231Y017282D01*
X020296Y017293D01*
X020359Y017313D01*
X020417Y017343D01*
X020470Y017381D01*
X020516Y017427D01*
X020555Y017480D01*
X020585Y017539D01*
X020605Y017601D01*
X020615Y017666D01*
X020615Y017670D01*
X020227Y017670D01*
X020227Y017727D01*
X020615Y017727D01*
X020615Y017732D01*
X020605Y017796D01*
X020585Y017859D01*
X020555Y017917D01*
X020516Y017970D01*
X020486Y018001D01*
X020648Y018001D01*
X020800Y018152D01*
X021234Y018152D01*
X021339Y018258D01*
X021339Y018883D01*
X021234Y018989D01*
X020608Y018989D01*
X020547Y018928D01*
X020516Y018970D01*
X020470Y019016D01*
X020417Y019055D01*
X020359Y019085D01*
X020296Y019105D01*
X020231Y019115D01*
X020227Y019115D01*
X020227Y018727D01*
X020170Y018727D01*
X020170Y018670D01*
X019782Y018670D01*
X019782Y018666D01*
X019792Y018601D01*
X019813Y018539D01*
X019842Y018480D01*
X019881Y018427D01*
X019888Y018421D01*
X019642Y018421D01*
X019715Y018596D01*
X019715Y018802D01*
X019636Y018991D01*
X019564Y019064D01*
X019740Y019064D01*
X019916Y019136D01*
X020050Y019271D01*
X020123Y019446D01*
X020123Y019636D01*
X020050Y019811D01*
X019916Y019945D01*
X019740Y020018D01*
X019551Y020018D01*
X019375Y019945D01*
X019241Y019811D01*
X019168Y019636D01*
X019168Y019446D01*
X019241Y019271D01*
X019296Y019215D01*
X019193Y019215D01*
X018878Y019531D01*
X018704Y019531D01*
X015338Y019531D01*
X015458Y019531D01*
X015768Y019841D01*
X015790Y019841D01*
X015928Y019898D01*
X016034Y020003D01*
X016062Y020071D01*
X017144Y020071D01*
X017318Y020071D01*
X018278Y021031D01*
X020605Y021031D01*
X020625Y020982D01*
X020753Y020854D01*
X020920Y020785D01*
X021102Y020785D01*
X021269Y020854D01*
X021397Y020982D01*
X021466Y021150D01*
X021466Y021331D01*
X021397Y021499D01*
X021269Y021627D01*
X021102Y021696D01*
X020920Y021696D01*
X020753Y021627D01*
X020625Y021499D01*
X020605Y021451D01*
X018104Y021451D01*
X017981Y021328D01*
X017144Y020491D01*
X016026Y020491D01*
X016006Y020511D01*
X015951Y020511D01*
X015928Y020534D01*
X015876Y020555D01*
X015899Y020578D01*
X015956Y020716D01*
X015956Y020865D01*
X015899Y021003D01*
X015793Y021108D01*
X015656Y021166D01*
X015506Y021166D01*
X015398Y021121D01*
X015057Y021461D01*
X015420Y021447D01*
X015491Y021513D01*
X015554Y021451D01*
X016636Y021451D01*
X016637Y021449D01*
X016722Y021451D01*
X016808Y021451D01*
X016809Y021452D01*
X016811Y021452D01*
X016870Y021513D01*
X016931Y021574D01*
X016931Y021575D01*
X017759Y022426D01*
X017906Y022426D01*
X018043Y022483D01*
X018149Y022588D01*
X018206Y022726D01*
X018206Y022875D01*
X018149Y023013D01*
X018043Y023118D01*
X017906Y023176D01*
X017841Y023176D01*
X018856Y024190D01*
X018856Y024380D01*
X018856Y024975D01*
X018947Y024883D01*
X019115Y024814D01*
X019296Y024814D01*
X019464Y024883D01*
X019510Y024930D01*
X019523Y024898D01*
X019629Y024793D01*
X019766Y024736D01*
X019916Y024736D01*
X019923Y024739D01*
X019901Y024686D01*
X019901Y024495D01*
X019974Y024319D01*
X020109Y024184D01*
X020285Y024111D01*
X021076Y024111D01*
X021253Y024184D01*
X021388Y024319D01*
X021461Y024495D01*
X021461Y024686D01*
X021388Y024862D01*
X021253Y024997D01*
X021076Y025071D01*
X020285Y025071D01*
X020216Y025042D01*
X020216Y025185D01*
X020159Y025323D01*
X020101Y025381D01*
X020101Y025573D01*
X020648Y026120D01*
X020721Y026193D01*
X020761Y026289D01*
X020761Y026533D01*
X021261Y027032D01*
X021394Y027032D01*
X021548Y027096D01*
X021665Y027214D01*
X021729Y027367D01*
X021729Y027534D01*
X021665Y027687D01*
X021548Y027805D01*
X021394Y027869D01*
X021212Y027862D02*
X020132Y027862D01*
X020015Y027704D02*
X020973Y027704D01*
X020898Y027545D02*
X012715Y027545D01*
X012736Y027596D02*
X012679Y027458D01*
X012573Y027353D01*
X012436Y027296D01*
X012286Y027296D01*
X012149Y027353D01*
X012131Y027370D01*
X012113Y027353D01*
X011976Y027296D01*
X011826Y027296D01*
X011689Y027353D01*
X011681Y027360D01*
X011663Y027343D01*
X011526Y027286D01*
X011376Y027286D01*
X011239Y027343D01*
X011226Y027355D01*
X011213Y027343D01*
X011076Y027286D01*
X010926Y027286D01*
X010789Y027343D01*
X010683Y027448D01*
X010626Y027586D01*
X010626Y027735D01*
X010683Y027873D01*
X010789Y027978D01*
X010926Y028036D01*
X011076Y028036D01*
X011213Y027978D01*
X011226Y027966D01*
X011239Y027978D01*
X011376Y028036D01*
X011526Y028036D01*
X011663Y027978D01*
X011671Y027971D01*
X011689Y027988D01*
X011826Y028046D01*
X011976Y028046D01*
X012113Y027988D01*
X012131Y027971D01*
X012149Y027988D01*
X012286Y028046D01*
X012436Y028046D01*
X012573Y027988D01*
X012679Y027883D01*
X012736Y027745D01*
X012736Y027596D01*
X012736Y027704D02*
X017595Y027704D01*
X017648Y027651D02*
X017830Y027576D01*
X018028Y027576D01*
X018210Y027651D01*
X018350Y027791D01*
X018426Y027974D01*
X018426Y028171D01*
X018350Y028354D01*
X018210Y028494D01*
X018028Y028569D01*
X017830Y028569D01*
X017648Y028494D01*
X017508Y028354D01*
X017432Y028171D01*
X017432Y027974D01*
X017508Y027791D01*
X017648Y027651D01*
X017478Y027862D02*
X012687Y027862D01*
X012495Y028021D02*
X017432Y028021D01*
X017435Y028179D02*
X003186Y028179D01*
X003186Y028021D02*
X010891Y028021D01*
X011111Y028021D02*
X011341Y028021D01*
X011561Y028021D02*
X011767Y028021D01*
X012035Y028021D02*
X012227Y028021D01*
X012607Y027387D02*
X020879Y027387D01*
X020721Y027228D02*
X009925Y027228D01*
X009657Y027228D02*
X008995Y027228D01*
X008727Y027228D02*
X008561Y027228D01*
X008561Y027387D02*
X010745Y027387D01*
X010643Y027545D02*
X008463Y027545D01*
X008305Y027704D02*
X010626Y027704D01*
X010679Y027862D02*
X008146Y027862D01*
X007236Y027862D02*
X003186Y027862D01*
X003186Y027704D02*
X007077Y027704D01*
X006919Y027545D02*
X003186Y027545D01*
X003186Y027387D02*
X006815Y027387D01*
X006859Y027228D02*
X003186Y027228D01*
X003186Y027070D02*
X006906Y027070D01*
X006828Y026911D02*
X003186Y026911D01*
X003186Y026752D02*
X006815Y026752D01*
X006859Y026594D02*
X003186Y026594D01*
X003186Y026435D02*
X006982Y026435D01*
X007560Y026435D02*
X007672Y026435D01*
X007751Y026277D02*
X003186Y026277D01*
X003186Y026118D02*
X007751Y026118D01*
X007751Y025960D02*
X003186Y025960D01*
X003186Y025801D02*
X007873Y025801D01*
X008032Y025643D02*
X003186Y025643D01*
X003186Y025484D02*
X008190Y025484D01*
X008349Y025326D02*
X003186Y025326D01*
X003186Y025167D02*
X008507Y025167D01*
X008666Y025008D02*
X005246Y025008D01*
X005273Y024997D02*
X005096Y025071D01*
X004305Y025071D01*
X004129Y024997D01*
X003994Y024862D01*
X003921Y024686D01*
X003921Y024495D01*
X003994Y024319D01*
X004129Y024184D01*
X004305Y024111D01*
X005096Y024111D01*
X005273Y024184D01*
X005408Y024319D01*
X005481Y024495D01*
X005481Y024686D01*
X005408Y024862D01*
X005273Y024997D01*
X005413Y024850D02*
X008825Y024850D01*
X008983Y024691D02*
X005479Y024691D01*
X005481Y024533D02*
X009101Y024533D01*
X009101Y024374D02*
X006647Y024374D01*
X006643Y024378D02*
X006506Y024436D01*
X006356Y024436D01*
X006219Y024378D01*
X006113Y024273D01*
X006056Y024135D01*
X006056Y023986D01*
X006113Y023848D01*
X006219Y023743D01*
X006356Y023686D01*
X006506Y023686D01*
X006643Y023743D01*
X006749Y023848D01*
X006806Y023986D01*
X006806Y024135D01*
X006749Y024273D01*
X006643Y024378D01*
X006773Y024216D02*
X009101Y024216D01*
X009101Y024057D02*
X006806Y024057D01*
X006770Y023899D02*
X009101Y023899D01*
X009101Y023740D02*
X006637Y023740D01*
X006225Y023740D02*
X005459Y023740D01*
X005481Y023686D02*
X005408Y023862D01*
X005273Y023997D01*
X005096Y024071D01*
X004305Y024071D01*
X004129Y023997D01*
X003994Y023862D01*
X003921Y023686D01*
X003921Y023495D01*
X003994Y023319D01*
X004129Y023184D01*
X004305Y023111D01*
X005096Y023111D01*
X005273Y023184D01*
X005408Y023319D01*
X005481Y023495D01*
X005481Y023686D01*
X005481Y023582D02*
X009101Y023582D01*
X009101Y023423D02*
X005451Y023423D01*
X005354Y023264D02*
X009101Y023264D01*
X009101Y023106D02*
X003186Y023106D01*
X003186Y023264D02*
X004048Y023264D01*
X003951Y023423D02*
X003186Y023423D01*
X003186Y023582D02*
X003921Y023582D01*
X003943Y023740D02*
X003186Y023740D01*
X003186Y023899D02*
X004030Y023899D01*
X004273Y024057D02*
X003186Y024057D01*
X003186Y024216D02*
X004097Y024216D01*
X003971Y024374D02*
X003186Y024374D01*
X003186Y024533D02*
X003921Y024533D01*
X003923Y024691D02*
X003186Y024691D01*
X003186Y024850D02*
X003989Y024850D01*
X004156Y025008D02*
X003186Y025008D01*
X004129Y022997D02*
X003994Y022862D01*
X003921Y022686D01*
X003921Y022495D01*
X003994Y022319D01*
X004129Y022184D01*
X004305Y022111D01*
X005096Y022111D01*
X005273Y022184D01*
X005408Y022319D01*
X005481Y022495D01*
X005481Y022686D01*
X005408Y022862D01*
X005273Y022997D01*
X005096Y023071D01*
X004305Y023071D01*
X004129Y022997D01*
X004079Y022947D02*
X003186Y022947D01*
X003186Y022789D02*
X003964Y022789D01*
X003921Y022630D02*
X003186Y022630D01*
X003186Y022472D02*
X003931Y022472D01*
X003999Y022313D02*
X003186Y022313D01*
X003186Y022155D02*
X004199Y022155D01*
X005021Y021211D02*
X005081Y021211D01*
X005235Y020411D02*
X009511Y020411D01*
X009423Y020252D02*
X005366Y020252D01*
X005416Y020094D02*
X009416Y020094D01*
X009486Y019935D02*
X005410Y019935D01*
X005343Y019459D02*
X004926Y019459D01*
X004791Y019618D02*
X004681Y019618D01*
X004581Y019777D02*
X003186Y019777D01*
X003186Y019935D02*
X004511Y019935D01*
X004505Y020094D02*
X003186Y020094D01*
X003186Y020252D02*
X004556Y020252D01*
X004687Y020411D02*
X003186Y020411D01*
X003186Y020569D02*
X009685Y020569D01*
X009527Y020728D02*
X003186Y020728D01*
X003186Y020886D02*
X006135Y020886D01*
X006083Y020938D02*
X006189Y020833D01*
X006326Y020776D01*
X006476Y020776D01*
X006613Y020833D01*
X006719Y020938D01*
X006776Y021076D01*
X006776Y021225D01*
X006719Y021363D01*
X006613Y021468D01*
X006476Y021526D01*
X006326Y021526D01*
X006189Y021468D01*
X006083Y021363D01*
X006026Y021225D01*
X006026Y021076D01*
X006083Y020938D01*
X006039Y021045D02*
X003186Y021045D01*
X003186Y021203D02*
X006026Y021203D01*
X006083Y021362D02*
X003186Y021362D01*
X003186Y021521D02*
X006314Y021521D01*
X006488Y021521D02*
X006818Y021521D01*
X006785Y021679D02*
X003186Y021679D01*
X003186Y021838D02*
X006809Y021838D01*
X006902Y021996D02*
X003186Y021996D01*
X003186Y019618D02*
X004461Y019618D01*
X004216Y019459D02*
X003186Y019459D01*
X003186Y019301D02*
X004132Y019301D01*
X004115Y019142D02*
X003186Y019142D01*
X003186Y018984D02*
X004155Y018984D01*
X004272Y018825D02*
X003186Y018825D01*
X003186Y018667D02*
X004782Y018667D01*
X004792Y018602D01*
X004812Y018540D01*
X004842Y018481D01*
X004881Y018428D01*
X004927Y018382D01*
X004980Y018344D01*
X005039Y018314D01*
X005101Y018294D01*
X005166Y018283D01*
X005170Y018283D01*
X005170Y018671D01*
X004782Y018671D01*
X004782Y018667D01*
X004829Y018508D02*
X003186Y018508D01*
X003186Y018350D02*
X004972Y018350D01*
X005170Y018350D02*
X005227Y018350D01*
X005227Y018508D02*
X005170Y018508D01*
X005170Y018667D02*
X005227Y018667D01*
X005425Y018350D02*
X005818Y018350D01*
X005719Y018508D02*
X005568Y018508D01*
X005615Y018667D02*
X005682Y018667D01*
X005691Y018825D02*
X005596Y018825D01*
X005503Y018984D02*
X005757Y018984D01*
X005620Y019142D02*
X005917Y019142D01*
X005778Y019301D02*
X007681Y019301D01*
X007558Y019142D02*
X007483Y019142D01*
X006920Y019142D02*
X006480Y019142D01*
X006640Y018984D02*
X006760Y018984D01*
X006035Y018191D02*
X003186Y018191D01*
X003186Y018033D02*
X004948Y018033D01*
X004927Y018018D02*
X004881Y017971D01*
X004842Y017918D01*
X004812Y017860D01*
X004792Y017797D01*
X004782Y017733D01*
X004782Y017728D01*
X005170Y017728D01*
X005170Y017671D01*
X005227Y017671D01*
X005227Y017283D01*
X005231Y017283D01*
X005296Y017294D01*
X005358Y017314D01*
X005417Y017344D01*
X005470Y017382D01*
X005516Y017428D01*
X005555Y017481D01*
X005584Y017540D01*
X005605Y017602D01*
X005615Y017667D01*
X005615Y017671D01*
X005227Y017671D01*
X005227Y017728D01*
X005615Y017728D01*
X005615Y017733D01*
X005605Y017797D01*
X005584Y017860D01*
X005555Y017918D01*
X005516Y017971D01*
X005470Y018018D01*
X005417Y018056D01*
X005358Y018086D01*
X005296Y018106D01*
X005231Y018116D01*
X005227Y018116D01*
X005227Y017728D01*
X005170Y017728D01*
X005170Y018116D01*
X005166Y018116D01*
X005101Y018106D01*
X005039Y018086D01*
X004980Y018056D01*
X004927Y018018D01*
X004820Y017874D02*
X003186Y017874D01*
X003186Y017715D02*
X005170Y017715D01*
X005170Y017671D02*
X004782Y017671D01*
X004782Y017667D01*
X004792Y017602D01*
X004812Y017540D01*
X004842Y017481D01*
X004881Y017428D01*
X004927Y017382D01*
X004980Y017344D01*
X005039Y017314D01*
X005101Y017294D01*
X005166Y017283D01*
X005170Y017283D01*
X005170Y017671D01*
X005227Y017715D02*
X005682Y017715D01*
X005699Y017557D02*
X005590Y017557D01*
X005486Y017398D02*
X005769Y017398D01*
X005959Y017240D02*
X003186Y017240D01*
X003186Y017398D02*
X004911Y017398D01*
X004807Y017557D02*
X003186Y017557D01*
X003186Y017081D02*
X005030Y017081D01*
X005039Y017086D02*
X004980Y017056D01*
X004927Y017018D01*
X004881Y016971D01*
X004842Y016918D01*
X004812Y016860D01*
X004792Y016797D01*
X004782Y016733D01*
X004782Y016728D01*
X005170Y016728D01*
X005170Y016671D01*
X005227Y016671D01*
X005227Y016283D01*
X005231Y016283D01*
X005296Y016294D01*
X005358Y016314D01*
X005417Y016344D01*
X005470Y016382D01*
X005516Y016428D01*
X005555Y016481D01*
X005584Y016540D01*
X005605Y016602D01*
X005615Y016667D01*
X005615Y016671D01*
X005227Y016671D01*
X005227Y016728D01*
X005615Y016728D01*
X005615Y016733D01*
X005605Y016797D01*
X005584Y016860D01*
X005555Y016918D01*
X005516Y016971D01*
X005470Y017018D01*
X005417Y017056D01*
X005358Y017086D01*
X005296Y017106D01*
X005231Y017116D01*
X005227Y017116D01*
X005227Y016728D01*
X005170Y016728D01*
X005170Y017116D01*
X005166Y017116D01*
X005101Y017106D01*
X005039Y017086D01*
X005170Y017081D02*
X005227Y017081D01*
X005367Y017081D02*
X005849Y017081D01*
X005732Y016923D02*
X005551Y016923D01*
X005610Y016764D02*
X005682Y016764D01*
X005682Y016606D02*
X005605Y016606D01*
X005530Y016447D02*
X005744Y016447D01*
X005879Y016289D02*
X005265Y016289D01*
X005227Y016289D02*
X005170Y016289D01*
X005170Y016283D02*
X005170Y016671D01*
X004782Y016671D01*
X004782Y016667D01*
X004792Y016602D01*
X004812Y016540D01*
X004842Y016481D01*
X004881Y016428D01*
X004927Y016382D01*
X004980Y016344D01*
X005039Y016314D01*
X005101Y016294D01*
X005166Y016283D01*
X005170Y016283D01*
X005132Y016289D02*
X003186Y016289D01*
X003186Y016447D02*
X004867Y016447D01*
X004792Y016606D02*
X003186Y016606D01*
X003186Y016764D02*
X004787Y016764D01*
X004846Y016923D02*
X003186Y016923D01*
X003186Y016130D02*
X005898Y016130D01*
X005752Y015971D02*
X005516Y015971D01*
X005470Y016018D01*
X005417Y016056D01*
X005358Y016086D01*
X005296Y016106D01*
X005231Y016116D01*
X005227Y016116D01*
X005227Y015728D01*
X005615Y015728D01*
X005615Y015733D01*
X005605Y015797D01*
X005584Y015860D01*
X005555Y015918D01*
X005516Y015971D01*
X005600Y015813D02*
X005686Y015813D01*
X005615Y015671D02*
X005227Y015671D01*
X005227Y015283D01*
X005231Y015283D01*
X005296Y015294D01*
X005358Y015314D01*
X005417Y015344D01*
X005470Y015382D01*
X005516Y015428D01*
X005555Y015481D01*
X005584Y015540D01*
X005605Y015602D01*
X005615Y015667D01*
X005615Y015671D01*
X005613Y015654D02*
X005682Y015654D01*
X005724Y015496D02*
X005562Y015496D01*
X005404Y015337D02*
X005830Y015337D01*
X006005Y015179D02*
X003186Y015179D01*
X003186Y015337D02*
X004992Y015337D01*
X004980Y015344D02*
X005039Y015314D01*
X005101Y015294D01*
X005166Y015283D01*
X005170Y015283D01*
X005170Y015671D01*
X005227Y015671D01*
X005227Y015728D01*
X005170Y015728D01*
X005170Y015671D01*
X004782Y015671D01*
X004782Y015667D01*
X004792Y015602D01*
X004812Y015540D01*
X004842Y015481D01*
X004881Y015428D01*
X004927Y015382D01*
X004980Y015344D01*
X005170Y015337D02*
X005227Y015337D01*
X005227Y015496D02*
X005170Y015496D01*
X005170Y015654D02*
X005227Y015654D01*
X005170Y015728D02*
X004782Y015728D01*
X004782Y015733D01*
X004792Y015797D01*
X004812Y015860D01*
X004842Y015918D01*
X004881Y015971D01*
X004927Y016018D01*
X004980Y016056D01*
X005039Y016086D01*
X005101Y016106D01*
X005166Y016116D01*
X005170Y016116D01*
X005170Y015728D01*
X005170Y015813D02*
X005227Y015813D01*
X005227Y015971D02*
X005170Y015971D01*
X004881Y015971D02*
X003186Y015971D01*
X003186Y015813D02*
X004797Y015813D01*
X004784Y015654D02*
X003186Y015654D01*
X003186Y015496D02*
X004835Y015496D01*
X005039Y015086D02*
X004980Y015056D01*
X004927Y015018D01*
X004881Y014971D01*
X004842Y014918D01*
X004812Y014860D01*
X004792Y014797D01*
X004782Y014733D01*
X004782Y014728D01*
X005170Y014728D01*
X005170Y014671D01*
X005227Y014671D01*
X005227Y014283D01*
X005231Y014283D01*
X005296Y014294D01*
X005358Y014314D01*
X005417Y014344D01*
X005470Y014382D01*
X005516Y014428D01*
X005555Y014481D01*
X005584Y014540D01*
X005605Y014602D01*
X005615Y014667D01*
X005615Y014671D01*
X005227Y014671D01*
X005227Y014728D01*
X005615Y014728D01*
X005615Y014733D01*
X005605Y014797D01*
X005584Y014860D01*
X005555Y014918D01*
X005516Y014971D01*
X005470Y015018D01*
X005417Y015056D01*
X005358Y015086D01*
X005296Y015106D01*
X005231Y015116D01*
X005227Y015116D01*
X005227Y014728D01*
X005170Y014728D01*
X005170Y015116D01*
X005166Y015116D01*
X005101Y015106D01*
X005039Y015086D01*
X004931Y015020D02*
X003186Y015020D01*
X003186Y014862D02*
X004813Y014862D01*
X004782Y014671D02*
X004782Y014667D01*
X004792Y014602D01*
X004812Y014540D01*
X004842Y014481D01*
X004881Y014428D01*
X004927Y014382D01*
X004980Y014344D01*
X005039Y014314D01*
X005101Y014294D01*
X005166Y014283D01*
X005170Y014283D01*
X005170Y014671D01*
X004782Y014671D01*
X004811Y014545D02*
X003186Y014545D01*
X003186Y014703D02*
X005170Y014703D01*
X005227Y014703D02*
X005682Y014703D01*
X005704Y014545D02*
X005586Y014545D01*
X005474Y014386D02*
X005782Y014386D01*
X005989Y014228D02*
X003186Y014228D01*
X003186Y014386D02*
X004923Y014386D01*
X005170Y014386D02*
X005227Y014386D01*
X005227Y014545D02*
X005170Y014545D01*
X005170Y014862D02*
X005227Y014862D01*
X005227Y015020D02*
X005170Y015020D01*
X005466Y015020D02*
X005788Y015020D01*
X005706Y014862D02*
X005583Y014862D01*
X005358Y014086D02*
X005296Y014106D01*
X005231Y014116D01*
X005227Y014116D01*
X005227Y013728D01*
X005615Y013728D01*
X005615Y013733D01*
X005605Y013797D01*
X005584Y013860D01*
X005555Y013918D01*
X005516Y013971D01*
X005470Y014018D01*
X005417Y014056D01*
X005358Y014086D01*
X005391Y014069D02*
X005837Y014069D01*
X005727Y013910D02*
X005559Y013910D01*
X005612Y013752D02*
X005682Y013752D01*
X005615Y013671D02*
X005227Y013671D01*
X005227Y013283D01*
X005231Y013283D01*
X005296Y013294D01*
X005358Y013314D01*
X005417Y013344D01*
X005470Y013382D01*
X005516Y013428D01*
X005555Y013481D01*
X005584Y013540D01*
X005605Y013602D01*
X005615Y013667D01*
X005615Y013671D01*
X005602Y013593D02*
X005683Y013593D01*
X005749Y013435D02*
X005521Y013435D01*
X005227Y013435D02*
X005170Y013435D01*
X005170Y013283D02*
X005170Y013671D01*
X005227Y013671D01*
X005227Y013728D01*
X005170Y013728D01*
X005170Y013671D01*
X004782Y013671D01*
X004782Y013667D01*
X004792Y013602D01*
X004812Y013540D01*
X004842Y013481D01*
X004881Y013428D01*
X004927Y013382D01*
X004980Y013344D01*
X005039Y013314D01*
X005101Y013294D01*
X005166Y013283D01*
X005170Y013283D01*
X005170Y013116D02*
X005166Y013116D01*
X005101Y013106D01*
X005039Y013086D01*
X004980Y013056D01*
X004927Y013018D01*
X004881Y012971D01*
X004842Y012918D01*
X004812Y012860D01*
X004792Y012797D01*
X004782Y012733D01*
X004782Y012728D01*
X005170Y012728D01*
X005170Y012671D01*
X005227Y012671D01*
X005227Y012283D01*
X005231Y012283D01*
X005296Y012294D01*
X005358Y012314D01*
X005417Y012344D01*
X005470Y012382D01*
X005516Y012428D01*
X005555Y012481D01*
X005584Y012540D01*
X005605Y012602D01*
X005615Y012667D01*
X005615Y012671D01*
X005227Y012671D01*
X005227Y012728D01*
X005615Y012728D01*
X005615Y012733D01*
X005605Y012797D01*
X005584Y012860D01*
X005555Y012918D01*
X005516Y012971D01*
X005470Y013018D01*
X005417Y013056D01*
X005358Y013086D01*
X005296Y013106D01*
X005231Y013116D01*
X005227Y013116D01*
X005227Y012728D01*
X005170Y012728D01*
X005170Y013116D01*
X005170Y012959D02*
X005227Y012959D01*
X005227Y012801D02*
X005170Y012801D01*
X005170Y012671D02*
X004782Y012671D01*
X004782Y012667D01*
X004792Y012602D01*
X004812Y012540D01*
X004842Y012481D01*
X004881Y012428D01*
X004927Y012382D01*
X004980Y012344D01*
X005039Y012314D01*
X005101Y012294D01*
X005166Y012283D01*
X005170Y012283D01*
X005170Y012671D01*
X005170Y012642D02*
X005227Y012642D01*
X005227Y012484D02*
X005170Y012484D01*
X005170Y012325D02*
X005227Y012325D01*
X005380Y012325D02*
X005843Y012325D01*
X005729Y012484D02*
X005556Y012484D01*
X005611Y012642D02*
X005682Y012642D01*
X005682Y012801D02*
X005604Y012801D01*
X005525Y012959D02*
X005747Y012959D01*
X005886Y013118D02*
X003186Y013118D01*
X003186Y013276D02*
X005891Y013276D01*
X005227Y013593D02*
X005170Y013593D01*
X005170Y013728D02*
X004782Y013728D01*
X004782Y013733D01*
X004792Y013797D01*
X004812Y013860D01*
X004842Y013918D01*
X004881Y013971D01*
X004927Y014018D01*
X004980Y014056D01*
X005039Y014086D01*
X005101Y014106D01*
X005166Y014116D01*
X005170Y014116D01*
X005170Y013728D01*
X005170Y013752D02*
X005227Y013752D01*
X005227Y013910D02*
X005170Y013910D01*
X005170Y014069D02*
X005227Y014069D01*
X005005Y014069D02*
X003186Y014069D01*
X003186Y013910D02*
X004838Y013910D01*
X004785Y013752D02*
X003186Y013752D01*
X003186Y013593D02*
X004795Y013593D01*
X004876Y013435D02*
X003186Y013435D01*
X003186Y012959D02*
X004872Y012959D01*
X004793Y012801D02*
X003186Y012801D01*
X003186Y012642D02*
X004786Y012642D01*
X004841Y012484D02*
X003186Y012484D01*
X003186Y012325D02*
X005017Y012325D01*
X005101Y012106D02*
X005039Y012086D01*
X004980Y012056D01*
X004927Y012018D01*
X004881Y011971D01*
X004842Y011918D01*
X004812Y011860D01*
X004792Y011797D01*
X004782Y011733D01*
X004782Y011728D01*
X005170Y011728D01*
X005170Y011671D01*
X005227Y011671D01*
X005227Y011283D01*
X005231Y011283D01*
X005296Y011294D01*
X005358Y011314D01*
X005417Y011344D01*
X005470Y011382D01*
X005516Y011428D01*
X005555Y011481D01*
X005584Y011540D01*
X005605Y011602D01*
X005615Y011667D01*
X005615Y011671D01*
X005227Y011671D01*
X005227Y011728D01*
X005615Y011728D01*
X005615Y011733D01*
X005605Y011797D01*
X005584Y011860D01*
X005555Y011918D01*
X005516Y011971D01*
X005470Y012018D01*
X005417Y012056D01*
X005358Y012086D01*
X005296Y012106D01*
X005231Y012116D01*
X005227Y012116D01*
X005227Y011728D01*
X005170Y011728D01*
X005170Y012116D01*
X005166Y012116D01*
X005101Y012106D01*
X005170Y012008D02*
X005227Y012008D01*
X005227Y011849D02*
X005170Y011849D01*
X005170Y011691D02*
X003186Y011691D01*
X003186Y011849D02*
X004809Y011849D01*
X004782Y011671D02*
X004782Y011667D01*
X004792Y011602D01*
X004812Y011540D01*
X004842Y011481D01*
X004881Y011428D01*
X004927Y011382D01*
X004980Y011344D01*
X005039Y011314D01*
X005101Y011294D01*
X005166Y011283D01*
X005170Y011283D01*
X005170Y011671D01*
X004782Y011671D01*
X004816Y011532D02*
X003186Y011532D01*
X003186Y011374D02*
X004939Y011374D01*
X005170Y011374D02*
X005227Y011374D01*
X005227Y011532D02*
X005170Y011532D01*
X005227Y011691D02*
X005682Y011691D01*
X005701Y011849D02*
X005588Y011849D01*
X005479Y012008D02*
X005776Y012008D01*
X005975Y012166D02*
X003186Y012166D01*
X003186Y012008D02*
X004917Y012008D01*
X005581Y011532D02*
X005709Y011532D01*
X005794Y011374D02*
X005458Y011374D01*
X005358Y011086D02*
X005296Y011106D01*
X005231Y011116D01*
X005227Y011116D01*
X005227Y010728D01*
X005615Y010728D01*
X005615Y010733D01*
X005605Y010797D01*
X005584Y010860D01*
X005555Y010918D01*
X005516Y010971D01*
X005470Y011018D01*
X005417Y011056D01*
X005358Y011086D01*
X005416Y011057D02*
X005825Y011057D01*
X005721Y010898D02*
X005565Y010898D01*
X005614Y010740D02*
X005682Y010740D01*
X005615Y010671D02*
X005227Y010671D01*
X005227Y010283D01*
X005231Y010283D01*
X005296Y010294D01*
X005358Y010314D01*
X005417Y010344D01*
X005470Y010382D01*
X005516Y010428D01*
X005555Y010481D01*
X005584Y010540D01*
X005605Y010602D01*
X005615Y010667D01*
X005615Y010671D01*
X005598Y010581D02*
X005689Y010581D01*
X005754Y010422D02*
X005510Y010422D01*
X005227Y010422D02*
X005170Y010422D01*
X005170Y010283D02*
X005170Y010671D01*
X005227Y010671D01*
X005227Y010728D01*
X005170Y010728D01*
X005170Y010671D01*
X004782Y010671D01*
X004782Y010667D01*
X004792Y010602D01*
X004812Y010540D01*
X004842Y010481D01*
X004881Y010428D01*
X004927Y010382D01*
X004980Y010344D01*
X005039Y010314D01*
X005101Y010294D01*
X005166Y010283D01*
X005170Y010283D01*
X005170Y010116D02*
X005166Y010116D01*
X005101Y010106D01*
X005039Y010086D01*
X004980Y010056D01*
X004927Y010018D01*
X004881Y009971D01*
X004842Y009918D01*
X004812Y009860D01*
X004792Y009797D01*
X004782Y009733D01*
X004782Y009728D01*
X005170Y009728D01*
X005170Y009671D01*
X005227Y009671D01*
X005227Y009283D01*
X005231Y009283D01*
X005296Y009294D01*
X005358Y009314D01*
X005417Y009344D01*
X005470Y009382D01*
X005516Y009428D01*
X005555Y009481D01*
X005584Y009540D01*
X005605Y009602D01*
X005615Y009667D01*
X005615Y009671D01*
X005227Y009671D01*
X005227Y009728D01*
X005615Y009728D01*
X005615Y009733D01*
X005605Y009797D01*
X005584Y009860D01*
X005555Y009918D01*
X005516Y009971D01*
X005470Y010018D01*
X005417Y010056D01*
X005358Y010086D01*
X005296Y010106D01*
X005231Y010116D01*
X005227Y010116D01*
X005227Y009728D01*
X005170Y009728D01*
X005170Y010116D01*
X005170Y010105D02*
X005227Y010105D01*
X005298Y010105D02*
X005874Y010105D01*
X005904Y010264D02*
X003186Y010264D01*
X003186Y010422D02*
X004887Y010422D01*
X004799Y010581D02*
X003186Y010581D01*
X003186Y010740D02*
X004783Y010740D01*
X004782Y010733D02*
X004782Y010728D01*
X005170Y010728D01*
X005170Y011116D01*
X005166Y011116D01*
X005101Y011106D01*
X005039Y011086D01*
X004980Y011056D01*
X004927Y011018D01*
X004881Y010971D01*
X004842Y010918D01*
X004812Y010860D01*
X004792Y010797D01*
X004782Y010733D01*
X004832Y010898D02*
X003186Y010898D01*
X003186Y011057D02*
X004981Y011057D01*
X005170Y011057D02*
X005227Y011057D01*
X005227Y010898D02*
X005170Y010898D01*
X005170Y010740D02*
X005227Y010740D01*
X005227Y010581D02*
X005170Y010581D01*
X005099Y010105D02*
X003186Y010105D01*
X003186Y009947D02*
X004863Y009947D01*
X004791Y009788D02*
X003186Y009788D01*
X003186Y009630D02*
X004788Y009630D01*
X004792Y009602D02*
X004812Y009540D01*
X004842Y009481D01*
X004881Y009428D01*
X004927Y009382D01*
X004980Y009344D01*
X005039Y009314D01*
X005101Y009294D01*
X005166Y009283D01*
X005170Y009283D01*
X005170Y009671D01*
X004782Y009671D01*
X004782Y009667D01*
X004792Y009602D01*
X004850Y009471D02*
X003186Y009471D01*
X003186Y009313D02*
X005042Y009313D01*
X005170Y009313D02*
X005227Y009313D01*
X005355Y009313D02*
X005855Y009313D01*
X005945Y009154D02*
X003186Y009154D01*
X003186Y008996D02*
X004905Y008996D01*
X004927Y009018D02*
X004881Y008971D01*
X004842Y008918D01*
X004812Y008860D01*
X004792Y008797D01*
X004782Y008733D01*
X004782Y008728D01*
X005170Y008728D01*
X005170Y008671D01*
X005227Y008671D01*
X005227Y008283D01*
X005231Y008283D01*
X005296Y008294D01*
X005358Y008314D01*
X005417Y008344D01*
X005470Y008382D01*
X005516Y008428D01*
X005555Y008481D01*
X005584Y008540D01*
X005605Y008602D01*
X005615Y008667D01*
X005615Y008671D01*
X005227Y008671D01*
X005227Y008728D01*
X005615Y008728D01*
X005615Y008733D01*
X005605Y008797D01*
X005584Y008860D01*
X005555Y008918D01*
X005516Y008971D01*
X005470Y009018D01*
X005417Y009056D01*
X005358Y009086D01*
X005296Y009106D01*
X005231Y009116D01*
X005227Y009116D01*
X005227Y008728D01*
X005170Y008728D01*
X005170Y009116D01*
X005166Y009116D01*
X005101Y009106D01*
X005039Y009086D01*
X004980Y009056D01*
X004927Y009018D01*
X004805Y008837D02*
X003186Y008837D01*
X003186Y008679D02*
X005170Y008679D01*
X005170Y008671D02*
X004782Y008671D01*
X004782Y008667D01*
X004792Y008602D01*
X004812Y008540D01*
X004842Y008481D01*
X004881Y008428D01*
X004927Y008382D01*
X004980Y008344D01*
X005039Y008314D01*
X005101Y008294D01*
X005166Y008283D01*
X005170Y008283D01*
X005170Y008671D01*
X005227Y008679D02*
X005682Y008679D01*
X005696Y008837D02*
X005592Y008837D01*
X005492Y008996D02*
X005764Y008996D01*
X005734Y009471D02*
X005547Y009471D01*
X005609Y009630D02*
X005682Y009630D01*
X005682Y009788D02*
X005606Y009788D01*
X005534Y009947D02*
X005742Y009947D01*
X005227Y009947D02*
X005170Y009947D01*
X005170Y009788D02*
X005227Y009788D01*
X005227Y009630D02*
X005170Y009630D01*
X005170Y009471D02*
X005227Y009471D01*
X005227Y008996D02*
X005170Y008996D01*
X005170Y008837D02*
X005227Y008837D01*
X005227Y008520D02*
X005170Y008520D01*
X005170Y008361D02*
X005227Y008361D01*
X005441Y008361D02*
X005806Y008361D01*
X005714Y008520D02*
X005574Y008520D01*
X005358Y008086D02*
X005296Y008106D01*
X005231Y008116D01*
X005227Y008116D01*
X005227Y007728D01*
X005615Y007728D01*
X005615Y007733D01*
X005605Y007797D01*
X005584Y007860D01*
X005555Y007918D01*
X005516Y007971D01*
X005470Y008018D01*
X005417Y008056D01*
X005358Y008086D01*
X005433Y008044D02*
X005812Y008044D01*
X005716Y007886D02*
X005571Y007886D01*
X005682Y007727D02*
X005227Y007727D01*
X005227Y007728D02*
X005227Y007671D01*
X005227Y007283D01*
X005231Y007283D01*
X005296Y007294D01*
X005358Y007314D01*
X005417Y007344D01*
X005470Y007382D01*
X005516Y007428D01*
X005555Y007481D01*
X005584Y007540D01*
X005605Y007602D01*
X005615Y007667D01*
X005615Y007671D01*
X005227Y007671D01*
X005170Y007671D01*
X005170Y007283D01*
X005166Y007283D01*
X005101Y007294D01*
X005039Y007314D01*
X004980Y007344D01*
X004927Y007382D01*
X004881Y007428D01*
X004842Y007481D01*
X004812Y007540D01*
X004792Y007602D01*
X004782Y007667D01*
X004782Y007671D01*
X005170Y007671D01*
X005170Y007728D01*
X004782Y007728D01*
X004782Y007733D01*
X004792Y007797D01*
X004812Y007860D01*
X004842Y007918D01*
X004881Y007971D01*
X004927Y008018D01*
X004980Y008056D01*
X005039Y008086D01*
X005101Y008106D01*
X005166Y008116D01*
X005170Y008116D01*
X005170Y007728D01*
X005227Y007728D01*
X005170Y007727D02*
X003186Y007727D01*
X003186Y007569D02*
X004803Y007569D01*
X004899Y007410D02*
X003186Y007410D01*
X003186Y007252D02*
X005931Y007252D01*
X005759Y007410D02*
X005498Y007410D01*
X005594Y007569D02*
X005694Y007569D01*
X005227Y007569D02*
X005170Y007569D01*
X005170Y007410D02*
X005227Y007410D01*
X005227Y007886D02*
X005170Y007886D01*
X005170Y008044D02*
X005227Y008044D01*
X004964Y008044D02*
X003186Y008044D01*
X003186Y007886D02*
X004826Y007886D01*
X004956Y008361D02*
X003186Y008361D01*
X003186Y008203D02*
X006048Y008203D01*
X006637Y007410D02*
X006762Y007410D01*
X006693Y007252D02*
X006466Y007252D01*
X006637Y007093D02*
X003186Y007093D01*
X003186Y006935D02*
X006650Y006935D01*
X006746Y006776D02*
X003186Y006776D01*
X003186Y006617D02*
X007110Y006617D01*
X007247Y006459D02*
X003186Y006459D01*
X003186Y006300D02*
X007270Y006300D01*
X007380Y006142D02*
X003186Y006142D01*
X003186Y005983D02*
X010701Y005983D01*
X010843Y005825D02*
X003186Y005825D01*
X003186Y008520D02*
X004823Y008520D01*
X006019Y011215D02*
X003186Y011215D01*
X005170Y016447D02*
X005227Y016447D01*
X005227Y016606D02*
X005170Y016606D01*
X005170Y016764D02*
X005227Y016764D01*
X005227Y016923D02*
X005170Y016923D01*
X005170Y017398D02*
X005227Y017398D01*
X005227Y017557D02*
X005170Y017557D01*
X005170Y017874D02*
X005227Y017874D01*
X005227Y018033D02*
X005170Y018033D01*
X005449Y018033D02*
X005801Y018033D01*
X005711Y017874D02*
X005577Y017874D01*
X006667Y020886D02*
X007491Y020886D01*
X007351Y021045D02*
X006763Y021045D01*
X006776Y021203D02*
X007295Y021203D01*
X006925Y021362D02*
X006719Y021362D01*
X007580Y021996D02*
X007982Y021996D01*
X007871Y021838D02*
X007673Y021838D01*
X008206Y021203D02*
X008438Y021203D01*
X008504Y021045D02*
X008151Y021045D01*
X008011Y020886D02*
X008700Y020886D01*
X009081Y020886D02*
X009368Y020886D01*
X009101Y021838D02*
X008711Y021838D01*
X008600Y021996D02*
X009101Y021996D01*
X009101Y022155D02*
X005203Y022155D01*
X005402Y022313D02*
X009101Y022313D01*
X009101Y022472D02*
X005471Y022472D01*
X005481Y022630D02*
X009101Y022630D01*
X009101Y022789D02*
X005438Y022789D01*
X005323Y022947D02*
X009101Y022947D01*
X010001Y022947D02*
X014301Y022947D01*
X014301Y022789D02*
X010001Y022789D01*
X010001Y022630D02*
X014346Y022630D01*
X014504Y022472D02*
X010001Y022472D01*
X010001Y022313D02*
X012277Y022313D01*
X012118Y022155D02*
X010001Y022155D01*
X010001Y021996D02*
X011960Y021996D01*
X011801Y021838D02*
X010001Y021838D01*
X010001Y021679D02*
X011643Y021679D01*
X011484Y021521D02*
X010048Y021521D01*
X010206Y021362D02*
X011092Y021362D01*
X010992Y021203D02*
X010365Y021203D01*
X009415Y019777D02*
X008222Y019777D01*
X008380Y019618D02*
X009406Y019618D01*
X009472Y019459D02*
X008539Y019459D01*
X008698Y019301D02*
X009413Y019301D01*
X009386Y019142D02*
X008856Y019142D01*
X008408Y017398D02*
X011513Y017398D01*
X011345Y017240D02*
X008285Y017240D01*
X008285Y017081D02*
X011302Y017081D01*
X011328Y016923D02*
X008285Y016923D01*
X008285Y016764D02*
X008954Y016764D01*
X008851Y016606D02*
X008285Y016606D01*
X008285Y016447D02*
X008818Y016447D01*
X008837Y016289D02*
X008285Y016289D01*
X008285Y016130D02*
X008921Y016130D01*
X009157Y015971D02*
X008285Y015971D01*
X008285Y015813D02*
X009360Y015813D01*
X009360Y015654D02*
X008285Y015654D01*
X008285Y015496D02*
X009246Y015496D01*
X009215Y015337D02*
X008285Y015337D01*
X008285Y015179D02*
X008517Y015179D01*
X008421Y015020D02*
X008285Y015020D01*
X008285Y014862D02*
X008408Y014862D01*
X008465Y014703D02*
X008479Y014689D01*
X008465Y014675D01*
X008408Y014537D01*
X008409Y014386D02*
X008285Y014386D01*
X009050Y015179D02*
X009255Y015179D01*
X009146Y015020D02*
X009402Y015020D01*
X009162Y014862D02*
X009909Y014862D01*
X009479Y014545D02*
X010393Y014545D01*
X010338Y014386D02*
X009505Y014386D01*
X009505Y014228D02*
X010338Y014228D01*
X010401Y014069D02*
X009505Y014069D01*
X009505Y013910D02*
X010548Y013910D01*
X011081Y013910D02*
X011230Y013910D01*
X011230Y013752D02*
X009505Y013752D01*
X009381Y013593D02*
X011230Y013593D01*
X011230Y013435D02*
X009223Y013435D01*
X009064Y013276D02*
X011230Y013276D01*
X011129Y013118D02*
X008906Y013118D01*
X008856Y012959D02*
X010971Y012959D01*
X010812Y012801D02*
X008856Y012801D01*
X008856Y012642D02*
X010319Y012642D01*
X010161Y012484D02*
X008856Y012484D01*
X008856Y012325D02*
X010010Y012325D01*
X010010Y012166D02*
X008856Y012166D01*
X008856Y012008D02*
X010010Y012008D01*
X010010Y011849D02*
X008909Y011849D01*
X008961Y011691D02*
X010010Y011691D01*
X010010Y011532D02*
X008945Y011532D01*
X008843Y011374D02*
X010070Y011374D01*
X010229Y011215D02*
X007381Y011215D01*
X007575Y011057D02*
X010387Y011057D01*
X010879Y011215D02*
X010912Y011215D01*
X011261Y011215D02*
X011580Y011215D01*
X011664Y011374D02*
X011420Y011374D01*
X011553Y011532D02*
X012077Y011532D01*
X012077Y011691D02*
X011747Y011691D01*
X011796Y011849D02*
X012077Y011849D01*
X012077Y012008D02*
X011775Y012008D01*
X011668Y012166D02*
X012147Y012166D01*
X012305Y012325D02*
X011755Y012325D01*
X011894Y012484D02*
X012372Y012484D01*
X012372Y012642D02*
X012052Y012642D01*
X012211Y012801D02*
X012372Y012801D01*
X012372Y012959D02*
X012222Y012959D01*
X012222Y013118D02*
X012372Y013118D01*
X012372Y013276D02*
X012222Y013276D01*
X012222Y013435D02*
X012372Y013435D01*
X012372Y013593D02*
X012222Y013593D01*
X012222Y013752D02*
X012372Y013752D01*
X012372Y013910D02*
X012222Y013910D01*
X012222Y014069D02*
X012372Y014069D01*
X012372Y014228D02*
X012222Y014228D01*
X012222Y014386D02*
X012372Y014386D01*
X012372Y014545D02*
X012222Y014545D01*
X012222Y014703D02*
X012292Y014703D01*
X012133Y014862D02*
X012075Y014862D01*
X011975Y015020D02*
X011917Y015020D01*
X011816Y015179D02*
X011758Y015179D01*
X011658Y015337D02*
X011600Y015337D01*
X011499Y015496D02*
X011441Y015496D01*
X011486Y015654D02*
X011356Y015654D01*
X011356Y015813D02*
X011486Y015813D01*
X011486Y015971D02*
X011280Y015971D01*
X011122Y016130D02*
X011486Y016130D01*
X011486Y016289D02*
X009753Y016289D01*
X009772Y016447D02*
X011486Y016447D01*
X011447Y016606D02*
X009739Y016606D01*
X009636Y016764D02*
X011443Y016764D01*
X011101Y017557D02*
X011930Y017557D01*
X012076Y017715D02*
X012089Y017715D01*
X011646Y017715D02*
X011259Y017715D01*
X011418Y017874D02*
X011520Y017874D01*
X012557Y017409D02*
X012908Y017761D01*
X013634Y017761D01*
X013541Y017668D01*
X013484Y017611D01*
X013034Y017611D01*
X012974Y017551D01*
X012734Y017551D01*
X012611Y017428D01*
X012557Y017373D01*
X012557Y017409D01*
X012557Y017398D02*
X012582Y017398D01*
X012704Y017557D02*
X012980Y017557D01*
X012863Y017715D02*
X013589Y017715D01*
X013669Y018301D02*
X013676Y018316D01*
X013676Y018465D01*
X013619Y018603D01*
X013513Y018708D01*
X013376Y018766D01*
X013226Y018766D01*
X013089Y018708D01*
X013061Y018681D01*
X013051Y018691D01*
X013137Y018777D01*
X013194Y018915D01*
X013194Y019064D01*
X013137Y019202D01*
X013031Y019308D01*
X012893Y019365D01*
X012859Y019365D01*
X012859Y019419D01*
X012802Y019556D01*
X012696Y019662D01*
X012559Y019719D01*
X012409Y019719D01*
X012272Y019662D01*
X012169Y019559D01*
X012067Y019662D01*
X011929Y019719D01*
X011836Y019719D01*
X011891Y019774D01*
X011891Y019894D01*
X012188Y020191D01*
X013778Y020191D01*
X013749Y020178D01*
X013643Y020073D01*
X013586Y019935D01*
X011932Y019935D01*
X011891Y019777D02*
X013590Y019777D01*
X013586Y019786D02*
X013643Y019648D01*
X013749Y019543D01*
X013886Y019486D01*
X014036Y019486D01*
X014111Y019517D01*
X014111Y019256D01*
X014111Y019082D01*
X014350Y018842D01*
X014349Y018840D01*
X014349Y018766D01*
X014336Y018766D01*
X014199Y018708D01*
X014093Y018603D01*
X014036Y018465D01*
X014036Y018316D01*
X014042Y018301D01*
X013669Y018301D01*
X013676Y018350D02*
X014036Y018350D01*
X014054Y018508D02*
X013658Y018508D01*
X013555Y018667D02*
X014157Y018667D01*
X014349Y018825D02*
X013156Y018825D01*
X013194Y018984D02*
X014209Y018984D01*
X014111Y019142D02*
X013161Y019142D01*
X013038Y019301D02*
X014111Y019301D01*
X014111Y019459D02*
X012842Y019459D01*
X012740Y019618D02*
X013673Y019618D01*
X013586Y019786D02*
X013586Y019935D01*
X013664Y020094D02*
X012091Y020094D01*
X012111Y019618D02*
X012228Y019618D01*
X013666Y016362D02*
X014097Y016362D01*
X014133Y016327D01*
X014617Y016327D01*
X014808Y016327D01*
X015159Y016678D01*
X015394Y016444D01*
X015245Y016382D01*
X015111Y016248D01*
X015038Y016073D01*
X015038Y015883D01*
X015111Y015708D01*
X015245Y015573D01*
X015421Y015501D01*
X015611Y015501D01*
X015786Y015573D01*
X015880Y015667D01*
X015974Y015573D01*
X016149Y015501D01*
X016339Y015501D01*
X016514Y015573D01*
X016648Y015708D01*
X016721Y015883D01*
X016721Y016073D01*
X016648Y016248D01*
X016597Y016299D01*
X017290Y016299D01*
X017451Y016139D01*
X017451Y015896D01*
X017451Y015706D01*
X017569Y015587D01*
X017704Y015453D01*
X017740Y015453D01*
X017760Y015404D01*
X017905Y015259D01*
X018055Y015197D01*
X017905Y015134D01*
X017880Y015110D01*
X017849Y015185D01*
X017715Y015319D01*
X017540Y015392D01*
X017350Y015392D01*
X017174Y015319D01*
X017040Y015185D01*
X016968Y015010D01*
X016968Y014820D01*
X017040Y014645D01*
X017134Y014551D01*
X017040Y014457D01*
X016968Y014282D01*
X016968Y014092D01*
X017040Y013916D01*
X017174Y013782D01*
X017350Y013709D01*
X017540Y013709D01*
X017681Y013768D01*
X017681Y013594D01*
X017701Y013547D01*
X016149Y011995D01*
X015463Y011995D01*
X015517Y012124D01*
X015517Y012273D01*
X015459Y012411D01*
X015363Y012507D01*
X015355Y012788D01*
X015393Y012788D01*
X015531Y012845D01*
X015637Y012951D01*
X015694Y013088D01*
X015694Y013218D01*
X016084Y013619D01*
X016110Y013593D01*
X016248Y013536D01*
X016397Y013536D01*
X016535Y013593D01*
X016641Y013699D01*
X016698Y013836D01*
X016698Y013986D01*
X016641Y014123D01*
X016535Y014229D01*
X016397Y014286D01*
X016248Y014286D01*
X016110Y014229D01*
X016022Y014141D01*
X015952Y014141D01*
X015951Y014140D01*
X015949Y014140D01*
X015883Y014072D01*
X015817Y014006D01*
X015817Y014004D01*
X015363Y013538D01*
X015244Y013538D01*
X015106Y013481D01*
X015001Y013375D01*
X014944Y013238D01*
X014944Y013117D01*
X014357Y013117D01*
X014298Y013058D01*
X014232Y013058D01*
X014272Y013155D01*
X014272Y013217D01*
X014276Y013216D01*
X014426Y013216D01*
X014563Y013273D01*
X014669Y013378D01*
X014726Y013516D01*
X014726Y013665D01*
X014669Y013803D01*
X014563Y013908D01*
X014426Y013966D01*
X014276Y013966D01*
X014139Y013908D01*
X014033Y013803D01*
X013976Y013665D01*
X013976Y013603D01*
X013972Y013605D01*
X013927Y013605D01*
X013927Y014997D01*
X013927Y015187D01*
X013494Y015620D01*
X013494Y016190D01*
X013666Y016362D01*
X013592Y016289D02*
X015151Y016289D01*
X015062Y016130D02*
X013494Y016130D01*
X013494Y015971D02*
X015038Y015971D01*
X015067Y015813D02*
X013494Y015813D01*
X013494Y015654D02*
X015164Y015654D01*
X015390Y016447D02*
X014928Y016447D01*
X015087Y016606D02*
X015232Y016606D01*
X015867Y015654D02*
X015893Y015654D01*
X016595Y015654D02*
X017502Y015654D01*
X017451Y015813D02*
X016692Y015813D01*
X016721Y015971D02*
X017451Y015971D01*
X017451Y016130D02*
X016697Y016130D01*
X016608Y016289D02*
X017301Y016289D01*
X017547Y017094D02*
X017556Y017116D01*
X017556Y017265D01*
X017499Y017403D01*
X017393Y017508D01*
X017256Y017566D01*
X017106Y017566D01*
X016976Y017511D01*
X016976Y017655D01*
X016919Y017793D01*
X016813Y017898D01*
X016811Y017899D01*
X016811Y018364D01*
X017078Y018631D01*
X017564Y018631D01*
X017681Y018631D01*
X017681Y018594D01*
X017737Y018460D01*
X017587Y018522D01*
X017421Y018522D01*
X017267Y018458D01*
X017149Y018341D01*
X017086Y018187D01*
X017086Y018021D01*
X017149Y017867D01*
X017267Y017749D01*
X017421Y017686D01*
X017587Y017686D01*
X017681Y017725D01*
X017681Y017594D01*
X017760Y017404D01*
X017848Y017316D01*
X017625Y017094D01*
X017547Y017094D01*
X017556Y017240D02*
X017771Y017240D01*
X017765Y017398D02*
X017501Y017398D01*
X017696Y017557D02*
X017276Y017557D01*
X017349Y017715D02*
X016951Y017715D01*
X016976Y017557D02*
X017086Y017557D01*
X017146Y017874D02*
X016838Y017874D01*
X016811Y018033D02*
X017086Y018033D01*
X017087Y018191D02*
X016811Y018191D01*
X016811Y018350D02*
X017158Y018350D01*
X016956Y018508D02*
X017387Y018508D01*
X017620Y018508D02*
X017717Y018508D01*
X017681Y017715D02*
X017658Y017715D01*
X018949Y019459D02*
X019168Y019459D01*
X019168Y019618D02*
X015545Y019618D01*
X015704Y019777D02*
X019227Y019777D01*
X019365Y019935D02*
X015966Y019935D01*
X015890Y020569D02*
X017223Y020569D01*
X017381Y020728D02*
X015956Y020728D01*
X015947Y020886D02*
X017540Y020886D01*
X017698Y021045D02*
X015857Y021045D01*
X015315Y021203D02*
X017857Y021203D01*
X018015Y021362D02*
X015156Y021362D01*
X014822Y022155D02*
X014784Y022155D01*
X014663Y022313D02*
X014625Y022313D01*
X014301Y023106D02*
X010001Y023106D01*
X010001Y023264D02*
X014301Y023264D01*
X014378Y023423D02*
X010001Y023423D01*
X010001Y023582D02*
X014537Y023582D01*
X013603Y025123D02*
X013466Y025066D01*
X013316Y025066D01*
X013179Y025123D01*
X013073Y025228D01*
X013016Y025366D01*
X013016Y025515D01*
X013073Y025653D01*
X013179Y025758D01*
X013316Y025816D01*
X013466Y025816D01*
X013603Y025758D01*
X013709Y025653D01*
X013766Y025515D01*
X013766Y025366D01*
X013709Y025228D01*
X013603Y025123D01*
X013648Y025167D02*
X017377Y025167D01*
X017384Y025008D02*
X010001Y025008D01*
X010001Y024850D02*
X017456Y024850D01*
X017672Y024691D02*
X010001Y024691D01*
X010001Y024533D02*
X018041Y024533D01*
X018041Y024691D02*
X017993Y024691D01*
X017917Y024374D02*
X010001Y024374D01*
X010001Y024216D02*
X017759Y024216D01*
X017600Y024057D02*
X010001Y024057D01*
X010001Y023899D02*
X017442Y023899D01*
X017283Y023740D02*
X010001Y023740D01*
X010001Y025167D02*
X013134Y025167D01*
X013033Y025326D02*
X010001Y025326D01*
X010001Y025484D02*
X013016Y025484D01*
X013069Y025643D02*
X010001Y025643D01*
X010001Y025801D02*
X013282Y025801D01*
X013500Y025801D02*
X017759Y025801D01*
X017767Y025643D02*
X013713Y025643D01*
X013766Y025484D02*
X017554Y025484D01*
X017425Y025326D02*
X013749Y025326D01*
X014102Y026000D02*
X013896Y026086D01*
X013739Y026243D01*
X013654Y026449D01*
X013654Y026672D01*
X013739Y026877D01*
X013896Y027035D01*
X014102Y027120D01*
X014325Y027120D01*
X014531Y027035D01*
X014688Y026877D01*
X014769Y026682D01*
X014787Y026737D01*
X014820Y026801D01*
X014863Y026860D01*
X014914Y026911D01*
X014973Y026954D01*
X015037Y026987D01*
X015106Y027009D01*
X015177Y027020D01*
X015179Y027020D01*
X015179Y026596D01*
X015249Y026596D01*
X015249Y027020D01*
X015250Y027020D01*
X015321Y027009D01*
X015390Y026987D01*
X015455Y026954D01*
X015513Y026911D01*
X015564Y026860D01*
X015607Y026801D01*
X015640Y026737D01*
X015662Y026668D01*
X015674Y026596D01*
X015674Y026595D01*
X015249Y026595D01*
X015249Y026525D01*
X015674Y026525D01*
X015674Y026524D01*
X015662Y026453D01*
X015640Y026384D01*
X015607Y026319D01*
X015564Y026261D01*
X015513Y026209D01*
X015455Y026167D01*
X015390Y026134D01*
X015321Y026112D01*
X015250Y026100D01*
X015249Y026100D01*
X015249Y026525D01*
X015179Y026525D01*
X015179Y026100D01*
X015177Y026100D01*
X015106Y026112D01*
X015037Y026134D01*
X014973Y026167D01*
X014914Y026209D01*
X014863Y026261D01*
X014820Y026319D01*
X014787Y026384D01*
X014769Y026439D01*
X014688Y026243D01*
X014531Y026086D01*
X014325Y026000D01*
X014102Y026000D01*
X013864Y026118D02*
X010001Y026118D01*
X010001Y025960D02*
X017825Y025960D01*
X018074Y026118D02*
X015342Y026118D01*
X015249Y026118D02*
X015179Y026118D01*
X015085Y026118D02*
X014564Y026118D01*
X014702Y026277D02*
X014851Y026277D01*
X014771Y026435D02*
X014768Y026435D01*
X014740Y026752D02*
X014795Y026752D01*
X014914Y026911D02*
X014655Y026911D01*
X014448Y027070D02*
X020562Y027070D01*
X020404Y026911D02*
X015513Y026911D01*
X015632Y026752D02*
X020266Y026752D01*
X020241Y026594D02*
X015249Y026594D01*
X015249Y026752D02*
X015179Y026752D01*
X015179Y026911D02*
X015249Y026911D01*
X015249Y026435D02*
X015179Y026435D01*
X015179Y026277D02*
X015249Y026277D01*
X015576Y026277D02*
X018127Y026277D01*
X018345Y026435D02*
X015657Y026435D01*
X013980Y027070D02*
X010156Y027070D01*
X010234Y026911D02*
X013772Y026911D01*
X013687Y026752D02*
X010246Y026752D01*
X010203Y026594D02*
X013654Y026594D01*
X013659Y026435D02*
X010080Y026435D01*
X010001Y026277D02*
X013725Y026277D01*
X015875Y023582D02*
X017125Y023582D01*
X017930Y023264D02*
X020028Y023264D01*
X019974Y023319D02*
X020109Y023184D01*
X020285Y023111D01*
X021076Y023111D01*
X021253Y023184D01*
X021388Y023319D01*
X021461Y023495D01*
X021461Y023686D01*
X021388Y023862D01*
X021253Y023997D01*
X021076Y024071D01*
X020285Y024071D01*
X020109Y023997D01*
X019974Y023862D01*
X019901Y023686D01*
X019901Y023495D01*
X019974Y023319D01*
X019931Y023423D02*
X018089Y023423D01*
X018248Y023582D02*
X019901Y023582D01*
X019923Y023740D02*
X018406Y023740D01*
X018565Y023899D02*
X020010Y023899D01*
X020253Y024057D02*
X018723Y024057D01*
X018856Y024216D02*
X020077Y024216D01*
X019951Y024374D02*
X018856Y024374D01*
X018856Y024533D02*
X019901Y024533D01*
X019903Y024691D02*
X018856Y024691D01*
X018856Y024850D02*
X019027Y024850D01*
X019384Y024850D02*
X019571Y024850D01*
X019841Y025111D02*
X019841Y025681D01*
X020501Y026341D01*
X020501Y026641D01*
X021311Y027451D01*
X021484Y027070D02*
X022176Y027070D01*
X022176Y027228D02*
X021671Y027228D01*
X021729Y027387D02*
X022176Y027387D01*
X022176Y027545D02*
X021724Y027545D01*
X021649Y027704D02*
X022176Y027704D01*
X022176Y026911D02*
X021139Y026911D01*
X020981Y026752D02*
X022176Y026752D01*
X022176Y026594D02*
X020822Y026594D01*
X020761Y026435D02*
X022176Y026435D01*
X022176Y026277D02*
X020756Y026277D01*
X020646Y026118D02*
X022176Y026118D01*
X022176Y025960D02*
X020488Y025960D01*
X020329Y025801D02*
X022176Y025801D01*
X022176Y025643D02*
X020171Y025643D01*
X020101Y025484D02*
X022176Y025484D01*
X022176Y025326D02*
X020156Y025326D01*
X020216Y025167D02*
X022176Y025167D01*
X022176Y025008D02*
X021226Y025008D01*
X021393Y024850D02*
X022176Y024850D01*
X022176Y024691D02*
X021459Y024691D01*
X021461Y024533D02*
X022176Y024533D01*
X022176Y024374D02*
X021411Y024374D01*
X021285Y024216D02*
X022176Y024216D01*
X022176Y024057D02*
X021109Y024057D01*
X021352Y023899D02*
X022176Y023899D01*
X022176Y023740D02*
X021439Y023740D01*
X021461Y023582D02*
X022176Y023582D01*
X022176Y023423D02*
X021431Y023423D01*
X021334Y023264D02*
X022176Y023264D01*
X022176Y023106D02*
X018056Y023106D01*
X018176Y022947D02*
X020059Y022947D01*
X020109Y022997D02*
X019974Y022862D01*
X019901Y022686D01*
X019901Y022495D01*
X019974Y022319D01*
X020109Y022184D01*
X020285Y022111D01*
X021076Y022111D01*
X021253Y022184D01*
X021388Y022319D01*
X021461Y022495D01*
X021461Y022686D01*
X021388Y022862D01*
X021253Y022997D01*
X021076Y023071D01*
X020285Y023071D01*
X020109Y022997D01*
X019944Y022789D02*
X018206Y022789D01*
X018166Y022630D02*
X019901Y022630D01*
X019911Y022472D02*
X018017Y022472D01*
X017650Y022313D02*
X019979Y022313D01*
X020179Y022155D02*
X017495Y022155D01*
X017341Y021996D02*
X022176Y021996D01*
X022176Y021838D02*
X017186Y021838D01*
X017032Y021679D02*
X020879Y021679D01*
X021143Y021679D02*
X022176Y021679D01*
X022176Y021521D02*
X021375Y021521D01*
X021454Y021362D02*
X022176Y021362D01*
X022176Y021203D02*
X021466Y021203D01*
X021423Y021045D02*
X022176Y021045D01*
X022176Y020886D02*
X021301Y020886D01*
X020721Y020886D02*
X018134Y020886D01*
X017975Y020728D02*
X022176Y020728D01*
X022176Y020569D02*
X017817Y020569D01*
X017658Y020411D02*
X022176Y020411D01*
X022176Y020252D02*
X017500Y020252D01*
X017341Y020094D02*
X020600Y020094D01*
X020663Y020157D02*
X020535Y020029D01*
X020465Y019861D01*
X020465Y019680D01*
X020535Y019512D01*
X020663Y019384D01*
X020830Y019315D01*
X021012Y019315D01*
X021179Y019384D01*
X021307Y019512D01*
X021376Y019680D01*
X021376Y019861D01*
X021307Y020029D01*
X021179Y020157D01*
X021012Y020226D01*
X020830Y020226D01*
X020663Y020157D01*
X020496Y019935D02*
X019926Y019935D01*
X020064Y019777D02*
X020465Y019777D01*
X020491Y019618D02*
X020123Y019618D01*
X020123Y019459D02*
X020588Y019459D01*
X020604Y018984D02*
X020503Y018984D01*
X020227Y018984D02*
X020170Y018984D01*
X020170Y019115D02*
X020170Y018727D01*
X019782Y018727D01*
X019782Y018732D01*
X019792Y018796D01*
X019813Y018859D01*
X019842Y018917D01*
X019881Y018970D01*
X019927Y019016D01*
X019980Y019055D01*
X020039Y019085D01*
X020101Y019105D01*
X020166Y019115D01*
X020170Y019115D01*
X020063Y019301D02*
X022176Y019301D01*
X022176Y019459D02*
X021254Y019459D01*
X021351Y019618D02*
X022176Y019618D01*
X022176Y019777D02*
X021376Y019777D01*
X021346Y019935D02*
X022176Y019935D01*
X022176Y020094D02*
X021242Y020094D01*
X021238Y018984D02*
X022176Y018984D01*
X022176Y019142D02*
X019922Y019142D01*
X019895Y018984D02*
X019640Y018984D01*
X019705Y018825D02*
X019802Y018825D01*
X019782Y018667D02*
X019715Y018667D01*
X019679Y018508D02*
X019828Y018508D01*
X020170Y018825D02*
X020227Y018825D01*
X020680Y018033D02*
X022176Y018033D01*
X022176Y018191D02*
X021272Y018191D01*
X021339Y018350D02*
X022176Y018350D01*
X022176Y018508D02*
X021339Y018508D01*
X021339Y018667D02*
X022176Y018667D01*
X022176Y018825D02*
X021339Y018825D01*
X020577Y017874D02*
X022176Y017874D01*
X022176Y017715D02*
X020227Y017715D01*
X020170Y017715D02*
X019715Y017715D01*
X019782Y017670D02*
X019782Y017666D01*
X019792Y017601D01*
X019813Y017539D01*
X019842Y017480D01*
X019881Y017427D01*
X019927Y017381D01*
X019980Y017343D01*
X020039Y017313D01*
X020101Y017293D01*
X020166Y017282D01*
X020170Y017282D01*
X020170Y017670D01*
X019782Y017670D01*
X019807Y017557D02*
X019699Y017557D01*
X019629Y017398D02*
X019910Y017398D01*
X020170Y017398D02*
X020227Y017398D01*
X020227Y017557D02*
X020170Y017557D01*
X020487Y017398D02*
X022176Y017398D01*
X022176Y017240D02*
X019440Y017240D01*
X019547Y017081D02*
X020032Y017081D01*
X020039Y017085D02*
X019980Y017055D01*
X019927Y017016D01*
X019881Y016970D01*
X019842Y016917D01*
X019813Y016859D01*
X019792Y016796D01*
X019782Y016732D01*
X019782Y016727D01*
X020170Y016727D01*
X020170Y016670D01*
X020227Y016670D01*
X020227Y016282D01*
X020231Y016282D01*
X020296Y016293D01*
X020359Y016313D01*
X020417Y016343D01*
X020470Y016381D01*
X020516Y016427D01*
X020555Y016480D01*
X020585Y016539D01*
X020605Y016601D01*
X020615Y016666D01*
X020615Y016670D01*
X020227Y016670D01*
X020227Y016727D01*
X020615Y016727D01*
X020615Y016732D01*
X020605Y016796D01*
X020585Y016859D01*
X020555Y016917D01*
X020516Y016970D01*
X020470Y017016D01*
X020417Y017055D01*
X020359Y017085D01*
X020296Y017105D01*
X020231Y017115D01*
X020227Y017115D01*
X020227Y016727D01*
X020170Y016727D01*
X020170Y017115D01*
X020166Y017115D01*
X020101Y017105D01*
X020039Y017085D01*
X020170Y017081D02*
X020227Y017081D01*
X020365Y017081D02*
X022176Y017081D01*
X022176Y016923D02*
X020551Y016923D01*
X020610Y016764D02*
X022176Y016764D01*
X022176Y016606D02*
X020606Y016606D01*
X020531Y016447D02*
X022176Y016447D01*
X022176Y016289D02*
X020271Y016289D01*
X020227Y016289D02*
X020170Y016289D01*
X020170Y016282D02*
X020170Y016670D01*
X019782Y016670D01*
X019782Y016666D01*
X019792Y016601D01*
X019813Y016539D01*
X019842Y016480D01*
X019881Y016427D01*
X019927Y016381D01*
X019980Y016343D01*
X020039Y016313D01*
X020101Y016293D01*
X020166Y016282D01*
X020170Y016282D01*
X020126Y016289D02*
X019519Y016289D01*
X019498Y016130D02*
X022176Y016130D01*
X022176Y015971D02*
X020515Y015971D01*
X020516Y015970D02*
X020470Y016016D01*
X020417Y016055D01*
X020359Y016085D01*
X020296Y016105D01*
X020231Y016115D01*
X020227Y016115D01*
X020227Y015727D01*
X020615Y015727D01*
X020615Y015732D01*
X020605Y015796D01*
X020585Y015859D01*
X020555Y015917D01*
X020516Y015970D01*
X020599Y015813D02*
X022176Y015813D01*
X022176Y015654D02*
X020613Y015654D01*
X020615Y015666D02*
X020615Y015670D01*
X020227Y015670D01*
X020227Y015282D01*
X020231Y015282D01*
X020296Y015293D01*
X020359Y015313D01*
X020417Y015343D01*
X020470Y015381D01*
X020516Y015427D01*
X020555Y015480D01*
X020585Y015539D01*
X020605Y015601D01*
X020615Y015666D01*
X020563Y015496D02*
X022176Y015496D01*
X022176Y015337D02*
X020407Y015337D01*
X020227Y015337D02*
X020170Y015337D01*
X020170Y015282D02*
X020170Y015670D01*
X020227Y015670D01*
X020227Y015727D01*
X020170Y015727D01*
X020170Y015670D01*
X019782Y015670D01*
X019782Y015666D01*
X019792Y015601D01*
X019813Y015539D01*
X019842Y015480D01*
X019881Y015427D01*
X019927Y015381D01*
X019980Y015343D01*
X020039Y015313D01*
X020101Y015293D01*
X020166Y015282D01*
X020170Y015282D01*
X020170Y015115D02*
X020166Y015115D01*
X020101Y015105D01*
X020039Y015085D01*
X019980Y015055D01*
X019927Y015016D01*
X019881Y014970D01*
X019842Y014917D01*
X019813Y014859D01*
X019792Y014796D01*
X019782Y014732D01*
X019782Y014727D01*
X020170Y014727D01*
X020170Y014670D01*
X020227Y014670D01*
X020227Y014282D01*
X020231Y014282D01*
X020296Y014293D01*
X020359Y014313D01*
X020417Y014343D01*
X020470Y014381D01*
X020516Y014427D01*
X020555Y014480D01*
X020585Y014539D01*
X020605Y014601D01*
X020615Y014666D01*
X020615Y014670D01*
X020227Y014670D01*
X020227Y014727D01*
X020615Y014727D01*
X020615Y014732D01*
X020605Y014796D01*
X020585Y014859D01*
X020555Y014917D01*
X020516Y014970D01*
X020470Y015016D01*
X020417Y015055D01*
X020359Y015085D01*
X020296Y015105D01*
X020231Y015115D01*
X020227Y015115D01*
X020227Y014727D01*
X020170Y014727D01*
X020170Y015115D01*
X020170Y015020D02*
X020227Y015020D01*
X020227Y014862D02*
X020170Y014862D01*
X020170Y014703D02*
X019715Y014703D01*
X019782Y014670D02*
X019782Y014666D01*
X019792Y014601D01*
X019813Y014539D01*
X019842Y014480D01*
X019881Y014427D01*
X019927Y014381D01*
X019980Y014343D01*
X020039Y014313D01*
X020101Y014293D01*
X020166Y014282D01*
X020170Y014282D01*
X020170Y014670D01*
X019782Y014670D01*
X019811Y014545D02*
X019694Y014545D01*
X019616Y014386D02*
X019922Y014386D01*
X020170Y014386D02*
X020227Y014386D01*
X020227Y014545D02*
X020170Y014545D01*
X020227Y014703D02*
X022176Y014703D01*
X022176Y014545D02*
X020586Y014545D01*
X020475Y014386D02*
X022176Y014386D01*
X022176Y014228D02*
X019411Y014228D01*
X019559Y014069D02*
X020008Y014069D01*
X019980Y014055D02*
X019927Y014016D01*
X019881Y013970D01*
X019842Y013917D01*
X019813Y013859D01*
X019792Y013796D01*
X019782Y013732D01*
X019782Y013727D01*
X020170Y013727D01*
X020170Y013670D01*
X020227Y013670D01*
X020227Y013282D01*
X020231Y013282D01*
X020296Y013293D01*
X020359Y013313D01*
X020417Y013343D01*
X020470Y013381D01*
X020516Y013427D01*
X020555Y013480D01*
X020585Y013539D01*
X020605Y013601D01*
X020615Y013666D01*
X020615Y013670D01*
X020227Y013670D01*
X020227Y013727D01*
X020615Y013727D01*
X020615Y013732D01*
X020605Y013796D01*
X020585Y013859D01*
X020555Y013917D01*
X020516Y013970D01*
X020470Y014016D01*
X020417Y014055D01*
X020359Y014085D01*
X020296Y014105D01*
X020231Y014115D01*
X020227Y014115D01*
X020227Y013727D01*
X020170Y013727D01*
X020170Y014115D01*
X020166Y014115D01*
X020101Y014105D01*
X020039Y014085D01*
X019980Y014055D01*
X020170Y014069D02*
X020227Y014069D01*
X020227Y013910D02*
X020170Y013910D01*
X020170Y013752D02*
X020227Y013752D01*
X020170Y013670D02*
X019782Y013670D01*
X019782Y013666D01*
X019792Y013601D01*
X019813Y013539D01*
X019842Y013480D01*
X019881Y013427D01*
X019927Y013381D01*
X019980Y013343D01*
X020039Y013313D01*
X020101Y013293D01*
X020166Y013282D01*
X020170Y013282D01*
X020170Y013670D01*
X020170Y013593D02*
X020227Y013593D01*
X020227Y013435D02*
X020170Y013435D01*
X019876Y013435D02*
X019648Y013435D01*
X019714Y013593D02*
X019795Y013593D01*
X019785Y013752D02*
X019715Y013752D01*
X019670Y013910D02*
X019839Y013910D01*
X020390Y014069D02*
X022176Y014069D01*
X022176Y013910D02*
X020558Y013910D01*
X020612Y013752D02*
X022176Y013752D01*
X022176Y013593D02*
X020602Y013593D01*
X020522Y013435D02*
X022176Y013435D01*
X022176Y013276D02*
X019507Y013276D01*
X019510Y013118D02*
X022176Y013118D01*
X022176Y012959D02*
X020524Y012959D01*
X020516Y012970D02*
X020470Y013016D01*
X020417Y013055D01*
X020359Y013085D01*
X020296Y013105D01*
X020231Y013115D01*
X020227Y013115D01*
X020227Y012727D01*
X020615Y012727D01*
X020615Y012732D01*
X020605Y012796D01*
X020585Y012859D01*
X020555Y012917D01*
X020516Y012970D01*
X020604Y012801D02*
X022176Y012801D01*
X022176Y012642D02*
X020611Y012642D01*
X020615Y012666D02*
X020615Y012670D01*
X020227Y012670D01*
X020227Y012282D01*
X020231Y012282D01*
X020296Y012293D01*
X020359Y012313D01*
X020417Y012343D01*
X020470Y012381D01*
X020516Y012427D01*
X020555Y012480D01*
X020585Y012539D01*
X020605Y012601D01*
X020615Y012666D01*
X020556Y012484D02*
X022176Y012484D01*
X022176Y012325D02*
X020382Y012325D01*
X020227Y012325D02*
X020170Y012325D01*
X020170Y012282D02*
X020170Y012670D01*
X020227Y012670D01*
X020227Y012727D01*
X020170Y012727D01*
X020170Y012670D01*
X019782Y012670D01*
X019782Y012666D01*
X019792Y012601D01*
X019813Y012539D01*
X019842Y012480D01*
X019881Y012427D01*
X019927Y012381D01*
X019980Y012343D01*
X020039Y012313D01*
X020101Y012293D01*
X020166Y012282D01*
X020170Y012282D01*
X020015Y012325D02*
X019555Y012325D01*
X019669Y012484D02*
X019841Y012484D01*
X019786Y012642D02*
X019715Y012642D01*
X019782Y012727D02*
X020170Y012727D01*
X020170Y013115D01*
X020166Y013115D01*
X020101Y013105D01*
X020039Y013085D01*
X019980Y013055D01*
X019927Y013016D01*
X019881Y012970D01*
X019842Y012917D01*
X019813Y012859D01*
X019792Y012796D01*
X019782Y012732D01*
X019782Y012727D01*
X019794Y012801D02*
X019715Y012801D01*
X019650Y012959D02*
X019873Y012959D01*
X020170Y012959D02*
X020227Y012959D01*
X020227Y012801D02*
X020170Y012801D01*
X020170Y012642D02*
X020227Y012642D01*
X020227Y012484D02*
X020170Y012484D01*
X020166Y012115D02*
X020101Y012105D01*
X020039Y012085D01*
X019980Y012055D01*
X019927Y012016D01*
X019881Y011970D01*
X019842Y011917D01*
X019813Y011859D01*
X019792Y011796D01*
X019782Y011732D01*
X019782Y011727D01*
X020170Y011727D01*
X020170Y011670D01*
X020227Y011670D01*
X020227Y011282D01*
X020231Y011282D01*
X020296Y011293D01*
X020359Y011313D01*
X020417Y011343D01*
X020470Y011381D01*
X020516Y011427D01*
X020555Y011480D01*
X020585Y011539D01*
X020605Y011601D01*
X020615Y011666D01*
X020615Y011670D01*
X020227Y011670D01*
X020227Y011727D01*
X020615Y011727D01*
X020615Y011732D01*
X020605Y011796D01*
X020585Y011859D01*
X020555Y011917D01*
X020516Y011970D01*
X020470Y012016D01*
X020417Y012055D01*
X020359Y012085D01*
X020296Y012105D01*
X020231Y012115D01*
X020227Y012115D01*
X020227Y011727D01*
X020170Y011727D01*
X020170Y012115D01*
X020166Y012115D01*
X020170Y012008D02*
X020227Y012008D01*
X020227Y011849D02*
X020170Y011849D01*
X020170Y011691D02*
X019715Y011691D01*
X019782Y011670D02*
X019782Y011666D01*
X019792Y011601D01*
X019813Y011539D01*
X019842Y011480D01*
X019881Y011427D01*
X019927Y011381D01*
X019980Y011343D01*
X020039Y011313D01*
X020101Y011293D01*
X020166Y011282D01*
X020170Y011282D01*
X020170Y011670D01*
X019782Y011670D01*
X019816Y011532D02*
X019689Y011532D01*
X019604Y011374D02*
X019937Y011374D01*
X020170Y011374D02*
X020227Y011374D01*
X020227Y011532D02*
X020170Y011532D01*
X020227Y011691D02*
X022176Y011691D01*
X022176Y011849D02*
X020588Y011849D01*
X020479Y012008D02*
X022176Y012008D01*
X022176Y012166D02*
X019419Y012166D01*
X019620Y012008D02*
X019919Y012008D01*
X019810Y011849D02*
X019695Y011849D01*
X019381Y011215D02*
X022176Y011215D01*
X022176Y011057D02*
X020414Y011057D01*
X020417Y011055D02*
X020359Y011085D01*
X020296Y011105D01*
X020231Y011115D01*
X020227Y011115D01*
X020227Y010727D01*
X020615Y010727D01*
X020615Y010732D01*
X020605Y010796D01*
X020585Y010859D01*
X020555Y010917D01*
X020516Y010970D01*
X020470Y011016D01*
X020417Y011055D01*
X020227Y011057D02*
X020170Y011057D01*
X020170Y011115D02*
X020166Y011115D01*
X020101Y011105D01*
X020039Y011085D01*
X019980Y011055D01*
X019927Y011016D01*
X019881Y010970D01*
X019842Y010917D01*
X019813Y010859D01*
X019792Y010796D01*
X019782Y010732D01*
X019782Y010727D01*
X020170Y010727D01*
X020170Y010670D01*
X020227Y010670D01*
X020227Y010282D01*
X020231Y010282D01*
X020296Y010293D01*
X020359Y010313D01*
X020417Y010343D01*
X020470Y010381D01*
X020516Y010427D01*
X020555Y010480D01*
X020585Y010539D01*
X020605Y010601D01*
X020615Y010666D01*
X020615Y010670D01*
X020227Y010670D01*
X020227Y010727D01*
X020170Y010727D01*
X020170Y011115D01*
X019983Y011057D02*
X019571Y011057D01*
X019675Y010898D02*
X019833Y010898D01*
X019783Y010740D02*
X019715Y010740D01*
X019782Y010670D02*
X019782Y010666D01*
X019792Y010601D01*
X019813Y010539D01*
X019842Y010480D01*
X019881Y010427D01*
X019927Y010381D01*
X019980Y010343D01*
X020039Y010313D01*
X020101Y010293D01*
X020166Y010282D01*
X020170Y010282D01*
X020170Y010670D01*
X019782Y010670D01*
X019799Y010581D02*
X019709Y010581D01*
X019643Y010422D02*
X019886Y010422D01*
X020170Y010422D02*
X020227Y010422D01*
X020227Y010581D02*
X020170Y010581D01*
X020170Y010740D02*
X020227Y010740D01*
X020227Y010898D02*
X020170Y010898D01*
X020511Y010422D02*
X022176Y010422D01*
X022176Y010264D02*
X019494Y010264D01*
X019522Y010105D02*
X020103Y010105D01*
X020101Y010105D02*
X020039Y010085D01*
X019980Y010055D01*
X019927Y010016D01*
X019881Y009970D01*
X019842Y009917D01*
X019813Y009859D01*
X019792Y009796D01*
X019782Y009732D01*
X019782Y009727D01*
X020170Y009727D01*
X020170Y009670D01*
X020227Y009670D01*
X020227Y009282D01*
X020231Y009282D01*
X020296Y009293D01*
X020359Y009313D01*
X020417Y009343D01*
X020470Y009381D01*
X020516Y009427D01*
X020555Y009480D01*
X020585Y009539D01*
X020605Y009601D01*
X020615Y009666D01*
X020615Y009670D01*
X020227Y009670D01*
X020227Y009727D01*
X020615Y009727D01*
X020615Y009732D01*
X020605Y009796D01*
X020585Y009859D01*
X020555Y009917D01*
X020516Y009970D01*
X020470Y010016D01*
X020417Y010055D01*
X020359Y010085D01*
X020296Y010105D01*
X020231Y010115D01*
X020227Y010115D01*
X020227Y009727D01*
X020170Y009727D01*
X020170Y010115D01*
X020166Y010115D01*
X020101Y010105D01*
X020170Y010105D02*
X020227Y010105D01*
X020294Y010105D02*
X022176Y010105D01*
X022176Y009947D02*
X020533Y009947D01*
X020606Y009788D02*
X022176Y009788D01*
X022176Y009630D02*
X020609Y009630D01*
X020548Y009471D02*
X022176Y009471D01*
X022176Y009313D02*
X020358Y009313D01*
X020227Y009313D02*
X020170Y009313D01*
X020170Y009282D02*
X020170Y009670D01*
X019782Y009670D01*
X019782Y009666D01*
X019792Y009601D01*
X019813Y009539D01*
X019842Y009480D01*
X019881Y009427D01*
X019927Y009381D01*
X019980Y009343D01*
X020039Y009313D01*
X019543Y009313D01*
X019449Y009154D02*
X022176Y009154D01*
X022176Y008996D02*
X020491Y008996D01*
X020470Y009016D02*
X020417Y009055D01*
X020359Y009085D01*
X020296Y009105D01*
X020231Y009115D01*
X020227Y009115D01*
X020227Y008727D01*
X020615Y008727D01*
X020615Y008732D01*
X020605Y008796D01*
X020585Y008859D01*
X020555Y008917D01*
X020516Y008970D01*
X020470Y009016D01*
X020592Y008837D02*
X022176Y008837D01*
X022176Y008679D02*
X020227Y008679D01*
X020227Y008670D02*
X020227Y008727D01*
X020170Y008727D01*
X020170Y008670D01*
X020227Y008670D01*
X020227Y008282D01*
X020231Y008282D01*
X020296Y008293D01*
X020359Y008313D01*
X020417Y008343D01*
X020470Y008381D01*
X020516Y008427D01*
X020555Y008480D01*
X020585Y008539D01*
X020605Y008601D01*
X020615Y008666D01*
X020615Y008670D01*
X020227Y008670D01*
X020170Y008670D02*
X020170Y008282D01*
X020166Y008282D01*
X020101Y008293D01*
X020039Y008313D01*
X019980Y008343D01*
X019927Y008381D01*
X019881Y008427D01*
X019842Y008480D01*
X019813Y008539D01*
X019792Y008601D01*
X019782Y008666D01*
X019782Y008670D01*
X020170Y008670D01*
X020170Y008679D02*
X019715Y008679D01*
X019782Y008727D02*
X020170Y008727D01*
X020170Y009115D01*
X020166Y009115D01*
X020101Y009105D01*
X020039Y009085D01*
X019980Y009055D01*
X019927Y009016D01*
X019881Y008970D01*
X019842Y008917D01*
X019813Y008859D01*
X019792Y008796D01*
X019782Y008732D01*
X019782Y008727D01*
X019806Y008837D02*
X019700Y008837D01*
X019632Y008996D02*
X019906Y008996D01*
X020170Y008996D02*
X020227Y008996D01*
X020227Y008837D02*
X020170Y008837D01*
X020170Y008520D02*
X020227Y008520D01*
X020227Y008361D02*
X020170Y008361D01*
X019954Y008361D02*
X019592Y008361D01*
X019684Y008520D02*
X019822Y008520D01*
X020039Y008085D02*
X019980Y008055D01*
X019927Y008016D01*
X019881Y007970D01*
X019842Y007917D01*
X019813Y007859D01*
X019792Y007796D01*
X019782Y007732D01*
X019782Y007727D01*
X020170Y007727D01*
X020170Y007670D01*
X020227Y007670D01*
X020227Y007282D01*
X020231Y007282D01*
X020296Y007293D01*
X020359Y007313D01*
X020417Y007343D01*
X020470Y007381D01*
X020516Y007427D01*
X020555Y007480D01*
X020585Y007539D01*
X020605Y007601D01*
X020615Y007666D01*
X020615Y007670D01*
X020227Y007670D01*
X020227Y007727D01*
X020615Y007727D01*
X020615Y007732D01*
X020605Y007796D01*
X020585Y007859D01*
X020555Y007917D01*
X020516Y007970D01*
X020470Y008016D01*
X020417Y008055D01*
X020359Y008085D01*
X020296Y008105D01*
X020231Y008115D01*
X020227Y008115D01*
X020227Y007727D01*
X020170Y007727D01*
X020170Y008115D01*
X020166Y008115D01*
X020101Y008105D01*
X020039Y008085D01*
X019966Y008044D02*
X019584Y008044D01*
X019680Y007886D02*
X019826Y007886D01*
X019782Y007727D02*
X019715Y007727D01*
X019782Y007670D02*
X019782Y007666D01*
X019792Y007601D01*
X019813Y007539D01*
X019842Y007480D01*
X019881Y007427D01*
X019927Y007381D01*
X019980Y007343D01*
X020039Y007313D01*
X020101Y007293D01*
X020166Y007282D01*
X020170Y007282D01*
X020170Y007670D01*
X019782Y007670D01*
X019803Y007569D02*
X019704Y007569D01*
X019638Y007410D02*
X019898Y007410D01*
X020170Y007410D02*
X020227Y007410D01*
X020227Y007569D02*
X020170Y007569D01*
X020170Y007886D02*
X020227Y007886D01*
X020227Y008044D02*
X020170Y008044D01*
X020432Y008044D02*
X022176Y008044D01*
X022176Y007886D02*
X020571Y007886D01*
X020615Y007727D02*
X022176Y007727D01*
X022176Y007569D02*
X020594Y007569D01*
X020499Y007410D02*
X022176Y007410D01*
X022176Y007252D02*
X019469Y007252D01*
X018928Y007252D02*
X018473Y007252D01*
X018638Y007410D02*
X018759Y007410D01*
X019029Y006459D02*
X022176Y006459D01*
X022176Y006617D02*
X014965Y006617D01*
X014938Y006776D02*
X022176Y006776D01*
X022176Y006935D02*
X014938Y006935D01*
X014938Y007093D02*
X022176Y007093D01*
X022176Y006300D02*
X019114Y006300D01*
X019119Y006142D02*
X022176Y006142D01*
X022176Y005983D02*
X019043Y005983D01*
X018458Y006459D02*
X015124Y006459D01*
X014790Y006142D02*
X013328Y006142D01*
X013486Y006300D02*
X014632Y006300D01*
X014479Y006459D02*
X013541Y006459D01*
X013541Y006617D02*
X014002Y006617D01*
X014160Y006617D02*
X014479Y006617D01*
X014479Y006776D02*
X014397Y006776D01*
X014456Y006935D02*
X014479Y006935D01*
X014882Y007252D02*
X017922Y007252D01*
X017757Y007410D02*
X014801Y007410D01*
X014959Y007569D02*
X017692Y007569D01*
X017681Y007727D02*
X015064Y007727D01*
X015083Y007886D02*
X017717Y007886D01*
X017815Y008044D02*
X015033Y008044D01*
X014832Y008203D02*
X018040Y008203D01*
X017802Y008361D02*
X014779Y008361D01*
X014938Y008520D02*
X017712Y008520D01*
X017681Y008679D02*
X015096Y008679D01*
X015194Y008837D02*
X017697Y008837D01*
X017766Y008996D02*
X015194Y008996D01*
X015194Y009154D02*
X017953Y009154D01*
X017851Y009313D02*
X015194Y009313D01*
X015194Y009471D02*
X017732Y009471D01*
X017681Y009630D02*
X015194Y009630D01*
X015194Y009788D02*
X017681Y009788D01*
X017742Y009947D02*
X015194Y009947D01*
X015194Y010105D02*
X017876Y010105D01*
X017900Y010264D02*
X015194Y010264D01*
X015194Y010422D02*
X017752Y010422D01*
X017686Y010581D02*
X015194Y010581D01*
X015194Y010740D02*
X017681Y010740D01*
X017722Y010898D02*
X015194Y010898D01*
X015468Y012008D02*
X016161Y012008D01*
X016320Y012166D02*
X015517Y012166D01*
X015495Y012325D02*
X016478Y012325D01*
X016637Y012484D02*
X015387Y012484D01*
X015359Y012642D02*
X016795Y012642D01*
X016954Y012801D02*
X015424Y012801D01*
X015640Y012959D02*
X017113Y012959D01*
X017271Y013118D02*
X015694Y013118D01*
X015750Y013276D02*
X017430Y013276D01*
X017588Y013435D02*
X015904Y013435D01*
X016059Y013593D02*
X016110Y013593D01*
X015880Y014069D02*
X013927Y014069D01*
X013927Y014228D02*
X016109Y014228D01*
X016536Y014228D02*
X016968Y014228D01*
X016977Y014069D02*
X016663Y014069D01*
X016698Y013910D02*
X017046Y013910D01*
X017247Y013752D02*
X016663Y013752D01*
X016535Y013593D02*
X017681Y013593D01*
X017681Y013752D02*
X017642Y013752D01*
X017011Y014386D02*
X013927Y014386D01*
X013927Y014545D02*
X017128Y014545D01*
X017016Y014703D02*
X013927Y014703D01*
X013927Y014862D02*
X016968Y014862D01*
X016972Y015020D02*
X013927Y015020D01*
X013927Y015179D02*
X017038Y015179D01*
X017218Y015337D02*
X013777Y015337D01*
X013618Y015496D02*
X017661Y015496D01*
X017672Y015337D02*
X017826Y015337D01*
X017852Y015179D02*
X018012Y015179D01*
X019390Y015179D02*
X022176Y015179D01*
X022176Y015020D02*
X020465Y015020D01*
X020583Y014862D02*
X022176Y014862D01*
X022176Y017557D02*
X020590Y017557D01*
X020227Y016923D02*
X020170Y016923D01*
X020170Y016764D02*
X020227Y016764D01*
X020227Y016606D02*
X020170Y016606D01*
X020170Y016447D02*
X020227Y016447D01*
X020170Y016115D02*
X020166Y016115D01*
X020101Y016105D01*
X020039Y016085D01*
X019980Y016055D01*
X019927Y016016D01*
X019881Y015970D01*
X019842Y015917D01*
X019813Y015859D01*
X019792Y015796D01*
X019782Y015732D01*
X019782Y015727D01*
X020170Y015727D01*
X020170Y016115D01*
X020170Y015971D02*
X020227Y015971D01*
X020227Y015813D02*
X020170Y015813D01*
X020170Y015654D02*
X020227Y015654D01*
X020227Y015496D02*
X020170Y015496D01*
X019991Y015337D02*
X019568Y015337D01*
X019674Y015496D02*
X019834Y015496D01*
X019784Y015654D02*
X019715Y015654D01*
X019710Y015813D02*
X019798Y015813D01*
X019882Y015971D02*
X019645Y015971D01*
X019653Y016447D02*
X019867Y016447D01*
X019792Y016606D02*
X019715Y016606D01*
X019715Y016764D02*
X019787Y016764D01*
X019846Y016923D02*
X019665Y016923D01*
X019685Y017874D02*
X019820Y017874D01*
X019228Y019301D02*
X019108Y019301D01*
X020647Y021521D02*
X016878Y021521D01*
X015338Y019531D02*
X015338Y019531D01*
X015726Y013910D02*
X014559Y013910D01*
X014690Y013752D02*
X015571Y013752D01*
X015417Y013593D02*
X014726Y013593D01*
X014692Y013435D02*
X015060Y013435D01*
X014960Y013276D02*
X014567Y013276D01*
X014257Y013118D02*
X014944Y013118D01*
X014143Y013910D02*
X013927Y013910D01*
X013927Y013752D02*
X014012Y013752D01*
X012396Y010898D02*
X012249Y010898D01*
X011954Y010740D02*
X012555Y010740D01*
X012713Y010581D02*
X011934Y010581D01*
X011924Y010422D02*
X013370Y010422D01*
X013346Y010264D02*
X011973Y010264D01*
X011953Y010105D02*
X013392Y010105D01*
X013448Y009947D02*
X011846Y009947D01*
X011351Y009947D02*
X010985Y009947D01*
X011053Y009918D02*
X010916Y009976D01*
X010766Y009976D01*
X010629Y009918D01*
X010523Y009813D01*
X010466Y009675D01*
X010466Y009526D01*
X010523Y009388D01*
X010629Y009283D01*
X010766Y009226D01*
X010916Y009226D01*
X011053Y009283D01*
X011159Y009388D01*
X011216Y009526D01*
X011216Y009675D01*
X011159Y009813D01*
X011053Y009918D01*
X011169Y009788D02*
X012989Y009788D01*
X012891Y009630D02*
X011216Y009630D01*
X011193Y009471D02*
X012877Y009471D01*
X012932Y009313D02*
X011083Y009313D01*
X010598Y009313D02*
X007545Y009313D01*
X007454Y009154D02*
X013158Y009154D01*
X013146Y008996D02*
X013200Y008996D01*
X012688Y008996D02*
X012006Y008996D01*
X011983Y009018D02*
X011846Y009076D01*
X011696Y009076D01*
X011559Y009018D01*
X011453Y008913D01*
X011396Y008775D01*
X011396Y008626D01*
X011453Y008488D01*
X011559Y008383D01*
X011696Y008326D01*
X011846Y008326D01*
X011983Y008383D01*
X012089Y008488D01*
X012146Y008626D01*
X012146Y008775D01*
X012089Y008913D01*
X011983Y009018D01*
X012120Y008837D02*
X012570Y008837D01*
X012542Y008679D02*
X012146Y008679D01*
X012102Y008520D02*
X012584Y008520D01*
X012741Y008361D02*
X011932Y008361D01*
X011610Y008361D02*
X007593Y008361D01*
X007686Y008520D02*
X011440Y008520D01*
X011396Y008679D02*
X007718Y008679D01*
X007704Y008837D02*
X011422Y008837D01*
X011536Y008996D02*
X007636Y008996D01*
X007666Y009471D02*
X010489Y009471D01*
X010466Y009630D02*
X007718Y009630D01*
X007718Y009788D02*
X010513Y009788D01*
X010697Y009947D02*
X007658Y009947D01*
X007526Y010105D02*
X007846Y010105D01*
X007763Y010264D02*
X007496Y010264D01*
X007646Y010422D02*
X007759Y010422D01*
X007711Y010581D02*
X007836Y010581D01*
X007718Y010740D02*
X008200Y010740D01*
X008359Y010898D02*
X007678Y010898D01*
X007606Y011374D02*
X007877Y011374D01*
X007775Y011532D02*
X007691Y011532D01*
X007718Y011691D02*
X007759Y011691D01*
X007812Y011849D02*
X007699Y011849D01*
X007766Y012008D02*
X007624Y012008D01*
X007759Y012166D02*
X007425Y012166D01*
X007557Y012325D02*
X007828Y012325D01*
X007996Y012484D02*
X008002Y012484D01*
X008533Y010422D02*
X010943Y010422D01*
X011101Y010264D02*
X008505Y010264D01*
X008421Y010105D02*
X011244Y010105D01*
X013084Y008203D02*
X007351Y008203D01*
X007587Y008044D02*
X013242Y008044D01*
X013140Y008146D02*
X013140Y008146D01*
X013617Y007886D02*
X007683Y007886D01*
X007718Y007727D02*
X013776Y007727D01*
X013934Y007569D02*
X007706Y007569D01*
X007640Y007410D02*
X013222Y007410D01*
X013399Y007410D02*
X014093Y007410D01*
X013812Y007252D02*
X013629Y007252D01*
X013686Y007093D02*
X013718Y007093D01*
X013706Y006935D02*
X013673Y006935D01*
X013765Y006776D02*
X013576Y006776D01*
X013081Y006617D02*
X011056Y006617D01*
X010526Y006617D02*
X007950Y006617D01*
X007997Y006459D02*
X010430Y006459D01*
X010416Y006300D02*
X007974Y006300D01*
X007863Y006142D02*
X010472Y006142D01*
X011576Y005983D02*
X011597Y005983D01*
X011559Y005825D02*
X022176Y005825D01*
X022176Y008203D02*
X019351Y008203D01*
X020039Y009313D02*
X020101Y009293D01*
X020166Y009282D01*
X020170Y009282D01*
X020170Y009471D02*
X020227Y009471D01*
X020227Y009630D02*
X020170Y009630D01*
X020170Y009788D02*
X020227Y009788D01*
X020227Y009947D02*
X020170Y009947D01*
X019864Y009947D02*
X019655Y009947D01*
X019715Y009788D02*
X019791Y009788D01*
X019788Y009630D02*
X019715Y009630D01*
X019663Y009471D02*
X019849Y009471D01*
X020575Y008520D02*
X022176Y008520D01*
X022176Y008361D02*
X020443Y008361D01*
X020598Y010581D02*
X022176Y010581D01*
X022176Y010740D02*
X020614Y010740D01*
X020565Y010898D02*
X022176Y010898D01*
X022176Y011374D02*
X020460Y011374D01*
X020581Y011532D02*
X022176Y011532D01*
X019814Y014862D02*
X019690Y014862D01*
X019608Y015020D02*
X019932Y015020D01*
X017702Y011849D02*
X017362Y011849D01*
X017203Y011691D02*
X017681Y011691D01*
X017707Y011532D02*
X017045Y011532D01*
X016886Y011374D02*
X017790Y011374D01*
X018010Y011215D02*
X016728Y011215D01*
X016569Y011057D02*
X017827Y011057D01*
X014949Y005983D02*
X013169Y005983D01*
X012994Y006459D02*
X011772Y006459D01*
X012936Y007093D02*
X007387Y007093D01*
X007443Y006935D02*
X012949Y006935D01*
X013045Y006776D02*
X007768Y006776D01*
X007469Y007252D02*
X012992Y007252D01*
X011229Y014069D02*
X011230Y014069D01*
X010527Y014703D02*
X009320Y014703D01*
X010532Y014862D02*
X010696Y014862D01*
X006092Y023899D02*
X005372Y023899D01*
X005129Y024057D02*
X006056Y024057D01*
X006089Y024216D02*
X005305Y024216D01*
X005431Y024374D02*
X006214Y024374D01*
X009355Y026594D02*
X009379Y026594D01*
X009335Y026752D02*
X009316Y026752D01*
X009304Y026911D02*
X009348Y026911D01*
X009426Y027070D02*
X009226Y027070D01*
X003186Y028338D02*
X017501Y028338D01*
X017654Y028496D02*
X003186Y028496D01*
X018204Y028496D02*
X019406Y028496D01*
X019253Y028338D02*
X018357Y028338D01*
X018422Y028179D02*
X019187Y028179D01*
X019184Y028021D02*
X018426Y028021D01*
X018380Y027862D02*
X019230Y027862D01*
X019347Y027704D02*
X018263Y027704D01*
X018552Y026435D02*
X020228Y026435D01*
X020070Y026277D02*
X018770Y026277D01*
X018824Y026118D02*
X019911Y026118D01*
X019752Y025960D02*
X019072Y025960D01*
X019139Y025801D02*
X019610Y025801D01*
X019581Y025643D02*
X019476Y025643D01*
X021303Y022947D02*
X022176Y022947D01*
X022176Y022789D02*
X021418Y022789D01*
X021461Y022630D02*
X022176Y022630D01*
X022176Y022472D02*
X021451Y022472D01*
X021382Y022313D02*
X022176Y022313D01*
X022176Y022155D02*
X021183Y022155D01*
D24*
X017832Y025118D03*
X021311Y027451D03*
X017504Y018104D03*
D25*
X020921Y018571D03*
M02*
