G75*
G70*
%OFA0B0*%
%FSLAX24Y24*%
%IPPOS*%
%LPD*%
%AMOC8*
5,1,8,0,0,1.08239X$1,22.5*
%
%ADD10R,0.0180X0.0030*%
%ADD11R,0.0270X0.0030*%
%ADD12R,0.0210X0.0030*%
%ADD13R,0.0150X0.0030*%
%ADD14R,0.0240X0.0030*%
%ADD15R,0.0120X0.0030*%
%ADD16R,0.0360X0.0030*%
%ADD17R,0.0450X0.0030*%
%ADD18R,0.0330X0.0030*%
%ADD19R,0.0420X0.0030*%
%ADD20R,0.0480X0.0030*%
%ADD21R,0.0390X0.0030*%
%ADD22R,0.0090X0.0030*%
%ADD23R,0.0030X0.0030*%
%ADD24R,0.0300X0.0030*%
%ADD25R,0.0510X0.0030*%
%ADD26R,0.0540X0.0030*%
%ADD27R,0.0570X0.0030*%
%ADD28R,0.0060X0.0030*%
%ADD29C,0.0040*%
%ADD30C,0.0100*%
%ADD31C,0.0080*%
%ADD32R,0.5340X0.1950*%
%ADD33C,0.0020*%
%ADD34R,0.0600X0.0030*%
%ADD35R,0.0750X0.0030*%
%ADD36R,0.1230X0.0030*%
%ADD37R,0.1740X0.0030*%
%ADD38R,0.1050X0.0030*%
%ADD39R,0.1410X0.0030*%
%ADD40R,0.1650X0.0030*%
%ADD41R,0.1080X0.0030*%
%ADD42R,0.0930X0.0030*%
%ADD43R,0.0660X0.0030*%
D10*
X003476Y025411D03*
X003716Y025411D03*
X003716Y025711D03*
X004016Y025711D03*
X004046Y025651D03*
X004046Y025471D03*
X004016Y025411D03*
X004556Y026371D03*
X004526Y026401D03*
X004526Y026671D03*
X004256Y026641D03*
X003926Y026671D03*
X004856Y026641D03*
X004856Y026401D03*
X004826Y026371D03*
X005216Y026371D03*
X005216Y026401D03*
X005216Y026431D03*
X005216Y026461D03*
X005216Y026491D03*
X005216Y026521D03*
X005216Y026551D03*
X005216Y026581D03*
X005216Y026611D03*
X005216Y026341D03*
X005216Y026311D03*
X005216Y026281D03*
X005216Y026251D03*
X005486Y026401D03*
X005816Y026401D03*
X005816Y026371D03*
X006086Y026641D03*
X006416Y026641D03*
X006416Y026401D03*
X006386Y026371D03*
X006716Y026281D03*
X006716Y026251D03*
X006776Y025891D03*
X006776Y025861D03*
X006776Y025831D03*
X006776Y025801D03*
X006896Y025561D03*
X006866Y025531D03*
X006866Y025501D03*
X006836Y025471D03*
X006836Y025441D03*
X006806Y025411D03*
X006806Y025381D03*
X006776Y025321D03*
X006746Y025291D03*
X006476Y025411D03*
X006506Y025471D03*
X006506Y025651D03*
X006476Y025711D03*
X006176Y025711D03*
X006146Y025621D03*
X006176Y025411D03*
X005876Y025411D03*
X005876Y025711D03*
X005546Y025681D03*
X005516Y025591D03*
X005516Y025561D03*
X005546Y025441D03*
X005576Y025411D03*
X005306Y025441D03*
X005276Y025411D03*
X005006Y025411D03*
X004976Y025681D03*
X005306Y025711D03*
X005336Y027241D03*
X005366Y027271D03*
X005336Y027301D03*
X005306Y027301D03*
X005306Y027271D03*
X005276Y027271D03*
X005246Y027301D03*
X005276Y027331D03*
X004736Y028201D03*
X004766Y028231D03*
X004736Y028261D03*
X004706Y028261D03*
X004706Y028231D03*
X004676Y028231D03*
X004646Y028261D03*
X004676Y028291D03*
X005366Y028501D03*
X005396Y028531D03*
X005426Y028501D03*
X005426Y028471D03*
X005396Y028471D03*
X005396Y028441D03*
X005426Y028411D03*
X005456Y028441D03*
X005516Y028651D03*
X005546Y028681D03*
X005516Y028711D03*
X005516Y028741D03*
X005486Y028771D03*
X005456Y028741D03*
X005486Y028711D03*
X005486Y028681D03*
X005486Y028891D03*
X005516Y028921D03*
X005516Y028921D03*
X005546Y028951D03*
X005516Y028981D03*
X005486Y028951D03*
X005486Y028951D03*
X005456Y028921D03*
X005396Y029101D03*
X005426Y029131D03*
X005426Y029161D03*
X005396Y029161D03*
X005396Y029191D03*
X005426Y029221D03*
X005456Y029191D03*
X005366Y029131D03*
X005156Y029431D03*
X005186Y029461D03*
X005156Y029491D03*
X005126Y029461D03*
X005726Y029371D03*
X005756Y029371D03*
X005756Y029401D03*
X005786Y029371D03*
X005786Y029341D03*
X005756Y029341D03*
X005756Y029341D03*
X005726Y029341D03*
X005726Y029311D03*
X005756Y029311D03*
X005756Y029311D03*
X005786Y029311D03*
X005786Y029281D03*
X005756Y029281D03*
X005756Y029281D03*
X005726Y029281D03*
X005726Y029251D03*
X005756Y029251D03*
X005786Y029251D03*
X005756Y029221D03*
X005996Y029011D03*
X006026Y028981D03*
X006026Y028981D03*
X006056Y028951D03*
X006026Y028921D03*
X005996Y028951D03*
X005996Y028951D03*
X005966Y028981D03*
X006056Y028861D03*
X006056Y028831D03*
X006086Y028831D03*
X006086Y028801D03*
X006056Y028801D03*
X006026Y028801D03*
X006026Y028831D03*
X006056Y028771D03*
X006026Y028741D03*
X006026Y028711D03*
X006056Y028711D03*
X006056Y028681D03*
X006026Y028681D03*
X005996Y028681D03*
X005996Y028681D03*
X005996Y028711D03*
X006026Y028651D03*
X006026Y028651D03*
X005996Y028621D03*
X005966Y028651D03*
X006116Y028531D03*
X006146Y028501D03*
X006116Y028471D03*
X006086Y028501D03*
X005816Y028351D03*
X005786Y028381D03*
X005756Y028351D03*
X005786Y028321D03*
X006206Y027301D03*
X006236Y027271D03*
X006206Y027241D03*
X006176Y027271D03*
X006746Y028171D03*
X006776Y028201D03*
X006776Y028231D03*
X006746Y028231D03*
X006716Y028201D03*
X006806Y028201D03*
X006836Y028231D03*
X006806Y028261D03*
X006626Y028441D03*
X006656Y028471D03*
X006626Y028501D03*
X006596Y028471D03*
X006746Y028561D03*
X006776Y028591D03*
X006806Y028561D03*
X006776Y028531D03*
X006416Y029401D03*
X006446Y029431D03*
X006416Y029461D03*
X006386Y029431D03*
X006986Y026731D03*
X006956Y026671D03*
X006926Y026611D03*
X006896Y026581D03*
X007196Y026581D03*
X007196Y026611D03*
X007196Y026641D03*
X007196Y026671D03*
X007196Y026701D03*
X007196Y026731D03*
X007196Y026551D03*
X007196Y026521D03*
X007196Y026491D03*
X007196Y026461D03*
X007196Y026431D03*
X007196Y026401D03*
X007196Y026371D03*
X007196Y026341D03*
X007196Y026311D03*
X007196Y026281D03*
X007196Y026251D03*
X007196Y025921D03*
X007196Y025891D03*
X007196Y025861D03*
X007196Y025831D03*
X007196Y025801D03*
X007196Y025771D03*
X007196Y025591D03*
X007196Y025561D03*
X007196Y025531D03*
X007196Y025501D03*
X007196Y025471D03*
X007196Y025441D03*
X007196Y025411D03*
X007196Y025381D03*
X007196Y025351D03*
X007196Y025321D03*
X007196Y025291D03*
D11*
X006761Y026401D03*
X006761Y026431D03*
X006251Y026251D03*
X006341Y025831D03*
X006251Y026791D03*
X006071Y027181D03*
X006101Y027211D03*
X006071Y027241D03*
X006041Y027211D03*
X006491Y027871D03*
X006521Y027901D03*
X006491Y027931D03*
X006461Y027901D03*
X006671Y028501D03*
X006701Y028531D03*
X006671Y028561D03*
X006641Y028531D03*
X006881Y028621D03*
X006911Y028651D03*
X006941Y028621D03*
X006911Y028591D03*
X007151Y026941D03*
X007151Y026911D03*
X005771Y029131D03*
X005801Y029161D03*
X005771Y029191D03*
X005741Y029161D03*
X004691Y026791D03*
X004691Y026251D03*
X005141Y025831D03*
X004631Y025381D03*
X004631Y025351D03*
X004631Y025321D03*
X003881Y025291D03*
X003881Y025831D03*
X003341Y025831D03*
X003371Y025591D03*
X003311Y025561D03*
X003341Y025291D03*
D12*
X003221Y025501D03*
X004241Y026671D03*
X005201Y026641D03*
X005501Y026371D03*
X005711Y026251D03*
X005561Y025711D03*
X005681Y025291D03*
X006791Y025351D03*
X006911Y025591D03*
X006791Y025771D03*
X006791Y025921D03*
X006731Y026311D03*
X007181Y027001D03*
X007181Y027031D03*
X006101Y028441D03*
X006131Y028471D03*
X006101Y028501D03*
X006071Y028471D03*
X005801Y028321D03*
X005771Y028321D03*
X005771Y028351D03*
X005741Y028321D03*
X005741Y028291D03*
X005771Y028291D03*
X005801Y028291D03*
X005771Y028261D03*
X005561Y028591D03*
X005591Y028621D03*
X005561Y028651D03*
X005561Y028651D03*
X005531Y028681D03*
X005501Y028651D03*
X005531Y028621D03*
X005531Y028621D03*
X005411Y028501D03*
X005441Y028471D03*
X005411Y028441D03*
X005381Y028471D03*
X005531Y028951D03*
X005561Y028981D03*
X005561Y028981D03*
X005591Y029011D03*
X005561Y029041D03*
X005531Y029011D03*
X005531Y029011D03*
X005501Y028981D03*
X005411Y029131D03*
X005441Y029161D03*
X005411Y029191D03*
X005381Y029161D03*
X006071Y029161D03*
X006101Y029191D03*
X006131Y029161D03*
X006101Y029131D03*
X006311Y029461D03*
X006341Y029461D03*
X006341Y029491D03*
X006371Y029491D03*
X006401Y029461D03*
X006371Y029431D03*
X006311Y029521D03*
X006281Y029491D03*
X004901Y028501D03*
X004871Y028531D03*
X004841Y028501D03*
X004871Y028471D03*
X004781Y028561D03*
X004751Y028591D03*
X004721Y028561D03*
X004751Y028531D03*
X004781Y028231D03*
X004811Y028201D03*
X004781Y028171D03*
X004751Y028201D03*
X005381Y027271D03*
X005411Y027241D03*
X005381Y027211D03*
X005351Y027241D03*
D13*
X005261Y027331D03*
X005231Y027361D03*
X005231Y027361D03*
X005201Y027391D03*
X005201Y027391D03*
X005171Y027421D03*
X005171Y027421D03*
X005141Y027451D03*
X005111Y027421D03*
X005141Y027391D03*
X005141Y027391D03*
X005171Y027361D03*
X005171Y027361D03*
X005201Y027331D03*
X005201Y027331D03*
X005231Y027301D03*
X005231Y026791D03*
X005471Y026791D03*
X005471Y026821D03*
X005471Y026761D03*
X005471Y026731D03*
X005471Y026701D03*
X005471Y026671D03*
X005471Y026641D03*
X005471Y026611D03*
X005471Y026581D03*
X005471Y026551D03*
X005471Y026521D03*
X005471Y026491D03*
X005471Y026461D03*
X005471Y026431D03*
X005471Y026251D03*
X005831Y026431D03*
X005831Y026461D03*
X005831Y026491D03*
X005831Y026521D03*
X005831Y026551D03*
X005831Y026581D03*
X005831Y026611D03*
X005831Y026641D03*
X005831Y026671D03*
X005831Y026701D03*
X005831Y026731D03*
X005831Y026761D03*
X005831Y026791D03*
X005831Y026821D03*
X006101Y026671D03*
X006251Y026821D03*
X006401Y026671D03*
X006431Y026491D03*
X006431Y026461D03*
X006431Y026431D03*
X006701Y026581D03*
X006701Y026611D03*
X006701Y026641D03*
X006701Y026671D03*
X006701Y026701D03*
X006701Y026731D03*
X006701Y026761D03*
X006701Y026791D03*
X006701Y026821D03*
X006701Y026851D03*
X006701Y026881D03*
X006701Y026911D03*
X006701Y026941D03*
X006701Y026971D03*
X006701Y027001D03*
X006701Y027031D03*
X006701Y027061D03*
X006971Y026701D03*
X006941Y026641D03*
X007181Y027061D03*
X006851Y028231D03*
X006881Y028261D03*
X006881Y028261D03*
X006911Y028291D03*
X006881Y028321D03*
X006851Y028291D03*
X006851Y028291D03*
X006821Y028261D03*
X006131Y028441D03*
X006101Y028471D03*
X006071Y028441D03*
X006101Y028411D03*
X006041Y028711D03*
X006041Y028741D03*
X006041Y028771D03*
X006041Y028801D03*
X006041Y028831D03*
X006041Y028861D03*
X006041Y028891D03*
X006041Y028891D03*
X006041Y028921D03*
X006041Y028951D03*
X006071Y028921D03*
X006071Y028891D03*
X006071Y028861D03*
X006011Y028861D03*
X006011Y028891D03*
X006011Y028921D03*
X006011Y028771D03*
X006011Y028741D03*
X006071Y028741D03*
X006071Y028771D03*
X006221Y028771D03*
X006221Y028801D03*
X006221Y028831D03*
X006221Y028861D03*
X006221Y028891D03*
X006251Y028891D03*
X006251Y028921D03*
X006281Y028891D03*
X006281Y028861D03*
X006251Y028861D03*
X006251Y028861D03*
X006251Y028831D03*
X006251Y028831D03*
X006281Y028831D03*
X006281Y028801D03*
X006251Y028801D03*
X006251Y028801D03*
X006251Y028771D03*
X006281Y028771D03*
X006251Y028741D03*
X006131Y029101D03*
X006161Y029131D03*
X006131Y029161D03*
X006131Y029191D03*
X006101Y029221D03*
X006071Y029191D03*
X006101Y029161D03*
X006101Y029131D03*
X006431Y029401D03*
X006461Y029431D03*
X006491Y029401D03*
X006461Y029371D03*
X005771Y028411D03*
X005801Y028381D03*
X005771Y028351D03*
X005741Y028381D03*
X005771Y028291D03*
X005801Y028261D03*
X005771Y028231D03*
X005741Y028261D03*
X005501Y028681D03*
X005531Y028711D03*
X005501Y028741D03*
X005501Y028771D03*
X005501Y028801D03*
X005501Y028831D03*
X005501Y028861D03*
X005501Y028891D03*
X005471Y028891D03*
X005471Y028921D03*
X005441Y028891D03*
X005441Y028861D03*
X005471Y028861D03*
X005471Y028861D03*
X005471Y028831D03*
X005471Y028831D03*
X005441Y028831D03*
X005441Y028801D03*
X005471Y028801D03*
X005471Y028801D03*
X005471Y028771D03*
X005441Y028771D03*
X005471Y028741D03*
X005471Y028711D03*
X005291Y028831D03*
X005261Y028861D03*
X005231Y028831D03*
X005261Y028801D03*
X004931Y028471D03*
X004901Y028501D03*
X004871Y028471D03*
X004901Y028441D03*
X004661Y028291D03*
X004631Y028321D03*
X004631Y028321D03*
X004601Y028351D03*
X004601Y028351D03*
X004571Y028381D03*
X004541Y028351D03*
X004571Y028321D03*
X004571Y028321D03*
X004601Y028291D03*
X004601Y028291D03*
X004631Y028261D03*
X004601Y028621D03*
X004631Y028651D03*
X004601Y028681D03*
X004571Y028651D03*
X005111Y029401D03*
X005141Y029431D03*
X005111Y029461D03*
X005081Y029431D03*
X006281Y027361D03*
X006311Y027331D03*
X006281Y027301D03*
X006281Y027301D03*
X006251Y027331D03*
X006251Y027331D03*
X006221Y027301D03*
X006251Y027271D03*
X006101Y026371D03*
X005891Y026071D03*
X005891Y026041D03*
X005891Y026011D03*
X005891Y025981D03*
X005891Y025951D03*
X005891Y025921D03*
X005891Y025891D03*
X005891Y025861D03*
X005891Y025681D03*
X005891Y025651D03*
X005891Y025621D03*
X005891Y025591D03*
X005891Y025561D03*
X005891Y025531D03*
X005891Y025501D03*
X005891Y025471D03*
X005891Y025441D03*
X006131Y025531D03*
X006131Y025561D03*
X006131Y025591D03*
X006161Y025651D03*
X006161Y025681D03*
X006161Y025501D03*
X006161Y025471D03*
X006161Y025441D03*
X006491Y025441D03*
X006521Y025501D03*
X006521Y025531D03*
X006521Y025561D03*
X006521Y025591D03*
X006521Y025621D03*
X006491Y025681D03*
X005531Y025651D03*
X005531Y025621D03*
X005531Y025531D03*
X005531Y025501D03*
X005531Y025471D03*
X005321Y025471D03*
X005321Y025501D03*
X005321Y025531D03*
X005321Y025561D03*
X005321Y025591D03*
X005321Y025621D03*
X005321Y025651D03*
X005321Y025681D03*
X005141Y025861D03*
X004991Y025711D03*
X004961Y025651D03*
X004961Y025621D03*
X004961Y025591D03*
X004961Y025561D03*
X004961Y025531D03*
X004961Y025501D03*
X004961Y025471D03*
X004991Y025441D03*
X004691Y025441D03*
X004691Y025471D03*
X004691Y025501D03*
X004691Y025531D03*
X004691Y025561D03*
X004691Y025591D03*
X004691Y025621D03*
X004691Y025651D03*
X004691Y025681D03*
X004691Y025711D03*
X004691Y025891D03*
X004691Y025921D03*
X004691Y025951D03*
X004691Y025981D03*
X004691Y026011D03*
X004691Y026041D03*
X004331Y026041D03*
X004331Y026071D03*
X004331Y026101D03*
X004331Y026011D03*
X004331Y025981D03*
X004331Y025951D03*
X004331Y025861D03*
X004331Y025831D03*
X004331Y025801D03*
X004331Y025771D03*
X004331Y025741D03*
X004331Y025711D03*
X004331Y025681D03*
X004331Y025651D03*
X004331Y025621D03*
X004331Y025591D03*
X004331Y025561D03*
X004331Y025531D03*
X004331Y025501D03*
X004331Y025471D03*
X004331Y025441D03*
X004331Y025411D03*
X004331Y025381D03*
X004331Y025351D03*
X004331Y025321D03*
X004331Y025291D03*
X004061Y025501D03*
X004061Y025531D03*
X004061Y025561D03*
X004061Y025591D03*
X004061Y025621D03*
X004031Y025681D03*
X004031Y025441D03*
X003461Y025651D03*
X003461Y025711D03*
X003341Y025861D03*
X003191Y025471D03*
X003191Y025441D03*
X003191Y025411D03*
X003911Y026251D03*
X003911Y026281D03*
X003911Y026311D03*
X003911Y026341D03*
X003911Y026371D03*
X003911Y026401D03*
X003911Y026431D03*
X003911Y026461D03*
X003911Y026491D03*
X003911Y026521D03*
X003911Y026551D03*
X003911Y026581D03*
X003911Y026611D03*
X003911Y026641D03*
X004271Y026611D03*
X004271Y026581D03*
X004271Y026551D03*
X004271Y026521D03*
X004271Y026491D03*
X004271Y026461D03*
X004271Y026431D03*
X004271Y026401D03*
X004271Y026371D03*
X004271Y026341D03*
X004271Y026311D03*
X004271Y026281D03*
X004271Y026251D03*
X004511Y026431D03*
X004511Y026461D03*
X004511Y026491D03*
X004511Y026521D03*
X004511Y026551D03*
X004511Y026581D03*
X004511Y026611D03*
X004511Y026641D03*
X004691Y026821D03*
X004841Y026671D03*
X004871Y026611D03*
X004871Y026581D03*
X004871Y026551D03*
X004871Y026521D03*
X004871Y026491D03*
X004871Y026461D03*
X004871Y026431D03*
X004271Y026791D03*
X004691Y025411D03*
D14*
X004616Y025291D03*
X005156Y025291D03*
X006326Y025291D03*
X006746Y026341D03*
X006746Y026371D03*
X007166Y026971D03*
X006686Y028141D03*
X006716Y028171D03*
X006686Y028201D03*
X006656Y028171D03*
X006656Y028471D03*
X006686Y028501D03*
X006656Y028531D03*
X006626Y028501D03*
X005996Y028621D03*
X005966Y028651D03*
X005936Y028621D03*
X005966Y028591D03*
X005786Y028471D03*
X005756Y028501D03*
X005726Y028471D03*
X005756Y028441D03*
X005966Y028981D03*
X005996Y029011D03*
X005966Y029041D03*
X005936Y029011D03*
X005246Y029491D03*
X005216Y029521D03*
X005186Y029491D03*
X005216Y029461D03*
X004616Y028651D03*
X004646Y028621D03*
X004616Y028591D03*
X004586Y028621D03*
X004856Y028201D03*
X004886Y028171D03*
X004856Y028141D03*
X004826Y028171D03*
X005456Y027241D03*
X005486Y027211D03*
X005456Y027181D03*
X005426Y027211D03*
X006116Y027241D03*
X006146Y027271D03*
X006176Y027241D03*
X006146Y027211D03*
X004016Y026791D03*
X003416Y025621D03*
X003266Y025531D03*
D15*
X003476Y025441D03*
X003476Y025681D03*
X003716Y025681D03*
X003866Y025861D03*
X003716Y025441D03*
X004016Y026821D03*
X005036Y026791D03*
X005126Y027421D03*
X005156Y027451D03*
X005126Y027481D03*
X005126Y027481D03*
X005096Y027511D03*
X005096Y027511D03*
X005066Y027541D03*
X005066Y027571D03*
X005036Y027601D03*
X005036Y027631D03*
X005006Y027661D03*
X004976Y027631D03*
X005006Y027601D03*
X005006Y027571D03*
X005036Y027541D03*
X005036Y027511D03*
X005066Y027481D03*
X005066Y027481D03*
X005096Y027451D03*
X005096Y027451D03*
X004946Y027781D03*
X004976Y027811D03*
X004946Y027841D03*
X004916Y027811D03*
X004556Y028351D03*
X004586Y028381D03*
X004556Y028411D03*
X004556Y028411D03*
X004526Y028441D03*
X004526Y028471D03*
X004496Y028501D03*
X004496Y028501D03*
X004526Y028531D03*
X004496Y028561D03*
X004466Y028531D03*
X004466Y028471D03*
X004496Y028441D03*
X004496Y028411D03*
X004526Y028381D03*
X004526Y028381D03*
X005036Y029341D03*
X005066Y029371D03*
X005066Y029371D03*
X005096Y029401D03*
X005066Y029431D03*
X005036Y029401D03*
X005036Y029401D03*
X005006Y029371D03*
X005396Y029221D03*
X005426Y029251D03*
X005456Y029221D03*
X005426Y029191D03*
X005396Y029131D03*
X005426Y029101D03*
X005396Y029071D03*
X005366Y029101D03*
X005276Y028921D03*
X005276Y028891D03*
X005306Y028891D03*
X005306Y028861D03*
X005276Y028861D03*
X005246Y028861D03*
X005246Y028891D03*
X005276Y028831D03*
X005276Y028831D03*
X005276Y028801D03*
X005306Y028801D03*
X005306Y028771D03*
X005276Y028771D03*
X005276Y028771D03*
X005246Y028771D03*
X005246Y028801D03*
X005246Y028741D03*
X005276Y028741D03*
X005306Y028741D03*
X005276Y028711D03*
X005396Y028561D03*
X005426Y028531D03*
X005396Y028501D03*
X005366Y028531D03*
X005426Y028441D03*
X005456Y028411D03*
X005426Y028381D03*
X005396Y028411D03*
X006056Y028411D03*
X006086Y028441D03*
X006116Y028411D03*
X006086Y028381D03*
X006116Y028501D03*
X006146Y028531D03*
X006116Y028561D03*
X006086Y028531D03*
X006266Y028711D03*
X006296Y028741D03*
X006266Y028771D03*
X006236Y028741D03*
X006536Y028621D03*
X006566Y028651D03*
X006596Y028621D03*
X006566Y028591D03*
X006536Y028921D03*
X006536Y028951D03*
X006536Y028981D03*
X006536Y028981D03*
X006536Y029011D03*
X006536Y029011D03*
X006536Y029041D03*
X006536Y029041D03*
X006536Y029071D03*
X006536Y029101D03*
X006566Y029071D03*
X006566Y029041D03*
X006566Y029011D03*
X006566Y028981D03*
X006566Y028951D03*
X006506Y028951D03*
X006506Y028981D03*
X006506Y029011D03*
X006506Y029041D03*
X006506Y029071D03*
X006506Y029311D03*
X006536Y029341D03*
X006506Y029371D03*
X006506Y029371D03*
X006476Y029401D03*
X006446Y029371D03*
X006476Y029341D03*
X006476Y029341D03*
X006116Y029221D03*
X006086Y029251D03*
X006056Y029221D03*
X006086Y029191D03*
X006896Y028651D03*
X006926Y028681D03*
X006956Y028651D03*
X006926Y028621D03*
X006986Y028561D03*
X007016Y028591D03*
X007046Y028561D03*
X007016Y028531D03*
X007016Y028471D03*
X007046Y028441D03*
X007016Y028411D03*
X006986Y028411D03*
X006986Y028441D03*
X007016Y028381D03*
X006986Y028351D03*
X006986Y028351D03*
X006956Y028381D03*
X006956Y028381D03*
X006926Y028351D03*
X006926Y028351D03*
X006956Y028321D03*
X006956Y028321D03*
X006926Y028291D03*
X006896Y028321D03*
X006566Y027781D03*
X006596Y027751D03*
X006566Y027721D03*
X006536Y027751D03*
X006536Y027691D03*
X006566Y027661D03*
X006536Y027631D03*
X006506Y027631D03*
X006506Y027661D03*
X006536Y027601D03*
X006506Y027571D03*
X006476Y027571D03*
X006476Y027601D03*
X006506Y027541D03*
X006476Y027511D03*
X006446Y027511D03*
X006446Y027541D03*
X006476Y027481D03*
X006446Y027451D03*
X006446Y027451D03*
X006416Y027481D03*
X006416Y027481D03*
X006386Y027451D03*
X006386Y027451D03*
X006416Y027421D03*
X006416Y027421D03*
X006386Y027391D03*
X006386Y027391D03*
X006356Y027421D03*
X006356Y027421D03*
X006326Y027391D03*
X006326Y027391D03*
X006356Y027361D03*
X006356Y027361D03*
X006326Y027331D03*
X006296Y027361D03*
X005906Y026101D03*
X006326Y025861D03*
X005906Y025291D03*
D16*
X006326Y025801D03*
X006236Y026281D03*
X006806Y026551D03*
X007106Y026761D03*
X005756Y028471D03*
X005786Y028501D03*
X005756Y028531D03*
X005726Y028501D03*
X004676Y026761D03*
X004676Y025861D03*
X004676Y025831D03*
X004676Y025801D03*
X004676Y025771D03*
X004676Y025741D03*
X005156Y025801D03*
X003866Y025801D03*
D17*
X003881Y025741D03*
X003341Y025381D03*
X004691Y026341D03*
X004691Y026701D03*
X005141Y025741D03*
X005141Y025381D03*
X005741Y025351D03*
X005741Y025771D03*
X005741Y025801D03*
X005621Y026281D03*
X006251Y026701D03*
X006341Y025741D03*
X007061Y025621D03*
X005771Y028501D03*
X005801Y028531D03*
X005771Y028561D03*
X005741Y028531D03*
D18*
X004661Y028591D03*
X004631Y028621D03*
X004601Y028591D03*
X004631Y028561D03*
X005141Y026761D03*
X005141Y026731D03*
X005141Y026701D03*
X004691Y026281D03*
X005141Y025321D03*
X006341Y025321D03*
X006791Y026521D03*
X007121Y026791D03*
X007121Y026821D03*
X006251Y026761D03*
X003881Y025321D03*
X003341Y025321D03*
X003341Y025801D03*
D19*
X003866Y025771D03*
X003866Y025381D03*
X005156Y025771D03*
X005756Y025321D03*
X006326Y025381D03*
X006326Y025771D03*
X006236Y026311D03*
X005756Y027091D03*
X005786Y027121D03*
X005756Y027151D03*
X005726Y027121D03*
X005066Y028081D03*
X005096Y028111D03*
X005066Y028141D03*
X005036Y028111D03*
X006446Y028111D03*
X006476Y028141D03*
X006506Y028111D03*
X006476Y028081D03*
D20*
X005756Y029071D03*
X005786Y029101D03*
X005756Y029131D03*
X005726Y029101D03*
X004106Y026761D03*
X004106Y026731D03*
X005636Y026341D03*
X005636Y026311D03*
X005726Y025741D03*
X005726Y025381D03*
X006236Y026341D03*
X007046Y026071D03*
X007046Y025651D03*
D21*
X007091Y026101D03*
X006251Y026731D03*
X005771Y025831D03*
X006341Y025351D03*
X005141Y025351D03*
X004691Y026311D03*
X004691Y026731D03*
X003881Y025351D03*
X003341Y025351D03*
X003341Y025741D03*
X003341Y025771D03*
X005771Y029101D03*
X005801Y029131D03*
X005771Y029161D03*
X005741Y029131D03*
D22*
X006101Y029101D03*
X006131Y029131D03*
X006161Y029101D03*
X006131Y029071D03*
X006491Y029101D03*
X006491Y029131D03*
X006491Y029161D03*
X006491Y029191D03*
X006491Y029221D03*
X006491Y029251D03*
X006491Y029281D03*
X006491Y029311D03*
X006521Y029311D03*
X006521Y029341D03*
X006551Y029311D03*
X006551Y029281D03*
X006521Y029281D03*
X006521Y029281D03*
X006521Y029251D03*
X006521Y029251D03*
X006551Y029251D03*
X006551Y029221D03*
X006521Y029221D03*
X006521Y029221D03*
X006521Y029191D03*
X006521Y029191D03*
X006551Y029191D03*
X006551Y029161D03*
X006521Y029161D03*
X006521Y029161D03*
X006521Y029131D03*
X006521Y029131D03*
X006551Y029131D03*
X006551Y029101D03*
X006521Y029101D03*
X006521Y029071D03*
X006551Y028951D03*
X006551Y028921D03*
X006581Y028921D03*
X006581Y028891D03*
X006551Y028891D03*
X006551Y028891D03*
X006521Y028891D03*
X006521Y028921D03*
X006521Y028861D03*
X006551Y028861D03*
X006551Y028861D03*
X006581Y028861D03*
X006581Y028831D03*
X006551Y028831D03*
X006551Y028831D03*
X006521Y028831D03*
X006521Y028801D03*
X006551Y028801D03*
X006551Y028801D03*
X006581Y028801D03*
X006581Y028771D03*
X006551Y028771D03*
X006551Y028771D03*
X006521Y028771D03*
X006521Y028741D03*
X006551Y028741D03*
X006551Y028741D03*
X006581Y028741D03*
X006581Y028711D03*
X006551Y028711D03*
X006551Y028711D03*
X006521Y028711D03*
X006521Y028681D03*
X006551Y028681D03*
X006551Y028681D03*
X006581Y028681D03*
X006581Y028651D03*
X006551Y028651D03*
X006521Y028651D03*
X006551Y028621D03*
X006581Y028621D03*
X006581Y028591D03*
X006611Y028591D03*
X006611Y028561D03*
X006581Y028561D03*
X006551Y028561D03*
X006551Y028591D03*
X006581Y028531D03*
X006581Y027961D03*
X006611Y027931D03*
X006581Y027901D03*
X006551Y027931D03*
X006581Y027841D03*
X006581Y027811D03*
X006611Y027811D03*
X006611Y027781D03*
X006581Y027781D03*
X006551Y027781D03*
X006551Y027811D03*
X006551Y027751D03*
X006581Y027751D03*
X006581Y027721D03*
X006551Y027721D03*
X006521Y027721D03*
X006521Y027691D03*
X006551Y027691D03*
X006581Y027691D03*
X006551Y027661D03*
X006521Y027661D03*
X006551Y027631D03*
X006521Y027601D03*
X006491Y027601D03*
X006491Y027631D03*
X006521Y027571D03*
X006491Y027541D03*
X006461Y027541D03*
X006461Y027571D03*
X006491Y027511D03*
X006461Y027481D03*
X006431Y027511D03*
X007001Y028381D03*
X007031Y028411D03*
X007031Y028441D03*
X007031Y028471D03*
X007031Y028501D03*
X007031Y028501D03*
X007031Y028531D03*
X007031Y028561D03*
X007061Y028531D03*
X007061Y028501D03*
X007061Y028471D03*
X007001Y028471D03*
X007001Y028501D03*
X007001Y028531D03*
X007001Y028441D03*
X006971Y028411D03*
X006101Y026401D03*
X005681Y025861D03*
X005051Y027511D03*
X005081Y027541D03*
X005051Y027571D03*
X005051Y027601D03*
X005021Y027631D03*
X005021Y027661D03*
X005021Y027691D03*
X004991Y027691D03*
X004991Y027721D03*
X004991Y027721D03*
X004991Y027751D03*
X004991Y027781D03*
X004961Y027781D03*
X004961Y027811D03*
X004931Y027781D03*
X004931Y027751D03*
X004961Y027751D03*
X004961Y027751D03*
X004961Y027721D03*
X004931Y027721D03*
X004961Y027691D03*
X004961Y027691D03*
X004961Y027661D03*
X004991Y027661D03*
X004991Y027631D03*
X004991Y027601D03*
X005021Y027571D03*
X005021Y027541D03*
X004931Y027901D03*
X004961Y027931D03*
X004931Y027961D03*
X004901Y027931D03*
X004961Y028531D03*
X004961Y028561D03*
X004961Y028591D03*
X004961Y028591D03*
X004961Y028621D03*
X004961Y028621D03*
X004961Y028651D03*
X004961Y028651D03*
X004961Y028681D03*
X004961Y028681D03*
X004961Y028711D03*
X004961Y028741D03*
X004961Y028741D03*
X004961Y028771D03*
X004961Y028801D03*
X004961Y028831D03*
X004961Y028861D03*
X004961Y028891D03*
X004961Y028921D03*
X004961Y028951D03*
X004961Y028981D03*
X004961Y029011D03*
X004961Y029041D03*
X004961Y029071D03*
X004961Y029101D03*
X004961Y029131D03*
X004961Y029161D03*
X004961Y029191D03*
X004961Y029221D03*
X004961Y029251D03*
X004961Y029281D03*
X004991Y029281D03*
X004991Y029311D03*
X004991Y029311D03*
X004991Y029341D03*
X005021Y029341D03*
X005021Y029371D03*
X005051Y029341D03*
X005051Y029311D03*
X005021Y029311D03*
X005021Y029281D03*
X005021Y029281D03*
X005021Y029251D03*
X004991Y029251D03*
X004991Y029251D03*
X004991Y029221D03*
X004991Y029221D03*
X005021Y029221D03*
X005021Y029191D03*
X004991Y029191D03*
X004991Y029191D03*
X004991Y029161D03*
X004991Y029161D03*
X005021Y029161D03*
X005021Y029131D03*
X004991Y029131D03*
X004991Y029131D03*
X004991Y029101D03*
X004991Y029101D03*
X005021Y029101D03*
X005021Y029071D03*
X004991Y029071D03*
X004991Y029071D03*
X004991Y029041D03*
X004991Y029041D03*
X005021Y029041D03*
X005021Y029011D03*
X004991Y029011D03*
X004991Y029011D03*
X004991Y028981D03*
X004991Y028981D03*
X005021Y028981D03*
X005021Y028951D03*
X004991Y028951D03*
X004991Y028951D03*
X004991Y028921D03*
X004991Y028921D03*
X005021Y028921D03*
X005021Y028891D03*
X004991Y028891D03*
X004991Y028891D03*
X004991Y028861D03*
X004991Y028861D03*
X005021Y028861D03*
X005021Y028831D03*
X004991Y028831D03*
X004991Y028831D03*
X004991Y028801D03*
X004991Y028801D03*
X005021Y028801D03*
X005021Y028771D03*
X004991Y028771D03*
X004991Y028771D03*
X004991Y028741D03*
X005021Y028741D03*
X004991Y028711D03*
X004991Y028711D03*
X004991Y028681D03*
X004991Y028651D03*
X004991Y028621D03*
X004991Y028591D03*
X004991Y028561D03*
X004931Y028561D03*
X004931Y028591D03*
X004931Y028621D03*
X004931Y028651D03*
X004931Y028681D03*
X004931Y028711D03*
X004541Y028561D03*
X004511Y028591D03*
X004481Y028561D03*
X004481Y028531D03*
X004511Y028531D03*
X004511Y028501D03*
X004511Y028471D03*
X004481Y028471D03*
X004481Y028441D03*
X004511Y028411D03*
X004541Y028441D03*
X004451Y028501D03*
X003221Y025711D03*
D23*
X003221Y025681D03*
X003731Y025471D03*
X005411Y028531D03*
X005441Y028561D03*
X005411Y028591D03*
X005381Y028561D03*
X005231Y028891D03*
X005261Y028921D03*
X005231Y028951D03*
X005201Y028921D03*
X005381Y029071D03*
X005411Y029101D03*
X005441Y029071D03*
X005411Y029041D03*
X006251Y028921D03*
X006281Y028951D03*
X006311Y028921D03*
X006281Y028891D03*
D24*
X006206Y029491D03*
X006236Y029521D03*
X006206Y029551D03*
X006176Y029521D03*
X005336Y029521D03*
X005306Y029551D03*
X005276Y029521D03*
X005306Y029491D03*
X004856Y028561D03*
X004886Y028531D03*
X004856Y028501D03*
X004826Y028531D03*
X004946Y028171D03*
X004976Y028141D03*
X004946Y028111D03*
X004916Y028141D03*
X005036Y027931D03*
X005066Y027901D03*
X005036Y027871D03*
X005006Y027901D03*
X005156Y026671D03*
X006566Y028141D03*
X006596Y028171D03*
X006626Y028141D03*
X006596Y028111D03*
X006896Y028561D03*
X006926Y028591D03*
X006896Y028621D03*
X006866Y028591D03*
X007136Y026881D03*
X007136Y026851D03*
X006776Y026491D03*
X006776Y026461D03*
D25*
X007031Y026041D03*
X006251Y026521D03*
X006251Y026551D03*
X006251Y026581D03*
X006251Y026611D03*
X004091Y026701D03*
D26*
X005756Y028531D03*
X005786Y028561D03*
X005756Y028591D03*
X005726Y028561D03*
X005756Y029041D03*
X005786Y029071D03*
X005756Y029101D03*
X005726Y029071D03*
X007016Y026011D03*
X007016Y025681D03*
D27*
X007001Y025711D03*
X007001Y025741D03*
X007001Y025951D03*
X007001Y025981D03*
X005771Y028561D03*
X005801Y028591D03*
X005771Y028621D03*
X005741Y028591D03*
D28*
X006086Y028561D03*
X006116Y028591D03*
X006146Y028561D03*
X006116Y028531D03*
X006086Y028411D03*
X006116Y028381D03*
X006086Y028351D03*
X006056Y028381D03*
X005456Y028381D03*
X005426Y028411D03*
X005396Y028381D03*
X005426Y028351D03*
X005426Y029221D03*
X005456Y029251D03*
X005426Y029281D03*
X005396Y029251D03*
X006056Y029251D03*
X006086Y029281D03*
X006116Y029251D03*
X006086Y029221D03*
X006116Y029101D03*
X006146Y029071D03*
X006116Y029041D03*
X006086Y029071D03*
X005006Y026821D03*
D29*
X010382Y026781D02*
X010689Y026781D01*
X010689Y027241D01*
X010382Y027241D01*
X010536Y027011D02*
X010689Y027011D01*
X011763Y027011D02*
X011840Y027011D01*
X011840Y027087D01*
X011763Y027087D01*
X011763Y027011D01*
X011763Y026857D02*
X011763Y026781D01*
X011840Y026781D01*
X011840Y026857D01*
X011763Y026857D01*
X011993Y026934D02*
X011993Y027241D01*
X011993Y026934D02*
X012147Y026781D01*
X012300Y026934D01*
X012300Y027241D01*
X012454Y027241D02*
X012761Y027241D01*
X012761Y026781D01*
X012454Y026781D01*
X012607Y027011D02*
X012761Y027011D01*
X012914Y027011D02*
X012991Y026934D01*
X013221Y026934D01*
X013221Y026781D02*
X013221Y027241D01*
X012991Y027241D01*
X012914Y027164D01*
X012914Y027011D01*
X013068Y026934D02*
X012914Y026781D01*
X015363Y026811D02*
X015670Y026811D01*
X015517Y026811D02*
X015517Y027271D01*
X015670Y027117D01*
X015824Y027194D02*
X015901Y027271D01*
X016054Y027271D01*
X016131Y027194D01*
X016131Y026887D01*
X015824Y027194D01*
X015824Y026887D01*
X015901Y026811D01*
X016054Y026811D01*
X016131Y026887D01*
X016284Y026887D02*
X016361Y026811D01*
X016514Y026811D01*
X016591Y026887D01*
X016284Y027194D01*
X016284Y026887D01*
X016591Y026887D02*
X016591Y027194D01*
X016514Y027271D01*
X016361Y027271D01*
X016284Y027194D01*
X016745Y027194D02*
X016745Y027041D01*
X016821Y026964D01*
X017051Y026964D01*
X016898Y026964D02*
X016745Y026811D01*
X017051Y026811D02*
X017051Y027271D01*
X016821Y027271D01*
X016745Y027194D01*
X017205Y027271D02*
X017205Y026811D01*
X017512Y027271D01*
X017512Y026811D01*
X018586Y026811D02*
X018663Y026811D01*
X018663Y026887D01*
X018586Y026887D01*
X018586Y026811D01*
X018586Y027041D02*
X018663Y027041D01*
X018663Y027117D01*
X018586Y027117D01*
X018586Y027041D01*
X018816Y026811D02*
X018970Y026811D01*
X018893Y026811D02*
X018893Y027271D01*
X018970Y027271D01*
X019200Y027117D02*
X019123Y027041D01*
X019123Y026964D01*
X019430Y026964D01*
X019430Y027041D02*
X019353Y027117D01*
X019200Y027117D01*
X019430Y027041D02*
X019430Y026887D01*
X019353Y026811D01*
X019200Y026811D01*
X019583Y026811D02*
X019583Y027271D01*
X019583Y027117D02*
X019814Y027117D01*
X019890Y027041D01*
X019890Y026887D01*
X019814Y026811D01*
X019583Y026811D01*
X020044Y026887D02*
X020120Y026811D01*
X020274Y026811D01*
X020351Y026887D01*
X020351Y027041D01*
X020274Y027117D01*
X020120Y027117D01*
X020044Y027041D01*
X020044Y026887D01*
X020504Y026811D02*
X020504Y027271D01*
X020658Y027117D01*
X020811Y027271D01*
X020811Y026811D01*
D30*
X020651Y027361D02*
X020651Y029311D01*
X009161Y029311D01*
X009161Y027361D01*
X020651Y027361D01*
D31*
X020341Y027881D02*
X020341Y028034D01*
X019727Y028648D01*
X019727Y028801D01*
X020341Y028801D01*
X019420Y028341D02*
X018806Y028341D01*
X018960Y028801D02*
X019420Y028341D01*
X018960Y027881D02*
X018960Y028801D01*
X018499Y028494D02*
X018499Y028341D01*
X018346Y028341D01*
X018346Y028494D01*
X018499Y028494D01*
X018499Y028034D02*
X018499Y027881D01*
X018346Y027881D01*
X018346Y028034D01*
X018499Y028034D01*
X018039Y027881D02*
X018039Y028801D01*
X017425Y028801D01*
X017118Y028801D02*
X016505Y028801D01*
X016505Y028648D01*
X017118Y028034D01*
X017118Y027881D01*
X017732Y028341D02*
X018039Y028341D01*
X016198Y028341D02*
X016198Y028494D01*
X016044Y028494D01*
X016044Y028341D01*
X016198Y028341D01*
X016198Y028034D02*
X016198Y027881D01*
X016044Y027881D01*
X016044Y028034D01*
X016198Y028034D01*
X015737Y027881D02*
X015123Y028494D01*
X015123Y028648D01*
X015277Y028801D01*
X015584Y028801D01*
X015737Y028648D01*
X015737Y027881D02*
X015123Y027881D01*
X014816Y028034D02*
X014663Y027881D01*
X014356Y027881D01*
X014203Y028034D01*
X014203Y028187D01*
X014356Y028341D01*
X014816Y028341D01*
X014816Y028034D01*
X014816Y028341D02*
X014510Y028648D01*
X014203Y028801D01*
D32*
X011771Y028366D03*
D33*
X010411Y012274D02*
X010191Y012274D01*
X010264Y012274D02*
X010264Y012384D01*
X010301Y012421D01*
X010374Y012421D01*
X010411Y012384D01*
X010411Y012274D01*
X010411Y012495D02*
X010411Y012569D01*
X010411Y012532D02*
X010191Y012532D01*
X010191Y012495D02*
X010191Y012569D01*
X010228Y012643D02*
X010191Y012679D01*
X010191Y012753D01*
X010228Y012789D01*
X010228Y012864D02*
X010191Y012900D01*
X010191Y012974D01*
X010228Y013010D01*
X010264Y013010D01*
X010301Y012974D01*
X010301Y012937D01*
X010301Y012974D02*
X010338Y013010D01*
X010374Y013010D01*
X010411Y012974D01*
X010411Y012900D01*
X010374Y012864D01*
X010374Y012789D02*
X010411Y012753D01*
X010411Y012679D01*
X010374Y012643D01*
X010228Y012643D01*
X010191Y013085D02*
X010338Y013231D01*
X010374Y013231D01*
X010411Y013195D01*
X010411Y013121D01*
X010374Y013085D01*
X010191Y013085D02*
X010191Y013231D01*
X010154Y013306D02*
X010154Y013452D01*
X010191Y013527D02*
X010411Y013527D01*
X010338Y013600D01*
X010411Y013673D01*
X010191Y013673D01*
X010228Y013748D02*
X010191Y013784D01*
X010191Y013858D01*
X010228Y013894D01*
X010191Y013969D02*
X010191Y014115D01*
X010191Y014190D02*
X010411Y014190D01*
X010411Y014300D01*
X010374Y014336D01*
X010301Y014336D01*
X010264Y014300D01*
X010264Y014190D01*
X010264Y014263D02*
X010191Y014336D01*
X010191Y013969D02*
X010411Y013969D01*
X010374Y013894D02*
X010411Y013858D01*
X010411Y013784D01*
X010374Y013748D01*
X010228Y013748D01*
X009301Y017021D02*
X009301Y017167D01*
X009228Y017241D01*
X009154Y017167D01*
X009154Y017021D01*
X009080Y017094D02*
X009007Y017021D01*
X008933Y017094D01*
X008933Y017241D01*
X008859Y017241D02*
X008749Y017241D01*
X008712Y017204D01*
X008712Y017131D01*
X008749Y017094D01*
X008859Y017094D01*
X008786Y017094D02*
X008712Y017021D01*
X008638Y016984D02*
X008491Y016984D01*
X008417Y017021D02*
X008417Y017241D01*
X008307Y017241D01*
X008270Y017204D01*
X008270Y017131D01*
X008307Y017094D01*
X008417Y017094D01*
X008344Y017094D02*
X008270Y017021D01*
X008196Y017057D02*
X008159Y017021D01*
X008086Y017021D01*
X008049Y017057D01*
X008049Y017094D01*
X008086Y017131D01*
X008159Y017131D01*
X008196Y017167D01*
X008196Y017204D01*
X008159Y017241D01*
X008086Y017241D01*
X008049Y017204D01*
X007975Y017241D02*
X007828Y017241D01*
X007902Y017241D02*
X007902Y017021D01*
X008859Y017021D02*
X008859Y017241D01*
X009080Y017241D02*
X009080Y017094D01*
X009154Y017131D02*
X009301Y017131D01*
X008969Y019754D02*
X008932Y019754D01*
X008896Y019791D01*
X008896Y019864D01*
X008859Y019901D01*
X008822Y019901D01*
X008786Y019864D01*
X008786Y019791D01*
X008822Y019754D01*
X008969Y019754D02*
X009006Y019791D01*
X009006Y019864D01*
X008969Y019901D01*
X009006Y019975D02*
X009006Y020085D01*
X008969Y020122D01*
X008896Y020122D01*
X008859Y020085D01*
X008859Y019975D01*
X008786Y019975D02*
X009006Y019975D01*
X009006Y020196D02*
X009006Y020269D01*
X009006Y020233D02*
X008786Y020233D01*
X008786Y020269D02*
X008786Y020196D01*
X008822Y020343D02*
X008786Y020380D01*
X008786Y020453D01*
X008822Y020490D01*
X008786Y020564D02*
X008786Y020711D01*
X008786Y020785D02*
X009006Y020785D01*
X008896Y020822D02*
X008786Y020932D01*
X008859Y020785D02*
X009006Y020932D01*
X009006Y020564D02*
X008786Y020564D01*
X008969Y020490D02*
X009006Y020453D01*
X009006Y020380D01*
X008969Y020343D01*
X008822Y020343D01*
X008386Y020315D02*
X008386Y020462D01*
X008386Y020388D02*
X008166Y020388D01*
X008166Y020536D02*
X008386Y020536D01*
X008312Y020609D01*
X008386Y020683D01*
X008166Y020683D01*
X008166Y020757D02*
X008166Y020830D01*
X008166Y020794D02*
X008386Y020794D01*
X008386Y020830D02*
X008386Y020757D01*
X008349Y020904D02*
X008312Y020904D01*
X008276Y020941D01*
X008276Y021014D01*
X008239Y021051D01*
X008202Y021051D01*
X008166Y021014D01*
X008166Y020941D01*
X008202Y020904D01*
X008349Y020904D02*
X008386Y020941D01*
X008386Y021014D01*
X008349Y021051D01*
X008349Y021125D02*
X008202Y021125D01*
X008166Y021162D01*
X008166Y021235D01*
X008202Y021272D01*
X008349Y021272D01*
X008386Y021235D01*
X008386Y021162D01*
X008349Y021125D01*
X007866Y020842D02*
X007866Y020769D01*
X007866Y020806D02*
X007646Y020806D01*
X007646Y020842D02*
X007646Y020769D01*
X007682Y020695D02*
X007646Y020658D01*
X007646Y020585D01*
X007682Y020548D01*
X007682Y020474D02*
X007829Y020474D01*
X007866Y020437D01*
X007866Y020364D01*
X007829Y020327D01*
X007682Y020327D01*
X007646Y020364D01*
X007646Y020437D01*
X007682Y020474D01*
X007756Y020585D02*
X007756Y020658D01*
X007719Y020695D01*
X007682Y020695D01*
X007756Y020585D02*
X007792Y020548D01*
X007829Y020548D01*
X007866Y020585D01*
X007866Y020658D01*
X007829Y020695D01*
X007866Y020253D02*
X007646Y020253D01*
X007646Y020106D02*
X007866Y020106D01*
X007792Y020179D01*
X007866Y020253D01*
X007866Y020032D02*
X007866Y019885D01*
X007866Y019958D02*
X007646Y019958D01*
X007682Y019811D02*
X007646Y019774D01*
X007646Y019664D01*
X007866Y019664D01*
X007866Y019774D01*
X007829Y019811D01*
X007792Y019811D01*
X007756Y019774D01*
X007756Y019664D01*
X007756Y019774D02*
X007719Y019811D01*
X007682Y019811D01*
X007276Y020191D02*
X007276Y020301D01*
X007239Y020338D01*
X007202Y020338D01*
X007166Y020301D01*
X007166Y020191D01*
X007056Y020191D02*
X007276Y020191D01*
X007166Y020301D02*
X007129Y020338D01*
X007092Y020338D01*
X007056Y020301D01*
X007056Y020191D01*
X007056Y020486D02*
X007276Y020486D01*
X007276Y020559D02*
X007276Y020412D01*
X007239Y020633D02*
X007092Y020633D01*
X007056Y020670D01*
X007056Y020743D01*
X007092Y020780D01*
X007092Y020854D02*
X007056Y020891D01*
X007056Y020964D01*
X007092Y021001D01*
X007129Y021001D01*
X007166Y020964D01*
X007166Y020891D01*
X007202Y020854D01*
X007239Y020854D01*
X007276Y020891D01*
X007276Y020964D01*
X007239Y021001D01*
X007276Y021075D02*
X007276Y021185D01*
X007239Y021222D01*
X007202Y021222D01*
X007166Y021185D01*
X007166Y021075D01*
X007056Y021075D02*
X007276Y021075D01*
X007166Y021185D02*
X007129Y021222D01*
X007092Y021222D01*
X007056Y021185D01*
X007056Y021075D01*
X007239Y020780D02*
X007276Y020743D01*
X007276Y020670D01*
X007239Y020633D01*
X008166Y020204D02*
X008166Y020094D01*
X008386Y020094D01*
X008386Y020204D01*
X008349Y020241D01*
X008312Y020241D01*
X008276Y020204D01*
X008276Y020094D01*
X008276Y020204D02*
X008239Y020241D01*
X008202Y020241D01*
X008166Y020204D01*
X008666Y024100D02*
X008666Y024210D01*
X008702Y024247D01*
X008739Y024247D01*
X008776Y024210D01*
X008776Y024100D01*
X008666Y024100D02*
X008886Y024100D01*
X008886Y024210D01*
X008849Y024247D01*
X008812Y024247D01*
X008776Y024210D01*
X008886Y024321D02*
X008886Y024468D01*
X008886Y024395D02*
X008666Y024395D01*
X008629Y024542D02*
X008629Y024689D01*
X008666Y024763D02*
X008886Y024763D01*
X008886Y024873D01*
X008849Y024910D01*
X008776Y024910D01*
X008739Y024873D01*
X008739Y024763D01*
X008739Y024837D02*
X008666Y024910D01*
X008702Y024984D02*
X008666Y025021D01*
X008666Y025094D01*
X008702Y025131D01*
X008739Y025131D01*
X008776Y025094D01*
X008776Y025021D01*
X008812Y024984D01*
X008849Y024984D01*
X008886Y025021D01*
X008886Y025094D01*
X008849Y025131D01*
X008886Y025205D02*
X008886Y025352D01*
X008886Y025279D02*
X008666Y025279D01*
X009166Y025450D02*
X009166Y025560D01*
X009202Y025597D01*
X009239Y025597D01*
X009276Y025560D01*
X009276Y025450D01*
X009166Y025450D02*
X009386Y025450D01*
X009386Y025560D01*
X009349Y025597D01*
X009312Y025597D01*
X009276Y025560D01*
X009386Y025671D02*
X009386Y025818D01*
X009386Y025745D02*
X009166Y025745D01*
X009129Y025892D02*
X009129Y026039D01*
X009202Y026113D02*
X009166Y026150D01*
X009166Y026223D01*
X009202Y026260D01*
X009166Y026334D02*
X009386Y026334D01*
X009312Y026408D01*
X009386Y026481D01*
X009166Y026481D01*
X009166Y026555D02*
X009166Y026665D01*
X009202Y026702D01*
X009349Y026702D01*
X009386Y026665D01*
X009386Y026555D01*
X009166Y026555D01*
X009349Y026260D02*
X009386Y026223D01*
X009386Y026150D01*
X009349Y026113D01*
X009202Y026113D01*
X009606Y026054D02*
X009826Y026054D01*
X009606Y026201D01*
X009826Y026201D01*
X009826Y026275D02*
X009606Y026275D01*
X009679Y026275D02*
X009826Y026422D01*
X009716Y026312D02*
X009606Y026422D01*
X009606Y025980D02*
X009606Y025833D01*
X009826Y025833D01*
X009569Y025759D02*
X009569Y025612D01*
X009606Y025465D02*
X009826Y025465D01*
X009826Y025538D02*
X009826Y025391D01*
X009789Y025317D02*
X009752Y025317D01*
X009716Y025280D01*
X009716Y025170D01*
X009826Y025170D02*
X009826Y025280D01*
X009789Y025317D01*
X009716Y025280D02*
X009679Y025317D01*
X009642Y025317D01*
X009606Y025280D01*
X009606Y025170D01*
X009826Y025170D01*
X008016Y025341D02*
X008016Y025451D01*
X007979Y025488D01*
X007942Y025488D01*
X007906Y025451D01*
X007906Y025341D01*
X007796Y025341D02*
X008016Y025341D01*
X007906Y025451D02*
X007869Y025488D01*
X007832Y025488D01*
X007796Y025451D01*
X007796Y025341D01*
X007616Y025361D02*
X007616Y025471D01*
X007579Y025508D01*
X007542Y025508D01*
X007506Y025471D01*
X007506Y025361D01*
X007396Y025361D02*
X007616Y025361D01*
X007506Y025471D02*
X007469Y025508D01*
X007432Y025508D01*
X007396Y025471D01*
X007396Y025361D01*
X007396Y025656D02*
X007616Y025656D01*
X007616Y025729D02*
X007616Y025582D01*
X007796Y025636D02*
X008016Y025636D01*
X008016Y025709D02*
X008016Y025562D01*
X007759Y025783D02*
X007759Y025930D01*
X007796Y026078D02*
X008016Y026078D01*
X008016Y026151D02*
X008016Y026004D01*
X008016Y026225D02*
X007796Y026372D01*
X007796Y026225D02*
X008016Y026372D01*
X007616Y026392D02*
X007396Y026245D01*
X007396Y026171D02*
X007469Y026098D01*
X007469Y026134D02*
X007469Y026024D01*
X007396Y026024D02*
X007616Y026024D01*
X007616Y026134D01*
X007579Y026171D01*
X007506Y026171D01*
X007469Y026134D01*
X007616Y026245D02*
X007396Y026392D01*
X007359Y025950D02*
X007359Y025803D01*
X004607Y020106D02*
X004460Y020106D01*
X004386Y020106D02*
X004386Y019923D01*
X004349Y019886D01*
X004275Y019886D01*
X004239Y019923D01*
X004239Y020106D01*
X004165Y020069D02*
X004165Y020033D01*
X004128Y019996D01*
X004054Y019996D01*
X004018Y019959D01*
X004018Y019923D01*
X004054Y019886D01*
X004128Y019886D01*
X004165Y019923D01*
X004165Y020069D02*
X004128Y020106D01*
X004054Y020106D01*
X004018Y020069D01*
X003944Y020106D02*
X003944Y019886D01*
X003797Y019886D01*
X003723Y019923D02*
X003686Y019886D01*
X003613Y019886D01*
X003576Y019923D01*
X003576Y019959D01*
X003613Y019996D01*
X003686Y019996D01*
X003723Y020033D01*
X003723Y020069D01*
X003686Y020106D01*
X003613Y020106D01*
X003576Y020069D01*
X003797Y020106D02*
X003944Y020106D01*
X003944Y019996D02*
X003870Y019996D01*
X004533Y019996D02*
X004607Y019996D01*
X004607Y019886D02*
X004607Y020106D01*
X004609Y018812D02*
X004646Y018775D01*
X004646Y018702D01*
X004609Y018665D01*
X004572Y018665D01*
X004536Y018702D01*
X004536Y018775D01*
X004499Y018812D01*
X004462Y018812D01*
X004426Y018775D01*
X004426Y018702D01*
X004462Y018665D01*
X004426Y018591D02*
X004426Y018444D01*
X004572Y018591D01*
X004609Y018591D01*
X004646Y018554D01*
X004646Y018481D01*
X004609Y018444D01*
X004609Y018370D02*
X004536Y018370D01*
X004499Y018333D01*
X004499Y018223D01*
X004426Y018223D02*
X004646Y018223D01*
X004646Y018333D01*
X004609Y018370D01*
X004499Y018297D02*
X004426Y018370D01*
X014822Y020477D02*
X014859Y020441D01*
X014932Y020441D01*
X014969Y020477D01*
X014932Y020551D02*
X014859Y020551D01*
X014822Y020514D01*
X014822Y020477D01*
X014932Y020551D02*
X014969Y020588D01*
X014969Y020624D01*
X014932Y020661D01*
X014859Y020661D01*
X014822Y020624D01*
X015043Y020441D02*
X015190Y020441D01*
X015117Y020441D02*
X015117Y020661D01*
X015190Y020588D01*
X015264Y020624D02*
X015264Y020551D01*
X015301Y020514D01*
X015411Y020514D01*
X015338Y020514D02*
X015264Y020441D01*
X015411Y020441D02*
X015411Y020661D01*
X015301Y020661D01*
X015264Y020624D01*
X016306Y021705D02*
X016270Y021742D01*
X016270Y021889D01*
X016306Y021925D01*
X016416Y021925D01*
X016416Y021705D01*
X016306Y021705D01*
X016490Y021705D02*
X016564Y021705D01*
X016527Y021705D02*
X016527Y021925D01*
X016564Y021925D02*
X016490Y021925D01*
X016638Y021889D02*
X016638Y021852D01*
X016675Y021815D01*
X016785Y021815D01*
X016859Y021779D02*
X016859Y021742D01*
X016896Y021705D01*
X016969Y021705D01*
X017006Y021742D01*
X017080Y021742D02*
X017080Y021925D01*
X017006Y021889D02*
X017006Y021852D01*
X016969Y021815D01*
X016896Y021815D01*
X016859Y021779D01*
X016785Y021705D02*
X016675Y021705D01*
X016638Y021742D01*
X016638Y021779D01*
X016675Y021815D01*
X016638Y021889D02*
X016675Y021925D01*
X016785Y021925D01*
X016785Y021705D01*
X016859Y021889D02*
X016896Y021925D01*
X016969Y021925D01*
X017006Y021889D01*
X017080Y021742D02*
X017117Y021705D01*
X017190Y021705D01*
X017227Y021742D01*
X017227Y021925D01*
X017261Y025061D02*
X017224Y025097D01*
X017224Y025244D01*
X017261Y025281D01*
X017371Y025281D01*
X017371Y025061D01*
X017261Y025061D01*
X017150Y025171D02*
X017003Y025171D01*
X017077Y025244D02*
X017077Y025097D01*
X018322Y025210D02*
X018322Y025320D01*
X018358Y025357D01*
X018505Y025357D01*
X018542Y025320D01*
X018542Y025210D01*
X018322Y025210D01*
X018432Y025431D02*
X018432Y025578D01*
X018505Y025505D02*
X018358Y025505D01*
X018593Y024931D02*
X018740Y024931D01*
X018814Y025004D02*
X018851Y025041D01*
X018961Y025041D01*
X018961Y024821D01*
X018851Y024821D01*
X018814Y024857D01*
X018814Y025004D01*
X019418Y025035D02*
X019565Y025035D01*
X019639Y025108D02*
X019676Y025145D01*
X019786Y025145D01*
X019786Y024925D01*
X019676Y024925D01*
X019639Y024961D01*
X019639Y025108D01*
X021456Y021315D02*
X021530Y021315D01*
X021566Y021279D01*
X021566Y021242D01*
X021530Y021205D01*
X021456Y021205D01*
X021420Y021169D01*
X021420Y021132D01*
X021456Y021095D01*
X021530Y021095D01*
X021566Y021132D01*
X021714Y021095D02*
X021714Y021315D01*
X021787Y021315D02*
X021641Y021315D01*
X021456Y021315D02*
X021420Y021279D01*
X021862Y021242D02*
X021862Y021095D01*
X021862Y021205D02*
X022008Y021205D01*
X022008Y021242D02*
X022008Y021095D01*
X022083Y021132D02*
X022119Y021095D01*
X022229Y021095D01*
X022229Y021315D01*
X022119Y021315D01*
X022083Y021279D01*
X022083Y021242D01*
X022119Y021205D01*
X022229Y021205D01*
X022119Y021205D02*
X022083Y021169D01*
X022083Y021132D01*
X022008Y021242D02*
X021935Y021315D01*
X021862Y021242D01*
X021730Y019856D02*
X021730Y019746D01*
X021656Y019783D01*
X021619Y019783D01*
X021583Y019746D01*
X021583Y019672D01*
X021619Y019636D01*
X021693Y019636D01*
X021730Y019672D01*
X021730Y019856D02*
X021583Y019856D01*
X021509Y019856D02*
X021509Y019709D01*
X021435Y019636D01*
X021362Y019709D01*
X021362Y019856D01*
X020761Y019461D02*
X020761Y019314D01*
X020688Y019241D01*
X020614Y019314D01*
X020614Y019461D01*
X020540Y019424D02*
X020503Y019461D01*
X020430Y019461D01*
X020393Y019424D01*
X020393Y019387D01*
X020430Y019351D01*
X020393Y019314D01*
X020393Y019277D01*
X020430Y019241D01*
X020503Y019241D01*
X020540Y019277D01*
X020467Y019351D02*
X020430Y019351D01*
X020319Y019277D02*
X020282Y019277D01*
X020282Y019241D01*
X020319Y019241D01*
X020319Y019277D01*
X020209Y019277D02*
X020172Y019241D01*
X020098Y019241D01*
X020062Y019277D01*
X020062Y019314D01*
X020098Y019351D01*
X020135Y019351D01*
X020098Y019351D02*
X020062Y019387D01*
X020062Y019424D01*
X020098Y019461D01*
X020172Y019461D01*
X020209Y019424D01*
X020179Y020531D02*
X020142Y020567D01*
X020142Y020714D01*
X020179Y020751D01*
X020289Y020751D01*
X020289Y020531D01*
X020179Y020531D01*
X020363Y020531D02*
X020363Y020751D01*
X020510Y020751D02*
X020363Y020531D01*
X020510Y020531D02*
X020510Y020751D01*
X020584Y020714D02*
X020621Y020751D01*
X020694Y020751D01*
X020731Y020714D01*
X020731Y020567D01*
X020694Y020531D01*
X020621Y020531D01*
X020584Y020567D01*
X020584Y020641D01*
X020658Y020641D01*
X017544Y016167D02*
X017398Y016167D01*
X017361Y016130D01*
X017361Y016057D01*
X017398Y016020D01*
X017544Y016020D01*
X017581Y016057D01*
X017581Y016130D01*
X017544Y016167D01*
X017544Y015946D02*
X017581Y015909D01*
X017581Y015836D01*
X017544Y015799D01*
X017508Y015799D01*
X017471Y015836D01*
X017471Y015909D01*
X017434Y015946D01*
X017398Y015946D01*
X017361Y015909D01*
X017361Y015836D01*
X017398Y015799D01*
X017361Y015725D02*
X017361Y015652D01*
X017361Y015688D02*
X017581Y015688D01*
X017581Y015652D02*
X017581Y015725D01*
X017581Y015577D02*
X017361Y015577D01*
X017361Y015431D02*
X017581Y015431D01*
X017508Y015504D01*
X017581Y015577D01*
X016141Y015470D02*
X016141Y015360D01*
X015921Y015360D01*
X015921Y015470D01*
X015958Y015506D01*
X016104Y015506D01*
X016141Y015470D01*
X016104Y015285D02*
X016141Y015249D01*
X016141Y015175D01*
X016104Y015139D01*
X015958Y015139D01*
X015921Y015175D01*
X015921Y015249D01*
X015958Y015285D01*
X016031Y015285D01*
X016031Y015212D01*
X016031Y015064D02*
X015994Y015028D01*
X015994Y014918D01*
X015921Y014918D02*
X016141Y014918D01*
X016141Y015028D01*
X016104Y015064D01*
X016031Y015064D01*
X015884Y014843D02*
X015884Y014697D01*
X015958Y014622D02*
X015921Y014586D01*
X015921Y014512D01*
X015958Y014476D01*
X016104Y014476D01*
X016141Y014512D01*
X016141Y014586D01*
X016104Y014622D01*
X016141Y014402D02*
X016141Y014328D01*
X016141Y014365D02*
X015921Y014365D01*
X015921Y014328D02*
X015921Y014402D01*
X016031Y014254D02*
X015994Y014217D01*
X015994Y014107D01*
X015921Y014107D02*
X016141Y014107D01*
X016141Y014217D01*
X016104Y014254D01*
X016031Y014254D01*
X015541Y014298D02*
X015541Y014372D01*
X015541Y014335D02*
X015321Y014335D01*
X015321Y014298D02*
X015321Y014372D01*
X015358Y014446D02*
X015321Y014482D01*
X015321Y014556D01*
X015358Y014592D01*
X015284Y014667D02*
X015284Y014813D01*
X015321Y014888D02*
X015541Y014888D01*
X015541Y014998D01*
X015504Y015034D01*
X015431Y015034D01*
X015394Y014998D01*
X015394Y014888D01*
X015358Y015109D02*
X015321Y015145D01*
X015321Y015219D01*
X015358Y015255D01*
X015431Y015255D01*
X015431Y015182D01*
X015504Y015109D02*
X015358Y015109D01*
X015504Y015109D02*
X015541Y015145D01*
X015541Y015219D01*
X015504Y015255D01*
X015504Y015330D02*
X015358Y015330D01*
X015321Y015366D01*
X015321Y015440D01*
X015358Y015476D01*
X015504Y015476D02*
X015541Y015440D01*
X015541Y015366D01*
X015504Y015330D01*
X015504Y014592D02*
X015541Y014556D01*
X015541Y014482D01*
X015504Y014446D01*
X015358Y014446D01*
X015431Y014224D02*
X015394Y014187D01*
X015394Y014077D01*
X015321Y014077D02*
X015541Y014077D01*
X015541Y014187D01*
X015504Y014224D01*
X015431Y014224D01*
X017391Y013647D02*
X017391Y013573D01*
X017391Y013610D02*
X017611Y013610D01*
X017611Y013573D02*
X017611Y013647D01*
X017574Y013499D02*
X017611Y013462D01*
X017611Y013389D01*
X017574Y013352D01*
X017538Y013352D01*
X017501Y013389D01*
X017501Y013462D01*
X017464Y013499D01*
X017428Y013499D01*
X017391Y013462D01*
X017391Y013389D01*
X017428Y013352D01*
X017428Y013278D02*
X017574Y013278D01*
X017611Y013241D01*
X017611Y013168D01*
X017574Y013131D01*
X017428Y013131D01*
X017391Y013168D01*
X017391Y013241D01*
X017428Y013278D01*
X017391Y013057D02*
X017611Y013057D01*
X017538Y012984D01*
X017611Y012910D01*
X017391Y012910D01*
D34*
X005756Y027121D03*
X005786Y027151D03*
X005756Y027181D03*
X005726Y027151D03*
X005756Y029011D03*
X005786Y029041D03*
X005756Y029071D03*
X005726Y029041D03*
D35*
X005771Y027211D03*
X005801Y027181D03*
X005771Y027151D03*
X005741Y027181D03*
D36*
X005771Y027781D03*
X005801Y027811D03*
X005771Y027841D03*
X005741Y027811D03*
D37*
X005756Y027811D03*
X005756Y027841D03*
X005756Y027871D03*
X005756Y027901D03*
X005786Y027871D03*
X005786Y027841D03*
X005726Y027841D03*
X005726Y027871D03*
D38*
X005771Y027991D03*
X005801Y028021D03*
X005771Y028051D03*
X005741Y028021D03*
D39*
X005741Y028051D03*
X005771Y028081D03*
X005801Y028051D03*
X005771Y028021D03*
D40*
X005771Y028051D03*
X005801Y028081D03*
X005771Y028111D03*
X005741Y028081D03*
D41*
X005756Y029521D03*
X005786Y029551D03*
X005756Y029581D03*
X005726Y029551D03*
D42*
X005741Y029581D03*
X005771Y029611D03*
X005801Y029581D03*
X005771Y029551D03*
D43*
X005756Y029581D03*
X005786Y029611D03*
X005756Y029641D03*
X005726Y029611D03*
M02*
