%
M48
M72
T01C0.0150
T02C0.0236
T03C0.0354
T04C0.0360
T05C0.0394
T06C0.0433
T07C0.0460
T08C0.0787
%
T01
X7012Y7041
X7622Y6431
X8134Y10348
X8134Y11647
X8586Y11647
X8134Y12100
X8783Y14009
X8783Y14462
X8783Y14915
X8960Y15801
X9590Y15348
X9905Y15702
X10220Y15348
X10535Y15702
X11677Y17061
X12012Y16706
X12327Y17061
X12642Y16706
X12957Y17031
X12907Y17653
X12311Y18061
X11861Y18031
X12169Y18990
X11854Y19344
X12484Y19344
X12819Y18990
X12821Y18391
X13301Y18391
X13401Y19427
X13961Y19861
X14728Y19305
X14724Y18765
X14411Y18391
X13941Y17120
X14374Y16903
X16401Y15309
X16323Y13911
X17071Y13261
X15319Y13163
X14669Y12572
X15142Y12198
X14351Y13591
X13897Y13230
X13685Y11903
X13232Y11746
X13721Y10291
X13783Y9777
X13252Y9521
X13705Y9128
X13429Y8694
X12917Y8694
X12327Y9049
X11771Y8701
X10841Y9601
X10693Y10269
X11598Y10230
X11579Y10702
X11951Y11131
X11539Y11431
X11421Y11883
X11086Y11549
X10752Y11883
X14413Y8202
X14709Y7848
X14081Y6991
X13311Y7041
X11201Y5941
X10791Y6352
X15811Y7218
X16106Y10033
X16697Y10958
X18744Y6214
X17181Y17191
X16601Y17581
X16992Y17868
X16992Y18399
X17799Y19994
X19331Y22261
X19121Y23881
X19841Y25111
X19206Y25269
X18764Y25738
X18449Y26072
X18134Y25738
X17764Y27041
X15614Y23065
X14966Y23026
X15941Y22111
X15581Y20791
X15716Y20216
X15146Y20135
X14531Y21691
X13061Y22651
X11351Y21091
X11171Y20671
X10691Y20671
X10811Y20191
X10301Y20161
X9791Y20161
X9781Y19681
X10141Y19411
X9761Y19161
X8891Y21301
X8291Y21661
X7751Y21271
X7241Y21691
X6401Y21151
X5081Y21211
X4961Y20041
X4571Y19171
X7901Y18991
X6431Y24061
X7271Y26791
X7961Y26791
X8861Y26791
X8861Y25741
X9791Y26791
X11001Y27661
X11451Y27661
X11901Y27671
X12361Y27671
X13391Y25441
X17831Y22801
X21011Y21241
X20921Y19771
T02
X20921Y18571
X17504Y18104
X17832Y25118
X21311Y27451
T03
X19657Y20620
X19646Y19541
X16244Y15978
X15516Y15978
X17445Y14915
X17445Y14187
X10815Y14317
X9295Y16431
T04
X4701Y22591
X4701Y23591
X4701Y24591
X20681Y24591
X20681Y23591
X20681Y22591
T05
X19681Y28072
X17929Y28072
T06
X18198Y18697
X18198Y17697
X18198Y16697
X18198Y15697
X18198Y14697
X18198Y13697
X18198Y12697
X18198Y11697
X18198Y10697
X18198Y9697
X18198Y8697
X18198Y7697
X19199Y7699
X19199Y8699
X19199Y9699
X19199Y10699
X19199Y11699
X19199Y12699
X19199Y13699
X19199Y14699
X19199Y15699
X19199Y16699
X19199Y17699
X19199Y18699
X20199Y18699
X20199Y17699
X20199Y16699
X20199Y15699
X20199Y14699
X20199Y13699
X20199Y12699
X20199Y11699
X20199Y10699
X20199Y9699
X20199Y8699
X20199Y7699
X7201Y7700
X7201Y8700
X7201Y9700
X7201Y10700
X7201Y11700
X7201Y12700
X7201Y13700
X7201Y14700
X7201Y15700
X7201Y16700
X7201Y17700
X7201Y18700
X6198Y18700
X6198Y17700
X6198Y16700
X6198Y15700
X6198Y14700
X6198Y13700
X6198Y12700
X6198Y11700
X6198Y10700
X6198Y9700
X6198Y8700
X6198Y7700
X5198Y7700
X5198Y8700
X5198Y9700
X5198Y10700
X5198Y11700
X5198Y12700
X5198Y13700
X5198Y14700
X5198Y15700
X5198Y16700
X5198Y17700
X5198Y18700
T07
X14214Y26560
X15214Y26560
T08
X3705Y6214
X3705Y29167
X21657Y29167
X21657Y6214
M30
