G75*
G70*
%OFA0B0*%
%FSLAX24Y24*%
%IPPOS*%
%LPD*%
%AMOC8*
5,1,8,0,0,1.08239X$1,22.5*
%
%ADD10R,0.0513X0.0474*%
%ADD11R,0.0198X0.0710*%
%ADD12R,0.0710X0.0198*%
%ADD13R,0.0789X0.0690*%
%ADD14R,0.0434X0.0356*%
%ADD15R,0.0474X0.0513*%
%ADD16C,0.0580*%
%ADD17R,0.0907X0.0671*%
%ADD18R,0.0480X0.0280*%
%ADD19R,0.0316X0.0316*%
%ADD20R,0.0395X0.0316*%
%ADD21R,0.0671X0.0277*%
%ADD22R,0.0277X0.0671*%
%ADD23R,0.0316X0.0395*%
%ADD24C,0.0753*%
%ADD25R,0.0867X0.0867*%
%ADD26R,0.1852X0.0867*%
%ADD27R,0.0867X0.1852*%
%ADD28R,0.0395X0.0749*%
%ADD29C,0.0631*%
%ADD30R,0.0297X0.0552*%
%ADD31C,0.0840*%
%ADD32R,0.0198X0.0395*%
%ADD33R,0.0198X0.0415*%
%ADD34R,0.0277X0.0986*%
%ADD35R,0.0867X0.1064*%
%ADD36C,0.0714*%
%ADD37C,0.0680*%
%ADD38R,0.1580X0.1749*%
%ADD39R,0.1024X0.1024*%
%ADD40R,0.0218X0.0395*%
%ADD41R,0.0395X0.0218*%
%ADD42R,0.0552X0.0867*%
%ADD43R,0.0867X0.0552*%
%ADD44R,0.0513X0.0867*%
%ADD45R,0.0867X0.0513*%
%ADD46R,0.0474X0.0631*%
%ADD47R,0.0474X0.0434*%
%ADD48R,0.0434X0.0474*%
%ADD49R,0.0671X0.0592*%
%ADD50R,0.0780X0.1320*%
%ADD51C,0.0674*%
%ADD52C,0.1261*%
%ADD53C,0.0556*%
%ADD54R,0.0556X0.0556*%
D10*
X008697Y010252D03*
X009367Y010252D03*
X010126Y013991D03*
X010126Y014660D03*
X012055Y013238D03*
X012724Y013238D03*
X012891Y015060D03*
X013560Y015060D03*
X012820Y021395D03*
X012151Y021395D03*
X012313Y023376D03*
X012982Y023376D03*
X015585Y008189D03*
X015857Y007697D03*
X016254Y008189D03*
X016526Y007697D03*
X012799Y007198D03*
X012130Y007198D03*
D11*
X012152Y015957D03*
X012349Y015957D03*
X012545Y015957D03*
X012742Y015957D03*
X012939Y015957D03*
X013136Y015957D03*
X013333Y015957D03*
X013530Y015957D03*
X013726Y015957D03*
X013923Y015957D03*
X014120Y015957D03*
X014317Y015957D03*
X014514Y015957D03*
X011955Y015957D03*
X011758Y015957D03*
X011561Y015957D03*
X011561Y020484D03*
X011758Y020484D03*
X011955Y020484D03*
X012152Y020484D03*
X012349Y020484D03*
X012545Y020484D03*
X012742Y020484D03*
X012939Y020484D03*
X013136Y020484D03*
X013333Y020484D03*
X013530Y020484D03*
X013726Y020484D03*
X013923Y020484D03*
X014120Y020484D03*
X014317Y020484D03*
X014514Y020484D03*
D12*
X015301Y019697D03*
X015301Y019500D03*
X015301Y019303D03*
X015301Y019106D03*
X015301Y018909D03*
X015301Y018712D03*
X015301Y018516D03*
X015301Y018319D03*
X015301Y018122D03*
X015301Y017925D03*
X015301Y017728D03*
X015301Y017531D03*
X015301Y017335D03*
X015301Y017138D03*
X015301Y016941D03*
X015301Y016744D03*
X010774Y016744D03*
X010774Y016941D03*
X010774Y017138D03*
X010774Y017335D03*
X010774Y017531D03*
X010774Y017728D03*
X010774Y017925D03*
X010774Y018122D03*
X010774Y018319D03*
X010774Y018516D03*
X010774Y018712D03*
X010774Y018909D03*
X010774Y019106D03*
X010774Y019303D03*
X010774Y019500D03*
X010774Y019697D03*
D13*
X008848Y018133D03*
X008848Y017208D03*
X016289Y019772D03*
X016289Y020697D03*
X018884Y020469D03*
X018884Y019544D03*
D14*
X016944Y019433D03*
X016944Y019945D03*
X016945Y020356D03*
X016945Y020867D03*
D15*
X016179Y021314D03*
X015510Y021314D03*
X014866Y021241D03*
X014196Y021241D03*
X016139Y019051D03*
X016139Y018382D03*
X016144Y017857D03*
X016144Y017187D03*
X015943Y015341D03*
X015273Y015341D03*
X010049Y017337D03*
X010049Y018006D03*
X009549Y018007D03*
X009549Y017338D03*
X015041Y025046D03*
X015041Y025715D03*
X017946Y024121D03*
X018616Y024121D03*
X020256Y025681D03*
X020926Y025681D03*
X020083Y006982D03*
X019413Y006982D03*
X019413Y005860D03*
X020083Y005860D03*
X015311Y006919D03*
X014642Y006919D03*
X006539Y006726D03*
X005870Y006726D03*
X005870Y006017D03*
X006539Y006017D03*
D16*
X019646Y020627D03*
D17*
X019549Y024490D03*
X019549Y025907D03*
X014161Y025659D03*
X014161Y024242D03*
X004271Y026172D03*
X004271Y027589D03*
D18*
X012297Y014205D03*
X012297Y013850D03*
X013045Y013850D03*
X013045Y014205D03*
D19*
X014484Y014404D03*
X014799Y014404D03*
X014799Y014916D03*
X014484Y014916D03*
X016776Y015952D03*
X016776Y016267D03*
X017288Y016267D03*
X017288Y015952D03*
D20*
X015153Y014916D03*
X015153Y014404D03*
X014130Y014404D03*
X014130Y014916D03*
X019472Y006580D03*
X019472Y006281D03*
X020023Y006281D03*
X020023Y006580D03*
D21*
X014612Y008686D03*
X014612Y009001D03*
X014612Y009316D03*
X014612Y009631D03*
X014612Y009946D03*
X014612Y010261D03*
X014612Y010576D03*
X014612Y010891D03*
X014612Y011206D03*
X014612Y011521D03*
X014612Y011836D03*
X010045Y011836D03*
X010045Y011521D03*
X010045Y011206D03*
X010045Y010891D03*
X010045Y010576D03*
X010045Y010261D03*
X010045Y009946D03*
X010045Y009631D03*
X010045Y009316D03*
X010045Y009001D03*
X010045Y008686D03*
D22*
X010754Y007977D03*
X011069Y007977D03*
X011384Y007977D03*
X011699Y007977D03*
X012014Y007977D03*
X012329Y007977D03*
X012644Y007977D03*
X012959Y007977D03*
X013274Y007977D03*
X013589Y007977D03*
X013904Y007977D03*
X013904Y012544D03*
X013589Y012544D03*
X013274Y012544D03*
X012959Y012544D03*
X012644Y012544D03*
X012329Y012544D03*
X012014Y012544D03*
X011699Y012544D03*
X011384Y012544D03*
X011069Y012544D03*
X010754Y012544D03*
D23*
X005468Y006588D03*
X005169Y006588D03*
X005169Y006037D03*
X005468Y006037D03*
X016776Y015597D03*
X017288Y015597D03*
X017288Y016621D03*
X016776Y016621D03*
D24*
X018198Y016697D03*
X018198Y017697D03*
X018198Y018697D03*
X019199Y018699D03*
X019199Y017699D03*
X019199Y016699D03*
X019199Y015699D03*
X019199Y014699D03*
X019199Y013699D03*
X019199Y012699D03*
X019199Y011699D03*
X019199Y010699D03*
X019199Y009699D03*
X019199Y008699D03*
X019199Y007699D03*
X020199Y007699D03*
X020199Y008699D03*
X020199Y009699D03*
X020199Y010699D03*
X020199Y011699D03*
X020199Y012699D03*
X020199Y013699D03*
X020199Y014699D03*
X020199Y015699D03*
X020199Y016699D03*
X020199Y017699D03*
X020199Y018699D03*
X018198Y015697D03*
X018198Y014697D03*
X018198Y013697D03*
X018198Y012697D03*
X018198Y011697D03*
X018198Y010697D03*
X018198Y009697D03*
X018198Y008697D03*
X018198Y007697D03*
X007201Y007700D03*
X007201Y008700D03*
X007201Y009700D03*
X007201Y010700D03*
X007201Y011700D03*
X007201Y012700D03*
X007201Y013700D03*
X007201Y014700D03*
X007201Y015700D03*
X007201Y016700D03*
X007201Y017700D03*
X007201Y018700D03*
X006198Y018700D03*
X006198Y017700D03*
X006198Y016700D03*
X006198Y015700D03*
X006198Y014700D03*
X006198Y013700D03*
X006198Y012700D03*
X006198Y011700D03*
X006198Y010700D03*
X006198Y009700D03*
X006198Y008700D03*
X006198Y007700D03*
X005198Y007700D03*
X005198Y008700D03*
X005198Y009700D03*
X005198Y010700D03*
X005198Y011700D03*
X005198Y012700D03*
X005198Y013700D03*
X005198Y014700D03*
X005198Y015700D03*
X005198Y016700D03*
X005198Y017700D03*
X005198Y018700D03*
D25*
X011113Y021759D03*
X011113Y022979D03*
X015791Y008950D03*
X017012Y008950D03*
D26*
X014676Y022369D03*
D27*
X016401Y012513D03*
D28*
X016913Y014541D03*
X015575Y014521D03*
D29*
X015516Y015978D03*
X016244Y015978D03*
X017445Y014915D03*
X017445Y014187D03*
X017504Y018104D03*
X019590Y019482D03*
X010815Y014344D03*
X009295Y016431D03*
D30*
X017425Y019462D03*
X017425Y020486D03*
X017799Y020486D03*
X018173Y020486D03*
X018173Y019462D03*
D31*
X015214Y026560D03*
X014214Y026560D03*
D32*
X009431Y020020D03*
X009234Y020020D03*
X009037Y020020D03*
X008841Y020020D03*
X008644Y020020D03*
X008447Y020020D03*
X008250Y020020D03*
X008053Y020020D03*
X008053Y019390D03*
X008250Y019390D03*
X008447Y019390D03*
X008644Y019390D03*
X008841Y019390D03*
X009037Y019390D03*
X009234Y019390D03*
X009431Y019390D03*
X006896Y019390D03*
X006699Y019390D03*
X006502Y019390D03*
X006305Y019390D03*
X006108Y019390D03*
X005912Y019390D03*
X005715Y019390D03*
X005518Y019390D03*
X005518Y020020D03*
X005715Y020020D03*
X005912Y020020D03*
X006108Y020020D03*
X006305Y020020D03*
X006502Y020020D03*
X006699Y020020D03*
X006896Y020020D03*
D33*
X007214Y019991D03*
X007470Y019991D03*
X007726Y019991D03*
X007726Y019420D03*
X007470Y019420D03*
X007214Y019420D03*
D34*
X018165Y027049D03*
X018480Y027049D03*
X018795Y027049D03*
X019110Y027049D03*
X019425Y027049D03*
D35*
X020547Y027088D03*
X020547Y029254D03*
X017043Y029254D03*
X017043Y027088D03*
D36*
X017929Y028072D03*
X019681Y028072D03*
D37*
X020381Y024591D02*
X020981Y024591D01*
X020981Y023591D02*
X020381Y023591D01*
X020381Y022591D02*
X020981Y022591D01*
X005001Y022591D02*
X004401Y022591D01*
X004401Y023591D02*
X005001Y023591D01*
X005001Y024591D02*
X004401Y024591D01*
D38*
X011721Y026401D03*
X011721Y028912D03*
D39*
X016361Y024421D03*
D40*
X016233Y025208D03*
X015977Y025208D03*
X016489Y025208D03*
X016745Y025208D03*
X016745Y023633D03*
X016489Y023633D03*
X016233Y023633D03*
X015977Y023633D03*
D41*
X015574Y024037D03*
X015574Y024293D03*
X015574Y024549D03*
X015574Y024804D03*
X017148Y024804D03*
X017148Y024549D03*
X017148Y024293D03*
X017148Y024037D03*
D42*
X017261Y025951D03*
X016001Y025951D03*
D43*
X019301Y022920D03*
X019301Y021661D03*
D44*
X018466Y022391D03*
X016576Y022391D03*
D45*
X017521Y023335D03*
X017521Y021446D03*
D46*
X021297Y026534D03*
X022045Y026534D03*
X021671Y025667D03*
D47*
X010066Y020652D03*
X009475Y020652D03*
X008885Y020652D03*
X008294Y020652D03*
X007704Y020652D03*
X007113Y020652D03*
X006522Y020652D03*
X005932Y020652D03*
D48*
X005609Y021180D03*
X005609Y021771D03*
X005609Y022361D03*
X005609Y022952D03*
X005609Y023542D03*
X005609Y024133D03*
X005609Y024723D03*
X005609Y025314D03*
X005609Y025904D03*
X005609Y026495D03*
X005609Y027086D03*
X005609Y027676D03*
X005609Y028267D03*
X010373Y028267D03*
X010373Y027676D03*
X010373Y027086D03*
X010373Y026495D03*
X010373Y025904D03*
X010373Y025314D03*
X010373Y024723D03*
X010373Y024133D03*
X010373Y023542D03*
X010373Y022952D03*
X010373Y022361D03*
X010373Y021771D03*
X010373Y021180D03*
D49*
X021941Y027176D03*
X021941Y027845D03*
D50*
X013231Y024441D03*
X011181Y024441D03*
D51*
X009295Y016431D03*
X010815Y014317D03*
X015516Y015978D03*
X016244Y015978D03*
X017445Y014915D03*
X017445Y014187D03*
X019646Y019541D03*
X019657Y020620D03*
D52*
X003705Y006214D03*
X003705Y029167D03*
X021657Y029167D03*
X021657Y006214D03*
D53*
X017504Y018104D03*
X017832Y025118D03*
X021311Y027451D03*
D54*
X020921Y018571D03*
M02*
