M48
T01C0.0150
T02C0.0360
T03C0.0400
T04C0.0433
T05C0.0460
T06C0.0500
T07C0.0530
T08C0.0950
T09C0.1300
G90
M72
%
T06
X43315Y16900
X43315Y15030
X43315Y13160
X62620Y16900
X62620Y15030
X62620Y13160
X62620Y36340
X62620Y34470
X62620Y32600
X24415Y16900
X24415Y15030
X24415Y13160
X24955Y54835
X24955Y52965
X24955Y51095
X5785Y36070
X5785Y34200
X5785Y32330
X24955Y35800
X24955Y33930
X24955Y32060
X5245Y17035
X5245Y15165
X5245Y13295
X43990Y36070
X43990Y34200
X43990Y32330
X44125Y54700
X44125Y52830
X44125Y50960
X5785Y54835
X5785Y52965
X5785Y51095
X62890Y55240
X62890Y53370
X62890Y51500
T01
X43525Y5430
X41245Y6840
X48205Y7680
X48205Y8100
X50035Y7800
X50305Y8100
X50425Y9450
X49975Y9510
X51625Y10740
X48115Y10320
X48955Y5880
X62830Y5430
X60550Y6840
X67510Y7680
X67510Y8100
X69340Y7800
X69610Y8100
X69730Y9450
X69280Y9510
X70930Y10740
X67420Y10320
X68260Y5880
X62830Y24870
X60550Y26280
X67510Y27120
X67510Y27540
X69340Y27240
X69610Y27540
X69730Y28890
X69280Y28950
X70930Y30180
X67420Y29760
X68260Y25320
X24625Y5430
X22345Y6840
X29305Y7680
X29305Y8100
X31135Y7800
X31405Y8100
X31525Y9450
X31075Y9510
X32725Y10740
X29215Y10320
X30055Y5880
X25165Y43365
X22885Y44775
X29845Y45615
X29845Y46035
X31675Y45735
X31945Y46035
X32065Y47385
X31615Y47445
X33265Y48675
X29755Y48255
X30595Y43815
X5995Y24600
X3715Y26010
X10675Y26850
X10675Y27270
X12505Y26970
X12775Y27270
X12895Y28620
X12445Y28680
X14095Y29910
X10585Y29490
X11425Y25050
X25165Y24330
X22885Y25740
X29845Y26580
X29845Y27000
X31675Y26700
X31945Y27000
X32065Y28350
X31615Y28410
X33265Y29640
X29755Y29220
X30595Y24780
X5455Y5565
X3175Y6975
X10135Y7815
X10135Y8235
X11965Y7935
X12235Y8235
X12355Y9585
X11905Y9645
X13555Y10875
X10045Y10455
X10885Y6015
X44200Y24600
X41920Y26010
X48880Y26850
X48880Y27270
X50710Y26970
X50980Y27270
X51100Y28620
X50650Y28680
X52300Y29910
X48790Y29490
X49630Y25050
X44335Y43230
X42055Y44640
X49015Y45480
X49015Y45900
X50845Y45600
X51115Y45900
X51235Y47250
X50785Y47310
X52435Y48540
X48925Y48120
X49765Y43680
X5995Y43365
X3715Y44775
X10675Y45615
X10675Y46035
X12505Y45735
X12775Y46035
X12895Y47385
X12445Y47445
X14095Y48675
X10585Y48255
X11425Y43815
X63100Y43770
X60820Y45180
X67780Y46020
X67780Y46440
X69610Y46140
X69880Y46440
X70000Y47790
X69550Y47850
X71200Y49080
X67690Y48660
X68530Y44220
T09
X54845Y12650
X74150Y12650
X74150Y32090
X35945Y12650
X36485Y50585
X17315Y31820
X36485Y31550
X16775Y12785
X55520Y31820
X55655Y50450
X17315Y50585
X74420Y50990
T04
X53365Y4940
X52365Y4940
X51365Y4940
X50365Y4940
X49365Y4940
X48365Y4940
X47365Y4940
X72670Y4940
X71670Y4940
X70670Y4940
X69670Y4940
X68670Y4940
X67670Y4940
X66670Y4940
X72670Y24380
X71670Y24380
X70670Y24380
X69670Y24380
X68670Y24380
X67670Y24380
X66670Y24380
X34465Y4940
X33465Y4940
X32465Y4940
X31465Y4940
X30465Y4940
X29465Y4940
X28465Y4940
X35005Y42875
X34005Y42875
X33005Y42875
X32005Y42875
X31005Y42875
X30005Y42875
X29005Y42875
X15835Y24110
X14835Y24110
X13835Y24110
X12835Y24110
X11835Y24110
X10835Y24110
X9835Y24110
X35005Y23840
X34005Y23840
X33005Y23840
X32005Y23840
X31005Y23840
X30005Y23840
X29005Y23840
X15295Y5075
X14295Y5075
X13295Y5075
X12295Y5075
X11295Y5075
X10295Y5075
X9295Y5075
X54040Y24110
X53040Y24110
X52040Y24110
X51040Y24110
X50040Y24110
X49040Y24110
X48040Y24110
X54175Y42740
X53175Y42740
X52175Y42740
X51175Y42740
X50175Y42740
X49175Y42740
X48175Y42740
X15835Y42875
X14835Y42875
X13835Y42875
X12835Y42875
X11835Y42875
X10835Y42875
X9835Y42875
X72940Y43280
X71940Y43280
X70940Y43280
X69940Y43280
X68940Y43280
X67940Y43280
X66940Y43280
T03
X55845Y6750
X54845Y6750
X53845Y6750
X75150Y6750
X74150Y6750
X73150Y6750
X30277Y61064
X30277Y62064
X30277Y63064
X31677Y63064
X31677Y62064
X31677Y61064
X33077Y61064
X33077Y62064
X33077Y63064
X75150Y26190
X74150Y26190
X73150Y26190
X5167Y61064
X5167Y62064
X5167Y63064
X6567Y63064
X6567Y62064
X6567Y61064
X7967Y61064
X7967Y62064
X7967Y63064
X36945Y6750
X35945Y6750
X34945Y6750
X37485Y44685
X36485Y44685
X35485Y44685
X18315Y25920
X17315Y25920
X16315Y25920
X42697Y61199
X42697Y62199
X42697Y63199
X44097Y63199
X44097Y62199
X44097Y61199
X45497Y61199
X45497Y62199
X45497Y63199
X37485Y25650
X36485Y25650
X35485Y25650
X17775Y6885
X16775Y6885
X15775Y6885
X56520Y25920
X55520Y25920
X54520Y25920
X55252Y61064
X55252Y62064
X55252Y63064
X56652Y63064
X56652Y62064
X56652Y61064
X58052Y61064
X58052Y62064
X58052Y63064
X56655Y44550
X55655Y44550
X54655Y44550
X17722Y61064
X17722Y62064
X17722Y63064
X19122Y63064
X19122Y62064
X19122Y61064
X20522Y61064
X20522Y62064
X20522Y63064
X18315Y44685
X17315Y44685
X16315Y44685
X68482Y61334
X68482Y62334
X68482Y63334
X69882Y63334
X69882Y62334
X69882Y61334
X71282Y61334
X71282Y62334
X71282Y63334
X75420Y45090
X74420Y45090
X73420Y45090
T08
X26635Y60524
X36706Y60525
X36722Y70601
X26625Y70611
X1525Y60524
X11596Y60525
X11612Y70601
X1515Y70611
X39055Y60659
X49126Y60660
X49142Y70736
X39045Y70746
X51610Y60524
X61681Y60525
X61697Y70601
X51600Y70611
X14080Y60524
X24151Y60525
X24167Y70601
X14070Y70611
X64840Y60794
X74911Y60795
X74927Y70871
X64830Y70881
T07
X51465Y14720
X53605Y14720
X54565Y14720
X56705Y14720
X56705Y17480
X54565Y17480
X53605Y17480
X51465Y17480
X70770Y14720
X72910Y14720
X73870Y14720
X76010Y14720
X76010Y17480
X73870Y17480
X72910Y17480
X70770Y17480
X70770Y34160
X72910Y34160
X73870Y34160
X76010Y34160
X76010Y36920
X73870Y36920
X72910Y36920
X70770Y36920
X32565Y14720
X34705Y14720
X35665Y14720
X37805Y14720
X37805Y17480
X35665Y17480
X34705Y17480
X32565Y17480
X33105Y52655
X35245Y52655
X36205Y52655
X38345Y52655
X38345Y55415
X36205Y55415
X35245Y55415
X33105Y55415
X13935Y33890
X16075Y33890
X17035Y33890
X19175Y33890
X19175Y36650
X17035Y36650
X16075Y36650
X13935Y36650
X33105Y33620
X35245Y33620
X36205Y33620
X38345Y33620
X38345Y36380
X36205Y36380
X35245Y36380
X33105Y36380
X13395Y14855
X15535Y14855
X16495Y14855
X18635Y14855
X18635Y17615
X16495Y17615
X15535Y17615
X13395Y17615
X52140Y33890
X54280Y33890
X55240Y33890
X57380Y33890
X57380Y36650
X55240Y36650
X54280Y36650
X52140Y36650
X52275Y52520
X54415Y52520
X55375Y52520
X57515Y52520
X57515Y55280
X55375Y55280
X54415Y55280
X52275Y55280
X13935Y52655
X16075Y52655
X17035Y52655
X19175Y52655
X19175Y55415
X17035Y55415
X16075Y55415
X13935Y55415
X71040Y53060
X73180Y53060
X74140Y53060
X76280Y53060
X76280Y55820
X74140Y55820
X73180Y55820
X71040Y55820
T05
X55365Y4940
X56365Y4940
X49365Y16020
X48365Y16020
X46365Y16020
X45365Y16020
X74670Y4940
X75670Y4940
X68670Y16020
X67670Y16020
X65670Y16020
X64670Y16020
X74670Y24380
X75670Y24380
X68670Y35460
X67670Y35460
X65670Y35460
X64670Y35460
X36465Y4940
X37465Y4940
X30465Y16020
X29465Y16020
X27465Y16020
X26465Y16020
X37005Y42875
X38005Y42875
X31005Y53955
X30005Y53955
X28005Y53955
X27005Y53955
X17835Y24110
X18835Y24110
X11835Y35190
X10835Y35190
X8835Y35190
X7835Y35190
X37005Y23840
X38005Y23840
X31005Y34920
X30005Y34920
X28005Y34920
X27005Y34920
X17295Y5075
X18295Y5075
X11295Y16155
X10295Y16155
X8295Y16155
X7295Y16155
X56040Y24110
X57040Y24110
X50040Y35190
X49040Y35190
X47040Y35190
X46040Y35190
X56175Y42740
X57175Y42740
X50175Y53820
X49175Y53820
X47175Y53820
X46175Y53820
X17835Y42875
X18835Y42875
X11835Y53955
X10835Y53955
X8835Y53955
X7835Y53955
X74940Y43280
X75940Y43280
X68940Y54360
X67940Y54360
X65940Y54360
X64940Y54360
T02
X49575Y11470
X50575Y11470
X52535Y14820
X52535Y15610
X52535Y16400
X52535Y17190
X55635Y17190
X55635Y16400
X55635Y15610
X55635Y14820
X68880Y11470
X69880Y11470
X71840Y14820
X71840Y15610
X71840Y16400
X71840Y17190
X74940Y17190
X74940Y16400
X74940Y15610
X74940Y14820
X68880Y30910
X69880Y30910
X71840Y34260
X71840Y35050
X71840Y35840
X71840Y36630
X74940Y36630
X74940Y35840
X74940Y35050
X74940Y34260
X30675Y11470
X31675Y11470
X33635Y14820
X33635Y15610
X33635Y16400
X33635Y17190
X36735Y17190
X36735Y16400
X36735Y15610
X36735Y14820
X31215Y49405
X32215Y49405
X34175Y52755
X34175Y53545
X34175Y54335
X34175Y55125
X37275Y55125
X37275Y54335
X37275Y53545
X37275Y52755
X12045Y30640
X13045Y30640
X15005Y33990
X15005Y34780
X15005Y35570
X15005Y36360
X18105Y36360
X18105Y35570
X18105Y34780
X18105Y33990
X31215Y30370
X32215Y30370
X34175Y33720
X34175Y34510
X34175Y35300
X34175Y36090
X37275Y36090
X37275Y35300
X37275Y34510
X37275Y33720
X11505Y11605
X12505Y11605
X14465Y14955
X14465Y15745
X14465Y16535
X14465Y17325
X17565Y17325
X17565Y16535
X17565Y15745
X17565Y14955
X50250Y30640
X51250Y30640
X53210Y33990
X53210Y34780
X53210Y35570
X53210Y36360
X56310Y36360
X56310Y35570
X56310Y34780
X56310Y33990
X50385Y49270
X51385Y49270
X53345Y52620
X53345Y53410
X53345Y54200
X53345Y54990
X56445Y54990
X56445Y54200
X56445Y53410
X56445Y52620
X12045Y49405
X13045Y49405
X15005Y52755
X15005Y53545
X15005Y54335
X15005Y55125
X18105Y55125
X18105Y54335
X18105Y53545
X18105Y52755
X69150Y49810
X70150Y49810
X72110Y53160
X72110Y53950
X72110Y54740
X72110Y55530
X75210Y55530
X75210Y54740
X75210Y53950
X75210Y53160
M30
