G75*
G70*
%OFA0B0*%
%FSLAX24Y24*%
%IPPOS*%
%LPD*%
G04 *
G04 macro definitions for tiled file 'solderStiched.GTS':*
G04 *
%AMOC8*
5,1,8,0,0,1.08239X$1,22.5*
%
G04 *
G04 aperture list for tiled file 'solderStiched.GTS':*
G04 *
%ADD15R,0.0513X0.0474*%
%ADD26R,0.0907X0.0671*%
%ADD20R,0.0474X0.0198*%
%ADD28C,0.0390*%
%ADD25R,0.1749X0.1580*%
%ADD14R,0.0552X0.0552*%
%ADD13C,0.1380*%
%ADD16R,0.0474X0.0513*%
%ADD27C,0.0830*%
%ADD29C,0.1030*%
%ADD24R,0.0789X0.0690*%
%ADD18R,0.0474X0.0434*%
%ADD21C,0.0875*%
%ADD11C,0.0730*%
%ADD19C,0.0640*%
%ADD23R,0.0356X0.0316*%
%ADD12C,0.0680*%
%ADD10C,0.0840*%
%ADD17R,0.0434X0.0474*%
G04 *
G04 next data from source file './adknbcopyanothercopy/top_soldermask.GTS', *
G04 source file key is 'infile_0003'. *
G04 *
D10*
X055365Y004940D03*
X056365Y004940D03*
X049365Y016020D03*
X048365Y016020D03*
X046365Y016020D03*
X045365Y016020D03*
D11*
X047365Y004940D03*
X048365Y004940D03*
X049365Y004940D03*
X050365Y004940D03*
X051365Y004940D03*
X052365Y004940D03*
X053365Y004940D03*
D12*
X053845Y006450D02*
X053845Y007050D01*
X054845Y007050D02*
X054845Y006450D01*
X055845Y006450D02*
X055845Y007050D01*
D13*
X054845Y012650D03*
D14*
X052215Y012937D03*
X052215Y013763D03*
X052355Y010553D03*
X052355Y009727D03*
X045558Y011790D03*
X044732Y011790D03*
D15*
X052355Y009195D03*
X052355Y008525D03*
D16*
X041030Y004800D03*
X041700Y004800D03*
X042350Y004800D03*
X043020Y004800D03*
X043020Y005610D03*
X042350Y005610D03*
X041700Y005610D03*
X041030Y005610D03*
X045340Y005450D03*
X046010Y005450D03*
X048020Y011600D03*
X048690Y011600D03*
X046920Y011790D03*
X046250Y011790D03*
X050110Y015260D03*
X050780Y015260D03*
D17*
X048773Y010665D03*
X048773Y010074D03*
X048773Y009484D03*
X048773Y008893D03*
X048773Y008303D03*
X048773Y007712D03*
X048773Y007121D03*
X048773Y006531D03*
D18*
X048246Y006208D03*
X047655Y006208D03*
X047064Y006208D03*
X046474Y006208D03*
X045883Y006208D03*
X045293Y006208D03*
X044702Y006208D03*
X044112Y006208D03*
X043521Y006208D03*
X042931Y006208D03*
X042340Y006208D03*
X041749Y006208D03*
X041159Y006208D03*
X041159Y010972D03*
X041749Y010972D03*
X042340Y010972D03*
X042931Y010972D03*
X043521Y010972D03*
X044112Y010972D03*
X044702Y010972D03*
X045293Y010972D03*
X045883Y010972D03*
X046474Y010972D03*
X047064Y010972D03*
X047655Y010972D03*
X048246Y010972D03*
D19*
X049575Y011190D02*
X049575Y011750D01*
X050575Y011750D02*
X050575Y011190D01*
D20*
X051317Y008350D03*
X051317Y008094D03*
X051317Y007838D03*
X051317Y007582D03*
X051317Y007326D03*
X051317Y007070D03*
X051317Y006815D03*
X051317Y006559D03*
X051317Y006303D03*
X051317Y006047D03*
X049565Y006047D03*
X049565Y006303D03*
X049565Y006559D03*
X049565Y006815D03*
X049565Y007070D03*
X049565Y007326D03*
X049565Y007582D03*
X049565Y007838D03*
X049565Y008094D03*
X049565Y008350D03*
D21*
X051465Y014720D03*
X053605Y014720D03*
X054565Y014720D03*
X056705Y014720D03*
X056705Y017480D03*
X054565Y017480D03*
X053605Y017480D03*
X051465Y017480D03*
D19*
X052535Y017190D03*
X052535Y016400D03*
X052535Y015610D03*
X052535Y014820D03*
X055635Y014820D03*
X055635Y015610D03*
X055635Y016400D03*
X055635Y017190D03*
D23*
X050071Y009884D03*
X050071Y009136D03*
X050859Y009510D03*
D24*
X051445Y009047D03*
X051445Y009973D03*
X049465Y009973D03*
X049465Y009047D03*
D25*
X048017Y013260D03*
X045505Y013260D03*
D26*
X052315Y007399D03*
X052315Y005981D03*
D27*
X043315Y013160D03*
X043315Y015030D03*
X043315Y016900D03*
D28*
X048115Y010320D03*
X049975Y009510D03*
X050425Y009450D03*
X050305Y008100D03*
X050035Y007800D03*
X048205Y007680D03*
X048205Y008100D03*
X048955Y005880D03*
X043525Y005430D03*
X041245Y006840D03*
X051625Y010740D03*
G04 *
G04 next data from source file './adknbcopy3rdcopy/top_soldermask.GTS', *
G04 source file key is 'infile_0010'. *
G04 *
D10*
X074670Y004940D03*
X075670Y004940D03*
X068670Y016020D03*
X067670Y016020D03*
X065670Y016020D03*
X064670Y016020D03*
D11*
X066670Y004940D03*
X067670Y004940D03*
X068670Y004940D03*
X069670Y004940D03*
X070670Y004940D03*
X071670Y004940D03*
X072670Y004940D03*
D12*
X073150Y006450D02*
X073150Y007050D01*
X074150Y007050D02*
X074150Y006450D01*
X075150Y006450D02*
X075150Y007050D01*
D13*
X074150Y012650D03*
D14*
X071520Y012937D03*
X071520Y013763D03*
X071660Y010553D03*
X071660Y009727D03*
X064863Y011790D03*
X064037Y011790D03*
D15*
X071660Y009195D03*
X071660Y008525D03*
D16*
X060335Y004800D03*
X061005Y004800D03*
X061655Y004800D03*
X062325Y004800D03*
X062325Y005610D03*
X061655Y005610D03*
X061005Y005610D03*
X060335Y005610D03*
X064645Y005450D03*
X065315Y005450D03*
X067325Y011600D03*
X067995Y011600D03*
X066225Y011790D03*
X065555Y011790D03*
X069415Y015260D03*
X070085Y015260D03*
D17*
X068078Y010665D03*
X068078Y010074D03*
X068078Y009484D03*
X068078Y008893D03*
X068078Y008303D03*
X068078Y007712D03*
X068078Y007121D03*
X068078Y006531D03*
D18*
X067551Y006208D03*
X066960Y006208D03*
X066369Y006208D03*
X065779Y006208D03*
X065188Y006208D03*
X064598Y006208D03*
X064007Y006208D03*
X063417Y006208D03*
X062826Y006208D03*
X062236Y006208D03*
X061645Y006208D03*
X061054Y006208D03*
X060464Y006208D03*
X060464Y010972D03*
X061054Y010972D03*
X061645Y010972D03*
X062236Y010972D03*
X062826Y010972D03*
X063417Y010972D03*
X064007Y010972D03*
X064598Y010972D03*
X065188Y010972D03*
X065779Y010972D03*
X066369Y010972D03*
X066960Y010972D03*
X067551Y010972D03*
D19*
X068880Y011190D02*
X068880Y011750D01*
X069880Y011750D02*
X069880Y011190D01*
D20*
X070622Y008350D03*
X070622Y008094D03*
X070622Y007838D03*
X070622Y007582D03*
X070622Y007326D03*
X070622Y007070D03*
X070622Y006815D03*
X070622Y006559D03*
X070622Y006303D03*
X070622Y006047D03*
X068870Y006047D03*
X068870Y006303D03*
X068870Y006559D03*
X068870Y006815D03*
X068870Y007070D03*
X068870Y007326D03*
X068870Y007582D03*
X068870Y007838D03*
X068870Y008094D03*
X068870Y008350D03*
D21*
X070770Y014720D03*
X072910Y014720D03*
X073870Y014720D03*
X076010Y014720D03*
X076010Y017480D03*
X073870Y017480D03*
X072910Y017480D03*
X070770Y017480D03*
D19*
X071840Y017190D03*
X071840Y016400D03*
X071840Y015610D03*
X071840Y014820D03*
X074940Y014820D03*
X074940Y015610D03*
X074940Y016400D03*
X074940Y017190D03*
D23*
X069376Y009884D03*
X069376Y009136D03*
X070164Y009510D03*
D24*
X070750Y009047D03*
X070750Y009973D03*
X068770Y009973D03*
X068770Y009047D03*
D25*
X067322Y013260D03*
X064810Y013260D03*
D26*
X071620Y007399D03*
X071620Y005981D03*
D27*
X062620Y013160D03*
X062620Y015030D03*
X062620Y016900D03*
D28*
X067420Y010320D03*
X069280Y009510D03*
X069730Y009450D03*
X069610Y008100D03*
X069340Y007800D03*
X067510Y007680D03*
X067510Y008100D03*
X068260Y005880D03*
X062830Y005430D03*
X060550Y006840D03*
X070930Y010740D03*
G04 *
G04 next data from source file './magencodercopy3rdcopy/top_soldermask.GTS', *
G04 source file key is 'infile_0008'. *
G04 *
D29*
X026635Y060524D03*
X036706Y060525D03*
X036722Y070601D03*
X026625Y070611D03*
D12*
X029977Y063064D02*
X030577Y063064D01*
X031377Y063064D02*
X031977Y063064D01*
X032777Y063064D02*
X033377Y063064D01*
X033377Y062064D02*
X032777Y062064D01*
X031977Y062064D02*
X031377Y062064D01*
X030577Y062064D02*
X029977Y062064D01*
X029977Y061064D02*
X030577Y061064D01*
X031377Y061064D02*
X031977Y061064D01*
X032777Y061064D02*
X033377Y061064D01*
G04 *
G04 next data from source file './adknbanothercopy/top_soldermask.GTS', *
G04 source file key is 'infile_0007'. *
G04 *
D10*
X074670Y024380D03*
X075670Y024380D03*
X068670Y035460D03*
X067670Y035460D03*
X065670Y035460D03*
X064670Y035460D03*
D11*
X066670Y024380D03*
X067670Y024380D03*
X068670Y024380D03*
X069670Y024380D03*
X070670Y024380D03*
X071670Y024380D03*
X072670Y024380D03*
D12*
X073150Y025890D02*
X073150Y026490D01*
X074150Y026490D02*
X074150Y025890D01*
X075150Y025890D02*
X075150Y026490D01*
D13*
X074150Y032090D03*
D14*
X071520Y032377D03*
X071520Y033203D03*
X071660Y029993D03*
X071660Y029167D03*
X064863Y031230D03*
X064037Y031230D03*
D15*
X071660Y028635D03*
X071660Y027965D03*
D16*
X060335Y024240D03*
X061005Y024240D03*
X061655Y024240D03*
X062325Y024240D03*
X062325Y025050D03*
X061655Y025050D03*
X061005Y025050D03*
X060335Y025050D03*
X064645Y024890D03*
X065315Y024890D03*
X067325Y031040D03*
X067995Y031040D03*
X066225Y031230D03*
X065555Y031230D03*
X069415Y034700D03*
X070085Y034700D03*
D17*
X068078Y030105D03*
X068078Y029514D03*
X068078Y028924D03*
X068078Y028333D03*
X068078Y027743D03*
X068078Y027152D03*
X068078Y026561D03*
X068078Y025971D03*
D18*
X067551Y025648D03*
X066960Y025648D03*
X066369Y025648D03*
X065779Y025648D03*
X065188Y025648D03*
X064598Y025648D03*
X064007Y025648D03*
X063417Y025648D03*
X062826Y025648D03*
X062236Y025648D03*
X061645Y025648D03*
X061054Y025648D03*
X060464Y025648D03*
X060464Y030412D03*
X061054Y030412D03*
X061645Y030412D03*
X062236Y030412D03*
X062826Y030412D03*
X063417Y030412D03*
X064007Y030412D03*
X064598Y030412D03*
X065188Y030412D03*
X065779Y030412D03*
X066369Y030412D03*
X066960Y030412D03*
X067551Y030412D03*
D19*
X068880Y030630D02*
X068880Y031190D01*
X069880Y031190D02*
X069880Y030630D01*
D20*
X070622Y027790D03*
X070622Y027534D03*
X070622Y027278D03*
X070622Y027022D03*
X070622Y026766D03*
X070622Y026510D03*
X070622Y026255D03*
X070622Y025999D03*
X070622Y025743D03*
X070622Y025487D03*
X068870Y025487D03*
X068870Y025743D03*
X068870Y025999D03*
X068870Y026255D03*
X068870Y026510D03*
X068870Y026766D03*
X068870Y027022D03*
X068870Y027278D03*
X068870Y027534D03*
X068870Y027790D03*
D21*
X070770Y034160D03*
X072910Y034160D03*
X073870Y034160D03*
X076010Y034160D03*
X076010Y036920D03*
X073870Y036920D03*
X072910Y036920D03*
X070770Y036920D03*
D19*
X071840Y036630D03*
X071840Y035840D03*
X071840Y035050D03*
X071840Y034260D03*
X074940Y034260D03*
X074940Y035050D03*
X074940Y035840D03*
X074940Y036630D03*
D23*
X069376Y029324D03*
X069376Y028576D03*
X070164Y028950D03*
D24*
X070750Y028487D03*
X070750Y029413D03*
X068770Y029413D03*
X068770Y028487D03*
D25*
X067322Y032700D03*
X064810Y032700D03*
D26*
X071620Y026839D03*
X071620Y025421D03*
D27*
X062620Y032600D03*
X062620Y034470D03*
X062620Y036340D03*
D28*
X067420Y029760D03*
X069280Y028950D03*
X069730Y028890D03*
X069610Y027540D03*
X069340Y027240D03*
X067510Y027120D03*
X067510Y027540D03*
X068260Y025320D03*
X062830Y024870D03*
X060550Y026280D03*
X070930Y030180D03*
G04 *
G04 next data from source file './magencodercopyanothercopy/top_soldermask.GTS', *
G04 source file key is 'infile_0017'. *
G04 *
D29*
X001525Y060524D03*
X011596Y060525D03*
X011612Y070601D03*
X001515Y070611D03*
D12*
X004867Y063064D02*
X005467Y063064D01*
X006267Y063064D02*
X006867Y063064D01*
X007667Y063064D02*
X008267Y063064D01*
X008267Y062064D02*
X007667Y062064D01*
X006867Y062064D02*
X006267Y062064D01*
X005467Y062064D02*
X004867Y062064D01*
X004867Y061064D02*
X005467Y061064D01*
X006267Y061064D02*
X006867Y061064D01*
X007667Y061064D02*
X008267Y061064D01*
G04 *
G04 next data from source file './adknb/top_soldermask.GTS', *
G04 source file key is 'infile_0004'. *
G04 *
D10*
X036465Y004940D03*
X037465Y004940D03*
X030465Y016020D03*
X029465Y016020D03*
X027465Y016020D03*
X026465Y016020D03*
D11*
X028465Y004940D03*
X029465Y004940D03*
X030465Y004940D03*
X031465Y004940D03*
X032465Y004940D03*
X033465Y004940D03*
X034465Y004940D03*
D12*
X034945Y006450D02*
X034945Y007050D01*
X035945Y007050D02*
X035945Y006450D01*
X036945Y006450D02*
X036945Y007050D01*
D13*
X035945Y012650D03*
D14*
X033315Y012937D03*
X033315Y013763D03*
X033455Y010553D03*
X033455Y009727D03*
X026658Y011790D03*
X025832Y011790D03*
D15*
X033455Y009195D03*
X033455Y008525D03*
D16*
X022130Y004800D03*
X022800Y004800D03*
X023450Y004800D03*
X024120Y004800D03*
X024120Y005610D03*
X023450Y005610D03*
X022800Y005610D03*
X022130Y005610D03*
X026440Y005450D03*
X027110Y005450D03*
X029120Y011600D03*
X029790Y011600D03*
X028020Y011790D03*
X027350Y011790D03*
X031210Y015260D03*
X031880Y015260D03*
D17*
X029873Y010665D03*
X029873Y010074D03*
X029873Y009484D03*
X029873Y008893D03*
X029873Y008303D03*
X029873Y007712D03*
X029873Y007121D03*
X029873Y006531D03*
D18*
X029346Y006208D03*
X028755Y006208D03*
X028164Y006208D03*
X027574Y006208D03*
X026983Y006208D03*
X026393Y006208D03*
X025802Y006208D03*
X025212Y006208D03*
X024621Y006208D03*
X024031Y006208D03*
X023440Y006208D03*
X022849Y006208D03*
X022259Y006208D03*
X022259Y010972D03*
X022849Y010972D03*
X023440Y010972D03*
X024031Y010972D03*
X024621Y010972D03*
X025212Y010972D03*
X025802Y010972D03*
X026393Y010972D03*
X026983Y010972D03*
X027574Y010972D03*
X028164Y010972D03*
X028755Y010972D03*
X029346Y010972D03*
D19*
X030675Y011190D02*
X030675Y011750D01*
X031675Y011750D02*
X031675Y011190D01*
D20*
X032417Y008350D03*
X032417Y008094D03*
X032417Y007838D03*
X032417Y007582D03*
X032417Y007326D03*
X032417Y007070D03*
X032417Y006815D03*
X032417Y006559D03*
X032417Y006303D03*
X032417Y006047D03*
X030665Y006047D03*
X030665Y006303D03*
X030665Y006559D03*
X030665Y006815D03*
X030665Y007070D03*
X030665Y007326D03*
X030665Y007582D03*
X030665Y007838D03*
X030665Y008094D03*
X030665Y008350D03*
D21*
X032565Y014720D03*
X034705Y014720D03*
X035665Y014720D03*
X037805Y014720D03*
X037805Y017480D03*
X035665Y017480D03*
X034705Y017480D03*
X032565Y017480D03*
D19*
X033635Y017190D03*
X033635Y016400D03*
X033635Y015610D03*
X033635Y014820D03*
X036735Y014820D03*
X036735Y015610D03*
X036735Y016400D03*
X036735Y017190D03*
D23*
X031171Y009884D03*
X031171Y009136D03*
X031959Y009510D03*
D24*
X032545Y009047D03*
X032545Y009973D03*
X030565Y009973D03*
X030565Y009047D03*
D25*
X029117Y013260D03*
X026605Y013260D03*
D26*
X033415Y007399D03*
X033415Y005981D03*
D27*
X024415Y013160D03*
X024415Y015030D03*
X024415Y016900D03*
D28*
X029215Y010320D03*
X031075Y009510D03*
X031525Y009450D03*
X031405Y008100D03*
X031135Y007800D03*
X029305Y007680D03*
X029305Y008100D03*
X030055Y005880D03*
X024625Y005430D03*
X022345Y006840D03*
X032725Y010740D03*
G04 *
G04 next data from source file './adknbanothercopy3rdcopy/top_soldermask.GTS', *
G04 source file key is 'infile_0018'. *
G04 *
D10*
X037005Y042875D03*
X038005Y042875D03*
X031005Y053955D03*
X030005Y053955D03*
X028005Y053955D03*
X027005Y053955D03*
D11*
X029005Y042875D03*
X030005Y042875D03*
X031005Y042875D03*
X032005Y042875D03*
X033005Y042875D03*
X034005Y042875D03*
X035005Y042875D03*
D12*
X035485Y044385D02*
X035485Y044985D01*
X036485Y044985D02*
X036485Y044385D01*
X037485Y044385D02*
X037485Y044985D01*
D13*
X036485Y050585D03*
D14*
X033855Y050872D03*
X033855Y051698D03*
X033995Y048488D03*
X033995Y047662D03*
X027198Y049725D03*
X026372Y049725D03*
D15*
X033995Y047130D03*
X033995Y046460D03*
D16*
X022670Y042735D03*
X023340Y042735D03*
X023990Y042735D03*
X024660Y042735D03*
X024660Y043545D03*
X023990Y043545D03*
X023340Y043545D03*
X022670Y043545D03*
X026980Y043385D03*
X027650Y043385D03*
X029660Y049535D03*
X030330Y049535D03*
X028560Y049725D03*
X027890Y049725D03*
X031750Y053195D03*
X032420Y053195D03*
D17*
X030413Y048600D03*
X030413Y048009D03*
X030413Y047419D03*
X030413Y046828D03*
X030413Y046238D03*
X030413Y045647D03*
X030413Y045056D03*
X030413Y044466D03*
D18*
X029886Y044143D03*
X029295Y044143D03*
X028704Y044143D03*
X028114Y044143D03*
X027523Y044143D03*
X026933Y044143D03*
X026342Y044143D03*
X025752Y044143D03*
X025161Y044143D03*
X024571Y044143D03*
X023980Y044143D03*
X023389Y044143D03*
X022799Y044143D03*
X022799Y048907D03*
X023389Y048907D03*
X023980Y048907D03*
X024571Y048907D03*
X025161Y048907D03*
X025752Y048907D03*
X026342Y048907D03*
X026933Y048907D03*
X027523Y048907D03*
X028114Y048907D03*
X028704Y048907D03*
X029295Y048907D03*
X029886Y048907D03*
D19*
X031215Y049125D02*
X031215Y049685D01*
X032215Y049685D02*
X032215Y049125D01*
D20*
X032957Y046285D03*
X032957Y046029D03*
X032957Y045773D03*
X032957Y045517D03*
X032957Y045261D03*
X032957Y045005D03*
X032957Y044750D03*
X032957Y044494D03*
X032957Y044238D03*
X032957Y043982D03*
X031205Y043982D03*
X031205Y044238D03*
X031205Y044494D03*
X031205Y044750D03*
X031205Y045005D03*
X031205Y045261D03*
X031205Y045517D03*
X031205Y045773D03*
X031205Y046029D03*
X031205Y046285D03*
D21*
X033105Y052655D03*
X035245Y052655D03*
X036205Y052655D03*
X038345Y052655D03*
X038345Y055415D03*
X036205Y055415D03*
X035245Y055415D03*
X033105Y055415D03*
D19*
X034175Y055125D03*
X034175Y054335D03*
X034175Y053545D03*
X034175Y052755D03*
X037275Y052755D03*
X037275Y053545D03*
X037275Y054335D03*
X037275Y055125D03*
D23*
X031711Y047819D03*
X031711Y047071D03*
X032499Y047445D03*
D24*
X033085Y046982D03*
X033085Y047908D03*
X031105Y047908D03*
X031105Y046982D03*
D25*
X029657Y051195D03*
X027145Y051195D03*
D26*
X033955Y045334D03*
X033955Y043916D03*
D27*
X024955Y051095D03*
X024955Y052965D03*
X024955Y054835D03*
D28*
X029755Y048255D03*
X031615Y047445D03*
X032065Y047385D03*
X031945Y046035D03*
X031675Y045735D03*
X029845Y045615D03*
X029845Y046035D03*
X030595Y043815D03*
X025165Y043365D03*
X022885Y044775D03*
X033265Y048675D03*
G04 *
G04 next data from source file './adknbcopycopy/top_soldermask.GTS', *
G04 source file key is 'infile_0012'. *
G04 *
D10*
X017835Y024110D03*
X018835Y024110D03*
X011835Y035190D03*
X010835Y035190D03*
X008835Y035190D03*
X007835Y035190D03*
D11*
X009835Y024110D03*
X010835Y024110D03*
X011835Y024110D03*
X012835Y024110D03*
X013835Y024110D03*
X014835Y024110D03*
X015835Y024110D03*
D12*
X016315Y025620D02*
X016315Y026220D01*
X017315Y026220D02*
X017315Y025620D01*
X018315Y025620D02*
X018315Y026220D01*
D13*
X017315Y031820D03*
D14*
X014685Y032107D03*
X014685Y032933D03*
X014825Y029723D03*
X014825Y028897D03*
X008028Y030960D03*
X007202Y030960D03*
D15*
X014825Y028365D03*
X014825Y027695D03*
D16*
X003500Y023970D03*
X004170Y023970D03*
X004820Y023970D03*
X005490Y023970D03*
X005490Y024780D03*
X004820Y024780D03*
X004170Y024780D03*
X003500Y024780D03*
X007810Y024620D03*
X008480Y024620D03*
X010490Y030770D03*
X011160Y030770D03*
X009390Y030960D03*
X008720Y030960D03*
X012580Y034430D03*
X013250Y034430D03*
D17*
X011243Y029835D03*
X011243Y029244D03*
X011243Y028654D03*
X011243Y028063D03*
X011243Y027473D03*
X011243Y026882D03*
X011243Y026291D03*
X011243Y025701D03*
D18*
X010716Y025378D03*
X010125Y025378D03*
X009534Y025378D03*
X008944Y025378D03*
X008353Y025378D03*
X007763Y025378D03*
X007172Y025378D03*
X006582Y025378D03*
X005991Y025378D03*
X005401Y025378D03*
X004810Y025378D03*
X004219Y025378D03*
X003629Y025378D03*
X003629Y030142D03*
X004219Y030142D03*
X004810Y030142D03*
X005401Y030142D03*
X005991Y030142D03*
X006582Y030142D03*
X007172Y030142D03*
X007763Y030142D03*
X008353Y030142D03*
X008944Y030142D03*
X009534Y030142D03*
X010125Y030142D03*
X010716Y030142D03*
D19*
X012045Y030360D02*
X012045Y030920D01*
X013045Y030920D02*
X013045Y030360D01*
D20*
X013787Y027520D03*
X013787Y027264D03*
X013787Y027008D03*
X013787Y026752D03*
X013787Y026496D03*
X013787Y026240D03*
X013787Y025985D03*
X013787Y025729D03*
X013787Y025473D03*
X013787Y025217D03*
X012035Y025217D03*
X012035Y025473D03*
X012035Y025729D03*
X012035Y025985D03*
X012035Y026240D03*
X012035Y026496D03*
X012035Y026752D03*
X012035Y027008D03*
X012035Y027264D03*
X012035Y027520D03*
D21*
X013935Y033890D03*
X016075Y033890D03*
X017035Y033890D03*
X019175Y033890D03*
X019175Y036650D03*
X017035Y036650D03*
X016075Y036650D03*
X013935Y036650D03*
D19*
X015005Y036360D03*
X015005Y035570D03*
X015005Y034780D03*
X015005Y033990D03*
X018105Y033990D03*
X018105Y034780D03*
X018105Y035570D03*
X018105Y036360D03*
D23*
X012541Y029054D03*
X012541Y028306D03*
X013329Y028680D03*
D24*
X013915Y028217D03*
X013915Y029143D03*
X011935Y029143D03*
X011935Y028217D03*
D25*
X010487Y032430D03*
X007975Y032430D03*
D26*
X014785Y026569D03*
X014785Y025151D03*
D27*
X005785Y032330D03*
X005785Y034200D03*
X005785Y036070D03*
D28*
X010585Y029490D03*
X012445Y028680D03*
X012895Y028620D03*
X012775Y027270D03*
X012505Y026970D03*
X010675Y026850D03*
X010675Y027270D03*
X011425Y025050D03*
X005995Y024600D03*
X003715Y026010D03*
X014095Y029910D03*
G04 *
G04 next data from source file './magencodercopy/top_soldermask.GTS', *
G04 source file key is 'infile_0002'. *
G04 *
D29*
X039055Y060659D03*
X049126Y060660D03*
X049142Y070736D03*
X039045Y070746D03*
D12*
X042397Y063199D02*
X042997Y063199D01*
X043797Y063199D02*
X044397Y063199D01*
X045197Y063199D02*
X045797Y063199D01*
X045797Y062199D02*
X045197Y062199D01*
X044397Y062199D02*
X043797Y062199D01*
X042997Y062199D02*
X042397Y062199D01*
X042397Y061199D02*
X042997Y061199D01*
X043797Y061199D02*
X044397Y061199D01*
X045197Y061199D02*
X045797Y061199D01*
G04 *
G04 next data from source file './adknbanothercopyanothercopy/top_soldermask.GTS', *
G04 source file key is 'infile_0013'. *
G04 *
D10*
X037005Y023840D03*
X038005Y023840D03*
X031005Y034920D03*
X030005Y034920D03*
X028005Y034920D03*
X027005Y034920D03*
D11*
X029005Y023840D03*
X030005Y023840D03*
X031005Y023840D03*
X032005Y023840D03*
X033005Y023840D03*
X034005Y023840D03*
X035005Y023840D03*
D12*
X035485Y025350D02*
X035485Y025950D01*
X036485Y025950D02*
X036485Y025350D01*
X037485Y025350D02*
X037485Y025950D01*
D13*
X036485Y031550D03*
D14*
X033855Y031837D03*
X033855Y032663D03*
X033995Y029453D03*
X033995Y028627D03*
X027198Y030690D03*
X026372Y030690D03*
D15*
X033995Y028095D03*
X033995Y027425D03*
D16*
X022670Y023700D03*
X023340Y023700D03*
X023990Y023700D03*
X024660Y023700D03*
X024660Y024510D03*
X023990Y024510D03*
X023340Y024510D03*
X022670Y024510D03*
X026980Y024350D03*
X027650Y024350D03*
X029660Y030500D03*
X030330Y030500D03*
X028560Y030690D03*
X027890Y030690D03*
X031750Y034160D03*
X032420Y034160D03*
D17*
X030413Y029565D03*
X030413Y028974D03*
X030413Y028384D03*
X030413Y027793D03*
X030413Y027203D03*
X030413Y026612D03*
X030413Y026021D03*
X030413Y025431D03*
D18*
X029886Y025108D03*
X029295Y025108D03*
X028704Y025108D03*
X028114Y025108D03*
X027523Y025108D03*
X026933Y025108D03*
X026342Y025108D03*
X025752Y025108D03*
X025161Y025108D03*
X024571Y025108D03*
X023980Y025108D03*
X023389Y025108D03*
X022799Y025108D03*
X022799Y029872D03*
X023389Y029872D03*
X023980Y029872D03*
X024571Y029872D03*
X025161Y029872D03*
X025752Y029872D03*
X026342Y029872D03*
X026933Y029872D03*
X027523Y029872D03*
X028114Y029872D03*
X028704Y029872D03*
X029295Y029872D03*
X029886Y029872D03*
D19*
X031215Y030090D02*
X031215Y030650D01*
X032215Y030650D02*
X032215Y030090D01*
D20*
X032957Y027250D03*
X032957Y026994D03*
X032957Y026738D03*
X032957Y026482D03*
X032957Y026226D03*
X032957Y025970D03*
X032957Y025715D03*
X032957Y025459D03*
X032957Y025203D03*
X032957Y024947D03*
X031205Y024947D03*
X031205Y025203D03*
X031205Y025459D03*
X031205Y025715D03*
X031205Y025970D03*
X031205Y026226D03*
X031205Y026482D03*
X031205Y026738D03*
X031205Y026994D03*
X031205Y027250D03*
D21*
X033105Y033620D03*
X035245Y033620D03*
X036205Y033620D03*
X038345Y033620D03*
X038345Y036380D03*
X036205Y036380D03*
X035245Y036380D03*
X033105Y036380D03*
D19*
X034175Y036090D03*
X034175Y035300D03*
X034175Y034510D03*
X034175Y033720D03*
X037275Y033720D03*
X037275Y034510D03*
X037275Y035300D03*
X037275Y036090D03*
D23*
X031711Y028784D03*
X031711Y028036D03*
X032499Y028410D03*
D24*
X033085Y027947D03*
X033085Y028873D03*
X031105Y028873D03*
X031105Y027947D03*
D25*
X029657Y032160D03*
X027145Y032160D03*
D26*
X033955Y026299D03*
X033955Y024881D03*
D27*
X024955Y032060D03*
X024955Y033930D03*
X024955Y035800D03*
D28*
X029755Y029220D03*
X031615Y028410D03*
X032065Y028350D03*
X031945Y027000D03*
X031675Y026700D03*
X029845Y026580D03*
X029845Y027000D03*
X030595Y024780D03*
X025165Y024330D03*
X022885Y025740D03*
X033265Y029640D03*
G04 *
G04 next data from source file './adknb4thcopy3rdcopy/top_soldermask.GTS', *
G04 source file key is 'infile_0005'. *
G04 *
D10*
X017295Y005075D03*
X018295Y005075D03*
X011295Y016155D03*
X010295Y016155D03*
X008295Y016155D03*
X007295Y016155D03*
D11*
X009295Y005075D03*
X010295Y005075D03*
X011295Y005075D03*
X012295Y005075D03*
X013295Y005075D03*
X014295Y005075D03*
X015295Y005075D03*
D12*
X015775Y006585D02*
X015775Y007185D01*
X016775Y007185D02*
X016775Y006585D01*
X017775Y006585D02*
X017775Y007185D01*
D13*
X016775Y012785D03*
D14*
X014145Y013072D03*
X014145Y013898D03*
X014285Y010688D03*
X014285Y009862D03*
X007488Y011925D03*
X006662Y011925D03*
D15*
X014285Y009330D03*
X014285Y008660D03*
D16*
X002960Y004935D03*
X003630Y004935D03*
X004280Y004935D03*
X004950Y004935D03*
X004950Y005745D03*
X004280Y005745D03*
X003630Y005745D03*
X002960Y005745D03*
X007270Y005585D03*
X007940Y005585D03*
X009950Y011735D03*
X010620Y011735D03*
X008850Y011925D03*
X008180Y011925D03*
X012040Y015395D03*
X012710Y015395D03*
D17*
X010703Y010800D03*
X010703Y010209D03*
X010703Y009619D03*
X010703Y009028D03*
X010703Y008438D03*
X010703Y007847D03*
X010703Y007256D03*
X010703Y006666D03*
D18*
X010176Y006343D03*
X009585Y006343D03*
X008994Y006343D03*
X008404Y006343D03*
X007813Y006343D03*
X007223Y006343D03*
X006632Y006343D03*
X006042Y006343D03*
X005451Y006343D03*
X004861Y006343D03*
X004270Y006343D03*
X003679Y006343D03*
X003089Y006343D03*
X003089Y011107D03*
X003679Y011107D03*
X004270Y011107D03*
X004861Y011107D03*
X005451Y011107D03*
X006042Y011107D03*
X006632Y011107D03*
X007223Y011107D03*
X007813Y011107D03*
X008404Y011107D03*
X008994Y011107D03*
X009585Y011107D03*
X010176Y011107D03*
D19*
X011505Y011325D02*
X011505Y011885D01*
X012505Y011885D02*
X012505Y011325D01*
D20*
X013247Y008485D03*
X013247Y008229D03*
X013247Y007973D03*
X013247Y007717D03*
X013247Y007461D03*
X013247Y007205D03*
X013247Y006950D03*
X013247Y006694D03*
X013247Y006438D03*
X013247Y006182D03*
X011495Y006182D03*
X011495Y006438D03*
X011495Y006694D03*
X011495Y006950D03*
X011495Y007205D03*
X011495Y007461D03*
X011495Y007717D03*
X011495Y007973D03*
X011495Y008229D03*
X011495Y008485D03*
D21*
X013395Y014855D03*
X015535Y014855D03*
X016495Y014855D03*
X018635Y014855D03*
X018635Y017615D03*
X016495Y017615D03*
X015535Y017615D03*
X013395Y017615D03*
D19*
X014465Y017325D03*
X014465Y016535D03*
X014465Y015745D03*
X014465Y014955D03*
X017565Y014955D03*
X017565Y015745D03*
X017565Y016535D03*
X017565Y017325D03*
D23*
X012001Y010019D03*
X012001Y009271D03*
X012789Y009645D03*
D24*
X013375Y009182D03*
X013375Y010108D03*
X011395Y010108D03*
X011395Y009182D03*
D25*
X009947Y013395D03*
X007435Y013395D03*
D26*
X014245Y007534D03*
X014245Y006116D03*
D27*
X005245Y013295D03*
X005245Y015165D03*
X005245Y017035D03*
D28*
X010045Y010455D03*
X011905Y009645D03*
X012355Y009585D03*
X012235Y008235D03*
X011965Y007935D03*
X010135Y007815D03*
X010135Y008235D03*
X010885Y006015D03*
X005455Y005565D03*
X003175Y006975D03*
X013555Y010875D03*
G04 *
G04 next data from source file './adknb4thcopyanothercopy/top_soldermask.GTS', *
G04 source file key is 'infile_0016'. *
G04 *
D10*
X056040Y024110D03*
X057040Y024110D03*
X050040Y035190D03*
X049040Y035190D03*
X047040Y035190D03*
X046040Y035190D03*
D11*
X048040Y024110D03*
X049040Y024110D03*
X050040Y024110D03*
X051040Y024110D03*
X052040Y024110D03*
X053040Y024110D03*
X054040Y024110D03*
D12*
X054520Y025620D02*
X054520Y026220D01*
X055520Y026220D02*
X055520Y025620D01*
X056520Y025620D02*
X056520Y026220D01*
D13*
X055520Y031820D03*
D14*
X052890Y032107D03*
X052890Y032933D03*
X053030Y029723D03*
X053030Y028897D03*
X046233Y030960D03*
X045407Y030960D03*
D15*
X053030Y028365D03*
X053030Y027695D03*
D16*
X041705Y023970D03*
X042375Y023970D03*
X043025Y023970D03*
X043695Y023970D03*
X043695Y024780D03*
X043025Y024780D03*
X042375Y024780D03*
X041705Y024780D03*
X046015Y024620D03*
X046685Y024620D03*
X048695Y030770D03*
X049365Y030770D03*
X047595Y030960D03*
X046925Y030960D03*
X050785Y034430D03*
X051455Y034430D03*
D17*
X049448Y029835D03*
X049448Y029244D03*
X049448Y028654D03*
X049448Y028063D03*
X049448Y027473D03*
X049448Y026882D03*
X049448Y026291D03*
X049448Y025701D03*
D18*
X048921Y025378D03*
X048330Y025378D03*
X047739Y025378D03*
X047149Y025378D03*
X046558Y025378D03*
X045968Y025378D03*
X045377Y025378D03*
X044787Y025378D03*
X044196Y025378D03*
X043606Y025378D03*
X043015Y025378D03*
X042424Y025378D03*
X041834Y025378D03*
X041834Y030142D03*
X042424Y030142D03*
X043015Y030142D03*
X043606Y030142D03*
X044196Y030142D03*
X044787Y030142D03*
X045377Y030142D03*
X045968Y030142D03*
X046558Y030142D03*
X047149Y030142D03*
X047739Y030142D03*
X048330Y030142D03*
X048921Y030142D03*
D19*
X050250Y030360D02*
X050250Y030920D01*
X051250Y030920D02*
X051250Y030360D01*
D20*
X051992Y027520D03*
X051992Y027264D03*
X051992Y027008D03*
X051992Y026752D03*
X051992Y026496D03*
X051992Y026240D03*
X051992Y025985D03*
X051992Y025729D03*
X051992Y025473D03*
X051992Y025217D03*
X050240Y025217D03*
X050240Y025473D03*
X050240Y025729D03*
X050240Y025985D03*
X050240Y026240D03*
X050240Y026496D03*
X050240Y026752D03*
X050240Y027008D03*
X050240Y027264D03*
X050240Y027520D03*
D21*
X052140Y033890D03*
X054280Y033890D03*
X055240Y033890D03*
X057380Y033890D03*
X057380Y036650D03*
X055240Y036650D03*
X054280Y036650D03*
X052140Y036650D03*
D19*
X053210Y036360D03*
X053210Y035570D03*
X053210Y034780D03*
X053210Y033990D03*
X056310Y033990D03*
X056310Y034780D03*
X056310Y035570D03*
X056310Y036360D03*
D23*
X050746Y029054D03*
X050746Y028306D03*
X051534Y028680D03*
D24*
X052120Y028217D03*
X052120Y029143D03*
X050140Y029143D03*
X050140Y028217D03*
D25*
X048692Y032430D03*
X046180Y032430D03*
D26*
X052990Y026569D03*
X052990Y025151D03*
D27*
X043990Y032330D03*
X043990Y034200D03*
X043990Y036070D03*
D28*
X048790Y029490D03*
X050650Y028680D03*
X051100Y028620D03*
X050980Y027270D03*
X050710Y026970D03*
X048880Y026850D03*
X048880Y027270D03*
X049630Y025050D03*
X044200Y024600D03*
X041920Y026010D03*
X052300Y029910D03*
G04 *
G04 next data from source file './magencoderanothercopy/top_soldermask.GTS', *
G04 source file key is 'infile_0011'. *
G04 *
D29*
X051610Y060524D03*
X061681Y060525D03*
X061697Y070601D03*
X051600Y070611D03*
D12*
X054952Y063064D02*
X055552Y063064D01*
X056352Y063064D02*
X056952Y063064D01*
X057752Y063064D02*
X058352Y063064D01*
X058352Y062064D02*
X057752Y062064D01*
X056952Y062064D02*
X056352Y062064D01*
X055552Y062064D02*
X054952Y062064D01*
X054952Y061064D02*
X055552Y061064D01*
X056352Y061064D02*
X056952Y061064D01*
X057752Y061064D02*
X058352Y061064D01*
G04 *
G04 next data from source file './adknbanothercopycopy/top_soldermask.GTS', *
G04 source file key is 'infile_0009'. *
G04 *
D10*
X056175Y042740D03*
X057175Y042740D03*
X050175Y053820D03*
X049175Y053820D03*
X047175Y053820D03*
X046175Y053820D03*
D11*
X048175Y042740D03*
X049175Y042740D03*
X050175Y042740D03*
X051175Y042740D03*
X052175Y042740D03*
X053175Y042740D03*
X054175Y042740D03*
D12*
X054655Y044250D02*
X054655Y044850D01*
X055655Y044850D02*
X055655Y044250D01*
X056655Y044250D02*
X056655Y044850D01*
D13*
X055655Y050450D03*
D14*
X053025Y050737D03*
X053025Y051563D03*
X053165Y048353D03*
X053165Y047527D03*
X046368Y049590D03*
X045542Y049590D03*
D15*
X053165Y046995D03*
X053165Y046325D03*
D16*
X041840Y042600D03*
X042510Y042600D03*
X043160Y042600D03*
X043830Y042600D03*
X043830Y043410D03*
X043160Y043410D03*
X042510Y043410D03*
X041840Y043410D03*
X046150Y043250D03*
X046820Y043250D03*
X048830Y049400D03*
X049500Y049400D03*
X047730Y049590D03*
X047060Y049590D03*
X050920Y053060D03*
X051590Y053060D03*
D17*
X049583Y048465D03*
X049583Y047874D03*
X049583Y047284D03*
X049583Y046693D03*
X049583Y046103D03*
X049583Y045512D03*
X049583Y044921D03*
X049583Y044331D03*
D18*
X049056Y044008D03*
X048465Y044008D03*
X047874Y044008D03*
X047284Y044008D03*
X046693Y044008D03*
X046103Y044008D03*
X045512Y044008D03*
X044922Y044008D03*
X044331Y044008D03*
X043741Y044008D03*
X043150Y044008D03*
X042559Y044008D03*
X041969Y044008D03*
X041969Y048772D03*
X042559Y048772D03*
X043150Y048772D03*
X043741Y048772D03*
X044331Y048772D03*
X044922Y048772D03*
X045512Y048772D03*
X046103Y048772D03*
X046693Y048772D03*
X047284Y048772D03*
X047874Y048772D03*
X048465Y048772D03*
X049056Y048772D03*
D19*
X050385Y048990D02*
X050385Y049550D01*
X051385Y049550D02*
X051385Y048990D01*
D20*
X052127Y046150D03*
X052127Y045894D03*
X052127Y045638D03*
X052127Y045382D03*
X052127Y045126D03*
X052127Y044870D03*
X052127Y044615D03*
X052127Y044359D03*
X052127Y044103D03*
X052127Y043847D03*
X050375Y043847D03*
X050375Y044103D03*
X050375Y044359D03*
X050375Y044615D03*
X050375Y044870D03*
X050375Y045126D03*
X050375Y045382D03*
X050375Y045638D03*
X050375Y045894D03*
X050375Y046150D03*
D21*
X052275Y052520D03*
X054415Y052520D03*
X055375Y052520D03*
X057515Y052520D03*
X057515Y055280D03*
X055375Y055280D03*
X054415Y055280D03*
X052275Y055280D03*
D19*
X053345Y054990D03*
X053345Y054200D03*
X053345Y053410D03*
X053345Y052620D03*
X056445Y052620D03*
X056445Y053410D03*
X056445Y054200D03*
X056445Y054990D03*
D23*
X050881Y047684D03*
X050881Y046936D03*
X051669Y047310D03*
D24*
X052255Y046847D03*
X052255Y047773D03*
X050275Y047773D03*
X050275Y046847D03*
D25*
X048827Y051060D03*
X046315Y051060D03*
D26*
X053125Y045199D03*
X053125Y043781D03*
D27*
X044125Y050960D03*
X044125Y052830D03*
X044125Y054700D03*
D28*
X048925Y048120D03*
X050785Y047310D03*
X051235Y047250D03*
X051115Y045900D03*
X050845Y045600D03*
X049015Y045480D03*
X049015Y045900D03*
X049765Y043680D03*
X044335Y043230D03*
X042055Y044640D03*
X052435Y048540D03*
G04 *
G04 next data from source file './magencodercopycopy/top_soldermask.GTS', *
G04 source file key is 'infile_0015'. *
G04 *
D29*
X014080Y060524D03*
X024151Y060525D03*
X024167Y070601D03*
X014070Y070611D03*
D12*
X017422Y063064D02*
X018022Y063064D01*
X018822Y063064D02*
X019422Y063064D01*
X020222Y063064D02*
X020822Y063064D01*
X020822Y062064D02*
X020222Y062064D01*
X019422Y062064D02*
X018822Y062064D01*
X018022Y062064D02*
X017422Y062064D01*
X017422Y061064D02*
X018022Y061064D01*
X018822Y061064D02*
X019422Y061064D01*
X020222Y061064D02*
X020822Y061064D01*
G04 *
G04 next data from source file './adknb4thcopycopy/top_soldermask.GTS', *
G04 source file key is 'infile_0006'. *
G04 *
D10*
X017835Y042875D03*
X018835Y042875D03*
X011835Y053955D03*
X010835Y053955D03*
X008835Y053955D03*
X007835Y053955D03*
D11*
X009835Y042875D03*
X010835Y042875D03*
X011835Y042875D03*
X012835Y042875D03*
X013835Y042875D03*
X014835Y042875D03*
X015835Y042875D03*
D12*
X016315Y044385D02*
X016315Y044985D01*
X017315Y044985D02*
X017315Y044385D01*
X018315Y044385D02*
X018315Y044985D01*
D13*
X017315Y050585D03*
D14*
X014685Y050872D03*
X014685Y051698D03*
X014825Y048488D03*
X014825Y047662D03*
X008028Y049725D03*
X007202Y049725D03*
D15*
X014825Y047130D03*
X014825Y046460D03*
D16*
X003500Y042735D03*
X004170Y042735D03*
X004820Y042735D03*
X005490Y042735D03*
X005490Y043545D03*
X004820Y043545D03*
X004170Y043545D03*
X003500Y043545D03*
X007810Y043385D03*
X008480Y043385D03*
X010490Y049535D03*
X011160Y049535D03*
X009390Y049725D03*
X008720Y049725D03*
X012580Y053195D03*
X013250Y053195D03*
D17*
X011243Y048600D03*
X011243Y048009D03*
X011243Y047419D03*
X011243Y046828D03*
X011243Y046238D03*
X011243Y045647D03*
X011243Y045056D03*
X011243Y044466D03*
D18*
X010716Y044143D03*
X010125Y044143D03*
X009534Y044143D03*
X008944Y044143D03*
X008353Y044143D03*
X007763Y044143D03*
X007172Y044143D03*
X006582Y044143D03*
X005991Y044143D03*
X005401Y044143D03*
X004810Y044143D03*
X004219Y044143D03*
X003629Y044143D03*
X003629Y048907D03*
X004219Y048907D03*
X004810Y048907D03*
X005401Y048907D03*
X005991Y048907D03*
X006582Y048907D03*
X007172Y048907D03*
X007763Y048907D03*
X008353Y048907D03*
X008944Y048907D03*
X009534Y048907D03*
X010125Y048907D03*
X010716Y048907D03*
D19*
X012045Y049125D02*
X012045Y049685D01*
X013045Y049685D02*
X013045Y049125D01*
D20*
X013787Y046285D03*
X013787Y046029D03*
X013787Y045773D03*
X013787Y045517D03*
X013787Y045261D03*
X013787Y045005D03*
X013787Y044750D03*
X013787Y044494D03*
X013787Y044238D03*
X013787Y043982D03*
X012035Y043982D03*
X012035Y044238D03*
X012035Y044494D03*
X012035Y044750D03*
X012035Y045005D03*
X012035Y045261D03*
X012035Y045517D03*
X012035Y045773D03*
X012035Y046029D03*
X012035Y046285D03*
D21*
X013935Y052655D03*
X016075Y052655D03*
X017035Y052655D03*
X019175Y052655D03*
X019175Y055415D03*
X017035Y055415D03*
X016075Y055415D03*
X013935Y055415D03*
D19*
X015005Y055125D03*
X015005Y054335D03*
X015005Y053545D03*
X015005Y052755D03*
X018105Y052755D03*
X018105Y053545D03*
X018105Y054335D03*
X018105Y055125D03*
D23*
X012541Y047819D03*
X012541Y047071D03*
X013329Y047445D03*
D24*
X013915Y046982D03*
X013915Y047908D03*
X011935Y047908D03*
X011935Y046982D03*
D25*
X010487Y051195D03*
X007975Y051195D03*
D26*
X014785Y045334D03*
X014785Y043916D03*
D27*
X005785Y051095D03*
X005785Y052965D03*
X005785Y054835D03*
D28*
X010585Y048255D03*
X012445Y047445D03*
X012895Y047385D03*
X012775Y046035D03*
X012505Y045735D03*
X010675Y045615D03*
X010675Y046035D03*
X011425Y043815D03*
X005995Y043365D03*
X003715Y044775D03*
X014095Y048675D03*
G04 *
G04 next data from source file './magencoder/top_soldermask.GTS', *
G04 source file key is 'infile_0014'. *
G04 *
D29*
X064840Y060794D03*
X074911Y060795D03*
X074927Y070871D03*
X064830Y070881D03*
D12*
X068182Y063334D02*
X068782Y063334D01*
X069582Y063334D02*
X070182Y063334D01*
X070982Y063334D02*
X071582Y063334D01*
X071582Y062334D02*
X070982Y062334D01*
X070182Y062334D02*
X069582Y062334D01*
X068782Y062334D02*
X068182Y062334D01*
X068182Y061334D02*
X068782Y061334D01*
X069582Y061334D02*
X070182Y061334D01*
X070982Y061334D02*
X071582Y061334D01*
G04 *
G04 next data from source file './adknbcopy/top_soldermask.GTS', *
G04 source file key is 'infile_0001'. *
G04 *
D10*
X074940Y043280D03*
X075940Y043280D03*
X068940Y054360D03*
X067940Y054360D03*
X065940Y054360D03*
X064940Y054360D03*
D11*
X066940Y043280D03*
X067940Y043280D03*
X068940Y043280D03*
X069940Y043280D03*
X070940Y043280D03*
X071940Y043280D03*
X072940Y043280D03*
D12*
X073420Y044790D02*
X073420Y045390D01*
X074420Y045390D02*
X074420Y044790D01*
X075420Y044790D02*
X075420Y045390D01*
D13*
X074420Y050990D03*
D14*
X071790Y051277D03*
X071790Y052103D03*
X071930Y048893D03*
X071930Y048067D03*
X065133Y050130D03*
X064307Y050130D03*
D15*
X071930Y047535D03*
X071930Y046865D03*
D16*
X060605Y043140D03*
X061275Y043140D03*
X061925Y043140D03*
X062595Y043140D03*
X062595Y043950D03*
X061925Y043950D03*
X061275Y043950D03*
X060605Y043950D03*
X064915Y043790D03*
X065585Y043790D03*
X067595Y049940D03*
X068265Y049940D03*
X066495Y050130D03*
X065825Y050130D03*
X069685Y053600D03*
X070355Y053600D03*
D17*
X068348Y049005D03*
X068348Y048414D03*
X068348Y047824D03*
X068348Y047233D03*
X068348Y046643D03*
X068348Y046052D03*
X068348Y045461D03*
X068348Y044871D03*
D18*
X067821Y044548D03*
X067230Y044548D03*
X066639Y044548D03*
X066049Y044548D03*
X065458Y044548D03*
X064868Y044548D03*
X064277Y044548D03*
X063687Y044548D03*
X063096Y044548D03*
X062506Y044548D03*
X061915Y044548D03*
X061324Y044548D03*
X060734Y044548D03*
X060734Y049312D03*
X061324Y049312D03*
X061915Y049312D03*
X062506Y049312D03*
X063096Y049312D03*
X063687Y049312D03*
X064277Y049312D03*
X064868Y049312D03*
X065458Y049312D03*
X066049Y049312D03*
X066639Y049312D03*
X067230Y049312D03*
X067821Y049312D03*
D19*
X069150Y049530D02*
X069150Y050090D01*
X070150Y050090D02*
X070150Y049530D01*
D20*
X070892Y046690D03*
X070892Y046434D03*
X070892Y046178D03*
X070892Y045922D03*
X070892Y045666D03*
X070892Y045410D03*
X070892Y045155D03*
X070892Y044899D03*
X070892Y044643D03*
X070892Y044387D03*
X069140Y044387D03*
X069140Y044643D03*
X069140Y044899D03*
X069140Y045155D03*
X069140Y045410D03*
X069140Y045666D03*
X069140Y045922D03*
X069140Y046178D03*
X069140Y046434D03*
X069140Y046690D03*
D21*
X071040Y053060D03*
X073180Y053060D03*
X074140Y053060D03*
X076280Y053060D03*
X076280Y055820D03*
X074140Y055820D03*
X073180Y055820D03*
X071040Y055820D03*
D19*
X072110Y055530D03*
X072110Y054740D03*
X072110Y053950D03*
X072110Y053160D03*
X075210Y053160D03*
X075210Y053950D03*
X075210Y054740D03*
X075210Y055530D03*
D23*
X069646Y048224D03*
X069646Y047476D03*
X070434Y047850D03*
D24*
X071020Y047387D03*
X071020Y048313D03*
X069040Y048313D03*
X069040Y047387D03*
D25*
X067592Y051600D03*
X065080Y051600D03*
D26*
X071890Y045739D03*
X071890Y044321D03*
D27*
X062890Y051500D03*
X062890Y053370D03*
X062890Y055240D03*
D28*
X067690Y048660D03*
X069550Y047850D03*
X070000Y047790D03*
X069880Y046440D03*
X069610Y046140D03*
X067780Y046020D03*
X067780Y046440D03*
X068530Y044220D03*
X063100Y043770D03*
X060820Y045180D03*
X071200Y049080D03*
M02*
